<svg xmlns="http://www.w3.org/2000/svg" width="502" height="473" viewBox="0 0 502 473" fill="none"><g filter="url(#filter0_d_4404_10892)"><path fill-rule="evenodd" clip-rule="evenodd" d="M9 10C11.7614 10 14 7.76142 14 5C14 2.23858 11.7614 0 9 0C6.23858 0 4 2.23858 4 5C4 7.76142 6.23858 10 9 10ZM27 10C29.7614 10 32 7.76142 32 5C32 2.23858 29.7614 0 27 0C24.2386 0 22 2.23858 22 5C22 7.76142 24.2386 10 27 10ZM50 5C50 7.76142 47.7614 10 45 10C42.2386 10 40 7.76142 40 5C40 2.23858 42.2386 0 45 0C47.7614 0 50 2.23858 50 5ZM63 10C65.7614 10 68 7.76142 68 5C68 2.23858 65.7614 0 63 0C60.2386 0 58 2.23858 58 5C58 7.76142 60.2386 10 63 10ZM86 5C86 7.76142 83.7614 10 81 10C78.2386 10 76 7.76142 76 5C76 2.23858 78.2386 0 81 0C83.7614 0 86 2.23858 86 5ZM99 10C101.761 10 104 7.76142 104 5C104 2.23858 101.761 0 99 0C96.2386 0 94 2.23858 94 5C94 7.76142 96.2386 10 99 10ZM122 5C122 7.76142 119.761 10 117 10C114.239 10 112 7.76142 112 5C112 2.23858 114.239 0 117 0C119.761 0 122 2.23858 122 5ZM135 10C137.761 10 140 7.76142 140 5C140 2.23858 137.761 0 135 0C132.239 0 130 2.23858 130 5C130 7.76142 132.239 10 135 10ZM158 5C158 7.76142 155.761 10 153 10C150.239 10 148 7.76142 148 5C148 2.23858 150.239 0 153 0C155.761 0 158 2.23858 158 5ZM171 10C173.761 10 176 7.76142 176 5C176 2.23858 173.761 0 171 0C168.239 0 166 2.23858 166 5C166 7.76142 168.239 10 171 10ZM194 5C194 7.76142 191.761 10 189 10C186.239 10 184 7.76142 184 5C184 2.23858 186.239 0 189 0C191.761 0 194 2.23858 194 5ZM207 10C209.761 10 212 7.76142 212 5C212 2.23858 209.761 0 207 0C204.239 0 202 2.23858 202 5C202 7.76142 204.239 10 207 10ZM230 5C230 7.76142 227.761 10 225 10C222.239 10 220 7.76142 220 5C220 2.23858 222.239 0 225 0C227.761 0 230 2.23858 230 5ZM243 10C245.761 10 248 7.76142 248 5C248 2.23858 245.761 0 243 0C240.239 0 238 2.23858 238 5C238 7.76142 240.239 10 243 10ZM14 65.8C14 68.5614 11.7614 70.8 9 70.8C6.23858 70.8 4 68.5614 4 65.8C4 63.0386 6.23858 60.8 9 60.8C11.7614 60.8 14 63.0386 14 65.8ZM27 70.8C29.7614 70.8 32 68.5614 32 65.8C32 63.0386 29.7614 60.8 27 60.8C24.2386 60.8 22 63.0386 22 65.8C22 68.5614 24.2386 70.8 27 70.8ZM50 65.8C50 68.5614 47.7614 70.8 45 70.8C42.2386 70.8 40 68.5614 40 65.8C40 63.0386 42.2386 60.8 45 60.8C47.7614 60.8 50 63.0386 50 65.8ZM63 70.8C65.7614 70.8 68 68.5614 68 65.8C68 63.0386 65.7614 60.8 63 60.8C60.2386 60.8 58 63.0386 58 65.8C58 68.5614 60.2386 70.8 63 70.8ZM86 65.8C86 68.5614 83.7614 70.8 81 70.8C78.2386 70.8 76 68.5614 76 65.8C76 63.0386 78.2386 60.8 81 60.8C83.7614 60.8 86 63.0386 86 65.8ZM99 70.8C101.761 70.8 104 68.5614 104 65.8C104 63.0386 101.761 60.8 99 60.8C96.2386 60.8 94 63.0386 94 65.8C94 68.5614 96.2386 70.8 99 70.8ZM122 65.8C122 68.5614 119.761 70.8 117 70.8C114.239 70.8 112 68.5614 112 65.8C112 63.0386 114.239 60.8 117 60.8C119.761 60.8 122 63.0386 122 65.8ZM135 70.8C137.761 70.8 140 68.5614 140 65.8C140 63.0386 137.761 60.8 135 60.8C132.239 60.8 130 63.0386 130 65.8C130 68.5614 132.239 70.8 135 70.8ZM158 65.8C158 68.5614 155.761 70.8 153 70.8C150.239 70.8 148 68.5614 148 65.8C148 63.0386 150.239 60.8 153 60.8C155.761 60.8 158 63.0386 158 65.8ZM171 70.8C173.761 70.8 176 68.5614 176 65.8C176 63.0386 173.761 60.8 171 60.8C168.239 60.8 166 63.0386 166 65.8C166 68.5614 168.239 70.8 171 70.8ZM194 65.8C194 68.5614 191.761 70.8 189 70.8C186.239 70.8 184 68.5614 184 65.8C184 63.0386 186.239 60.8 189 60.8C191.761 60.8 194 63.0386 194 65.8ZM207 70.8C209.761 70.8 212 68.5614 212 65.8C212 63.0386 209.761 60.8 207 60.8C204.239 60.8 202 63.0386 202 65.8C202 68.5614 204.239 70.8 207 70.8ZM230 65.8C230 68.5614 227.761 70.8 225 70.8C222.239 70.8 220 68.5614 220 65.8C220 63.0386 222.239 60.8 225 60.8C227.761 60.8 230 63.0386 230 65.8ZM243 70.8C245.761 70.8 248 68.5614 248 65.8C248 63.0386 245.761 60.8 243 60.8C240.239 60.8 238 63.0386 238 65.8C238 68.5614 240.239 70.8 243 70.8ZM14 126.6C14 129.361 11.7614 131.6 9 131.6C6.23858 131.6 4 129.361 4 126.6C4 123.839 6.23858 121.6 9 121.6C11.7614 121.6 14 123.839 14 126.6ZM27 131.6C29.7614 131.6 32 129.361 32 126.6C32 123.839 29.7614 121.6 27 121.6C24.2386 121.6 22 123.839 22 126.6C22 129.361 24.2386 131.6 27 131.6ZM50 126.6C50 129.361 47.7614 131.6 45 131.6C42.2386 131.6 40 129.361 40 126.6C40 123.839 42.2386 121.6 45 121.6C47.7614 121.6 50 123.839 50 126.6ZM63 131.6C65.7614 131.6 68 129.361 68 126.6C68 123.839 65.7614 121.6 63 121.6C60.2386 121.6 58 123.839 58 126.6C58 129.361 60.2386 131.6 63 131.6ZM86 126.6C86 129.361 83.7614 131.6 81 131.6C78.2386 131.6 76 129.361 76 126.6C76 123.839 78.2386 121.6 81 121.6C83.7614 121.6 86 123.839 86 126.6ZM99 131.6C101.761 131.6 104 129.361 104 126.6C104 123.839 101.761 121.6 99 121.6C96.2386 121.6 94 123.839 94 126.6C94 129.361 96.2386 131.6 99 131.6ZM122 126.6C122 129.361 119.761 131.6 117 131.6C114.239 131.6 112 129.361 112 126.6C112 123.839 114.239 121.6 117 121.6C119.761 121.6 122 123.839 122 126.6ZM135 131.6C137.761 131.6 140 129.361 140 126.6C140 123.839 137.761 121.6 135 121.6C132.239 121.6 130 123.839 130 126.6C130 129.361 132.239 131.6 135 131.6ZM158 126.6C158 129.361 155.761 131.6 153 131.6C150.239 131.6 148 129.361 148 126.6C148 123.839 150.239 121.6 153 121.6C155.761 121.6 158 123.839 158 126.6ZM171 131.6C173.761 131.6 176 129.361 176 126.6C176 123.839 173.761 121.6 171 121.6C168.239 121.6 166 123.839 166 126.6C166 129.361 168.239 131.6 171 131.6ZM194 126.6C194 129.361 191.761 131.6 189 131.6C186.239 131.6 184 129.361 184 126.6C184 123.839 186.239 121.6 189 121.6C191.761 121.6 194 123.839 194 126.6ZM207 131.6C209.761 131.6 212 129.361 212 126.6C212 123.839 209.761 121.6 207 121.6C204.239 121.6 202 123.839 202 126.6C202 129.361 204.239 131.6 207 131.6ZM230 126.6C230 129.361 227.761 131.6 225 131.6C222.239 131.6 220 129.361 220 126.6C220 123.839 222.239 121.6 225 121.6C227.761 121.6 230 123.839 230 126.6ZM243 131.6C245.761 131.6 248 129.361 248 126.6C248 123.839 245.761 121.6 243 121.6C240.239 121.6 238 123.839 238 126.6C238 129.361 240.239 131.6 243 131.6ZM14 187.4C14 190.161 11.7614 192.4 9 192.4C6.23858 192.4 4 190.161 4 187.4C4 184.639 6.23858 182.4 9 182.4C11.7614 182.4 14 184.639 14 187.4ZM27 192.4C29.7614 192.4 32 190.161 32 187.4C32 184.639 29.7614 182.4 27 182.4C24.2386 182.4 22 184.639 22 187.4C22 190.161 24.2386 192.4 27 192.4ZM50 187.4C50 190.161 47.7614 192.4 45 192.4C42.2386 192.4 40 190.161 40 187.4C40 184.639 42.2386 182.4 45 182.4C47.7614 182.4 50 184.639 50 187.4ZM63 192.4C65.7614 192.4 68 190.161 68 187.4C68 184.639 65.7614 182.4 63 182.4C60.2386 182.4 58 184.639 58 187.4C58 190.161 60.2386 192.4 63 192.4ZM86 187.4C86 190.161 83.7614 192.4 81 192.4C78.2386 192.4 76 190.161 76 187.4C76 184.639 78.2386 182.4 81 182.4C83.7614 182.4 86 184.639 86 187.4ZM99 192.4C101.761 192.4 104 190.161 104 187.4C104 184.639 101.761 182.4 99 182.4C96.2386 182.4 94 184.639 94 187.4C94 190.161 96.2386 192.4 99 192.4ZM122 187.4C122 190.161 119.761 192.4 117 192.4C114.239 192.4 112 190.161 112 187.4C112 184.639 114.239 182.4 117 182.4C119.761 182.4 122 184.639 122 187.4ZM135 192.4C137.761 192.4 140 190.161 140 187.4C140 184.639 137.761 182.4 135 182.4C132.239 182.4 130 184.639 130 187.4C130 190.161 132.239 192.4 135 192.4ZM158 187.4C158 190.161 155.761 192.4 153 192.4C150.239 192.4 148 190.161 148 187.4C148 184.639 150.239 182.4 153 182.4C155.761 182.4 158 184.639 158 187.4ZM171 192.4C173.761 192.4 176 190.161 176 187.4C176 184.639 173.761 182.4 171 182.4C168.239 182.4 166 184.639 166 187.4C166 190.161 168.239 192.4 171 192.4ZM194 187.4C194 190.161 191.761 192.4 189 192.4C186.239 192.4 184 190.161 184 187.4C184 184.639 186.239 182.4 189 182.4C191.761 182.4 194 184.639 194 187.4ZM207 192.4C209.761 192.4 212 190.161 212 187.4C212 184.639 209.761 182.4 207 182.4C204.239 182.4 202 184.639 202 187.4C202 190.161 204.239 192.4 207 192.4ZM230 187.4C230 190.161 227.761 192.4 225 192.4C222.239 192.4 220 190.161 220 187.4C220 184.639 222.239 182.4 225 182.4C227.761 182.4 230 184.639 230 187.4ZM243 192.4C245.761 192.4 248 190.161 248 187.4C248 184.639 245.761 182.4 243 182.4C240.239 182.4 238 184.639 238 187.4C238 190.161 240.239 192.4 243 192.4ZM14 35.4C14 38.1614 11.7614 40.4 9 40.4C6.23858 40.4 4 38.1614 4 35.4C4 32.6386 6.23858 30.4 9 30.4C11.7614 30.4 14 32.6386 14 35.4ZM27 40.4C29.7614 40.4 32 38.1614 32 35.4C32 32.6386 29.7614 30.4 27 30.4C24.2386 30.4 22 32.6386 22 35.4C22 38.1614 24.2386 40.4 27 40.4ZM50 35.4C50 38.1614 47.7614 40.4 45 40.4C42.2386 40.4 40 38.1614 40 35.4C40 32.6386 42.2386 30.4 45 30.4C47.7614 30.4 50 32.6386 50 35.4ZM63 40.4C65.7614 40.4 68 38.1614 68 35.4C68 32.6386 65.7614 30.4 63 30.4C60.2386 30.4 58 32.6386 58 35.4C58 38.1614 60.2386 40.4 63 40.4ZM86 35.4C86 38.1614 83.7614 40.4 81 40.4C78.2386 40.4 76 38.1614 76 35.4C76 32.6386 78.2386 30.4 81 30.4C83.7614 30.4 86 32.6386 86 35.4ZM99 40.4C101.761 40.4 104 38.1614 104 35.4C104 32.6386 101.761 30.4 99 30.4C96.2386 30.4 94 32.6386 94 35.4C94 38.1614 96.2386 40.4 99 40.4ZM122 35.4C122 38.1614 119.761 40.4 117 40.4C114.239 40.4 112 38.1614 112 35.4C112 32.6386 114.239 30.4 117 30.4C119.761 30.4 122 32.6386 122 35.4ZM135 40.4C137.761 40.4 140 38.1614 140 35.4C140 32.6386 137.761 30.4 135 30.4C132.239 30.4 130 32.6386 130 35.4C130 38.1614 132.239 40.4 135 40.4ZM158 35.4C158 38.1614 155.761 40.4 153 40.4C150.239 40.4 148 38.1614 148 35.4C148 32.6386 150.239 30.4 153 30.4C155.761 30.4 158 32.6386 158 35.4ZM171 40.4C173.761 40.4 176 38.1614 176 35.4C176 32.6386 173.761 30.4 171 30.4C168.239 30.4 166 32.6386 166 35.4C166 38.1614 168.239 40.4 171 40.4ZM194 35.4C194 38.1614 191.761 40.4 189 40.4C186.239 40.4 184 38.1614 184 35.4C184 32.6386 186.239 30.4 189 30.4C191.761 30.4 194 32.6386 194 35.4ZM207 40.4C209.761 40.4 212 38.1614 212 35.4C212 32.6386 209.761 30.4 207 30.4C204.239 30.4 202 32.6386 202 35.4C202 38.1614 204.239 40.4 207 40.4ZM230 35.4C230 38.1614 227.761 40.4 225 40.4C222.239 40.4 220 38.1614 220 35.4C220 32.6386 222.239 30.4 225 30.4C227.761 30.4 230 32.6386 230 35.4ZM243 40.4C245.761 40.4 248 38.1614 248 35.4C248 32.6386 245.761 30.4 243 30.4C240.239 30.4 238 32.6386 238 35.4C238 38.1614 240.239 40.4 243 40.4ZM14 96.2C14 98.9614 11.7614 101.2 9 101.2C6.23858 101.2 4 98.9614 4 96.2C4 93.4386 6.23858 91.2 9 91.2C11.7614 91.2 14 93.4386 14 96.2ZM27 101.2C29.7614 101.2 32 98.9614 32 96.2C32 93.4386 29.7614 91.2 27 91.2C24.2386 91.2 22 93.4386 22 96.2C22 98.9614 24.2386 101.2 27 101.2ZM50 96.2C50 98.9614 47.7614 101.2 45 101.2C42.2386 101.2 40 98.9614 40 96.2C40 93.4386 42.2386 91.2 45 91.2C47.7614 91.2 50 93.4386 50 96.2ZM63 101.2C65.7614 101.2 68 98.9614 68 96.2C68 93.4386 65.7614 91.2 63 91.2C60.2386 91.2 58 93.4386 58 96.2C58 98.9614 60.2386 101.2 63 101.2ZM86 96.2C86 98.9614 83.7614 101.2 81 101.2C78.2386 101.2 76 98.9614 76 96.2C76 93.4386 78.2386 91.2 81 91.2C83.7614 91.2 86 93.4386 86 96.2ZM99 101.2C101.761 101.2 104 98.9614 104 96.2C104 93.4386 101.761 91.2 99 91.2C96.2386 91.2 94 93.4386 94 96.2C94 98.9614 96.2386 101.2 99 101.2ZM122 96.2C122 98.9614 119.761 101.2 117 101.2C114.239 101.2 112 98.9614 112 96.2C112 93.4386 114.239 91.2 117 91.2C119.761 91.2 122 93.4386 122 96.2ZM135 101.2C137.761 101.2 140 98.9614 140 96.2C140 93.4386 137.761 91.2 135 91.2C132.239 91.2 130 93.4386 130 96.2C130 98.9614 132.239 101.2 135 101.2ZM158 96.2C158 98.9614 155.761 101.2 153 101.2C150.239 101.2 148 98.9614 148 96.2C148 93.4386 150.239 91.2 153 91.2C155.761 91.2 158 93.4386 158 96.2ZM171 101.2C173.761 101.2 176 98.9614 176 96.2C176 93.4386 173.761 91.2 171 91.2C168.239 91.2 166 93.4386 166 96.2C166 98.9614 168.239 101.2 171 101.2ZM194 96.2C194 98.9614 191.761 101.2 189 101.2C186.239 101.2 184 98.9614 184 96.2C184 93.4386 186.239 91.2 189 91.2C191.761 91.2 194 93.4386 194 96.2ZM207 101.2C209.761 101.2 212 98.9614 212 96.2C212 93.4386 209.761 91.2 207 91.2C204.239 91.2 202 93.4386 202 96.2C202 98.9614 204.239 101.2 207 101.2ZM230 96.2C230 98.9614 227.761 101.2 225 101.2C222.239 101.2 220 98.9614 220 96.2C220 93.4386 222.239 91.2 225 91.2C227.761 91.2 230 93.4386 230 96.2ZM243 101.2C245.761 101.2 248 98.9614 248 96.2C248 93.4386 245.761 91.2 243 91.2C240.239 91.2 238 93.4386 238 96.2C238 98.9614 240.239 101.2 243 101.2ZM14 157C14 159.761 11.7614 162 9 162C6.23858 162 4 159.761 4 157C4 154.239 6.23858 152 9 152C11.7614 152 14 154.239 14 157ZM27 162C29.7614 162 32 159.761 32 157C32 154.239 29.7614 152 27 152C24.2386 152 22 154.239 22 157C22 159.761 24.2386 162 27 162ZM50 157C50 159.761 47.7614 162 45 162C42.2386 162 40 159.761 40 157C40 154.239 42.2386 152 45 152C47.7614 152 50 154.239 50 157ZM63 162C65.7614 162 68 159.761 68 157C68 154.239 65.7614 152 63 152C60.2386 152 58 154.239 58 157C58 159.761 60.2386 162 63 162ZM86 157C86 159.761 83.7614 162 81 162C78.2386 162 76 159.761 76 157C76 154.239 78.2386 152 81 152C83.7614 152 86 154.239 86 157ZM99 162C101.761 162 104 159.761 104 157C104 154.239 101.761 152 99 152C96.2386 152 94 154.239 94 157C94 159.761 96.2386 162 99 162ZM122 157C122 159.761 119.761 162 117 162C114.239 162 112 159.761 112 157C112 154.239 114.239 152 117 152C119.761 152 122 154.239 122 157ZM135 162C137.761 162 140 159.761 140 157C140 154.239 137.761 152 135 152C132.239 152 130 154.239 130 157C130 159.761 132.239 162 135 162ZM158 157C158 159.761 155.761 162 153 162C150.239 162 148 159.761 148 157C148 154.239 150.239 152 153 152C155.761 152 158 154.239 158 157ZM171 162C173.761 162 176 159.761 176 157C176 154.239 173.761 152 171 152C168.239 152 166 154.239 166 157C166 159.761 168.239 162 171 162ZM194 157C194 159.761 191.761 162 189 162C186.239 162 184 159.761 184 157C184 154.239 186.239 152 189 152C191.761 152 194 154.239 194 157ZM207 162C209.761 162 212 159.761 212 157C212 154.239 209.761 152 207 152C204.239 152 202 154.239 202 157C202 159.761 204.239 162 207 162ZM230 157C230 159.761 227.761 162 225 162C222.239 162 220 159.761 220 157C220 154.239 222.239 152 225 152C227.761 152 230 154.239 230 157ZM243 162C245.761 162 248 159.761 248 157C248 154.239 245.761 152 243 152C240.239 152 238 154.239 238 157C238 159.761 240.239 162 243 162ZM14 217.8C14 220.561 11.7614 222.8 9 222.8C6.23858 222.8 4 220.561 4 217.8C4 215.039 6.23858 212.8 9 212.8C11.7614 212.8 14 215.039 14 217.8ZM27 222.8C29.7614 222.8 32 220.561 32 217.8C32 215.039 29.7614 212.8 27 212.8C24.2386 212.8 22 215.039 22 217.8C22 220.561 24.2386 222.8 27 222.8ZM50 217.8C50 220.561 47.7614 222.8 45 222.8C42.2386 222.8 40 220.561 40 217.8C40 215.039 42.2386 212.8 45 212.8C47.7614 212.8 50 215.039 50 217.8ZM63 222.8C65.7614 222.8 68 220.561 68 217.8C68 215.039 65.7614 212.8 63 212.8C60.2386 212.8 58 215.039 58 217.8C58 220.561 60.2386 222.8 63 222.8ZM86 217.8C86 220.561 83.7614 222.8 81 222.8C78.2386 222.8 76 220.561 76 217.8C76 215.039 78.2386 212.8 81 212.8C83.7614 212.8 86 215.039 86 217.8ZM99 222.8C101.761 222.8 104 220.561 104 217.8C104 215.039 101.761 212.8 99 212.8C96.2386 212.8 94 215.039 94 217.8C94 220.561 96.2386 222.8 99 222.8ZM122 217.8C122 220.561 119.761 222.8 117 222.8C114.239 222.8 112 220.561 112 217.8C112 215.039 114.239 212.8 117 212.8C119.761 212.8 122 215.039 122 217.8ZM135 222.8C137.761 222.8 140 220.561 140 217.8C140 215.039 137.761 212.8 135 212.8C132.239 212.8 130 215.039 130 217.8C130 220.561 132.239 222.8 135 222.8ZM158 217.8C158 220.561 155.761 222.8 153 222.8C150.239 222.8 148 220.561 148 217.8C148 215.039 150.239 212.8 153 212.8C155.761 212.8 158 215.039 158 217.8ZM171 222.8C173.761 222.8 176 220.561 176 217.8C176 215.039 173.761 212.8 171 212.8C168.239 212.8 166 215.039 166 217.8C166 220.561 168.239 222.8 171 222.8ZM194 217.8C194 220.561 191.761 222.8 189 222.8C186.239 222.8 184 220.561 184 217.8C184 215.039 186.239 212.8 189 212.8C191.761 212.8 194 215.039 194 217.8ZM207 222.8C209.761 222.8 212 220.561 212 217.8C212 215.039 209.761 212.8 207 212.8C204.239 212.8 202 215.039 202 217.8C202 220.561 204.239 222.8 207 222.8ZM230 217.8C230 220.561 227.761 222.8 225 222.8C222.239 222.8 220 220.561 220 217.8C220 215.039 222.239 212.8 225 212.8C227.761 212.8 230 215.039 230 217.8ZM243 222.8C245.761 222.8 248 220.561 248 217.8C248 215.039 245.761 212.8 243 212.8C240.239 212.8 238 215.039 238 217.8C238 220.561 240.239 222.8 243 222.8Z" fill="#EA5B0B" fill-opacity="0.1"></path><path fill-rule="evenodd" clip-rule="evenodd" d="M259 10C261.761 10 264 7.76142 264 5C264 2.23858 261.761 0 259 0C256.239 0 254 2.23858 254 5C254 7.76142 256.239 10 259 10ZM277 10C279.761 10 282 7.76142 282 5C282 2.23858 279.761 0 277 0C274.239 0 272 2.23858 272 5C272 7.76142 274.239 10 277 10ZM300 5C300 7.76142 297.761 10 295 10C292.239 10 290 7.76142 290 5C290 2.23858 292.239 0 295 0C297.761 0 300 2.23858 300 5ZM313 10C315.761 10 318 7.76142 318 5C318 2.23858 315.761 0 313 0C310.239 0 308 2.23858 308 5C308 7.76142 310.239 10 313 10ZM336 5C336 7.76142 333.761 10 331 10C328.239 10 326 7.76142 326 5C326 2.23858 328.239 0 331 0C333.761 0 336 2.23858 336 5ZM349 10C351.761 10 354 7.76142 354 5C354 2.23858 351.761 0 349 0C346.239 0 344 2.23858 344 5C344 7.76142 346.239 10 349 10ZM372 5C372 7.76142 369.761 10 367 10C364.239 10 362 7.76142 362 5C362 2.23858 364.239 0 367 0C369.761 0 372 2.23858 372 5ZM385 10C387.761 10 390 7.76142 390 5C390 2.23858 387.761 0 385 0C382.239 0 380 2.23858 380 5C380 7.76142 382.239 10 385 10ZM408 5C408 7.76142 405.761 10 403 10C400.239 10 398 7.76142 398 5C398 2.23858 400.239 0 403 0C405.761 0 408 2.23858 408 5ZM421 10C423.761 10 426 7.76142 426 5C426 2.23858 423.761 0 421 0C418.239 0 416 2.23858 416 5C416 7.76142 418.239 10 421 10ZM444 5C444 7.76142 441.761 10 439 10C436.239 10 434 7.76142 434 5C434 2.23858 436.239 0 439 0C441.761 0 444 2.23858 444 5ZM457 10C459.761 10 462 7.76142 462 5C462 2.23858 459.761 0 457 0C454.239 0 452 2.23858 452 5C452 7.76142 454.239 10 457 10ZM480 5C480 7.76142 477.761 10 475 10C472.239 10 470 7.76142 470 5C470 2.23858 472.239 0 475 0C477.761 0 480 2.23858 480 5ZM493 10C495.761 10 498 7.76142 498 5C498 2.23858 495.761 0 493 0C490.239 0 488 2.23858 488 5C488 7.76142 490.239 10 493 10ZM264 65.8C264 68.5614 261.761 70.8 259 70.8C256.239 70.8 254 68.5614 254 65.8C254 63.0386 256.239 60.8 259 60.8C261.761 60.8 264 63.0386 264 65.8ZM277 70.8C279.761 70.8 282 68.5614 282 65.8C282 63.0386 279.761 60.8 277 60.8C274.239 60.8 272 63.0386 272 65.8C272 68.5614 274.239 70.8 277 70.8ZM300 65.8C300 68.5614 297.761 70.8 295 70.8C292.239 70.8 290 68.5614 290 65.8C290 63.0386 292.239 60.8 295 60.8C297.761 60.8 300 63.0386 300 65.8ZM313 70.8C315.761 70.8 318 68.5614 318 65.8C318 63.0386 315.761 60.8 313 60.8C310.239 60.8 308 63.0386 308 65.8C308 68.5614 310.239 70.8 313 70.8ZM336 65.8C336 68.5614 333.761 70.8 331 70.8C328.239 70.8 326 68.5614 326 65.8C326 63.0386 328.239 60.8 331 60.8C333.761 60.8 336 63.0386 336 65.8ZM349 70.8C351.761 70.8 354 68.5614 354 65.8C354 63.0386 351.761 60.8 349 60.8C346.239 60.8 344 63.0386 344 65.8C344 68.5614 346.239 70.8 349 70.8ZM372 65.8C372 68.5614 369.761 70.8 367 70.8C364.239 70.8 362 68.5614 362 65.8C362 63.0386 364.239 60.8 367 60.8C369.761 60.8 372 63.0386 372 65.8ZM385 70.8C387.761 70.8 390 68.5614 390 65.8C390 63.0386 387.761 60.8 385 60.8C382.239 60.8 380 63.0386 380 65.8C380 68.5614 382.239 70.8 385 70.8ZM408 65.8C408 68.5614 405.761 70.8 403 70.8C400.239 70.8 398 68.5614 398 65.8C398 63.0386 400.239 60.8 403 60.8C405.761 60.8 408 63.0386 408 65.8ZM421 70.8C423.761 70.8 426 68.5614 426 65.8C426 63.0386 423.761 60.8 421 60.8C418.239 60.8 416 63.0386 416 65.8C416 68.5614 418.239 70.8 421 70.8ZM444 65.8C444 68.5614 441.761 70.8 439 70.8C436.239 70.8 434 68.5614 434 65.8C434 63.0386 436.239 60.8 439 60.8C441.761 60.8 444 63.0386 444 65.8ZM457 70.8C459.761 70.8 462 68.5614 462 65.8C462 63.0386 459.761 60.8 457 60.8C454.239 60.8 452 63.0386 452 65.8C452 68.5614 454.239 70.8 457 70.8ZM480 65.8C480 68.5614 477.761 70.8 475 70.8C472.239 70.8 470 68.5614 470 65.8C470 63.0386 472.239 60.8 475 60.8C477.761 60.8 480 63.0386 480 65.8ZM493 70.8C495.761 70.8 498 68.5614 498 65.8C498 63.0386 495.761 60.8 493 60.8C490.239 60.8 488 63.0386 488 65.8C488 68.5614 490.239 70.8 493 70.8ZM264 126.6C264 129.361 261.761 131.6 259 131.6C256.239 131.6 254 129.361 254 126.6C254 123.839 256.239 121.6 259 121.6C261.761 121.6 264 123.839 264 126.6ZM277 131.6C279.761 131.6 282 129.361 282 126.6C282 123.839 279.761 121.6 277 121.6C274.239 121.6 272 123.839 272 126.6C272 129.361 274.239 131.6 277 131.6ZM300 126.6C300 129.361 297.761 131.6 295 131.6C292.239 131.6 290 129.361 290 126.6C290 123.839 292.239 121.6 295 121.6C297.761 121.6 300 123.839 300 126.6ZM313 131.6C315.761 131.6 318 129.361 318 126.6C318 123.839 315.761 121.6 313 121.6C310.239 121.6 308 123.839 308 126.6C308 129.361 310.239 131.6 313 131.6ZM336 126.6C336 129.361 333.761 131.6 331 131.6C328.239 131.6 326 129.361 326 126.6C326 123.839 328.239 121.6 331 121.6C333.761 121.6 336 123.839 336 126.6ZM349 131.6C351.761 131.6 354 129.361 354 126.6C354 123.839 351.761 121.6 349 121.6C346.239 121.6 344 123.839 344 126.6C344 129.361 346.239 131.6 349 131.6ZM372 126.6C372 129.361 369.761 131.6 367 131.6C364.239 131.6 362 129.361 362 126.6C362 123.839 364.239 121.6 367 121.6C369.761 121.6 372 123.839 372 126.6ZM385 131.6C387.761 131.6 390 129.361 390 126.6C390 123.839 387.761 121.6 385 121.6C382.239 121.6 380 123.839 380 126.6C380 129.361 382.239 131.6 385 131.6ZM408 126.6C408 129.361 405.761 131.6 403 131.6C400.239 131.6 398 129.361 398 126.6C398 123.839 400.239 121.6 403 121.6C405.761 121.6 408 123.839 408 126.6ZM421 131.6C423.761 131.6 426 129.361 426 126.6C426 123.839 423.761 121.6 421 121.6C418.239 121.6 416 123.839 416 126.6C416 129.361 418.239 131.6 421 131.6ZM444 126.6C444 129.361 441.761 131.6 439 131.6C436.239 131.6 434 129.361 434 126.6C434 123.839 436.239 121.6 439 121.6C441.761 121.6 444 123.839 444 126.6ZM457 131.6C459.761 131.6 462 129.361 462 126.6C462 123.839 459.761 121.6 457 121.6C454.239 121.6 452 123.839 452 126.6C452 129.361 454.239 131.6 457 131.6ZM480 126.6C480 129.361 477.761 131.6 475 131.6C472.239 131.6 470 129.361 470 126.6C470 123.839 472.239 121.6 475 121.6C477.761 121.6 480 123.839 480 126.6ZM493 131.6C495.761 131.6 498 129.361 498 126.6C498 123.839 495.761 121.6 493 121.6C490.239 121.6 488 123.839 488 126.6C488 129.361 490.239 131.6 493 131.6ZM264 187.4C264 190.161 261.761 192.4 259 192.4C256.239 192.4 254 190.161 254 187.4C254 184.639 256.239 182.4 259 182.4C261.761 182.4 264 184.639 264 187.4ZM277 192.4C279.761 192.4 282 190.161 282 187.4C282 184.639 279.761 182.4 277 182.4C274.239 182.4 272 184.639 272 187.4C272 190.161 274.239 192.4 277 192.4ZM300 187.4C300 190.161 297.761 192.4 295 192.4C292.239 192.4 290 190.161 290 187.4C290 184.639 292.239 182.4 295 182.4C297.761 182.4 300 184.639 300 187.4ZM313 192.4C315.761 192.4 318 190.161 318 187.4C318 184.639 315.761 182.4 313 182.4C310.239 182.4 308 184.639 308 187.4C308 190.161 310.239 192.4 313 192.4ZM336 187.4C336 190.161 333.761 192.4 331 192.4C328.239 192.4 326 190.161 326 187.4C326 184.639 328.239 182.4 331 182.4C333.761 182.4 336 184.639 336 187.4ZM349 192.4C351.761 192.4 354 190.161 354 187.4C354 184.639 351.761 182.4 349 182.4C346.239 182.4 344 184.639 344 187.4C344 190.161 346.239 192.4 349 192.4ZM372 187.4C372 190.161 369.761 192.4 367 192.4C364.239 192.4 362 190.161 362 187.4C362 184.639 364.239 182.4 367 182.4C369.761 182.4 372 184.639 372 187.4ZM385 192.4C387.761 192.4 390 190.161 390 187.4C390 184.639 387.761 182.4 385 182.4C382.239 182.4 380 184.639 380 187.4C380 190.161 382.239 192.4 385 192.4ZM408 187.4C408 190.161 405.761 192.4 403 192.4C400.239 192.4 398 190.161 398 187.4C398 184.639 400.239 182.4 403 182.4C405.761 182.4 408 184.639 408 187.4ZM421 192.4C423.761 192.4 426 190.161 426 187.4C426 184.639 423.761 182.4 421 182.4C418.239 182.4 416 184.639 416 187.4C416 190.161 418.239 192.4 421 192.4ZM444 187.4C444 190.161 441.761 192.4 439 192.4C436.239 192.4 434 190.161 434 187.4C434 184.639 436.239 182.4 439 182.4C441.761 182.4 444 184.639 444 187.4ZM457 192.4C459.761 192.4 462 190.161 462 187.4C462 184.639 459.761 182.4 457 182.4C454.239 182.4 452 184.639 452 187.4C452 190.161 454.239 192.4 457 192.4ZM480 187.4C480 190.161 477.761 192.4 475 192.4C472.239 192.4 470 190.161 470 187.4C470 184.639 472.239 182.4 475 182.4C477.761 182.4 480 184.639 480 187.4ZM493 192.4C495.761 192.4 498 190.161 498 187.4C498 184.639 495.761 182.4 493 182.4C490.239 182.4 488 184.639 488 187.4C488 190.161 490.239 192.4 493 192.4ZM264 35.4C264 38.1614 261.761 40.4 259 40.4C256.239 40.4 254 38.1614 254 35.4C254 32.6386 256.239 30.4 259 30.4C261.761 30.4 264 32.6386 264 35.4ZM277 40.4C279.761 40.4 282 38.1614 282 35.4C282 32.6386 279.761 30.4 277 30.4C274.239 30.4 272 32.6386 272 35.4C272 38.1614 274.239 40.4 277 40.4ZM300 35.4C300 38.1614 297.761 40.4 295 40.4C292.239 40.4 290 38.1614 290 35.4C290 32.6386 292.239 30.4 295 30.4C297.761 30.4 300 32.6386 300 35.4ZM313 40.4C315.761 40.4 318 38.1614 318 35.4C318 32.6386 315.761 30.4 313 30.4C310.239 30.4 308 32.6386 308 35.4C308 38.1614 310.239 40.4 313 40.4ZM336 35.4C336 38.1614 333.761 40.4 331 40.4C328.239 40.4 326 38.1614 326 35.4C326 32.6386 328.239 30.4 331 30.4C333.761 30.4 336 32.6386 336 35.4ZM349 40.4C351.761 40.4 354 38.1614 354 35.4C354 32.6386 351.761 30.4 349 30.4C346.239 30.4 344 32.6386 344 35.4C344 38.1614 346.239 40.4 349 40.4ZM372 35.4C372 38.1614 369.761 40.4 367 40.4C364.239 40.4 362 38.1614 362 35.4C362 32.6386 364.239 30.4 367 30.4C369.761 30.4 372 32.6386 372 35.4ZM385 40.4C387.761 40.4 390 38.1614 390 35.4C390 32.6386 387.761 30.4 385 30.4C382.239 30.4 380 32.6386 380 35.4C380 38.1614 382.239 40.4 385 40.4ZM408 35.4C408 38.1614 405.761 40.4 403 40.4C400.239 40.4 398 38.1614 398 35.4C398 32.6386 400.239 30.4 403 30.4C405.761 30.4 408 32.6386 408 35.4ZM421 40.4C423.761 40.4 426 38.1614 426 35.4C426 32.6386 423.761 30.4 421 30.4C418.239 30.4 416 32.6386 416 35.4C416 38.1614 418.239 40.4 421 40.4ZM444 35.4C444 38.1614 441.761 40.4 439 40.4C436.239 40.4 434 38.1614 434 35.4C434 32.6386 436.239 30.4 439 30.4C441.761 30.4 444 32.6386 444 35.4ZM457 40.4C459.761 40.4 462 38.1614 462 35.4C462 32.6386 459.761 30.4 457 30.4C454.239 30.4 452 32.6386 452 35.4C452 38.1614 454.239 40.4 457 40.4ZM480 35.4C480 38.1614 477.761 40.4 475 40.4C472.239 40.4 470 38.1614 470 35.4C470 32.6386 472.239 30.4 475 30.4C477.761 30.4 480 32.6386 480 35.4ZM493 40.4C495.761 40.4 498 38.1614 498 35.4C498 32.6386 495.761 30.4 493 30.4C490.239 30.4 488 32.6386 488 35.4C488 38.1614 490.239 40.4 493 40.4ZM264 96.2C264 98.9614 261.761 101.2 259 101.2C256.239 101.2 254 98.9614 254 96.2C254 93.4386 256.239 91.2 259 91.2C261.761 91.2 264 93.4386 264 96.2ZM277 101.2C279.761 101.2 282 98.9614 282 96.2C282 93.4386 279.761 91.2 277 91.2C274.239 91.2 272 93.4386 272 96.2C272 98.9614 274.239 101.2 277 101.2ZM300 96.2C300 98.9614 297.761 101.2 295 101.2C292.239 101.2 290 98.9614 290 96.2C290 93.4386 292.239 91.2 295 91.2C297.761 91.2 300 93.4386 300 96.2ZM313 101.2C315.761 101.2 318 98.9614 318 96.2C318 93.4386 315.761 91.2 313 91.2C310.239 91.2 308 93.4386 308 96.2C308 98.9614 310.239 101.2 313 101.2ZM336 96.2C336 98.9614 333.761 101.2 331 101.2C328.239 101.2 326 98.9614 326 96.2C326 93.4386 328.239 91.2 331 91.2C333.761 91.2 336 93.4386 336 96.2ZM349 101.2C351.761 101.2 354 98.9614 354 96.2C354 93.4386 351.761 91.2 349 91.2C346.239 91.2 344 93.4386 344 96.2C344 98.9614 346.239 101.2 349 101.2ZM372 96.2C372 98.9614 369.761 101.2 367 101.2C364.239 101.2 362 98.9614 362 96.2C362 93.4386 364.239 91.2 367 91.2C369.761 91.2 372 93.4386 372 96.2ZM385 101.2C387.761 101.2 390 98.9614 390 96.2C390 93.4386 387.761 91.2 385 91.2C382.239 91.2 380 93.4386 380 96.2C380 98.9614 382.239 101.2 385 101.2ZM408 96.2C408 98.9614 405.761 101.2 403 101.2C400.239 101.2 398 98.9614 398 96.2C398 93.4386 400.239 91.2 403 91.2C405.761 91.2 408 93.4386 408 96.2ZM421 101.2C423.761 101.2 426 98.9614 426 96.2C426 93.4386 423.761 91.2 421 91.2C418.239 91.2 416 93.4386 416 96.2C416 98.9614 418.239 101.2 421 101.2ZM444 96.2C444 98.9614 441.761 101.2 439 101.2C436.239 101.2 434 98.9614 434 96.2C434 93.4386 436.239 91.2 439 91.2C441.761 91.2 444 93.4386 444 96.2ZM457 101.2C459.761 101.2 462 98.9614 462 96.2C462 93.4386 459.761 91.2 457 91.2C454.239 91.2 452 93.4386 452 96.2C452 98.9614 454.239 101.2 457 101.2ZM480 96.2C480 98.9614 477.761 101.2 475 101.2C472.239 101.2 470 98.9614 470 96.2C470 93.4386 472.239 91.2 475 91.2C477.761 91.2 480 93.4386 480 96.2ZM493 101.2C495.761 101.2 498 98.9614 498 96.2C498 93.4386 495.761 91.2 493 91.2C490.239 91.2 488 93.4386 488 96.2C488 98.9614 490.239 101.2 493 101.2ZM264 157C264 159.761 261.761 162 259 162C256.239 162 254 159.761 254 157C254 154.239 256.239 152 259 152C261.761 152 264 154.239 264 157ZM277 162C279.761 162 282 159.761 282 157C282 154.239 279.761 152 277 152C274.239 152 272 154.239 272 157C272 159.761 274.239 162 277 162ZM300 157C300 159.761 297.761 162 295 162C292.239 162 290 159.761 290 157C290 154.239 292.239 152 295 152C297.761 152 300 154.239 300 157ZM313 162C315.761 162 318 159.761 318 157C318 154.239 315.761 152 313 152C310.239 152 308 154.239 308 157C308 159.761 310.239 162 313 162ZM336 157C336 159.761 333.761 162 331 162C328.239 162 326 159.761 326 157C326 154.239 328.239 152 331 152C333.761 152 336 154.239 336 157ZM349 162C351.761 162 354 159.761 354 157C354 154.239 351.761 152 349 152C346.239 152 344 154.239 344 157C344 159.761 346.239 162 349 162ZM372 157C372 159.761 369.761 162 367 162C364.239 162 362 159.761 362 157C362 154.239 364.239 152 367 152C369.761 152 372 154.239 372 157ZM385 162C387.761 162 390 159.761 390 157C390 154.239 387.761 152 385 152C382.239 152 380 154.239 380 157C380 159.761 382.239 162 385 162ZM408 157C408 159.761 405.761 162 403 162C400.239 162 398 159.761 398 157C398 154.239 400.239 152 403 152C405.761 152 408 154.239 408 157ZM421 162C423.761 162 426 159.761 426 157C426 154.239 423.761 152 421 152C418.239 152 416 154.239 416 157C416 159.761 418.239 162 421 162ZM444 157C444 159.761 441.761 162 439 162C436.239 162 434 159.761 434 157C434 154.239 436.239 152 439 152C441.761 152 444 154.239 444 157ZM457 162C459.761 162 462 159.761 462 157C462 154.239 459.761 152 457 152C454.239 152 452 154.239 452 157C452 159.761 454.239 162 457 162ZM480 157C480 159.761 477.761 162 475 162C472.239 162 470 159.761 470 157C470 154.239 472.239 152 475 152C477.761 152 480 154.239 480 157ZM493 162C495.761 162 498 159.761 498 157C498 154.239 495.761 152 493 152C490.239 152 488 154.239 488 157C488 159.761 490.239 162 493 162ZM264 217.8C264 220.561 261.761 222.8 259 222.8C256.239 222.8 254 220.561 254 217.8C254 215.039 256.239 212.8 259 212.8C261.761 212.8 264 215.039 264 217.8ZM277 222.8C279.761 222.8 282 220.561 282 217.8C282 215.039 279.761 212.8 277 212.8C274.239 212.8 272 215.039 272 217.8C272 220.561 274.239 222.8 277 222.8ZM300 217.8C300 220.561 297.761 222.8 295 222.8C292.239 222.8 290 220.561 290 217.8C290 215.039 292.239 212.8 295 212.8C297.761 212.8 300 215.039 300 217.8ZM313 222.8C315.761 222.8 318 220.561 318 217.8C318 215.039 315.761 212.8 313 212.8C310.239 212.8 308 215.039 308 217.8C308 220.561 310.239 222.8 313 222.8ZM336 217.8C336 220.561 333.761 222.8 331 222.8C328.239 222.8 326 220.561 326 217.8C326 215.039 328.239 212.8 331 212.8C333.761 212.8 336 215.039 336 217.8ZM349 222.8C351.761 222.8 354 220.561 354 217.8C354 215.039 351.761 212.8 349 212.8C346.239 212.8 344 215.039 344 217.8C344 220.561 346.239 222.8 349 222.8ZM372 217.8C372 220.561 369.761 222.8 367 222.8C364.239 222.8 362 220.561 362 217.8C362 215.039 364.239 212.8 367 212.8C369.761 212.8 372 215.039 372 217.8ZM385 222.8C387.761 222.8 390 220.561 390 217.8C390 215.039 387.761 212.8 385 212.8C382.239 212.8 380 215.039 380 217.8C380 220.561 382.239 222.8 385 222.8ZM408 217.8C408 220.561 405.761 222.8 403 222.8C400.239 222.8 398 220.561 398 217.8C398 215.039 400.239 212.8 403 212.8C405.761 212.8 408 215.039 408 217.8ZM421 222.8C423.761 222.8 426 220.561 426 217.8C426 215.039 423.761 212.8 421 212.8C418.239 212.8 416 215.039 416 217.8C416 220.561 418.239 222.8 421 222.8ZM444 217.8C444 220.561 441.761 222.8 439 222.8C436.239 222.8 434 220.561 434 217.8C434 215.039 436.239 212.8 439 212.8C441.761 212.8 444 215.039 444 217.8ZM457 222.8C459.761 222.8 462 220.561 462 217.8C462 215.039 459.761 212.8 457 212.8C454.239 212.8 452 215.039 452 217.8C452 220.561 454.239 222.8 457 222.8ZM480 217.8C480 220.561 477.761 222.8 475 222.8C472.239 222.8 470 220.561 470 217.8C470 215.039 472.239 212.8 475 212.8C477.761 212.8 480 215.039 480 217.8ZM493 222.8C495.761 222.8 498 220.561 498 217.8C498 215.039 495.761 212.8 493 212.8C490.239 212.8 488 215.039 488 217.8C488 220.561 490.239 222.8 493 222.8Z" fill="#EA5B0B" fill-opacity="0.1"></path><path fill-rule="evenodd" clip-rule="evenodd" d="M9 251.8C11.7614 251.8 14 249.561 14 246.8C14 244.039 11.7614 241.8 9 241.8C6.23858 241.8 4 244.039 4 246.8C4 249.561 6.23858 251.8 9 251.8ZM27 251.8C29.7614 251.8 32 249.561 32 246.8C32 244.039 29.7614 241.8 27 241.8C24.2386 241.8 22 244.039 22 246.8C22 249.561 24.2386 251.8 27 251.8ZM50 246.8C50 249.561 47.7614 251.8 45 251.8C42.2386 251.8 40 249.561 40 246.8C40 244.039 42.2386 241.8 45 241.8C47.7614 241.8 50 244.039 50 246.8ZM63 251.8C65.7614 251.8 68 249.561 68 246.8C68 244.039 65.7614 241.8 63 241.8C60.2386 241.8 58 244.039 58 246.8C58 249.561 60.2386 251.8 63 251.8ZM86 246.8C86 249.561 83.7614 251.8 81 251.8C78.2386 251.8 76 249.561 76 246.8C76 244.039 78.2386 241.8 81 241.8C83.7614 241.8 86 244.039 86 246.8ZM99 251.8C101.761 251.8 104 249.561 104 246.8C104 244.039 101.761 241.8 99 241.8C96.2386 241.8 94 244.039 94 246.8C94 249.561 96.2386 251.8 99 251.8ZM122 246.8C122 249.561 119.761 251.8 117 251.8C114.239 251.8 112 249.561 112 246.8C112 244.039 114.239 241.8 117 241.8C119.761 241.8 122 244.039 122 246.8ZM135 251.8C137.761 251.8 140 249.561 140 246.8C140 244.039 137.761 241.8 135 241.8C132.239 241.8 130 244.039 130 246.8C130 249.561 132.239 251.8 135 251.8ZM158 246.8C158 249.561 155.761 251.8 153 251.8C150.239 251.8 148 249.561 148 246.8C148 244.039 150.239 241.8 153 241.8C155.761 241.8 158 244.039 158 246.8ZM171 251.8C173.761 251.8 176 249.561 176 246.8C176 244.039 173.761 241.8 171 241.8C168.239 241.8 166 244.039 166 246.8C166 249.561 168.239 251.8 171 251.8ZM194 246.8C194 249.561 191.761 251.8 189 251.8C186.239 251.8 184 249.561 184 246.8C184 244.039 186.239 241.8 189 241.8C191.761 241.8 194 244.039 194 246.8ZM207 251.8C209.761 251.8 212 249.561 212 246.8C212 244.039 209.761 241.8 207 241.8C204.239 241.8 202 244.039 202 246.8C202 249.561 204.239 251.8 207 251.8ZM230 246.8C230 249.561 227.761 251.8 225 251.8C222.239 251.8 220 249.561 220 246.8C220 244.039 222.239 241.8 225 241.8C227.761 241.8 230 244.039 230 246.8ZM243 251.8C245.761 251.8 248 249.561 248 246.8C248 244.039 245.761 241.8 243 241.8C240.239 241.8 238 244.039 238 246.8C238 249.561 240.239 251.8 243 251.8ZM14 307.6C14 310.361 11.7614 312.6 9 312.6C6.23858 312.6 4 310.361 4 307.6C4 304.839 6.23858 302.6 9 302.6C11.7614 302.6 14 304.839 14 307.6ZM27 312.6C29.7614 312.6 32 310.361 32 307.6C32 304.839 29.7614 302.6 27 302.6C24.2386 302.6 22 304.839 22 307.6C22 310.361 24.2386 312.6 27 312.6ZM50 307.6C50 310.361 47.7614 312.6 45 312.6C42.2386 312.6 40 310.361 40 307.6C40 304.839 42.2386 302.6 45 302.6C47.7614 302.6 50 304.839 50 307.6ZM63 312.6C65.7614 312.6 68 310.361 68 307.6C68 304.839 65.7614 302.6 63 302.6C60.2386 302.6 58 304.839 58 307.6C58 310.361 60.2386 312.6 63 312.6ZM86 307.6C86 310.361 83.7614 312.6 81 312.6C78.2386 312.6 76 310.361 76 307.6C76 304.839 78.2386 302.6 81 302.6C83.7614 302.6 86 304.839 86 307.6ZM99 312.6C101.761 312.6 104 310.361 104 307.6C104 304.839 101.761 302.6 99 302.6C96.2386 302.6 94 304.839 94 307.6C94 310.361 96.2386 312.6 99 312.6ZM122 307.6C122 310.361 119.761 312.6 117 312.6C114.239 312.6 112 310.361 112 307.6C112 304.839 114.239 302.6 117 302.6C119.761 302.6 122 304.839 122 307.6ZM135 312.6C137.761 312.6 140 310.361 140 307.6C140 304.839 137.761 302.6 135 302.6C132.239 302.6 130 304.839 130 307.6C130 310.361 132.239 312.6 135 312.6ZM158 307.6C158 310.361 155.761 312.6 153 312.6C150.239 312.6 148 310.361 148 307.6C148 304.839 150.239 302.6 153 302.6C155.761 302.6 158 304.839 158 307.6ZM171 312.6C173.761 312.6 176 310.361 176 307.6C176 304.839 173.761 302.6 171 302.6C168.239 302.6 166 304.839 166 307.6C166 310.361 168.239 312.6 171 312.6ZM194 307.6C194 310.361 191.761 312.6 189 312.6C186.239 312.6 184 310.361 184 307.6C184 304.839 186.239 302.6 189 302.6C191.761 302.6 194 304.839 194 307.6ZM207 312.6C209.761 312.6 212 310.361 212 307.6C212 304.839 209.761 302.6 207 302.6C204.239 302.6 202 304.839 202 307.6C202 310.361 204.239 312.6 207 312.6ZM230 307.6C230 310.361 227.761 312.6 225 312.6C222.239 312.6 220 310.361 220 307.6C220 304.839 222.239 302.6 225 302.6C227.761 302.6 230 304.839 230 307.6ZM243 312.6C245.761 312.6 248 310.361 248 307.6C248 304.839 245.761 302.6 243 302.6C240.239 302.6 238 304.839 238 307.6C238 310.361 240.239 312.6 243 312.6ZM14 368.4C14 371.161 11.7614 373.4 9 373.4C6.23858 373.4 4 371.161 4 368.4C4 365.639 6.23858 363.4 9 363.4C11.7614 363.4 14 365.639 14 368.4ZM27 373.4C29.7614 373.4 32 371.161 32 368.4C32 365.639 29.7614 363.4 27 363.4C24.2386 363.4 22 365.639 22 368.4C22 371.161 24.2386 373.4 27 373.4ZM50 368.4C50 371.161 47.7614 373.4 45 373.4C42.2386 373.4 40 371.161 40 368.4C40 365.639 42.2386 363.4 45 363.4C47.7614 363.4 50 365.639 50 368.4ZM63 373.4C65.7614 373.4 68 371.161 68 368.4C68 365.639 65.7614 363.4 63 363.4C60.2386 363.4 58 365.639 58 368.4C58 371.161 60.2386 373.4 63 373.4ZM86 368.4C86 371.161 83.7614 373.4 81 373.4C78.2386 373.4 76 371.161 76 368.4C76 365.639 78.2386 363.4 81 363.4C83.7614 363.4 86 365.639 86 368.4ZM99 373.4C101.761 373.4 104 371.161 104 368.4C104 365.639 101.761 363.4 99 363.4C96.2386 363.4 94 365.639 94 368.4C94 371.161 96.2386 373.4 99 373.4ZM122 368.4C122 371.161 119.761 373.4 117 373.4C114.239 373.4 112 371.161 112 368.4C112 365.639 114.239 363.4 117 363.4C119.761 363.4 122 365.639 122 368.4ZM135 373.4C137.761 373.4 140 371.161 140 368.4C140 365.639 137.761 363.4 135 363.4C132.239 363.4 130 365.639 130 368.4C130 371.161 132.239 373.4 135 373.4ZM158 368.4C158 371.161 155.761 373.4 153 373.4C150.239 373.4 148 371.161 148 368.4C148 365.639 150.239 363.4 153 363.4C155.761 363.4 158 365.639 158 368.4ZM171 373.4C173.761 373.4 176 371.161 176 368.4C176 365.639 173.761 363.4 171 363.4C168.239 363.4 166 365.639 166 368.4C166 371.161 168.239 373.4 171 373.4ZM194 368.4C194 371.161 191.761 373.4 189 373.4C186.239 373.4 184 371.161 184 368.4C184 365.639 186.239 363.4 189 363.4C191.761 363.4 194 365.639 194 368.4ZM207 373.4C209.761 373.4 212 371.161 212 368.4C212 365.639 209.761 363.4 207 363.4C204.239 363.4 202 365.639 202 368.4C202 371.161 204.239 373.4 207 373.4ZM230 368.4C230 371.161 227.761 373.4 225 373.4C222.239 373.4 220 371.161 220 368.4C220 365.639 222.239 363.4 225 363.4C227.761 363.4 230 365.639 230 368.4ZM243 373.4C245.761 373.4 248 371.161 248 368.4C248 365.639 245.761 363.4 243 363.4C240.239 363.4 238 365.639 238 368.4C238 371.161 240.239 373.4 243 373.4ZM14 429.2C14 431.961 11.7614 434.2 9 434.2C6.23858 434.2 4 431.961 4 429.2C4 426.439 6.23858 424.2 9 424.2C11.7614 424.2 14 426.439 14 429.2ZM27 434.2C29.7614 434.2 32 431.961 32 429.2C32 426.439 29.7614 424.2 27 424.2C24.2386 424.2 22 426.439 22 429.2C22 431.961 24.2386 434.2 27 434.2ZM50 429.2C50 431.961 47.7614 434.2 45 434.2C42.2386 434.2 40 431.961 40 429.2C40 426.439 42.2386 424.2 45 424.2C47.7614 424.2 50 426.439 50 429.2ZM63 434.2C65.7614 434.2 68 431.961 68 429.2C68 426.439 65.7614 424.2 63 424.2C60.2386 424.2 58 426.439 58 429.2C58 431.961 60.2386 434.2 63 434.2ZM86 429.2C86 431.961 83.7614 434.2 81 434.2C78.2386 434.2 76 431.961 76 429.2C76 426.439 78.2386 424.2 81 424.2C83.7614 424.2 86 426.439 86 429.2ZM99 434.2C101.761 434.2 104 431.961 104 429.2C104 426.439 101.761 424.2 99 424.2C96.2386 424.2 94 426.439 94 429.2C94 431.961 96.2386 434.2 99 434.2ZM122 429.2C122 431.961 119.761 434.2 117 434.2C114.239 434.2 112 431.961 112 429.2C112 426.439 114.239 424.2 117 424.2C119.761 424.2 122 426.439 122 429.2ZM135 434.2C137.761 434.2 140 431.961 140 429.2C140 426.439 137.761 424.2 135 424.2C132.239 424.2 130 426.439 130 429.2C130 431.961 132.239 434.2 135 434.2ZM158 429.2C158 431.961 155.761 434.2 153 434.2C150.239 434.2 148 431.961 148 429.2C148 426.439 150.239 424.2 153 424.2C155.761 424.2 158 426.439 158 429.2ZM171 434.2C173.761 434.2 176 431.961 176 429.2C176 426.439 173.761 424.2 171 424.2C168.239 424.2 166 426.439 166 429.2C166 431.961 168.239 434.2 171 434.2ZM194 429.2C194 431.961 191.761 434.2 189 434.2C186.239 434.2 184 431.961 184 429.2C184 426.439 186.239 424.2 189 424.2C191.761 424.2 194 426.439 194 429.2ZM207 434.2C209.761 434.2 212 431.961 212 429.2C212 426.439 209.761 424.2 207 424.2C204.239 424.2 202 426.439 202 429.2C202 431.961 204.239 434.2 207 434.2ZM230 429.2C230 431.961 227.761 434.2 225 434.2C222.239 434.2 220 431.961 220 429.2C220 426.439 222.239 424.2 225 424.2C227.761 424.2 230 426.439 230 429.2ZM243 434.2C245.761 434.2 248 431.961 248 429.2C248 426.439 245.761 424.2 243 424.2C240.239 424.2 238 426.439 238 429.2C238 431.961 240.239 434.2 243 434.2ZM14 277.2C14 279.961 11.7614 282.2 9 282.2C6.23858 282.2 4 279.961 4 277.2C4 274.439 6.23858 272.2 9 272.2C11.7614 272.2 14 274.439 14 277.2ZM27 282.2C29.7614 282.2 32 279.961 32 277.2C32 274.439 29.7614 272.2 27 272.2C24.2386 272.2 22 274.439 22 277.2C22 279.961 24.2386 282.2 27 282.2ZM50 277.2C50 279.961 47.7614 282.2 45 282.2C42.2386 282.2 40 279.961 40 277.2C40 274.439 42.2386 272.2 45 272.2C47.7614 272.2 50 274.439 50 277.2ZM63 282.2C65.7614 282.2 68 279.961 68 277.2C68 274.439 65.7614 272.2 63 272.2C60.2386 272.2 58 274.439 58 277.2C58 279.961 60.2386 282.2 63 282.2ZM86 277.2C86 279.961 83.7614 282.2 81 282.2C78.2386 282.2 76 279.961 76 277.2C76 274.439 78.2386 272.2 81 272.2C83.7614 272.2 86 274.439 86 277.2ZM99 282.2C101.761 282.2 104 279.961 104 277.2C104 274.439 101.761 272.2 99 272.2C96.2386 272.2 94 274.439 94 277.2C94 279.961 96.2386 282.2 99 282.2ZM122 277.2C122 279.961 119.761 282.2 117 282.2C114.239 282.2 112 279.961 112 277.2C112 274.439 114.239 272.2 117 272.2C119.761 272.2 122 274.439 122 277.2ZM135 282.2C137.761 282.2 140 279.961 140 277.2C140 274.439 137.761 272.2 135 272.2C132.239 272.2 130 274.439 130 277.2C130 279.961 132.239 282.2 135 282.2ZM158 277.2C158 279.961 155.761 282.2 153 282.2C150.239 282.2 148 279.961 148 277.2C148 274.439 150.239 272.2 153 272.2C155.761 272.2 158 274.439 158 277.2ZM171 282.2C173.761 282.2 176 279.961 176 277.2C176 274.439 173.761 272.2 171 272.2C168.239 272.2 166 274.439 166 277.2C166 279.961 168.239 282.2 171 282.2ZM194 277.2C194 279.961 191.761 282.2 189 282.2C186.239 282.2 184 279.961 184 277.2C184 274.439 186.239 272.2 189 272.2C191.761 272.2 194 274.439 194 277.2ZM207 282.2C209.761 282.2 212 279.961 212 277.2C212 274.439 209.761 272.2 207 272.2C204.239 272.2 202 274.439 202 277.2C202 279.961 204.239 282.2 207 282.2ZM230 277.2C230 279.961 227.761 282.2 225 282.2C222.239 282.2 220 279.961 220 277.2C220 274.439 222.239 272.2 225 272.2C227.761 272.2 230 274.439 230 277.2ZM243 282.2C245.761 282.2 248 279.961 248 277.2C248 274.439 245.761 272.2 243 272.2C240.239 272.2 238 274.439 238 277.2C238 279.961 240.239 282.2 243 282.2ZM14 338C14 340.761 11.7614 343 9 343C6.23858 343 4 340.761 4 338C4 335.239 6.23858 333 9 333C11.7614 333 14 335.239 14 338ZM27 343C29.7614 343 32 340.761 32 338C32 335.239 29.7614 333 27 333C24.2386 333 22 335.239 22 338C22 340.761 24.2386 343 27 343ZM50 338C50 340.761 47.7614 343 45 343C42.2386 343 40 340.761 40 338C40 335.239 42.2386 333 45 333C47.7614 333 50 335.239 50 338ZM63 343C65.7614 343 68 340.761 68 338C68 335.239 65.7614 333 63 333C60.2386 333 58 335.239 58 338C58 340.761 60.2386 343 63 343ZM86 338C86 340.761 83.7614 343 81 343C78.2386 343 76 340.761 76 338C76 335.239 78.2386 333 81 333C83.7614 333 86 335.239 86 338ZM99 343C101.761 343 104 340.761 104 338C104 335.239 101.761 333 99 333C96.2386 333 94 335.239 94 338C94 340.761 96.2386 343 99 343ZM122 338C122 340.761 119.761 343 117 343C114.239 343 112 340.761 112 338C112 335.239 114.239 333 117 333C119.761 333 122 335.239 122 338ZM135 343C137.761 343 140 340.761 140 338C140 335.239 137.761 333 135 333C132.239 333 130 335.239 130 338C130 340.761 132.239 343 135 343ZM158 338C158 340.761 155.761 343 153 343C150.239 343 148 340.761 148 338C148 335.239 150.239 333 153 333C155.761 333 158 335.239 158 338ZM171 343C173.761 343 176 340.761 176 338C176 335.239 173.761 333 171 333C168.239 333 166 335.239 166 338C166 340.761 168.239 343 171 343ZM194 338C194 340.761 191.761 343 189 343C186.239 343 184 340.761 184 338C184 335.239 186.239 333 189 333C191.761 333 194 335.239 194 338ZM207 343C209.761 343 212 340.761 212 338C212 335.239 209.761 333 207 333C204.239 333 202 335.239 202 338C202 340.761 204.239 343 207 343ZM230 338C230 340.761 227.761 343 225 343C222.239 343 220 340.761 220 338C220 335.239 222.239 333 225 333C227.761 333 230 335.239 230 338ZM243 343C245.761 343 248 340.761 248 338C248 335.239 245.761 333 243 333C240.239 333 238 335.239 238 338C238 340.761 240.239 343 243 343ZM14 398.8C14 401.561 11.7614 403.8 9 403.8C6.23858 403.8 4 401.561 4 398.8C4 396.039 6.23858 393.8 9 393.8C11.7614 393.8 14 396.039 14 398.8ZM27 403.8C29.7614 403.8 32 401.561 32 398.8C32 396.039 29.7614 393.8 27 393.8C24.2386 393.8 22 396.039 22 398.8C22 401.561 24.2386 403.8 27 403.8ZM50 398.8C50 401.561 47.7614 403.8 45 403.8C42.2386 403.8 40 401.561 40 398.8C40 396.039 42.2386 393.8 45 393.8C47.7614 393.8 50 396.039 50 398.8ZM63 403.8C65.7614 403.8 68 401.561 68 398.8C68 396.039 65.7614 393.8 63 393.8C60.2386 393.8 58 396.039 58 398.8C58 401.561 60.2386 403.8 63 403.8ZM86 398.8C86 401.561 83.7614 403.8 81 403.8C78.2386 403.8 76 401.561 76 398.8C76 396.039 78.2386 393.8 81 393.8C83.7614 393.8 86 396.039 86 398.8ZM99 403.8C101.761 403.8 104 401.561 104 398.8C104 396.039 101.761 393.8 99 393.8C96.2386 393.8 94 396.039 94 398.8C94 401.561 96.2386 403.8 99 403.8ZM122 398.8C122 401.561 119.761 403.8 117 403.8C114.239 403.8 112 401.561 112 398.8C112 396.039 114.239 393.8 117 393.8C119.761 393.8 122 396.039 122 398.8ZM135 403.8C137.761 403.8 140 401.561 140 398.8C140 396.039 137.761 393.8 135 393.8C132.239 393.8 130 396.039 130 398.8C130 401.561 132.239 403.8 135 403.8ZM158 398.8C158 401.561 155.761 403.8 153 403.8C150.239 403.8 148 401.561 148 398.8C148 396.039 150.239 393.8 153 393.8C155.761 393.8 158 396.039 158 398.8ZM171 403.8C173.761 403.8 176 401.561 176 398.8C176 396.039 173.761 393.8 171 393.8C168.239 393.8 166 396.039 166 398.8C166 401.561 168.239 403.8 171 403.8ZM194 398.8C194 401.561 191.761 403.8 189 403.8C186.239 403.8 184 401.561 184 398.8C184 396.039 186.239 393.8 189 393.8C191.761 393.8 194 396.039 194 398.8ZM207 403.8C209.761 403.8 212 401.561 212 398.8C212 396.039 209.761 393.8 207 393.8C204.239 393.8 202 396.039 202 398.8C202 401.561 204.239 403.8 207 403.8ZM230 398.8C230 401.561 227.761 403.8 225 403.8C222.239 403.8 220 401.561 220 398.8C220 396.039 222.239 393.8 225 393.8C227.761 393.8 230 396.039 230 398.8ZM243 403.8C245.761 403.8 248 401.561 248 398.8C248 396.039 245.761 393.8 243 393.8C240.239 393.8 238 396.039 238 398.8C238 401.561 240.239 403.8 243 403.8ZM14 459.6C14 462.361 11.7614 464.6 9 464.6C6.23858 464.6 4 462.361 4 459.6C4 456.839 6.23858 454.6 9 454.6C11.7614 454.6 14 456.839 14 459.6ZM27 464.6C29.7614 464.6 32 462.361 32 459.6C32 456.839 29.7614 454.6 27 454.6C24.2386 454.6 22 456.839 22 459.6C22 462.361 24.2386 464.6 27 464.6ZM50 459.6C50 462.361 47.7614 464.6 45 464.6C42.2386 464.6 40 462.361 40 459.6C40 456.839 42.2386 454.6 45 454.6C47.7614 454.6 50 456.839 50 459.6ZM63 464.6C65.7614 464.6 68 462.361 68 459.6C68 456.839 65.7614 454.6 63 454.6C60.2386 454.6 58 456.839 58 459.6C58 462.361 60.2386 464.6 63 464.6ZM86 459.6C86 462.361 83.7614 464.6 81 464.6C78.2386 464.6 76 462.361 76 459.6C76 456.839 78.2386 454.6 81 454.6C83.7614 454.6 86 456.839 86 459.6ZM99 464.6C101.761 464.6 104 462.361 104 459.6C104 456.839 101.761 454.6 99 454.6C96.2386 454.6 94 456.839 94 459.6C94 462.361 96.2386 464.6 99 464.6ZM122 459.6C122 462.361 119.761 464.6 117 464.6C114.239 464.6 112 462.361 112 459.6C112 456.839 114.239 454.6 117 454.6C119.761 454.6 122 456.839 122 459.6ZM135 464.6C137.761 464.6 140 462.361 140 459.6C140 456.839 137.761 454.6 135 454.6C132.239 454.6 130 456.839 130 459.6C130 462.361 132.239 464.6 135 464.6ZM158 459.6C158 462.361 155.761 464.6 153 464.6C150.239 464.6 148 462.361 148 459.6C148 456.839 150.239 454.6 153 454.6C155.761 454.6 158 456.839 158 459.6ZM171 464.6C173.761 464.6 176 462.361 176 459.6C176 456.839 173.761 454.6 171 454.6C168.239 454.6 166 456.839 166 459.6C166 462.361 168.239 464.6 171 464.6ZM194 459.6C194 462.361 191.761 464.6 189 464.6C186.239 464.6 184 462.361 184 459.6C184 456.839 186.239 454.6 189 454.6C191.761 454.6 194 456.839 194 459.6ZM207 464.6C209.761 464.6 212 462.361 212 459.6C212 456.839 209.761 454.6 207 454.6C204.239 454.6 202 456.839 202 459.6C202 462.361 204.239 464.6 207 464.6ZM230 459.6C230 462.361 227.761 464.6 225 464.6C222.239 464.6 220 462.361 220 459.6C220 456.839 222.239 454.6 225 454.6C227.761 454.6 230 456.839 230 459.6ZM243 464.6C245.761 464.6 248 462.361 248 459.6C248 456.839 245.761 454.6 243 454.6C240.239 454.6 238 456.839 238 459.6C238 462.361 240.239 464.6 243 464.6Z" fill="#EA5B0B" fill-opacity="0.1"></path><path fill-rule="evenodd" clip-rule="evenodd" d="M259 251.8C261.761 251.8 264 249.561 264 246.8C264 244.039 261.761 241.8 259 241.8C256.239 241.8 254 244.039 254 246.8C254 249.561 256.239 251.8 259 251.8ZM277 251.8C279.761 251.8 282 249.561 282 246.8C282 244.039 279.761 241.8 277 241.8C274.239 241.8 272 244.039 272 246.8C272 249.561 274.239 251.8 277 251.8ZM300 246.8C300 249.561 297.761 251.8 295 251.8C292.239 251.8 290 249.561 290 246.8C290 244.039 292.239 241.8 295 241.8C297.761 241.8 300 244.039 300 246.8ZM313 251.8C315.761 251.8 318 249.561 318 246.8C318 244.039 315.761 241.8 313 241.8C310.239 241.8 308 244.039 308 246.8C308 249.561 310.239 251.8 313 251.8ZM336 246.8C336 249.561 333.761 251.8 331 251.8C328.239 251.8 326 249.561 326 246.8C326 244.039 328.239 241.8 331 241.8C333.761 241.8 336 244.039 336 246.8ZM349 251.8C351.761 251.8 354 249.561 354 246.8C354 244.039 351.761 241.8 349 241.8C346.239 241.8 344 244.039 344 246.8C344 249.561 346.239 251.8 349 251.8ZM372 246.8C372 249.561 369.761 251.8 367 251.8C364.239 251.8 362 249.561 362 246.8C362 244.039 364.239 241.8 367 241.8C369.761 241.8 372 244.039 372 246.8ZM385 251.8C387.761 251.8 390 249.561 390 246.8C390 244.039 387.761 241.8 385 241.8C382.239 241.8 380 244.039 380 246.8C380 249.561 382.239 251.8 385 251.8ZM408 246.8C408 249.561 405.761 251.8 403 251.8C400.239 251.8 398 249.561 398 246.8C398 244.039 400.239 241.8 403 241.8C405.761 241.8 408 244.039 408 246.8ZM421 251.8C423.761 251.8 426 249.561 426 246.8C426 244.039 423.761 241.8 421 241.8C418.239 241.8 416 244.039 416 246.8C416 249.561 418.239 251.8 421 251.8ZM444 246.8C444 249.561 441.761 251.8 439 251.8C436.239 251.8 434 249.561 434 246.8C434 244.039 436.239 241.8 439 241.8C441.761 241.8 444 244.039 444 246.8ZM457 251.8C459.761 251.8 462 249.561 462 246.8C462 244.039 459.761 241.8 457 241.8C454.239 241.8 452 244.039 452 246.8C452 249.561 454.239 251.8 457 251.8ZM480 246.8C480 249.561 477.761 251.8 475 251.8C472.239 251.8 470 249.561 470 246.8C470 244.039 472.239 241.8 475 241.8C477.761 241.8 480 244.039 480 246.8ZM493 251.8C495.761 251.8 498 249.561 498 246.8C498 244.039 495.761 241.8 493 241.8C490.239 241.8 488 244.039 488 246.8C488 249.561 490.239 251.8 493 251.8ZM264 307.6C264 310.361 261.761 312.6 259 312.6C256.239 312.6 254 310.361 254 307.6C254 304.839 256.239 302.6 259 302.6C261.761 302.6 264 304.839 264 307.6ZM277 312.6C279.761 312.6 282 310.361 282 307.6C282 304.839 279.761 302.6 277 302.6C274.239 302.6 272 304.839 272 307.6C272 310.361 274.239 312.6 277 312.6ZM300 307.6C300 310.361 297.761 312.6 295 312.6C292.239 312.6 290 310.361 290 307.6C290 304.839 292.239 302.6 295 302.6C297.761 302.6 300 304.839 300 307.6ZM313 312.6C315.761 312.6 318 310.361 318 307.6C318 304.839 315.761 302.6 313 302.6C310.239 302.6 308 304.839 308 307.6C308 310.361 310.239 312.6 313 312.6ZM336 307.6C336 310.361 333.761 312.6 331 312.6C328.239 312.6 326 310.361 326 307.6C326 304.839 328.239 302.6 331 302.6C333.761 302.6 336 304.839 336 307.6ZM349 312.6C351.761 312.6 354 310.361 354 307.6C354 304.839 351.761 302.6 349 302.6C346.239 302.6 344 304.839 344 307.6C344 310.361 346.239 312.6 349 312.6ZM372 307.6C372 310.361 369.761 312.6 367 312.6C364.239 312.6 362 310.361 362 307.6C362 304.839 364.239 302.6 367 302.6C369.761 302.6 372 304.839 372 307.6ZM385 312.6C387.761 312.6 390 310.361 390 307.6C390 304.839 387.761 302.6 385 302.6C382.239 302.6 380 304.839 380 307.6C380 310.361 382.239 312.6 385 312.6ZM408 307.6C408 310.361 405.761 312.6 403 312.6C400.239 312.6 398 310.361 398 307.6C398 304.839 400.239 302.6 403 302.6C405.761 302.6 408 304.839 408 307.6ZM421 312.6C423.761 312.6 426 310.361 426 307.6C426 304.839 423.761 302.6 421 302.6C418.239 302.6 416 304.839 416 307.6C416 310.361 418.239 312.6 421 312.6ZM444 307.6C444 310.361 441.761 312.6 439 312.6C436.239 312.6 434 310.361 434 307.6C434 304.839 436.239 302.6 439 302.6C441.761 302.6 444 304.839 444 307.6ZM457 312.6C459.761 312.6 462 310.361 462 307.6C462 304.839 459.761 302.6 457 302.6C454.239 302.6 452 304.839 452 307.6C452 310.361 454.239 312.6 457 312.6ZM480 307.6C480 310.361 477.761 312.6 475 312.6C472.239 312.6 470 310.361 470 307.6C470 304.839 472.239 302.6 475 302.6C477.761 302.6 480 304.839 480 307.6ZM493 312.6C495.761 312.6 498 310.361 498 307.6C498 304.839 495.761 302.6 493 302.6C490.239 302.6 488 304.839 488 307.6C488 310.361 490.239 312.6 493 312.6ZM264 368.4C264 371.161 261.761 373.4 259 373.4C256.239 373.4 254 371.161 254 368.4C254 365.639 256.239 363.4 259 363.4C261.761 363.4 264 365.639 264 368.4ZM277 373.4C279.761 373.4 282 371.161 282 368.4C282 365.639 279.761 363.4 277 363.4C274.239 363.4 272 365.639 272 368.4C272 371.161 274.239 373.4 277 373.4ZM300 368.4C300 371.161 297.761 373.4 295 373.4C292.239 373.4 290 371.161 290 368.4C290 365.639 292.239 363.4 295 363.4C297.761 363.4 300 365.639 300 368.4ZM313 373.4C315.761 373.4 318 371.161 318 368.4C318 365.639 315.761 363.4 313 363.4C310.239 363.4 308 365.639 308 368.4C308 371.161 310.239 373.4 313 373.4ZM336 368.4C336 371.161 333.761 373.4 331 373.4C328.239 373.4 326 371.161 326 368.4C326 365.639 328.239 363.4 331 363.4C333.761 363.4 336 365.639 336 368.4ZM349 373.4C351.761 373.4 354 371.161 354 368.4C354 365.639 351.761 363.4 349 363.4C346.239 363.4 344 365.639 344 368.4C344 371.161 346.239 373.4 349 373.4ZM372 368.4C372 371.161 369.761 373.4 367 373.4C364.239 373.4 362 371.161 362 368.4C362 365.639 364.239 363.4 367 363.4C369.761 363.4 372 365.639 372 368.4ZM385 373.4C387.761 373.4 390 371.161 390 368.4C390 365.639 387.761 363.4 385 363.4C382.239 363.4 380 365.639 380 368.4C380 371.161 382.239 373.4 385 373.4ZM408 368.4C408 371.161 405.761 373.4 403 373.4C400.239 373.4 398 371.161 398 368.4C398 365.639 400.239 363.4 403 363.4C405.761 363.4 408 365.639 408 368.4ZM421 373.4C423.761 373.4 426 371.161 426 368.4C426 365.639 423.761 363.4 421 363.4C418.239 363.4 416 365.639 416 368.4C416 371.161 418.239 373.4 421 373.4ZM444 368.4C444 371.161 441.761 373.4 439 373.4C436.239 373.4 434 371.161 434 368.4C434 365.639 436.239 363.4 439 363.4C441.761 363.4 444 365.639 444 368.4ZM457 373.4C459.761 373.4 462 371.161 462 368.4C462 365.639 459.761 363.4 457 363.4C454.239 363.4 452 365.639 452 368.4C452 371.161 454.239 373.4 457 373.4ZM480 368.4C480 371.161 477.761 373.4 475 373.4C472.239 373.4 470 371.161 470 368.4C470 365.639 472.239 363.4 475 363.4C477.761 363.4 480 365.639 480 368.4ZM493 373.4C495.761 373.4 498 371.161 498 368.4C498 365.639 495.761 363.4 493 363.4C490.239 363.4 488 365.639 488 368.4C488 371.161 490.239 373.4 493 373.4ZM264 429.2C264 431.961 261.761 434.2 259 434.2C256.239 434.2 254 431.961 254 429.2C254 426.439 256.239 424.2 259 424.2C261.761 424.2 264 426.439 264 429.2ZM277 434.2C279.761 434.2 282 431.961 282 429.2C282 426.439 279.761 424.2 277 424.2C274.239 424.2 272 426.439 272 429.2C272 431.961 274.239 434.2 277 434.2ZM300 429.2C300 431.961 297.761 434.2 295 434.2C292.239 434.2 290 431.961 290 429.2C290 426.439 292.239 424.2 295 424.2C297.761 424.2 300 426.439 300 429.2ZM313 434.2C315.761 434.2 318 431.961 318 429.2C318 426.439 315.761 424.2 313 424.2C310.239 424.2 308 426.439 308 429.2C308 431.961 310.239 434.2 313 434.2ZM336 429.2C336 431.961 333.761 434.2 331 434.2C328.239 434.2 326 431.961 326 429.2C326 426.439 328.239 424.2 331 424.2C333.761 424.2 336 426.439 336 429.2ZM349 434.2C351.761 434.2 354 431.961 354 429.2C354 426.439 351.761 424.2 349 424.2C346.239 424.2 344 426.439 344 429.2C344 431.961 346.239 434.2 349 434.2ZM372 429.2C372 431.961 369.761 434.2 367 434.2C364.239 434.2 362 431.961 362 429.2C362 426.439 364.239 424.2 367 424.2C369.761 424.2 372 426.439 372 429.2ZM385 434.2C387.761 434.2 390 431.961 390 429.2C390 426.439 387.761 424.2 385 424.2C382.239 424.2 380 426.439 380 429.2C380 431.961 382.239 434.2 385 434.2ZM408 429.2C408 431.961 405.761 434.2 403 434.2C400.239 434.2 398 431.961 398 429.2C398 426.439 400.239 424.2 403 424.2C405.761 424.2 408 426.439 408 429.2ZM421 434.2C423.761 434.2 426 431.961 426 429.2C426 426.439 423.761 424.2 421 424.2C418.239 424.2 416 426.439 416 429.2C416 431.961 418.239 434.2 421 434.2ZM444 429.2C444 431.961 441.761 434.2 439 434.2C436.239 434.2 434 431.961 434 429.2C434 426.439 436.239 424.2 439 424.2C441.761 424.2 444 426.439 444 429.2ZM457 434.2C459.761 434.2 462 431.961 462 429.2C462 426.439 459.761 424.2 457 424.2C454.239 424.2 452 426.439 452 429.2C452 431.961 454.239 434.2 457 434.2ZM480 429.2C480 431.961 477.761 434.2 475 434.2C472.239 434.2 470 431.961 470 429.2C470 426.439 472.239 424.2 475 424.2C477.761 424.2 480 426.439 480 429.2ZM493 434.2C495.761 434.2 498 431.961 498 429.2C498 426.439 495.761 424.2 493 424.2C490.239 424.2 488 426.439 488 429.2C488 431.961 490.239 434.2 493 434.2ZM264 277.2C264 279.961 261.761 282.2 259 282.2C256.239 282.2 254 279.961 254 277.2C254 274.439 256.239 272.2 259 272.2C261.761 272.2 264 274.439 264 277.2ZM277 282.2C279.761 282.2 282 279.961 282 277.2C282 274.439 279.761 272.2 277 272.2C274.239 272.2 272 274.439 272 277.2C272 279.961 274.239 282.2 277 282.2ZM300 277.2C300 279.961 297.761 282.2 295 282.2C292.239 282.2 290 279.961 290 277.2C290 274.439 292.239 272.2 295 272.2C297.761 272.2 300 274.439 300 277.2ZM313 282.2C315.761 282.2 318 279.961 318 277.2C318 274.439 315.761 272.2 313 272.2C310.239 272.2 308 274.439 308 277.2C308 279.961 310.239 282.2 313 282.2ZM336 277.2C336 279.961 333.761 282.2 331 282.2C328.239 282.2 326 279.961 326 277.2C326 274.439 328.239 272.2 331 272.2C333.761 272.2 336 274.439 336 277.2ZM349 282.2C351.761 282.2 354 279.961 354 277.2C354 274.439 351.761 272.2 349 272.2C346.239 272.2 344 274.439 344 277.2C344 279.961 346.239 282.2 349 282.2ZM372 277.2C372 279.961 369.761 282.2 367 282.2C364.239 282.2 362 279.961 362 277.2C362 274.439 364.239 272.2 367 272.2C369.761 272.2 372 274.439 372 277.2ZM385 282.2C387.761 282.2 390 279.961 390 277.2C390 274.439 387.761 272.2 385 272.2C382.239 272.2 380 274.439 380 277.2C380 279.961 382.239 282.2 385 282.2ZM408 277.2C408 279.961 405.761 282.2 403 282.2C400.239 282.2 398 279.961 398 277.2C398 274.439 400.239 272.2 403 272.2C405.761 272.2 408 274.439 408 277.2ZM421 282.2C423.761 282.2 426 279.961 426 277.2C426 274.439 423.761 272.2 421 272.2C418.239 272.2 416 274.439 416 277.2C416 279.961 418.239 282.2 421 282.2ZM444 277.2C444 279.961 441.761 282.2 439 282.2C436.239 282.2 434 279.961 434 277.2C434 274.439 436.239 272.2 439 272.2C441.761 272.2 444 274.439 444 277.2ZM457 282.2C459.761 282.2 462 279.961 462 277.2C462 274.439 459.761 272.2 457 272.2C454.239 272.2 452 274.439 452 277.2C452 279.961 454.239 282.2 457 282.2ZM480 277.2C480 279.961 477.761 282.2 475 282.2C472.239 282.2 470 279.961 470 277.2C470 274.439 472.239 272.2 475 272.2C477.761 272.2 480 274.439 480 277.2ZM493 282.2C495.761 282.2 498 279.961 498 277.2C498 274.439 495.761 272.2 493 272.2C490.239 272.2 488 274.439 488 277.2C488 279.961 490.239 282.2 493 282.2ZM264 338C264 340.761 261.761 343 259 343C256.239 343 254 340.761 254 338C254 335.239 256.239 333 259 333C261.761 333 264 335.239 264 338ZM277 343C279.761 343 282 340.761 282 338C282 335.239 279.761 333 277 333C274.239 333 272 335.239 272 338C272 340.761 274.239 343 277 343ZM300 338C300 340.761 297.761 343 295 343C292.239 343 290 340.761 290 338C290 335.239 292.239 333 295 333C297.761 333 300 335.239 300 338ZM313 343C315.761 343 318 340.761 318 338C318 335.239 315.761 333 313 333C310.239 333 308 335.239 308 338C308 340.761 310.239 343 313 343ZM336 338C336 340.761 333.761 343 331 343C328.239 343 326 340.761 326 338C326 335.239 328.239 333 331 333C333.761 333 336 335.239 336 338ZM349 343C351.761 343 354 340.761 354 338C354 335.239 351.761 333 349 333C346.239 333 344 335.239 344 338C344 340.761 346.239 343 349 343ZM372 338C372 340.761 369.761 343 367 343C364.239 343 362 340.761 362 338C362 335.239 364.239 333 367 333C369.761 333 372 335.239 372 338ZM385 343C387.761 343 390 340.761 390 338C390 335.239 387.761 333 385 333C382.239 333 380 335.239 380 338C380 340.761 382.239 343 385 343ZM408 338C408 340.761 405.761 343 403 343C400.239 343 398 340.761 398 338C398 335.239 400.239 333 403 333C405.761 333 408 335.239 408 338ZM421 343C423.761 343 426 340.761 426 338C426 335.239 423.761 333 421 333C418.239 333 416 335.239 416 338C416 340.761 418.239 343 421 343ZM444 338C444 340.761 441.761 343 439 343C436.239 343 434 340.761 434 338C434 335.239 436.239 333 439 333C441.761 333 444 335.239 444 338ZM457 343C459.761 343 462 340.761 462 338C462 335.239 459.761 333 457 333C454.239 333 452 335.239 452 338C452 340.761 454.239 343 457 343ZM480 338C480 340.761 477.761 343 475 343C472.239 343 470 340.761 470 338C470 335.239 472.239 333 475 333C477.761 333 480 335.239 480 338ZM493 343C495.761 343 498 340.761 498 338C498 335.239 495.761 333 493 333C490.239 333 488 335.239 488 338C488 340.761 490.239 343 493 343ZM264 398.8C264 401.561 261.761 403.8 259 403.8C256.239 403.8 254 401.561 254 398.8C254 396.039 256.239 393.8 259 393.8C261.761 393.8 264 396.039 264 398.8ZM277 403.8C279.761 403.8 282 401.561 282 398.8C282 396.039 279.761 393.8 277 393.8C274.239 393.8 272 396.039 272 398.8C272 401.561 274.239 403.8 277 403.8ZM300 398.8C300 401.561 297.761 403.8 295 403.8C292.239 403.8 290 401.561 290 398.8C290 396.039 292.239 393.8 295 393.8C297.761 393.8 300 396.039 300 398.8ZM313 403.8C315.761 403.8 318 401.561 318 398.8C318 396.039 315.761 393.8 313 393.8C310.239 393.8 308 396.039 308 398.8C308 401.561 310.239 403.8 313 403.8ZM336 398.8C336 401.561 333.761 403.8 331 403.8C328.239 403.8 326 401.561 326 398.8C326 396.039 328.239 393.8 331 393.8C333.761 393.8 336 396.039 336 398.8ZM349 403.8C351.761 403.8 354 401.561 354 398.8C354 396.039 351.761 393.8 349 393.8C346.239 393.8 344 396.039 344 398.8C344 401.561 346.239 403.8 349 403.8ZM372 398.8C372 401.561 369.761 403.8 367 403.8C364.239 403.8 362 401.561 362 398.8C362 396.039 364.239 393.8 367 393.8C369.761 393.8 372 396.039 372 398.8ZM385 403.8C387.761 403.8 390 401.561 390 398.8C390 396.039 387.761 393.8 385 393.8C382.239 393.8 380 396.039 380 398.8C380 401.561 382.239 403.8 385 403.8ZM408 398.8C408 401.561 405.761 403.8 403 403.8C400.239 403.8 398 401.561 398 398.8C398 396.039 400.239 393.8 403 393.8C405.761 393.8 408 396.039 408 398.8ZM421 403.8C423.761 403.8 426 401.561 426 398.8C426 396.039 423.761 393.8 421 393.8C418.239 393.8 416 396.039 416 398.8C416 401.561 418.239 403.8 421 403.8ZM444 398.8C444 401.561 441.761 403.8 439 403.8C436.239 403.8 434 401.561 434 398.8C434 396.039 436.239 393.8 439 393.8C441.761 393.8 444 396.039 444 398.8ZM457 403.8C459.761 403.8 462 401.561 462 398.8C462 396.039 459.761 393.8 457 393.8C454.239 393.8 452 396.039 452 398.8C452 401.561 454.239 403.8 457 403.8ZM480 398.8C480 401.561 477.761 403.8 475 403.8C472.239 403.8 470 401.561 470 398.8C470 396.039 472.239 393.8 475 393.8C477.761 393.8 480 396.039 480 398.8ZM493 403.8C495.761 403.8 498 401.561 498 398.8C498 396.039 495.761 393.8 493 393.8C490.239 393.8 488 396.039 488 398.8C488 401.561 490.239 403.8 493 403.8ZM264 459.6C264 462.361 261.761 464.6 259 464.6C256.239 464.6 254 462.361 254 459.6C254 456.839 256.239 454.6 259 454.6C261.761 454.6 264 456.839 264 459.6ZM277 464.6C279.761 464.6 282 462.361 282 459.6C282 456.839 279.761 454.6 277 454.6C274.239 454.6 272 456.839 272 459.6C272 462.361 274.239 464.6 277 464.6ZM300 459.6C300 462.361 297.761 464.6 295 464.6C292.239 464.6 290 462.361 290 459.6C290 456.839 292.239 454.6 295 454.6C297.761 454.6 300 456.839 300 459.6ZM313 464.6C315.761 464.6 318 462.361 318 459.6C318 456.839 315.761 454.6 313 454.6C310.239 454.6 308 456.839 308 459.6C308 462.361 310.239 464.6 313 464.6ZM336 459.6C336 462.361 333.761 464.6 331 464.6C328.239 464.6 326 462.361 326 459.6C326 456.839 328.239 454.6 331 454.6C333.761 454.6 336 456.839 336 459.6ZM349 464.6C351.761 464.6 354 462.361 354 459.6C354 456.839 351.761 454.6 349 454.6C346.239 454.6 344 456.839 344 459.6C344 462.361 346.239 464.6 349 464.6ZM372 459.6C372 462.361 369.761 464.6 367 464.6C364.239 464.6 362 462.361 362 459.6C362 456.839 364.239 454.6 367 454.6C369.761 454.6 372 456.839 372 459.6ZM385 464.6C387.761 464.6 390 462.361 390 459.6C390 456.839 387.761 454.6 385 454.6C382.239 454.6 380 456.839 380 459.6C380 462.361 382.239 464.6 385 464.6ZM408 459.6C408 462.361 405.761 464.6 403 464.6C400.239 464.6 398 462.361 398 459.6C398 456.839 400.239 454.6 403 454.6C405.761 454.6 408 456.839 408 459.6ZM421 464.6C423.761 464.6 426 462.361 426 459.6C426 456.839 423.761 454.6 421 454.6C418.239 454.6 416 456.839 416 459.6C416 462.361 418.239 464.6 421 464.6ZM444 459.6C444 462.361 441.761 464.6 439 464.6C436.239 464.6 434 462.361 434 459.6C434 456.839 436.239 454.6 439 454.6C441.761 454.6 444 456.839 444 459.6ZM457 464.6C459.761 464.6 462 462.361 462 459.6C462 456.839 459.761 454.6 457 454.6C454.239 454.6 452 456.839 452 459.6C452 462.361 454.239 464.6 457 464.6ZM480 459.6C480 462.361 477.761 464.6 475 464.6C472.239 464.6 470 462.361 470 459.6C470 456.839 472.239 454.6 475 454.6C477.761 454.6 480 456.839 480 459.6ZM493 464.6C495.761 464.6 498 462.361 498 459.6C498 456.839 495.761 454.6 493 454.6C490.239 454.6 488 456.839 488 459.6C488 462.361 490.239 464.6 493 464.6Z" fill="#EA5B0B" fill-opacity="0.1"></path></g><defs><filter id="filter0_d_4404_10892" x="0" y="0" width="502" height="472.6" filterUnits="userSpaceOnUse" color-interpolation-filters="sRGB"><feGaussianBlur stdDeviation="2"></feGaussianBlur></filter></defs></svg>