<svg xmlns="http://www.w3.org/2000/svg" width="28" height="28" viewBox="0 0 28 28" fill="none"><path d="M14.0201 10.9173C19.6011 10.9173 24.1431 6.64015 24.1431 1.38086C24.1431 1.16141 23.9545 0.985 23.7238 0.985C19.1451 0.985 15.266 3.86371 14.0201 7.80172C12.7742 3.86371 8.8951 0.985 4.31643 0.985C4.08565 0.985 3.89711 1.16141 3.89711 1.38086C3.89711 6.64015 8.4391 10.9173 14.0201 10.9173ZM20.8832 2.1959C21.6489 1.96355 22.4573 1.82207 23.2946 1.78593C23.1299 5.16815 20.915 8.05564 17.7954 9.36892C18.1566 9.04164 18.4975 8.66562 18.8132 8.24256C20.0134 6.63436 20.7433 4.49605 20.8832 2.1959ZM14.45 10.1032C14.6211 6.7011 16.8666 3.8013 20.0195 2.50386C19.8395 4.5228 19.1772 6.38014 18.1277 7.78652C17.1076 9.15326 15.815 9.96246 14.45 10.1032ZM13.5901 10.103C12.2247 9.96145 10.9322 9.15224 9.91253 7.78607C8.863 6.37993 8.20069 4.52275 8.02071 2.50386C11.1735 3.80129 13.419 6.70094 13.5901 10.103ZM9.22697 8.24215C9.54306 8.66561 9.8844 9.04197 10.246 9.36947C7.12583 8.05642 4.91027 5.16864 4.74557 1.78593C5.58285 1.82207 6.39132 1.96355 7.15696 2.19589C7.29679 4.49605 8.02681 6.63421 9.22697 8.24215Z" fill="white" stroke="#EA5B0B" stroke-width="0.03"></path><path d="M14.0215 15.907L16.9094 11.8265L16.9094 11.8265L16.9196 11.8337L14.0215 15.907ZM14.0215 15.907L11.1335 11.8265L11.1233 11.8337L11.1335 11.8264C11.0561 11.7171 10.926 11.6516 10.7869 11.6516H0.625011C0.471667 11.6516 0.330343 11.731 0.257696 11.859C0.184875 11.9871 0.192936 12.1426 0.278414 12.2634L3.44275 16.7345V26.6191C3.44275 26.8371 3.63003 27.0125 3.85957 27.0125H24.1834C24.4129 27.0125 24.6002 26.8371 24.6002 26.6191V16.7345L14.0215 15.907ZM13.6046 23.5723V26.2258H4.27639V17.0086H13.6046V23.5723ZM14.4383 23.5723V17.0086H23.7665V26.2258H14.4383V23.5723ZM4.08243 16.2219L1.40466 12.4383H10.5641L13.2419 16.2219H4.08243ZM17.4789 12.4383H26.6383L23.9605 16.2219H14.8011L17.4789 12.4383Z" fill="white" stroke="#EA5B0B" stroke-width="0.025"></path></svg>