<svg xmlns="http://www.w3.org/2000/svg" width="21" height="18" viewBox="0 0 21 18" fill="none"><path fill-rule="evenodd" clip-rule="evenodd" d="M5.54339 15.7079C6.25739 15.7079 6.83839 16.2154 6.83839 16.8402C6.83839 17.4649 6.25739 17.9733 5.54339 17.9733C4.82939 17.9733 4.24939 17.4649 4.24939 16.8402C4.24939 16.2154 4.82939 15.7079 5.54339 15.7079ZM16.8237 15.7079C17.5387 15.7079 18.1197 16.2154 18.1197 16.8402C18.1197 17.4649 17.5387 17.9733 16.8237 17.9733C16.1097 17.9733 15.5297 17.4649 15.5297 16.8402C15.5297 16.2154 16.1097 15.7079 16.8237 15.7079ZM1.26759 0.883301L3.34759 1.1983C3.68259 1.24993 3.93759 1.49318 3.96659 1.79068L4.20159 4.24155L5.07544 4.24188C5.21804 4.24194 5.35912 4.24199 5.49871 4.24205L7.10302 4.24271C7.2309 4.24277 7.35735 4.24283 7.48238 4.24288L9.25378 4.24373C9.36506 4.24379 9.47501 4.24385 9.58364 4.2439L10.825 4.2446C10.9233 4.24466 11.0204 4.24471 11.1163 4.24477L12.2081 4.24548C12.2943 4.24554 12.3793 4.24559 12.4632 4.24565L13.4151 4.24637C13.49 4.24643 13.5638 4.24649 13.6365 4.24655L14.2621 4.24709C14.3285 4.24715 14.3939 4.24722 14.4582 4.24728L15.1828 4.24801C15.2393 4.24807 15.2949 4.24814 15.3495 4.2482L15.9613 4.24895C16.0087 4.24901 16.0552 4.24907 16.1009 4.24913L16.4898 4.2497C16.5305 4.24976 16.5704 4.24983 16.6096 4.24989L17.0427 4.25066C17.0758 4.25072 17.1082 4.25079 17.1399 4.25085L17.4065 4.25144C17.4341 4.2515 17.461 4.25157 17.4873 4.25163L17.773 4.25242C17.7945 4.25249 17.8153 4.25255 17.8356 4.25262L18.0034 4.25322C18.0204 4.25329 18.037 4.25335 18.053 4.25342L18.2227 4.25423C18.2351 4.2543 18.247 4.25436 18.2584 4.25443L18.3509 4.25505C18.3601 4.25512 18.3688 4.25518 18.3772 4.25525L18.4438 4.25587C18.4503 4.25594 18.4564 4.25601 18.4623 4.25608L18.5076 4.25671C18.5118 4.25678 18.5159 4.25685 18.5197 4.25692L18.5483 4.25756C18.5509 4.25763 18.5534 4.2577 18.5557 4.25777L18.5764 4.25862C18.5777 4.2587 18.5789 4.25877 18.58 4.25884C18.5897 4.25964 18.5912 4.25978 18.5926 4.25993C19.1496 4.3308 19.6396 4.58543 19.9736 4.97743C20.3076 5.36855 20.4476 5.85068 20.3676 6.33368L19.4186 12.0719C19.2396 13.1639 18.1556 13.9873 16.8956 13.9873H5.97459C4.65759 13.9873 3.54259 13.0878 3.43559 11.9372L2.51959 2.40493L1.01259 2.17743C0.603593 2.11443 0.330593 1.7758 0.400593 1.41793C0.472593 1.06005 0.867593 0.827301 1.26759 0.883301ZM4.87483 5.55435L4.32759 5.55405L4.93059 11.8296C4.97459 12.3126 5.42559 12.6748 5.97659 12.6748H16.8936C17.4146 12.6748 17.8596 12.3353 17.9336 11.8847L18.8836 6.14555C18.9056 6.00905 18.8666 5.87255 18.7716 5.7623C18.6776 5.65118 18.5396 5.57943 18.3836 5.56018C18.3764 5.56042 18.3591 5.56064 18.3323 5.56084L18.2235 5.56138C18.2008 5.56147 18.1757 5.56154 18.1485 5.56161L17.582 5.56237C17.5342 5.5624 17.4845 5.56242 17.433 5.56245L16.101 5.5624C16.0267 5.56237 15.9509 5.56235 15.8739 5.56232L14.3538 5.56151C14.2627 5.56145 14.1706 5.56139 14.0776 5.56133L13.2175 5.56072C13.1195 5.56065 13.0208 5.56058 12.9214 5.56051L12.0103 5.5598C11.9074 5.55972 11.8041 5.55964 11.7002 5.55956L11.0727 5.55905C10.9674 5.55897 10.8617 5.55888 10.7559 5.5588L9.79819 5.55801C9.69141 5.55793 9.58456 5.55784 9.4777 5.55775L8.83706 5.55723C8.73044 5.55714 8.62395 5.55706 8.51763 5.55697L7.88243 5.55647C7.77709 5.55639 7.67205 5.5563 7.56738 5.55622L6.63687 5.55552C6.53495 5.55545 6.43357 5.55537 6.33281 5.5553L5.15688 5.55452C5.06199 5.55446 4.96795 5.55441 4.87483 5.55435ZM15.2875 7.47582C15.7015 7.47582 16.0375 7.76982 16.0375 8.13207C16.0375 8.49432 15.7015 8.78832 15.2875 8.78832H12.5155C12.1005 8.78832 11.7655 8.49432 11.7655 8.13207C11.7655 7.76982 12.1005 7.47582 12.5155 7.47582H15.2875Z" fill="#EA5B0B"></path></svg>