<svg xmlns="http://www.w3.org/2000/svg" width="28" height="29" viewBox="0 0 28 29" fill="none"><path d="M16.8398 0.530799C16.8398 0.237647 17.0775 0 17.3706 0C17.6638 0 17.9014 0.237647 17.9014 0.530799V1.8292C17.9014 2.12236 17.6638 2.36 17.3706 2.36C17.0775 2.36 16.8398 2.12236 16.8398 1.8292V0.530799Z" fill="white"></path><path d="M25.1836 11.3066C25.1836 11.0305 25.4075 10.8066 25.6836 10.8066H27.189C27.4651 10.8066 27.689 11.0305 27.689 11.3066C27.689 11.5828 27.4651 11.8066 27.189 11.8066H25.6836C25.4075 11.8066 25.1836 11.5828 25.1836 11.3066Z" fill="white"></path><path d="M0.384766 11.3066C0.384766 11.0305 0.608623 10.8066 0.884766 10.8066H2.39013C2.66628 10.8066 2.89013 11.0305 2.89013 11.3066C2.89013 11.5828 2.66628 11.8066 2.39013 11.8066H0.884765C0.608623 11.8066 0.384766 11.5828 0.384766 11.3066Z" fill="white"></path><path d="M4.38119 2.91996C4.1739 2.7247 4.1739 2.40811 4.38119 2.21285C4.58848 2.01759 4.92456 2.01759 5.13185 2.21285L6.15275 3.17452C6.36004 3.36978 6.36004 3.68636 6.15275 3.88163C5.94546 4.07689 5.60938 4.07689 5.40209 3.88163L4.38119 2.91996Z" fill="white"></path><path d="M21.9163 3.8848C21.7091 3.68954 21.7091 3.37296 21.9163 3.1777L22.9373 2.21603C23.1445 2.02077 23.4806 2.02077 23.6879 2.21603C23.8952 2.41129 23.8952 2.72788 23.6879 2.92314L22.667 3.8848C22.4597 4.08007 22.1236 4.08007 21.9163 3.8848Z" fill="white"></path><path d="M5.06965 10.3416C4.92077 11.5746 5.05968 12.8234 5.47667 14.0005C5.89366 15.1777 6.57865 16.2548 7.48372 17.1566C8.39735 18.0598 9.07314 19.1524 9.4567 20.3466C8.85407 20.301 8.24833 20.3062 7.64668 20.3621C7.5288 20.3754 7.41909 20.4257 7.33508 20.5047C7.25108 20.5837 7.19763 20.687 7.18329 20.7981C7.16365 20.9521 6.72574 24.5801 8.90626 26.6421C10.4132 28.0536 12.6972 28.3066 14.1283 28.3066C14.2519 28.3066 14.3671 28.3066 14.4765 28.3011H14.6421C16.2541 28.3011 18.6161 28.0171 20.1581 26.5646C22.6369 24.2296 21.9097 19.8981 21.8784 19.7146C21.8596 19.6122 21.8073 19.5179 21.7289 19.4447C21.6506 19.3716 21.5499 19.3233 21.4411 19.3066C20.6656 19.2035 19.8814 19.17 19.0992 19.2066C19.4977 18.4387 20.0152 17.731 20.6348 17.1066C21.6078 16.1233 22.3194 14.9368 22.7112 13.6442C23.103 12.3517 23.1638 10.9901 22.8885 9.67116C22.6133 8.35222 22.01 7.11357 21.128 6.05689C20.246 5.0002 19.1105 4.15562 17.8148 3.59248C16.5191 3.02933 15.1001 2.76368 13.6743 2.81732C12.2484 2.87096 10.8564 3.24238 9.61253 3.90107C8.36864 4.55977 7.30831 5.48696 6.5186 6.60653C5.7289 7.72611 5.23233 9.00614 5.06965 10.3416ZM12.4339 24.5996L10.7083 22.9741L9.95777 23.6811L12.3299 25.9156C12.3223 26.328 12.3366 26.7405 12.3729 27.1516C11.3601 27.0063 10.4155 26.5826 9.65734 25.9336C8.22737 24.5836 8.16686 22.2616 8.20773 21.3256C9.17962 21.2886 11.556 21.3446 13.0014 22.6076C12.7209 23.2454 12.5301 23.9151 12.4339 24.5996ZM20.8789 20.2496C20.9883 21.2826 21.1279 24.2416 19.4076 25.8621C17.9813 27.2056 15.5694 27.3416 14.1649 27.2916L18.587 23.1266L17.8364 22.4196L13.4032 26.5956C13.3464 25.2761 13.4849 22.9861 14.9197 21.6346C16.6379 20.0161 19.7818 20.1451 20.8789 20.2476V20.2496ZM19.3508 5.71956C20.1392 6.38527 20.7788 7.19242 21.232 8.09378C21.6853 8.99514 21.9431 9.9726 21.9905 10.969C22.0378 11.9653 21.8737 12.9606 21.5078 13.8965C21.1418 14.8324 20.5814 15.6902 19.8593 16.4196C19.0223 17.2653 18.3567 18.2481 17.8953 19.3196C16.5043 19.4716 15.1998 20.0341 14.1686 20.9266C13.9219 21.1634 13.7019 21.4236 13.512 21.7031C12.6618 21.0771 11.6596 20.6602 10.5958 20.4901C10.2001 18.9803 9.39263 17.594 8.25338 16.4686C6.83175 15.064 6.0432 13.1952 6.05333 11.2546C6.06346 9.31396 6.87148 7.45253 8.30769 6.06121C9.74391 4.66989 11.6966 3.85691 13.7556 3.79302C15.8147 3.72913 17.8199 4.41929 19.3502 5.71856L19.3508 5.71956Z" fill="white"></path><path d="M10.4794 13.2965L12.5214 13.6815L11.1477 17.1315C11.1042 17.2403 11.1023 17.3599 11.1423 17.4698C11.1823 17.5798 11.2617 17.6731 11.3669 17.7339C11.472 17.7947 11.5963 17.819 11.7185 17.8028C11.8407 17.7866 11.953 17.7308 12.0362 17.645L17.875 11.645C17.9387 11.58 17.9829 11.5001 18.0031 11.4137C18.0233 11.3273 18.0188 11.2373 17.99 11.1531C17.9612 11.0688 17.9092 10.9933 17.8393 10.9342C17.7694 10.875 17.6841 10.8344 17.5921 10.8165L15.5278 10.4275L16.9302 6.46455C16.9691 6.35432 16.9661 6.23477 16.9217 6.12641C16.8772 6.01805 16.7941 5.92765 16.6866 5.87075C16.5791 5.81384 16.4539 5.79397 16.3325 5.81455C16.2111 5.83514 16.1011 5.89489 16.0215 5.98355L10.1827 12.4835C10.1231 12.5497 10.0829 12.6292 10.0658 12.7144C10.0488 12.7996 10.0555 12.8876 10.0855 12.9696C10.1154 13.0516 10.1675 13.1248 10.2365 13.1821C10.3056 13.2395 10.3893 13.2789 10.4794 13.2965ZM15.0469 8.61154L14.3261 10.6485C14.302 10.7159 14.2934 10.7873 14.301 10.8581C14.3085 10.9288 14.332 10.9972 14.3698 11.0587C14.4076 11.1202 14.459 11.1734 14.5203 11.2148C14.5817 11.2562 14.6518 11.2847 14.7258 11.2985L16.4557 11.6245L13.1031 15.0705L13.7348 13.484C13.7621 13.4164 13.7735 13.3439 13.7682 13.2716C13.7629 13.1994 13.7409 13.1291 13.7039 13.0656C13.6669 13.0021 13.6157 12.947 13.5539 12.904C13.492 12.861 13.421 12.8311 13.3457 12.8165L11.5739 12.4825L15.0469 8.61154Z" fill="white"></path></svg>