<svg xmlns="http://www.w3.org/2000/svg" width="31" height="26" viewBox="0 0 31 26" fill="none"><path d="M12.2191 2.78977C9.56389 0.289879 4.36793 0 0.690057 0C0.309158 0 0 0.291158 0 0.649957C0 4.11442 0.306376 9.0089 2.96161 11.5101C4.08225 12.5658 5.80044 13.0376 7.50343 13.0376C9.3541 13.0376 11.1882 12.48 12.2191 11.5089C14.1968 9.64594 14.5598 4.99326 12.2191 2.78977ZM11.2435 10.591C9.76676 11.9807 5.66659 12.2186 3.93877 10.591C1.79549 8.57217 1.42423 4.47066 1.38419 1.30387C4.74604 1.34159 9.10019 1.69125 11.2434 3.71016C12.9713 5.33774 12.7187 9.20134 11.2435 10.591Z" fill="white"></path><path d="M29.7041 2.57031C26.0262 2.57031 20.8302 2.85891 18.1749 5.36008C15.8343 7.56358 16.1973 12.2163 18.1749 14.0792C19.2058 15.049 21.0386 15.6067 22.8893 15.6067C24.5922 15.6067 26.3091 15.1361 27.4324 14.0805C30.0863 11.5793 30.394 6.68486 30.394 3.22033C30.3941 2.86153 30.0849 2.57031 29.7041 2.57031ZM26.454 13.1601C24.7262 14.7876 20.6246 14.5497 19.1493 13.1601C17.674 11.7704 17.4215 7.90677 19.1493 6.2792C21.2926 4.26029 25.6466 3.91063 29.0085 3.87291C28.9685 7.04098 28.5973 11.1425 26.454 13.1601Z" fill="white"></path><path d="M24.7194 8.19801C24.5566 7.87169 24.0901 7.75993 23.7465 7.91069C18.4539 10.2546 15.8539 14.3418 14.6725 18.5433C13.211 9.60975 8.98385 6.88627 7.19114 5.7306C6.96757 5.5863 6.79368 5.481 6.6971 5.3913C6.42798 5.1378 5.99048 5.1378 5.72137 5.3913C5.45225 5.6448 5.45225 6.05691 5.72137 6.31041C5.85799 6.43783 6.09399 6.59773 6.41278 6.80309C8.43321 8.10441 13.8003 11.5637 13.8003 25.3502C13.8003 25.709 14.1094 26.0002 14.4903 26.0002C14.8712 26.0002 15.1804 25.709 15.1804 25.3515C15.1804 19.781 16.7689 12.4374 24.3344 9.08855C24.3344 9.08727 24.4462 9.03785 24.4462 9.03785C24.7898 8.88441 24.8823 8.52299 24.7194 8.19801Z" fill="white"></path></svg>