<svg xmlns="http://www.w3.org/2000/svg" width="423" height="363" viewBox="0 0 423 363" fill="none"><path d="M39.2432 68.4764H90.0527V33.7877C90.0527 15.1567 103.951 0 121.034 0H240.829C257.913 0 271.811 15.1567 271.811 33.7877V68.4764H322.62C344.258 68.4764 361.863 87.6759 361.863 111.274V158.577H400.074C405.882 158.577 410.607 163.731 410.607 170.065V187.634C410.607 193.968 405.882 199.122 400.074 199.122H398.215V212.637H400.28C412.808 212.637 423 223.752 423 237.415V256.786C423 260.518 420.226 263.544 416.804 263.544C413.382 263.544 410.607 260.518 410.607 256.786V237.415C410.607 231.204 405.975 226.152 400.28 226.152H335.013C329.318 226.152 324.686 231.204 324.686 237.415V337.426C324.686 343.637 329.318 348.689 335.013 348.689H400.28C405.975 348.689 410.607 343.637 410.607 337.426V288.322C410.607 284.59 413.382 281.564 416.804 281.564C420.226 281.564 423 284.59 423 288.322V337.426C423 351.089 412.808 362.204 400.28 362.204H322.62H39.2432C17.6049 362.204 0 343.004 0 319.406V111.274C0 87.6759 17.6049 68.4764 39.2432 68.4764ZM259.418 33.7877C259.418 22.6089 251.079 13.5151 240.829 13.5151H121.034C110.784 13.5151 102.445 22.6089 102.445 33.7877V68.4764H114.838V38.2927C114.838 32.0821 119.47 27.0301 125.165 27.0301H236.698C242.393 27.0301 247.025 32.0821 247.025 38.2927V68.4764H259.418V33.7877ZM127.23 68.4764H234.633V40.5452H127.23V68.4764ZM398.215 172.092H337.078V185.607H398.215V172.092ZM385.822 199.122H349.471V212.637H385.822V199.122ZM299.735 348.689H314.786C313.196 345.307 312.292 341.481 312.292 337.426V294.629H299.9V346.436C299.9 347.203 299.833 347.951 299.735 348.689ZM285.442 348.689C286.581 348.689 287.508 347.678 287.508 346.436V282.015C287.508 276.205 285.747 270.445 282.551 265.796C277.756 258.824 275.115 250.185 275.115 241.469L275 224L275.115 205.88C275.115 202.153 272.336 199.122 268.919 199.122C265.502 199.122 262.723 202.153 262.723 205.88V241.469C262.723 250.185 260.082 258.824 255.287 265.796C252.091 270.445 250.33 276.205 250.33 282.015V346.436C250.33 347.678 251.257 348.689 252.396 348.689H285.442ZM237.938 346.436V294.629H200.76V348.689H238.103C238.005 347.951 237.938 347.203 237.938 346.436ZM165.647 294.629C164.509 294.629 163.582 295.64 163.582 296.881V346.436C163.582 347.678 164.509 348.689 165.647 348.689H188.367V294.629H165.647ZM12.3926 319.406C12.3926 335.552 24.4382 348.689 39.2432 348.689H151.355C151.257 347.951 151.189 347.203 151.189 346.436V335.174H91.7051L88.5 189.835L96 222L116.167 223.674C116.167 214.981 111.028 192.134 119 192.134H151.993C152.168 183.726 148.628 181.399 153.257 174.667C156.453 170.019 151.993 174.962 151.993 169.151L120.804 166.853C120.804 155.674 105.917 111.274 116.167 111.274C126.418 111.274 291.5 125.944 291.5 125.944L130.919 116.83C125.111 116.83 197.09 112.513 197.09 106.179L303.302 102.502C303.302 101.26 323.759 109.022 322.62 109.022L97.6225 125.944C96.484 125.944 92.1433 163.176 92.1433 163.176L58.5 166.853C55.7237 166.853 61.8615 188 63 188L88.5 189.835L91.7051 335.174H39.2432C31.2714 335.174 24.7852 328.1 24.7852 319.406V111.274C24.7852 102.58 31.2714 95.5065 39.2432 95.5065H322.62C330.592 95.5065 337.078 102.58 337.078 111.274V158.577H349.471V111.274C349.471 95.1281 337.425 81.9914 322.62 81.9914H39.2432C24.4382 81.9914 12.3926 95.1281 12.3926 111.274V319.406Z" fill="#7B3200"></path><path d="M50 181.629V173.371C50 165.403 56.483 158.92 64.4508 158.92H85.9205V137.451C85.9205 129.483 92.4035 123 100.371 123H108.629C116.597 123 123.08 129.483 123.08 137.451V158.92H144.549C152.517 158.92 159 165.403 159 173.371V181.629C159 189.597 152.517 196.08 144.549 196.08H123.08V217.549C123.08 225.517 116.597 232 108.629 232H100.371C92.4035 232 85.9205 225.517 85.9205 217.549V196.08H64.4508C56.483 196.08 50 189.597 50 181.629ZM87.9848 183.693C93.6768 183.693 98.3068 188.323 98.3068 194.015V217.549C98.3068 218.687 99.2333 219.614 100.371 219.614H108.629C109.767 219.614 110.693 218.687 110.693 217.549V194.015C110.693 188.323 115.323 183.693 121.015 183.693H144.549C145.687 183.693 146.614 182.767 146.614 181.629V173.371C146.614 172.233 145.687 171.307 144.549 171.307H121.015C115.323 171.307 110.693 166.677 110.693 160.985V137.451C110.693 136.313 109.767 135.386 108.629 135.386H100.371C99.2333 135.386 98.3068 136.313 98.3068 137.451V160.985C98.3068 166.677 93.6768 171.307 87.9848 171.307H64.4508C63.3129 171.307 62.3864 172.233 62.3864 173.371V181.629C62.3864 182.767 63.3129 183.693 64.4508 183.693H87.9848Z" fill="#FEF5F0"></path></svg>