<svg xmlns="http://www.w3.org/2000/svg" width="302" height="375" viewBox="0 0 302 375" fill="none"><path d="M84.3217 66.4452C84.5824 69.7711 81.851 72.4847 78.5149 72.4847V72.4847C75.1787 72.4847 72.5072 69.771 72.1813 66.4508C70.8251 52.632 64.8917 41.444 57.1552 37.6411C54.162 36.1698 51.335 33.541 51.335 30.2058V30.2058C51.335 26.8705 54.0784 24.0921 57.319 24.8812C71.8779 28.4264 82.6267 44.8249 84.3217 66.4452Z" fill="#7B3200"></path><path d="M4.05012e-05 72.4845C4.05012e-05 32.5168 24.3888 0.00390625 54.3607 0.00390625C84.3326 0.00390625 108.721 32.5168 108.721 72.4845C108.721 103.378 94.0125 130.709 72.4814 140.792L72.4783 181.206H78.5172C81.8396 181.206 84.5561 183.922 84.5561 187.245V344.283C84.5561 360.953 71.0276 374.484 54.3549 374.484C37.6854 374.484 24.1536 360.956 24.1536 344.283L24.16 187.245C24.16 183.922 26.8765 181.206 30.1989 181.206H36.2379V140.792C14.706 130.709 0.000439061 103.381 0.000439061 72.4845H4.05012e-05ZM54.3574 353.348C59.3697 353.348 63.4162 349.302 63.4162 344.289C63.4162 339.277 59.37 335.231 54.3574 335.231C49.3451 335.231 45.2987 339.277 45.2987 344.289C45.2987 349.302 49.3448 353.348 54.3574 353.348ZM44.2979 131.059C46.7052 131.916 48.3186 134.196 48.3186 136.756V181.21H60.4V136.756C60.4 134.202 62.0133 131.919 64.4238 131.068C83.3918 124.331 96.6404 100.251 96.6404 72.4891C96.6404 39.1853 77.6756 12.0899 54.3611 12.0899C31.0465 12.0899 12.0818 39.1853 12.0818 72.4891C12.0786 100.251 25.3238 124.331 44.2983 131.058L44.2979 131.059Z" fill="#7B3200"></path><path d="M140.73 113.975C150.883 104.795 161.267 95.2516 162.836 72.4799H157.039C153.717 72.4799 151 69.7633 151 66.4409V30.201C151 26.8786 153.717 24.1621 157.039 24.1621H163.078V18.1199C163.078 8.15271 171.231 0 181.198 0H241.597C251.565 0 259.717 8.15296 259.717 18.1199V24.1589H265.756C269.079 24.1589 271.795 26.8755 271.795 30.1978V66.4377C271.795 69.7601 269.079 72.4767 265.756 72.4767H259.956C261.528 95.2484 271.91 104.792 282.062 113.972C291.851 122.855 302 132.034 302 150.999V344.279C302 358.895 294.086 374.48 271.799 374.48H151.002C128.714 374.48 120.8 358.898 120.8 344.279V150.999C120.8 132.034 130.946 122.855 140.732 113.975L140.73 113.975ZM247.643 18.1225C247.643 14.7937 244.936 12.0835 241.604 12.0835H181.205C177.869 12.0835 175.166 14.7969 175.166 18.1225V24.1614L247.643 24.1646L247.643 18.1225ZM132.886 344.288C132.886 352.556 136.033 362.408 151.006 362.408H271.803C286.776 362.408 289.923 352.549 289.923 344.288V338.249H132.884L132.886 344.288ZM163.084 229.531C159.762 229.531 157.045 232.248 157.045 235.57V271.81C157.045 275.133 159.762 277.849 163.084 277.849H187.243V302.008C187.243 305.331 189.96 308.047 193.282 308.047H229.522C232.845 308.047 235.561 305.331 235.561 302.008V277.849H259.721C263.043 277.849 265.76 275.133 265.76 271.81V235.57C265.76 232.248 263.043 229.531 259.721 229.531H235.561V205.372C235.561 202.05 232.845 199.333 229.522 199.333H193.282C189.96 199.333 187.243 202.05 187.243 205.372V229.531H163.084ZM132.886 163.09H289.925V151.009C289.925 137.4 283.232 131.323 273.959 122.922C262.991 112.973 249.504 100.736 247.817 72.4864H174.98C173.293 100.736 159.806 112.967 148.838 122.922C139.579 131.327 132.886 137.404 132.886 151.009V163.09Z" fill="#7B3200"></path></svg>