<svg xmlns="http://www.w3.org/2000/svg" width="27" height="31" viewBox="0 0 27 31" fill="none"><path d="M18.1212 19.354L20.9494 16.0255C22.5104 14.1828 23.3637 11.8781 23.3654 9.5C23.3654 6.98044 22.326 4.56408 20.4759 2.78249C18.6258 1.00089 16.1165 0 13.5 0C10.8835 0 8.37424 1.00089 6.52412 2.78249C4.674 4.56408 3.63462 6.98044 3.63462 9.5C3.63698 11.8784 4.49122 14.1832 6.05319 16.0255L8.88144 19.354C3.53077 20.1965 0 22.4135 0 25C0 28.3645 5.93013 31 13.5 31C21.0699 31 27 28.3645 27 25C27 22.4135 23.4692 20.1965 18.1212 19.354ZM4.67308 9.5C4.67308 7.24566 5.60305 5.08365 7.25842 3.48959C8.91379 1.89553 11.159 1 13.5 1C15.841 1 18.0862 1.89553 19.7416 3.48959C21.3969 5.08365 22.3269 7.24566 22.3269 9.5C22.3247 11.6477 21.5532 13.7289 20.1425 15.3925L13.5 23.2105L6.85748 15.3925C5.44682 13.7289 4.67529 11.6477 4.67308 9.5V9.5ZM13.0981 24.3165C13.1468 24.3738 13.2081 24.42 13.2776 24.4517C13.3471 24.4835 13.4231 24.4999 13.5 24.4999C13.5769 24.4999 13.6529 24.4835 13.7224 24.4517C13.7919 24.42 13.8532 24.3738 13.9019 24.3165L15.7192 22.176C18.361 22.6 20.25 23.767 20.25 25C20.25 26.45 17.5375 28 13.5 28C9.46246 28 6.75 26.45 6.75 25C6.75 23.767 8.63896 22.6 11.2793 22.176L13.0981 24.3165ZM13.5 30C6.74481 30 1.03846 27.7105 1.03846 25C1.03846 22.903 4.64348 20.9285 9.64679 20.255L10.5295 21.2955C7.61556 21.8955 5.71154 23.3275 5.71154 25C5.71154 27.243 9.13275 29 13.5 29C17.8673 29 21.2885 27.243 21.2885 25C21.2885 23.3275 19.3844 21.8955 16.469 21.2955L17.3517 20.255C22.3565 20.9285 25.9615 22.903 25.9615 25C25.9615 27.7105 20.2552 30 13.5 30Z" fill="white"></path><path d="M19.0472 9.04563V6.73569C19.0472 6.58253 18.984 6.43564 18.8716 6.32734C18.7591 6.21905 18.6066 6.1582 18.4475 6.1582C17.455 6.15946 16.482 6.42426 15.6356 6.92349C14.7892 7.42271 14.1021 8.13702 13.65 8.98788C13.1978 8.13702 12.5107 7.42271 11.6643 6.92349C10.8179 6.42426 9.84494 6.15946 8.85238 6.1582C8.69333 6.1582 8.5408 6.21905 8.42833 6.32734C8.31587 6.43564 8.25269 6.58253 8.25269 6.73569V9.04563C8.25269 10.4241 8.82133 11.746 9.83351 12.7207C10.8457 13.6954 12.2185 14.243 13.65 14.243C15.0814 14.243 16.4542 13.6954 17.4664 12.7207C18.4786 11.746 19.0472 10.4241 19.0472 9.04563ZM17.8478 7.35417V9.04563C17.8466 10.0174 17.4824 10.9563 16.8218 11.6909C16.1612 12.4256 15.2482 12.9069 14.2496 13.047V11.3556C14.2509 10.3838 14.6151 9.44488 15.2757 8.71025C15.9363 7.97563 16.8492 7.49431 17.8478 7.35417ZM9.45208 9.04563V7.35417C10.4507 7.49431 11.3636 7.97563 12.0242 8.71025C12.6848 9.44488 13.049 10.3838 13.0503 11.3556V13.047C12.0517 12.9069 11.1387 12.4256 10.4781 11.6909C9.81751 10.9563 9.45333 10.0174 9.45208 9.04563V9.04563Z" fill="white"></path></svg>