<svg xmlns="http://www.w3.org/2000/svg" width="28" height="28" viewBox="0 0 28 28" fill="none"><path d="M13.9254 10.9173C19.5064 10.9173 24.0484 6.64015 24.0484 1.38086C24.0484 1.16141 23.8598 0.985 23.629 0.985C19.0504 0.985 15.1713 3.86371 13.9254 7.80172C12.6795 3.86371 8.80037 0.985 4.2217 0.985C3.99093 0.985 3.80238 1.16141 3.80238 1.38086C3.80238 6.64015 8.34437 10.9173 13.9254 10.9173ZM20.7885 2.1959C21.5541 1.96355 22.3626 1.82207 23.1999 1.78593C23.0352 5.16815 20.8203 8.05564 17.7007 9.36892C18.0618 9.04164 18.4028 8.66562 18.7185 8.24256C19.9187 6.63436 20.6486 4.49605 20.7885 2.1959ZM14.3553 10.1032C14.5263 6.7011 16.7719 3.8013 19.9248 2.50386C19.7448 4.5228 19.0825 6.38014 18.0329 7.78652C17.0129 9.15326 15.7203 9.96246 14.3553 10.1032ZM13.4954 10.103C12.13 9.96145 10.8375 9.15224 9.81781 7.78607C8.76828 6.37993 8.10596 4.52275 7.92599 2.50386C11.0788 3.80129 13.3243 6.70094 13.4954 10.103ZM9.13224 8.24215C9.44833 8.66561 9.78968 9.04197 10.1513 9.36947C7.0311 8.05642 4.81554 5.16864 4.65084 1.78593C5.48813 1.82207 6.29659 1.96355 7.06223 2.19589C7.20207 4.49605 7.93208 6.63421 9.13224 8.24215Z" fill="white" stroke="#EA5B0B" stroke-width="0.03"></path><path d="M13.9258 15.907L16.8137 11.8265L16.8137 11.8265L16.8239 11.8337L13.9258 15.907ZM13.9258 15.907L11.0378 11.8265L11.0276 11.8337L11.0378 11.8264C10.9604 11.7171 10.8303 11.6516 10.6912 11.6516H0.529308C0.375964 11.6516 0.23464 11.731 0.161993 11.859C0.0891723 11.9871 0.0972332 12.1426 0.182711 12.2634L3.34704 16.7345V26.6191C3.34704 26.8371 3.53433 27.0125 3.76386 27.0125H24.0877C24.3172 27.0125 24.5045 26.8371 24.5045 26.6191V16.7345L13.9258 15.907ZM13.5089 23.5723V26.2258H4.18068V17.0086H13.5089V23.5723ZM14.3426 23.5723V17.0086H23.6708V26.2258H14.3426V23.5723ZM3.98672 16.2219L1.30895 12.4383H10.4684L13.1462 16.2219H3.98672ZM17.3832 12.4383H26.5426L23.8648 16.2219H14.7054L17.3832 12.4383Z" fill="white" stroke="#EA5B0B" stroke-width="0.025"></path></svg>