<svg xmlns="http://www.w3.org/2000/svg" width="40" height="40" viewBox="0 0 40 40" fill="none"><g clip-path="url(#clip0_1_19)"><path d="M20 40C31.0457 40 40 31.0457 40 20C40 8.9543 31.0457 0 20 0C8.9543 0 0 8.9543 0 20C0 31.0457 8.9543 40 20 40Z" fill="#EA5B0B"></path><g clip-path="url(#clip1_1_19)"><path d="M11.6165 17.9095V17.9595H11.6665H12.4998H12.5498V17.9095V14.5741C12.5498 14.3715 12.714 14.2072 12.9165 14.2072H22.9165H22.9665V14.1572V13.3234V13.2734H22.9165H12.9165C12.1985 13.2734 11.6165 13.8558 11.6165 14.5741V17.9095Z" fill="white" stroke="white" stroke-width="0.1"></path><path d="M12.5498 21.2448V21.1948H12.4998H11.6665H11.6165V21.2448V25.414C11.6165 26.1323 12.1985 26.7147 12.9165 26.7147H17.0832H17.1332V26.6647V25.8309V25.7809H17.0832H12.9165C12.714 25.7809 12.5498 25.6166 12.5498 25.414V21.2448Z" fill="white" stroke="white" stroke-width="0.1"></path><path d="M20.2058 29.9133C20.2933 30.0009 20.412 30.0501 20.5358 30.0501C20.6596 30.0501 20.7782 30.0009 20.8657 29.9133L23.2465 27.5311L23.2112 27.4957L23.2466 27.5311C23.4288 27.3487 23.4288 27.0532 23.2466 26.8708L23.2133 26.9041L23.2466 26.8708L13.1274 16.7455C12.9451 16.5632 12.6497 16.5632 12.4675 16.7455V16.7455L10.0866 19.1278H10.0866C9.90446 19.3102 9.90446 19.6057 10.0866 19.7881H10.0866L20.2058 29.9133ZM20.2058 29.9133L20.2412 29.878L20.2058 29.9133ZM20.5358 28.923L11.0764 19.4579L12.7974 17.7359L22.2568 27.201L20.5358 28.923Z" fill="white" stroke="white" stroke-width="0.1"></path><path d="M22.0834 25.7808H22.0334V25.8308V26.6646V26.7146H22.0834H26.6167V28.7492C26.6167 29.0071 26.8256 29.2161 27.0834 29.2161H28.3334C29.2815 29.2161 30.0501 28.4471 30.0501 27.4985C30.0501 26.5498 29.2815 25.7808 28.3334 25.7808H22.0834ZM28.3334 28.2823H27.5501V26.7146H28.3334C28.766 26.7146 29.1167 27.0655 29.1167 27.4985C29.1167 27.9314 28.766 28.2823 28.3334 28.2823Z" fill="white" stroke="white" stroke-width="0.1"></path><path d="M26.25 13.2734H26.2V13.3234V14.1572V14.2072H26.25H28.3333C28.7659 14.2072 29.1167 14.5581 29.1167 14.991V27.4986V27.5486H29.1667H30H30.05V27.4986V14.991C30.05 14.0424 29.2814 13.2734 28.3333 13.2734H26.25Z" fill="white" stroke="white" stroke-width="0.1"></path><path d="M16.3367 22.9992L16.3014 23.0345L16.3367 23.0699L16.926 23.6595L16.9613 23.6949L16.9967 23.6595L18.2468 22.4086L18.2821 22.3733L18.2468 22.3379L17.6575 21.7483L17.6222 21.713L17.5868 21.7483L16.3367 22.9992Z" fill="white" stroke="white" stroke-width="0.1"></path><path d="M14.6701 21.3316L14.6348 21.3669L14.6701 21.4023L15.2593 21.9919L15.2947 22.0273L15.33 21.9919L16.5801 20.741L16.6155 20.7057L16.5801 20.6703L15.9909 20.0807L15.9555 20.0454L15.9202 20.0807L14.6701 21.3316Z" fill="white" stroke="white" stroke-width="0.1"></path><path d="M18.0025 24.667L17.9671 24.7024L18.0025 24.7378L18.5917 25.3274L18.6271 25.3627L18.6624 25.3274L19.9125 24.0765L19.9479 24.0411L19.9125 24.0058L19.3233 23.4162L19.2879 23.3808L19.2526 23.4162L18.0025 24.667Z" fill="white" stroke="white" stroke-width="0.1"></path><path d="M19.67 26.3355L19.6346 26.3708L19.67 26.4062L20.2592 26.9958L20.2946 27.0312L20.3299 26.9958L21.58 25.745L21.6154 25.7096L21.58 25.6742L20.9908 25.0846L20.9554 25.0493L20.9201 25.0846L19.67 26.3355Z" fill="white" stroke="white" stroke-width="0.1"></path><path d="M13.0023 19.6639L12.9669 19.6992L13.0023 19.7346L13.5915 20.3242L13.6268 20.3595L13.6622 20.3242L14.9123 19.0733L14.9476 19.038L14.9123 19.0026L14.3231 18.413L14.2877 18.3776L14.2524 18.413L13.0023 19.6639Z" fill="white" stroke="white" stroke-width="0.1"></path><path d="M27.432 10.3137V10.3137L28.0078 10.8899C28.0078 10.8899 28.0078 10.8899 28.0078 10.8899C28.5082 11.3902 28.5084 12.2016 28.0084 12.7023V12.7023L28.0081 12.7026L28.0078 12.7029L21.6719 19.0426C21.5845 19.1301 21.4659 19.1793 21.3422 19.1794C21.3421 19.1794 21.3421 19.1794 21.342 19.1794V19.1294C21.2315 19.1297 21.1254 19.0857 21.0474 19.0072L19.3195 17.2782C19.1568 17.1154 19.1568 16.8515 19.3195 16.6887L27.432 10.3137ZM27.432 10.3137L27.4311 10.3129C26.9246 9.82903 26.1274 9.82903 25.6208 10.3129V10.3129L25.62 10.3137L19.2841 16.6534V16.6534C19.102 16.8357 19.102 17.1312 19.2841 17.3136V17.3136L21.012 19.0424L27.432 10.3137ZM27.3839 11.5145L27.3485 11.5498C27.4843 11.6858 27.4843 11.9063 27.3484 12.0422L27.3483 12.0422L21.342 18.0522L20.2739 16.9835L26.2799 10.9743C26.4178 10.8428 26.6346 10.8428 26.7725 10.9743C26.7727 10.9744 26.7728 10.9746 26.7729 10.9747L27.3475 11.5488C27.3492 11.5507 27.3506 11.5518 27.3512 11.5524M27.3839 11.5145L27.3485 11.5499L27.3512 11.5524M27.3839 11.5145C27.5392 11.67 27.5391 11.9221 27.3837 12.0776L26.245 10.9385C26.4023 10.7881 26.6501 10.7881 26.8075 10.9385L27.3837 11.5143L27.3839 11.5145ZM27.3512 11.5524L27.3517 11.5527L27.3513 11.5524L27.3512 11.5524Z" fill="white"></path><path d="M27.3839 11.5145L27.3485 11.5498C27.4843 11.6858 27.4843 11.9063 27.3484 12.0422L27.3483 12.0422L21.342 18.0522L20.2739 16.9835L26.2799 10.9743C26.4178 10.8428 26.6346 10.8428 26.7725 10.9743C26.7727 10.9744 26.7728 10.9746 26.7729 10.9747L27.3475 11.5488C27.3492 11.5507 27.3506 11.5518 27.3512 11.5524M27.3839 11.5145L27.3485 11.5499L27.3512 11.5524M27.432 10.3137V10.3137L28.0078 10.8899C28.0078 10.8899 28.0078 10.8899 28.0078 10.8899C28.5082 11.3902 28.5084 12.2016 28.0084 12.7023V12.7023L28.0081 12.7026L28.0078 12.7029L21.6719 19.0426C21.5845 19.1301 21.4659 19.1793 21.3422 19.1794C21.3421 19.1794 21.3421 19.1794 21.342 19.1794V19.1294C21.2315 19.1297 21.1254 19.0857 21.0474 19.0072L19.3195 17.2782C19.1568 17.1154 19.1568 16.8515 19.3195 16.6887L27.432 10.3137ZM27.432 10.3137L27.4311 10.3129C26.9246 9.82903 26.1274 9.82903 25.6208 10.3129V10.3129L25.62 10.3137L19.2841 16.6534V16.6534C19.102 16.8357 19.102 17.1312 19.2841 17.3136V17.3136L21.012 19.0424L27.432 10.3137ZM27.3839 11.5145C27.5392 11.67 27.5391 11.9221 27.3837 12.0776L26.245 10.9385C26.4023 10.7881 26.6501 10.7881 26.8075 10.9385L27.3837 11.5143L27.3839 11.5145ZM27.3512 11.5524L27.3517 11.5527L27.3513 11.5524L27.3512 11.5524Z" stroke="white" stroke-width="0.1"></path><path d="M21.2399 18.2539L21.2557 18.3013L21.5194 19.0935L21.5352 19.1409L21.4878 19.1567L18.8957 20.0214L18.8951 20.0216L21.2399 18.2539ZM21.2399 18.2539L21.1924 18.2697ZM21.2399 18.2539L21.1924 18.2697ZM21.1924 18.2697L19.489 18.8388L20.0578 17.1314L20.0736 17.084L20.0262 17.0682L19.2345 16.8042L19.1871 16.7884L19.1712 16.8359L18.3071 19.4295H18.3071C18.2912 19.4771 18.2831 19.527 18.2831 19.5772C18.2832 19.835 18.4921 20.044 18.7498 20.044L21.1924 18.2697Z" fill="white"></path><path d="M21.2399 18.2539L21.1924 18.2697M21.2399 18.2539L21.1924 18.2697M21.2399 18.2539L21.2557 18.3013L21.5194 19.0935L21.5352 19.1409L21.4878 19.1567L18.8957 20.0214L18.8951 20.0216L21.2399 18.2539ZM21.1924 18.2697L19.489 18.8388L20.0578 17.1314L20.0736 17.084L20.0262 17.0682L19.2345 16.8042L19.1871 16.7884L19.1712 16.8359L18.3071 19.4295H18.3071C18.2912 19.4771 18.2831 19.527 18.2831 19.5772C18.2832 19.835 18.4921 20.044 18.7498 20.044L21.1924 18.2697Z" stroke="white" stroke-width="0.1"></path><path d="M24.4677 12.0556L24.4324 12.0909L24.4677 12.1263L26.1957 13.8553L26.231 13.8907L26.2664 13.8553L26.8556 13.2657L26.891 13.2304L26.8556 13.195L25.1276 11.466L25.0923 11.4306L25.057 11.466L24.4677 12.0556Z" fill="white" stroke="white" stroke-width="0.1"></path><path d="M18.75 19.1102H18.7V19.1602V19.994V20.044H18.75H25H25.05V19.994V19.1602V19.1102H25H18.75Z" fill="white" stroke="white" stroke-width="0.1"></path><path d="M25.8334 19.1102H25.7834V19.1602V19.994V20.044H25.8334H26.6667H26.7167V19.994V19.1602V19.1102H26.6667H25.8334Z" fill="white" stroke="white" stroke-width="0.1"></path><path d="M27.5 19.1102H27.45V19.1602V19.994V20.044H27.5H28.3333H28.3833V19.994V19.1602V19.1102H28.3333H27.5Z" fill="white" stroke="white" stroke-width="0.1"></path></g></g><defs><clipPath id="clip0_1_19"><rect width="40" height="40" fill="white"></rect></clipPath><clipPath id="clip1_1_19"><rect width="22" height="22" fill="white" transform="translate(9 9)"></rect></clipPath></defs></svg>