<svg xmlns="http://www.w3.org/2000/svg" width="40" height="40" viewBox="0 0 40 40" fill="none"><g clip-path="url(#clip0_1_6)"><path d="M20 40C31.0457 40 40 31.0457 40 20C40 8.9543 31.0457 0 20 0C8.9543 0 0 8.9543 0 20C0 31.0457 8.9543 40 20 40Z" fill="#EA5B0B"></path><g clip-path="url(#clip1_1_6)"><path d="M32.2479 24.0568H30.3617V18.1514C30.3617 17.8247 30.0962 17.5592 29.7695 17.5592H21.4515V16.5865C21.4515 16.3371 21.2494 16.135 21 16.135C20.7505 16.135 20.5484 16.3371 20.5484 16.5865V17.5592H14.1785V12.8031H15.8887V14.0535C15.8887 14.3801 16.1543 14.6457 16.4809 14.6457H18.246C18.5726 14.6457 18.8381 14.3801 18.8381 14.0535V12.8031H20.5484V14.9459C20.5484 15.1953 20.7505 15.3975 21 15.3975C21.2494 15.3975 21.4515 15.1953 21.4515 14.9459V12.4922C21.4515 12.1656 21.186 11.9 20.8593 11.9H13.8676C13.5409 11.9 13.2754 12.1656 13.2754 12.4922V17.5592H12.2304C11.9038 17.5592 11.6382 17.8247 11.6382 18.1514V24.0568H9.75207C9.42543 24.0568 9.15988 24.3224 9.15988 24.649V26.1256C9.15988 26.4522 9.42543 26.7178 9.75207 26.7178H32.2479C32.5745 26.7178 32.84 26.4522 32.84 26.1256V24.649C32.84 24.3224 32.5745 24.0568 32.2479 24.0568ZM16.7919 12.8032H17.935V13.7426H16.7919V12.8032ZM25.7021 18.4623H26.8452V19.4017H25.7021V18.4623ZM16.6748 18.4623H18.0521V19.4017H16.6748V18.4623ZM12.5413 18.4623H15.7716V19.7127C15.7716 20.0393 16.0372 20.3049 16.3638 20.3049H18.3631C18.6897 20.3049 18.9552 20.0393 18.9552 19.7127V18.4623H22.1856V24.0568H12.5413V18.4623ZM10.063 25.8147V24.96H26.8593C27.1088 24.96 27.3109 24.7578 27.3109 24.5084C27.3109 24.259 27.1088 24.0568 26.8593 24.0568H23.0887V18.4623H24.7989V19.7127C24.7989 20.0393 25.0645 20.3049 25.3911 20.3049H27.1562C27.4828 20.3049 27.7483 20.0393 27.7483 19.7127V18.4623H29.4586V24.0568H28.5C28.2505 24.0568 28.0484 24.259 28.0484 24.5084C28.0484 24.7578 28.2505 24.96 28.5 24.96H31.9369V25.8147H10.063Z" fill="white" stroke="white" stroke-width="0.2"></path></g></g><defs><clipPath id="clip0_1_6"><rect width="40" height="40" fill="white"></rect></clipPath><clipPath id="clip1_1_6"><rect width="24" height="16" fill="white" transform="translate(9 11)"></rect></clipPath></defs></svg>