<svg xmlns="http://www.w3.org/2000/svg" width="30" height="31" viewBox="0 0 30 31" fill="none"><path d="M15.0006 30.0026C11.3046 30.0026 7.60866 30.0026 3.91461 30.0026C3.35698 30.0026 2.90974 29.8103 2.63949 29.2965C2.53101 29.0909 2.50626 28.8663 2.50626 28.6398C2.50817 27.7605 2.48914 26.8793 2.52339 26.0001C2.57668 24.6602 3.11528 23.5278 4.0897 22.6028C4.90045 21.832 5.87107 21.4057 6.97681 21.2686C7.08909 21.2553 7.20328 21.2515 7.31557 21.2515C7.4526 21.2515 7.50589 21.2039 7.50398 21.0536C7.49447 20.2999 7.50018 19.5443 7.50018 18.7906C7.50018 17.6087 7.50398 16.4268 7.49827 15.2449C7.49256 13.9964 7.72665 12.8031 8.28428 11.6782C8.81907 10.5991 9.57463 9.7065 10.5357 8.98899C11.5863 8.20105 12.7643 7.71953 14.0718 7.56917C16.3613 7.30843 18.3654 7.94602 20.0725 9.49525C21.2981 10.6086 22.048 11.9942 22.3696 13.6138C22.4667 14.1068 22.5028 14.6092 22.5048 15.1117C22.5086 17.0796 22.5086 19.0456 22.5009 21.0136C22.5009 21.1944 22.5485 21.2496 22.7255 21.2572C23.7989 21.301 24.7638 21.6588 25.6012 22.3306C26.646 23.17 27.2836 24.2567 27.4416 25.5871C27.571 26.6814 27.5063 27.7834 27.4796 28.8816C27.4663 29.424 26.9696 29.9074 26.4291 29.974C26.2597 29.9949 26.0922 30.0026 25.9228 30.0026C22.2783 30.0026 18.6394 30.0026 15.0006 30.0026ZM19.9869 17.8542C19.9869 16.9426 19.985 16.0309 19.9869 15.1212C19.9869 14.7367 19.9659 14.3542 19.8822 13.9793C19.6443 12.9001 19.1285 11.9751 18.2873 11.25C17.0408 10.1804 15.5943 9.80357 13.9881 10.1157C12.9109 10.3251 11.9974 10.858 11.2684 11.6878C10.5129 12.5461 10.0523 13.5472 10.0314 14.6892C9.99142 16.8189 10.0162 18.9486 10.0105 21.0802C10.0105 21.1906 10.0371 21.2325 10.157 21.2325C11.3065 21.2287 12.456 21.2287 13.6074 21.2325C13.7407 21.2325 13.7597 21.1811 13.7578 21.0669C13.7521 20.7529 13.7559 20.4388 13.7559 20.1248C13.7559 18.4024 13.754 16.6818 13.7578 14.9594C13.7597 14.3047 14.3059 13.7756 14.9549 13.7509C15.6762 13.7223 16.2567 14.3314 16.2509 15.0394C16.2338 17.0377 16.2471 19.0361 16.2414 21.0345C16.2414 21.1868 16.2719 21.2363 16.4336 21.2344C17.5527 21.2268 18.6699 21.2268 19.7889 21.2344C19.9659 21.2363 19.9907 21.1754 19.9907 21.0193C19.985 19.9668 19.9869 18.9105 19.9869 17.8542ZM14.9777 27.4865C16.7248 27.4865 18.4719 27.4865 20.2171 27.4865C21.7511 27.4865 23.2831 27.4846 24.8171 27.4884C24.9503 27.4884 25.0036 27.4656 24.9979 27.3171C24.9865 26.9726 24.9941 26.6262 24.9941 26.2798C24.9941 25.9163 24.9275 25.5642 24.7733 25.2388C24.3013 24.2434 23.4944 23.7504 22.402 23.7485C17.5451 23.7428 12.6882 23.7466 7.83133 23.7466C7.70001 23.7466 7.56679 23.7447 7.43547 23.7485C6.22315 23.7847 5.19925 24.7021 5.03748 25.8973C4.97658 26.3484 5.02796 26.8013 5.00132 27.2524C4.9918 27.437 5.03557 27.4922 5.2316 27.4903C8.48031 27.4846 11.729 27.4865 14.9777 27.4865Z" fill="white"></path><path d="M24.8873 4.01954C25.2908 4.04808 25.6829 4.29741 25.8865 4.77512C26.0863 5.24522 26.0254 5.71151 25.6657 6.08645C25.0377 6.73735 24.3982 7.37874 23.7435 8.003C23.262 8.46167 22.5084 8.42551 22.0421 7.95732C21.5758 7.48913 21.5359 6.73354 21.9926 6.25393C22.6264 5.5897 23.2811 4.94832 23.9396 4.30883C24.1622 4.09186 24.4553 4.01192 24.8873 4.01954Z" fill="white"></path><path d="M16.249 2.50659C16.249 2.92149 16.2529 3.3364 16.249 3.7494C16.2433 4.3984 15.779 4.93511 15.1719 5.00172C14.5038 5.07405 13.9367 4.68198 13.7806 4.03298C13.7597 3.94353 13.754 3.84646 13.754 3.7532C13.7521 2.92339 13.7483 2.09549 13.754 1.26568C13.7578 0.57671 14.2279 0.0780649 14.9244 0.00574214C15.503 -0.0551612 16.0778 0.374972 16.2224 0.984005C16.2471 1.08678 16.249 1.19526 16.249 1.30184C16.2509 1.70342 16.249 2.10501 16.249 2.50659Z" fill="white"></path><path d="M2.50807 13.751C2.92296 13.751 3.33785 13.7472 3.75084 13.751C4.39982 13.7567 4.93652 14.223 5.00122 14.8282C5.07354 15.4962 4.68149 16.0634 4.03251 16.2194C3.94306 16.2404 3.846 16.2461 3.75275 16.2461C2.92296 16.248 2.09509 16.2518 1.2653 16.2461C0.578261 16.2423 0.0777283 15.7703 0.00540792 15.0737C-0.0535903 14.4951 0.376525 13.9184 0.983636 13.7757C1.23676 13.7167 1.49559 13.7548 1.75252 13.7491C2.00564 13.7472 2.25686 13.751 2.50807 13.751Z" fill="white"></path><path d="M27.4796 16.2479C27.0723 16.2479 26.6631 16.2517 26.2559 16.2479C25.605 16.2421 25.0702 15.7854 24.9979 15.1763C24.9198 14.514 25.3119 13.9411 25.9609 13.7794C26.0503 13.7565 26.1474 13.7508 26.2406 13.7508C27.0761 13.7489 27.9116 13.7451 28.7471 13.7508C29.4246 13.7565 29.9176 14.2247 29.9937 14.9156C30.0584 15.5018 29.6207 16.0861 29.004 16.2231C28.7757 16.2745 28.5416 16.244 28.3094 16.246C28.0334 16.2517 27.7575 16.2479 27.4796 16.2479Z" fill="white"></path><path d="M4.06098 5.17676C4.08382 4.81134 4.28555 4.41927 4.73851 4.1966C5.17814 3.98153 5.61206 4.01008 6.02124 4.28795C6.09927 4.34124 6.17159 4.40215 6.2363 4.46876C6.7806 5.00928 7.32301 5.5498 7.86351 6.09031C8.24795 6.47477 8.38688 6.92964 8.19846 7.44922C8.02337 7.93645 7.65035 8.19909 7.14411 8.26951C6.74825 8.3228 6.4152 8.16864 6.13924 7.89838C5.56067 7.33312 4.98782 6.75835 4.41877 6.18167C4.18088 5.94377 4.05527 5.64877 4.06098 5.17676Z" fill="white"></path></svg>