<svg xmlns="http://www.w3.org/2000/svg" width="40" height="40" viewBox="0 0 40 40" fill="none"><g clip-path="url(#clip0_1_17)"><path d="M20 40C31.0457 40 40 31.0457 40 20C40 8.9543 31.0457 0 20 0C8.9543 0 0 8.9543 0 20C0 31.0457 8.9543 40 20 40Z" fill="#EA5B0B"></path><path d="M16.9981 16.0742L15.9221 17.1502L15.5885 16.8167C15.5385 16.7662 15.479 16.7262 15.4134 16.6989C15.3479 16.6716 15.2776 16.6575 15.2065 16.6575C15.1355 16.6575 15.0652 16.6716 14.9996 16.6989C14.9341 16.7262 14.8746 16.7662 14.8245 16.8167C14.7243 16.9175 14.6681 17.0538 14.6681 17.196C14.6681 17.3381 14.7243 17.4744 14.8245 17.5752L15.5455 18.2908C15.6463 18.391 15.7826 18.4473 15.9248 18.4473C16.0669 18.4473 16.2033 18.391 16.3041 18.2908L17.7406 16.8597C17.8419 16.7584 17.8988 16.621 17.8988 16.4777C17.8988 16.3344 17.8419 16.197 17.7406 16.0957C17.6393 15.9944 17.5019 15.9375 17.3586 15.9375C17.2153 15.9375 17.0779 15.9944 16.9766 16.0957L16.9981 16.0742Z" fill="white"></path><path d="M16.9981 19.8403L15.9221 20.9163L15.5885 20.5828C15.5385 20.5323 15.479 20.4923 15.4134 20.465C15.3479 20.4377 15.2776 20.4236 15.2065 20.4236C15.1355 20.4236 15.0652 20.4377 14.9996 20.465C14.9341 20.4923 14.8746 20.5323 14.8245 20.5828C14.7243 20.6836 14.6681 20.8199 14.6681 20.9621C14.6681 21.1042 14.7243 21.2406 14.8245 21.3414L15.5455 22.0569C15.6448 22.1583 15.7802 22.2163 15.9221 22.2183C15.9933 22.218 16.0637 22.2036 16.1293 22.1759C16.1948 22.1482 16.2542 22.1078 16.3041 22.0569L17.7406 20.6258C17.8419 20.5245 17.8988 20.3871 17.8988 20.2438C17.8988 20.1006 17.8419 19.9631 17.7406 19.8618C17.6393 19.7605 17.5019 19.7036 17.3586 19.7036C17.2153 19.7036 17.0779 19.7605 16.9766 19.8618L16.9981 19.8403Z" fill="white"></path><path d="M16.9981 23.6062L15.9221 24.6822L15.5885 24.3486C15.5385 24.2982 15.479 24.2582 15.4134 24.2309C15.3479 24.2036 15.2776 24.1895 15.2065 24.1895C15.1355 24.1895 15.0652 24.2036 14.9996 24.2309C14.9341 24.2582 14.8746 24.2982 14.8245 24.3486C14.7243 24.4494 14.6681 24.5858 14.6681 24.7279C14.6681 24.8701 14.7243 25.0064 14.8245 25.1072L15.5455 25.8228C15.6448 25.9242 15.7802 25.9822 15.9221 25.9842C15.9933 25.9839 16.0637 25.9695 16.1293 25.9418C16.1948 25.9141 16.2542 25.8736 16.3041 25.8228L17.7406 24.3917C17.8419 24.2904 17.8988 24.153 17.8988 24.0097C17.8988 23.8664 17.8419 23.729 17.7406 23.6277C17.6393 23.5264 17.5019 23.4695 17.3586 23.4695C17.2153 23.4695 17.0779 23.5264 16.9766 23.6277L16.9981 23.6062Z" fill="white"></path><path d="M31.3254 14.4763C31.2527 14.1654 31.0895 13.883 30.8564 13.6649C30.6233 13.4468 30.3307 13.3027 30.0157 13.2508C29.7007 13.199 29.3773 13.2418 29.0866 13.3737C28.7959 13.5056 28.5508 13.7208 28.3824 13.992L27.0643 16.1172V13.7661C27.0647 13.6953 27.0512 13.6251 27.0244 13.5595C26.9976 13.494 26.9582 13.4344 26.9083 13.3841L23.6802 10.156C23.6299 10.1062 23.5703 10.0667 23.5048 10.0399C23.4392 10.0132 23.369 9.9996 23.2982 10H13.7808C13.3085 10 12.8556 10.1876 12.5216 10.5216C12.1876 10.8556 12 11.3085 12 11.7808V27.5876C12 28.0599 12.1876 28.5129 12.5216 28.8468C12.8556 29.1808 13.3085 29.3684 13.7808 29.3684H25.2835C25.7558 29.3684 26.2088 29.1808 26.5427 28.8468C26.8767 28.5129 27.0643 28.0599 27.0643 27.5876V22.2344L31.1263 15.6922C31.3508 15.3291 31.4224 14.8919 31.3254 14.4763ZM28.1403 16.3862L29.055 16.9565L24.0837 24.9944L23.3467 25.1665L23.1691 24.4241L28.1403 16.3862ZM23.8362 11.8346L25.2297 13.2281H23.8362V11.8346ZM25.9883 27.5876C25.9883 27.6801 25.9701 27.7718 25.9346 27.8573C25.8992 27.9428 25.8473 28.0205 25.7819 28.086C25.7164 28.1514 25.6387 28.2033 25.5532 28.2387C25.4677 28.2742 25.3761 28.2924 25.2835 28.2924H13.7808C13.6883 28.2924 13.5966 28.2742 13.5111 28.2387C13.4256 28.2033 13.3479 28.1514 13.2824 28.086C13.217 28.0205 13.1651 27.9428 13.1297 27.8573C13.0942 27.7718 13.076 27.6801 13.076 27.5876V11.7808C13.076 11.5939 13.1503 11.4146 13.2824 11.2825C13.4146 11.1503 13.5939 11.076 13.7808 11.076H22.7602V13.7661C22.7602 13.9088 22.8169 14.0456 22.9178 14.1465C23.0187 14.2474 23.1555 14.3041 23.2982 14.3041H25.9883V17.8496L22.1415 24.0475C22.0659 24.1675 22.0408 24.3125 22.0716 24.451L22.4213 25.9359C22.4497 26.0563 22.5187 26.1632 22.6167 26.2386C22.7147 26.3141 22.8357 26.3535 22.9593 26.3502C23.0004 26.3554 23.0419 26.3554 23.083 26.3502L24.5626 26.0058C24.6313 25.9894 24.6962 25.9595 24.7534 25.918C24.8107 25.8765 24.8592 25.824 24.8961 25.7637L25.9883 23.9883V27.5876ZM30.2117 15.1273L29.6414 16.0419L28.7321 15.4716L29.2702 14.557C29.3075 14.4968 29.3564 14.4446 29.414 14.4034C29.4715 14.3622 29.5367 14.3327 29.6056 14.3167C29.6746 14.3007 29.7461 14.2985 29.8159 14.3102C29.8857 14.3219 29.9526 14.3472 30.0126 14.3848C30.1324 14.4605 30.2174 14.5803 30.2493 14.7184C30.2913 14.8543 30.2778 15.0013 30.2117 15.1273Z" fill="white"></path><path d="M19.5322 16.9942H23.8362C23.9789 16.9942 24.1158 16.9375 24.2167 16.8367C24.3176 16.7358 24.3743 16.5989 24.3743 16.4562C24.3743 16.3135 24.3176 16.1767 24.2167 16.0758C24.1158 15.9749 23.9789 15.9182 23.8362 15.9182H19.5322C19.3895 15.9182 19.2526 15.9749 19.1517 16.0758C19.0508 16.1767 18.9941 16.3135 18.9941 16.4562C18.9941 16.5989 19.0508 16.7358 19.1517 16.8367C19.2526 16.9375 19.3895 16.9942 19.5322 16.9942Z" fill="white"></path><path d="M19.5322 18.6082H21.6842C21.8269 18.6082 21.9637 18.5516 22.0646 18.4507C22.1655 18.3498 22.2222 18.2129 22.2222 18.0702C22.2222 17.9275 22.1655 17.7907 22.0646 17.6898C21.9637 17.5889 21.8269 17.5322 21.6842 17.5322H19.5322C19.3895 17.5322 19.2526 17.5889 19.1517 17.6898C19.0508 17.7907 18.9941 17.9275 18.9941 18.0702C18.9941 18.2129 19.0508 18.3498 19.1517 18.4507C19.2526 18.5516 19.3895 18.6082 19.5322 18.6082Z" fill="white"></path><path d="M19.5322 20.7601H22.7602C22.9029 20.7601 23.0398 20.7034 23.1407 20.6025C23.2415 20.5016 23.2982 20.3648 23.2982 20.2221C23.2982 20.0794 23.2415 19.9426 23.1407 19.8417C23.0398 19.7408 22.9029 19.6841 22.7602 19.6841H19.5322C19.3895 19.6841 19.2526 19.7408 19.1517 19.8417C19.0508 19.9426 18.9941 20.0794 18.9941 20.2221C18.9941 20.3648 19.0508 20.5016 19.1517 20.6025C19.2526 20.7034 19.3895 20.7601 19.5322 20.7601Z" fill="white"></path><path d="M21.1462 21.2983H19.5322C19.3895 21.2983 19.2526 21.355 19.1517 21.4559C19.0508 21.5568 18.9941 21.6937 18.9941 21.8364C18.9941 21.979 19.0508 22.1159 19.1517 22.2168C19.2526 22.3177 19.3895 22.3744 19.5322 22.3744H21.1462C21.2889 22.3744 21.4257 22.3177 21.5266 22.2168C21.6275 22.1159 21.6842 21.979 21.6842 21.8364C21.6842 21.6937 21.6275 21.5568 21.5266 21.4559C21.4257 21.355 21.2889 21.2983 21.1462 21.2983Z" fill="white"></path><path d="M20.6082 23.4502H19.5322C19.3895 23.4502 19.2526 23.5069 19.1517 23.6078C19.0508 23.7087 18.9941 23.8455 18.9941 23.9882C18.9941 24.1309 19.0508 24.2677 19.1517 24.3686C19.2526 24.4695 19.3895 24.5262 19.5322 24.5262H20.6082C20.7509 24.5262 20.8877 24.4695 20.9886 24.3686C21.0895 24.2677 21.1462 24.1309 21.1462 23.9882C21.1462 23.8455 21.0895 23.7087 20.9886 23.6078C20.8877 23.5069 20.7509 23.4502 20.6082 23.4502Z" fill="white"></path><path d="M20.6082 25.0642H19.5322C19.3895 25.0642 19.2526 25.1209 19.1517 25.2218C19.0508 25.3227 18.9941 25.4595 18.9941 25.6022C18.9941 25.7449 19.0508 25.8818 19.1517 25.9827C19.2526 26.0835 19.3895 26.1402 19.5322 26.1402H20.6082C20.7509 26.1402 20.8877 26.0835 20.9886 25.9827C21.0895 25.8818 21.1462 25.7449 21.1462 25.6022C21.1462 25.4595 21.0895 25.3227 20.9886 25.2218C20.8877 25.1209 20.7509 25.0642 20.6082 25.0642Z" fill="white"></path></g><defs><clipPath id="clip0_1_17"><rect width="40" height="40" fill="white"></rect></clipPath></defs></svg>