<svg xmlns="http://www.w3.org/2000/svg" width="30" height="28" viewBox="0 0 30 28" fill="none"><path d="M14.9846 28C10.8691 28 6.75359 28 2.63809 28C1.27234 28 0.143772 26.9929 0.00563311 25.6484C-0.00218607 25.5763 0.000415233 25.5016 0.000415233 25.4295C0.000415233 20.0077 0.000415233 14.5885 0.000415233 9.16673C0.000415233 7.88662 0.97521 6.78939 2.26016 6.61424C2.37484 6.59879 2.48952 6.59106 2.60681 6.59106C10.8691 6.59106 19.1339 6.59106 27.3962 6.59106C28.689 6.59106 29.8019 7.55951 29.9765 8.82674C29.9922 8.94522 30 9.0637 30 9.18218C30 14.5936 30 20.0051 30 25.4166C30 26.7044 29.0252 27.8017 27.7324 27.9768C27.6021 27.9948 27.4744 28 27.3441 28C23.226 28 19.1053 28 14.9846 28ZM15.008 10.6761C14.2157 10.6761 13.4259 10.6761 12.6336 10.6761C12.3547 10.6761 12.2843 10.7456 12.2843 11.0264C12.2843 12.17 12.2817 13.3135 12.287 14.4571C12.287 14.5885 12.2453 14.6117 12.1254 14.6117C10.9733 14.6065 9.8187 14.6091 8.66667 14.6091C8.36694 14.6091 8.30178 14.6735 8.30178 14.9748C8.30178 16.5254 8.30178 18.0759 8.30178 19.6265C8.30178 19.9072 8.37215 19.9768 8.65103 19.9768C9.80827 19.9768 10.9655 19.9794 12.1228 19.9742C12.2453 19.9742 12.287 20 12.2843 20.1288C12.2791 21.2775 12.2817 22.4262 12.2817 23.5724C12.2817 23.8326 12.3573 23.9098 12.618 23.9098C14.1974 23.9098 15.7743 23.9098 17.3538 23.9098C17.6431 23.9098 17.7135 23.8429 17.7135 23.5544C17.7135 22.4108 17.7161 21.2672 17.7109 20.1236C17.7109 20 17.7447 19.9742 17.8646 19.9742C19.0219 19.9794 20.1791 19.9768 21.3364 19.9768C21.6178 19.9768 21.6934 19.9047 21.6934 19.6316C21.6934 18.0759 21.6934 16.5202 21.696 14.9645C21.696 14.6761 21.6283 14.6091 21.3364 14.6091C20.1791 14.6091 19.0219 14.6065 17.8646 14.6117C17.7421 14.6117 17.7109 14.5808 17.7109 14.4597C17.7161 13.3058 17.7135 12.1545 17.7135 11.0006C17.7135 10.7508 17.6353 10.6735 17.3824 10.6735C16.5927 10.6761 15.8004 10.6761 15.008 10.6761Z" fill="white"></path><path d="M14.995 3.12943C13.134 3.12943 11.2731 3.12943 9.41212 3.12943C8.75791 3.12943 8.33567 3.54669 8.33307 4.19318C8.33307 4.78301 8.33046 5.37283 8.33568 5.96266C8.33568 6.07341 8.30179 6.0966 8.19754 6.0966C7.17322 6.09402 6.15152 6.09144 5.12721 6.0966C5.02295 6.0966 4.99689 6.07084 4.99689 5.96781C5.0021 4.96588 4.99689 3.96395 4.9995 2.96201C5.0021 1.57631 6.08115 0.303928 7.45993 0.0566639C7.66584 0.0206046 7.87173 0 8.08025 0C12.691 0.00257566 17.3017 0 21.9124 0C23.4371 0 24.6986 1.04829 24.9619 2.53703C24.9853 2.66581 25.0009 2.79975 24.9983 2.93368C24.9957 3.94592 24.9957 4.95558 25.001 5.96781C25.001 6.06569 24.9827 6.09917 24.8732 6.09917C23.8463 6.09402 22.8168 6.09402 21.7899 6.09917C21.6804 6.09917 21.6622 6.06569 21.6622 5.96781C21.6674 5.37799 21.6648 4.78816 21.6648 4.19833C21.6648 3.55184 21.2425 3.13201 20.5883 3.13201C18.7248 3.12943 16.8612 3.12943 14.995 3.12943Z" fill="white"></path></svg>