<svg xmlns="http://www.w3.org/2000/svg" width="31" height="31" viewBox="0 0 31 31" fill="none"><path d="M28.1233 3.79498C27.9781 3.72222 27.8084 3.72375 27.6645 3.79925L25.4379 4.96766L23.6953 1.87078C23.0988 0.714061 21.9325 -0.00604172 20.6653 3.81991e-05H12.0544C10.7687 0.00324519 9.57762 0.699696 8.91177 1.83764L7.31025 4.53044C7.16224 4.77925 7.2347 5.1049 7.47299 5.26164L13.1558 9.00313C13.2386 9.05758 13.3346 9.08644 13.4327 9.08651C13.4756 9.08657 13.5183 9.08096 13.5598 9.06994C13.6977 9.03379 13.8151 8.94039 13.8842 8.81178L16.054 4.77257L18.4305 9.42271L16.2669 10.7659C16.0769 10.8838 15.9806 11.1139 16.0277 11.3378C16.0745 11.5617 16.254 11.7298 16.474 11.7558L24.1628 12.6602C24.1822 12.6623 24.2017 12.6634 24.2212 12.6634C24.4192 12.6634 24.5998 12.5463 24.6862 12.3619L28.3629 4.50906C28.4873 4.24335 28.3801 3.92366 28.1233 3.79498ZM13.2472 7.79616L8.45663 4.64262L9.79467 2.39345C10.2726 1.57387 11.1292 1.07177 12.0544 1.06897H14.1518L15.432 3.7281L13.2472 7.79616ZM23.9159 11.5553L18.105 10.8717L19.3815 10.079C19.6165 9.93282 19.7002 9.62221 19.5722 9.37133L15.3292 1.06897H20.6653C21.5626 1.06763 22.3862 1.58262 22.8021 2.40521L24.79 5.93985C24.928 6.18412 25.226 6.27478 25.4699 6.1467L26.7645 5.46789L23.9159 11.5553Z" fill="white"></path><path d="M30.5478 14.9674L28.8781 11.5167C28.7506 11.2526 28.4403 11.1455 28.185 11.2774C28.1748 11.2827 28.1647 11.2883 28.1548 11.2944L21.9554 15.0358C21.7125 15.1824 21.6275 15.5031 21.7642 15.7574L23.9196 19.7758H19.115V17.6378C19.1152 17.3426 18.8839 17.1032 18.5986 17.1031C18.453 17.103 18.3141 17.1666 18.2161 17.2781L13.0499 23.1575C12.8816 23.3492 12.8703 23.6382 13.0231 23.8433L18.1892 30.7918C18.3634 31.0256 18.6878 31.069 18.9138 30.8888C19.0406 30.7876 19.115 30.6314 19.115 30.4657V28.8622H22.7313C24.0052 28.8947 25.1838 28.1669 25.7608 26.9915L29.3771 20.5807L30.4517 18.7848C31.1467 17.6234 31.1835 16.1647 30.5478 14.9674ZM24.8624 26.4656C24.4643 27.3014 23.6316 27.8202 22.7313 27.7932H18.5984C18.3131 27.7932 18.0818 28.0326 18.0818 28.3277V28.8943L14.1038 23.5461L18.0818 19.02V20.3103C18.0818 20.6055 18.3131 20.8448 18.5984 20.8448H28.0313L24.8624 26.4656ZM29.5708 18.2247L28.6409 19.7747H25.1016L22.9122 15.6981L28.1987 12.5066L29.6323 15.4677C30.0951 16.3306 30.0716 17.3848 29.5708 18.2247Z" fill="white"></path><path d="M12.3519 15.8111L9.25215 8.86261C9.16303 8.66177 8.96368 8.53831 8.75051 8.55207L0.48463 9.08657C0.199845 9.10487 -0.0166825 9.35849 0.00101165 9.65313C0.0114086 9.82604 0.102075 9.98305 0.244403 10.0743L0.24492 10.0754L2.79908 11.7142L1.09424 15.2461C0.4763 16.4077 0.479852 17.8165 1.10354 18.9748L3.97852 24.1113L5.55058 26.9286C6.22574 28.1152 7.45225 28.8492 8.78306 28.863H10.8495C11.1348 28.863 11.3661 28.6237 11.3661 28.3285V20.8455C11.3661 20.5504 11.1348 20.311 10.8495 20.311H6.98988L9.56677 15.6849L11.6973 16.5337C11.9636 16.6396 12.2625 16.5021 12.3649 16.2266C12.4149 16.092 12.4102 15.9421 12.3519 15.8111ZM10.3329 21.38V27.794H8.78306C7.82034 27.7844 6.93286 27.2536 6.44433 26.3952L5.02622 23.8531L6.48928 21.38H10.3329ZM9.52544 14.5229C9.28805 14.4286 9.01961 14.527 8.89258 14.7549L4.42384 22.7767L1.9978 18.4403C1.55183 17.5972 1.55848 16.5757 2.01537 15.7389L3.93667 11.7548C4.05698 11.5072 3.97445 11.2055 3.74655 11.0599L2.16622 10.0487L8.46224 9.64298L10.88 15.0628L9.52544 14.5229Z" fill="white"></path></svg>