<svg xmlns="http://www.w3.org/2000/svg" width="1072" height="1074" viewBox="0 0 1072 1074" fill="none"><path d="M671.255 537.89C671.255 617.829 606.588 682.63 526.822 682.63C447.057 682.63 382.39 617.829 382.39 537.89C382.39 457.95 447.057 393.15 526.822 393.15C606.588 393.15 671.255 457.95 671.255 537.89Z" stroke="#FF823D" stroke-opacity="0.05" stroke-width="2"></path><path d="M778.748 537.89C778.748 677.322 665.955 790.351 526.822 790.351C387.69 790.351 274.897 677.322 274.897 537.89C274.897 398.458 387.69 285.429 526.822 285.429C665.955 285.429 778.748 398.458 778.748 537.89Z" stroke="#FF823D" stroke-opacity="0.05" stroke-width="2"></path><path d="M869.801 537.256C869.801 727.432 715.959 881.597 526.19 881.597C336.421 881.597 182.579 727.432 182.579 537.256C182.579 347.08 336.421 192.916 526.19 192.916C715.959 192.916 869.801 347.08 869.801 537.256Z" stroke="#FF823D" stroke-opacity="0.05" stroke-width="2"></path><path d="M966.313 541.987C966.313 785.288 769.496 982.518 526.714 982.518C283.933 982.518 87.1155 785.288 87.1155 541.987C87.1155 298.686 283.933 101.456 526.714 101.456C769.496 101.456 966.313 298.686 966.313 541.987Z" stroke="#FF823D" stroke-opacity="0.05" stroke-width="2"></path><path d="M1070.17 537.256C1070.17 833.101 830.846 1072.93 535.631 1072.93C240.416 1072.93 1.09393 833.101 1.09393 537.256C1.09393 241.412 240.416 1.58594 535.631 1.58594C830.846 1.58594 1070.17 241.412 1070.17 537.256Z" stroke="#FF823D" stroke-opacity="0.05" stroke-width="2"></path></svg>