<svg xmlns="http://www.w3.org/2000/svg" width="40" height="40" viewBox="0 0 40 40" fill="none"><g clip-path="url(#clip0_1_18)"><path d="M20 40C31.0457 40 40 31.0457 40 20C40 8.9543 31.0457 0 20 0C8.9543 0 0 8.9543 0 20C0 31.0457 8.9543 40 20 40Z" fill="#EA5B0B"></path><path d="M17.3001 14.4906C17.2108 14.2643 16.9549 14.1531 16.7285 14.2425L17.0336 15.0158C17.2343 14.9365 17.3327 14.7097 17.2536 14.509C17.1744 14.3083 16.9476 14.2097 16.7468 14.289C15.6138 14.7362 14.6468 15.5037 13.9504 16.5085L13.9093 16.4801C13.1904 17.5173 12.8105 18.7351 12.8105 20.0015C12.8105 20.2449 13.0078 20.4421 13.2511 20.4421C13.4944 20.4421 13.6917 20.2448 13.6917 20.0015C13.6917 17.8065 15.0105 15.8679 17.0519 15.0623C17.2783 14.9729 17.3894 14.717 17.3001 14.4906Z" fill="white" stroke="white" stroke-width="0.1"></path><path d="M21.5732 19.5644C21.3299 19.5644 21.1326 19.7617 21.1326 20.005C21.1326 21.1836 20.1737 22.1425 18.9951 22.1425C17.8166 22.1425 16.8577 21.1836 16.8577 20.005C16.8577 18.8265 17.8166 17.8676 18.9951 17.8676C19.2385 17.8676 19.4357 17.6703 19.4357 17.427C19.4357 17.1836 19.2384 16.9864 18.9951 16.9864C17.3306 16.9864 15.9765 18.3405 15.9765 20.005C15.9765 21.6696 17.3306 23.0237 18.9951 23.0237C20.6597 23.0237 22.0138 21.6696 22.0138 20.005C22.0138 19.7617 21.8165 19.5644 21.5732 19.5644Z" fill="white" stroke="white" stroke-width="0.1"></path><path d="M25.9296 23.1263C25.847 23.0437 25.7349 22.9972 25.6181 22.9972H22.7697C22.5264 22.9972 22.3292 23.1945 22.3292 23.4378C22.3292 23.6812 22.5265 23.8784 22.7697 23.8784H25.4355L26.4368 24.8797C26.3452 25.064 26.2935 25.2715 26.2935 25.4908C26.2935 26.2508 26.9116 26.8689 27.6716 26.8689C28.4315 26.8689 29.0497 26.2508 29.0497 25.4908C29.0497 24.7309 28.4315 24.1128 27.6716 24.1128C27.452 24.1128 27.2443 24.1647 27.0598 24.2565L25.9296 23.1263ZM27.6716 25.9878C27.3976 25.9878 27.1747 25.7648 27.1747 25.4909C27.1747 25.217 27.3977 24.9941 27.6716 24.9941C27.9455 24.9941 28.1685 25.217 28.1685 25.4909C28.1685 25.7648 27.9455 25.9878 27.6716 25.9878Z" fill="white" stroke="white" stroke-width="0.1"></path><mask id="mask0_1_18" style="mask-type:alpha" maskUnits="userSpaceOnUse" x="8" y="9" width="23" height="22"><path d="M30.0009 9H8.00085V31H30.0009V9Z" fill="white"></path><path d="M27.6723 13.1824C26.9399 13.1824 26.3442 13.7782 26.3442 14.5105C26.3442 14.7347 26.4002 14.9458 26.4987 15.1312L25.4569 16.1729H21.1827C20.6397 15.8625 20.0298 15.6652 19.3905 15.6072V14.9011H23.5095C23.6517 14.9011 23.7827 14.8238 23.8515 14.6992L25.0385 12.548C25.1995 12.6175 25.3768 12.6561 25.563 12.6561C26.2953 12.6561 26.8911 12.0604 26.8911 11.328C26.8911 10.5958 26.2953 10 25.563 10C24.8307 10 24.2349 10.5958 24.2349 11.3281C24.2349 11.5842 24.308 11.8234 24.434 12.0264L23.2789 14.1199H19.3905V10.3922C19.3905 10.1765 19.2156 10.0016 18.9999 10.0016H17.2484C17.0327 10.0016 16.8578 10.1765 16.8578 10.3922V11.601C16.0507 11.8055 15.2823 12.1239 14.5662 12.5507L13.7148 11.6993C13.6415 11.626 13.5421 11.5849 13.4385 11.5849C13.3349 11.5849 13.2355 11.6261 13.1623 11.6994L10.6933 14.1702C10.5408 14.3228 10.5409 14.57 10.6934 14.7225L11.5438 15.573C11.1171 16.2891 10.7987 17.0575 10.5942 17.8645H9.39145C9.17574 17.8645 9.00085 18.0394 9.00085 18.2551V21.7481C9.00085 21.9639 9.17578 22.1387 9.39145 22.1387H10.5943C10.7987 22.9457 11.1171 23.7141 11.5439 24.4302L10.6935 25.2807C10.541 25.4332 10.5409 25.6804 10.6934 25.833L13.1623 28.3038C13.2356 28.3771 13.335 28.4183 13.4386 28.4183C13.4386 28.4183 13.4386 28.4183 13.4386 28.4183C13.5422 28.4183 13.6416 28.3772 13.7149 28.3039L14.5663 27.4526C15.2824 27.8793 16.0508 28.1978 16.8578 28.4023V29.6091C16.8578 29.8248 17.0325 29.9996 17.2481 29.9997H18.9996H18.9999C19.1034 29.9997 19.2028 29.9595 19.276 29.8863C19.3493 29.813 19.3905 29.7137 19.3905 29.61V25.8642H23.2782L24.4345 27.9735C24.3082 28.1767 24.235 28.4162 24.235 28.6725C24.235 29.4049 24.8307 30.0006 25.563 30.0006C26.2954 30.0006 26.8911 29.4049 26.8911 28.6725C26.8911 27.9402 26.2953 27.3444 25.563 27.3444C25.3772 27.3444 25.2003 27.3829 25.0396 27.4521L23.852 25.2858C23.7835 25.1607 23.6521 25.083 23.5095 25.083H19.3904V24.0313C19.3904 23.8156 19.2155 23.6407 18.9998 23.6407C16.9932 23.6407 15.3607 22.0082 15.3607 20.0016C15.3607 18.0193 16.954 16.4023 18.9272 16.3634C18.9495 16.3674 18.9722 16.3698 18.9956 16.3698C20.5074 16.3698 21.8772 17.3214 22.4041 18.7377C22.4627 18.895 22.6117 18.9922 22.7703 18.9922C22.8155 18.9922 22.8615 18.9843 22.9064 18.9676C23.1086 18.8923 23.2116 18.6675 23.1363 18.4653C22.9228 17.8913 22.5948 17.3806 22.1849 16.9542H25.6187C25.7223 16.9542 25.8216 16.913 25.8949 16.8397L27.0509 15.6838C27.2365 15.7824 27.4479 15.8386 27.6723 15.8386C28.4046 15.8386 29.0004 15.2428 29.0004 14.5105C29.0004 13.7782 28.4046 13.1824 27.6723 13.1824ZM25.563 10.7812C25.8646 10.7812 26.1099 11.0266 26.1099 11.3281C26.1099 11.6296 25.8645 11.8749 25.563 11.8749C25.2615 11.8749 25.0162 11.6296 25.0162 11.3281C25.0162 11.0266 25.2614 10.7812 25.563 10.7812ZM25.563 28.1258C25.8646 28.1258 26.1099 28.3711 26.1099 28.6726C26.1099 28.9742 25.8645 29.2195 25.563 29.2195C25.2614 29.2195 25.0162 28.9742 25.0162 28.6726C25.0162 28.3711 25.2614 28.1258 25.563 28.1258ZM18.6093 15.5984C16.3542 15.7969 14.5795 17.6959 14.5795 20.0016C14.5795 22.3074 16.3542 24.2064 18.6092 24.4049V29.2193L17.6389 29.2187V28.0926C17.6389 27.9085 17.5104 27.7494 17.3304 27.7107C16.3998 27.5108 15.5219 27.147 14.7209 26.6294C14.5663 26.5295 14.363 26.5511 14.2327 26.6813L13.4387 27.4753L11.5219 25.5572L12.3153 24.7638C12.4455 24.6336 12.4671 24.4302 12.3672 24.2755C11.8496 23.4746 11.4858 22.5967 11.2859 21.6662C11.2473 21.4861 11.0882 21.3576 10.9041 21.3576H9.78205V18.6459H10.904C11.0882 18.6459 11.2472 18.5173 11.2859 18.3373C11.4858 17.4067 11.8496 16.5288 12.3671 15.7279C12.4671 15.5733 12.4454 15.3699 12.3153 15.2397L11.5219 14.4463L13.4386 12.5281L14.2327 13.3222C14.3629 13.4524 14.5663 13.474 14.7209 13.3741C15.5218 12.8565 16.3997 12.4927 17.3303 12.2927C17.5103 12.2541 17.6389 12.095 17.6389 11.9109V10.7829H18.6092V15.5984H18.6093ZM27.6723 15.0573C27.3707 15.0573 27.1254 14.812 27.1254 14.5105C27.1254 14.2089 27.3707 13.9636 27.6723 13.9636C27.9738 13.9636 28.2191 14.2089 28.2191 14.5105C28.2191 14.812 27.9738 15.0573 27.6723 15.0573Z" fill="black"></path></mask><g mask="url(#mask0_1_18)"><path d="M27.6723 13.1824C26.9399 13.1824 26.3442 13.7782 26.3442 14.5105C26.3442 14.7347 26.4002 14.9458 26.4987 15.1312L25.4569 16.1729H21.1827C20.6397 15.8625 20.0298 15.6652 19.3905 15.6072V14.9011H23.5095C23.6517 14.9011 23.7827 14.8238 23.8515 14.6992L25.0385 12.548C25.1995 12.6175 25.3768 12.6561 25.563 12.6561C26.2953 12.6561 26.8911 12.0604 26.8911 11.328C26.8911 10.5958 26.2953 10 25.563 10C24.8307 10 24.2349 10.5958 24.2349 11.3281C24.2349 11.5842 24.308 11.8234 24.434 12.0264L23.2789 14.1199H19.3905V10.3922C19.3905 10.1765 19.2156 10.0016 18.9999 10.0016H17.2484C17.0327 10.0016 16.8578 10.1765 16.8578 10.3922V11.601C16.0507 11.8055 15.2823 12.1239 14.5662 12.5507L13.7148 11.6993C13.6415 11.626 13.5421 11.5849 13.4385 11.5849C13.3349 11.5849 13.2355 11.6261 13.1623 11.6994L10.6933 14.1702C10.5408 14.3228 10.5409 14.57 10.6934 14.7225L11.5438 15.573C11.1171 16.2891 10.7987 17.0575 10.5942 17.8645H9.39145C9.17574 17.8645 9.00085 18.0394 9.00085 18.2551V21.7481C9.00085 21.9639 9.17578 22.1387 9.39145 22.1387H10.5943C10.7987 22.9457 11.1171 23.7141 11.5439 24.4302L10.6935 25.2807C10.541 25.4332 10.5409 25.6804 10.6934 25.833L13.1623 28.3038C13.2356 28.3771 13.335 28.4183 13.4386 28.4183C13.4386 28.4183 13.4386 28.4183 13.4386 28.4183C13.5422 28.4183 13.6416 28.3772 13.7149 28.3039L14.5663 27.4526C15.2824 27.8793 16.0508 28.1978 16.8578 28.4023V29.6091C16.8578 29.8248 17.0325 29.9996 17.2481 29.9997H18.9996H18.9999C19.1034 29.9997 19.2028 29.9595 19.276 29.8863C19.3493 29.813 19.3905 29.7137 19.3905 29.61V25.8642H23.2782L24.4345 27.9735C24.3082 28.1767 24.235 28.4162 24.235 28.6725C24.235 29.4049 24.8307 30.0006 25.563 30.0006C26.2954 30.0006 26.8911 29.4049 26.8911 28.6725C26.8911 27.9402 26.2953 27.3444 25.563 27.3444C25.3772 27.3444 25.2003 27.3829 25.0396 27.4521L23.852 25.2858C23.7835 25.1607 23.6521 25.083 23.5095 25.083H19.3904V24.0313C19.3904 23.8156 19.2155 23.6407 18.9998 23.6407C16.9932 23.6407 15.3607 22.0082 15.3607 20.0016C15.3607 18.0193 16.954 16.4023 18.9272 16.3634C18.9495 16.3674 18.9722 16.3698 18.9956 16.3698C20.5074 16.3698 21.8772 17.3214 22.4041 18.7377C22.4627 18.895 22.6117 18.9922 22.7703 18.9922C22.8155 18.9922 22.8615 18.9843 22.9064 18.9676C23.1086 18.8923 23.2116 18.6675 23.1363 18.4653C22.9228 17.8913 22.5948 17.3806 22.1849 16.9542H25.6187C25.7223 16.9542 25.8216 16.913 25.8949 16.8397L27.0509 15.6838C27.2365 15.7824 27.4479 15.8386 27.6723 15.8386C28.4046 15.8386 29.0004 15.2428 29.0004 14.5105C29.0004 13.7782 28.4046 13.1824 27.6723 13.1824ZM25.563 10.7812C25.8646 10.7812 26.1099 11.0266 26.1099 11.3281C26.1099 11.6296 25.8645 11.8749 25.563 11.8749C25.2615 11.8749 25.0162 11.6296 25.0162 11.3281C25.0162 11.0266 25.2614 10.7812 25.563 10.7812ZM25.563 28.1258C25.8646 28.1258 26.1099 28.3711 26.1099 28.6726C26.1099 28.9742 25.8645 29.2195 25.563 29.2195C25.2614 29.2195 25.0162 28.9742 25.0162 28.6726C25.0162 28.3711 25.2614 28.1258 25.563 28.1258ZM18.6093 15.5984C16.3542 15.7969 14.5795 17.6959 14.5795 20.0016C14.5795 22.3074 16.3542 24.2064 18.6092 24.4049V29.2193L17.6389 29.2187V28.0926C17.6389 27.9085 17.5104 27.7494 17.3304 27.7107C16.3998 27.5108 15.5219 27.147 14.7209 26.6294C14.5663 26.5295 14.363 26.5511 14.2327 26.6813L13.4387 27.4753L11.5219 25.5572L12.3153 24.7638C12.4455 24.6336 12.4671 24.4302 12.3672 24.2755C11.8496 23.4746 11.4858 22.5967 11.2859 21.6662C11.2473 21.4861 11.0882 21.3576 10.9041 21.3576H9.78205V18.6459H10.904C11.0882 18.6459 11.2472 18.5173 11.2859 18.3373C11.4858 17.4067 11.8496 16.5288 12.3671 15.7279C12.4671 15.5733 12.4454 15.3699 12.3153 15.2397L11.5219 14.4463L13.4386 12.5281L14.2327 13.3222C14.3629 13.4524 14.5663 13.474 14.7209 13.3741C15.5218 12.8565 16.3997 12.4927 17.3303 12.2927C17.5103 12.2541 17.6389 12.095 17.6389 11.9109V10.7829H18.6092V15.5984H18.6093ZM27.6723 15.0573C27.3707 15.0573 27.1254 14.812 27.1254 14.5105C27.1254 14.2089 27.3707 13.9636 27.6723 13.9636C27.9738 13.9636 28.2191 14.2089 28.2191 14.5105C28.2191 14.812 27.9738 15.0573 27.6723 15.0573Z" fill="white"></path><path d="M27.6723 13.1824C26.9399 13.1824 26.3442 13.7782 26.3442 14.5105C26.3442 14.7347 26.4002 14.9458 26.4987 15.1312L25.4569 16.1729H21.1827C20.6397 15.8625 20.0298 15.6652 19.3905 15.6072V14.9011H23.5095C23.6517 14.9011 23.7827 14.8238 23.8515 14.6992L25.0385 12.548C25.1995 12.6175 25.3768 12.6561 25.563 12.6561C26.2953 12.6561 26.8911 12.0604 26.8911 11.328C26.8911 10.5958 26.2953 10 25.563 10C24.8307 10 24.2349 10.5958 24.2349 11.3281C24.2349 11.5842 24.308 11.8234 24.434 12.0264L23.2789 14.1199H19.3905V10.3922C19.3905 10.1765 19.2156 10.0016 18.9999 10.0016H17.2484C17.0327 10.0016 16.8578 10.1765 16.8578 10.3922V11.601C16.0507 11.8055 15.2823 12.1239 14.5662 12.5507L13.7148 11.6993C13.6415 11.626 13.5421 11.5849 13.4385 11.5849C13.3349 11.5849 13.2355 11.6261 13.1623 11.6994L10.6933 14.1702C10.5408 14.3228 10.5409 14.57 10.6934 14.7225L11.5438 15.573C11.1171 16.2891 10.7987 17.0575 10.5942 17.8645H9.39145C9.17574 17.8645 9.00085 18.0394 9.00085 18.2551V21.7481C9.00085 21.9639 9.17578 22.1387 9.39145 22.1387H10.5943C10.7987 22.9457 11.1171 23.7141 11.5439 24.4302L10.6935 25.2807C10.541 25.4332 10.5409 25.6804 10.6934 25.833L13.1623 28.3038C13.2356 28.3771 13.335 28.4183 13.4386 28.4183C13.4386 28.4183 13.4386 28.4183 13.4386 28.4183C13.5422 28.4183 13.6416 28.3772 13.7149 28.3039L14.5663 27.4526C15.2824 27.8793 16.0508 28.1978 16.8578 28.4023V29.6091C16.8578 29.8248 17.0325 29.9996 17.2481 29.9997H18.9996H18.9999C19.1034 29.9997 19.2028 29.9595 19.276 29.8863C19.3493 29.813 19.3905 29.7137 19.3905 29.61V25.8642H23.2782L24.4345 27.9735C24.3082 28.1767 24.235 28.4162 24.235 28.6725C24.235 29.4049 24.8307 30.0006 25.563 30.0006C26.2954 30.0006 26.8911 29.4049 26.8911 28.6725C26.8911 27.9402 26.2953 27.3444 25.563 27.3444C25.3772 27.3444 25.2003 27.3829 25.0396 27.4521L23.852 25.2858C23.7835 25.1607 23.6521 25.083 23.5095 25.083H19.3904V24.0313C19.3904 23.8156 19.2155 23.6407 18.9998 23.6407C16.9932 23.6407 15.3607 22.0082 15.3607 20.0016C15.3607 18.0193 16.954 16.4023 18.9272 16.3634C18.9495 16.3674 18.9722 16.3698 18.9956 16.3698C20.5074 16.3698 21.8772 17.3214 22.4041 18.7377C22.4627 18.895 22.6117 18.9922 22.7703 18.9922C22.8155 18.9922 22.8615 18.9843 22.9064 18.9676C23.1086 18.8923 23.2116 18.6675 23.1363 18.4653C22.9228 17.8913 22.5948 17.3806 22.1849 16.9542H25.6187C25.7223 16.9542 25.8216 16.913 25.8949 16.8397L27.0509 15.6838C27.2365 15.7824 27.4479 15.8386 27.6723 15.8386C28.4046 15.8386 29.0004 15.2428 29.0004 14.5105C29.0004 13.7782 28.4046 13.1824 27.6723 13.1824ZM25.563 10.7812C25.8646 10.7812 26.1099 11.0266 26.1099 11.3281C26.1099 11.6296 25.8645 11.8749 25.563 11.8749C25.2615 11.8749 25.0162 11.6296 25.0162 11.3281C25.0162 11.0266 25.2614 10.7812 25.563 10.7812ZM25.563 28.1258C25.8646 28.1258 26.1099 28.3711 26.1099 28.6726C26.1099 28.9742 25.8645 29.2195 25.563 29.2195C25.2614 29.2195 25.0162 28.9742 25.0162 28.6726C25.0162 28.3711 25.2614 28.1258 25.563 28.1258ZM18.6093 15.5984C16.3542 15.7969 14.5795 17.6959 14.5795 20.0016C14.5795 22.3074 16.3542 24.2064 18.6092 24.4049V29.2193L17.6389 29.2187V28.0926C17.6389 27.9085 17.5104 27.7494 17.3304 27.7107C16.3998 27.5108 15.5219 27.147 14.7209 26.6294C14.5663 26.5295 14.363 26.5511 14.2327 26.6813L13.4387 27.4753L11.5219 25.5572L12.3153 24.7638C12.4455 24.6336 12.4671 24.4302 12.3672 24.2755C11.8496 23.4746 11.4858 22.5967 11.2859 21.6662C11.2473 21.4861 11.0882 21.3576 10.9041 21.3576H9.78205V18.6459H10.904C11.0882 18.6459 11.2472 18.5173 11.2859 18.3373C11.4858 17.4067 11.8496 16.5288 12.3671 15.7279C12.4671 15.5733 12.4454 15.3699 12.3153 15.2397L11.5219 14.4463L13.4386 12.5281L14.2327 13.3222C14.3629 13.4524 14.5663 13.474 14.7209 13.3741C15.5218 12.8565 16.3997 12.4927 17.3303 12.2927C17.5103 12.2541 17.6389 12.095 17.6389 11.9109V10.7829H18.6092V15.5984H18.6093ZM27.6723 15.0573C27.3707 15.0573 27.1254 14.812 27.1254 14.5105C27.1254 14.2089 27.3707 13.9636 27.6723 13.9636C27.9738 13.9636 28.2191 14.2089 28.2191 14.5105C28.2191 14.812 27.9738 15.0573 27.6723 15.0573Z" stroke="white" stroke-width="0.2"></path><path d="M27.6716 18.6281C27.0655 18.6281 26.55 19.0212 26.3658 19.5656H25.2497C25.0064 19.5656 24.8091 19.7629 24.8091 20.0062C24.8091 20.2495 25.0064 20.4468 25.2497 20.4468H26.3658C26.5499 20.9912 27.0655 21.3843 27.6715 21.3843C28.4315 21.3843 29.0496 20.7661 29.0496 20.0062C29.0497 19.2462 28.4315 18.6281 27.6716 18.6281ZM27.6716 20.5031C27.3976 20.5031 27.1747 20.2801 27.1747 20.0062C27.1747 19.7323 27.3977 19.5093 27.6716 19.5093C27.9455 19.5093 28.1684 19.7323 28.1684 20.0062C28.1684 20.2801 27.9455 20.5031 27.6716 20.5031Z" fill="white" stroke="white" stroke-width="0.1"></path></g></g><defs><clipPath id="clip0_1_18"><rect width="40" height="40" fill="white"></rect></clipPath></defs></svg>