<svg xmlns="http://www.w3.org/2000/svg" width="20" height="20" viewBox="0 0 20 20" fill="none"><g clip-path="url(#clip0_1_6)"><path d="M0.0153809 10.0855C0.0153809 4.48921 4.43514 0.17041 9.98882 0.17041C15.5425 0.17041 20 4.48921 20 10.0855C20 15.6813 15.542 20.0001 9.98882 20.0001C4.43514 19.9996 0.0153809 15.6808 0.0153809 10.0855ZM15.1264 10.0855C15.1264 7.04323 12.8974 4.90236 9.98831 4.90236C7.11703 4.90236 4.888 7.04273 4.888 10.0855C4.888 13.1273 7.11703 15.2687 9.98831 15.2687C12.8974 15.2682 15.1264 13.1273 15.1264 10.0855Z" fill="#EA5B0C"></path></g><g clip-path="url(#clip1_1_6)"><path d="M15.2675 9.93589C15.2675 12.9056 12.9458 15.1796 9.99239 15.1796C7.03799 15.1796 4.71729 12.9056 4.71729 9.93589C4.71729 6.96622 7.03748 4.69214 9.99239 4.69214C12.9458 4.69214 15.2675 6.96622 15.2675 9.93589Z" fill="#7B3200"></path></g><defs><clipPath id="clip0_1_6"><rect width="20" height="20" fill="white"></rect></clipPath><clipPath id="clip1_1_6"><rect width="12" height="12" fill="white" transform="translate(4 4)"></rect></clipPath></defs></svg>