<svg xmlns="http://www.w3.org/2000/svg" width="30" height="31" viewBox="0 0 30 31" fill="none"><path d="M14.9991 0.000816598C17.7957 0.000816598 20.5923 -0.00102075 23.3889 0.000816598C24.6572 0.000816598 25.6823 0.789038 25.9798 1.98882C26.0359 2.21298 26.0527 2.44081 26.0527 2.67048C26.0527 6.71447 26.0527 10.7566 26.049 14.8006C26.049 14.9439 26.0845 14.9825 26.2304 14.9789C26.6551 14.9697 27.0797 14.955 27.4969 15.0707C28.5893 15.3757 29.3301 16.2705 29.4236 17.3839C29.4947 18.2236 29.5845 19.0633 29.6649 19.9029C29.736 20.6471 29.8015 21.3912 29.8707 22.1353C29.91 22.5561 29.9567 22.975 29.9885 23.3957C30.0578 24.3052 29.8164 25.1118 29.1823 25.8026C28.709 26.3171 28.146 26.6644 27.452 26.8003C27.0217 26.8848 26.5859 26.8683 26.1519 26.861C26.0228 26.8591 25.991 26.9069 25.9704 27.0171C25.6075 28.9684 24.444 30.2288 22.5284 30.8278C22.1038 30.9601 21.6586 30.995 21.2134 30.9968C17.0699 30.9968 12.9265 31.006 8.783 30.9931C6.89365 30.9876 5.457 30.1737 4.52542 28.5458C4.25605 28.0754 4.09331 27.5628 4.02596 27.0263C4.011 26.9069 3.97172 26.861 3.83703 26.8628C3.35254 26.8701 2.86617 26.8848 2.38729 26.7673C1.17137 26.4678 0.22483 25.448 0.0377662 24.2336C-0.033318 23.7705 0.00970664 23.3094 0.0546019 22.8482C0.10698 22.3007 0.159358 21.7531 0.211735 21.2056C0.273467 20.5534 0.335197 19.9011 0.396928 19.247C0.447435 18.7031 0.509167 18.1611 0.54658 17.6173C0.617664 16.5498 1.09093 15.7377 2.07302 15.2398C2.42657 15.0597 2.81005 14.9807 3.2085 14.9789C3.41427 14.977 3.62004 14.9733 3.82581 14.9807C3.92869 14.9844 3.95862 14.9495 3.94553 14.8557C3.93992 14.819 3.94553 14.7823 3.94553 14.7455C3.94553 10.6978 3.94366 6.65017 3.94553 2.6025C3.94553 1.4413 4.67321 0.467502 5.78249 0.123919C6.06122 0.0375635 6.34743 0.00449137 6.63737 0.00449137C9.42462 0.000816682 12.2119 0.000816598 14.9991 0.000816598ZM24.9883 9.6285C24.936 9.68362 24.9116 9.71118 24.8873 9.73874C23.9052 10.8044 22.6931 11.3703 21.2153 11.3666C19.8927 11.363 18.5683 11.3666 17.2458 11.363C17.1298 11.363 17.0998 11.3887 17.0998 11.5044C17.1036 13.542 17.1036 15.5797 17.0998 17.6173C17.0998 17.7477 17.1447 17.7624 17.2589 17.7643C17.8949 17.7753 18.529 17.7992 19.165 17.8286C19.7898 17.858 20.4146 17.9094 21.0394 17.9517C21.3986 17.9756 21.7615 17.9847 22.1132 18.0472C22.9138 18.1869 23.417 18.8024 23.417 19.5998C23.417 21.6006 23.417 23.6015 23.417 25.6024C23.417 25.753 23.4095 25.9037 23.3908 26.0544C23.2449 27.2376 22.1468 28.2169 20.9365 28.2463C20.4539 28.2573 19.975 28.2077 19.4943 28.1802C18.355 28.1122 17.2158 28.0681 16.0747 28.0534C14.668 28.035 13.2594 28.0497 11.8527 28.1085C11.2597 28.1342 10.6686 28.1783 10.0756 28.2077C9.66594 28.2279 9.2544 28.2886 8.84286 28.239C7.57831 28.0883 6.58126 26.9786 6.58126 25.7255C6.58126 24.8858 6.58126 24.0461 6.58126 23.2065C6.58126 21.9773 6.57751 20.7463 6.58313 19.5171C6.58687 18.7472 7.23037 18.0821 8.01042 18.0288C8.51924 17.9939 9.02618 17.9572 9.53312 17.9149C10.605 17.8249 11.6787 17.7826 12.7544 17.7661C12.8741 17.7643 12.8984 17.7312 12.8984 17.6191C12.8947 15.5815 12.8947 13.5439 12.8984 11.5063C12.8984 11.3905 12.8685 11.363 12.7525 11.3648C11.4056 11.3685 10.0588 11.3666 8.71191 11.3685C8.50053 11.3685 8.29102 11.363 8.08338 11.3336C6.88804 11.1664 5.88912 10.6482 5.10532 9.73874C5.081 9.71118 5.06978 9.66341 5.00992 9.66525C5.00992 9.69465 5.00992 9.72221 5.00992 9.74977C5.00992 15.3206 5.00992 20.8933 5.01179 26.4641C5.01179 26.6662 5.03798 26.8665 5.08288 27.0649C5.46636 28.7938 6.91049 29.9514 8.71191 29.9532C12.9059 29.9587 17.1017 29.955 21.2957 29.9532C21.8924 29.9532 22.4686 29.8375 22.9961 29.5563C24.3112 28.8545 24.9865 27.7576 24.9883 26.2914C24.9958 20.794 24.9921 15.2949 24.9921 9.79754C24.9883 9.75161 24.9883 9.70751 24.9883 9.6285ZM15.0029 18.7472C13.7645 18.7638 12.4943 18.784 11.2223 18.8483C10.214 18.8979 9.2095 18.9879 8.2031 19.0541C7.80465 19.0798 7.64004 19.2617 7.64004 19.6567C7.64004 20.4872 7.64004 21.3177 7.64004 22.1482C7.64004 23.3774 7.63255 24.6084 7.64752 25.8376C7.65687 26.6056 8.45563 27.3166 9.23569 27.2762C9.66032 27.2542 10.085 27.2248 10.5077 27.1972C11.632 27.1219 12.7581 27.0833 13.8842 27.0686C15.319 27.0484 16.7557 27.0612 18.1904 27.1237C18.8021 27.1494 19.4138 27.1898 20.0237 27.2248C20.323 27.2413 20.6204 27.2817 20.9178 27.2762C21.739 27.2578 22.4592 26.5211 22.4611 25.7163C22.463 24.7388 22.4611 23.7614 22.4611 22.7839C22.4611 21.7237 22.4611 20.6636 22.4611 19.6034C22.4611 19.2984 22.2853 19.0927 21.9785 19.0688C21.1086 18.999 20.2369 18.931 19.3652 18.8795C17.9248 18.7913 16.4807 18.7638 15.0029 18.7472ZM17.1017 5.6727C17.1017 7.17381 17.1036 8.67308 17.0998 10.1742C17.0998 10.2881 17.1167 10.3304 17.2495 10.3304C18.5777 10.3249 19.9058 10.3267 21.2321 10.3267C21.5407 10.3267 21.8475 10.3046 22.1487 10.2367C23.7687 9.87103 24.9416 8.50405 24.9808 6.87065C25.0145 5.4265 24.9883 3.98051 24.9883 2.53451C24.9883 2.42795 24.9715 2.32322 24.9472 2.22217C24.7695 1.4909 24.1634 1.03892 23.3534 1.03892C21.32 1.03708 19.2866 1.03892 17.2532 1.03524C17.1298 1.03524 17.0998 1.06464 17.0998 1.1859C17.1036 2.6815 17.1017 4.1771 17.1017 5.6727ZM12.8928 5.68189C12.8928 4.18078 12.8909 2.6815 12.8947 1.18039C12.8947 1.06831 12.8685 1.0334 12.7506 1.03524C12.2792 1.04259 11.8059 1.03892 11.3345 1.03892C9.76882 1.03892 8.2031 1.03708 6.6355 1.03892C5.66651 1.04075 5.00618 1.6875 5.00618 2.63741C5.00431 3.9952 5.00618 5.353 5.00618 6.7108C5.00618 6.91842 5.02301 7.12237 5.05856 7.32631C5.35412 9.04239 6.81883 10.2973 8.58845 10.3193C9.98207 10.3359 11.3757 10.323 12.7675 10.3285C12.8947 10.3285 12.8947 10.2734 12.8947 10.1815C12.8928 8.68227 12.8928 7.18116 12.8928 5.68189ZM16.0429 8.28173C16.0429 5.93177 16.0429 3.5818 16.0429 1.23184C16.0429 1.03892 16.0429 1.03892 15.839 1.03892C15.2722 1.03892 14.7073 1.03708 14.1424 1.03892C13.9291 1.03892 13.9534 1.00768 13.9534 1.21714C13.9516 2.49226 13.9534 3.76921 13.9534 5.04433C13.9534 8.45811 13.9534 11.8737 13.9534 15.2875C13.9534 15.4933 13.9534 15.4933 14.1704 15.4933C14.7279 15.4933 15.2835 15.4933 15.8409 15.4933C16.0448 15.4933 16.0448 15.4933 16.0448 15.3004C16.0429 12.9633 16.0429 10.6225 16.0429 8.28173ZM3.94366 22.2162C3.94366 21.0549 3.94366 19.8956 3.94553 18.7344C3.94553 18.6535 3.94927 18.5984 3.83329 18.6003C3.1 18.6058 2.36484 18.6039 1.63155 18.6021C1.55485 18.6021 1.52866 18.6223 1.52305 18.7013C1.50809 18.9255 1.4819 19.1478 1.45945 19.3719C1.39772 20.0113 1.33599 20.6489 1.27426 21.2883C1.22188 21.8303 1.16389 22.3742 1.12087 22.9162C1.09094 23.2947 1.01798 23.6695 1.07223 24.0535C1.18821 24.873 1.83545 25.584 2.65479 25.7733C3.03453 25.8614 3.41801 25.8063 3.79962 25.8265C3.9156 25.832 3.9474 25.8026 3.9474 25.6851C3.94179 24.5275 3.94366 23.3718 3.94366 22.2162ZM26.0509 22.2106C26.0509 22.5505 26.0509 22.8886 26.0509 23.2285C26.0509 24.0498 26.0509 24.8711 26.0527 25.6924C26.0527 25.7475 26.0191 25.8284 26.135 25.8229C26.453 25.81 26.7692 25.8357 27.0872 25.8008C28.0637 25.6961 29.0326 24.8417 28.9354 23.5317C28.8886 22.9015 28.8138 22.2731 28.7521 21.6447C28.6585 20.6728 28.5631 19.7027 28.4771 18.7307C28.4677 18.6186 28.4284 18.6003 28.3274 18.6003C27.6166 18.6039 26.9057 18.6058 26.1968 18.6003C26.0789 18.6003 26.0509 18.6315 26.0509 18.7454C26.0527 19.8993 26.0509 21.0549 26.0509 22.2106ZM27.2032 17.5622C27.5436 17.5622 27.8841 17.5585 28.2245 17.564C28.3274 17.5658 28.3573 17.5419 28.3573 17.4354C28.3499 16.7868 27.7681 16.1492 27.0853 16.0427C26.7785 15.9949 26.4699 16.0298 26.1631 16.0151C26.0696 16.0114 26.0471 16.0427 26.0471 16.1309C26.0509 16.57 26.0509 17.011 26.0471 17.4501C26.0452 17.5419 26.077 17.564 26.1668 17.5622C26.5129 17.5585 26.859 17.5622 27.2032 17.5622ZM2.82502 17.5622C3.16173 17.5622 3.49845 17.5622 3.83516 17.5622C3.88941 17.5622 3.9474 17.5769 3.94553 17.485C3.94179 17.022 3.94366 16.559 3.94366 16.096C3.94366 16.0482 3.93617 16.0151 3.87631 16.0188C3.55456 16.0298 3.23094 15.9894 2.91107 16.0482C2.23577 16.175 1.68206 16.8162 1.69141 17.4556C1.69328 17.5383 1.71199 17.5658 1.79991 17.564C2.14223 17.5585 2.48269 17.5622 2.82502 17.5622ZM14.9898 17.5622C15.2928 17.5622 15.5977 17.5585 15.9008 17.564C16.0037 17.5658 16.0486 17.5475 16.0448 17.4317C16.0355 17.1745 16.0373 16.9191 16.0429 16.6619C16.0448 16.57 16.0242 16.5351 15.9213 16.5351C15.304 16.5388 14.6886 16.5388 14.0713 16.5351C13.9684 16.5351 13.9478 16.57 13.9497 16.6619C13.9553 16.9136 13.9572 17.1671 13.9497 17.4188C13.946 17.5291 13.9721 17.5695 14.0937 17.5658C14.3912 17.5548 14.6905 17.5622 14.9898 17.5622Z" fill="white"></path><path d="M20.8206 21.0311C19.7393 20.9742 18.7816 20.9117 17.8257 20.8749C16.4807 20.8235 15.1338 20.8014 13.787 20.829C12.7301 20.8511 11.675 20.8951 10.62 20.9503C10.1954 20.9723 9.77072 20.998 9.34609 21.0238C9.2114 21.0311 9.0842 21.0146 8.96635 20.9503C8.76432 20.84 8.64086 20.5957 8.68762 20.3954C8.73252 20.1951 8.98318 19.9967 9.19831 19.9857C11.1064 19.8754 13.0163 19.7725 14.9299 19.778C15.9214 19.7817 16.9128 19.7909 17.9024 19.8405C18.8508 19.8883 19.7973 19.9397 20.7458 19.9857C21.0918 20.0022 21.3182 20.2098 21.3126 20.5185C21.3032 20.8051 21.0245 21.0366 20.8206 21.0311Z" fill="white"></path></svg>