<svg xmlns="http://www.w3.org/2000/svg" width="30" height="30" viewBox="0 0 30 30" fill="none"><path d="M21.7137 29.9978C19.4897 29.9978 17.2657 29.9978 15.0416 29.9978C14.2477 29.9978 13.6182 29.4824 13.469 28.7083C13.4471 28.5965 13.4471 28.4802 13.4471 28.3662C13.4449 25.9956 13.4427 23.625 13.4471 21.2544C13.4493 19.9912 14.2411 18.9802 15.4474 18.6864C15.636 18.6403 15.8268 18.6162 16.0199 18.6162C19.8209 18.6162 23.6196 18.614 27.4206 18.6162C28.73 18.6162 29.8157 19.6009 29.978 20.9101C29.9934 21.0285 30 21.1469 30 21.2675C30 23.6381 30 26.0088 30 28.3794C30 29.3245 29.3222 30 28.3747 30C26.1529 29.9978 23.9333 29.9978 21.7137 29.9978ZM21.729 21.2039C21.468 21.2039 21.2048 21.2039 20.9438 21.2039C19.4962 21.2039 18.0487 21.2039 16.6011 21.2039C16.2611 21.2039 16.0396 21.4057 16.0396 21.7281C16.0374 23.4452 16.0396 25.1645 16.0374 26.8816C16.0374 26.9956 16.0659 27.0987 16.1339 27.1908C16.2611 27.3618 16.4388 27.4079 16.6428 27.4079C20.0248 27.4057 23.4069 27.4079 26.7868 27.4057C27.2035 27.4057 27.4053 27.2039 27.4053 26.7916C27.4053 25.1337 27.4053 23.4759 27.4053 21.8158C27.4053 21.4013 27.2035 21.2017 26.7868 21.2017C25.1023 21.2039 23.4157 21.2039 21.729 21.2039Z" fill="white"></path><path d="M13.4449 18.6668C13.4449 18.5835 13.4449 18.5287 13.4449 18.4738C13.4449 17.1274 13.4449 15.7809 13.4449 14.4344C13.4449 13.0769 13.2103 11.7633 12.7124 10.4958C12.3527 9.57692 11.449 9.12298 10.5037 9.40148C8.56265 9.97385 6.61719 10.5309 4.6827 11.1252C3.27021 11.5594 2.42799 12.5418 2.12531 13.987C2.07925 14.2063 2.07267 14.4344 2.07267 14.6581C2.07267 18.5309 2.07267 22.4059 2.07267 26.2787C2.07267 27.1054 2.54862 27.7173 3.31847 27.8861C3.4391 27.9124 3.56412 27.919 3.68914 27.919C6.39567 27.919 9.1022 27.919 11.8109 27.919C11.9754 27.919 12.1443 27.9146 12.3022 27.862C12.4075 27.8269 12.4163 27.8686 12.4163 27.9541C12.4163 28.2567 12.4031 28.5594 12.4558 28.862C12.5172 29.226 12.6575 29.555 12.8593 29.862C12.8835 29.8993 12.9229 29.9278 12.9229 29.9804C12.8747 30.0067 12.8242 29.9936 12.776 29.9936C9.3983 29.9936 6.02061 29.9936 2.64293 29.9936C1.32914 29.9936 0.280746 29.123 0.0372891 27.8313C0.00658285 27.669 0 27.5045 0 27.3379C0.0021933 22.3379 2.14195e-06 17.3379 0.00219544 12.3379C0.00219544 11.0353 0.81152 10.0309 2.08144 9.73043C4.01593 9.27429 5.94823 8.805 7.88053 8.34228C9.3632 7.98701 10.8459 7.62955 12.3307 7.27648C12.8111 7.16245 13.2278 7.33789 13.4888 7.75675C14.1161 8.76771 14.6008 9.84228 14.9452 10.9804C15.2215 11.8927 15.3926 12.8225 15.4737 13.7721C15.5505 14.6756 15.5132 15.5813 15.5242 16.4848C15.5286 16.8291 15.5242 17.1734 15.5264 17.5177C15.5264 17.5835 15.522 17.6274 15.4387 17.6405C14.6973 17.7633 14.0569 18.0879 13.5173 18.6098C13.4976 18.6295 13.4822 18.6383 13.4449 18.6668Z" fill="white"></path><path d="M12.414 20.07C12.414 22.138 12.414 24.2059 12.414 26.2739C12.414 26.4494 12.3943 26.6138 12.2605 26.741C12.175 26.8222 12.0763 26.877 11.9556 26.8858C11.9008 26.8901 11.846 26.8923 11.7911 26.8923C9.10214 26.8923 6.41534 26.8923 3.72635 26.8923C3.57721 26.8923 3.43026 26.8858 3.30962 26.7871C3.19338 26.695 3.11881 26.5766 3.11003 26.4252C3.10565 26.3573 3.10565 26.2871 3.10565 26.2191C3.10565 22.4011 3.121 18.5831 3.09687 14.7651C3.0881 13.4823 3.88427 12.3989 5.14761 12.048C7.01411 11.5305 8.86526 10.9603 10.723 10.4055C11.0542 10.3068 11.3459 10.3309 11.5959 10.5897C11.6661 10.6643 11.7122 10.752 11.7495 10.8485C12.2079 12.0042 12.4206 13.2059 12.4184 14.4494C12.4096 16.3222 12.414 18.1972 12.414 20.07ZM10.1549 19.2608C10.19 19.2344 10.2141 19.2147 10.2383 19.195C11.1134 18.5546 11.5126 17.6972 11.3261 16.6226C11.1463 15.5853 10.519 14.888 9.51228 14.5963C8.48801 14.3002 7.58657 14.5744 6.86278 15.3616C6.45482 15.8046 6.24426 16.3419 6.21794 16.9472C6.21356 17.0393 6.18943 17.0766 6.09293 17.0744C6.01177 17.0722 5.92843 17.0875 5.84728 17.1029C4.97215 17.2673 4.32512 17.9274 4.16501 18.8156C4.02025 19.6248 4.42602 20.4735 5.17832 20.9143C5.25947 20.9625 5.26605 21.0086 5.24631 21.0897C5.152 21.513 5.1498 21.9384 5.24192 22.3594C5.59943 24.0086 7.16326 25.0546 8.83675 24.7651C10.9445 24.3989 12.0477 21.9625 10.9335 20.1336C10.7296 19.7959 10.4686 19.5086 10.1549 19.2608Z" fill="white"></path><path d="M16.5397 14.5856C16.5112 14.1952 16.5002 13.829 16.4651 13.4628C16.3686 12.4693 16.1756 11.4957 15.8664 10.5461C15.7918 10.3136 15.8466 10.1141 15.8905 9.90355C15.9958 9.39259 16.1296 8.8882 16.2787 8.3882C16.3028 8.30487 16.3379 8.27197 16.4278 8.27197C20.3012 8.27417 24.1768 8.27417 28.0502 8.27197C28.1401 8.27197 28.1774 8.30268 28.2015 8.38382C28.502 9.40575 28.7213 10.443 28.8419 11.5022C28.9275 12.2522 28.9582 13.0044 28.9582 13.7566C28.9582 15.0943 28.9582 16.4321 28.9582 17.7676C28.9582 17.9342 28.9582 17.9343 28.8003 17.8685C28.5546 17.7676 28.3002 17.6864 28.037 17.647C27.9383 17.6316 27.9208 17.5921 27.9208 17.5066C27.9229 17.0461 27.9208 16.5878 27.9229 16.1272C27.9229 15.4189 27.6159 14.9035 26.9645 14.6097C26.8855 14.5746 26.8855 14.5242 26.8855 14.4584C26.8855 13.6119 26.8877 12.7676 26.8855 11.9211C26.8855 11.1492 26.3876 10.5329 25.6353 10.3772C25.5147 10.3531 25.3897 10.3465 25.2647 10.3465C23.2468 10.3443 21.229 10.3443 19.2112 10.3465C18.4194 10.3465 17.8096 10.8093 17.6298 11.5395C17.5969 11.6689 17.5881 11.8005 17.5881 11.9342C17.5903 12.7347 17.5859 13.5329 17.5925 14.3334C17.5925 14.4562 17.5596 14.4891 17.439 14.4847C17.1407 14.4803 16.8402 14.4693 16.5397 14.5856Z" fill="white"></path><path d="M22.2379 7.25069C20.4329 7.25069 18.6256 7.25069 16.8205 7.25069C16.6691 7.25069 16.6691 7.25069 16.7262 7.10592C17.2328 5.79648 17.8842 4.56161 18.6782 3.40132C18.8186 3.19514 18.9962 3.09205 19.2441 3.10521C19.3318 3.1096 19.4195 3.11179 19.5051 3.10521C19.6213 3.09424 19.6652 3.12495 19.6608 3.25436C19.6498 3.53511 19.6564 3.81586 19.6586 4.09442C19.6608 4.71953 20.0775 5.16479 20.7004 5.17137C21.7247 5.18233 22.7512 5.18233 23.7754 5.17137C24.4005 5.16479 24.8173 4.71953 24.8195 4.09442C24.8195 3.80489 24.8238 3.51537 24.8173 3.22584C24.8151 3.12714 24.8502 3.10521 24.9423 3.10302C25.5937 3.09424 25.5937 3.09205 25.9578 3.6382C26.6838 4.72611 27.2781 5.88202 27.7519 7.09934C27.8089 7.2463 27.8089 7.24849 27.6444 7.24849C25.8415 7.25069 24.0386 7.25069 22.2379 7.25069Z" fill="white"></path><path d="M21.7137 17.5903C20.0512 17.5903 18.3864 17.5903 16.7239 17.5903C16.5199 17.5903 16.5441 17.6166 16.5441 17.4039C16.5419 16.9762 16.5441 16.5485 16.5441 16.1229C16.5441 15.7128 16.7415 15.5176 17.1538 15.5154C17.8622 15.5154 18.5685 15.5154 19.2769 15.5154C21.6062 15.5154 23.9355 15.5154 26.2648 15.5154C26.4139 15.5154 26.5609 15.5198 26.6837 15.6185C26.8131 15.7216 26.8899 15.8532 26.8899 16.0199C26.8921 16.5112 26.8899 17.0025 26.8943 17.4938C26.8965 17.621 26.8131 17.5903 26.7451 17.5903C25.3611 17.5903 23.9794 17.5903 22.5954 17.5903C22.3015 17.5903 22.0076 17.5903 21.7137 17.5903Z" fill="white"></path><path d="M8.14373 0.00438434C10.0826 0.00438434 12.0215 0.00219096 13.9604 0.00438434C15.0175 0.00438434 15.9563 0.642656 16.362 1.61871C16.5529 2.07712 16.5572 2.55747 16.5507 3.04001C16.5507 3.10143 16.5221 3.11678 16.4651 3.11678C16.1756 3.11459 15.8861 3.11459 15.5966 3.11678C15.4979 3.11898 15.5132 3.05537 15.5132 2.99615C15.5088 2.74391 15.5264 2.49167 15.4694 2.24163C15.3092 1.55291 14.6951 1.05063 13.9889 1.04843C12.6005 1.04405 11.2143 1.03966 9.82599 1.04843C9.17677 1.05282 8.7118 1.37086 8.43105 1.9521C8.3828 2.0508 8.33016 2.08151 8.22488 2.07932C7.90905 2.07274 7.59102 2.07493 7.27299 2.07932C7.18526 2.08151 7.1392 2.05958 7.09753 1.97184C6.8124 1.37524 6.33865 1.05282 5.67188 1.04843C4.52259 1.04185 3.37549 1.04405 2.2262 1.04843C2.10776 1.04843 2.05732 1.02869 2.0639 0.892702C2.07486 0.64485 2.07486 0.396999 2.0639 0.149148C2.05732 0.0241255 2.09899 0 2.21743 0C4.04664 0.00438675 5.87366 0.00219217 7.70287 0.00219217C7.84983 0.00438554 7.99678 0.00438434 8.14373 0.00438434Z" fill="white"></path><path d="M22.2335 11.3794C23.2314 11.3794 24.2272 11.3794 25.2251 11.3794C25.6747 11.3794 25.8612 11.5658 25.8612 12.0155C25.8612 12.7919 25.859 13.5684 25.8634 14.3448C25.8634 14.4611 25.8305 14.4896 25.7164 14.4896C25.1505 14.483 24.5869 14.4852 24.021 14.4896C23.8982 14.4896 23.8872 14.4589 23.9486 14.3624C24.0649 14.1738 24.2096 14.0071 24.3434 13.8316C24.6329 13.4521 24.7908 13.0266 24.8172 12.5485C24.8215 12.4454 24.7952 12.4125 24.69 12.4169C24.4289 12.4234 24.1657 12.4212 23.9047 12.4169C23.8258 12.4147 23.7907 12.4322 23.7885 12.5221C23.7797 12.7766 23.6854 13.0047 23.5297 13.2065C23.4376 13.3271 23.3433 13.4456 23.2511 13.5662C23.0581 13.8162 22.9112 14.0904 22.8344 14.3953C22.8169 14.4611 22.7971 14.4896 22.7269 14.4896C22.1106 14.4874 21.4965 14.4874 20.8802 14.4896C20.7815 14.4896 20.8012 14.4501 20.8341 14.3931C20.9306 14.2198 21.06 14.0685 21.1829 13.9149C21.4987 13.5201 21.6917 13.0815 21.7136 12.5704C21.718 12.4607 21.7027 12.4147 21.5799 12.4191C21.3232 12.4278 21.0644 12.4234 20.8078 12.4212C20.7245 12.4191 20.6806 12.4366 20.6806 12.5331C20.6828 12.7832 20.5841 12.9981 20.4393 13.1933C20.3231 13.3469 20.2025 13.4982 20.0884 13.6539C19.9283 13.8733 19.8055 14.1145 19.7397 14.3799C19.7221 14.4545 19.6936 14.4962 19.6037 14.494C19.3098 14.4874 19.0159 14.4896 18.722 14.494C18.6364 14.4962 18.6145 14.4655 18.6145 14.3821C18.6167 13.5596 18.6145 12.7371 18.6167 11.9146C18.6167 11.6163 18.8251 11.3991 19.1233 11.3882C19.4304 11.3772 19.7397 11.3838 20.0467 11.3838C20.7727 11.3794 21.5031 11.3794 22.2335 11.3794Z" fill="white"></path><path d="M5.31868 7.89934C3.9391 8.25686 2.56609 8.53323 1.20844 8.91707C1.1887 8.89075 1.21063 8.85126 1.2194 8.81617C1.31591 8.45645 1.44093 8.10771 1.60542 7.77431C1.8094 7.35977 2.20639 7.17333 2.65821 7.27642C3.51579 7.47163 4.37118 7.66903 5.22876 7.86424C5.25069 7.86863 5.27262 7.8796 5.31868 7.89934Z" fill="white"></path><path d="M22.251 3.10986C22.7248 3.10986 23.1963 3.11205 23.6701 3.10767C23.7644 3.10767 23.7973 3.1318 23.7951 3.2305C23.7885 3.4959 23.7907 3.76349 23.7951 4.02889C23.7973 4.11443 23.7754 4.14952 23.6811 4.14952C22.7182 4.14733 21.7532 4.14733 20.7903 4.14952C20.7091 4.14952 20.6784 4.12759 20.6784 4.04205C20.6828 3.77226 20.685 3.50029 20.6784 3.2305C20.6762 3.12741 20.7157 3.10986 20.8056 3.10986C21.2882 3.10986 21.7685 3.10986 22.251 3.10986Z" fill="white"></path><path d="M7.2402 6.21946C7.2402 5.91677 7.24459 5.61189 7.23801 5.30921C7.23581 5.19735 7.2731 5.17103 7.37838 5.17322C7.63938 5.1798 7.90258 5.1798 8.16358 5.17322C8.2557 5.17103 8.27982 5.20393 8.27982 5.29166C8.27763 5.88826 8.27544 6.48705 8.27982 7.08365C8.27982 7.16919 8.24912 7.20648 8.17016 7.22183C8.01443 7.25473 7.85652 7.28983 7.70298 7.33369C7.55603 7.37537 7.42444 7.30737 7.28845 7.28105C7.22046 7.26789 7.24239 7.21087 7.24239 7.16919C7.2402 6.85335 7.2402 6.5353 7.2402 6.21946Z" fill="white"></path><path d="M6.2093 6.10321C6.2093 6.37957 6.2093 6.65375 6.2093 6.93012C6.2093 7.0025 6.20492 7.03759 6.11061 7.01346C5.83206 6.94108 5.54912 6.87747 5.26837 6.81825C5.196 6.8029 5.17188 6.77438 5.17188 6.702C5.17407 6.22823 5.17407 5.75446 5.17188 5.28289C5.17188 5.19735 5.19819 5.17103 5.28154 5.17322C5.55351 5.17761 5.82328 5.17761 6.09525 5.17322C6.18518 5.17103 6.21369 5.19954 6.2115 5.28947C6.20492 5.56145 6.2093 5.83342 6.2093 6.10321Z" fill="white"></path><path d="M9.30832 6.05056C9.30832 5.79394 9.31051 5.53512 9.30612 5.2785C9.30612 5.20173 9.33025 5.17322 9.40921 5.17541C9.68995 5.1798 9.9707 5.1776 10.2492 5.17541C10.3194 5.17541 10.3458 5.19734 10.3458 5.26972C10.3436 5.71498 10.3436 6.16023 10.3458 6.60768C10.3458 6.67568 10.3216 6.70638 10.258 6.72174C9.97727 6.78754 9.69653 6.85334 9.41579 6.92353C9.33464 6.94327 9.30174 6.93011 9.30394 6.83798C9.31271 6.57259 9.30832 6.31158 9.30832 6.05056Z" fill="white"></path><path d="M8.27747 3.63177C8.27747 3.77434 8.27528 3.91691 8.27747 4.05728C8.27967 4.12309 8.25335 4.14502 8.18974 4.14502C7.90023 4.14282 7.61291 4.14282 7.32339 4.14502C7.2554 4.14502 7.23785 4.11431 7.24005 4.0529C7.24224 3.76776 7.24224 3.48481 7.24005 3.19967C7.24005 3.12729 7.26417 3.10317 7.33436 3.10536C7.61949 3.10755 7.90242 3.10755 8.18755 3.10536C8.26213 3.10536 8.27967 3.13606 8.27967 3.20406C8.27528 3.34882 8.27747 3.49139 8.27747 3.63177Z" fill="white"></path><path d="M21.7115 23.794C20.7246 23.794 19.7354 23.7918 18.7484 23.7962C18.6409 23.7962 18.6058 23.7721 18.6102 23.6602C18.619 23.3992 18.6168 23.136 18.6102 22.875C18.608 22.7829 18.63 22.7478 18.7309 22.7478C20.7202 22.75 22.7095 22.75 24.701 22.7478C24.7953 22.7478 24.8282 22.7719 24.826 22.8706C24.8195 23.136 24.8195 23.4036 24.826 23.6712C24.8282 23.7809 24.7888 23.7984 24.6901 23.7984C23.6965 23.794 22.7051 23.794 21.7115 23.794Z" fill="white"></path><path d="M21.7115 24.8181C22.6941 24.8181 23.6789 24.8203 24.6615 24.8137C24.7997 24.8137 24.8304 24.8532 24.826 24.9826C24.8151 25.2261 24.8151 25.4695 24.826 25.713C24.8304 25.838 24.7909 25.8643 24.6725 25.8643C22.8301 25.86 20.9877 25.8622 19.1432 25.8622C19.0094 25.8622 18.8756 25.8534 18.744 25.8643C18.6277 25.8731 18.608 25.8271 18.6102 25.724C18.6168 25.4673 18.619 25.2085 18.6102 24.9519C18.6058 24.84 18.6431 24.8159 18.7484 24.8159C19.7354 24.8203 20.7245 24.8181 21.7115 24.8181Z" fill="white"></path><path d="M10.3436 21.7264C10.3392 22.8757 9.41145 23.7969 8.26216 23.7947C7.12384 23.7903 6.19607 22.8516 6.20045 21.7022C6.20484 20.5683 7.14796 19.6427 8.28409 19.6514C9.43558 19.6624 10.348 20.5836 10.3436 21.7264Z" fill="white"></path><path d="M8.79513 15.5176C9.66149 15.5198 10.3524 16.2173 10.3436 17.0771C10.3348 17.9391 9.64833 18.6212 8.79075 18.619C7.92659 18.6168 7.2335 17.9171 7.24227 17.0595C7.25104 16.1975 7.93755 15.5154 8.79513 15.5176Z" fill="white"></path><path d="M6.97257 18.9103C6.68305 19.0551 6.41547 19.2261 6.17859 19.4477C6.0141 19.6012 5.86056 19.7657 5.73774 19.9543C5.69168 20.0245 5.65878 20.0179 5.59736 19.9763C5.22231 19.7109 5.06878 19.1845 5.24425 18.748C5.4241 18.3027 5.89785 18.0351 6.36283 18.1141C6.41108 18.1229 6.45056 18.1338 6.4703 18.1821C6.53171 18.3159 6.60409 18.4431 6.69183 18.5615C6.77956 18.6778 6.87606 18.7897 6.97257 18.9103Z" fill="white"></path></svg>