<svg xmlns="http://www.w3.org/2000/svg" width="30" height="30" viewBox="0 0 30 30" fill="none"><path d="M12.2265 14.7942C12.2265 10.3188 12.2265 5.84342 12.2265 1.36805C12.2265 0.72303 12.551 0.245658 13.1097 0.0638021C13.2226 0.0268626 13.3383 0.00128555 13.4596 0.00696856C13.8349 0.0211761 14.2159 -0.0328107 14.5884 0.0353853C14.9919 0.109264 15.2769 0.353635 15.4547 0.720189C15.5026 0.819641 15.5534 0.850895 15.6607 0.850895C17.0772 0.848054 18.4938 0.84806 19.9076 0.84806C20.2293 0.84806 20.3675 0.984447 20.3675 1.31406C20.3675 3.93677 20.3675 6.55948 20.3675 9.18218C20.3675 9.52032 20.2321 9.65387 19.8963 9.65387C18.522 9.65387 17.1478 9.65671 15.7735 9.65103C15.6212 9.65103 15.5901 9.69081 15.5901 9.83857C15.5929 15.9535 15.5929 22.0684 15.5929 28.1833C15.5929 28.8397 15.3559 29.3767 14.7972 29.7291C14.2497 30.0729 13.6712 30.09 13.1069 29.7774C12.5256 29.4535 12.2406 28.9335 12.2293 28.2657C12.2208 27.7031 12.2265 27.1405 12.2265 26.5807C12.2265 22.6537 12.2265 18.7239 12.2265 14.7942ZM12.9855 14.8197C12.9855 19.2553 12.9855 23.6881 12.9855 28.1236C12.9855 28.1975 12.9855 28.2686 12.9884 28.3424C13.0053 28.8056 13.3354 29.1579 13.8123 29.2318C14.213 29.2915 14.6533 29.0045 14.7887 28.5982C14.8367 28.4504 14.831 28.2998 14.831 28.1492C14.831 19.2439 14.831 10.3387 14.831 1.43341C14.831 1.38226 14.831 1.32827 14.831 1.27712C14.8226 0.975921 14.625 0.768498 14.3259 0.759974C14.0466 0.751449 13.7672 0.754291 13.4878 0.759974C13.2536 0.765657 13.0533 0.919094 13.0053 1.12937C12.9855 1.22029 12.9884 1.31407 12.9884 1.40784C12.9855 5.87752 12.9855 10.35 12.9855 14.8197ZM17.5993 7.96886C16.9728 7.96886 16.3492 7.9717 15.7227 7.96602C15.6268 7.96602 15.5845 7.98307 15.5873 8.09389C15.5958 8.32121 15.5929 8.55137 15.5873 8.78153C15.5845 8.86962 15.6014 8.9094 15.7058 8.9094C16.9672 8.90656 18.2286 8.90656 19.4899 8.9094C19.5915 8.9094 19.6085 8.87246 19.6085 8.78153C19.6028 8.55705 19.6 8.33258 19.6085 8.11094C19.6141 7.98876 19.5689 7.96602 19.4589 7.96602C18.8409 7.9717 18.2201 7.96886 17.5993 7.96886ZM17.5993 2.50465C18.2257 2.50465 18.8494 2.50181 19.4758 2.5075C19.5718 2.5075 19.6141 2.4876 19.6085 2.37962C19.6 2.16083 19.6028 1.94203 19.6085 1.72324C19.6113 1.63231 19.5915 1.59538 19.4899 1.59538C18.2286 1.59822 16.9672 1.59822 15.7058 1.59538C15.6042 1.59538 15.5873 1.63515 15.5873 1.72324C15.5929 1.93067 15.5986 2.14094 15.5845 2.34837C15.576 2.48476 15.6268 2.5075 15.751 2.5075C16.369 2.50181 16.9841 2.50465 17.5993 2.50465ZM17.5993 5.64452C18.2145 5.64452 18.8268 5.63883 19.442 5.64735C19.5831 5.65019 19.6197 5.60473 19.6113 5.47118C19.6 5.3149 19.5972 5.15862 19.6113 5.00518C19.6254 4.85458 19.5633 4.829 19.4279 4.829C18.7111 4.83468 17.9944 4.83184 17.2748 4.83184C16.764 4.83184 16.2533 4.83468 15.7425 4.829C15.6183 4.82616 15.5817 4.86878 15.5901 4.98812C15.5986 5.15293 15.6014 5.32058 15.5901 5.48539C15.5817 5.62178 15.6353 5.64735 15.7566 5.64735C16.3718 5.64167 16.9841 5.64452 17.5993 5.64452ZM17.6078 3.25481C16.9841 3.25481 16.3577 3.25765 15.734 3.25197C15.6155 3.25197 15.5845 3.28606 15.5901 3.39972C15.5986 3.57021 15.5986 3.74354 15.5901 3.91403C15.5845 4.03054 15.6127 4.07884 15.7397 4.07316C16.0021 4.06179 16.2674 4.07032 16.5298 4.07032C17.5005 4.07032 18.4712 4.06748 19.442 4.07316C19.5831 4.07316 19.6197 4.03338 19.6085 3.89983C19.5972 3.74071 19.5972 3.5759 19.6085 3.41677C19.6169 3.2889 19.5831 3.24913 19.4504 3.25197C18.8381 3.25765 18.2229 3.25481 17.6078 3.25481ZM17.6049 6.40604C16.9813 6.40604 16.3548 6.40888 15.7312 6.40319C15.6296 6.40319 15.5817 6.42308 15.5873 6.53675C15.5958 6.72428 15.5929 6.91183 15.5873 7.09937C15.5845 7.19314 15.6127 7.22439 15.7086 7.22155C16.9672 7.21871 18.2286 7.21871 19.4871 7.22155C19.5887 7.22155 19.6085 7.18461 19.6056 7.09652C19.6 6.91467 19.5972 6.73281 19.6056 6.55095C19.6113 6.43445 19.5774 6.40035 19.4617 6.40319C18.8437 6.40888 18.2257 6.40604 17.6049 6.40604Z" fill="white"></path><path d="M5.41722 0.006986C7.06519 0.006986 8.71598 0.006986 10.3639 0.006986C10.6772 0.006986 10.8183 0.146221 10.8183 0.461628C10.8183 1.11802 10.8352 1.77441 10.8126 2.42795C10.7872 3.18095 10.728 3.93394 10.6828 4.68694C10.6461 5.30071 10.6095 5.91163 10.5728 6.52539C10.5248 7.32386 10.4768 8.12516 10.4289 8.92362C10.3837 9.68231 10.3386 10.441 10.2934 11.1968C10.2454 12.001 10.1975 12.8051 10.1495 13.6121C10.1043 14.3651 10.062 15.1181 10.0169 15.8711C9.96889 16.6809 9.91809 17.4908 9.87012 18.3006C9.82497 19.0593 9.78264 19.8179 9.73749 20.5738C9.6867 21.395 9.64719 22.2162 9.57947 23.0345C9.51457 23.8159 8.8091 24.5292 8.01051 24.6428C7.90328 24.657 7.8807 24.6968 7.87224 24.7963C7.80734 25.7311 7.73397 26.6631 7.66624 27.5951C7.62109 28.2288 7.5703 28.8596 7.53644 29.4933C7.51951 29.7831 7.42356 29.9934 7.03132 29.9905C5.93644 29.9763 4.83873 29.9848 3.74385 29.9848C3.44191 29.9848 3.30928 29.8485 3.28953 29.5416C3.23591 28.7431 3.17101 27.9446 3.11457 27.1462C3.05813 26.379 3.0017 25.6118 2.95372 24.8417C2.94526 24.7139 2.92268 24.6599 2.77877 24.6343C1.91528 24.4922 1.2606 23.7165 1.21545 22.8271C1.16466 21.8297 1.09694 20.8324 1.03768 19.8378C0.981239 18.8774 0.930446 17.917 0.871187 16.9566C0.814749 16.0103 0.752668 15.067 0.69623 14.1207C0.648258 13.3365 0.608753 12.5522 0.560782 11.768C0.504344 10.8189 0.442263 9.86701 0.385825 8.91794C0.337853 8.13937 0.298348 7.3608 0.250377 6.58223C0.205227 5.81502 0.165721 5.04497 0.109283 4.27776C0.0133399 2.9792 -0.0120577 1.68063 0.00487351 0.379222C0.00769537 0.146219 0.174186 0.00415039 0.428154 0.00415039C2.08741 0.00699189 3.75231 0.006986 5.41722 0.006986ZM5.40311 2.97352C4.13609 2.97352 2.87189 2.97352 1.60487 2.97352C1.36784 2.97352 1.1308 2.97352 0.89094 2.97352C0.834502 2.97352 0.780886 2.96216 0.78653 3.05877C0.820392 3.56171 0.845789 4.06465 0.87683 4.57044C0.924801 5.3689 0.972774 6.17021 1.02075 6.96867C1.0659 7.72735 1.10822 8.48603 1.15337 9.24187C1.20135 10.0574 1.25214 10.8729 1.30011 11.6856C1.34526 12.4329 1.38759 13.1802 1.43274 13.9275C1.48071 14.7373 1.5315 15.5472 1.57948 16.357C1.62463 17.11 1.66695 17.863 1.7121 18.616C1.76008 19.4145 1.80805 20.2158 1.85602 21.0142C1.89552 21.6365 1.92092 22.2616 1.97736 22.8811C2.03097 23.4806 2.51069 23.9211 3.11175 23.9239C4.6412 23.9324 6.17065 23.9324 7.70011 23.9239C8.25601 23.9211 8.69905 23.546 8.81757 23.0004C8.85425 22.8328 8.85425 22.6595 8.86554 22.489C8.91351 21.7161 8.95584 20.9432 9.00099 20.1675C9.04896 19.369 9.09693 18.5677 9.1449 17.7692C9.19005 17.0049 9.2352 16.2433 9.28035 15.479C9.32832 14.7004 9.37629 13.9218 9.42427 13.1433C9.46942 12.3647 9.51457 11.5861 9.55972 10.8075C9.60487 10.029 9.65566 9.2504 9.70363 8.47183C9.74878 7.69325 9.79393 6.91468 9.83908 6.13611C9.89834 5.13306 9.95478 4.13285 10.0197 3.1298C10.0281 2.99909 9.99711 2.96499 9.86448 2.96499C8.38018 2.97636 6.89305 2.97352 5.40311 2.97352ZM5.41157 24.6798C4.87824 24.6798 4.34773 24.6826 3.81439 24.6769C3.71281 24.6769 3.67894 24.7025 3.69023 24.8076C3.70998 24.9667 3.71845 25.1287 3.72974 25.2907C3.789 26.0835 3.84826 26.8762 3.90469 27.669C3.93856 28.1464 3.97524 28.6238 4.00628 29.1011C4.01193 29.1978 4.03732 29.2432 4.1502 29.2432C4.98829 29.2375 5.82356 29.2375 6.66166 29.2432C6.75478 29.2432 6.79429 29.2233 6.80275 29.1182C6.84508 28.476 6.8987 27.8338 6.94667 27.1888C7.00593 26.396 7.05954 25.6032 7.12162 24.8105C7.13009 24.7082 7.11316 24.6769 7.00593 24.6769C6.47542 24.6826 5.94208 24.6798 5.41157 24.6798ZM5.41439 0.757147C3.91034 0.757147 2.40911 0.757144 0.90505 0.754303C0.789353 0.754303 0.744202 0.774193 0.747024 0.904902C0.755489 1.29419 0.755489 1.68631 0.747024 2.0756C0.744202 2.18642 0.766777 2.22904 0.888117 2.22904C3.89905 2.2262 6.90998 2.2262 9.92374 2.22904C10.0451 2.22904 10.0677 2.18926 10.0677 2.07844C10.062 1.69484 10.0564 1.3084 10.0677 0.924795C10.0705 0.782719 10.0253 0.757147 9.8927 0.757147C8.39993 0.757147 6.90716 0.757147 5.41439 0.757147Z" fill="white"></path><path d="M23.5703 29.9877C22.2412 29.9877 20.9149 29.9849 19.5858 29.9905C19.377 29.9905 19.2359 29.9167 19.1145 29.7547C18.3301 28.7261 17.8137 27.5696 17.492 26.3193C17.1731 25.0804 17.0772 23.8188 17.1872 22.5458C17.3368 20.8381 17.8221 19.2355 18.7731 17.8005C19.5096 16.6866 20.4408 15.783 21.6937 15.2829C23.511 14.5583 25.1985 14.8652 26.7392 16.0302C27.9385 16.9367 28.7286 18.1557 29.2704 19.5452C29.8941 21.1393 30.1001 22.7987 29.9562 24.5008C29.8066 26.254 29.2987 27.8878 28.3167 29.3569C28.2122 29.5132 28.0965 29.6581 27.9865 29.8087C27.8934 29.9366 27.772 29.9877 27.614 29.9877C26.268 29.9877 24.9191 29.9877 23.5703 29.9877ZM23.5533 29.2376C24.8147 29.2376 26.0761 29.2375 27.3346 29.2404C27.4391 29.2404 27.504 29.2091 27.5632 29.1239C27.899 28.655 28.1812 28.1549 28.4154 27.6264C28.8867 26.5523 29.1435 25.4243 29.2225 24.2536C29.293 23.1994 29.2112 22.1565 28.9741 21.1279C28.9488 21.0142 28.9205 21.0199 28.8359 21.0739C28.675 21.1762 28.5114 21.2757 28.3421 21.3637C27.1597 21.9661 25.887 22.2304 24.5777 22.3327C23.3925 22.4265 22.2158 22.3611 21.0475 22.1196C20.0768 21.9207 19.1428 21.6195 18.3047 21.0711C18.1833 20.9915 18.1861 21.0711 18.1664 21.1506C17.8193 22.6566 17.8024 24.1683 18.1128 25.68C18.3696 26.9246 18.8324 28.0811 19.5773 29.1182C19.6422 29.2063 19.7043 29.2432 19.8172 29.2432C21.0645 29.2375 22.3089 29.2376 23.5533 29.2376ZM23.5787 21.6138C24.4055 21.6024 25.2295 21.5371 26.0394 21.3637C26.8719 21.1847 27.6733 20.929 28.3957 20.463C28.7343 20.2442 28.7371 20.2414 28.5932 19.8691C28.0966 18.5876 27.3826 17.4595 26.2793 16.6156C25.444 15.9763 24.5015 15.6296 23.4433 15.6637C22.4556 15.6949 21.5837 16.0558 20.8105 16.6639C19.6648 17.5675 18.9481 18.7723 18.4599 20.1305C18.4317 20.2101 18.457 20.2527 18.5191 20.2982C18.8719 20.5653 19.2613 20.767 19.6705 20.9318C20.9234 21.4348 22.2384 21.5939 23.5787 21.6138Z" fill="white"></path><path d="M23.6887 20.446C23.2259 20.4375 22.8055 20.4176 22.3878 20.3409C22.1565 20.2982 22.0069 20.1306 22.0295 19.9317C22.0549 19.7015 22.2411 19.5566 22.4979 19.5964C22.9833 19.6731 23.4714 19.7015 23.9624 19.6816C24.2051 19.6731 24.445 19.6362 24.6877 19.622C24.936 19.6049 25.1053 19.7413 25.1194 19.9601C25.1363 20.1761 24.984 20.3352 24.7441 20.3721C24.3801 20.4233 24.0161 20.4375 23.6887 20.446Z" fill="white"></path></svg>