<svg xmlns="http://www.w3.org/2000/svg" width="50" height="50" viewBox="0 0 50 50" fill="none"><circle cx="25" cy="25" r="25" fill="#EA5B0B"></circle><path d="M19.0249 13.0249C17.4403 14.6096 16.55 16.7589 16.55 19C16.5521 21.1361 17.2911 23.2062 18.6422 24.8608L19.0249 13.0249ZM19.0249 13.0249C20.6096 11.4403 22.7589 10.55 25 10.55C27.2411 10.55 29.3904 11.4403 30.9751 13.0249C32.5597 14.6096 33.45 16.7589 33.45 19C33.4479 21.1362 32.7089 23.2062 31.3578 24.8609L25 32.6315L18.6422 24.8609L19.0249 13.0249ZM35.6837 30.9812C34.1989 30.0042 32.0849 29.2436 29.5434 28.8188L32.2122 25.5572L32.2122 25.5571C33.7227 23.7055 34.5484 21.3896 34.55 19V19C34.55 16.4672 33.5438 14.0381 31.7529 12.2471C29.9619 10.4562 27.5328 9.45 25 9.45C22.4672 9.45 20.0381 10.4562 18.2471 12.2471C16.4562 14.0381 15.45 16.4672 15.45 19V19C15.4523 21.3899 16.2789 23.7059 17.7903 25.5571L17.7903 25.5572L20.4591 28.8188C17.9164 29.2436 15.8017 30.0042 14.3166 30.9812C12.8157 31.9686 11.95 33.1828 11.95 34.5C11.95 36.213 13.4022 37.7256 15.7455 38.8071C18.0924 39.8903 21.3499 40.55 25 40.55C28.6501 40.55 31.9076 39.8903 34.2545 38.8071C36.5978 37.7256 38.05 36.213 38.05 34.5C38.05 33.1828 37.1843 31.9686 35.6837 30.9812ZM25.4257 33.8482L25.4257 33.8481L27.1573 31.7301C28.4122 31.9425 29.4856 32.3361 30.2454 32.8266C31.0131 33.3223 31.45 33.9091 31.45 34.5C31.45 34.847 31.2937 35.2045 30.9935 35.5475C30.6933 35.8906 30.2511 36.2167 29.6857 36.499C28.5549 37.0636 26.9379 37.45 25 37.45C23.0621 37.45 21.4451 37.0636 20.3143 36.499C19.7489 36.2167 19.3067 35.8906 19.0065 35.5475C18.7063 35.2045 18.55 34.847 18.55 34.5C18.55 33.9091 18.9869 33.3222 19.7544 32.8266C20.5141 32.3361 21.587 31.9425 22.8412 31.7301L24.5743 33.8482C24.6259 33.9112 24.6908 33.962 24.7645 33.9969C24.8381 34.0318 24.9185 34.0499 25 34.0499C25.0815 34.0499 25.1619 34.0318 25.2355 33.9969C25.3092 33.962 25.3741 33.9112 25.4257 33.8482ZM25 39.45C21.7527 39.45 18.7595 38.8784 16.5799 37.9703C15.4899 37.5161 14.6058 36.9788 13.995 36.3888C13.3842 35.7988 13.05 35.1596 13.05 34.5C13.05 33.48 13.8962 32.475 15.3628 31.6371C16.8203 30.8044 18.8758 30.1458 21.2686 29.8084L22.0492 30.764C20.6767 31.0671 19.5377 31.5705 18.7364 32.2064C17.9195 32.8546 17.45 33.6438 17.45 34.5C17.45 35.6485 18.293 36.6618 19.6494 37.3852C21.0075 38.1095 22.891 38.55 25 38.55C27.109 38.55 28.9925 38.1095 30.3506 37.3852C31.707 36.6618 32.55 35.6485 32.55 34.5C32.55 33.6438 32.0805 32.8546 31.2634 32.2064C30.4619 31.5705 29.3225 31.0671 27.9493 30.764L28.7299 29.8084C31.1234 30.1458 33.1793 30.8044 34.637 31.6371C36.1038 32.475 36.95 33.48 36.95 34.5C36.95 35.1596 36.6158 35.7988 36.005 36.3888C35.3942 36.9788 34.5101 37.5161 33.4201 37.9703C31.2405 38.8784 28.2473 39.45 25 39.45Z" fill="white" stroke="white" stroke-width="0.1"></path><path d="M30.342 18.5451V16.2352C30.342 16.082 30.2812 15.9352 30.1729 15.8269C30.0646 15.7186 29.9177 15.6577 29.7645 15.6577C28.8087 15.659 27.8718 15.9238 27.0567 16.423C26.2417 16.9222 25.5801 17.6365 25.1446 18.4874C24.7092 17.6365 24.0476 16.9222 23.2325 16.423C22.4175 15.9238 21.4805 15.659 20.5248 15.6577C20.3716 15.6577 20.2247 15.7186 20.1164 15.8269C20.0081 15.9352 19.9473 16.082 19.9473 16.2352V18.5451C19.9473 19.9236 20.4948 21.2455 21.4695 22.2202C22.4442 23.1949 23.7662 23.7425 25.1446 23.7425C26.5231 23.7425 27.845 23.1949 28.8197 22.2202C29.7944 21.2455 30.342 19.9236 30.342 18.5451ZM29.187 16.8537V18.5451C29.1858 19.5169 28.8351 20.4558 28.199 21.1905C27.5629 21.9251 26.6837 22.4064 25.7221 22.5465V20.8551C25.7233 19.8833 26.074 18.9444 26.7101 18.2098C27.3463 17.4751 28.2254 16.9938 29.187 16.8537ZM21.1022 18.5451V16.8537C22.0639 16.9938 22.943 17.4751 23.5791 18.2098C24.2153 18.9444 24.5659 19.8833 24.5671 20.8551V22.5465C23.6055 22.4064 22.7264 21.9251 22.0903 21.1905C21.4541 20.4558 21.1034 19.5169 21.1022 18.5451Z" fill="white"></path><path d="M30.342 18.5451V16.2352C30.342 16.082 30.2812 15.9352 30.1729 15.8269C30.0646 15.7186 29.9177 15.6577 29.7645 15.6577C28.8087 15.659 27.8718 15.9238 27.0567 16.423C26.2417 16.9222 25.5801 17.6365 25.1446 18.4874C24.7092 17.6365 24.0476 16.9222 23.2325 16.423C22.4175 15.9238 21.4805 15.659 20.5248 15.6577C20.3716 15.6577 20.2247 15.7186 20.1164 15.8269C20.0081 15.9352 19.9473 16.082 19.9473 16.2352V18.5451C19.9473 19.9236 20.4948 21.2455 21.4695 22.2202C22.4442 23.1949 23.7662 23.7425 25.1446 23.7425C26.5231 23.7425 27.845 23.1949 28.8197 22.2202C29.7944 21.2455 30.342 19.9236 30.342 18.5451ZM29.187 16.8537V18.5451C29.1858 19.5169 28.8351 20.4558 28.199 21.1905C27.5629 21.9251 26.6837 22.4064 25.7221 22.5465V20.8551C25.7233 19.8833 26.074 18.9444 26.7101 18.2098C27.3463 17.4751 28.2254 16.9938 29.187 16.8537ZM21.1022 18.5451V16.8537C22.0639 16.9938 22.943 17.4751 23.5791 18.2098C24.2153 18.9444 24.5659 19.8833 24.5671 20.8551V22.5465C23.6055 22.4064 22.7264 21.9251 22.0903 21.1905C21.4541 20.4558 21.1034 19.5169 21.1022 18.5451Z" stroke="white"></path></svg>