<svg xmlns="http://www.w3.org/2000/svg" width="28" height="31" viewBox="0 0 28 31" fill="none"><path d="M18.8413 19.354L21.7325 16.0255C23.3284 14.1828 24.2007 11.8781 24.2023 9.5C24.2023 6.98044 23.1398 4.56408 21.2485 2.78249C19.3571 1.00089 16.7919 0 14.1172 0C11.4424 0 8.87721 1.00089 6.98587 2.78249C5.09454 4.56408 4.032 6.98044 4.032 9.5C4.03442 11.8784 4.90768 14.1832 6.50446 16.0255L9.39571 19.354C3.92584 20.1965 0.316406 22.4135 0.316406 25C0.316406 28.3645 6.37866 31 14.1172 31C21.8557 31 27.9179 28.3645 27.9179 25C27.9179 22.4135 24.3085 20.1965 18.8413 19.354ZM5.09359 9.5C5.09359 7.24566 6.04429 5.08365 7.73654 3.48959C9.42879 1.89553 11.724 1 14.1172 1C16.5104 1 18.8055 1.89553 20.4978 3.48959C22.19 5.08365 23.1407 7.24566 23.1407 9.5C23.1385 11.6477 22.3498 13.7289 20.9077 15.3925L14.1172 23.2105L7.32666 15.3925C5.88458 13.7289 5.09586 11.6477 5.09359 9.5ZM13.7063 24.3165C13.7561 24.3738 13.8188 24.42 13.8898 24.4517C13.9609 24.4835 14.0385 24.4999 14.1172 24.4999C14.1958 24.4999 14.2734 24.4835 14.3445 24.4517C14.4155 24.42 14.4782 24.3738 14.528 24.3165L16.3858 22.176C19.0865 22.6 21.0175 23.767 21.0175 25C21.0175 26.45 18.2447 28 14.1172 28C9.98968 28 7.21679 26.45 7.21679 25C7.21679 23.767 9.14783 22.6 11.8469 22.176L13.7063 24.3165ZM14.1172 30C7.21148 30 1.378 27.7105 1.378 25C1.378 22.903 5.06334 20.9285 10.1781 20.255L11.0805 21.2955C8.10163 21.8955 6.15519 23.3275 6.15519 25C6.15519 27.243 9.65262 29 14.1172 29C18.5817 29 22.0791 27.243 22.0791 25C22.0791 23.3275 20.1327 21.8955 17.1523 21.2955L18.0546 20.255C23.171 20.9285 26.8563 22.903 26.8563 25C26.8563 27.7105 21.0229 30 14.1172 30Z" fill="white"></path><path d="M19.7889 9.04563V6.73569C19.7889 6.58253 19.7243 6.43564 19.6094 6.32734C19.4944 6.21905 19.3385 6.1582 19.1759 6.1582C18.1612 6.15946 17.1666 6.42426 16.3013 6.92349C15.436 7.42271 14.7337 8.13702 14.2714 8.98788C13.8092 8.13702 13.1068 7.42271 12.2415 6.92349C11.3763 6.42426 10.3816 6.15946 9.36696 6.1582C9.20437 6.1582 9.04844 6.21905 8.93347 6.32734C8.8185 6.43564 8.75391 6.58253 8.75391 6.73569V9.04563C8.75391 10.4241 9.33521 11.746 10.3699 12.7207C11.4047 13.6954 12.8081 14.243 14.2714 14.243C15.7348 14.243 17.1382 13.6954 18.1729 12.7207C19.2076 11.746 19.7889 10.4241 19.7889 9.04563ZM18.5628 7.35417V9.04563C18.5615 10.0174 18.1892 10.9563 17.5139 11.6909C16.8386 12.4256 15.9053 12.9069 14.8845 13.047V11.3556C14.8858 10.3838 15.258 9.44488 15.9334 8.71025C16.6087 7.97563 17.542 7.49431 18.5628 7.35417ZM9.98002 9.04563V7.35417C11.0009 7.49431 11.9342 7.97563 12.6095 8.71025C13.2848 9.44488 13.6571 10.3838 13.6584 11.3556V13.047C12.6375 12.9069 11.7042 12.4256 11.0289 11.6909C10.3536 10.9563 9.9813 10.0174 9.98002 9.04563Z" fill="white"></path></svg>