<svg xmlns="http://www.w3.org/2000/svg" width="50" height="50" viewBox="0 0 50 50" fill="none"><circle cx="25" cy="25" r="25" fill="#EA5B0B"></circle><g clip-path="url(#clip0_4404_13447)"><path d="M25.0661 14.5938C19.3284 14.5938 14.6602 19.2617 14.6602 24.9997C14.6602 30.7375 19.3284 35.4057 25.0661 35.4057C30.8042 35.4057 35.4721 30.7375 35.4721 24.9997C35.4721 19.2617 30.8042 14.5938 25.0661 14.5938ZM19.8288 32.6145V28.967C19.8316 27.8446 20.6695 26.8995 21.7834 26.7623C23.2556 28.4779 25.8009 28.7698 27.6229 27.4317C27.8894 27.2368 28.1326 27.0123 28.348 26.7623C29.4624 26.8995 30.3004 27.8443 30.3035 28.967V32.6145C28.7759 33.6403 27.0066 34.2418 25.0661 34.2418C23.1257 34.2418 21.3563 33.6403 19.8288 32.6145ZM31.4673 31.6658V28.967C31.4625 27.0976 29.9472 25.5839 28.0775 25.5817C27.8925 25.5817 27.7183 25.67 27.6087 25.8192C27.0142 26.6284 26.0703 27.1067 25.0661 27.1067C24.062 27.1067 23.1177 26.6284 22.5233 25.8192C22.4139 25.67 22.2397 25.5817 22.0548 25.5817C20.1854 25.5839 18.6697 27.0976 18.6649 28.967V31.6658C16.8492 29.9234 15.822 27.5161 15.8206 24.9997C15.8206 19.9036 19.9683 15.7576 25.0644 15.7576C30.1606 15.7576 34.3105 19.9039 34.3105 24.9997C34.3097 27.5161 33.2828 29.9234 31.4673 31.6658Z" fill="white"></path><path d="M39.1906 26.6324C39.3312 25.335 39.2971 24.0245 39.0897 22.7359L40.7002 21.1913C40.8764 21.0225 40.9284 20.7617 40.8307 20.5381L38.9971 16.3466C38.8982 16.1204 38.6675 15.9812 38.4211 15.9997L36.1917 16.1636C35.3893 15.1311 34.4371 14.2241 33.3667 13.4728L33.4321 11.2457C33.4395 10.999 33.2903 10.7745 33.0601 10.6856L28.794 9.03898C28.5647 8.95061 28.3044 9.01568 28.1439 9.2018L26.6993 10.876C25.4016 10.7356 24.0908 10.7694 22.8022 10.9769L21.2576 9.36632C21.0888 9.19015 20.828 9.13815 20.6044 9.23589L16.4132 11.0701C16.187 11.1689 16.0478 11.3997 16.066 11.6457L16.2299 13.8754C15.1974 14.6778 14.2904 15.63 13.5391 16.7001L11.312 16.6347C11.065 16.6265 10.8403 16.776 10.7519 17.007L9.10557 21.2729C9.01692 21.5022 9.08199 21.7621 9.2681 21.923L10.9426 23.3676C10.8019 24.665 10.8357 25.9755 11.0434 27.2641L9.43262 28.8087C9.25645 28.9774 9.20446 29.2383 9.30249 29.4619L11.1364 33.6531C11.2352 33.8792 11.466 34.0185 11.7123 34.0003L13.9417 33.8363C14.7441 34.8689 15.6963 35.7759 16.7664 36.5272L16.7011 38.7543C16.6937 39.0009 16.8428 39.2254 17.0733 39.3144L21.3394 40.961C21.5687 41.0496 21.829 40.9846 21.9896 40.7982L23.4339 39.1237C24.7313 39.2644 26.0418 39.2305 27.3304 39.0231L28.875 40.6336C29.044 40.8098 29.3046 40.8618 29.5282 40.7641L33.7196 38.9302C33.9455 38.8313 34.0848 38.6006 34.0666 38.3545L33.9026 36.1251C34.9352 35.3224 35.8422 34.3702 36.5935 33.2999L38.8206 33.3652C39.0673 33.3723 39.2917 33.2231 39.3807 32.993L41.0273 28.7268C41.1157 28.4975 41.0506 28.2375 40.8645 28.0767L39.1906 26.6324ZM38.443 32.1897L36.3102 32.1269C36.1093 32.1207 35.9198 32.2187 35.8087 32.3861C35.0381 33.5434 34.0717 34.5581 32.9533 35.3844C32.7928 35.5031 32.7041 35.6958 32.7189 35.895L32.8757 38.0289L29.4339 39.5346L27.9563 37.9939C27.8211 37.853 27.6242 37.7894 27.4318 37.8246C26.0585 38.0758 24.6548 38.1121 23.2705 37.932C23.0764 37.9067 22.8826 37.9806 22.7548 38.1289L21.3761 39.7272L17.8766 38.377L17.9391 36.2439C17.945 36.0436 17.8473 35.854 17.6805 35.7427C16.5229 34.9718 15.5082 34.0057 14.6819 32.8873C14.5631 32.7267 14.3705 32.6384 14.1713 32.6529L12.0374 32.8097L10.5317 29.3679L12.072 27.8903C12.2133 27.7551 12.2769 27.5581 12.2417 27.3658C11.9902 25.9925 11.9541 24.5888 12.1343 23.2045C12.1596 23.0104 12.0854 22.8166 11.9374 22.6887L10.3388 21.3095L11.6893 17.81L13.8224 17.8728C14.0227 17.8785 14.2122 17.7807 14.3236 17.6136C15.0945 16.4563 16.0606 15.4419 17.1793 14.6153C17.3398 14.4968 17.4282 14.3039 17.4134 14.105L17.2566 11.9708L20.6984 10.4651L22.176 12.0057C22.3112 12.1467 22.5084 12.2103 22.7005 12.1754C24.0741 11.9236 25.4783 11.8873 26.8629 12.0677C27.057 12.093 27.2508 12.0188 27.3787 11.8708L28.7576 10.2725L32.2569 11.623L32.1941 13.7558C32.1881 13.9564 32.2858 14.1459 32.4529 14.2573C33.6102 15.0279 34.6249 15.9943 35.4512 17.1127C35.57 17.2732 35.7626 17.3616 35.9618 17.3471L38.0958 17.1903L39.6017 20.6321L38.0611 22.1097C37.9202 22.2449 37.8562 22.4418 37.8915 22.6342C38.1429 24.0075 38.1793 25.4111 37.9992 26.7955C37.9739 26.9896 38.0477 27.1831 38.1961 27.3109L39.7938 28.6902L38.443 32.1897Z" fill="white"></path><path d="M25.0663 18.0967C23.025 18.0967 21.3701 19.7513 21.3701 21.7926C21.3701 23.8341 23.025 25.4887 25.0663 25.4887C27.1076 25.4887 28.7624 23.8339 28.7624 21.7926C28.7602 19.7524 27.1067 18.099 25.0663 18.0967ZM25.0663 24.3249C23.6677 24.3249 22.534 23.1911 22.534 21.7926C22.534 20.394 23.6677 19.2603 25.0663 19.2603C26.4648 19.2603 27.5986 20.394 27.5986 21.7926C27.5969 23.1906 26.4643 24.3232 25.0663 24.3249Z" fill="white"></path></g><defs><clipPath id="clip0_4404_13447"><rect width="32" height="32" fill="white" transform="translate(9 9)"></rect></clipPath></defs></svg>