<svg xmlns="http://www.w3.org/2000/svg" width="50" height="50" viewBox="0 0 50 50" fill="none"><circle cx="25" cy="25" r="25" fill="#EA5B0B"></circle><g clip-path="url(#clip0_4404_13439)"><path d="M28.6195 22.0273L23.8115 26.5685L21.504 24.1946C21.2482 23.9313 20.8269 23.9253 20.5638 24.1811C20.3005 24.4371 20.2945 24.8581 20.5503 25.1215L23.3178 27.9624C23.5749 28.2211 23.9904 28.23 24.2582 27.9822L29.5466 22.9942C29.675 22.8731 29.75 22.7059 29.755 22.5295C29.7599 22.3532 29.6946 22.182 29.5732 22.0538C29.3158 21.7863 28.8914 21.7746 28.6195 22.0273Z" fill="white"></path><path d="M25.0519 15.0386C19.5569 15.0386 15.0889 19.5066 15.0889 25.0016C15.0889 30.4968 19.5569 34.9648 25.0519 34.9648C30.5471 34.9648 35.0152 30.4968 35.0152 25.0016C35.0152 19.5066 30.5471 15.0386 25.0519 15.0386ZM25.0519 33.6311C20.2905 33.6311 16.4226 29.7564 16.4226 25.0016C16.4226 20.2467 20.2905 16.3723 25.0519 16.3723C29.818 16.3723 33.6814 20.2358 33.6814 25.0016C33.6814 29.7674 29.818 33.6311 25.0519 33.6311Z" fill="white"></path><path d="M38.7626 21.3339L38.9827 17.3792C38.9981 17.1138 38.8538 16.8645 38.6159 16.7457L35.0948 14.9652L33.3143 11.4441C33.1931 11.2083 32.9454 11.0648 32.6807 11.0773L28.7194 11.2909L25.4183 9.11C25.1959 8.96333 24.9075 8.96333 24.6848 9.11L21.3837 11.2909L17.4294 11.0708C17.1637 11.0551 16.9146 11.1995 16.7958 11.4375L15.0151 14.9587L11.4942 16.7392C11.2582 16.8601 11.1149 17.1078 11.1274 17.3727L11.3473 21.3274L9.16664 24.6284C9.01998 24.8509 9.01998 25.1392 9.16664 25.3619L11.3408 28.6695L11.1206 32.6241C11.1053 32.8896 11.2493 33.1389 11.4874 33.2576L15.0086 35.0381L16.7891 38.5593C16.9099 38.7953 17.1577 38.9386 17.4226 38.9261L21.3772 38.706L24.6782 40.8866C24.8994 41.0379 25.1906 41.0379 25.4118 40.8866L28.7128 38.706L32.6675 38.9261C32.9329 38.9415 33.1819 38.7971 33.301 38.5593L35.0815 35.0381L38.6026 33.2576C38.8384 33.1365 38.9819 32.889 38.9694 32.6241L38.7493 28.6695L40.9299 25.3685C41.0766 25.146 41.0766 24.8574 40.9299 24.6349L38.7626 21.3339ZM37.5221 28.1227C37.4408 28.242 37.4031 28.3855 37.4156 28.5296L37.6221 32.2706L34.2945 33.9511C34.1677 34.0147 34.0648 34.1178 34.0012 34.2447L32.3205 37.5723L28.5795 37.3657C28.4362 37.3605 28.2947 37.3975 28.1726 37.4722L25.0515 39.533L21.9308 37.4722C21.8224 37.399 21.6948 37.3594 21.564 37.3589H21.5307L17.7894 37.5658L16.1089 34.2379C16.0453 34.111 15.9424 34.0081 15.8153 33.9446L12.481 32.2706L12.6878 28.5296C12.693 28.3863 12.6557 28.2449 12.581 28.1227L10.5204 25.0017L12.581 21.8807C12.6625 21.7616 12.7003 21.6178 12.6878 21.474L12.481 17.7327L15.8088 16.0523C15.9357 15.9887 16.0386 15.8858 16.1021 15.7589L17.7826 12.4311L21.5239 12.6379C21.6669 12.6429 21.8083 12.6059 21.9308 12.5311L25.0515 10.4706L28.1726 12.5311C28.2919 12.6127 28.4357 12.6504 28.5795 12.6379L32.3205 12.4311L34.0012 15.7589C34.0648 15.8858 34.1677 15.9887 34.2945 16.0523L37.6221 17.7327L37.4156 21.474C37.4103 21.617 37.4476 21.7585 37.5221 21.8807L39.5829 25.0017L37.5221 28.1227Z" fill="white"></path></g><defs><clipPath id="clip0_4404_13439"><rect width="32" height="32" fill="white" transform="translate(9 9)"></rect></clipPath></defs></svg>