<svg xmlns="http://www.w3.org/2000/svg" width="32" height="32" viewBox="0 0 32 32" fill="none"><g clip-path="url(#clip0_4404_13480)"><path d="M29.0302 4.32145C28.8803 4.24886 28.7051 4.25039 28.5565 4.32572L26.2581 5.49146L24.4594 2.40166C23.8436 1.24758 22.6397 0.529128 21.3317 0.535194H12.4431C11.116 0.538394 9.88649 1.23325 9.19916 2.3686L7.546 5.05524C7.39322 5.30348 7.46801 5.62838 7.71399 5.78476L13.58 9.51769C13.6655 9.57202 13.7646 9.60081 13.8659 9.60088C13.9101 9.60095 13.9542 9.59535 13.997 9.58435C14.1394 9.54829 14.2605 9.4551 14.3319 9.32678L16.5717 5.29681L19.0248 9.93631L16.7914 11.2764C16.5953 11.394 16.496 11.6236 16.5445 11.847C16.5928 12.0704 16.7781 12.2381 17.0053 12.2641L24.942 13.1664C24.962 13.1685 24.9821 13.1696 25.0023 13.1696C25.2066 13.1696 25.3931 13.0528 25.4822 12.8688L29.2775 5.03391C29.4059 4.7688 29.2952 4.44984 29.0302 4.32145ZM13.6744 8.31349L8.72934 5.16716L10.1105 2.92314C10.6039 2.10542 11.4881 1.60448 12.4431 1.60168H14.6082L15.9296 4.25473L13.6744 8.31349ZM24.6871 12.064L18.6888 11.382L20.0065 10.5911C20.2491 10.4453 20.3355 10.1354 20.2033 9.88505L15.8235 1.60168H21.3317C22.258 1.60035 23.1081 2.11416 23.5373 2.93487L25.5894 6.46142C25.7318 6.70513 26.0395 6.79558 26.2912 6.6678L27.6276 5.99054L24.6871 12.064Z" fill="white"></path><path d="M31.5337 15.4689L29.8101 12.026C29.6785 11.7625 29.3582 11.6557 29.0947 11.7873C29.0841 11.7925 29.0737 11.7982 29.0635 11.8042L22.6642 15.5371C22.4135 15.6834 22.3258 16.0033 22.4669 16.2571L24.6917 20.2662H19.7323V18.1331C19.7324 17.8386 19.4937 17.5998 19.1992 17.5996C19.0489 17.5996 18.9055 17.663 18.8044 17.7742L13.4716 23.6403C13.2978 23.8315 13.2862 24.1198 13.4439 24.3244L18.7766 31.257C18.9564 31.4903 19.2913 31.5336 19.5246 31.3538C19.6555 31.2529 19.7322 31.097 19.7323 30.9317V29.3319H23.4652C24.7801 29.3643 25.9967 28.6382 26.5923 27.4654L30.3253 21.0693L31.4345 19.2775C32.1519 18.1188 32.1899 16.6634 31.5337 15.4689ZM25.665 26.9407C25.2541 27.7746 24.3945 28.2922 23.4652 28.2654H19.199C18.9045 28.2654 18.6657 28.5041 18.6657 28.7986V29.3639L14.5595 24.0279L18.6657 19.5122V20.7995C18.6657 21.094 18.9045 21.3328 19.199 21.3328H28.9361L25.665 26.9407ZM30.5252 18.7187L29.5653 20.2652H25.9119L23.6519 16.1979L29.1089 13.0137L30.5887 15.968C31.0664 16.8289 31.0421 17.8807 30.5252 18.7187Z" fill="white"></path><path d="M12.7501 16.3099L9.55048 9.37728C9.45849 9.1769 9.25271 9.05371 9.03267 9.06745L0.500257 9.60072C0.206289 9.61899 -0.0172204 9.87203 0.00104427 10.166C0.0117764 10.3385 0.105366 10.4952 0.252284 10.5862L0.252817 10.5873L2.88933 12.2223L1.12952 15.7462C0.491658 16.9051 0.495324 18.3107 1.13912 19.4663L4.1068 24.5911L5.72956 27.402C6.42648 28.5859 7.69254 29.3182 9.06626 29.3319H11.1994C11.4939 29.3319 11.7326 29.0932 11.7326 28.7986V21.3328C11.7326 21.0383 11.4939 20.7995 11.1994 20.7995H7.21526L9.87524 16.184L12.0745 17.0309C12.3494 17.1365 12.6579 16.9993 12.7636 16.7244C12.8153 16.5901 12.8104 16.4406 12.7501 16.3099ZM10.6661 21.8661V28.2654H9.06626C8.0725 28.2558 7.1564 27.7262 6.65212 26.8698L5.18828 24.3335L6.69852 21.8661H10.6661ZM9.83258 15.0247C9.58754 14.9305 9.31044 15.0287 9.17932 15.2561L4.56648 23.2595L2.06222 18.933C1.60187 18.0919 1.60874 17.0727 2.08035 16.2379L4.0636 12.2628C4.18779 12.0158 4.1026 11.7148 3.86736 11.5696L2.23607 10.5606L8.7351 10.1559L11.2308 15.5633L9.83258 15.0247Z" fill="white"></path></g><defs><clipPath id="clip0_4404_13480"><rect width="32" height="32" fill="white"></rect></clipPath></defs></svg>