<svg xmlns="http://www.w3.org/2000/svg" width="50" height="50" viewBox="0 0 50 50" fill="none"><circle cx="25" cy="25" r="25" fill="#EA5B0B"></circle><g clip-path="url(#clip0_4404_13478)"><path d="M38.0302 13.3215C37.8803 13.2489 37.7051 13.2504 37.5565 13.3257L35.2581 14.4915L33.4594 11.4017C32.8436 10.2476 31.6397 9.52913 30.3317 9.53519H21.4431C20.116 9.53839 18.8865 10.2333 18.1992 11.3686L16.546 14.0552C16.3932 14.3035 16.468 14.6284 16.714 14.7848L22.58 18.5177C22.6655 18.572 22.7646 18.6008 22.8659 18.6009C22.9101 18.6009 22.9542 18.5953 22.997 18.5843C23.1394 18.5483 23.2605 18.4551 23.3319 18.3268L25.5717 14.2968L28.0248 18.9363L25.7914 20.2764C25.5953 20.394 25.496 20.6236 25.5445 20.847C25.5928 21.0704 25.7781 21.2381 26.0052 21.2641L33.942 22.1664C33.962 22.1685 33.9821 22.1696 34.0023 22.1696C34.2066 22.1696 34.3931 22.0528 34.4822 21.8688L38.2775 14.0339C38.4059 13.7688 38.2952 13.4498 38.0302 13.3215ZM22.6744 17.3135L17.7293 14.1672L19.1105 11.9231C19.6039 11.1054 20.4881 10.6045 21.4431 10.6017H23.6082L24.9296 13.2547L22.6744 17.3135ZM33.6871 21.064L27.6888 20.382L29.0065 19.5911C29.2491 19.4453 29.3355 19.1354 29.2033 18.8851L24.8235 10.6017H30.3317C31.258 10.6003 32.1081 11.1142 32.5373 11.9349L34.5894 15.4614C34.7318 15.7051 35.0395 15.7956 35.2912 15.6678L36.6276 14.9905L33.6871 21.064Z" fill="white"></path><path d="M40.5337 24.4689L38.8101 21.026C38.6785 20.7625 38.3582 20.6557 38.0947 20.7873C38.0841 20.7925 38.0737 20.7982 38.0635 20.8042L31.6642 24.5371C31.4135 24.6834 31.3258 25.0033 31.4669 25.2571L33.6917 29.2662H28.7323V27.1331C28.7324 26.8386 28.4937 26.5998 28.1992 26.5996C28.0489 26.5996 27.9055 26.663 27.8044 26.7742L22.4716 32.6403C22.2978 32.8315 22.2862 33.1198 22.4439 33.3244L27.7766 40.257C27.9564 40.4903 28.2913 40.5336 28.5246 40.3538C28.6555 40.2529 28.7322 40.097 28.7323 39.9317V38.3319H32.4652C33.7801 38.3643 34.9967 37.6382 35.5923 36.4654L39.3253 30.0693L40.4345 28.2775C41.1519 27.1188 41.1899 25.6634 40.5337 24.4689ZM34.665 35.9407C34.2541 36.7746 33.3945 37.2922 32.4652 37.2654H28.199C27.9045 37.2654 27.6657 37.5041 27.6657 37.7986V38.3639L23.5595 33.0279L27.6657 28.5122V29.7995C27.6657 30.094 27.9045 30.3328 28.199 30.3328H37.9361L34.665 35.9407ZM39.5252 27.7187L38.5653 29.2652H34.9119L32.6519 25.1979L38.1089 22.0137L39.5887 24.968C40.0664 25.8289 40.0421 26.8807 39.5252 27.7187Z" fill="white"></path><path d="M21.7501 25.3099L18.5505 18.3773C18.4585 18.1769 18.2527 18.0537 18.0327 18.0674L9.50026 18.6007C9.20629 18.619 8.98278 18.872 9.00104 19.166C9.01178 19.3385 9.10537 19.4952 9.25228 19.5862L9.25282 19.5873L11.8893 21.2223L10.1295 24.7462C9.49166 25.9051 9.49532 27.3107 10.1391 28.4663L13.1068 33.5911L14.7296 36.402C15.4265 37.5859 16.6925 38.3182 18.0663 38.3319H20.1994C20.4939 38.3319 20.7326 38.0932 20.7326 37.7986V30.3328C20.7326 30.0383 20.4939 29.7995 20.1994 29.7995H16.2153L18.8752 25.184L21.0745 26.0309C21.3494 26.1365 21.6579 25.9993 21.7636 25.7244C21.8153 25.5901 21.8104 25.4406 21.7501 25.3099ZM19.6661 30.8661V37.2654H18.0663C17.0725 37.2558 16.1564 36.7262 15.6521 35.8698L14.1883 33.3335L15.6985 30.8661H19.6661ZM18.8326 24.0247C18.5875 23.9305 18.3104 24.0287 18.1793 24.2561L13.5665 32.2595L11.0622 27.933C10.6019 27.0919 10.6087 26.0727 11.0804 25.2379L13.0636 21.2628C13.1878 21.0158 13.1026 20.7148 12.8674 20.5696L11.2361 19.5606L17.7351 19.1559L20.2308 24.5633L18.8326 24.0247Z" fill="white"></path></g><defs><clipPath id="clip0_4404_13478"><rect width="32" height="32" fill="white" transform="translate(9 9)"></rect></clipPath></defs></svg>