<svg xmlns="http://www.w3.org/2000/svg" width="50" height="50" viewBox="0 0 50 50" fill="none"><circle cx="25" cy="25" r="25" fill="#EA5B0B"></circle><path d="M37.8416 32.0041L31.6588 25.812C31.5562 25.7146 31.4201 25.6602 31.2787 25.6602C31.1372 25.6602 31.0011 25.7146 30.8985 25.812L29.6724 27.0382L28.2286 25.5975L31.7139 22.0937C33.17 22.0171 35.1104 22.0232 35.1962 22.011C35.5579 21.9558 36.2507 21.3979 38.5957 18.2436C38.6608 18.1544 38.6972 18.0475 38.6999 17.9371V16.5178C38.6997 16.4233 38.6747 16.3306 38.6273 16.2488C38.58 16.167 38.512 16.0991 38.4302 16.0519C38.3485 16.0036 38.2553 15.9782 38.1604 15.9782C38.0655 15.9782 37.9724 16.0036 37.8907 16.0519L35.4108 17.5233C35.1993 17.5907 34.2705 17.8084 33.4765 16.6772C32.6182 15.4511 33.0014 14.8625 33.544 14.3997C34.3541 13.8208 35.1953 13.2867 36.0637 12.7995C36.1421 12.7537 36.2078 12.6891 36.2549 12.6115C36.302 12.5339 36.329 12.4457 36.3335 12.355C36.3369 12.2645 36.3173 12.1746 36.2766 12.0936C36.2358 12.0127 36.1752 11.9434 36.1005 11.8922C36.0238 11.8401 34.157 10.5925 30.9507 11.8339C28.4738 12.7903 28.1274 14.0502 28.0968 14.1912L27.5695 17.9156L24.0628 21.4255L20.9299 18.2835C21.0657 17.942 21.1364 17.5781 21.1384 17.2106C21.1391 16.8289 21.0642 16.4509 20.9179 16.0984C20.7716 15.7459 20.5569 15.4258 20.2862 15.1568C20.2606 15.1299 20.2318 15.1062 20.2004 15.0863L14.8942 11.6347C14.7917 11.5668 14.6689 11.5365 14.5465 11.5488C14.4242 11.5611 14.3099 11.6152 14.2229 11.7021L12.0189 13.9061C11.932 13.9931 11.8778 14.1074 11.8655 14.2298C11.8533 14.3521 11.8836 14.4749 11.9515 14.5774L15.4123 19.8744C15.4331 19.9051 15.4567 19.9338 15.4828 19.9602C15.7512 20.2307 16.0707 20.4451 16.4228 20.5909C16.7749 20.7367 17.1524 20.8109 17.5335 20.8094C17.902 20.8099 18.2671 20.7402 18.6095 20.604L21.7423 23.746L17.9044 27.5838L14.226 28.1049H14.1861C14.0451 28.1387 12.7883 28.482 11.8288 30.9619C10.6027 34.1683 11.8288 36.032 11.8902 36.1117C11.9408 36.1857 12.0091 36.2461 12.0888 36.2873C12.1685 36.3284 12.2572 36.3492 12.3469 36.3477C12.4371 36.3445 12.525 36.3183 12.6022 36.2717C12.6794 36.225 12.7435 36.1594 12.7883 36.081C13.2759 35.2129 13.81 34.3718 14.3884 33.5613C14.8513 33.0187 15.4491 32.6417 16.6691 33.4908C17.8033 34.2909 17.5887 35.2258 17.5151 35.4251L16.0437 37.9049C15.9947 37.9861 15.9682 38.0788 15.9669 38.1737C15.9656 38.2685 15.9896 38.3619 16.0365 38.4443C16.0833 38.5268 16.1513 38.5952 16.2334 38.6427C16.3155 38.6901 16.4087 38.7148 16.5035 38.7142H17.9228C18.0338 38.7122 18.1413 38.6746 18.2293 38.6069C21.448 36.2282 21.9599 35.5415 22.0028 35.1952C22.0028 35.1216 22.0028 33.1812 22.0795 31.7282L25.9081 27.918L27.3672 29.3556L26.1411 30.5818C26.0407 30.6828 25.9844 30.8195 25.9844 30.9619C25.9844 31.1043 26.0407 31.2409 26.1411 31.342L32.3331 37.531C33.0286 38.2254 33.9712 38.6155 34.954 38.6155C35.9368 38.6155 36.8795 38.2254 37.5749 37.531L37.8539 37.252C38.1988 36.9083 38.4726 36.4998 38.6593 36.0501C38.8461 35.6003 38.9422 35.1181 38.9422 34.6311C38.9422 34.1441 38.8461 33.6619 38.6593 33.2122C38.4726 32.7624 38.1988 32.354 37.8539 32.0102L37.8416 32.0041ZM28.4554 18.5502C28.5368 18.4666 28.5894 18.3592 28.6056 18.2436L29.1482 14.4303C29.1819 14.3445 29.5406 13.5444 31.3369 12.8486C32.3518 12.407 33.4722 12.2666 34.5647 12.4439C33.9683 12.789 33.394 13.1709 32.8451 13.5873C31.3706 14.8503 31.8979 16.3002 32.5968 17.2964C33.6911 18.8506 35.1993 18.7739 35.8399 18.5226C35.8645 18.5226 37.627 17.4712 37.627 17.4712V17.7777C36.6216 19.1265 35.4108 20.6254 35 20.9565C34.295 20.9197 32.3331 21.0147 31.4534 21.0638C31.3205 21.0701 31.1948 21.1259 31.1009 21.2201L27.4715 24.8311L26.5518 23.9115L30.0525 20.3955C30.1096 20.3477 30.156 20.2884 30.1889 20.2216C30.2218 20.1548 30.2405 20.0819 30.2437 20.0074C30.2468 19.933 30.2345 19.8588 30.2074 19.7894C30.1803 19.72 30.139 19.657 30.0862 19.6045C30.0335 19.5519 29.9703 19.5109 29.9009 19.4841C29.8314 19.4573 29.7571 19.4452 29.6827 19.4487C29.6083 19.4522 29.5354 19.4711 29.4687 19.5043C29.402 19.5375 29.343 19.5842 29.2954 19.6414L25.7855 23.1482L24.823 22.1826L28.4554 18.5502ZM17.5243 19.7365C17.058 19.7388 16.6088 19.5608 16.2706 19.2399L13.0856 14.3567L14.6735 12.7689L19.5567 15.963C19.8814 16.3104 20.059 16.7701 20.0522 17.2456C20.0453 17.7211 19.8545 18.1755 19.5199 18.5134L18.8179 19.2154C18.6482 19.3853 18.4465 19.5199 18.2245 19.6115C18.0024 19.703 17.7645 19.7497 17.5243 19.7487V19.7365ZM21.1844 31.1182C21.0898 31.2106 21.0339 31.3356 21.028 31.4677C20.979 32.3505 20.884 34.3093 20.9238 35.0143C20.5928 35.4251 19.0846 36.6389 17.742 37.6444H17.4354C17.4354 37.6444 18.4776 35.8879 18.496 35.8573C18.7566 35.2135 18.8363 33.7115 17.2699 32.6141C16.2736 31.9152 14.8176 31.388 13.5577 32.8624C13.1416 33.4116 12.7598 33.9859 12.4143 34.5821C12.2367 33.4893 12.3783 32.3685 12.822 31.3542C13.5209 29.5426 14.3241 29.2085 14.4038 29.1625L18.2324 28.6199C18.3484 28.605 18.4561 28.5522 18.539 28.4697L22.4994 24.5031L23.465 25.4657L19.5934 29.3403C19.5431 29.3897 19.5031 29.4486 19.4758 29.5136C19.4486 29.5786 19.4345 29.6484 19.4345 29.7189C19.4345 29.7894 19.4486 29.8592 19.4758 29.9242C19.5031 29.9892 19.5431 30.0481 19.5934 30.0974C19.6428 30.1478 19.7017 30.1877 19.7667 30.215C19.8317 30.2423 19.9015 30.2564 19.972 30.2564C20.0425 30.2564 20.1123 30.2423 20.1773 30.215C20.2423 30.1877 20.3012 30.1478 20.3506 30.0974L24.2222 26.2259L25.1418 27.1455L21.1844 31.1182ZM19.5229 20.0093L19.5781 19.9602L20.277 19.2613L20.3261 19.2062L28.9091 27.7892L28.106 28.5923L19.5229 20.0093ZM37.0845 36.501L36.8055 36.783C36.3104 37.2757 35.6403 37.5523 34.9418 37.5523C34.2433 37.5523 33.5732 37.2757 33.078 36.783L27.2691 30.9588L28.4953 29.7327L30.0586 28.1724L31.2848 26.9462L37.109 32.7704C37.3533 33.0165 37.5465 33.3084 37.6776 33.6294C37.8086 33.9504 37.8749 34.2941 37.8726 34.6408C37.8704 34.9875 37.7995 35.3304 37.6643 35.6496C37.529 35.9689 37.332 36.2582 37.0845 36.501Z" fill="white"></path><path d="M30.9477 29.8738C30.8983 29.8235 30.8394 29.7835 30.7744 29.7562C30.7094 29.7289 30.6396 29.7148 30.5691 29.7148C30.4986 29.7148 30.4288 29.7289 30.3638 29.7562C30.2988 29.7835 30.2399 29.8235 30.1906 29.8738C30.0904 29.9743 30.0342 30.1105 30.0342 30.2524C30.0342 30.3943 30.0904 30.5304 30.1906 30.6309L34.7886 35.229C34.8385 35.2789 34.8978 35.3185 34.963 35.3455C35.0282 35.3725 35.0981 35.3864 35.1687 35.3864C35.2393 35.3864 35.3092 35.3725 35.3744 35.3455C35.4397 35.3185 35.4989 35.2789 35.5488 35.229C35.5988 35.1791 35.6383 35.1198 35.6654 35.0546C35.6924 34.9894 35.7063 34.9195 35.7063 34.8489C35.7063 34.7783 35.6924 34.7084 35.6654 34.6432C35.6383 34.578 35.5988 34.5187 35.5488 34.4688L30.9477 29.8738Z" fill="white"></path></svg>