<svg xmlns="http://www.w3.org/2000/svg" width="24" height="24" viewBox="0 0 24 24" fill="none"><path d="M10.3001 6.49064C10.2108 6.26426 9.95493 6.15306 9.72847 6.24251L10.0336 7.01576C10.2343 6.93654 10.3327 6.7097 10.2536 6.50899C10.1744 6.30828 9.94757 6.20972 9.74682 6.28902C8.61377 6.73618 7.64675 7.50367 6.95039 8.50855L6.9093 8.48007C6.19041 9.51734 5.81047 10.7351 5.81047 12.0015C5.81047 12.2449 6.00779 12.4421 6.25107 12.4421C6.49436 12.4421 6.69167 12.2448 6.69167 12.0015C6.69167 9.8065 8.01054 7.86793 10.0519 7.06227C10.2783 6.97291 10.3894 6.71703 10.3001 6.49064Z" fill="white" stroke="white" stroke-width="0.1"></path><path d="M14.5732 11.5644C14.3299 11.5644 14.1326 11.7617 14.1326 12.005C14.1326 13.1836 13.1737 14.1425 11.9951 14.1425C10.8166 14.1425 9.85769 13.1836 9.85769 12.005C9.85769 10.8265 10.8166 9.86758 11.9951 9.86758C12.2385 9.86758 12.4357 9.6703 12.4357 9.42698C12.4357 9.18361 12.2384 8.98638 11.9951 8.98638C10.3306 8.98638 8.97649 10.3405 8.97649 12.005C8.97649 13.6696 10.3306 15.0237 11.9951 15.0237C13.6597 15.0237 15.0138 13.6696 15.0138 12.005C15.0138 11.7617 14.8165 11.5644 14.5732 11.5644Z" fill="white" stroke="white" stroke-width="0.1"></path><path d="M18.9296 15.1263C18.847 15.0437 18.7349 14.9972 18.6181 14.9972H15.7697C15.5264 14.9972 15.3292 15.1945 15.3292 15.4378C15.3292 15.6812 15.5265 15.8784 15.7697 15.8784H18.4355L19.4368 16.8797C19.3452 17.064 19.2935 17.2715 19.2935 17.4908C19.2935 18.2508 19.9116 18.8689 20.6716 18.8689C21.4315 18.8689 22.0497 18.2508 22.0497 17.4908C22.0497 16.7309 21.4315 16.1128 20.6716 16.1128C20.452 16.1128 20.2443 16.1647 20.0598 16.2565L18.9296 15.1263ZM20.6716 17.9878C20.3976 17.9878 20.1747 17.7648 20.1747 17.4909C20.1747 17.217 20.3977 16.9941 20.6716 16.9941C20.9455 16.9941 21.1685 17.217 21.1685 17.4909C21.1685 17.7648 20.9455 17.9878 20.6716 17.9878Z" fill="white" stroke="white" stroke-width="0.1"></path><mask id="mask0_1_8" style="mask-type:alpha" maskUnits="userSpaceOnUse" x="1" y="1" width="23" height="22"><path d="M23.0009 1H1.00085V23H23.0009V1Z" fill="white"></path><path d="M20.6723 5.18242C19.9399 5.18242 19.3442 5.77818 19.3442 6.51051C19.3442 6.73466 19.4002 6.94584 19.4987 7.13124L18.4569 8.17295H14.1827C13.6397 7.86247 13.0298 7.6652 12.3905 7.60719V6.90111H16.5095C16.6517 6.90111 16.7827 6.82376 16.8515 6.69923L18.0385 4.54802C18.1995 4.61748 18.3768 4.65615 18.563 4.65615C19.2953 4.65615 19.8911 4.06039 19.8911 3.32805C19.8911 2.59576 19.2953 2 18.563 2C17.8307 2 17.2349 2.59576 17.2349 3.32809C17.2349 3.5842 17.308 3.82338 17.434 4.02644L16.2789 6.11987H12.3905V2.39224C12.3905 2.17649 12.2156 2.00164 11.9999 2.00164H10.2484C10.0327 2.00164 9.85777 2.17653 9.85777 2.39224V3.60099C9.05071 3.80545 8.28229 4.12386 7.56621 4.55068L6.71477 3.69928C6.64149 3.62603 6.54211 3.58486 6.43847 3.58486C6.33488 3.58486 6.2355 3.62607 6.16225 3.6994L3.6933 6.17019C3.54083 6.32277 3.54087 6.56997 3.69338 6.72247L4.54384 7.57297C4.11706 8.28913 3.79865 9.05752 3.59423 9.86454H2.39145C2.17574 9.86454 2.00085 10.0394 2.00085 10.2551V13.7481C2.00085 13.9639 2.17578 14.1387 2.39145 14.1387H3.59431C3.79869 14.9457 4.1171 15.7141 4.54391 16.4302L3.69345 17.2807C3.54095 17.4332 3.54091 17.6804 3.69338 17.833L6.16233 20.3038C6.23558 20.3771 6.33495 20.4183 6.43855 20.4183C6.43859 20.4183 6.43859 20.4183 6.43863 20.4183C6.54223 20.4183 6.64157 20.3772 6.71485 20.3039L7.56625 19.4526C8.28241 19.8793 9.05079 20.1978 9.85777 20.4023V21.6091C9.85777 21.8248 10.0325 21.9996 10.2481 21.9997H11.9996H11.9999C12.1034 21.9997 12.2028 21.9595 12.276 21.8863C12.3493 21.813 12.3905 21.7137 12.3905 21.61V17.8642H16.2782L17.4345 19.9735C17.3082 20.1767 17.235 20.4162 17.235 20.6725C17.235 21.4049 17.8307 22.0006 18.563 22.0006C19.2954 22.0006 19.8911 21.4049 19.8911 20.6725C19.8911 19.9402 19.2953 19.3444 18.563 19.3444C18.3772 19.3444 18.2003 19.3829 18.0396 19.4521L16.852 17.2858C16.7835 17.1607 16.6521 17.083 16.5095 17.083H12.3904V16.0313C12.3904 15.8156 12.2155 15.6407 11.9998 15.6407C9.99321 15.6407 8.36073 14.0082 8.36073 12.0016C8.36073 10.0193 9.95403 8.4023 11.9272 8.36343C11.9495 8.36737 11.9722 8.3698 11.9956 8.3698C13.5074 8.3698 14.8772 9.32139 15.4041 10.7377C15.4627 10.895 15.6117 10.9922 15.7703 10.9922C15.8155 10.9922 15.8615 10.9843 15.9064 10.9676C16.1086 10.8923 16.2116 10.6675 16.1363 10.4653C15.9228 9.89126 15.5948 9.38057 15.1849 8.95415H18.6187C18.7223 8.95415 18.8216 8.91298 18.8949 8.83973L20.0509 7.68376C20.2365 7.78243 20.4479 7.83857 20.6723 7.83857C21.4046 7.83857 22.0004 7.2428 22.0004 6.51047C22.0004 5.77818 21.4046 5.18242 20.6723 5.18242ZM18.563 2.78124C18.8646 2.78124 19.1099 3.02656 19.1099 3.32809C19.1099 3.62963 18.8645 3.87495 18.563 3.87495C18.2615 3.87495 18.0162 3.62963 18.0162 3.32809C18.0162 3.02656 18.2614 2.78124 18.563 2.78124ZM18.563 20.1258C18.8646 20.1258 19.1099 20.3711 19.1099 20.6726C19.1099 20.9742 18.8645 21.2195 18.563 21.2195C18.2614 21.2195 18.0162 20.9742 18.0162 20.6726C18.0162 20.3711 18.2614 20.1258 18.563 20.1258ZM11.6093 7.5984C9.35424 7.79685 7.57949 9.69594 7.57949 12.0016C7.57949 14.3074 9.35416 16.2064 11.6092 16.4049V21.2193L10.6389 21.2187V20.0926C10.6389 19.9085 10.5104 19.7494 10.3304 19.7107C9.39979 19.5108 8.52187 19.147 7.72094 18.6294C7.56633 18.5295 7.36296 18.5511 7.23272 18.6813L6.43867 19.4753L4.52192 17.5572L5.31531 16.7638C5.44547 16.6336 5.46711 16.4302 5.36715 16.2755C4.84959 15.4746 4.48579 14.5967 4.28594 13.6662C4.24726 13.4861 4.08816 13.3576 3.90405 13.3576H2.78205V10.6459H3.90401C4.08816 10.6459 4.24722 10.5173 4.2859 10.3373C4.48579 9.40671 4.84955 8.52883 5.36711 7.7279C5.46707 7.57328 5.44543 7.36988 5.31527 7.23968L4.52188 6.44629L6.43863 4.5281L7.23268 5.32219C7.36292 5.45243 7.56629 5.47395 7.7209 5.37407C8.52179 4.85651 9.39971 4.49267 10.3303 4.29274C10.5103 4.25406 10.6389 4.09496 10.6389 3.91085V2.78288H11.6092V7.5984H11.6093ZM20.6723 7.05733C20.3707 7.05733 20.1254 6.81201 20.1254 6.51047C20.1254 6.20894 20.3707 5.96362 20.6723 5.96362C20.9738 5.96362 21.2191 6.20894 21.2191 6.51047C21.2191 6.81201 20.9738 7.05733 20.6723 7.05733Z" fill="black"></path></mask><g mask="url(#mask0_1_8)"><path d="M20.6723 5.18242C19.9399 5.18242 19.3442 5.77818 19.3442 6.51051C19.3442 6.73466 19.4002 6.94584 19.4987 7.13124L18.4569 8.17295H14.1827C13.6397 7.86247 13.0298 7.6652 12.3905 7.60719V6.90111H16.5095C16.6517 6.90111 16.7827 6.82376 16.8515 6.69923L18.0385 4.54802C18.1995 4.61748 18.3768 4.65615 18.563 4.65615C19.2953 4.65615 19.8911 4.06039 19.8911 3.32805C19.8911 2.59576 19.2953 2 18.563 2C17.8307 2 17.2349 2.59576 17.2349 3.32809C17.2349 3.5842 17.308 3.82338 17.434 4.02644L16.2789 6.11987H12.3905V2.39224C12.3905 2.17649 12.2156 2.00164 11.9999 2.00164H10.2484C10.0327 2.00164 9.85777 2.17653 9.85777 2.39224V3.60099C9.05071 3.80545 8.28229 4.12386 7.56621 4.55068L6.71477 3.69928C6.64149 3.62603 6.54211 3.58486 6.43847 3.58486C6.33488 3.58486 6.2355 3.62607 6.16225 3.6994L3.6933 6.17019C3.54083 6.32277 3.54087 6.56997 3.69338 6.72247L4.54384 7.57297C4.11706 8.28913 3.79865 9.05752 3.59423 9.86454H2.39145C2.17574 9.86454 2.00085 10.0394 2.00085 10.2551V13.7481C2.00085 13.9639 2.17578 14.1387 2.39145 14.1387H3.59431C3.79869 14.9457 4.1171 15.7141 4.54391 16.4302L3.69345 17.2807C3.54095 17.4332 3.54091 17.6804 3.69338 17.833L6.16233 20.3038C6.23558 20.3771 6.33495 20.4183 6.43855 20.4183C6.43859 20.4183 6.43859 20.4183 6.43863 20.4183C6.54223 20.4183 6.64157 20.3772 6.71485 20.3039L7.56625 19.4526C8.28241 19.8793 9.05079 20.1978 9.85777 20.4023V21.6091C9.85777 21.8248 10.0325 21.9996 10.2481 21.9997H11.9996H11.9999C12.1034 21.9997 12.2028 21.9595 12.276 21.8863C12.3493 21.813 12.3905 21.7137 12.3905 21.61V17.8642H16.2782L17.4345 19.9735C17.3082 20.1767 17.235 20.4162 17.235 20.6725C17.235 21.4049 17.8307 22.0006 18.563 22.0006C19.2954 22.0006 19.8911 21.4049 19.8911 20.6725C19.8911 19.9402 19.2953 19.3444 18.563 19.3444C18.3772 19.3444 18.2003 19.3829 18.0396 19.4521L16.852 17.2858C16.7835 17.1607 16.6521 17.083 16.5095 17.083H12.3904V16.0313C12.3904 15.8156 12.2155 15.6407 11.9998 15.6407C9.99321 15.6407 8.36073 14.0082 8.36073 12.0016C8.36073 10.0193 9.95403 8.4023 11.9272 8.36343C11.9495 8.36737 11.9722 8.3698 11.9956 8.3698C13.5074 8.3698 14.8772 9.32139 15.4041 10.7377C15.4627 10.895 15.6117 10.9922 15.7703 10.9922C15.8155 10.9922 15.8615 10.9843 15.9064 10.9676C16.1086 10.8923 16.2116 10.6675 16.1363 10.4653C15.9228 9.89126 15.5948 9.38057 15.1849 8.95415H18.6187C18.7223 8.95415 18.8216 8.91298 18.8949 8.83973L20.0509 7.68376C20.2365 7.78243 20.4479 7.83857 20.6723 7.83857C21.4046 7.83857 22.0004 7.2428 22.0004 6.51047C22.0004 5.77818 21.4046 5.18242 20.6723 5.18242ZM18.563 2.78124C18.8646 2.78124 19.1099 3.02656 19.1099 3.32809C19.1099 3.62963 18.8645 3.87495 18.563 3.87495C18.2615 3.87495 18.0162 3.62963 18.0162 3.32809C18.0162 3.02656 18.2614 2.78124 18.563 2.78124ZM18.563 20.1258C18.8646 20.1258 19.1099 20.3711 19.1099 20.6726C19.1099 20.9742 18.8645 21.2195 18.563 21.2195C18.2614 21.2195 18.0162 20.9742 18.0162 20.6726C18.0162 20.3711 18.2614 20.1258 18.563 20.1258ZM11.6093 7.5984C9.35424 7.79685 7.57949 9.69594 7.57949 12.0016C7.57949 14.3074 9.35416 16.2064 11.6092 16.4049V21.2193L10.6389 21.2187V20.0926C10.6389 19.9085 10.5104 19.7494 10.3304 19.7107C9.39979 19.5108 8.52187 19.147 7.72094 18.6294C7.56633 18.5295 7.36296 18.5511 7.23272 18.6813L6.43867 19.4753L4.52192 17.5572L5.31531 16.7638C5.44547 16.6336 5.46711 16.4302 5.36715 16.2755C4.84959 15.4746 4.48579 14.5967 4.28594 13.6662C4.24726 13.4861 4.08816 13.3576 3.90405 13.3576H2.78205V10.6459H3.90401C4.08816 10.6459 4.24722 10.5173 4.2859 10.3373C4.48579 9.40671 4.84955 8.52883 5.36711 7.7279C5.46707 7.57328 5.44543 7.36988 5.31527 7.23968L4.52188 6.44629L6.43863 4.5281L7.23268 5.32219C7.36292 5.45243 7.56629 5.47395 7.7209 5.37407C8.52179 4.85651 9.39971 4.49267 10.3303 4.29274C10.5103 4.25406 10.6389 4.09496 10.6389 3.91085V2.78288H11.6092V7.5984H11.6093ZM20.6723 7.05733C20.3707 7.05733 20.1254 6.81201 20.1254 6.51047C20.1254 6.20894 20.3707 5.96362 20.6723 5.96362C20.9738 5.96362 21.2191 6.20894 21.2191 6.51047C21.2191 6.81201 20.9738 7.05733 20.6723 7.05733Z" fill="white"></path><path d="M20.6723 5.18242C19.9399 5.18242 19.3442 5.77818 19.3442 6.51051C19.3442 6.73466 19.4002 6.94584 19.4987 7.13124L18.4569 8.17295H14.1827C13.6397 7.86247 13.0298 7.6652 12.3905 7.60719V6.90111H16.5095C16.6517 6.90111 16.7827 6.82376 16.8515 6.69923L18.0385 4.54802C18.1995 4.61748 18.3768 4.65615 18.563 4.65615C19.2953 4.65615 19.8911 4.06039 19.8911 3.32805C19.8911 2.59576 19.2953 2 18.563 2C17.8307 2 17.2349 2.59576 17.2349 3.32809C17.2349 3.5842 17.308 3.82338 17.434 4.02644L16.2789 6.11987H12.3905V2.39224C12.3905 2.17649 12.2156 2.00164 11.9999 2.00164H10.2484C10.0327 2.00164 9.85777 2.17653 9.85777 2.39224V3.60099C9.05071 3.80545 8.28229 4.12386 7.56621 4.55068L6.71477 3.69928C6.64149 3.62603 6.54211 3.58486 6.43847 3.58486C6.33488 3.58486 6.2355 3.62607 6.16225 3.6994L3.6933 6.17019C3.54083 6.32277 3.54087 6.56997 3.69338 6.72247L4.54384 7.57297C4.11706 8.28913 3.79865 9.05752 3.59423 9.86454H2.39145C2.17574 9.86454 2.00085 10.0394 2.00085 10.2551V13.7481C2.00085 13.9639 2.17578 14.1387 2.39145 14.1387H3.59431C3.79869 14.9457 4.1171 15.7141 4.54391 16.4302L3.69345 17.2807C3.54095 17.4332 3.54091 17.6804 3.69338 17.833L6.16233 20.3038C6.23558 20.3771 6.33495 20.4183 6.43855 20.4183C6.43859 20.4183 6.43859 20.4183 6.43863 20.4183C6.54223 20.4183 6.64157 20.3772 6.71485 20.3039L7.56625 19.4526C8.28241 19.8793 9.05079 20.1978 9.85777 20.4023V21.6091C9.85777 21.8248 10.0325 21.9996 10.2481 21.9997H11.9996H11.9999C12.1034 21.9997 12.2028 21.9595 12.276 21.8863C12.3493 21.813 12.3905 21.7137 12.3905 21.61V17.8642H16.2782L17.4345 19.9735C17.3082 20.1767 17.235 20.4162 17.235 20.6725C17.235 21.4049 17.8307 22.0006 18.563 22.0006C19.2954 22.0006 19.8911 21.4049 19.8911 20.6725C19.8911 19.9402 19.2953 19.3444 18.563 19.3444C18.3772 19.3444 18.2003 19.3829 18.0396 19.4521L16.852 17.2858C16.7835 17.1607 16.6521 17.083 16.5095 17.083H12.3904V16.0313C12.3904 15.8156 12.2155 15.6407 11.9998 15.6407C9.99321 15.6407 8.36073 14.0082 8.36073 12.0016C8.36073 10.0193 9.95403 8.4023 11.9272 8.36343C11.9495 8.36737 11.9722 8.3698 11.9956 8.3698C13.5074 8.3698 14.8772 9.32139 15.4041 10.7377C15.4627 10.895 15.6117 10.9922 15.7703 10.9922C15.8155 10.9922 15.8615 10.9843 15.9064 10.9676C16.1086 10.8923 16.2116 10.6675 16.1363 10.4653C15.9228 9.89126 15.5948 9.38057 15.1849 8.95415H18.6187C18.7223 8.95415 18.8216 8.91298 18.8949 8.83973L20.0509 7.68376C20.2365 7.78243 20.4479 7.83857 20.6723 7.83857C21.4046 7.83857 22.0004 7.2428 22.0004 6.51047C22.0004 5.77818 21.4046 5.18242 20.6723 5.18242ZM18.563 2.78124C18.8646 2.78124 19.1099 3.02656 19.1099 3.32809C19.1099 3.62963 18.8645 3.87495 18.563 3.87495C18.2615 3.87495 18.0162 3.62963 18.0162 3.32809C18.0162 3.02656 18.2614 2.78124 18.563 2.78124ZM18.563 20.1258C18.8646 20.1258 19.1099 20.3711 19.1099 20.6726C19.1099 20.9742 18.8645 21.2195 18.563 21.2195C18.2614 21.2195 18.0162 20.9742 18.0162 20.6726C18.0162 20.3711 18.2614 20.1258 18.563 20.1258ZM11.6093 7.5984C9.35424 7.79685 7.57949 9.69594 7.57949 12.0016C7.57949 14.3074 9.35416 16.2064 11.6092 16.4049V21.2193L10.6389 21.2187V20.0926C10.6389 19.9085 10.5104 19.7494 10.3304 19.7107C9.39979 19.5108 8.52187 19.147 7.72094 18.6294C7.56633 18.5295 7.36296 18.5511 7.23272 18.6813L6.43867 19.4753L4.52192 17.5572L5.31531 16.7638C5.44547 16.6336 5.46711 16.4302 5.36715 16.2755C4.84959 15.4746 4.48579 14.5967 4.28594 13.6662C4.24726 13.4861 4.08816 13.3576 3.90405 13.3576H2.78205V10.6459H3.90401C4.08816 10.6459 4.24722 10.5173 4.2859 10.3373C4.48579 9.40671 4.84955 8.52883 5.36711 7.7279C5.46707 7.57328 5.44543 7.36988 5.31527 7.23968L4.52188 6.44629L6.43863 4.5281L7.23268 5.32219C7.36292 5.45243 7.56629 5.47395 7.7209 5.37407C8.52179 4.85651 9.39971 4.49267 10.3303 4.29274C10.5103 4.25406 10.6389 4.09496 10.6389 3.91085V2.78288H11.6092V7.5984H11.6093ZM20.6723 7.05733C20.3707 7.05733 20.1254 6.81201 20.1254 6.51047C20.1254 6.20894 20.3707 5.96362 20.6723 5.96362C20.9738 5.96362 21.2191 6.20894 21.2191 6.51047C21.2191 6.81201 20.9738 7.05733 20.6723 7.05733Z" stroke="white" stroke-width="0.2"></path><path d="M20.6716 10.6281C20.0655 10.6281 19.55 11.0212 19.3658 11.5656H18.2497C18.0064 11.5656 17.8091 11.7629 17.8091 12.0062C17.8091 12.2495 18.0064 12.4468 18.2497 12.4468H19.3658C19.5499 12.9912 20.0655 13.3843 20.6715 13.3843C21.4315 13.3843 22.0496 12.7661 22.0496 12.0062C22.0497 11.2462 21.4315 10.6281 20.6716 10.6281ZM20.6716 12.5031C20.3976 12.5031 20.1747 12.2801 20.1747 12.0062C20.1747 11.7323 20.3977 11.5093 20.6716 11.5093C20.9455 11.5093 21.1684 11.7323 21.1684 12.0062C21.1684 12.2801 20.9455 12.5031 20.6716 12.5031Z" fill="white" stroke="white" stroke-width="0.1"></path></g></svg>