<svg width="12" height="6" viewBox="0 0 12 6" fill="none" xmlns="http://www.w3.org/2000/svg">
<path d="M5.99996 5.49996C5.82472 5.50031 5.6549 5.43927 5.51996 5.32746L1.01996 1.57746C0.8668 1.45016 0.770482 1.26723 0.752197 1.06891C0.733912 0.870586 0.795159 0.673125 0.922463 0.519962C1.04977 0.3668 1.2327 0.270482 1.43102 0.252197C1.62934 0.233912 1.8268 0.295158 1.97996 0.422462L5.99996 3.78246L10.02 0.542463C10.0967 0.480163 10.1849 0.43364 10.2797 0.405566C10.3745 0.377492 10.4738 0.368422 10.5721 0.378876C10.6704 0.38933 10.7656 0.419103 10.8523 0.466483C10.9391 0.513864 11.0156 0.577918 11.0775 0.654963C11.1461 0.732079 11.1982 0.822549 11.2303 0.920704C11.2624 1.01886 11.2738 1.12258 11.264 1.22538C11.2541 1.32818 11.2231 1.42783 11.173 1.5181C11.1228 1.60837 11.0545 1.6873 10.9725 1.74996L6.47246 5.37246C6.33365 5.4666 6.16729 5.51149 5.99996 5.49996Z" fill="#EA5B0B"/>
</svg>
