<svg xmlns="http://www.w3.org/2000/svg" width="28" height="26" viewBox="0 0 28 26" fill="none"><path d="M27.3627 10.8525L23.7574 7.88146V3.25C23.7574 2.82933 23.3953 2.48828 22.9487 2.48828H19.7142C19.2676 2.48828 18.9055 2.82933 18.9055 3.25V3.88309L14.4222 0.188393C14.1173 -0.0628229 13.6622 -0.0627721 13.3573 0.188393L0.416845 10.8525C0.0807199 11.1295 0.0465953 11.6107 0.340671 11.9273C0.500566 12.0995 0.724505 12.1875 0.94963 12.1875C1.13853 12.1875 1.32834 12.1255 1.48172 11.9991L3.80871 10.0815V24.4766H3.37744C2.93085 24.4766 2.5688 24.8176 2.5688 25.2383C2.5688 25.659 2.93085 26 3.37744 26H24.4021C24.8487 26 25.2107 25.659 25.2107 25.2383C25.2107 24.8176 24.8487 24.4766 24.4021 24.4766H23.7574V9.90561L26.2977 11.9991C26.6339 12.2761 27.1448 12.244 27.4388 11.9274C27.7329 11.6107 27.6987 11.1295 27.3627 10.8525ZM20.5228 4.01172H22.1401V6.54866L20.5228 5.21585V4.01172ZM22.1401 24.4766H14.7268V20.7039L15.5598 20.5125C19.12 19.6941 21.3097 16.3 20.441 12.9464C20.3901 12.7501 20.2586 12.5809 20.0754 12.476C19.8922 12.3711 19.6721 12.339 19.4637 12.3869L18.1594 12.6868C16.4389 13.0822 14.9827 14.0884 14.0592 15.5198C14.0003 15.6111 13.9441 15.7035 13.8905 15.7968C13.0274 14.2922 11.5187 13.1231 9.62014 12.6868L8.3158 12.3869C7.88194 12.2874 7.44436 12.5377 7.33853 12.9464C6.46984 16.3 8.65947 19.6941 12.2197 20.5125L13.1095 20.717V24.4765H5.42594V8.74871L13.8898 1.77379L22.1401 8.5728V24.4766ZM15.4413 16.311C16.1405 15.2272 17.2419 14.4658 18.5427 14.1667L18.9984 14.062C19.1881 16.3356 17.6029 18.4747 15.1764 19.0324L14.7206 19.1372C14.6382 18.1548 14.885 17.1733 15.4413 16.311ZM13.0589 19.1373L12.603 19.0325C10.1765 18.4748 8.59144 16.3357 8.78109 14.0621L9.23673 14.1668C10.5376 14.4658 11.639 15.2273 12.3381 16.3111C12.8945 17.1734 13.1413 18.1548 13.0589 19.1373Z" fill="white"></path></svg>