<svg xmlns="http://www.w3.org/2000/svg" width="50" height="50" viewBox="0 0 50 50" fill="none"><circle cx="25" cy="25" r="25" fill="#EA5B0B"></circle><path d="M38.8833 34.0878L27.1103 13.8234C26.569 12.9099 25.7909 12.3687 24.979 12.3687C24.1333 12.3687 23.3552 12.9099 22.8477 13.8234L11.1424 34.0878C10.6011 35.0012 10.5335 35.9484 10.9733 36.6589C11.3792 37.3693 12.225 37.7753 13.3075 37.7753H36.7182C37.7669 37.7753 38.6127 37.3693 39.0524 36.6589C39.4584 35.9484 39.3908 35.0012 38.8833 34.0878ZM37.7669 35.9484C37.5977 36.2191 37.2256 36.3544 36.6843 36.3544H13.2737C12.7324 36.3544 12.3265 36.1852 12.1911 35.9484C12.022 35.6778 12.0897 35.2718 12.3603 34.7982L24.0656 14.5338C24.3362 14.0602 24.6745 13.7895 24.979 13.7895C25.2835 13.7895 25.6218 14.0602 25.8924 14.5338L37.5977 34.7982C37.8684 35.2718 37.936 35.6778 37.7669 35.9484Z" fill="white"></path><path d="M24.979 19.0332C24.573 19.0332 24.2686 19.3377 24.2686 19.7436V29.1485C24.2686 29.5545 24.573 29.8589 24.979 29.8589C25.3849 29.8589 25.6894 29.5545 25.6894 29.1485V19.7436C25.6894 19.3377 25.3849 19.0332 24.979 19.0332Z" fill="white"></path><path d="M24.9793 33.9522C25.6706 33.9522 26.231 33.3918 26.231 32.7005C26.231 32.0091 25.6706 31.4487 24.9793 31.4487C24.288 31.4487 23.7275 32.0091 23.7275 32.7005C23.7275 33.3918 24.288 33.9522 24.9793 33.9522Z" fill="white"></path></svg>