<svg xmlns="http://www.w3.org/2000/svg" width="27" height="26" viewBox="0 0 27 26" fill="none"><path d="M26.7288 10.8525L23.1889 7.88146V3.25C23.1889 2.82933 22.8334 2.48828 22.3949 2.48828H19.2189C18.7804 2.48828 18.4249 2.82933 18.4249 3.25V3.88309L14.0228 0.188393C13.7235 -0.0628229 13.2765 -0.0627721 12.9773 0.188393L0.271215 10.8525C-0.0588197 11.1295 -0.092326 11.6107 0.196421 11.9273C0.353419 12.0995 0.573301 12.1875 0.794348 12.1875C0.979824 12.1875 1.1662 12.1255 1.31679 11.9991L3.60163 10.0815V24.4766H3.17817C2.73967 24.4766 2.38418 24.8176 2.38418 25.2383C2.38418 25.659 2.73967 26 3.17817 26H23.8219C24.2604 26 24.6159 25.659 24.6159 25.2383C24.6159 24.8176 24.2604 24.4766 23.8219 24.4766H23.1889V9.90561L25.6832 11.9991C26.0133 12.2761 26.5149 12.244 26.8036 11.9274C27.0923 11.6107 27.0588 11.1295 26.7288 10.8525V10.8525ZM20.0129 4.01172H21.6009V6.54866L20.0129 5.21585V4.01172ZM21.6009 24.4766H14.3219V20.7039L15.1398 20.5125C18.6355 19.6941 20.7855 16.3 19.9326 12.9464C19.8826 12.7501 19.7535 12.5809 19.5736 12.476C19.3937 12.3711 19.1776 12.339 18.973 12.3869L17.6923 12.6868C16.0029 13.0822 14.5732 14.0884 13.6664 15.5198C13.6086 15.6111 13.5534 15.7035 13.5007 15.7968C12.6533 14.2922 11.1719 13.1231 9.30776 12.6868L8.02706 12.3869C7.60106 12.2874 7.1714 12.5377 7.0675 12.9464C6.21454 16.3 8.3645 19.6941 11.8602 20.5125L12.7339 20.717V24.4765H5.18955V8.74871L13.5 1.77379L21.6009 8.5728V24.4766ZM15.0235 16.311C15.71 15.2272 16.7914 14.4658 18.0687 14.1667L18.5161 14.062C18.7023 16.3356 17.1459 18.4747 14.7634 19.0324L14.3158 19.1372C14.2349 18.1548 14.4772 17.1733 15.0235 16.311ZM12.6842 19.1373L12.2366 19.0325C9.85408 18.4748 8.2977 16.3357 8.48392 14.0621L8.93131 14.1668C10.2086 14.4658 11.2901 15.2273 11.9765 16.3111C12.5228 17.1734 12.7652 18.1548 12.6842 19.1373V19.1373Z" fill="white"></path></svg>