<svg xmlns="http://www.w3.org/2000/svg" width="1200pt" height="1200pt" viewBox="0 0 1200 1200"><path d="m524.48 315.79c0 9.1328-7.3945 16.531-16.531 16.531l-160.14-0.003906c-9.1328 0-16.531-7.4062-16.531-16.531 0-9.1211 7.3945-16.531 16.531-16.531h160.14c9.1328 0.003906 16.527 7.3984 16.527 16.535zm149.72-90.074h-201.83c-9.1328 0-16.531 7.4062-16.531 16.531 0 9.1211 7.3945 16.531 16.531 16.531l201.83-0.003907c9.1328 0 16.531-7.4062 16.531-16.531 0-9.1211-7.3945-16.527-16.531-16.527zm-37.297-40.469h37.309c9.1328 0 16.531-7.4062 16.531-16.531 0-9.1328-7.3945-16.531-16.531-16.531h-37.309c-9.1328 0-16.531 7.4062-16.531 16.531 0 9.1211 7.3945 16.531 16.531 16.531zm37.297 114.01h-118.29c-9.1328 0-16.531 7.4062-16.531 16.531 0 9.1211 7.3945 16.531 16.531 16.531h118.29c9.1328 0 16.531-7.4062 16.531-16.531s-7.3945-16.531-16.531-16.531zm-210.53 90.074c0 9.1328 7.3945 16.531 16.531 16.531l124.45-0.003906c9.1328 0 16.531-7.4062 16.531-16.531 0-9.1328-7.3945-16.531-16.531-16.531l-124.43 0.003906c-9.1328-0.011719-16.543 7.3945-16.543 16.531zm-6.707-204.09h123.88c9.1328 0 16.531-7.4062 16.531-16.531 0-9.1328-7.3945-16.531-16.531-16.531h-123.88c-9.1328 0-16.531 7.4062-16.531 16.531-0.011719 9.1211 7.3945 16.531 16.531 16.531zm-109.15 40.469c-9.1328 0-16.531 7.4062-16.531 16.531 0 9.1211 7.3945 16.531 16.531 16.531h59.215c9.1328 0 16.531-7.4062 16.531-16.531 0-9.1211-7.3945-16.531-16.531-16.531zm94.211 163.62c0-9.1328-7.3945-16.531-16.531-16.531h-77.68c-9.1328 0-16.531 7.4062-16.531 16.531 0 9.1328 7.3945 16.531 16.531 16.531h77.68c9.1367-0.003906 16.531-7.4102 16.531-16.531zm58.422 57h-108.55c-9.1328 0-16.531 7.4062-16.531 16.531 0 9.1328 7.3945 16.531 16.531 16.531h108.55c9.1328 0 16.531-7.4062 16.531-16.531 0.011719-9.125-7.3984-16.531-16.531-16.531zm173.75-73.543h-29.082c-9.1328 0-16.531 7.4062-16.531 16.531 0 9.1328 7.3945 16.531 16.531 16.531h29.082c9.1328 0 16.531-7.4062 16.531-16.531 0.011719-9.125-7.3945-16.531-16.531-16.531zm-44.094 73.543h-64.445c-9.1328 0-16.531 7.4062-16.531 16.531 0 9.1328 7.3945 16.531 16.531 16.531h64.445c9.1328 0 16.531-7.4062 16.531-16.531 0.011719-9.125-7.3945-16.531-16.531-16.531zm511.46 452.41c3.4883 13.016 1.6758 26.645-5.1055 38.387-6.7852 11.742-17.68 20.129-30.699 23.621-4.3359 1.1641-8.7422 1.7383-13.113 1.7383-8.7812 0-17.449-2.3125-25.285-6.832-10.309-5.9492-18.023-15.098-22.113-26.059-22.066-3.0742-42.77-7.4805-62.879-11.766-1.9336-0.41797-3.8438-0.82031-5.7539-1.2227-10.223 18.246-29.582 30.074-51.367 30.074h-74.145l43.359 75.098c4.5312 7.8594 5.7422 17.02 3.3789 25.812-2.3516 8.7812-7.9727 16.125-15.832 20.656l-31.48 18.172c-5.3398 3.0859-11.18 4.5547-16.945 4.5547-11.766 0-23.23-6.0977-29.523-16.996l-73.492-127.29h-93.035l45.051 91.629h61.371c26.105 0 47.34 21.234 47.34 47.34 0 26.105-21.234 47.34-47.34 47.34l-465.89-0.003906c-26.105 0-47.34-21.234-47.34-47.34s21.234-47.34 47.34-47.34h61.371l45.051-91.629-287.72 0.003906c-32.512 0-58.961-26.449-58.961-58.961l0.003906-572.27c0-32.512 26.449-58.961 58.961-58.961h156.05v-56.203c0-4.3828 1.7383-8.5977 4.8359-11.695l116.73-116.73c3.0977-3.0977 7.3086-4.8477 11.695-4.8477h366.59c9.1328 0 16.531 7.4062 16.531 16.531v172.93h156.05c32.512 0 58.961 26.449 58.961 58.961v164.09c24.625-3 48.391 12.516 54.992 37.152l28.055 104.72v-2.4375c52.348 0 94.922 42.586 94.922 94.922 0 34.324-18.809 65.84-48.023 82.531zm-65.938-246.09 29.512 110.16c14.805-11.535 23.977-29.523 23.977-48.883 0.007812-31.273-23.316-57.184-53.488-61.273zm-306.43-363.07v22.848l142.55 0.003907c9.1328 0 16.531 7.4062 16.531 16.531v218.9c3.9414-3.2578 7.9609-6.5039 12.074-9.7109-2.4727-14.742 1.7891-29.363 10.777-40.371l-0.003907-182.32c0-14.277-11.621-25.898-25.898-25.898h-156.04zm38.105 594.52-50.266-187.57-84.539 22.652c-5.0703 1.3594-9.3047 4.6289-11.949 9.207s-3.3555 9.8945-1.9961 14.949l40.055 149.46c1.3594 5.0703 4.6289 9.3047 9.207 11.949 4.5781 2.6445 9.8828 3.3555 14.949 1.9961zm-289.31-298.91c-2.2148 1.0273-4.6055 1.5547-6.9922 1.5547-2.3867 0-4.7773-0.51562-6.9922-1.5547l-69.32-32.34-205.22 207.27c1.9453 0.40234 3.9688 0.61328 6.0234 0.61328h370.1c6.1836-4.4219 13.09-7.9844 20.598-10.52-3.0625-13.078-1.0664-26.633 5.707-38.352 7.0664-12.234 18.441-20.977 32.031-24.613l44.609-11.949-121.24-122.44zm-115.12-47.191-197.11-91.945v284.94c0 1.8984 0.19531 3.7461 0.53906 5.5352zm-150.05-106.5v-42.43l-32.867 27.098zm0-86.008h-126.02v512.18h452.45c-1.7031-3.8086-3.1211-7.7617-4.2109-11.852-4.8125-17.965-3.0117-36.16 3.8828-52.027h-343.41c-34.641 0-62.816-28.176-62.816-62.816v-310.9c0-4.9336 2.2031-9.6133 6.0117-12.758l74.117-61.113zm375.73 519.75c9.2344 5.3281 19.703 7.2852 29.965 5.7305l-23.766-88.703c-21.613 8.4609-33.93 32.043-27.785 54.98 3.1719 11.852 10.836 21.781 21.586 27.992zm187.7-226.37v-192.82l-197.11 91.945 126.18 127.43 19.125-5.1172c19.496-5.2266 36.344-12.562 51.797-21.438zm-14.191-222.7-32.867-27.098v42.43zm47.266 3.918v196.27c14.277-11.168 28.016-23.535 42.465-36.562 1.1406-1.0273 2.2891-2.0586 3.4297-3.0859l-0.003906-231.22h-126.02v0.72266l74.105 61.113c3.8203 3.1367 6.0273 7.8164 6.0273 12.762zm-113.21-319.97h-333.51v100.19c0 9.1328-7.3945 16.531-16.531 16.531h-100.19v230.09l225.12 105.02 225.12-105.02 0.003906-346.81zm-366.57 83.656v-60.27l-60.27 60.27zm-272.78 729.82h574.93c-1.8594-3.3203-3.3789-6.8438-4.5078-10.555-5.1562 1.0391-10.359 1.5547-15.539 1.5547-13.75 0-27.355-3.625-39.637-10.715-1.7031-0.98047-3.3438-2.043-4.9609-3.1328l-496.79-0.003906c-9.1328 0-16.531-7.3945-16.531-16.531v-545.25c0-9.1328 7.3945-16.531 16.531-16.531h142.55v-22.848l-156.05-0.003906c-14.277 0-25.898 11.621-25.898 25.898v572.23c0.003906 14.266 11.621 25.887 25.898 25.887zm647.18 157.76h-465.88c-7.8594 0-14.266 6.4023-14.266 14.266 0 7.8594 6.4023 14.266 14.266 14.266h465.89c7.8594 0 14.266-6.4023 14.266-14.266 0-7.8633-6.4062-14.266-14.281-14.266zm-143.28-124.69h-179.32l-45.051 91.629h269.44zm265.15 91.629-67.824-117.46-38.242 10.25 72.941 126.34c0.24609 0.42969 0.87109 0.58594 1.2969 0.34375l31.473-18.172c0.42969-0.24609 0.60156-0.87109 0.35547-1.3008zm73.605-129.02c-35.059-5.9648-68.926-7.875-107.6 2.4844l-0.76953 0.20703 0.94141 1.6289h93.246c5.1406 0.003906 10.051-1.5898 14.18-4.3203zm49.848-23.793c15.062 3.207 30.477 6.4766 46.371 9.1602l-86.117-321.4c-12.43 10.262-24.148 20.805-35.582 31.125-37.102 33.453-72.332 65.203-125.09 83.094l50.547 188.62c54.621-10.898 101.02-1.0156 149.88 9.4023zm120.36 21.82-102.37-382.02c-2.5117-9.3555-12.16-14.914-21.504-12.418-9.1953 2.4609-14.879 12.305-12.418 21.504l102.37 382.02c1.1992 4.4922 4.1133 8.2656 8.2031 10.629 4.0898 2.3633 8.8047 3 13.297 1.7891 4.4805-1.1992 8.2539-4.1133 10.617-8.2031 2.3555-4.1055 3.0039-8.8164 1.8047-13.301z" fill="#ff7800"></path></svg>