<svg xmlns="http://www.w3.org/2000/svg" width="1200pt" height="1200pt" viewBox="0 0 1200 1200"><path d="m332.76 296.11c0-10.359 8.3906-18.75 18.75-18.75h264.98c10.359 0 18.75 8.3906 18.75 18.75s-8.3906 18.75-18.75 18.75h-264.98c-10.359 0-18.75-8.3906-18.75-18.75zm18.75 118.27h264.98c10.359 0 18.75-8.3906 18.75-18.75s-8.3906-18.75-18.75-18.75h-264.98c-10.359 0-18.75 8.3906-18.75 18.75s8.3906 18.75 18.75 18.75zm94.5 62.484h-94.5c-10.359 0-18.75 8.3906-18.75 18.75s8.3906 18.75 18.75 18.75h94.5c10.359 0 18.75-8.3906 18.75-18.75s-8.3906-18.75-18.75-18.75zm579 291.66c0 70.828-24.75 139.45-70.031 193.97 16.547 38.719 29.109 79.031 37.5 120.28 1.4531 6.2344-0.46875 12.75-4.9688 17.25-3.4219 3.1406-7.875 4.9219-12.516 4.9688-1.5938 0.28125-3.2812 0.28125-4.875 0l-163.5-44.344c-104.06 30.656-216.61 3.5625-295.31-71.156-78.703-74.719-111.56-185.72-86.297-291.24-10.641-1.875-21.141-4.2656-31.5-7.2656l-163.4 44.156c-1.5938 0.1875-3.2344 0.1875-4.875 0-5.5781 0-10.875-2.5312-14.438-6.8438-3.5625-4.3594-5.0156-10.031-3.9375-15.562 8.625-41.203 21.422-81.469 38.156-120.1-67.594-81.188-88.312-191.63-54.656-291.74 33.609-100.17 116.72-175.74 219.61-199.69 102.89-23.953 210.84 7.1719 285.24 82.172 74.391 75 104.58 183.19 79.781 285.89 70.125 12.75 133.5 49.688 179.16 104.39 45.703 54.656 70.734 123.61 70.875 194.86zm-589.26-106.03c21.703-58.125 60.656-108.23 111.61-143.68 50.906-35.391 111.47-54.422 173.53-54.562h16.875c5.4375-21.516 8.2031-43.594 8.25-65.766-0.09375-87.891-43.453-170.11-115.92-219.84-72.469-49.734-164.81-60.562-246.84-29.016-82.031 31.594-143.26 101.53-163.69 187.03-20.438 85.5 2.5312 175.6 61.453 240.84 5.0156 5.6719 6.2344 13.781 3 20.625-13.734 29.812-24.844 60.75-33.141 92.484l137.48-37.5c3.4219-0.98438 7.0781-0.98438 10.5 0 12.047 4.0781 24.375 7.2188 36.891 9.375zm483.24 285c58.078-64.5 81.047-153.24 61.641-237.84-19.406-84.602-78.797-154.4-159.14-187.18-80.391-32.766-171.66-24.328-244.69 22.594-72.984 46.922-118.59 126.47-122.21 213.19-3.5625 86.719 35.297 169.74 104.2 222.52 68.859 52.781 159.14 68.766 241.97 42.75 1.7812-0.51562 3.6094-0.75 5.4844-0.75 1.5938-0.28125 3.2812-0.28125 4.875 0l137.48 37.5c-8.2969-31.781-19.359-62.812-33.094-92.625-3.0938-6.9375-1.7344-15 3.4688-20.531zm-70.5-300h-264.98c-10.359 0-18.75 8.3906-18.75 18.75 0 10.359 8.3906 18.75 18.75 18.75h264.98c10.359 0 18.75-8.3906 18.75-18.75 0-10.359-8.3906-18.75-18.75-18.75zm0 99.984-264.98 0.046876c-10.359 0-18.75 8.3906-18.75 18.75 0 10.359 8.3906 18.75 18.75 18.75h264.98c10.359 0 18.75-8.3906 18.75-18.75 0-10.359-8.3906-18.75-18.75-18.75zm0 99.984-94.5 0.046874c-10.359 0-18.75 8.3906-18.75 18.75 0 10.359 8.3906 18.75 18.75 18.75h94.5c10.359 0 18.75-8.3906 18.75-18.75 0-10.359-8.3906-18.75-18.75-18.75z" fill="#ff7800"></path></svg>