<svg xmlns="http://www.w3.org/2000/svg" width="100pt" height="100pt" viewBox="0 0 100 100"><path d="m12.977 58.551h1.3242v25.594h10.566v-25.594h1.3242c0.77344 0 1.1602-0.93359 0.61328-1.4805l-6.6094-6.6094c-0.33984-0.33984-0.88672-0.33984-1.2266 0l-6.6094 6.6094c-0.54688 0.54688-0.16016 1.4805 0.61328 1.4805z" fill="#ea5b0a"></path><path d="m9 85.848h81.867v1.0078h-81.867z" fill="#ea5b0a"></path><path d="m30.27 46.805h1.3242v37.34h10.566v-37.34h1.3242c0.77344 0 1.1602-0.93359 0.61328-1.4805l-6.6094-6.6094c-0.33984-0.33984-0.88672-0.33984-1.2266 0l-6.6094 6.6094c-0.54688 0.54688-0.16016 1.4805 0.61328 1.4805z" fill="#ea5b0a"></path><path d="m46.969 35.309h1.3242v48.836h10.566v-48.836h1.3242c0.77344 0 1.1602-0.93359 0.61328-1.4805l-6.6094-6.6094c-0.33984-0.33984-0.88672-0.33984-1.2266 0l-6.6094 6.6094c-0.54687 0.54688-0.16016 1.4805 0.61328 1.4805z" fill="#ea5b0a"></path><path d="m63.285 22.977h1.3242v61.168h10.566v-0.29688c-3.4141-0.54688-6.2812-1.8203-6.2812-4.1719v-12.402c0-0.054688 0.003907-0.10938 0.011719-0.16406 0.16016-2.2266 2.9648-3.4453 6.2695-3.9727v-40.16h1.3242c0.77344 0 1.1602-0.93359 0.61328-1.4805l-6.6094-6.6094c-0.33984-0.33984-0.88672-0.33984-1.2266 0l-6.6094 6.6094c-0.54688 0.54688-0.16016 1.4805 0.61328 1.4805z" fill="#ea5b0a"></path><path d="m70.051 67.273h-0.003906v12.402c0 1.5039 2.2227 2.5156 5.1328 3.0078 1.3477 0.22656 2.8438 0.34375 4.332 0.34375 4.7031 0 9.4609-1.1523 9.4609-3.3516v-12.402h-0.003906c-0.050781-2.1758-4.7812-3.3164-9.457-3.3164-1.4883 0-2.9844 0.11719-4.332 0.34375-2.8828 0.48828-5.0938 1.4883-5.1289 2.9727zm17.867 12.402c0 0.9375-3.2773 2.3008-8.4102 2.3008-1.6523 0-3.1094-0.14062-4.332-0.36719-2.5703-0.46875-4.0781-1.2969-4.0781-1.9336v-1.168c0.96094 0.625 2.4375 1.0625 4.0781 1.332 1.3594 0.22266 2.8359 0.33984 4.2422 0.33984 3.4258 0 6.8789-0.61328 8.5-1.7969v1.2969zm0-2.8516h-0.089844c0 0.9375-3.2773 2.2969-8.4102 2.2969-1.582 0-3.0156-0.13281-4.2422-0.35156-2.168-0.38281-3.6641-1.0312-4.0742-1.6641l-0.007812 0.003906v-1.4297c0.96094 0.62891 2.4375 1.0625 4.0781 1.332 1.3594 0.22266 2.8359 0.33984 4.2422 0.33984 3.4258 0 6.8789-0.61328 8.5-1.7969v1.2734zm0-2.8242h-0.089844c0 0.9375-3.2773 2.3008-8.4102 2.3008-1.582 0-3.0156-0.13281-4.2422-0.35156-2.168-0.38281-3.6641-1.0312-4.0742-1.6641l-0.007812 0.003906v-1.9531c0.96094 0.62891 2.4375 1.0625 4.0781 1.332 1.3594 0.22266 2.8359 0.33984 4.2422 0.33984 3.4258 0 6.8789-0.61328 8.5-1.7969v1.793zm0-3.3477h-0.089844c0 0.9375-3.2773 2.3008-8.4102 2.3008-1.582 0-3.0156-0.13281-4.2422-0.35156-2.168-0.38281-3.6641-1.0312-4.0742-1.6641l-0.007812 0.003906v-2.0195c0.92188 0.63672 2.3867 1.0938 4.0781 1.3828 1.3477 0.23047 2.8359 0.35156 4.332 0.35156 3.3672 0 6.75-0.59375 8.4102-1.7344v1.7305zm-8.4102-5.6445c5.1328 0 8.4102 1.3594 8.4102 2.2969s-3.2773 2.3008-8.4102 2.3008c-1.6523 0-3.1094-0.14062-4.332-0.36719-2.5703-0.46875-4.0781-1.2969-4.0781-1.9336 0-0.63672 1.5078-1.4648 4.0781-1.9336 1.2188-0.22266 2.6797-0.36328 4.332-0.36328z" fill="#ea5b0a"></path></svg>