<svg xmlns="http://www.w3.org/2000/svg" width="1200pt" height="1200pt" viewBox="0 0 1200 1200"><g fill="#ea5b0a"><path d="m1187.5 162.5h-775c-6.9023 0-12.5 5.5977-12.5 12.5v187.5h262.5c16.57 0.019531 32.457 6.6094 44.172 18.328 11.719 11.715 18.309 27.602 18.328 44.172v600c0 4.1992-0.42188 8.3867-1.2617 12.5h463.76c3.3164 0 6.4961-1.3164 8.8398-3.6602s3.6602-5.5234 3.6602-8.8398v-850c0-3.3164-1.3164-6.4961-3.6602-8.8398s-5.5234-3.6602-8.8398-3.6602zm-98.484 514.02c-7.0312 7.0352-16.57 10.984-26.516 10.984s-19.484-3.9492-26.516-10.984l-35.984-35.98v209.46c0 13.398-7.1484 25.777-18.75 32.477-11.602 6.6992-25.898 6.6992-37.5 0-11.602-6.6992-18.75-19.078-18.75-32.477v-209.46l-35.984 35.984v-0.003906c-9.4727 9.4766-23.281 13.176-36.223 9.707-12.941-3.4688-23.047-13.574-26.516-26.516-3.4688-12.941 0.23047-26.75 9.707-36.223l98.758-98.758c0.14062-0.14062 0.33594-0.17969 0.48047-0.31641l-0.003906-0.003906c6.957-7.4844 16.684-11.789 26.902-11.902 10.223-0.11328 20.039 3.9727 27.16 11.305l0.17188 0.11328 99.562 99.562c7.0352 7.0312 10.984 16.57 10.984 26.516s-3.9492 19.484-10.984 26.516z"></path><path d="m662.5 412.5h-650c-6.9023 0-12.5 5.5977-12.5 12.5v600c0 3.3164 1.3164 6.4961 3.6602 8.8398s5.5234 3.6602 8.8398 3.6602h650c3.3164 0 6.4961-1.3164 8.8398-3.6602s3.6602-5.5234 3.6602-8.8398v-600c0-3.3164-1.3164-6.4961-3.6602-8.8398s-5.5234-3.6602-8.8398-3.6602zm-237.5 225h-175c-17.863 0-34.371-9.5312-43.301-25-8.9336-15.469-8.9336-34.531 0-50 8.9297-15.469 25.438-25 43.301-25h175c17.863 0 34.371 9.5312 43.301 25 8.9336 15.469 8.9336 34.531 0 50-8.9297 15.469-25.438 25-43.301 25z"></path></g></svg>