<svg xmlns="http://www.w3.org/2000/svg" width="1200pt" height="1200pt" viewBox="0 0 1200 1200"><g fill="#ea5b0a"><path d="m646.88 1057h-93.75c-28.297 0-51.973-20.164-57.418-46.875h-411.33c-6.4727 0-11.719-5.2461-11.719-11.719v-703.12c0-6.4727 5.2461-11.719 11.719-11.719h93.75c6.4727 0 11.719 5.2461 11.719 11.719s-5.2461 11.719-11.719 11.719h-82.031v679.69h410.16c6.4727 0 11.719 5.2461 11.719 11.719 0 19.387 15.77 35.156 35.156 35.156h93.75c19.387 0 35.156-15.77 35.156-35.156 0-6.4727 5.2461-11.719 11.719-11.719h410.16v-679.69h-82.031c-6.4727 0-11.719-5.2461-11.719-11.719s5.2461-11.719 11.719-11.719h93.75c6.4727 0 11.719 5.2461 11.719 11.719v703.12c0 6.4727-5.2461 11.719-11.719 11.719h-411.33c-5.4453 26.711-29.121 46.875-57.418 46.875z"></path><path d="m600 916.41h-421.88c-6.4727 0-11.719-5.2461-11.719-11.719v-726.56c0-6.4727 5.2461-11.719 11.719-11.719h336.91c53.309 0 96.68 43.371 96.68 96.68v641.6c0 6.4727-5.2461 11.719-11.719 11.719zm-410.16-23.438h398.44v-629.88c0-40.387-32.855-73.242-73.242-73.242h-325.2z"></path><path d="m1021.9 916.41h-421.88c-6.4727 0-11.719-5.2461-11.719-11.719v-641.6c0-53.309 43.371-96.68 96.68-96.68h336.91c6.4727 0 11.719 5.2461 11.719 11.719v726.56c0 6.4727-5.2461 11.719-11.719 11.719zm-410.16-23.438h398.44v-703.12h-325.2c-40.387 0-73.242 32.855-73.242 73.242z"></path><path d="m1045.3 1092.2c0 12.945-10.492 23.438-23.438 23.438s-23.438-10.492-23.438-23.438 10.492-23.438 23.438-23.438 23.438 10.492 23.438 23.438"></path><path d="m1092.2 131.25c0 12.945-10.492 23.438-23.438 23.438s-23.438-10.492-23.438-23.438 10.492-23.438 23.438-23.438 23.438 10.492 23.438 23.438"></path><path d="m857.81 84.375c0 12.945-10.492 23.438-23.438 23.438s-23.438-10.492-23.438-23.438 10.492-23.438 23.438-23.438 23.438 10.492 23.438 23.438"></path><path d="m623.44 131.25c0 12.945-10.492 23.438-23.438 23.438s-23.438-10.492-23.438-23.438 10.492-23.438 23.438-23.438 23.438 10.492 23.438 23.438"></path><path d="m459.38 529.69c0 12.945-10.492 23.438-23.438 23.438s-23.438-10.492-23.438-23.438 10.492-23.438 23.438-23.438 23.438 10.492 23.438 23.438"></path><path d="m318.75 107.81c0 12.945-10.492 23.438-23.438 23.438s-23.438-10.492-23.438-23.438 10.492-23.438 23.438-23.438 23.438 10.492 23.438 23.438"></path><path d="m459.38 1068.8c0 12.945-10.492 23.438-23.438 23.438s-23.438-10.492-23.438-23.438 10.492-23.438 23.438-23.438 23.438 10.492 23.438 23.438"></path><path d="m283.59 1150.8c-25.848 0-46.875-21.027-46.875-46.875s21.027-46.875 46.875-46.875 46.875 21.027 46.875 46.875-21.027 46.875-46.875 46.875zm0-70.312c-12.922 0-23.438 10.516-23.438 23.438s10.516 23.438 23.438 23.438 23.438-10.516 23.438-23.438-10.516-23.438-23.438-23.438z"></path><path d="m142.97 142.97c-25.848 0-46.875-21.027-46.875-46.875s21.027-46.875 46.875-46.875 46.875 21.027 46.875 46.875-21.027 46.875-46.875 46.875zm0-70.312c-12.922 0-23.438 10.516-23.438 23.438s10.516 23.438 23.438 23.438 23.438-10.516 23.438-23.438-10.516-23.438-23.438-23.438z"></path><path d="m529.69 846.09h-281.25c-6.4727 0-11.719-5.2461-11.719-11.719v-164.06c0-6.4727 5.2461-11.719 11.719-11.719h281.25c6.4727 0 11.719 5.2461 11.719 11.719v164.06c0 6.4727-5.2461 11.719-11.719 11.719zm-269.53-23.438h257.81v-140.62h-257.81z"></path><path d="m951.56 424.22h-281.25c-6.4727 0-11.719-5.2461-11.719-11.719v-164.06c0-6.4727 5.2461-11.719 11.719-11.719h281.25c6.4727 0 11.719 5.2461 11.719 11.719v164.06c0 6.4727-5.2461 11.719-11.719 11.719zm-269.53-23.438h257.81v-140.62h-257.81z"></path><path d="m342.19 353.91h-93.75c-6.4727 0-11.719-5.2461-11.719-11.719v-70.312c0-6.4727 5.2461-11.719 11.719-11.719h93.75c6.4727 0 11.719 5.2461 11.719 11.719v70.312c0 6.4727-5.2461 11.719-11.719 11.719zm-82.031-23.438h70.312v-46.875h-70.312z"></path><path d="m529.69 353.91h-187.5c-6.4727 0-11.719-5.2461-11.719-11.719v-70.312c0-6.4727 5.2461-11.719 11.719-11.719h187.5c6.4727 0 11.719 5.2461 11.719 11.719v70.312c0 6.4727-5.2461 11.719-11.719 11.719zm-175.78-23.438h164.06v-46.875h-164.06z"></path><path d="m764.06 564.84h-93.75c-6.4727 0-11.719-5.2461-11.719-11.719v-70.312c0-6.4727 5.2461-11.719 11.719-11.719h93.75c6.4727 0 11.719 5.2461 11.719 11.719v70.312c0 6.4727-5.2461 11.719-11.719 11.719zm-82.031-23.438h70.312v-46.875h-70.312z"></path><path d="m951.56 564.84h-187.5c-6.4727 0-11.719-5.2461-11.719-11.719v-70.312c0-6.4727 5.2461-11.719 11.719-11.719h187.5c6.4727 0 11.719 5.2461 11.719 11.719v70.312c0 6.4727-5.2461 11.719-11.719 11.719zm-175.78-23.438h164.06v-46.875h-164.06z"></path><path d="m951.56 635.16h-281.25c-6.4727 0-11.719-5.2461-11.719-11.719s5.2461-11.719 11.719-11.719h281.25c6.4727 0 11.719 5.2461 11.719 11.719s-5.2461 11.719-11.719 11.719z"></path><path d="m951.56 705.47h-281.25c-6.4727 0-11.719-5.2461-11.719-11.719s5.2461-11.719 11.719-11.719h281.25c6.4727 0 11.719 5.2461 11.719 11.719s-5.2461 11.719-11.719 11.719z"></path><path d="m951.56 775.78h-281.25c-6.4727 0-11.719-5.2461-11.719-11.719s5.2461-11.719 11.719-11.719h281.25c6.4727 0 11.719 5.2461 11.719 11.719s-5.2461 11.719-11.719 11.719z"></path><path d="m951.56 846.09h-281.25c-6.4727 0-11.719-5.2461-11.719-11.719s5.2461-11.719 11.719-11.719h281.25c6.4727 0 11.719 5.2461 11.719 11.719s-5.2461 11.719-11.719 11.719z"></path><path d="m529.69 611.72h-281.25c-6.4727 0-11.719-5.2461-11.719-11.719s5.2461-11.719 11.719-11.719h281.25c6.4727 0 11.719 5.2461 11.719 11.719s-5.2461 11.719-11.719 11.719z"></path><path d="m365.62 541.41h-117.19c-6.4727 0-11.719-5.2461-11.719-11.719s5.2461-11.719 11.719-11.719h117.19c6.4727 0 11.719 5.2461 11.719 11.719s-5.2461 11.719-11.719 11.719z"></path><path d="m365.62 471.09h-117.19c-6.4727 0-11.719-5.2461-11.719-11.719s5.2461-11.719 11.719-11.719h117.19c6.4727 0 11.719 5.2461 11.719 11.719s-5.2461 11.719-11.719 11.719z"></path></g></svg>