<svg xmlns="http://www.w3.org/2000/svg" width="512pt" height="512pt" viewBox="0 0 512 512"><path d="m362.96 428.16h-1.3203l-2.4609-12.422h0.019531c17.02-4.5586 28.238-20.738 26.559-38.281l-20.121-213.84c-1.3789-15.398-12.48-28.199-27.539-31.738v-17.32c-4.4609-110-159.54-110.18-164.08 0v17.32h-0.019531c-15.059 3.5391-26.16 16.34-27.539 31.738l-20.121 213.84c-0.96094 10.199 2.3984 20.34 9.3008 27.918 4.5195 4.8984 10.34 8.4414 16.762 10.199l-2.4805 12.578c-6.9219-0.16016-13.621 2.4609-18.621 7.2617-4.9805 4.8203-7.8203 11.441-7.8984 18.359-0.078126 6.9219 2.6211 13.602 7.4805 18.52 4.8789 4.9414 11.52 7.6992 18.441 7.6992h213.64c14.199-0.16016 25.641-11.719 25.641-25.922 0-14.199-11.441-25.758-25.641-25.922zm-13.559-263 20.141 213.84v-0.019531c0.92188 9.2383-4.6992 17.859-13.5 20.762-1.9414-11.559-4.1211-25.441-15.398-31.281l-14.621-147.16c-2.1992-14.301-15.238-24.34-29.621-22.801v-27.039h12.898c2.1602 0 4.2383-0.85938 5.7812-2.3984 1.5195-1.5195 2.3789-3.6016 2.3789-5.7617v-16.141h12.48c10.18 0.039063 18.621 7.8594 19.461 18zm-109.78 138.08c-0.28125-3.3984 0.42188-6.8008 2.0195-9.8203 5.5391-6.3203 9.2617-14.039 10.762-22.34 0.76172-3.5 1.2617-7.0781 1.4414-10.66 7.6797 9.8398 13.621 20.941 17.559 32.82 1.5195 7.1602-0.058594 14.641-4.3398 20.602h-24.32c-1.9219-3.2188-2.9805-6.8594-3.1211-10.602zm-8.0781 26.898h48.5c4.5 0 8.1406 3.6406 8.1406 8.1406v26.422h-64.797v-26.422c0.019531-4.5 3.6602-8.1406 8.1602-8.1406zm53.781-15.699c4.0781-10.68 3.8984-22.52-0.48047-33.078-0.66016-1.4219-16.262-35.121-34.68-48.379v-0.019531c-2.5781-1.8594-6.0195-2.0391-8.8008-0.46094-2.7617 1.5781-4.3594 4.6211-4.0781 7.8008 0.87891 9.1016 0.60156 18.262-0.82031 27.301-0.87891 5.8203-3.5 11.238-7.4805 15.559-4.2188 6.1211-6.2188 13.48-5.6602 20.879 0.21875 3.6406 0.92188 7.2188 2.1211 10.66-10.781 2.7617-18.32 12.461-18.359 23.582v26.422h-19.398l14.16-141.72c0.94141-4.9805 5.4219-8.4805 10.48-8.1797h10.52c7.5-0.058594 70.777 0.039062 76.379 0h0.019531c5.0586-0.32031 9.5586 3.1602 10.559 8.1406l14.078 141.76h-19.379v-26.422 0.019532c-0.019531-11.461-8-21.379-19.18-23.859zm-74.359-178.9c0-9 7.3008-16.301 16.301-16.301h57.578c9 0 16.301 7.3008 16.32 16.301v19.602h-90.199zm20.039 35.898h49.078v27.039l-49.078 0.019531zm25.059-123.58v0.019531c36.539 0.30078 65.941 30.141 65.742 66.68v16.301h-4.8203c-2.3008-16-15.98-27.879-32.141-27.941h-57.578c-16.16 0.058593-29.84 11.941-32.141 27.941h-4.8008v-16.301c-0.21875-36.539 29.18-66.379 65.742-66.68zm-108.36 346.52v0.019532c-3.8008-4.1797-5.6602-9.7812-5.1211-15.418l20.141-213.84-0.019531 0.019531c0.83984-10.141 9.3008-17.961 19.461-18h12.48v16.141c0 2.1602 0.85937 4.2383 2.3984 5.7617 1.5195 1.5391 3.6016 2.3984 5.7617 2.3984h11.898v27.039c-14.262-1.4805-27.121 8.6211-29.078 22.82l-14.699 147.16c-6.6406 3.9414-11.281 10.5-12.781 18.059l-2.5781 13.039c-3-1.0391-5.7188-2.8203-7.8594-5.1797zm26.441-4.7188v0.039063c0.96094-5 5.2812-8.6211 10.359-8.6797h111.84c11.5-0.35938 23-0.10156 34.48 0.73828 3.3984 1.3398 5.8984 4.3398 6.6211 7.9414l7.6016 38.461h-178.5zm188.82 74-213.64 0.039063c-5.2383-0.078125-9.4609-4.3594-9.4609-9.6211s4.2188-9.5391 9.4609-9.6211h213.64c5.2383 0.078124 9.4609 4.3594 9.4609 9.6211s-4.2188 9.5391-9.4609 9.6211z" fill="#fff"></path></svg>