<svg xmlns="http://www.w3.org/2000/svg" width="512pt" height="512pt" viewBox="0 0 512 512"><path d="m255.3 110.89c-1.0508 0.125-2.0547 0.50391-2.9219 1.1094l-15.82 10.68-18.742-3.8281c-2.5977-0.57031-5.2773 0.50781-6.7539 2.7188l-10.48 16.02-18.742 3.6289h0.003906c-2.6055 0.49609-4.6445 2.5352-5.1406 5.1406l-3.6289 18.742-16.02 10.48c-2.2109 1.4727-3.2891 4.1523-2.7188 6.75l3.8281 18.742-10.68 15.82c-1.4883 2.1875-1.4883 5.0625 0 7.2539l10.68 15.719-3.8281 18.742c-0.57031 2.5938 0.50781 5.2734 2.7188 6.75l9.0703 5.9453-54.211 84.336c-1.3867 2.1875-1.3359 4.9922 0.13672 7.125 1.4727 2.1328 4.0781 3.1758 6.6133 2.6484l42.422-8.4648 11.285 39.398v0.003907c0.67187 2.5117 2.7812 4.375 5.3594 4.7266 2.5742 0.35156 5.1094-0.875 6.4297-3.1172l47.156-78.594 5.2383-1.1094 15.82 10.68 0.003906 0.003906c1.0586 0.75781 2.3203 1.1797 3.625 1.207 1.3047-0.027344 2.5703-0.44922 3.6289-1.207l15.82-10.68 5.2383 1.1094 47.156 78.594v-0.003906c1.3203 2.2422 3.8555 3.4688 6.4297 3.1172 2.5781-0.35156 4.6914-2.2148 5.3594-4.7266l11.285-39.398 42.422 8.4648v-0.003906c2.5352 0.52734 5.1406-0.51562 6.6133-2.6484 1.4727-2.1328 1.5273-4.9375 0.13672-7.125l-54.211-84.438 8.9688-5.8438c2.2109-1.4766 3.293-4.1562 2.7227-6.75l-3.8281-18.742 10.68-15.719c1.4883-2.1914 1.4883-5.0664 0-7.2539l-10.68-15.82 3.8281-18.742c0.57031-2.5977-0.51172-5.2773-2.7227-6.75l-16.02-10.48-3.6289-18.742c-0.49219-2.6055-2.5312-4.6445-5.1406-5.1406l-18.742-3.6289-10.48-16.02h0.003906c-1.4766-2.2109-4.1562-3.2891-6.75-2.7188l-18.641 3.8281-15.82-10.68c-1.2656-0.875-2.8047-1.2695-4.332-1.1094zm0.70703 14.207 14.41 9.875h-0.003906c1.4648 1.0195 3.2891 1.3828 5.0391 1.0078l16.93-3.6289 9.5742 14.609-0.003906 0.003906c0.96484 1.4805 2.4922 2.5 4.2305 2.8203l17.23 3.2227 3.2227 17.23c0.32422 1.7383 1.3438 3.2695 2.8242 4.2344l14.609 9.5742-3.6289 17.027c-0.375 1.7461-0.011719 3.5703 1.0078 5.0352l9.875 14.41-9.875 14.309c-1.0195 1.4688-1.3828 3.293-1.0078 5.0391l3.6289 17.027-14.609 9.5703v0.003906c-1.4805 0.96484-2.5 2.4922-2.8242 4.2305l-3.2227 17.23-17.23 3.2227v0.003906c-1.7383 0.32031-3.2656 1.3398-4.2305 2.8203l-9.5742 14.609-16.93-3.6289h0.003907c-1.75-0.375-3.5742-0.011719-5.0391 1.0078l-14.41 9.875-14.41-9.875c-1.4648-1.0195-3.2891-1.3828-5.0352-1.0078l-17.027 3.6289-9.5703-14.609h-0.003906c-0.96484-1.4805-2.4961-2.5-4.2344-2.8203l-17.23-3.2227-3.2227-17.23v-0.003906c-0.32031-1.7383-1.3398-3.2656-2.8203-4.2305l-14.609-9.5703 3.6289-17.027-0.003906-0.003906c0.375-1.7461 0.011718-3.5703-1.0078-5.0391l-9.875-14.309 9.875-14.41c1.0195-1.4648 1.3828-3.2891 1.0078-5.0352l-3.6289-17.027 14.609-9.5742h0.003906c1.4805-0.96484 2.5-2.4961 2.8203-4.2344l3.2227-17.23 17.23-3.2227c1.7383-0.32031 3.2695-1.3398 4.2344-2.8203l9.5703-14.609 17.027 3.6289 0.003907-0.003906c1.7461 0.375 3.5703 0.011719 5.0352-1.0078l14.41-9.875zm0 18.035c-42.66 0-77.387 34.723-77.387 77.387 0 42.664 34.723 77.387 77.387 77.387 42.66 0 77.387-34.723 77.387-77.387 0-42.664-34.723-77.387-77.387-77.387zm0 12.898c35.691 0 64.488 28.797 64.488 64.488 0 35.691-28.797 64.488-64.488 64.488s-64.488-28.797-64.488-64.488c0-35.691 28.797-64.488 64.488-64.488zm38.289 27.711-6.6523 7.0547-41.918 44.738-21.965-19.547-7.2539-6.4492-12.898 14.508 7.2539 6.3477 29.02 25.797 7.0547 6.2461 6.4492-6.8516 48.367-51.59 6.6523-7.0547-14.105-13.199zm43.328 98.547 43.43 67.512-33.453-6.6484-0.003906-0.003906c-3.3203-0.71484-6.625 1.2695-7.5586 4.5312l-8.7656 30.832-33.957-56.527v0.003907c1.4453-0.43359 2.6953-1.3633 3.5273-2.6211l10.48-16.02 18.742-3.6289h-0.003906c2.6094-0.49219 4.6484-2.5312 5.1406-5.1367l2.418-12.293zm-163.23 0.10156 2.3164 12.191-0.003906-0.003907c0.49609 2.6094 2.5352 4.6484 5.1406 5.1406l18.742 3.6289 10.48 16.02h-0.003906c0.83594 1.2578 2.082 2.1875 3.5273 2.6211l-33.855 56.527-8.7656-30.832v-0.003906c-0.93359-3.2656-4.2383-5.2461-7.5586-4.5352l-33.453 6.6484 43.43-67.41z" fill="#fff"></path></svg>