<svg xmlns="http://www.w3.org/2000/svg" width="512pt" height="512pt" viewBox="0 0 512 512"><path d="m512 256c0 141.39-114.61 256-256 256s-256-114.61-256-256 114.61-256 256-256 256 114.61 256 256" fill="#61ce70"></path><path d="m267.6 335.2c0 15.078-23.215 15.758-23.215-0.45312 0-15.062 23.215-15.742 23.215 0.45312zm20.34-191.2v-0.050781c-3.3516-5.8047-7.9609-10.402-13.438-13.566-11.324-6.5352-25.695-6.5352-37.016 0l0.011719 0.023437c-5.5156 3.1875-10.113 7.7695-13.453 13.539l-108.04 187.19-0.023437-0.011719c-10.516 18.211-3.7656 40.504 13.453 50.469l-0.011719 0.023438c5.5273 3.1875 11.828 4.8984 18.504 4.8984h216.12c28.289 0 46.262-30.582 31.941-55.395l-0.023437 0.011719zm88.016 198.69-108.04-187.14-0.011718 0.011718c-5.3164-9.2188-18.477-9.2305-23.816 0l-0.023438-0.011718-108.04 187.18c-0.54297 2.0273-4.082 6.6367 0 13.715 2.6211 4.5352 6.6758 6.8516 11.902 6.8516h216.12c8.1758 0 13.805-6.5742 13.805-13.715 0.011719-4.043-1.8906-6.6875-1.8906-6.8906zm-131.53-123.62c0-15.227 23.125-15.227 23.125 0v83.984c0 15.227-23.125 15.227-23.125 0z" fill="#fff" fill-rule="evenodd"></path></svg>