<svg xmlns="http://www.w3.org/2000/svg" width="100pt" height="100pt" viewBox="0 0 100 100"><path d="m51.141 57.164 18.836 21.047c0.17578 0.19922 0.42969 0.31641 0.70703 0.32422 0.25391 0.007813 0.53125-0.09375 0.70703-0.28516l6.7695-6.7578c0.17969-0.19141 0.29688-0.45313 0.27734-0.72656 0-0.26953-0.11719-0.52344-0.31641-0.70312l-20.996-18.801c1.9492-3.0156 3.0898-6.6133 3.0898-10.477 0-10.664-8.6602-19.32-19.328-19.32-10.664 0-19.324 8.6562-19.324 19.32 0 10.664 8.6602 19.324 19.324 19.324 3.7617 0 7.2812-1.082 10.254-2.9453zm4.8203-4.3008c-0.94141 1.1758-2.0234 2.2383-3.207 3.1641l17.988 20.094 5.293-5.2891zm-15.074-29.43c9.5859 0 17.359 7.7734 17.359 17.352s-7.7734 17.355-17.359 17.355c-9.582 0-17.355-7.7773-17.355-17.355s7.7734-17.352 17.355-17.352zm0 2.2383c-8.3438 0-15.113 6.7734-15.113 15.113s6.7695 15.113 15.113 15.113 15.117-6.7734 15.117-15.113-6.7734-15.113-15.117-15.113zm0 1.9688c7.2617 0 13.148 5.8906 13.148 13.145 0 7.2578-5.8867 13.148-13.148 13.148s-13.145-5.8906-13.145-13.148c0-7.2539 5.8828-13.145 13.145-13.145zm-0.47266 20.5c0.82813 0 1.4961 0.66797 1.4961 1.4922 0 0.82422-0.66797 1.4922-1.4961 1.4922-0.82422 0-1.4727-0.66797-1.4727-1.4922 0-0.82422 0.64844-1.4922 1.4727-1.4922zm-5.1758-11.727v0.0625c0.019531 0.30859 0.16016 0.51563 0.31641 0.65234 0.17578 0.16797 0.41406 0.26953 0.66797 0.26953 0 0 0.98438-0.058594 0.98438-0.98438 0-2.0898 1.6914-3.7891 3.8008-3.7891h0.82422c1.043 0 2.0273 0.41016 2.7539 1.1406 0.73047 0.72656 1.1445 1.7148 1.1445 2.7461v0.15625c0 1.5195-1.0039 2.8555-2.4609 3.2852v0.003906c-2.1641 0.63672-3.6992 2.5508-3.8594 4.7773-0.039062 0.54297 0.375 1.0156 0.90625 1.0547 0.55078 0.039063 1.0234-0.36719 1.0625-0.91016 0.097656-1.4141 1.0625-2.6328 2.4414-3.0352 2.2812-0.67969 3.875-2.7852 3.875-5.1758v-0.15625c0-1.5547-0.62891-3.043-1.7109-4.1406-1.1016-1.0938-2.5977-1.7109-4.1523-1.7109h-0.82422c-3.1914 0-5.7695 2.5742-5.7695 5.7539z" fill="#ea5b0a" fill-rule="evenodd"></path></svg>