<svg xmlns="http://www.w3.org/2000/svg" width="512pt" height="512pt" viewBox="0 0 512 512"><path d="m338.23 202.39c2.7188 2.957 4.1445 6.8711 3.9727 10.887-0.17578 4.0117-1.9414 7.7891-4.9062 10.496l-94.629 86.77 0.003907 0.003907c-2.7969 2.5625-6.4492 3.9883-10.242 3.9922-0.28906 0.011719-0.57812-0.011718-0.86328-0.070312-4.082-0.21875-7.9023-2.0742-10.594-5.1523l-47.465-54.68c-3.4648-4.1016-4.5-9.7266-2.7305-14.793 1.7734-5.0664 6.0898-8.8164 11.352-9.8672 5.2617-1.0508 10.688 0.76172 14.266 4.7617l37.27 42.91 83.148-76.207c2.9727-2.7031 6.8945-4.1211 10.906-3.9414 4.0117 0.17578 7.793 1.9336 10.512 4.8906zm117.1 122.56c2.418-1.6953 3.4219-4.7891 2.457-7.5781l-15.516-50.418c-2.2695-7.1367-2.2695-14.797 0-21.93l15.516-50.418v-0.003907c0.96094-2.793-0.039062-5.8828-2.457-7.582l-42.195-31.676v0.003906c-6.0312-4.4258-10.531-10.625-12.875-17.734l-17.062-49.879c-0.85547-2.8359-3.5039-4.75-6.4688-4.668l-52.746-0.8125c-7.4727-0.066406-14.746-2.4258-20.836-6.7617l-43.156-30.395c-2.3516-1.8047-5.6172-1.8047-7.9688 0l-43.16 30.391 0.003906 0.003907c-6.0898 4.332-13.367 6.6953-20.844 6.7617l-52.746 0.8125c-2.9609-0.085937-5.6133 1.8281-6.4648 4.668l-17.086 49.879c-2.3398 7.1094-6.8438 13.309-12.875 17.734l-42.168 31.668c-2.418 1.6953-3.4219 4.7891-2.4648 7.582l15.523 50.418c2.2695 7.1328 2.2695 14.797 0 21.93l-15.523 50.418c-0.95703 2.793 0.046874 5.8828 2.4648 7.5781l42.195 31.676c6.0312 4.4258 10.531 10.625 12.875 17.73l17.086 49.879h-0.003906c0.82422 2.8594 3.4961 4.7891 6.4688 4.6719l52.754 0.87891c7.4727 0.011718 14.758 2.3789 20.809 6.7695l43.16 30.316h-0.003906c2.3633 1.7617 5.6055 1.7617 7.9688 0l43.156-30.316c6.0586-4.3945 13.352-6.7656 20.836-6.7695l52.746-0.87891c2.9766 0.11719 5.6445-1.8125 6.4688-4.6719l17.086-49.879c2.3398-7.1055 6.8438-13.305 12.875-17.73l42.195-31.676zm31.43-16.512-15.516-50.418v-0.003906c-0.46875-1.3125-0.46875-2.7461 0-4.0586l15.516-50.426v0.003906c2.3164-7.3242 2.2852-15.188-0.085937-22.492-2.3711-7.3047-6.9688-13.684-13.145-18.25l-42.195-31.676 0.003906 0.003906c-1.168-0.78906-2.0156-1.9648-2.3945-3.3203l-17.086-49.879c-2.4414-7.2773-7.0898-13.617-13.301-18.129-6.2109-4.5117-13.676-6.9727-21.352-7.0469l-52.754-0.8125c-1.3984 0.027344-2.7656-0.42578-3.875-1.2852l-43.152-30.32c-6.2539-4.457-13.738-6.8516-21.418-6.8516s-15.164 2.3945-21.418 6.8516l-43.16 30.332c-1.1055 0.85938-2.4727 1.3086-3.875 1.2852l-52.746 0.8125c-7.6758 0.070313-15.141 2.5352-21.352 7.0469-6.2109 4.5117-10.859 10.848-13.301 18.129l-17.086 49.879c-0.37891 1.3555-1.2266 2.5312-2.3945 3.3203l-42.191 31.66c-6.1758 4.5664-10.773 10.945-13.145 18.25-2.375 7.3047-2.4062 15.168-0.09375 22.492l15.523 50.426v-0.003907c0.46094 1.3125 0.46094 2.7461 0 4.0586l-15.523 50.418c-2.3125 7.3242-2.2812 15.188 0.09375 22.492 2.3711 7.3047 6.9688 13.688 13.145 18.254l42.195 31.676-0.003906-0.003907c1.168 0.78906 2.0156 1.9609 2.3945 3.3164l17.086 49.879c2.4141 7.293 7.0586 13.645 13.277 18.16 6.2148 4.5156 13.691 6.9688 21.375 7.0156l52.746 0.8125c1.3945 0.011719 2.7539 0.46094 3.875 1.2891l43.16 30.348c6.25 4.457 13.738 6.8555 21.418 6.8555s15.168-2.3984 21.418-6.8555l43.152-30.332c1.1289-0.82812 2.4844-1.2773 3.8828-1.2891l52.746-0.8125c7.6836-0.046875 15.16-2.4961 21.375-7.0156 6.2188-4.5156 10.863-10.867 13.277-18.16l17.086-49.879c0.37891-1.3555 1.2266-2.5273 2.3945-3.3164l42.195-31.676-0.003906 0.003906c6.1758-4.5664 10.773-10.949 13.145-18.254 2.3711-7.3047 2.4023-15.168 0.085937-22.492zm-230.75 65.512c31.289 0.003906 61.297-12.418 83.426-34.539 22.125-22.125 34.559-52.129 34.562-83.418 0-31.289-12.426-61.297-34.551-83.422-22.125-22.121-52.133-34.551-83.418-34.551-31.289 0-61.297 12.43-83.418 34.559-22.125 22.125-34.551 52.133-34.543 83.422 0.035156 31.27 12.473 61.246 34.582 83.359 22.113 22.113 52.09 34.551 83.359 34.59zm0-266.24v-0.003907c-39.328-0.003906-77.051 15.613-104.86 43.418-27.816 27.805-43.445 65.52-43.449 104.85-0.003906 39.328 15.613 77.047 43.422 104.86 27.805 27.812 65.523 43.441 104.85 43.445 39.328 0.003906 77.047-15.617 104.86-43.426 27.812-27.809 43.438-65.527 43.438-104.86-0.039062-39.312-15.672-77.004-43.465-104.8-27.793-27.801-65.48-43.441-104.79-43.492z" fill="#fff" fill-rule="evenodd"></path></svg>