<svg xmlns="http://www.w3.org/2000/svg" width="512pt" height="512pt" viewBox="0 0 512 512"><path d="m256 32c-59.402 0-116.38 23.602-158.4 65.598-42 42.02-65.598 99-65.598 158.4s23.602 116.38 65.598 158.4c42.02 42 99 65.598 158.4 65.598s116.38-23.602 158.4-65.598c42-42.02 65.598-99 65.598-158.4-0.058594-59.383-23.68-116.32-65.68-158.32s-98.938-65.617-158.32-65.68zm0 432c-55.156 0-108.08-21.918-147.08-60.918-39-39-60.918-91.918-60.918-147.08s21.918-108.08 60.918-147.08c39-39 91.918-60.918 147.08-60.918s108.08 21.918 147.08 60.918c39 39 60.918 91.918 60.918 147.08-0.058594 55.141-22 108.02-60.98 147.02-39 38.98-91.879 60.918-147.02 60.98z" fill="#fff"></path><path d="m394.9 264.78c-0.5-0.21875-1.0195-0.42188-1.5391-0.53906-7.3984-2.5586-64.418-20.98-102.92 5.2383-11.379 8.1016-20.539 18.941-26.641 31.5v-37.199c11.82-9.3984 50.859-43.602 50.859-85.918 0-46.941-50.441-90.082-58.762-90.082l0.019531 0.019531c-1.8008 0-3.5586 0.62109-4.9805 1.7188-3.9219 2.8594-54.02 40.418-54.02 88.34 0 42.32 39.039 76.52 50.859 85.918l0.019531 37.34c-6.1016-12.539-15.238-23.359-26.578-31.441-38.719-26.379-96.137-9-103.48-5.4609v-0.019532c-3.0391 1.1992-5.1602 4-5.4414 7.2617-0.039063 0.55859-0.019531 1.1016 0.058594 1.6406 0.32031 7.8203 4.0781 67.621 42.539 93.84v0.019531c15.359 9.6797 33.262 14.539 51.398 13.941 14.02-0.14063 27.961-2.0391 41.5-5.6602v40.961c0 4.4219 3.5781 8 8 8s8-3.5781 8-8v-41.16c13.559 3.6211 27.539 5.5195 41.578 5.6602 18.102 0.62109 35.98-4.2188 51.316-13.898 38.699-26.359 43.578-86.18 42.961-94.281 0-3.2812-1.8398-6.2617-4.7617-7.7383zm-181.98-86.922c0-33.359 31.82-62.68 43.398-72.219 11.102 8.8789 42.32 38.922 42.32 72.219 0 26.961-20.781 51.262-34.859 64.641v-48.84h0.019531c0-4.4219-3.5781-8-8-8s-8 3.5781-8 8v48.879c-14.102-13.34-34.879-37.621-34.879-64.68zm-49 175.88c-27.578-18.801-33.859-61.598-35.219-76.559 13.578-4.1602 56.004-13.039 83.516 5.6992 23.02 15.699 31.18 48.102 34.059 67.082l-41.5-23.281h-0.019532c-1.8594-1.0391-4.0391-1.3008-6.0781-0.71875-2.0391 0.57812-3.7812 1.9414-4.8203 3.7812-2.1602 3.8594-0.78125 8.7383 3.0586 10.898l37.738 21.18c-19.18 3.8594-49.34 6.5-70.738-8.0781zm183.78-0.16016c-21.699 14.762-52.34 11.84-71.461 7.8789l34.578-20.961c3.7812-2.3008 4.9805-7.2188 2.6797-10.98-2.2812-3.7812-7.1992-5-10.98-2.6992l-37.121 22.5c2.9219-19.02 11.121-51 34.059-66.621 27.578-18.781 69.719-8.9609 84.141-4.7617-1.1211 14.18-8.3789 56.898-35.898 75.637z" fill="#fff"></path></svg>