<svg xmlns="http://www.w3.org/2000/svg" width="100pt" height="100pt" viewBox="0 0 100 100"><path d="m52.145 45.879c3.918 0 7.1055-3.1875 7.1055-7.1055 0-3.918-3.1875-7.1094-7.1055-7.1094-3.9219 0-7.1094 3.1875-7.1094 7.1094 0 3.918 3.1914 7.1055 7.1094 7.1055zm0-12.215c2.8164 0 5.1055 2.293 5.1055 5.1094 0 2.8164-2.2891 5.1055-5.1055 5.1055-2.8164 0-5.1094-2.2891-5.1094-5.1055 0-2.8164 2.293-5.1094 5.1094-5.1094z" fill="#ea5b0a"></path><path d="m80.504 51.723-4.2266-7.4414c0.11719-0.27344 0.21094-0.55859 0.26953-0.85938 0.21094-1.0938-0.019531-2.1992-0.64453-3.1211s-1.5703-1.543-2.6602-1.7539c-0.078126-0.015625-0.15234-0.011719-0.23047-0.019531l-20.734-36.52c-0.27344-0.48047-0.88281-0.64844-1.3633-0.375-0.48047 0.27344-0.64844 0.88281-0.375 1.3633l1.1016 1.9414c-3.6133 0.92188-12.996 3.6367-15.352 7.4609-0.52734 0.85547-0.69141 1.7266-0.51562 2.6016 0.003906 0.019531 0.003906 0.035156 0.007812 0.050781 0.007812 0.03125 0.003906 0.0625 0.011719 0.09375 0.0625 0.24609 0.10156 0.64062-0.25781 1.2188-1.9727 3.2031-11.781 6.0508-15.395 6.8789-0.035156 0.007812-0.066406 0.03125-0.10156 0.046874-0.066406 0.023438-0.125 0.046876-0.18359 0.082032-0.054688 0.03125-0.10547 0.070312-0.14844 0.11328-0.046875 0.042969-0.089843 0.085937-0.12891 0.13672-0.042969 0.054687-0.074219 0.11328-0.10156 0.17578-0.015624 0.03125-0.042968 0.058594-0.054687 0.09375-0.007813 0.023437-0.003906 0.050781-0.011719 0.074219-0.015625 0.0625-0.023437 0.12891-0.027344 0.19531-0.003906 0.066406-0.003906 0.13281 0.003907 0.19922 0.003906 0.023437-0.003907 0.050781 0.003906 0.074219 0.011719 0.042968 0.035156 0.078125 0.050781 0.12109 0.019532 0.046874 0.03125 0.09375 0.058594 0.13672 0.039062 0.070313 0.085938 0.12891 0.14062 0.1875 0.027344 0.03125 0.050781 0.0625 0.082031 0.089844 0.09375 0.078125 0.19922 0.14453 0.31641 0.1875h0.003907l9.9102 3.4219-2.1445 10.266v0.015625c-0.011719 0.0625 0 0.12891 0 0.19141 0 0.070313-0.007813 0.14062 0.003906 0.20703v0.015626c0.027344 0.11719 0.074219 0.22656 0.13672 0.32031 0.007812 0.011719 0.019531 0.019531 0.03125 0.03125 0.0625 0.085938 0.13281 0.16016 0.21875 0.22266 0.03125 0.023438 0.066406 0.035156 0.10156 0.054688 0.074219 0.042968 0.14844 0.078125 0.23047 0.097656 0.019531 0.003906 0.03125 0.019531 0.054688 0.023438 0.066406 0.015624 0.13281 0.019531 0.19922 0.019531h0.003906 0.003907c0.070312 0 0.14453-0.007813 0.21875-0.023438 1.4141-0.32422 13.883-3.2891 16.652-7.7773 0.52734-0.85547 0.69141-1.7266 0.51563-2.6016-0.003907-0.019531-0.003907-0.035156-0.007813-0.050781-0.007813-0.03125-0.003906-0.0625-0.011719-0.09375-0.0625-0.24609-0.10156-0.64062 0.25781-1.2188 1.8555-3.0078 10.621-5.7031 14.672-6.7031l9.7734 17.215c-0.25781 0.10547-0.50781 0.23828-0.74219 0.39844l-0.003906 0.003906-10.133 6.8672h-14.637l-1.3828 0.003906c-2.8633 0-5.9609 0.73438-7.2031 6.1914v0.019532c0 0.007812-0.007813 0.011718-0.007813 0.015624l-2.7383 14.402v0.015625c-0.45312 2.2148 0.96875 4.3945 3.1836 4.8672 0.28906 0.0625 0.58203 0.09375 0.875 0.09375 0.78906 0 1.5625-0.22656 2.2383-0.66406 0.92578-0.60156 1.5625-1.5234 1.7969-2.6055l0.89844-4.2109v30.258c0 2.5391 1.8945 4.0547 5.0742 4.0547 1.8242 0 3.2109-0.51562 4.0703-1.4219 0.86328 0.90625 2.2461 1.4219 4.0703 1.4219 3.1758 0 5.0703-1.5156 5.0703-4.0547l-0.003907-18.863v-20.352l13.5-9.1484h0.003907c0.050781-0.035156 0.09375-0.082031 0.14453-0.11719l3.8281 6.7461c0.18359 0.32422 0.52344 0.50781 0.87109 0.50781 0.16797 0 0.33594-0.042969 0.49219-0.12891 0.47656-0.27734 0.64453-0.88672 0.375-1.3672zm-36.543-20.527c-1.7383 2.8203-9.5625 5.3672-13.867 6.5l1.9961-9.5703c0.011718-0.046875-0.003906-0.089844 0-0.13672 0.003906-0.066406 0.011718-0.13281 0-0.19922-0.007813-0.066406-0.027344-0.12109-0.050782-0.18359-0.019531-0.0625-0.039062-0.11719-0.070312-0.17578-0.03125-0.058594-0.074219-0.10547-0.11328-0.15234-0.039063-0.046875-0.082031-0.09375-0.13281-0.13281-0.050781-0.042969-0.10938-0.070312-0.17188-0.10156-0.039062-0.019531-0.070312-0.054688-0.11719-0.066407l-7.6133-2.6289c4.2227-1.2031 11.168-3.5977 13.309-6.7773l7.1055 12.516c0.042969 0.25 0.039063 0.60547-0.27344 1.1094zm0.86328-4.125-7.1055-12.516c-0.042969-0.24609-0.035156-0.60547 0.27344-1.1094 1.8555-3.0078 10.621-5.7031 14.672-6.707l7.3984 13.031c-3.5586 0.91406-12.723 3.5664-15.238 7.3008zm11.395 69.43c-3.0703 0-3.0703-1.5469-3.0703-2.0547v-18.863c0-0.55469-0.44531-1-1-1-0.55469 0-1 0.44531-1 1v18.863c0 0.50781 0 2.0547-3.0703 2.0547-3.0742 0-3.0742-1.5469-3.0742-2.0547v-39.742c0-0.03125-0.015625-0.0625-0.019531-0.09375-0.007813-0.066406-0.019531-0.13281-0.039063-0.19531-0.019531-0.0625-0.039062-0.11719-0.070312-0.17187-0.03125-0.058594-0.066406-0.10547-0.10547-0.15625-0.039062-0.050782-0.082031-0.09375-0.13281-0.13672-0.046875-0.039063-0.097657-0.070313-0.15234-0.10156-0.058594-0.035156-0.12109-0.0625-0.1875-0.082031-0.03125-0.011719-0.054687-0.03125-0.085937-0.035156-0.035157-0.007813-0.070313 0.003906-0.10547-0.003907-0.035157-0.003906-0.066407-0.019531-0.10156-0.019531-0.03125 0-0.054687 0.015625-0.085937 0.015625-0.078125 0.007813-0.14844 0.019532-0.21875 0.046875-0.050781 0.015625-0.10156 0.035157-0.14844 0.058594-0.0625 0.03125-0.12109 0.070313-0.17578 0.11719-0.046875 0.039063-0.085938 0.074219-0.125 0.12109-0.042969 0.050782-0.078125 0.10547-0.10938 0.16016-0.03125 0.058594-0.058594 0.11719-0.078125 0.17969-0.011719 0.03125-0.03125 0.054688-0.039062 0.089844l-2.875 13.484c-0.11719 0.55859-0.44922 1.0352-0.92578 1.3477-0.47656 0.30859-1.0469 0.41406-1.6055 0.29688-0.55859-0.12109-1.0352-0.44922-1.3477-0.92969-0.30859-0.48047-0.41406-1.0508-0.29688-1.6055v-0.011719c0-0.003906 0.003906-0.007813 0.003906-0.011719l2.7305-14.375c0.97656-4.2734 3.0391-4.6289 5.25-4.6289l1.3867-0.003906h14.926c0.007813 0 0.011719 0.003906 0.015625 0.003906 0.11719 0 0.23828-0.027344 0.35156-0.074219 0.03125-0.011719 0.058593-0.027343 0.085937-0.042969 0.039063-0.019531 0.082032-0.03125 0.12109-0.058593l10.391-7.0391h0.003906c0.34766-0.23438 0.74609-0.35938 1.1562-0.36719h0.011719c0.14844-0.003907 0.30469 0.007812 0.45312 0.035156 0.56641 0.10938 1.0586 0.43359 1.3828 0.91016 0.32422 0.47656 0.44141 1.0547 0.33203 1.6211s-0.43359 1.0586-0.91016 1.3828l-13.938 9.4453c-0.027343 0.019531-0.039062 0.046875-0.0625 0.066406-0.054687 0.042969-0.10156 0.09375-0.14453 0.14453-0.039062 0.050781-0.074219 0.097656-0.10547 0.15234-0.03125 0.054688-0.050781 0.11328-0.070312 0.17188-0.019531 0.066406-0.035156 0.13281-0.039062 0.19922-0.003907 0.03125-0.019532 0.058594-0.019532 0.089844v39.742c0.003906 0.51172 0.003906 2.0586-3.0664 2.0586z" fill="#ea5b0a"></path></svg>