<svg xmlns="http://www.w3.org/2000/svg" width="100pt" height="100pt" viewBox="0 0 100 100"><path d="m61.211 90.102c-3.5352 1.0117-7.2734 1.5156-11.211 1.5156-23.133 0-42.02-18.891-42.02-42.02 0-14.547 7.6758-28.184 20.102-35.859v9.8984c0 0.60547 0.50391 1.1094 1.1094 1.1094 0.60547 0 1.1133-0.50391 1.1133-1.1094v-12.02c0-0.60547-0.50391-1.1094-1.1094-1.1094l-12.023-0.003906c-0.60547 0-1.1094 0.50391-1.1094 1.1094s0.50391 1.1094 1.1094 1.1094h8.3828c-12.324 8.1875-19.797 22.125-19.797 36.875 0 24.445 19.797 44.242 44.242 44.242 4.1406 0 8.082-0.50391 11.816-1.5156 0.60547-0.20312 0.91016-0.80859 0.80859-1.4141-0.19922-0.60547-0.80859-0.91016-1.4141-0.80859z" fill="#ea5b0a"></path><path d="m82.828 86.16h-7.8789c11.918-8.2812 19.293-22.02 19.293-36.562 0-24.445-19.797-44.242-44.242-44.242-3.9375 0-7.9805 0.60547-12.02 1.6172-0.60547 0.20312-0.91016 0.80859-0.80859 1.3125 0.20312 0.60547 0.80859 0.90625 1.3125 0.80469 3.8398-1.0117 7.6758-1.6172 11.414-1.6172 23.133 0.003906 42.02 18.891 42.02 42.023 0 14.547-7.7773 28.281-20.203 35.961l0.003906-10.203c0-0.60547-0.50391-1.1094-1.1094-1.1094s-1.1094 0.50391-1.1094 1.1094v12.02c0 0.60547 0.50391 1.1094 1.1094 1.1094h12.121c0.60547 0 1.1094-0.50391 1.1094-1.1094 0-0.60547-0.40625-1.1133-1.0117-1.1133z" fill="#ea5b0a"></path><path d="m69.293 28.184c-0.10156-0.30469-0.50391-0.60547-0.91016-0.60547-7.0703-0.40234-14.746 3.5352-19.496 10.102-2.2227 3.1328-3.7383 6.668-4.3438 10.305-4.0391-3.9375-9.5977-5.5547-15.555-4.4453-0.40234 0.10156-0.70703 0.30469-0.80859 0.70703-1.3125 4.4453 0.10156 9.6953 3.4336 13.738 3.2305 3.8398 7.8789 5.9609 13.031 5.9609 0.70703 0 1.4141 0 2.1211-0.10156-1.1094 3.332-1.918 6.7695-2.625 10.305-0.10156 0.50391 0.30469 1.1094 0.80859 1.2109h0.20312c0.50391 0 0.91016-0.30469 1.0117-0.80859 0.60547-3.5352 1.5156-6.9688 2.625-10.402 6.8672-0.20313 14.039-4.3438 18.484-10.809 5.0508-7.2773 5.7578-16.473 2.0195-25.156zm-36.062 28.586c-2.7266-3.2305-4.0391-7.6758-3.2305-11.312 5.6562-0.91016 10.809 1.0117 14.242 5.2539-0.10156 1.918-0.10156 3.7383 0.20312 5.6562-1.7188-2.1211-3.7383-4.1406-6.1602-5.2539-0.50391-0.20312-1.1094 0-1.3125 0.50391-0.20312 0.50391 0 1.1094 0.50391 1.3125 3.332 1.6172 6.1602 5.4531 7.9805 8.1836l0.30469 0.30469c0.10156 0.10156 0.10156 0.30469 0.20312 0.40234-6.7734 0.60547-10.914-2.9297-12.734-5.0508zm32.426-4.5469c-3.8398 5.6562-10.102 9.3945-16.062 9.8984 2.832-7.9805 6.9727-15.656 12.527-23.133 0.30469-0.40234 0.20312-1.1094-0.20312-1.4141-0.40234-0.30469-1.1094-0.20312-1.4141 0.20312-5.5547 7.5742-9.7969 15.254-12.727 23.23-3.8398-10.605 0.10156-18.383 2.7266-22.223 4.2422-5.8594 10.91-9.3945 17.07-9.293 4.4453 10.812 0.70703 18.891-1.918 22.73z" fill="#ea5b0a"></path></svg>