<svg xmlns="http://www.w3.org/2000/svg" width="100pt" height="100pt" viewBox="0 0 100 100"><path d="m76.34 39.262c-5.0508 0-9.1602 4.1094-9.1602 9.1602 0 5.3242 4.3125 12.082 9.1602 12.082s9.1602-6.7539 9.1602-12.082c0-5.0508-4.1094-9.1602-9.1602-9.1602zm0 23.293c-2.9336 0-5.7891-1.7305-8.0391-4.8711-1.9883-2.7773-3.1758-6.2383-3.1758-9.2617 0-6.1836 5.0312-11.215 11.215-11.215s11.215 5.0312 11.215 11.215c0 3.0234-1.1875 6.4844-3.1758 9.2617-2.25 3.1445-5.1055 4.8711-8.0391 4.8711z" fill="#ea5b0a" fill-rule="evenodd"></path><path d="m66.148 49.449c-0.51172 0-0.95313-0.38281-1.0195-0.90234-0.066406-0.5625 0.33203-1.0742 0.89453-1.1445 8.3594-1.0195 12.543-6.7227 12.582-6.7773 0.23438-0.32422 0.63281-0.48438 1.0273-0.41016 0.39453 0.074218 0.70703 0.37109 0.80469 0.75391 0.054688 0.20312 1.3516 4.9805 5.582 4.0508 0.55469-0.12109 1.1016 0.22656 1.2227 0.78516 0.12109 0.55469-0.22656 1.1016-0.78516 1.2227-3.8906 0.85547-6.2422-1.5898-7.3672-3.8359-1.9141 1.9688-6.1484 5.4375-12.82 6.2539-0.042969 0.003907-0.082031 0.007813-0.125 0.007813z" fill="#ea5b0a" fill-rule="evenodd"></path><path d="m72.234 66.875c-0.57031 0-1.0273-0.46094-1.0273-1.0273v-5.668c0-0.56641 0.45703-1.0273 1.0273-1.0273 0.56641 0 1.0273 0.46094 1.0273 1.0273v5.668c0 0.56641-0.46094 1.0273-1.0273 1.0273zm8.207 0c-0.56641 0-1.0273-0.46094-1.0273-1.0273v-5.668c0-0.56641 0.46094-1.0273 1.0273-1.0273s1.0273 0.46094 1.0273 1.0273v5.668c0 0.56641-0.46094 1.0273-1.0273 1.0273z" fill="#ea5b0a" fill-rule="evenodd"></path><path d="m59.855 88.266h32.969v-10.695c0-5.8984-4.7969-10.695-10.695-10.695h-11.578c-5.8984 0-10.695 4.7969-10.695 10.695zm33.996 2.0547h-35.023c-0.56641 0-1.0273-0.45703-1.0273-1.0273v-11.719c0-7.0312 5.7188-12.75 12.75-12.75h11.578c7.0312 0 12.75 5.7188 12.75 12.75v11.719c0 0.57031-0.46094 1.0273-1.0273 1.0273z" fill="#ea5b0a" fill-rule="evenodd"></path><path d="m65.637 90.316c-0.56641 0-1.0273-0.45703-1.0273-1.0273v-11.719c0-0.56641 0.46094-1.0273 1.0273-1.0273 0.56641 0 1.0273 0.46094 1.0273 1.0273v11.719c0 0.57031-0.46094 1.0273-1.0273 1.0273z" fill="#ea5b0a" fill-rule="evenodd"></path><path d="m87.043 90.316c-0.56641 0-1.0273-0.45703-1.0273-1.0273v-11.719c0-0.56641 0.46094-1.0273 1.0273-1.0273 0.56641 0 1.0273 0.46094 1.0273 1.0273v11.719c0 0.57031-0.46094 1.0273-1.0273 1.0273z" fill="#ea5b0a" fill-rule="evenodd"></path><path d="m23.664 39.262c-5.0508 0-9.1602 4.1094-9.1602 9.1602 0 5.3242 4.3125 12.082 9.1602 12.082 4.8477 0 9.1602-6.7539 9.1602-12.082 0-5.0508-4.1094-9.1602-9.1602-9.1602zm0 23.293c-2.9336 0-5.7891-1.7305-8.0391-4.8711-1.9883-2.7773-3.1758-6.2383-3.1758-9.2617 0-6.1836 5.0312-11.215 11.215-11.215 6.1836 0 11.215 5.0312 11.215 11.215 0 3.0234-1.1875 6.4844-3.1758 9.2617-2.25 3.1445-5.1055 4.8711-8.0391 4.8711z" fill="#ea5b0a" fill-rule="evenodd"></path><path d="m13.473 49.449c-0.51172 0-0.95312-0.38281-1.0195-0.90234-0.066406-0.5625 0.33203-1.0742 0.89453-1.1445 8.3555-1.0195 12.543-6.7227 12.582-6.7773 0.23437-0.32422 0.63281-0.48438 1.0273-0.41016 0.39453 0.074218 0.70703 0.37109 0.80469 0.75391 0.050781 0.20312 1.3516 4.9805 5.582 4.0508 0.55469-0.12109 1.1016 0.22656 1.2227 0.78516 0.12109 0.55469-0.22656 1.1016-0.78125 1.2227-3.8906 0.85547-6.2422-1.5898-7.3672-3.8359-1.9141 1.9688-6.1484 5.4375-12.82 6.2539-0.042968 0.003907-0.082031 0.007813-0.125 0.007813z" fill="#ea5b0a" fill-rule="evenodd"></path><path d="m19.555 66.875c-0.56641 0-1.0273-0.46094-1.0273-1.0273v-5.668c0-0.56641 0.46094-1.0273 1.0273-1.0273 0.57031 0 1.0273 0.46094 1.0273 1.0273v5.668c0 0.56641-0.45703 1.0273-1.0273 1.0273zm8.2109 0c-0.56641 0-1.0273-0.46094-1.0273-1.0273v-5.668c0-0.56641 0.46094-1.0273 1.0273-1.0273s1.0273 0.46094 1.0273 1.0273v5.668c0 0.56641-0.46094 1.0273-1.0273 1.0273z" fill="#ea5b0a" fill-rule="evenodd"></path><path d="m7.1758 88.266h32.969v-10.695c0-5.8984-4.7969-10.695-10.695-10.695h-11.582c-5.8984 0-10.691 4.7969-10.691 10.695zm33.996 2.0547h-35.023c-0.56641 0-1.0273-0.45703-1.0273-1.0273v-11.719c0-7.0312 5.7188-12.75 12.746-12.75h11.582c7.0312 0 12.75 5.7188 12.75 12.75v11.719c0 0.57031-0.46094 1.0273-1.0273 1.0273z" fill="#ea5b0a" fill-rule="evenodd"></path><path d="m12.957 90.316c-0.56641 0-1.0273-0.45703-1.0273-1.0273v-11.719c0-0.56641 0.46094-1.0273 1.0273-1.0273 0.56641 0 1.0273 0.46094 1.0273 1.0273v11.719c0 0.57031-0.46094 1.0273-1.0273 1.0273z" fill="#ea5b0a" fill-rule="evenodd"></path><path d="m34.367 90.316c-0.57031 0-1.0273-0.45703-1.0273-1.0273v-11.719c0-0.56641 0.45703-1.0273 1.0273-1.0273 0.56641 0 1.0273 0.46094 1.0273 1.0273v11.719c0 0.57031-0.46094 1.0273-1.0273 1.0273z" fill="#ea5b0a" fill-rule="evenodd"></path><path d="m39.906 31.926h20.191v-20.188h-20.191zm21.219 2.0547h-22.246c-0.56641 0-1.0273-0.45703-1.0273-1.0273v-22.242c0-0.57031 0.46094-1.0273 1.0273-1.0273h22.246c0.56641 0 1.0273 0.45703 1.0273 1.0273v22.242c0 0.57031-0.46094 1.0273-1.0273 1.0273z" fill="#ea5b0a" fill-rule="evenodd"></path><path d="m55.738 19.539h-11.473c-0.56641 0-1.0273-0.46094-1.0273-1.0273 0-0.56641 0.46094-1.0273 1.0273-1.0273h11.473c0.56641 0 1.0273 0.46094 1.0273 1.0273 0 0.56641-0.46094 1.0273-1.0273 1.0273z" fill="#ea5b0a" fill-rule="evenodd"></path><path d="m55.738 26.18h-11.473c-0.56641 0-1.0273-0.46094-1.0273-1.0273s0.46094-1.0273 1.0273-1.0273h11.473c0.56641 0 1.0273 0.46094 1.0273 1.0273s-0.46094 1.0273-1.0273 1.0273z" fill="#ea5b0a" fill-rule="evenodd"></path><path d="m23.664 34.699c-0.56641 0-1.0273-0.46094-1.0273-1.0273v-11.84c0-0.57031 0.46094-1.0273 1.0273-1.0273h15.215c0.56641 0 1.0273 0.45703 1.0273 1.0273 0 0.56641-0.46094 1.0273-1.0273 1.0273h-14.188v10.812c0 0.56641-0.46094 1.0273-1.0273 1.0273z" fill="#ea5b0a" fill-rule="evenodd"></path><path d="m76.34 34.699c-0.56641 0-1.0273-0.46094-1.0273-1.0273v-10.812h-14.188c-0.56641 0-1.0273-0.45703-1.0273-1.0273 0-0.57031 0.46094-1.0273 1.0273-1.0273h15.215c0.56641 0 1.0273 0.45703 1.0273 1.0273v11.84c0 0.56641-0.46094 1.0273-1.0273 1.0273z" fill="#ea5b0a" fill-rule="evenodd"></path><path d="m23.664 34.695c-0.26562 0-0.52734-0.10156-0.72656-0.30078l-2.8867-2.8867c-0.40234-0.40234-0.40234-1.0508 0-1.4531 0.40234-0.40234 1.0508-0.40234 1.4531 0l2.8828 2.8828c0.40234 0.40234 0.40234 1.0508 0 1.4531-0.19922 0.19922-0.46484 0.30078-0.72656 0.30078z" fill="#ea5b0a" fill-rule="evenodd"></path><path d="m23.664 34.695c-0.26562 0-0.52734-0.10156-0.72656-0.30078-0.39844-0.40234-0.39844-1.0508 0-1.4531l2.8867-2.8828c0.40234-0.40234 1.0508-0.40234 1.4531 0 0.39844 0.40234 0.39844 1.0508 0 1.4531l-2.8867 2.8867c-0.19922 0.19922-0.46484 0.30078-0.72656 0.30078z" fill="#ea5b0a" fill-rule="evenodd"></path><path d="m76.34 34.695c-0.26172 0-0.52734-0.10156-0.72656-0.30078l-2.8828-2.8867c-0.40234-0.40234-0.40234-1.0508 0-1.4531 0.40234-0.40234 1.0508-0.40234 1.4531 0l2.8828 2.8828c0.40234 0.40234 0.40234 1.0508 0 1.4531-0.19922 0.19922-0.46484 0.30078-0.72656 0.30078z" fill="#ea5b0a" fill-rule="evenodd"></path><path d="m76.34 34.695c-0.26172 0-0.52734-0.10156-0.72656-0.30078-0.40234-0.40234-0.40234-1.0508 0-1.4531l2.8828-2.8828c0.40234-0.40234 1.0508-0.40234 1.4531 0 0.40234 0.40234 0.40234 1.0508 0 1.4531l-2.8867 2.8867c-0.19922 0.19922-0.46484 0.30078-0.72656 0.30078z" fill="#ea5b0a" fill-rule="evenodd"></path></svg>