<svg xmlns="http://www.w3.org/2000/svg" width="100pt" height="100pt" viewBox="0 0 100 100"><path d="m100 50c0 27.613-22.387 50-50 50s-50-22.387-50-50 22.387-50 50-50 50 22.387 50 50" fill="#ea5b0a"></path><path d="m50 57.293 0.22656 0.125-0.22656 0.38672-0.22656-0.38672z" fill="#fff"></path><path d="m70.555 72.582-5.2539-0.30469-2.3008 4.7227c-0.34375 0.70703-1.3398 0.73828-1.7305 0.058594l-5.8438-9.9883c3.9648-0.92578 7.5469-2.8555 10.461-5.5117l5.5781 9.543c0.39453 0.67969-0.12891 1.5234-0.90625 1.4766z" fill="#fff"></path><path d="m44.578 67.07-5.8438 9.9883c-0.39453 0.67969-1.3867 0.64844-1.7305-0.058594l-2.3008-4.7227-5.2539 0.30469c-0.77734 0.050781-1.3008-0.79688-0.90625-1.4766l5.5781-9.543c2.9141 2.6562 6.4961 4.5859 10.461 5.5117z" fill="#fff"></path><path d="m50.227 57.418-0.22656 0.38672-0.22656-0.38672 0.22656-0.125z" fill="#fff"></path><path d="m50.227 57.418-0.22656 0.38672-0.22656-0.38672 0.22656-0.125z" fill="#fff"></path><path d="m50 27.367c-9.2188 0-16.727 7.5078-16.727 16.727s7.5078 16.727 16.727 16.727 16.727-7.5078 16.727-16.727-7.5078-16.727-16.727-16.727zm7.9414 13.598-9.0312 9.0312c-0.76562 0.76562-2.0156 0.76562-2.7852 0l-4.457-4.457c-0.76562-0.76562-0.76562-2.0156 0-2.7852 0.76562-0.76562 2.0156-0.76562 2.7852 0l3.0703 3.0703 7.6445-7.6445c0.76562-0.76563 2.0156-0.76563 2.7852 0 0.76562 0.76562 0.76562 2.0156 0 2.7852z" fill="#fff"></path><path d="m50 22.449c-11.957 0-21.648 9.6914-21.648 21.648 0 11.957 9.6914 21.648 21.648 21.648s21.648-9.6914 21.648-21.648c0-11.957-9.6914-21.648-21.648-21.648zm0 40.344c-10.312 0-18.695-8.3828-18.695-18.695s8.3828-18.699 18.695-18.699 18.695 8.3828 18.695 18.695-8.3828 18.695-18.695 18.695z" fill="#fff"></path><path d="m50 22.449c-11.957 0-21.648 9.6914-21.648 21.648 0 11.957 9.6914 21.648 21.648 21.648s21.648-9.6914 21.648-21.648c0-11.957-9.6914-21.648-21.648-21.648zm0 40.344c-10.312 0-18.695-8.3828-18.695-18.695s8.3828-18.699 18.695-18.699 18.695 8.3828 18.695 18.695-8.3828 18.695-18.695 18.695z" fill="#fff"></path></svg>