<svg xmlns="http://www.w3.org/2000/svg" width="100pt" height="100pt" viewBox="0 0 100 100"><path d="m76.57 66.789c1.0312-1.3906 1.6406-3.0898 1.6484-4.9414l0.039062-5.1289c0.011719-1.6016 0.53906-2.9492 1.6211-4.1406l4.5586-5.0117c3.0117-3.3086 2.9102-8.3906-0.23047-11.578l-3.6016-3.6602c-1.1211-1.1406-1.7109-2.4688-1.7812-4.0703l-0.32422-6.7578c-0.21094-4.4688-3.8789-7.9883-8.3516-8.0195l-5.1289-0.039063c-1.6016-0.011718-2.9492-0.53906-4.1406-1.6211l-5.0117-4.5586c-3.3086-3.0117-8.3906-2.9102-11.578 0.23047l-3.6602 3.6016c-1.1406 1.1211-2.4688 1.7109-4.0703 1.7812l-6.7578 0.32422c-4.4688 0.21094-7.9883 3.8789-8.0195 8.3516l-0.039062 5.1289c-0.011719 1.6016-0.53906 2.9492-1.6211 4.1406l-4.5586 5.0117c-3.0117 3.3086-2.9102 8.3906 0.23047 11.578l3.6016 3.6602c1.1211 1.1406 1.7109 2.4688 1.7812 4.0703l0.32031 6.7695c0.10156 2.1016 0.96875 3.9883 2.3203 5.3984l-9.8711 17.039c-0.37109 0.62891-0.28125 1.4102 0.21094 1.9492 0.48828 0.53906 1.2695 0.69141 1.9297 0.37891l10.289-4.8398 1.2383 11.621c0.078125 0.71094 0.60156 1.3008 1.3008 1.4492 0.12109 0.019531 0.23047 0.039062 0.35156 0.039062 0.57812 0 1.1289-0.30859 1.4297-0.82812l11.449-19.77 1.9805 1.8008c1.6094 1.4609 3.6406 2.1914 5.6602 2.1914 2.1406 0 4.2812-0.80859 5.9102-2.4219l2.3789-2.3516 11.219 19.371c0.30078 0.51953 0.85156 0.82812 1.4297 0.82812 0.10938 0 0.23047-0.011719 0.35156-0.039063 0.69922-0.14844 1.2305-0.73047 1.3008-1.4414l1.2383-11.621 10.289 4.8398c0.66016 0.30859 1.4297 0.16016 1.9297-0.37891 0.48828-0.53906 0.57812-1.3203 0.21094-1.9492zm-46.93 24.742-1.1406-10.711c-0.058594-0.53906-0.35938-1-0.82812-1.2695s-1.0312-0.28906-1.5195-0.058593l-9.3984 4.4219 8.8086-15.219c1.2617 0.76172 2.7188 1.2109 4.2891 1.2188l5.1289 0.039063c1.6016 0.011719 2.9492 0.53906 4.1406 1.6211l1.3594 1.2383zm24.52-17.203c-2.3516 2.3203-6.1016 2.3906-8.5391 0.17188l-5.0117-4.5586c-1.5781-1.4414-3.4688-2.1797-5.6094-2.1914l-5.1289-0.039062c-3.3008-0.019532-6-2.6211-6.1602-5.9219l-0.32031-6.7695c-0.10156-2.1406-0.91016-3.9883-2.4102-5.5117l-3.6016-3.6602c-2.3203-2.3516-2.3906-6.1016-0.17188-8.5391l4.5586-5.0117c1.4414-1.5781 2.1797-3.4688 2.1914-5.6094l0.039063-5.1289c0.019531-3.3008 2.6211-6 5.9219-6.1602l6.7695-0.32031c2.1406-0.10156 3.9883-0.91016 5.5117-2.4102l3.6602-3.6016c1.2109-1.1914 2.7812-1.7891 4.3594-1.7891 1.4883 0 2.9883 0.53906 4.1797 1.6211l5.0117 4.5586c1.5781 1.4414 3.4688 2.1797 5.6094 2.1914l5.1289 0.039062c3.3008 0.019531 6 2.6211 6.1602 5.9219l0.32031 6.7695c0.10156 2.1406 0.91016 3.9883 2.4102 5.5117l3.6016 3.6602c2.3203 2.3516 2.3906 6.1016 0.17188 8.5391l-4.5586 5.0117c-1.4414 1.5781-2.1797 3.4688-2.1914 5.6094l-0.039062 5.1289c-0.019532 3.3008-2.6211 6-5.9219 6.1602l-6.7695 0.32031c-2.1406 0.10156-3.9883 0.91016-5.5117 2.4102zm19.699 3.9922c-0.48828-0.23047-1.0391-0.21094-1.5195 0.058594-0.46875 0.26953-0.78125 0.73047-0.82812 1.2695l-1.1406 10.711-10.641-18.371c1.0586-0.91016 2.2695-1.4102 3.6992-1.4688l6.7695-0.32031c1.8008-0.089844 3.4414-0.73828 4.7695-1.7695l8.2891 14.309zm1.0117-36.621c0-13.711-11.16-24.871-24.871-24.871s-24.871 11.16-24.871 24.871c0 13.711 11.16 24.871 24.871 24.871s24.871-11.16 24.871-24.871zm-24.871 22.66c-12.488 0-22.66-10.16-22.66-22.66s10.172-22.66 22.66-22.66 22.66 10.16 22.66 22.66-10.172 22.66-22.66 22.66zm13.91-26.848-9.0391-1.1406-3.8711-8.2422c-0.17969-0.39062-0.57031-0.62891-1-0.62891s-0.82031 0.25-1 0.62891l-3.8711 8.2383-9.0391 1.1406c-0.42188 0.050782-0.78125 0.35156-0.91016 0.75-0.12891 0.41016-0.019532 0.85156 0.28906 1.1484l6.6406 6.2305-1.7109 8.9414c-0.078126 0.42188 0.089843 0.85156 0.44141 1.1016 0.35156 0.25 0.80859 0.28125 1.1797 0.070312l7.9805-4.3789 7.9805 4.3906c0.17188 0.089843 0.35156 0.14062 0.53125 0.14062 0.23047 0 0.46094-0.070313 0.64844-0.21094 0.35156-0.25 0.51953-0.67969 0.44141-1.1016l-1.7109-8.9414 6.6406-6.2305c0.30859-0.28906 0.42969-0.73828 0.28906-1.1484-0.12891-0.41016-0.49219-0.71094-0.91016-0.75781zm-7.9805 6.9375c-0.28125 0.26172-0.39844 0.64062-0.32813 1.0117l1.3789 7.2305-6.4492-3.5508c-0.17188-0.089844-0.35156-0.14062-0.53125-0.14062s-0.37109 0.050781-0.53125 0.14062l-6.4492 3.5508 1.3789-7.2305c0.070312-0.37109-0.050782-0.75-0.32813-1.0117l-5.3711-5.0391 7.3086-0.92188c0.37891-0.050781 0.69922-0.28125 0.85938-0.62891l3.1328-6.6602 3.1289 6.6719c0.16016 0.33984 0.48828 0.57812 0.85938 0.62891l7.3086 0.92188z" fill="#ea5b0a"></path></svg>