<svg xmlns="http://www.w3.org/2000/svg" width="512pt" height="512pt" viewBox="0 0 512 512"><path d="m423.46 252.54 34.68 20.02c6.8008 3.8984 11.359 10.219 13.238 17.219s1.0781 14.738-2.8398 21.52c-3.9219 6.7812-10.238 11.34-17.219 13.199-6.9805 1.8594-14.719 1.0781-21.48-2.8398l-35.281-20.359c-6.8008-3.8984-11.359-10.219-13.238-17.219-1.8594-6.9805-1.0781-14.719 2.8398-21.48l0.64062-1.0391c3.9414-6.2188 9.9609-10.441 16.602-12.199 7-1.8789 14.738-1.0781 21.52 2.8398zm-194.12 134.06c-5.6602 0-10.238-4.5781-10.238-10.238 0-5.6602 4.5781-10.238 10.238-10.238h53.34c5.6602 0 10.238 4.5781 10.238 10.238 0 5.6602-4.5781 10.238-10.238 10.238zm75.301 35.02c-2.3203 9.9805-7.6406 18.84-14.98 25.559-8.8984 8.1602-20.719 13.121-33.66 13.121s-24.762-4.9805-33.66-13.121c-7.3398-6.7188-12.66-15.582-14.98-25.559-4.4805-1.9414-8.5-4.7188-11.898-8.1211-6.9805-6.9805-11.32-16.621-11.32-27.219v-48.141c0-40.441-13.059-53.863-26.141-67.301-16.059-16.5-32.16-33.039-32.16-82.238 0-35.918 14.582-68.48 38.121-92.023 23.539-23.539 56.102-38.121 92.023-38.121 35.941 0 68.48 14.582 92.023 38.121 23.539 23.539 38.121 56.102 38.121 92.023 0 49.219-16.102 65.762-32.16 82.238-13.078 13.441-26.141 26.859-26.141 67.301v48.141c0 10.602-4.3398 20.238-11.32 27.219-3.3984 3.3984-7.4414 6.1797-11.898 8.1211zm-74.32 3.1992c1.5391 2.7617 3.5 5.2188 5.8008 7.3203 5.1992 4.7617 12.199 7.6797 19.898 7.6797s14.68-2.9219 19.898-7.6797c2.3008-2.1016 4.2617-4.5781 5.8008-7.3203zm-25.68-76.422v37.879c0 4.9609 2.0391 9.4805 5.3008 12.738 3.2617 3.2617 7.7812 5.3008 12.738 5.3008h66.621c4.9609 0 9.4805-2.0391 12.738-5.3008 3.2617-3.2617 5.3008-7.7812 5.3008-12.738v-37.879h-102.72zm128.92-237.34c-19.84-19.84-47.262-32.121-77.559-32.121s-57.719 12.281-77.559 32.121c-19.84 19.84-32.121 47.262-32.121 77.543 0 40.98 13.18 54.504 26.32 68 14.82 15.219 29.621 30.441 31.738 71.301h103.22c2.1016-40.859 16.898-56.078 31.738-71.301 13.141-13.5 26.32-27.039 26.32-68 0-30.281-12.281-57.703-32.121-77.543zm-294.62 49.141h40.719c7.8008 0 14.922 3.1992 20.059 8.3398l0.62109 0.66016c4.7812 5.0781 7.7188 11.918 7.7188 19.398 0 7.8008-3.1992 14.898-8.3398 20.039-5.1406 5.1797-12.262 8.3594-20.059 8.3594h-40.719c-7.7812 0-14.879-3.1992-20.02-8.3398-5.1797-5.1406-8.3594-12.238-8.3594-20.059 0-7.8203 3.1992-14.941 8.3398-20.082l0.66016-0.62109c5.0781-4.7812 11.918-7.7188 19.379-7.7188zm40.719 20.48h-40.719c-2.0195 0-3.8594 0.76172-5.2617 2l-0.30078 0.32031c-1.4219 1.4219-2.3203 3.4219-2.3203 5.5781 0 2.1797 0.89844 4.1602 2.3203 5.6016s3.3984 2.3203 5.5781 2.3203h40.719c2.1602 0 4.1602-0.89844 5.5781-2.3203 1.4219-1.3984 2.3203-3.3984 2.3203-5.5781 0-2.0391-0.76172-3.8789-2-5.3008l-0.32031-0.30078c-1.4219-1.4219-3.4219-2.3203-5.5781-2.3203zm352.68-20.48h40.719c7.7812 0 14.879 3.1992 20.02 8.3398 5.1797 5.1406 8.3594 12.262 8.3594 20.059 0 7.8008-3.1992 14.898-8.3398 20.039-5.1797 5.1797-12.262 8.3594-20.059 8.3594h-40.719c-7.8008 0-14.922-3.1992-20.059-8.3398l-0.62109-0.66016c-4.7812-5.0781-7.7188-11.918-7.7188-19.379 0-7.8398 3.1992-14.941 8.3398-20.082 5.1406-5.1406 12.238-8.3398 20.059-8.3398zm40.719 20.48h-40.719c-2.1797 0-4.1602 0.89844-5.5781 2.3203-1.4219 1.4219-2.3203 3.4219-2.3203 5.5781 0 2.0391 0.76172 3.8789 2 5.2812l0.32031 0.30078c1.4219 1.4219 3.4219 2.3203 5.5781 2.3203h40.719c2.1797 0 4.1602-0.89844 5.6016-2.3008 1.3984-1.4219 2.3008-3.4219 2.3008-5.6016 0-2.1797-0.89844-4.1797-2.3203-5.6016-1.3984-1.4219-3.3984-2.3203-5.5781-2.3203zm-418.68 91.562 34.719-20.02c6.7617-3.9414 14.5-4.7188 21.52-2.8594 7 1.8789 13.32 6.4219 17.219 13.18l0.42187 0.80078c3.5391 6.6016 4.2188 14.02 2.4219 20.762-1.8789 7-6.4219 13.32-13.18 17.219l-35.281 20.359c-6.7812 3.9219-14.52 4.6992-21.52 2.8398-7-1.8789-13.32-6.4414-17.219-13.199l-0.39844-0.73828c-3.5586-6.6016-4.2617-14.039-2.4414-20.801 1.8789-7 6.4219-13.32 13.18-17.219l0.57813-0.32031zm44.02-1.8594-34.359 19.859c-1.8789 1.0781-3.1406 2.8594-3.6797 4.8203-0.5 1.8594-0.33984 3.8984 0.55859 5.6797l0.19922 0.33984c1.0781 1.8789 2.8594 3.1602 4.8203 3.6797 1.9805 0.51953 4.1406 0.32031 6-0.73828l35.281-20.359c1.8789-1.0781 3.1406-2.8594 3.6797-4.8203 0.48047-1.8008 0.35937-3.7617-0.46094-5.4805l-0.55859-0.96094c-1.1016-1.6406-2.7383-2.7617-4.5586-3.2383-1.8203-0.48047-3.8203-0.33984-5.5781 0.53906l-1.3398 0.71875zm296.68-194.86 34.68-20.02c6.7812-3.9219 14.539-4.6992 21.539-2.8398 6.6211 1.7812 12.66 5.9805 16.602 12.199 0.42187 0.55859 0.76172 1.1406 1.0586 1.7383 3.5391 6.6016 4.2188 14.039 2.4219 20.781-1.8594 6.9805-6.4414 13.301-13.238 17.219l-35.238 20.34c-6.7617 3.9414-14.52 4.7188-21.52 2.8594-6.7812-1.8203-12.898-6.1406-16.82-12.52-0.37891-0.55859-0.69922-1.1406-0.98047-1.7383-3.4219-6.5195-4.0586-13.84-2.2812-20.48 1.8008-6.7617 6.1016-12.859 12.48-16.801l1.3203-0.76172zm44.918-2.3398-35.281 20.379c-1.8789 1.0781-3.1406 2.8594-3.6797 4.8203-0.5 1.8594-0.33984 3.8789 0.53906 5.6602l0.21875 0.35938c1.0781 1.8789 2.8594 3.1602 4.8203 3.6797 1.9805 0.51953 4.1406 0.32031 6-0.76172l35.32-20.359c1.8398-1.0586 3.1016-2.8398 3.6406-4.8203 0.51953-1.9805 0.32031-4.1406-0.73828-6-1.0781-1.8984-2.8398-3.1602-4.8398-3.6797-1.9805-0.51953-4.1406-0.32031-6 0.73828zm-357.84-17.68 35.262 20.359c6.8008 3.8984 11.359 10.219 13.238 17.219s1.0781 14.738-2.8398 21.52c-3.9219 6.7812-10.219 11.34-17.219 13.199-6.9805 1.8594-14.719 1.0781-21.48-2.8398l-35.32-20.359c-6.7617-3.9219-11.32-10.219-13.199-17.219-1.8398-6.8594-1.1016-14.48 2.6602-21.16l0.19922-0.35938c3.8789-6.7812 10.199-11.32 17.199-13.199 6.9805-1.8594 14.719-1.0781 21.48 2.8398zm25.078 38.039-35.238-20.34c-1.8594-1.0781-4.0391-1.2812-6.0391-0.73828-1.9609 0.51953-3.7383 1.8008-4.8203 3.6797-1.0781 1.8594-1.3008 4.0195-0.76172 6.0195 0.51953 1.9609 1.7812 3.7188 3.6406 4.8008l35.32 20.398c1.8398 1.0781 4.0195 1.2812 6 0.73828 1.9219-0.51953 3.6602-1.7383 4.7383-3.5391l0.078126-0.16016c1.0781-1.8594 1.2812-4.0195 0.76172-6-0.51953-1.9609-1.8008-3.7383-3.6797-4.8398zm340.7 196.7-35.281-20.34c-1.8594-1.0781-4.0195-1.2812-6-0.73828-1.8008 0.48047-3.4219 1.5586-4.5 3.1211l-0.62109 1.0781c-0.82031 1.7383-0.94141 3.6992-0.46094 5.5 0.51953 1.9805 1.8008 3.7383 3.6797 4.8203l35.238 20.359c1.8594 1.0781 4.0586 1.2812 6.0391 0.73828 1.9219-0.51953 3.6602-1.7383 4.7383-3.5391l0.078125-0.16016c1.0781-1.8594 1.2812-4.0195 0.76172-6-0.51953-1.9609-1.8008-3.7383-3.6797-4.8398z" fill="#fff"></path></svg>