<svg xmlns="http://www.w3.org/2000/svg" width="100pt" height="100pt" viewBox="0 0 100 100"><path d="m48.535 37.266h2.9297v4.0156h-2.9297z" fill="#ea5b0a"></path><path d="m48.535 58.719h2.9297v4.0156h-2.9297z" fill="#ea5b0a"></path><path d="m51.57 60.184h-3.1445c-3.1055 0-5.6328-2.4609-5.6328-5.4883h2.9297c0 1.4062 1.2109 2.5586 2.7031 2.5586h3.1445c1.6797 0 3.0547-1.2969 3.0547-2.8906 0-0.76172-0.3125-1.4844-0.87891-2.0312-0.57812-0.55469-1.3594-0.86719-2.1797-0.86719h-3.1445c-3.3008 0-5.9844-2.6172-5.9844-5.8203 0-1.5625 0.625-3.0391 1.7695-4.1406 1.125-1.0859 2.625-1.6875 4.2109-1.6875h3.1445c3.1055 0 5.6328 2.4609 5.6328 5.4883h-2.9297c0-1.4062-1.2109-2.5586-2.7031-2.5586h-3.1445c-0.82812 0-1.6016 0.3125-2.1797 0.86719-0.56641 0.54688-0.87891 1.2695-0.87891 2.0312 0 1.5938 1.3672 2.8906 3.0547 2.8906h3.1445c1.5938 0 3.0859 0.59375 4.2109 1.6875 1.1406 1.1016 1.7695 2.5703 1.7695 4.1406 0.019532 3.207-2.6641 5.8203-5.9688 5.8203z" fill="#ea5b0a"></path><path d="m50 71.719c-5.8008 0-11.258-2.2578-15.363-6.3555-4.1016-4.1016-6.3672-9.5625-6.3672-15.363 0-3.0547 0.625-6.0156 1.8555-8.7891 1.1914-2.6875 2.8828-5.0586 5.0312-7.0703 4.0312-3.7812 9.3047-5.8594 14.836-5.8594 5.8008 0 11.258 2.2578 15.363 6.3672 4.1016 4.1016 6.3672 9.5625 6.3672 15.363 0 5.5273-2.0781 10.801-5.8594 14.836-2.0117 2.1484-4.3945 3.8359-7.0703 5.0312-2.7773 1.2227-5.7383 1.8398-8.793 1.8398zm0-40.516c-4.7852 0-9.3438 1.7969-12.832 5.0703-3.7891 3.543-5.957 8.5469-5.957 13.719 0 10.359 8.4297 18.789 18.789 18.789 5.1875 0 10.188-2.168 13.719-5.957 3.2734-3.4766 5.0703-8.0391 5.0703-12.824 0-10.359-8.4297-18.789-18.789-18.797z" fill="#ea5b0a"></path><path d="m50 90.672c-3.3008 0-5.9844-2.6875-5.9844-5.9844 0-3.3008 2.6836-5.9766 5.9844-5.9766s5.9844 2.6875 5.9844 5.9844c0 3.3008-2.6836 5.9766-5.9844 5.9766zm0-9.0312c-1.6797 0-3.0547 1.3672-3.0547 3.0547s1.3672 3.0547 3.0547 3.0547c1.6914 0 3.0547-1.3672 3.0547-3.0547s-1.375-3.0547-3.0547-3.0547z" fill="#ea5b0a"></path><path d="m48.535 70.254h2.9297v9.9219h-2.9297z" fill="#ea5b0a"></path><path d="m50 21.289c-3.3008 0-5.9844-2.6875-5.9844-5.9844 0-3.3008 2.6875-5.9844 5.9844-5.9844 3.3008 0 5.9844 2.6875 5.9844 5.9844 0 3.2969-2.6836 5.9844-5.9844 5.9844zm0-9.0312c-1.6797 0-3.0547 1.3672-3.0547 3.0547 0 1.6914 1.3672 3.0547 3.0547 3.0547 1.6914 0 3.0547-1.3672 3.0547-3.0547s-1.375-3.0547-3.0547-3.0547z" fill="#ea5b0a"></path><path d="m48.535 19.824h2.9297v9.9219h-2.9297z" fill="#ea5b0a"></path><path d="m84.688 55.984c-3.3008 0-5.9844-2.6875-5.9844-5.9844 0-3.3008 2.6875-5.9844 5.9844-5.9844 3.3008 0 5.9844 2.6875 5.9844 5.9844 0 3.3008-2.6836 5.9844-5.9844 5.9844zm0-9.0391c-1.6797 0-3.0547 1.3672-3.0547 3.0547 0 1.6914 1.3672 3.0547 3.0547 3.0547s3.0547-1.3672 3.0547-3.0547c0-1.6914-1.3672-3.0547-3.0547-3.0547z" fill="#ea5b0a"></path><path d="m70.254 48.535h9.9219v2.9297h-9.9219z" fill="#ea5b0a"></path><path d="m15.312 55.984c-3.3008 0-5.9844-2.6875-5.9844-5.9844 0-3.3008 2.6875-5.9844 5.9844-5.9844 3.3008-0.003906 5.9766 2.6836 5.9766 5.9844s-2.6875 5.9844-5.9766 5.9844zm0-9.0391c-1.6797 0-3.0547 1.3672-3.0547 3.0547 0 1.6914 1.3672 3.0547 3.0547 3.0547 1.6914 0 3.0547-1.3672 3.0547-3.0547 0.003906-1.6914-1.375-3.0547-3.0547-3.0547z" fill="#ea5b0a"></path><path d="m19.824 48.535h9.9219v2.9297h-9.9219z" fill="#ea5b0a"></path><path d="m74.531 80.516c-3.3008 0-5.9844-2.6875-5.9844-5.9844 0-3.3008 2.6875-5.9844 5.9844-5.9844 3.3008 0 5.9844 2.6875 5.9844 5.9844 0 3.3008-2.6836 5.9844-5.9844 5.9844zm0-9.0391c-1.6797 0-3.0547 1.3672-3.0547 3.0547s1.3672 3.0547 3.0547 3.0547 3.0547-1.3672 3.0547-3.0547-1.375-3.0547-3.0547-3.0547z" fill="#ea5b0a"></path><path d="m63.289 65.355 2.0703-2.0703 7.0156 7.0156-2.0703 2.0703z" fill="#ea5b0a"></path><path d="m25.469 31.457c-3.3008 0-5.9844-2.6875-5.9844-5.9844 0-3.3008 2.6875-5.9844 5.9844-5.9844 3.3008 0 5.9844 2.6875 5.9844 5.9844 0.003906 3.2969-2.6836 5.9844-5.9844 5.9844zm0-9.043c-1.6797 0-3.0547 1.3672-3.0547 3.0547 0 1.6914 1.3672 3.0547 3.0547 3.0547 1.6914 0 3.0547-1.3672 3.0547-3.0547 0.003906-1.6875-1.3633-3.0547-3.0547-3.0547z" fill="#ea5b0a"></path><path d="m27.621 29.699 2.0703-2.0703 7.0156 7.0156-2.0703 2.0703z" fill="#ea5b0a"></path><path d="m74.531 31.457c-3.3008 0-5.9844-2.6875-5.9844-5.9844 0-3.3008 2.6875-5.9844 5.9844-5.9844 3.3008 0 5.9844 2.6875 5.9844 5.9844s-2.6836 5.9844-5.9844 5.9844zm0-9.043c-1.6797 0-3.0547 1.3672-3.0547 3.0547 0 1.6914 1.3672 3.0547 3.0547 3.0547s3.0547-1.3672 3.0547-3.0547-1.375-3.0547-3.0547-3.0547z" fill="#ea5b0a"></path><path d="m63.285 34.641 7.0156-7.0156 2.0703 2.0703-7.0156 7.0156z" fill="#ea5b0a"></path><path d="m25.469 80.516c-3.3008 0-5.9844-2.6875-5.9844-5.9844 0-3.3008 2.6875-5.9844 5.9844-5.9844 3.3008 0 5.9844 2.6875 5.9844 5.9844 0.003906 3.3008-2.6836 5.9844-5.9844 5.9844zm0-9.0391c-1.6797 0-3.0547 1.3672-3.0547 3.0547s1.3672 3.0547 3.0547 3.0547c1.6914 0 3.0547-1.3672 3.0547-3.0547 0.003906-1.6875-1.3633-3.0547-3.0547-3.0547z" fill="#ea5b0a"></path><path d="m27.629 70.305 7.0156-7.0156 2.0703 2.0703-7.0156 7.0156z" fill="#ea5b0a"></path></svg>