<svg xmlns="http://www.w3.org/2000/svg" width="512pt" height="512pt" viewBox="0 0 512 512"><path d="m367.3 142.32c2.1211 0 4.1602-0.83984 5.6602-2.3594 1.5-1.5 2.3398-3.5195 2.3398-5.6406v-67.219c0-2.1211-0.83984-4.1602-2.3398-5.6602s-3.5391-2.3398-5.6602-2.3398h-186.82c-2.9414 0-5.6406 1.6211-7.0391 4.1992l-36.379 67.199c-1.3398 2.4805-1.2812 5.4805 0.16016 7.8984 1.4414 2.4219 4.0586 3.9219 6.8789 3.9219h94.961v243.56c0 4.3984 3.5781 8 8 8h64.742c2.1211 0 4.1602-0.85938 5.6602-2.3594s2.3398-3.5195 2.3398-5.6406v-243.56zm-182.06-67.219h174.06v51.199l-201.78 0.019531zm69.82 302.76v-185h48.738v185zm48.738-201-48.738 0.019531v-34.559h48.738zm179.66 34.898-41.281-23.84c-2.4609-1.4219-5.5195-1.4219-8 0.019531-2.4609 1.4219-4 4.0586-4 6.9219v56.48c0 9.2812-7.5 16.781-16.762 16.781-9.2617 0-16.781-7.5-16.781-16.781v-56.48c0-2.8594-1.5195-5.5-4-6.9219-2.4805-1.4414-5.5195-1.4414-8-0.019531l-41.281 23.84c-2.4805 1.4414-4 4.0781-4 6.9414v76.277-0.019531c0 2.8594 1.5195 5.5 4 6.9414l36.16 20.879v122.12c0 2.1211 0.83984 4.1602 2.3398 5.6602s3.5391 2.3398 5.6602 2.3398h51.801c2.1211 0 4.1406-0.83984 5.6406-2.3398 1.5195-1.5 2.3594-3.5391 2.3594-5.6602v-122.14l36.16-20.879-0.019531 0.019531c2.4805-1.4414 4-4.0781 4-6.9414v-76.262c0-2.8594-1.5195-5.5-4-6.9414zm-87.941 225.14v-33.641h35.801v33.641zm75.961-146.54-36.16 20.879v-0.019532c-2.4805 1.4219-4 4.0586-4 6.9219v69.098l-35.801 0.019531v-69.121c0-2.8594-1.5195-5.5-4-6.9219l-36.16-20.879v-67.043l25.281-14.602v42.641c0 18.102 14.68 32.781 32.781 32.781 18.102 0 32.762-14.68 32.762-32.781v-42.641l25.281 14.602zm-261.14 36.699h-17.559c-0.28125-0.73828-0.57813-1.4609-0.89844-2.1797l12.422-12.422v0.019531c2.6406-2.6406 3.1016-6.7812 1.1016-9.9414-7.8008-12.281-18.219-22.699-30.52-30.5-3.1602-2-7.2812-1.5391-9.9414 1.1016l-12.422 12.422c-0.71875-0.32031-1.4414-0.62109-2.1797-0.89844l0.019531-17.578c0-3.7383-2.6016-6.9805-6.2422-7.8008-14.219-3.1797-28.961-3.1797-43.16 0-3.6602 0.82031-6.2422 4.0586-6.2422 7.8008v17.559c-0.73828 0.30078-1.4609 0.60156-2.1797 0.89844l-12.422-12.398c-2.6406-2.6602-6.7617-3.1211-9.9219-1.1016-12.301 7.8008-22.719 18.219-30.52 30.5-2 3.1602-1.5586 7.3008 1.1016 9.9414l12.422 12.422c-0.32031 0.71875-0.62109 1.4414-0.89844 2.1797l-17.559-0.019532c-3.7617 0-7 2.6016-7.8203 6.2617-3.1797 14.199-3.1797 28.941 0 43.141 0.82031 3.6602 4.0586 6.2617 7.8008 6.2617h17.559c0.30078 0.73828 0.60156 1.4609 0.89844 2.1797l-12.398 12.398c-2.6602 2.6406-3.1016 6.7812-1.1016 9.9414 7.8008 12.281 18.219 22.699 30.52 30.52 3.1602 2 7.2812 1.5391 9.9219-1.1211l12.422-12.422c0.71875 0.32031 1.4414 0.62109 2.1797 0.89844v17.578c0 3.7383 2.5781 6.9805 6.2422 7.8008 14.199 3.1992 28.941 3.1992 43.16 0 3.6406-0.82031 6.2422-4.0586 6.2422-7.8008v-17.559c0.73828-0.30078 1.4609-0.60156 2.1797-0.89844l12.422 12.422-0.019532-0.019531c2.6602 2.6602 6.7812 3.1211 9.9414 1.1211 12.301-7.8203 22.719-18.238 30.52-30.52 2-3.1602 1.5391-7.3008-1.1016-9.9414l-12.422-12.422c0.32031-0.71875 0.62109-1.4414 0.89844-2.1797l17.559 0.019531c3.7383 0 6.9805-2.6016 7.8008-6.2617 3.1992-14.199 3.1992-28.941 0-43.141-0.82031-3.6602-4.0586-6.2617-7.8008-6.2617zm-6.6602 39.641-16.559 0.019531c-3.5 0-6.6211 2.2812-7.6406 5.6406-1.1016 3.6016-2.5586 7.1016-4.3203 10.422-1.6602 3.1016-1.0781 6.9219 1.3984 9.418l11.719 11.719v-0.019531c-4.7617 6.3398-10.379 11.98-16.719 16.719l-11.719-11.699c-2.4805-2.5-6.3008-3.0586-9.418-1.3984-3.3203 1.7617-6.8008 3.1992-10.398 4.3203-3.3594 1.0195-5.6602 4.1211-5.6602 7.6406v16.559c-7.8398 1.1406-15.801 1.1406-23.641 0v-16.559c0-3.5195-2.3008-6.6211-5.6602-7.6406-3.6016-1.1211-7.0781-2.5586-10.422-4.3203-3.1016-1.6602-6.9219-1.1016-9.3984 1.3984l-11.719 11.699c-6.3398-4.7383-11.98-10.379-16.719-16.719l11.719-11.719-0.019531 0.019531c2.5-2.5 3.0586-6.3203 1.4219-9.418-1.7812-3.3203-3.2188-6.8203-4.3203-10.422-1.0391-3.3594-4.1406-5.6406-7.6602-5.6406h-16.559c-1.1211-7.8398-1.1211-15.82 0-23.66h16.559c3.5195 0 6.6211-2.2812 7.6602-5.6406 1.1016-3.6016 2.5391-7.1016 4.3203-10.422 1.6406-3.1016 1.0781-6.9219-1.4219-9.418l-11.699-11.699c4.7383-6.3398 10.379-11.98 16.719-16.719l11.719 11.719v-0.019531c2.4805 2.5 6.3008 3.0586 9.3984 1.3984 3.3398-1.7617 6.8203-3.1992 10.422-4.3203 3.3594-1.0195 5.6602-4.1211 5.6602-7.6406v-16.559c7.8398-1.1406 15.801-1.1406 23.641 0v16.559c0 3.5195 2.3008 6.6211 5.6602 7.6406 3.6016 1.1211 7.0781 2.5586 10.422 4.3398 3.1016 1.6406 6.9219 1.0781 9.3984-1.4219l11.719-11.699c6.3398 4.7383 11.961 10.379 16.719 16.719l-11.719 11.719v-0.019531c-2.4805 2.5-3.0586 6.3008-1.3984 9.418 1.7617 3.3203 3.1992 6.8203 4.3203 10.422 1.0195 3.3594 4.1406 5.6406 7.6406 5.6406h16.559c1.1406 7.8398 1.1406 15.82 0 23.66zm-81.164-53.477 0.019532 0.019532c-16.859 0-32.039 10.141-38.48 25.699-6.4609 15.582-2.8984 33.5 9.0195 45.398 11.918 11.918 29.84 15.48 45.398 9.0391 15.559-6.4609 25.719-21.641 25.719-38.48-0.039063-23-18.66-41.641-41.66-41.66zm0 67.316h0.019532c-10.379 0-19.738-6.2422-23.699-15.84-3.9805-9.5781-1.7812-20.621 5.5586-27.961 7.3398-7.3203 18.359-9.5195 27.961-5.5586 9.5781 3.9805 15.84 13.34 15.84 23.719-0.019531 14.16-11.5 25.641-25.66 25.641z" fill="#fff"></path></svg>