<svg xmlns="http://www.w3.org/2000/svg" width="100pt" height="100pt" viewBox="0 0 100 100"><path d="m100 50c0 27.613-22.387 50-50 50s-50-22.387-50-50 22.387-50 50-50 50 22.387 50 50" fill="#ea5b0a"></path><path d="m73.133 45.18c0 1.1406-0.46875 2.1797-1.2188 2.9336-0.75391 0.75391-1.793 1.2188-2.9336 1.2188h-8.4414c0.54297 0.70312 0.86719 1.582 0.86719 2.5352 0 1.1406-0.46875 2.1836-1.2188 2.9336-0.46094 0.46094-1.0273 0.8125-1.6602 1.0195 0.64453 0.73047 1.0312 1.6914 1.0312 2.7344 0 1.1445-0.46875 2.1836-1.2188 2.9336-0.51172 0.51172-1.1562 0.89062-1.875 1.082 0.60938 0.72266 0.98047 1.6562 0.98047 2.6719 0 1.1406-0.46875 2.1797-1.2188 2.9336-0.75391 0.75391-1.793 1.2188-2.9336 1.2188h-7.4297v-0.003906h-0.45312c-5.2969 0.003906-10.25 0.007813-14.438-4.1797-2.8594-2.8594-4.1758-6.5234-4.0977-10.188 0.078125-3.7695 1.6367-7.5273 4.5078-10.398l13.789-13.789c0.32422-0.32031 0.84375-0.32031 1.168 0 0.125 0.125 0.24609 0.25781 0.375 0.39453 1.5898 1.7812 2.0859 3.7305 1.7969 5.625-0.22656 1.4727-0.92578 2.8945-1.957 4.1641h22.43c1.1445 0 2.1836 0.46875 2.9336 1.2188 0.75391 0.75391 1.2188 1.793 1.2188 2.9336zm-1.6523 0c0-0.6875-0.28125-1.3125-0.73438-1.7656-0.45312-0.45312-1.0781-0.73437-1.7656-0.73437h-24.363c-0.22656 0-0.45313-0.09375-0.61719-0.27734-0.30078-0.33984-0.27344-0.86328 0.070312-1.1641 0.15625-0.14062 0.30469-0.27734 0.4375-0.40625 0.011719-0.015625 0.023438-0.027343 0.039063-0.042969 1.2422-1.2422 2.1055-2.6914 2.3281-4.168 0.19922-1.3242-0.11719-2.6992-1.1523-3.9922l-13.172 13.172c-2.5664 2.5664-3.957 5.918-4.0312 9.2656-0.066406 3.2266 1.0977 6.4609 3.6211 8.9844 3.7109 3.7109 8.3281 3.707 13.27 3.7031h0.45312v-0.003906h7.4297c0.6875 0 1.3125-0.28125 1.7656-0.73438s0.73828-1.0781 0.73828-1.7656-0.28125-1.3125-0.73828-1.7656c-0.45312-0.45312-1.0781-0.73438-1.7656-0.73438h-1.9922c-0.45703 0-0.82812-0.37109-0.82812-0.82812v-0.03125c0-0.45703 0.37109-0.82422 0.82812-0.82422h4.1094c0.6875 0 1.3125-0.28125 1.7656-0.73438s0.73438-1.0781 0.73438-1.7656-0.28125-1.3125-0.73438-1.7656-1.0781-0.73828-1.7656-0.73828h-4.1094c-0.45703 0-0.82812-0.36719-0.82812-0.82422v-0.03125c0-0.45703 0.37109-0.82422 0.82812-0.82422h5.957c0.6875 0 1.3125-0.28125 1.7656-0.73828 0.45312-0.45312 0.73828-1.0781 0.73828-1.7656s-0.28125-1.3125-0.73828-1.7656c-0.45313-0.45312-1.0781-0.73828-1.7656-0.73828h-5.957c-0.45703 0-0.82812-0.37109-0.82812-0.82422v-0.03125c0-0.45703 0.37109-0.82812 0.82812-0.82812h17.684c0.6875 0 1.3125-0.28125 1.7656-0.73438s0.73438-1.0781 0.73438-1.7656z" fill="#fff"></path></svg>