<svg xmlns="http://www.w3.org/2000/svg" width="100pt" height="100pt" viewBox="0 0 100 100"><path d="m52.184 30.949 3.5859 11.113 11.695-0.023438c1.2617 0 2.2891 1.0273 2.2891 2.2891 0 0.76172-0.37109 1.4375-0.94531 1.8516l0.003906 0.007812-9.4727 6.8555 3.6328 11.113c0.39453 1.2031-0.26562 2.4961-1.4727 2.8906-0.78516 0.25391-1.6094 0.0625-2.1953-0.43359l-9.3086-6.7891-9.4492 6.8945c-1.0195 0.74219-2.4492 0.51953-3.1953-0.5-0.44531-0.61328-0.54297-1.3789-0.32812-2.0508h-0.007813l3.6328-11.113-9.4727-6.8555c-1.0273-0.74219-1.2539-2.1797-0.51172-3.2031 0.48438-0.66406 1.2617-0.99609 2.0234-0.94141l11.527 0.019531 3.5898-11.129c0.38672-1.2031 1.6758-1.8672 2.8789-1.4805 0.73438 0.23438 1.2695 0.80859 1.4844 1.4922zm-2.1836 44.562c7.043 0 13.422-2.8555 18.039-7.4688 4.6172-4.6172 7.4688-10.996 7.4688-18.039 0-7.043-2.8555-13.422-7.4688-18.039-4.6172-4.6172-10.996-7.4688-18.039-7.4688s-13.422 2.8555-18.039 7.4688c-4.6172 4.6172-7.4688 10.996-7.4688 18.039 0 7.043 2.8555 13.422 7.4688 18.039 4.6172 4.6172 10.996 7.4688 18.039 7.4688zm21.285-4.2227c-5.4492 5.4492-12.973 8.8164-21.285 8.8164s-15.836-3.3672-21.285-8.8164c-5.4492-5.4492-8.8164-12.977-8.8164-21.285 0-8.3125 3.3672-15.836 8.8164-21.285 5.4492-5.4492 12.973-8.8164 21.285-8.8164 8.3086 0 15.84 3.3672 21.285 8.8164 5.4492 5.4492 8.8164 12.973 8.8164 21.285s-3.3672 15.836-8.8164 21.285zm-19.598-69.535 8.6836 9.5078 12.289-3.8945c1.2109-0.38281 2.5 0.28906 2.8789 1.4961 0.019532 0.066407 0.039063 0.13281 0.054688 0.19922l2.7734 12.574 12.574 2.7695c1.2383 0.27344 2.0234 1.4961 1.75 2.7344-0.019531 0.09375-0.046875 0.18359-0.074218 0.26953l-3.8711 12.215 9.5078 8.6836c0.92969 0.85156 0.99609 2.2969 0.14453 3.2305-0.046876 0.050782-0.09375 0.097657-0.14453 0.14453l-9.5078 8.6836 3.8945 12.289c0.38281 1.2109-0.28906 2.5-1.5 2.8789-0.066406 0.019532-0.13281 0.039063-0.19922 0.054688l-12.574 2.7734-2.7695 12.574c-0.27344 1.2383-1.4961 2.0234-2.7344 1.75-0.09375-0.019531-0.18359-0.046875-0.26953-0.074219l-12.215-3.8711-8.6836 9.5078c-0.85156 0.92969-2.2969 0.99609-3.2305 0.14453-0.050782-0.046875-0.097656-0.09375-0.14453-0.14453l-8.6836-9.5078-12.289 3.8945c-1.2109 0.38281-2.5-0.28906-2.8789-1.5-0.019531-0.066407-0.039062-0.13281-0.054688-0.19922l-2.7734-12.574-12.574-2.7695c-1.2383-0.27344-2.0234-1.4961-1.75-2.7344 0.019532-0.09375 0.046875-0.18359 0.074219-0.26953l3.8711-12.215-9.5078-8.6836c-0.92969-0.85156-0.99609-2.2969-0.14453-3.2305 0.046875-0.050782 0.09375-0.097657 0.14453-0.14453l9.5078-8.6836-3.8945-12.289c-0.38281-1.2109 0.28906-2.5 1.5-2.8789 0.066406-0.019532 0.13281-0.039063 0.19922-0.054688l12.574-2.7734 2.7695-12.574c0.27344-1.2383 1.4961-2.0234 2.7344-1.75 0.09375 0.019531 0.18359 0.046875 0.26953 0.078125l12.215 3.8711 8.6836-9.5078c0.85156-0.92969 2.2969-0.99609 3.2305-0.14453 0.050781 0.046875 0.097656 0.09375 0.14453 0.14453zm6.3047 13.676-7.9883-8.7461-7.8438 8.5898c-0.57031 0.75-1.5703 1.1055-2.5234 0.80469l-11.281-3.5742-2.5352 11.516c-0.17578 0.86328-0.84375 1.5859-1.7578 1.7891l-11.555 2.543 3.5742 11.281-0.007812 0.003907c0.25781 0.82031 0.039062 1.7539-0.64062 2.3711l-8.7461 7.9883 8.5898 7.8438c0.75391 0.57031 1.1055 1.5703 0.80469 2.5234l-3.5742 11.281 11.516 2.5352c0.86328 0.17578 1.5859 0.84375 1.7891 1.7578l2.543 11.555 11.281-3.5742 0.003906 0.007812c0.82031-0.25781 1.7539-0.039062 2.3711 0.64062l7.9883 8.7461 7.8438-8.5898c0.57031-0.75391 1.5703-1.1055 2.5234-0.80469l11.281 3.5742 2.5352-11.516c0.17578-0.86328 0.84375-1.5859 1.7578-1.7891l11.555-2.543-3.5742-11.281 0.007813-0.003906c-0.25781-0.82031-0.039063-1.7539 0.64062-2.375l8.7461-7.9883-8.5898-7.8438c-0.75391-0.57031-1.1055-1.5703-0.80469-2.5234l3.5742-11.281-11.516-2.5352c-0.86328-0.17578-1.5859-0.84375-1.7891-1.7578l-2.543-11.555-11.281 3.5742-0.003907-0.007813c-0.82031 0.25781-1.7539 0.039063-2.3711-0.64062zm-6.0664 29.621-1.9219-5.9609-1.9219 5.9609c-0.29688 0.92188-1.1602 1.5859-2.1797 1.5859l-6.2695-0.011719 5.0781 3.6758c0.78125 0.56641 1.1484 1.5977 0.83594 2.5664l-1.9492 5.9688 5.0312-3.668c0.78125-0.59375 1.8945-0.63672 2.7266-0.027344l5.0664 3.6953-1.9219-5.8828c-0.34375-0.9375-0.042969-2.0312 0.80859-2.6484l5.0781-3.6758-6.1602 0.011719c-1.0078 0.046875-1.9648-0.58203-2.2891-1.5859z" fill="#ea5b0a"></path></svg>