<svg xmlns="http://www.w3.org/2000/svg" width="100pt" height="100pt" viewBox="0 0 100 100"><path d="m5.3711 15.012v69.988c0 5.3203 4.3281 9.6406 9.6406 9.6406h69.98c5.3203 0 9.6406-4.3281 9.6406-9.6406l-0.003906-69.988c0-5.3203-4.3281-9.6406-9.6406-9.6406h-69.977c-5.3203 0-9.6406 4.3281-9.6406 9.6406zm84.27 0v69.988c0 2.5586-2.0781 4.6406-4.6406 4.6406h-69.988c-2.5586 0-4.6406-2.0781-4.6406-4.6406v-69.988c0-2.5586 2.0781-4.6406 4.6406-4.6406h69.98c2.5586 0 4.6406 2.0781 4.6406 4.6406z" fill="#ea5b0a"></path><path d="m23.07 71.02v6.75c0 1.3789 1.1211 2.5 2.5 2.5 1.3789 0 2.5-1.1211 2.5-2.5v-6.75c4.1289-1.1094 7.1914-4.8711 7.1914-9.3516s-3.0508-8.2383-7.1914-9.3516v-30.102c0-1.3789-1.1211-2.5-2.5-2.5-1.3789 0-2.5 1.1211-2.5 2.5v30.102c-4.1289 1.1094-7.1797 4.8711-7.1797 9.3516s3.0508 8.2383 7.1797 9.3516zm0-13.289c0.73047-0.46094 1.5781-0.73828 2.5-0.73828 0.92188 0 1.7695 0.28125 2.5 0.73828 1.3086 0.82812 2.1914 2.2891 2.1914 3.9492 0 1.6602-0.87891 3.1211-2.1914 3.9492-0.73047 0.46094-1.5781 0.73828-2.5 0.73828-0.92187 0-1.7695-0.28125-2.5-0.73828-1.3086-0.82812-2.1797-2.2891-2.1797-3.9492 0-1.6602 0.87891-3.1211 2.1797-3.9492z" fill="#ea5b0a"></path><path d="m47.5 50.039v27.73c0 1.3789 1.1211 2.5 2.5 2.5s2.5-1.1211 2.5-2.5v-27.73c4.1289-1.1094 7.1797-4.8711 7.1797-9.3516s-3.0508-8.2383-7.1797-9.3516v-9.1211c0-1.3789-1.1211-2.5-2.5-2.5s-2.5 1.1211-2.5 2.5v9.1211c-4.1289 1.1094-7.1914 4.8711-7.1914 9.3516s3.0508 8.2383 7.1914 9.3516zm0-13.289c0.73047-0.46094 1.5781-0.73828 2.5-0.73828s1.7695 0.28125 2.5 0.73828c1.3086 0.82812 2.1797 2.2891 2.1797 3.9492 0 1.6602-0.87891 3.1211-2.1797 3.9492-0.73047 0.46094-1.5781 0.73828-2.5 0.73828s-1.7695-0.28125-2.5-0.73828c-1.3086-0.82813-2.1914-2.2891-2.1914-3.9492 0-1.6602 0.87891-3.1211 2.1914-3.9492z" fill="#ea5b0a"></path><path d="m71.93 64.711v13.059c0 1.3789 1.1211 2.5 2.5 2.5 1.3789 0 2.5-1.1211 2.5-2.5v-13.059c4.1289-1.1094 7.1797-4.8711 7.1797-9.3516s-3.0508-8.2383-7.1797-9.3516v-23.789c0-1.3789-1.1211-2.5-2.5-2.5-1.3789 0-2.5 1.1211-2.5 2.5v23.789c-4.1289 1.1094-7.1914 4.8711-7.1914 9.3516s3.0508 8.2383 7.1914 9.3516zm0-13.289c0.73047-0.46094 1.5781-0.73828 2.5-0.73828 0.92187 0 1.7695 0.28125 2.5 0.73828 1.3086 0.82812 2.1797 2.2891 2.1797 3.9492s-0.87891 3.1211-2.1797 3.9492c-0.73047 0.46094-1.5781 0.73828-2.5 0.73828-0.92188 0-1.7695-0.28125-2.5-0.73828-1.3086-0.82812-2.1914-2.2891-2.1914-3.9492s0.87891-3.1211 2.1914-3.9492z" fill="#ea5b0a"></path></svg>