<svg xmlns="http://www.w3.org/2000/svg" width="512pt" height="512pt" viewBox="0 0 512 512"><path d="m512 256c0 141.39-114.61 256-256 256s-256-114.61-256-256 114.61-256 256-256 256 114.61 256 256" fill="#61ce70"></path><path d="m307.79 222.23c1.7109 1.8633 2.6094 4.332 2.5 6.8555-0.10938 2.5273-1.2227 4.9062-3.0898 6.6133l-59.594 54.645c-1.7578 1.6172-4.0586 2.5117-6.4453 2.5156-0.18359 0.007813-0.36719-0.007812-0.54297-0.042969-2.5742-0.13672-4.9805-1.3086-6.6758-3.2461l-29.891-34.438c-3.3672-3.9883-2.9102-9.9414 1.0312-13.367s9.9023-3.0547 13.383 0.83594l23.469 27.023 52.363-47.992h0.003906c3.8945-3.5391 9.918-3.2734 13.488 0.59766zm73.742 77.188c1.5234-1.0664 2.1562-3.0156 1.5469-4.7734l-9.7734-31.75h0.003907c-1.4297-4.4922-1.4297-9.3203 0-13.812l9.7734-31.75h-0.003906c0.60547-1.7617-0.023438-3.707-1.5469-4.7773l-26.574-19.945c-3.7969-2.7891-6.6328-6.6914-8.1055-11.168l-10.746-31.41c-0.53906-1.7891-2.207-2.9922-4.0742-2.9414l-33.219-0.51172c-4.707-0.042969-9.2852-1.5273-13.121-4.2617l-27.18-19.137c-1.4766-1.1367-3.5352-1.1367-5.0156 0l-27.18 19.141v-0.003907c-3.8359 2.7305-8.418 4.2188-13.125 4.2617l-33.219 0.51172c-1.8672-0.054688-3.5352 1.1523-4.0703 2.9414l-10.758 31.414-0.003906-0.003907c-1.4727 4.4766-4.3086 8.3789-8.1094 11.168l-26.555 19.941c-1.5234 1.0703-2.1523 3.0156-1.5508 4.7773l9.7734 31.75h0.003907c1.4258 4.4922 1.4258 9.3203 0 13.812l-9.7734 31.75h-0.003906c-0.60156 1.7578 0.03125 3.7031 1.5508 4.7734l26.574 19.945c3.7969 2.7891 6.6328 6.6914 8.1055 11.168l10.758 31.414 0.003906-0.003906c0.51953 1.8047 2.1992 3.0195 4.0742 2.9453l33.223 0.55469-0.003907-0.003906c4.707 0.007812 9.293 1.5 13.105 4.2656l27.18 19.09c1.4883 1.1094 3.5273 1.1094 5.0156 0l27.18-19.09c3.8164-2.7695 8.4102-4.2617 13.121-4.2656l33.219-0.55469v0.003907c1.875 0.074219 3.5547-1.1406 4.0742-2.9453l10.758-31.414v0.003906c1.4766-4.4766 4.3086-8.3789 8.1094-11.168l26.574-19.945zm19.793-10.398-9.7734-31.75 0.003906-0.003907c-0.29688-0.82812-0.29688-1.7305 0-2.5547l9.7734-31.754-0.003907-0.003907c1.4609-4.6094 1.4414-9.5625-0.054687-14.16-1.4922-4.6016-4.3867-8.6172-8.2773-11.492l-26.574-19.945 0.003907-0.003906c-0.73438-0.49609-1.2695-1.2383-1.5078-2.0898l-10.758-31.414c-1.5391-4.582-4.4688-8.5742-8.3789-11.414-3.9141-2.8398-8.6133-4.3945-13.445-4.4375l-33.223-0.51172c-0.88281 0.015625-1.7422-0.26953-2.4414-0.80859l-27.176-19.098c-3.9375-2.8047-8.6523-4.3125-13.488-4.3125s-9.5508 1.5078-13.488 4.3125l-27.18 19.105c-0.69922 0.53906-1.5586 0.82422-2.4414 0.80469l-33.219 0.51172 0.003906 0.003906c-4.8359 0.042969-9.5352 1.5938-13.449 4.4375-3.9102 2.8398-6.8398 6.832-8.375 11.414l-10.758 31.414h-0.003906c-0.23828 0.85156-0.76953 1.5938-1.5078 2.0898l-26.57 19.941c-3.8906 2.875-6.7812 6.8906-8.2773 11.492-1.4961 4.5977-1.5156 9.5508-0.058594 14.16l9.7734 31.754v0.003906c0.29297 0.82422 0.29297 1.7266 0 2.5547l-9.7734 31.75c-1.457 4.6133-1.4375 9.5664 0.058594 14.168 1.4922 4.5977 4.3867 8.6172 8.2773 11.492l26.574 19.945-0.003907 0.003906c0.73438 0.49219 1.2695 1.2344 1.5078 2.0859l10.758 31.414h0.003906c1.5195 4.5898 4.4453 8.5938 8.3594 11.438 3.9141 2.8438 8.625 4.3867 13.465 4.4141l33.219 0.51172h-0.003906c0.87891 0.007812 1.7344 0.29297 2.4414 0.8125l27.18 19.113c3.9375 2.8086 8.6523 4.3164 13.488 4.3164s9.5508-1.5078 13.488-4.3164l27.176-19.102c0.71094-0.51953 1.5664-0.80469 2.4453-0.8125l33.219-0.51172c4.8359-0.027344 9.5469-1.5742 13.461-4.418 3.9141-2.8438 6.8398-6.8438 8.3633-11.438l10.758-31.414v0.003906c0.23828-0.85547 0.77344-1.5938 1.5078-2.0898l26.574-19.945h-0.003907c3.8906-2.875 6.7852-6.8945 8.2773-11.496 1.4961-4.5977 1.5156-9.5508 0.054687-14.164zm-145.32 41.258c19.703 0.003906 38.602-7.8242 52.539-21.754 13.934-13.93 21.762-32.828 21.766-52.531 0-19.703-7.8242-38.602-21.758-52.535-13.934-13.934-32.832-21.762-52.535-21.762s-38.602 7.832-52.531 21.766c-13.934 13.934-21.758 32.832-21.758 52.535 0.023438 19.691 7.8594 38.57 21.781 52.496 13.926 13.926 32.805 21.758 52.496 21.785zm0-167.67c-24.77-0.003906-48.523 9.8281-66.039 27.34-17.516 17.512-27.359 41.262-27.363 66.031s9.832 48.523 27.344 66.039c17.512 17.516 41.266 27.355 66.035 27.359 24.766 0 48.52-9.8359 66.035-27.348 17.516-17.516 27.355-41.266 27.355-66.035-0.023438-24.758-9.8672-48.492-27.371-66s-41.238-27.359-65.996-27.391z" fill="#fff" fill-rule="evenodd"></path></svg>