<svg xmlns="http://www.w3.org/2000/svg" width="100pt" height="100pt" viewBox="0 0 100 100"><path d="m94.176 10.117h-30.105c-0.80078 0-1.4492 0.64844-1.4492 1.4492v9.8828h-0.09375c-1.3008-1.3125-3.0586-2.0547-4.9297-2.0547-0.67578 0-1.3516 0.10156-1.9961 0.29297-0.16406-0.066406-0.34375-0.10156-0.53125-0.10156h-12.215v-0.28516c1.543-1.4883 2.418-3.5273 2.418-5.6914 0-4.3633-3.5508-7.9141-7.9141-7.9141s-7.9141 3.5508-7.9141 7.9141c0 2.168 0.87109 4.207 2.418 5.6914v0.28516h-12.215c-0.80078 0-1.4492 0.64844-1.4492 1.4492v11.887h-0.21094c-1.4883-1.543-3.5273-2.418-5.6914-2.418-4.3633 0-7.9141 3.5508-7.9141 7.9141s3.5508 7.9141 7.9141 7.9141c2.168 0 4.207-0.87109 5.6914-2.418h0.21094v12.551c0 0.80078 0.64844 1.4492 1.4492 1.4492h12.215v0.12109c-0.79688 0.76562-1.4141 1.6797-1.8242 2.6836h-3.6133c-0.80078 0-1.4492 0.64844-1.4492 1.4492v2.4727c0 0.4375 0.19922 0.85547 0.53906 1.1289 0.96094 0.77344 1.5117 1.9258 1.5117 3.1523 0 2.2305-1.8164 4.0469-4.0469 4.0469s-4.0469-1.8164-4.0469-4.0469c0-1.2305 0.55078-2.3789 1.5117-3.1523 0.33984-0.27344 0.53906-0.69141 0.53906-1.1289v-2.4727c0-0.80078-0.64844-1.4492-1.4492-1.4492l-11.609-0.003906c-0.80078 0-1.4492 0.64844-1.4492 1.4492v30.105c0 0.80078 0.64844 1.4492 1.4492 1.4492h30.105c0.80078 0 1.4492-0.64844 1.4492-1.4492v-9.8828h0.09375c1.3008 1.3125 3.0586 2.0547 4.9297 2.0547 1.8945 0 3.6914-0.77734 4.9883-2.1211h9.0977v0.03125c-1.3242 1.3086-2.0703 3.082-2.0703 4.9609 0 3.8516 3.1328 6.9844 6.9844 6.9844 3.8516 0 6.9844-3.1328 6.9844-6.9844 0-1.8828-0.74609-3.6562-2.0703-4.9609v-0.03125h10.254c0.80078 0 1.4492-0.64844 1.4492-1.4492v-10.539h0.11328c1.3086 1.3242 3.082 2.0703 4.9609 2.0703 3.8516 0 6.9844-3.1328 6.9844-6.9844 0-3.8516-3.1328-6.9844-6.9844-6.9844-1.8828 0-3.6562 0.74609-4.9609 2.0703h-0.11328v-5.5664c3.3555-0.48828 5.9414-3.3828 5.9414-6.8711 0-1.8711-0.74219-3.6289-2.0547-4.9297v-0.015625h10.164c0.80078 0 1.4492-0.64844 1.4492-1.4492l0.003906-30.105c0-0.80078-0.64844-1.4492-1.4492-1.4492zm-31.555 26.91c-3.4336 0.4375-6.0977 3.375-6.0977 6.9258 0 1.8828 0.74609 3.6562 2.0703 4.9609v0.17188h-2.0742v-6.625c0-0.80078-0.64844-1.4492-1.4492-1.4492h-2.4648c-0.4375 0-0.85547 0.19922-1.1289 0.53906-0.96094 1.1914-2.3828 1.8789-3.9102 1.8789-2.7656 0-5.0195-2.25-5.0195-5.0156 0-2.7656 2.25-5.0195 5.0195-5.0195 1.5273 0 2.9531 0.68359 3.9102 1.8789 0.27344 0.33984 0.69141 0.53906 1.1289 0.53906h2.4648c0.80078 0 1.4492-0.64844 1.4492-1.4492v-1.168c0.35547 0.054688 0.71484 0.082032 1.0781 0.082032 1.8711 0 3.6289-0.74219 4.9297-2.0547h0.09375zm-41.531 17.988v-12.551c0-0.80078-0.64844-1.4492-1.4492-1.4492h-2.3125c-0.4375 0-0.85547 0.19922-1.1289 0.53906-0.96094 1.1914-2.3828 1.8789-3.9102 1.8789-2.7656 0-5.0195-2.25-5.0195-5.0156s2.25-5.0195 5.0195-5.0195c1.5273 0 2.9531 0.68359 3.9102 1.8789 0.27344 0.33984 0.69141 0.53906 1.1289 0.53906h2.3125c0.80078 0 1.4492-0.64844 1.4492-1.4492v-11.887h12.215c0.80078 0 1.4492-0.64844 1.4492-1.4492v-2.3867c0-0.4375-0.19922-0.85547-0.53906-1.1289-1.1914-0.96094-1.8789-2.3867-1.8789-3.9102 0-2.7656 2.25-5.0195 5.0195-5.0195 2.7656 0 5.0195 2.25 5.0195 5.0195 0 1.5273-0.68359 2.9531-1.8789 3.9102-0.33984 0.27344-0.53906 0.69141-0.53906 1.1289v2.3867c0 0.80078 0.64844 1.4492 1.4492 1.4492h12.215v10.438h-0.36328c-1.4883-1.543-3.5273-2.418-5.6914-2.418-4.3633 0-7.9141 3.5508-7.9141 7.9141 0 4.3633 3.5508 7.9141 7.9141 7.9141 2.168 0 4.207-0.87109 5.6914-2.418h0.36328v11.102h-12.215c-0.80078 0-1.4492 0.64844-1.4492 1.4492v2.2227c0 0.4375 0.19922 0.85547 0.53906 1.1289 1.1914 0.96094 1.8789 2.3867 1.8789 3.9102 0 2.7656-2.25 5.0195-5.0195 5.0195-2.7656 0-5.0195-2.25-5.0195-5.0195 0-1.5273 0.68359-2.9531 1.8789-3.9102 0.33984-0.27344 0.53906-0.69141 0.53906-1.1289v-2.2227c0-0.80078-0.64844-1.4492-1.4492-1.4492h-12.215zm27.25 8.3906h2.9766c0.4375 0 0.85547-0.19922 1.1289-0.53906 0.78125-0.97266 1.9414-1.5273 3.1875-1.5273 2.2539 0 4.0859 1.832 4.0859 4.0859 0 2.2539-1.832 4.0859-4.0859 4.0859-1.2422 0-2.4062-0.55859-3.1875-1.5273-0.27344-0.33984-0.69141-0.53906-1.1289-0.53906h-2.9766c-0.80078 0-1.4492 0.64844-1.4492 1.4492v2.0859c-0.75391-0.27344-1.5586-0.41797-2.3867-0.41797-1.8711 0-3.6289 0.74219-4.9297 2.0547h-0.09375v-1.2617c3.3359-0.92969 5.7891-3.9961 5.7891-7.6211 0-2.168-0.87109-4.207-2.418-5.6914v-0.12109h4.0391v4.043c0 0.80078 0.64844 1.4492 1.4492 1.4492zm-6.9883 16.625c-0.27344-0.33984-0.69141-0.53906-1.1289-0.53906h-2.1875c-0.80078 0-1.4492 0.64844-1.4492 1.4492v9.8828h-27.211v-27.211h8.7148v0.37891c-1.3125 1.3008-2.0547 3.0586-2.0547 4.9297 0 3.8281 3.1133 6.9453 6.9453 6.9453 3.8281 0 6.9453-3.1133 6.9453-6.9453 0-1.8711-0.74219-3.6289-2.0547-4.9297v-0.37891h1.5742c0 0.039063-0.003906 0.074219-0.003906 0.11328 0 4.1055 3.1406 7.4883 7.1445 7.8789v2.457c0 0.80078 0.64844 1.4492 1.4492 1.4492h2.1875c0.4375 0 0.85547-0.19922 1.1289-0.53906 0.77344-0.96094 1.9258-1.5117 3.1523-1.5117 0.87109 0 1.6953 0.27734 2.3867 0.78125v6.5273c-0.68359 0.5-1.5195 0.78125-2.3867 0.78125-1.2305 0-2.3828-0.55078-3.1523-1.5117zm39.531-16.625c0.4375 0 0.85547-0.19922 1.1289-0.53906 0.78125-0.97266 1.9414-1.5273 3.1875-1.5273 2.2539 0 4.0859 1.832 4.0859 4.0859 0 2.2539-1.8359 4.0859-4.0859 4.0859-1.2422 0-2.4062-0.55859-3.1875-1.5273-0.27344-0.33984-0.69141-0.53906-1.1289-0.53906h-2.207c-0.80078 0-1.4492 0.64844-1.4492 1.4492v10.539h-10.254c-0.80078 0-1.4492 0.64844-1.4492 1.4492v2.1289c0 0.4375 0.19922 0.85547 0.53906 1.1289 0.97266 0.78125 1.5273 1.9453 1.5273 3.1875 0 2.2539-1.8359 4.0859-4.0859 4.0859-2.2539 0-4.0859-1.8359-4.0859-4.0859 0-1.2422 0.55859-2.4062 1.5273-3.1875 0.33984-0.27344 0.53906-0.69141 0.53906-1.1289v-2.1289c0-0.80078-0.64844-1.4492-1.4492-1.4492h-10.254v-9.0898h0.88281c1.3086 1.3242 3.082 2.0703 4.9609 2.0703 3.8516 0 6.9844-3.1328 6.9844-6.9844 0-3.8516-3.1328-6.9844-6.9844-6.9844-1.8828 0-3.6562 0.74609-4.9609 2.0703h-0.88281v-2.5938h5.2812c0.80078 0 1.4492-0.64844 1.4492-1.4492v-4.4766h3.5234c0.80078 0 1.4492-0.64844 1.4492-1.4492v-2.2695c0-0.4375-0.19922-0.85547-0.53906-1.1289-0.97266-0.78125-1.5273-1.9414-1.5273-3.1875 0-2.2539 1.832-4.0859 4.0859-4.0859s4.0859 1.832 4.0859 4.0859c0 1.2422-0.55859 2.4062-1.5273 3.1875-0.33984 0.27344-0.53906 0.69141-0.53906 1.1289v2.2695c0 0.80078 0.64844 1.4492 1.4492 1.4492h10.254v9.9688c0 0.80078 0.64844 1.4492 1.4492 1.4492h2.207zm-10.441-20.281h3.793v0.015625c-1.3125 1.3008-2.0547 3.0586-2.0547 4.9297 0 0.34375 0.023437 0.68359 0.074218 1.0195h-3.832v-0.17188c1.3242-1.3086 2.0703-3.082 2.0703-4.9609 0-0.28125-0.019532-0.55859-0.050782-0.83203zm22.285-2.8984h-10.164c-0.80078 0-1.4492 0.64844-1.4492 1.4492v2.1133c0 0.4375 0.19922 0.85547 0.53906 1.1289 0.96094 0.77344 1.5117 1.9258 1.5117 3.1523 0 1.8867-1.2969 3.4727-3.043 3.9219v-1.4492c0-0.80078-0.64844-1.4492-1.4492-1.4492h-3.4648c-0.085937-0.33203-0.13281-0.67188-0.13281-1.0195 0-1.2305 0.55078-2.3789 1.5117-3.1523 0.33984-0.27344 0.53906-0.69141 0.53906-1.1289v-2.1133c0-0.80078-0.64844-1.4492-1.4492-1.4492h-6.2734c-0.89062-1.4023-2.2656-2.4688-3.8906-2.9609v-7.4883c0-0.80078-0.64844-1.4492-1.4492-1.4492h-2.1875c-0.4375 0-0.85547 0.19922-1.1289 0.53906-0.77344 0.96094-1.9219 1.5117-3.1523 1.5117-0.37109 0-0.73047-0.050781-1.0781-0.14453v-7.8008c0.34766-0.097656 0.70703-0.14844 1.0781-0.14844 1.2305 0 2.3789 0.55078 3.1523 1.5117 0.27344 0.33984 0.69141 0.53906 1.1289 0.53906h2.1875c0.80078 0 1.4492-0.64844 1.4492-1.4492v-9.8828h27.211v27.211z" fill="#ea5b0a"></path></svg>