<svg xmlns="http://www.w3.org/2000/svg" width="100pt" height="100pt" viewBox="0 0 100 100"><path d="m85.418 61.887c-1.668-0.44922-3.4492-0.21094-4.9375 0.66406l-18.719 10.992c-0.78516-1.7734-2.3086-3.1133-4.168-3.668l-19.051-6.332-0.98828-0.32422c-8.6758-2.8867-9.9805-3.0742-18.75 3.043h-0.003907c-1.0703-1.9805-3.3555-2.9648-5.5312-2.3867l-3.8867 1.043h0.003907c-2.6016 0.69531-4.1445 3.3672-3.4492 5.9688l6.168 22.758c0.58203 2.125 2.5039 3.6016 4.707 3.6172 0.42578-0.003907 0.84766-0.0625 1.2617-0.16797l3.8945-1.043c2.3906-0.64062 3.9141-2.9805 3.5312-5.4258 3.6758-1.582 9.293-0.11328 14.738 1.3242 3.5117 0.92578 6.9922 1.8008 9.8438 1.8008 1.4922 0.066406 2.9688-0.29297 4.2617-1.043l32.645-18.855v0.003907c2.2812-1.3281 3.543-3.8945 3.1992-6.5078-0.34375-2.6172-2.2266-4.7695-4.7695-5.4609zm-64.148 31.57-3.8867 1.043h0.003907c-0.5625 0.15234-1.1641 0.074219-1.668-0.21875-0.50391-0.28906-0.87109-0.76953-1.0195-1.332l-6.0938-22.73c-0.14844-0.55859-0.070313-1.1562 0.21875-1.6562 0.28906-0.50781 0.76953-0.88281 1.332-1.043l3.8945-1.043v0.003907c0.18359-0.050781 0.375-0.074219 0.5625-0.074219 0.98047 0.015625 1.8281 0.67969 2.0859 1.625l6.082 22.73c0.32812 1.1602-0.34766 2.3672-1.5117 2.6953zm66.23-24.238c-0.25781 0.99219-0.90234 1.8359-1.793 2.3438l-32.727 18.863c-2.2617 1.4492-7.207 0.14453-12-1.1133-5.7188-1.5-11.594-3.043-16.074-1.3555l-5.1133-19.008c8.4375-5.9805 8.6992-5.918 17-3.125l20.031 6.625c1.1875 0.33984 2.1367 1.2305 2.5508 2.3945 0.089844 0.30469 0.15625 0.61328 0.19922 0.92578 0.19922 0.91016-0.0625 1.8633-0.69922 2.543-1.0352 0.83203-2.4023 1.125-3.6875 0.78125l-17.418-5.918c-0.6875-0.19922-1.4141 0.17969-1.6445 0.85938-0.23047 0.67969 0.11328 1.4219 0.78125 1.6836l17.426 5.9258c0.60156 0.19922 1.2344 0.29688 1.8672 0.29297 1.6445 0.011719 3.2422-0.57031 4.5-1.6367 1.0781-1.0234 1.6602-2.4688 1.5938-3.957l19.5-11.457c0.875-0.51562 1.9219-0.65625 2.9062-0.39844 1 0.26562 1.8555 0.91797 2.375 1.8125 0.52344 0.87891 0.67578 1.9258 0.42578 2.918zm-67.707 19.988c0.16406 0.64453-0.074219 1.3242-0.60156 1.7266s-1.2422 0.45312-1.8203 0.125c-0.57812-0.32422-0.90234-0.96484-0.83203-1.625 0.074219-0.66016 0.53516-1.2109 1.168-1.4023 0.43359-0.12891 0.89844-0.074219 1.293 0.14844 0.39062 0.22266 0.67578 0.59375 0.79297 1.0273zm18.551-53.688c-2.875 0-5.207 2.332-5.207 5.2109v2.293-0.003907c0 1.3828 0.54688 2.707 1.5234 3.6836 0.97656 0.97656 2.3008 1.5273 3.6836 1.5273h2.332c0.34766 1.1055 0.78125 2.1836 1.3047 3.2188l-1.625 1.6758c-0.98828 0.97656-1.543 2.3086-1.543 3.6992 0 1.3867 0.55469 2.7188 1.543 3.6953l1.625 1.625c0.97656 0.98438 2.3047 1.5352 3.6914 1.5352s2.7148-0.55078 3.6914-1.5352l1.5195-1.5195h0.003907c1.0664 0.57031 2.1797 1.0469 3.332 1.418v2.082c0 1.3828 0.54688 2.707 1.5273 3.6836 0.97656 0.97656 2.3008 1.5234 3.6797 1.5234h2.3047c1.3789 0 2.7031-0.54688 3.6797-1.5234 0.98047-0.97656 1.5273-2.3008 1.5273-3.6836v-2.082c1.1484-0.375 2.2656-0.85156 3.332-1.418l1.5117 1.5195c0.97656 0.98828 2.3086 1.543 3.6992 1.543 1.3867 0 2.7188-0.55469 3.6953-1.543l1.625-1.625c0.98828-0.97656 1.543-2.3086 1.543-3.6953 0-1.3906-0.55469-2.7227-1.543-3.6992l-1.6328-1.6367c0.51953-1.0352 0.95312-2.1094 1.3008-3.2188h2.332c1.3828 0 2.707-0.54688 3.6836-1.5234 0.97656-0.97656 1.5273-2.3008 1.5273-3.6836v-2.293c0-1.3789-0.55078-2.7031-1.5273-3.6797-0.97656-0.98047-2.3008-1.5273-3.6836-1.5273h-2.3008c-0.35156-1.125-0.79688-2.2188-1.332-3.2695l1.6367-1.6367h-0.003907c0.98438-0.97656 1.5352-2.3047 1.5352-3.6914 0-1.3867-0.55078-2.7148-1.5352-3.6953l-1.6328-1.6133c-0.98047-0.98438-2.3086-1.5391-3.6992-1.5391s-2.7188 0.55469-3.6992 1.5391l-1.5195 1.5195c-1.0625-0.57422-2.1719-1.0469-3.3242-1.4141v-2.0859c0-1.3789-0.54688-2.7031-1.5234-3.6797-0.97656-0.98047-2.3008-1.5273-3.6836-1.5273h-2.2812c-2.875 0-5.207 2.332-5.207 5.207v2.0859c-1.1562 0.36328-2.2695 0.83984-3.3359 1.4141l-1.5195-1.5195c-0.97656-0.98438-2.3047-1.5352-3.6914-1.5352-1.3867 0-2.7148 0.55078-3.6953 1.5352l-1.625 1.625c-0.98047 0.97656-1.5352 2.3047-1.5352 3.6914 0 1.3867 0.55469 2.7148 1.5352 3.6953l1.6172 1.625c-0.52344 1.0352-0.95703 2.1094-1.3047 3.2188zm4.6445 1.6758v0.003907c0.39844-1.5664 1.0078-3.0742 1.8047-4.4805 0.29688-0.52734 0.20703-1.1875-0.21875-1.6133l-2.332-2.3242h-0.003907c-0.98438-1-0.98438-2.6055 0-3.6055l1.625-1.625c0.47656-0.47656 1.125-0.74609 1.8047-0.74609 0.67578 0 1.3242 0.26953 1.8008 0.74609l2.2383 2.2305c0.43359 0.43359 1.1094 0.51953 1.6367 0.20703 1.4219-0.85547 2.957-1.5078 4.5625-1.9375 0.58594-0.16016 0.98828-0.69531 0.98828-1.3008v-3.125c0-1.4062 1.1367-2.5469 2.543-2.5508h2.3008c1.4102 0 2.5547 1.1406 2.5547 2.5508v3.125c0.003906 0.62109 0.43359 1.1602 1.0391 1.3008 1.5703 0.45703 3.0703 1.1289 4.4609 1.9922 0.52734 0.31641 1.2031 0.23047 1.6328-0.21094l2.2383-2.2305 0.003907 0.003907c0.47656-0.48047 1.125-0.75 1.8008-0.75s1.3242 0.26953 1.8008 0.75l1.625 1.625c0.98828 0.99609 0.98828 2.6055 0 3.6016l-2.332 2.3242c-0.42578 0.42969-0.51562 1.0859-0.21875 1.6133 0.79688 1.4102 1.4062 2.9141 1.8125 4.4805 0.13672 0.60547 0.67188 1.0391 1.293 1.043h3.3438c1.4023-0.042969 2.5742 1.0547 2.625 2.457v2.293c0 1.4062-1.1445 2.5508-2.5547 2.5508h-3.375c-0.62109 0-1.1562 0.43359-1.2891 1.043-0.41406 1.5391-1.0234 3.0195-1.8125 4.4062-0.30078 0.51953-0.21094 1.1797 0.21875 1.6016l2.332 2.332v0.003907c0.98828 0.99609 0.98828 2.6055 0 3.6016l-1.625 1.625c-1 0.98828-2.6055 0.98828-3.6055 0l-2.2383-2.2383c-0.45312-0.4375-1.1484-0.50781-1.6758-0.16797-1.4219 0.85547-2.9531 1.5078-4.5547 1.9375-0.60547 0.13281-1.0391 0.67188-1.0391 1.293v3.125c-0.023438 1.3594-1.1016 2.4609-2.4609 2.5117h-2.3008c-1.4023 0-2.543-1.1406-2.543-2.543v-3.125c0.003907-0.60547-0.40234-1.1367-0.98828-1.293-1.6016-0.42969-3.1367-1.082-4.5625-1.9375-0.20703-0.12109-0.44531-0.1875-0.6875-0.1875-0.35547 0.003907-0.69141 0.14062-0.94922 0.38672l-2.2383 2.2383c-1 0.98828-2.6055 0.98828-3.6055 0l-1.625-1.625c-0.98438-0.99609-0.98438-2.6055 0-3.6016l2.3359-2.3359c0.42969-0.42188 0.51953-1.082 0.21875-1.6016-0.79688-1.4102-1.4023-2.9141-1.8047-4.4805-0.13672-0.60938-0.67578-1.043-1.3008-1.043h-3.3438c-1.4102 0-2.5508-1.1406-2.5508-2.5508v-2.293c0-1.4062 1.1406-2.5508 2.5508-2.5508h3.3242c0.59766 0.015625 1.1328-0.35938 1.3203-0.92578zm17.605 19.055c3.8008 0 7.4453-1.5078 10.133-4.1953s4.1992-6.332 4.1992-10.133c0.003907-3.7969-1.5039-7.4453-4.1914-10.133-2.6836-2.6875-6.3281-4.2031-10.125-4.207-3.8008-0.003906-7.4492 1.5039-10.137 4.1875-2.6914 2.6836-4.207 6.3242-4.2109 10.125-0.003907 3.8047 1.5039 7.4531 4.1914 10.148 2.6875 2.6914 6.3359 4.2031 10.141 4.207zm0-25.988c4.7188-0.007813 8.9766 2.8281 10.785 7.1836 1.8086 4.3594 0.8125 9.3789-2.5234 12.715-3.3359 3.3359-8.3555 4.332-12.711 2.5195-4.3594-1.8086-7.1953-6.0664-7.1875-10.785-0.011719-6.4375 5.1992-11.668 11.637-11.688zm-7.8438 10.938 3.1992 2.3008-1.2305 3.7383c-0.23828 0.72266 0.019531 1.5156 0.63672 1.9609 0.61719 0.45703 1.4648 0.45703 2.082 0l3.1562-2.3242 3.125 2.3242c0.61328 0.44141 1.4414 0.4375 2.0547-0.007813 0.60937-0.44531 0.86719-1.2305 0.63281-1.9531l-1.2188-3.7383 3.1875-2.3008c0.58203-0.45703 0.8125-1.2305 0.57812-1.9297s-0.88281-1.1797-1.6211-1.1953h-3.875l-1.207-3.75c-0.23047-0.72266-0.89844-1.2109-1.6562-1.2109-0.75781 0.003907-1.4297 0.48828-1.668 1.2109l-1.207 3.75h-3.9375c-0.73828 0.015625-1.3867 0.49609-1.6211 1.1953-0.23047 0.69922 0 1.4727 0.57812 1.9297zm5.6445-0.48047c0.75781-0.003906 1.4297-0.48828 1.668-1.207l0.53125-1.6445 0.53125 1.6445c0.23047 0.71875 0.89844 1.207 1.6562 1.207h1.7383l-1.4062 1.043c-0.58594 0.44141-0.83203 1.2031-0.61328 1.9062l0.54297 1.6445-1.3945-1.043h-0.003907c-0.61719-0.45703-1.4648-0.45703-2.082 0l-1.3945 1.043 0.53125-1.6445c0.26172-0.73438 0-1.5547-0.63672-2l-1.3945-1.043zm0.85547-30.738v-5.8984c-0.03125-0.375 0.09375-0.74609 0.34766-1.0234s0.61328-0.4375 0.99219-0.4375c0.375 0 0.73438 0.16016 0.98828 0.4375 0.25781 0.27734 0.38281 0.64844 0.34766 1.0234v5.875c0.035157 0.375-0.089843 0.75-0.34766 1.0273-0.25391 0.27734-0.61328 0.4375-0.98828 0.4375-0.37891 0-0.73828-0.16016-0.99219-0.4375s-0.37891-0.65234-0.34766-1.0273zm-18.426-0.24219c-0.32422-0.63672-0.09375-1.4141 0.52344-1.7695 0.61719-0.35938 1.4062-0.17188 1.7969 0.42578l2.9375 5.1484c0.18359 0.30469 0.23047 0.67188 0.14062 1.0195-0.09375 0.34375-0.32031 0.63672-0.62891 0.8125-0.20312 0.11328-0.43359 0.17578-0.66797 0.17578-0.49219-0.003906-0.94531-0.28125-1.1758-0.71875zm-13.617 12.281c0.37109-0.64453 1.1914-0.86719 1.8359-0.5l5.0938 2.9492c0.51953 0.30859 0.76953 0.92578 0.60938 1.5078-0.15625 0.58203-0.68359 0.98828-1.2891 0.99219-0.23438 0-0.46484-0.066406-0.66406-0.1875l-5.0938-2.9375c-0.63672-0.37109-0.85547-1.1836-0.49219-1.8242zm47.918-8.5312 2.9375-5.0938c0.39062-0.59766 1.1797-0.78516 1.7969-0.42578 0.61719 0.35547 0.85156 1.1328 0.52734 1.7695l-2.9375 5.0938c-0.24219 0.41406-0.6875 0.67188-1.168 0.66797-0.23438 0-0.46484-0.0625-0.66797-0.17578-0.62109-0.35938-0.85156-1.1445-0.51953-1.7812zm18.387 10.355-5.0938 2.9375c-0.20312 0.12109-0.43359 0.1875-0.66797 0.1875-0.60156-0.007812-1.125-0.41406-1.2812-0.99609-0.15625-0.58203 0.097656-1.1953 0.61328-1.5039l5.0938-2.9492c0.63281-0.29688 1.3906-0.058593 1.7383 0.55078 0.34766 0.60547 0.17188 1.375-0.40234 1.7734z" fill="#ea5b0a"></path></svg>