<svg xmlns="http://www.w3.org/2000/svg" width="512pt" height="512pt" viewBox="0 0 512 512"><path d="m512 256c0 141.39-114.61 256-256 256s-256-114.61-256-256 114.61-256 256-256 256 114.61 256 256" fill="#61ce70"></path><path d="m217.41 123c-1.7969 0.007812-3.4531 0.96875-4.3477 2.5273l-40.5 70.098c-1.3867 2.4141-0.55469 5.4922 1.8594 6.8789l36.594 21.125c2.4023 1.3906 5.4766 0.57812 6.875-1.8203l34.773-60.246 19.492 33.809-9.6328 5.5781c-1.6367 0.94531-2.6055 2.7266-2.5117 4.6133s1.2344 3.5625 2.957 4.3398l57.945 25.699v0.003907c1.4688 0.65625 3.1641 0.57031 4.5625-0.23047 1.3984-0.80078 2.3281-2.2227 2.5-3.8242l6.6914-63.031v-0.003906c0.20312-1.8828-0.66797-3.7188-2.2539-4.7578-1.5859-1.0352-3.6211-1.0938-5.2617-0.14844l-9.6641 5.5781-25.219-43.66c-0.89453-1.5586-2.5508-2.5195-4.3477-2.5273zm-30.562 102.56c-0.79297-0.046875-1.5859 0.09375-2.3125 0.41406l-57.934 25.742v-0.003906c-1.7266 0.76953-2.8789 2.4414-2.9844 4.3281-0.10156 1.8867 0.85938 3.6719 2.4922 4.625l9.6719 5.5781-25.211 43.668v0.003906c-0.90625 1.5625-0.90625 3.4922 0 5.0547l10.824 18.734c0.011718 0.027344 0.019531 0.054687 0.03125 0.078125l24.402 42.25v0.003906c0.89453 1.5586 2.5508 2.5195 4.3477 2.5273h80.961c2.7852-0.011719 5.0312-2.2734 5.0195-5.0586v-42.25c-0.011718-2.7656-2.25-5.0078-5.0195-5.0195h-69.566l19.512-33.809 9.6641 5.5781v0.003906c1.6445 0.95703 3.6914 0.91016 5.2891-0.12891 1.5938-1.0391 2.4688-2.8906 2.2578-4.7812l-6.7305-63.035c-0.25781-2.4531-2.25-4.3594-4.7148-4.5039zm170.09 5.9727h0.003906c-0.99609-0.070312-1.9883 0.15625-2.8555 0.64844l-36.594 21.125c-2.4102 1.3867-3.2461 4.4648-1.8594 6.8789l34.801 60.246h-39.043v-11.156c-0.011719-1.8828-1.0742-3.6055-2.7539-4.457-1.6836-0.86328-3.7109-0.70703-5.2422 0.40234l-51.207 37.34c-1.3047 0.94922-2.0742 2.4648-2.0742 4.0742 0 1.6133 0.76953 3.125 2.0742 4.0742l51.207 37.332c1.5312 1.1133 3.5625 1.2734 5.25 0.41016 1.6875-0.85938 2.75-2.5977 2.7461-4.4922v-11.156h50.43v-0.003906c1.7969-0.007813 3.4531-0.96875 4.3477-2.5273l10.863-18.824 24.391-42.242h0.003906c0.90625-1.5625 0.90625-3.4922 0-5.0547l-40.461-70.109c-0.66797-1.1523-1.7656-1.9961-3.0508-2.3398-0.32031-0.089844-0.64453-0.14453-0.97266-0.16797z" fill="#fff" fill-rule="evenodd"></path></svg>