<svg xmlns="http://www.w3.org/2000/svg" width="512pt" height="512pt" viewBox="0 0 512 512"><path d="m512 256c0 141.39-114.61 256-256 256s-256-114.61-256-256 114.61-256 256-256 256 114.61 256 256" fill="#61ce70"></path><path d="m323.36 364.42h-0.83203l-1.5508-7.8203h0.011719c10.719-2.8711 17.785-13.062 16.727-24.105l-12.672-134.67c-0.86719-9.6992-7.8594-17.758-17.344-19.988v-10.906c-2.8086-69.273-100.47-69.391-103.33 0v10.906h-0.011719c-9.4844 2.2305-16.477 10.289-17.344 19.988l-12.672 134.67c-0.60547 6.4219 1.5117 12.809 5.8555 17.582 2.8477 3.0859 6.5117 5.3164 10.555 6.4219l-1.5625 7.9219c-4.3594-0.10156-8.5781 1.5508-11.727 4.5703-3.1367 3.0352-4.9258 7.2031-4.9766 11.562-0.050781 4.3594 1.6484 8.5664 4.7109 11.664 3.0742 3.1094 7.2539 4.8477 11.613 4.8477h134.54c8.9414-0.10156 16.148-7.3828 16.148-16.324 0-8.9414-7.2031-16.223-16.148-16.324zm-8.5391-165.62 12.684 134.67v-0.011719c0.57812 5.8203-2.9609 11.246-8.5 13.074-1.2227-7.2812-2.5938-16.02-9.6992-19.699l-9.207-92.676c-1.3867-9.0039-9.5977-15.328-18.652-14.359v-17.027h8.125c1.3594 0 2.6719-0.54297 3.6406-1.5117 0.95703-0.95703 1.5-2.2656 1.5-3.6289v-10.164h7.8594c6.4102 0.023437 11.727 4.9492 12.254 11.336zm-69.133 86.957c-0.17578-2.1406 0.26562-4.2812 1.2734-6.1836 3.4883-3.9805 5.832-8.8438 6.7773-14.07 0.48047-2.2031 0.79297-4.457 0.90625-6.7148 4.8359 6.1953 8.5781 13.188 11.059 20.668 0.95703 4.5078-0.039063 9.2188-2.7344 12.973h-15.316c-1.2109-2.0273-1.875-4.3203-1.9648-6.6758zm-5.0898 16.941h30.547c2.832 0 5.125 2.293 5.125 5.125v16.637h-40.809v-16.637c0.011718-2.832 2.3047-5.125 5.1406-5.125zm33.867-9.8867c2.5703-6.7266 2.457-14.184-0.30078-20.832-0.41406-0.89453-10.238-22.117-21.84-30.469v-0.011718c-1.625-1.1719-3.793-1.2852-5.543-0.28906-1.7383 0.99609-2.7461 2.9102-2.5703 4.9102 0.55469 5.7305 0.37891 11.5-0.51563 17.191-0.55469 3.6641-2.2031 7.0781-4.7109 9.8008-2.6562 3.8555-3.918 8.4883-3.5664 13.148 0.13672 2.293 0.57812 4.5469 1.3359 6.7148-6.7891 1.7383-11.539 7.8477-11.562 14.852v16.637h-12.219l8.918-89.25c0.59375-3.1367 3.4141-5.3398 6.6016-5.1523h6.625c4.7227-0.039063 44.574 0.023437 48.102 0h0.011719c3.1875-0.20312 6.0195 1.9883 6.6484 5.125l8.8672 89.277h-12.203v-16.637 0.011719c-0.011719-7.2188-5.0391-13.465-12.078-15.027zm-46.828-112.66c0-5.668 4.5977-10.266 10.266-10.266h36.262c5.668 0 10.266 4.5977 10.277 10.266v12.344h-56.805zm12.621 22.609h30.91v17.027l-30.91 0.011719zm15.781-77.828v0.011719c23.012 0.1875 41.527 18.98 41.402 41.992v10.266h-3.0352c-1.4492-10.078-10.062-17.559-20.242-17.594h-36.262c-10.176 0.039063-18.793 7.5195-20.242 17.594h-3.0234v-10.266c-0.13672-23.012 18.375-41.805 41.402-41.992zm-68.242 218.23v0.011718c-2.3945-2.6328-3.5664-6.1602-3.2227-9.7109l12.684-134.67-0.011718 0.011719c0.52734-6.3867 5.8555-11.309 12.254-11.336h7.8594v10.164c0 1.3594 0.54297 2.6719 1.5117 3.6289 0.95703 0.96875 2.2656 1.5117 3.6289 1.5117h7.4922v17.027c-8.9805-0.93359-17.078 5.4297-18.312 14.371l-9.2578 92.676c-4.1836 2.4805-7.1055 6.6133-8.0469 11.375l-1.625 8.2109c-1.8906-0.65625-3.6016-1.7773-4.9492-3.2617zm16.652-2.9727v0.023437c0.60547-3.1484 3.3242-5.4297 6.5234-5.4648h70.434c7.2422-0.22656 14.484-0.0625 21.715 0.46484 2.1406 0.84375 3.7148 2.7344 4.168 5l4.7852 24.219h-112.41zm118.91 46.602-134.54 0.023438c-3.3008-0.050782-5.957-2.7461-5.957-6.0586s2.6562-6.0078 5.957-6.0586h134.54c3.3008 0.050781 5.957 2.7461 5.957 6.0586s-2.6562 6.0078-5.957 6.0586z" fill="#fff"></path></svg>