<svg xmlns="http://www.w3.org/2000/svg" width="100pt" height="100pt" viewBox="0 0 100 100"><path d="m63.059 33.922-22.488 11.246c0.8125 3.1562 0.8125 6.5078 0 9.6641l22.488 11.246c7.2031-8.9883 20.617-9.75 28.777-1.5938 7.5508 7.5547 7.5508 19.797 0 27.352-7.5547 7.5547-19.797 7.5547-27.352 0-4.7695-4.7695-6.7891-11.773-5.0547-18.508l-22.488-11.246c-7.2031 8.9883-20.617 9.75-28.773 1.5898-7.5508-7.5547-7.5508-19.797 0-27.352 8.1602-8.1562 21.57-7.3984 28.773 1.5938l22.488-11.246c-3.1406-12.199 6.0625-24.172 18.73-24.172 10.68 0 19.34 8.6602 19.34 19.34 0 10.68-8.6602 19.34-19.34 19.34-6.0586 0-11.523-2.793-15.102-7.2578zm23.02-20c-4.3711-4.3711-11.465-4.3711-15.836 0-4.3711 4.3711-4.3711 11.465 0 15.836 4.3711 4.3711 11.461 4.3711 15.836 0 4.3711-4.3711 4.3711-11.461 0-15.836zm0 56.32c-4.3711-4.3711-11.465-4.3711-15.836 0-4.3711 4.3711-4.3711 11.461 0 15.836 4.3711 4.3711 11.461 4.3711 15.836 0 4.3711-4.3711 4.3711-11.461 0-15.836zm-56.32-28.16c-4.3711-4.3711-11.461-4.3711-15.836 0-4.3711 4.3711-4.3711 11.461 0 15.836 4.3711 4.3711 11.461 4.3711 15.836 0 4.3711-4.3711 4.3711-11.461 0-15.836z" fill="#ea5b0a" fill-rule="evenodd"></path></svg>