<svg xmlns="http://www.w3.org/2000/svg" width="512pt" height="512pt" viewBox="0 0 512 512"><defs><clipPath id="a"><path d="m94.781 103h322.44v306h-322.44z"></path></clipPath></defs><path d="m512 256c0 141.39-114.61 256-256 256s-256-114.61-256-256 114.61-256 256-256 256 114.61 256 256" fill="#61ce70"></path><g clip-path="url(#a)"><path d="m220.71 103.33c-6.7266 0-12.949 3.5781-16.312 9.4102l-42.973 74.465c-0.69141 1.2109-0.27734 2.7461 0.93359 3.4375l45.48 26.273h0.011718c0.56641 0.33984 1.2578 0.44141 1.9141 0.26562 0.64062-0.16406 1.1953-0.59375 1.5352-1.1719l42.672-73.961 22.723 39.336-18.301 10.555h-0.011719c-0.82031 0.48047-1.3086 1.3867-1.2461 2.3438 0.050781 0.94531 0.64062 1.7891 1.5234 2.168l76.352 32.445h0.011719c0.71875 0.31641 1.5625 0.26562 2.2422-0.125 0.69141-0.40234 1.1602-1.0977 1.2461-1.8906l10.051-82.375h0.011719c0.11328-0.94531-0.31641-1.875-1.1094-2.4062-0.79297-0.52734-1.8281-0.56641-2.6445-0.089843l-18.262 10.566-23.188-40.168c-3.25-5.6172-9.2578-9.0703-15.742-9.0703h-51.617zm0 5.0117h13.805l16.551 28.668-42.898 74.273-41.137-23.766 41.703-72.27c2.4688-4.2695 7.0156-6.9141 11.953-6.9141zm19.637 0h47.27c4.6992 0 9.0312 2.5195 11.387 6.5859l24.434 42.348c0.69141 1.2109 2.2422 1.6133 3.4375 0.91797l16.086-9.2812-9.043 74.047-68.633-29.195 16.109-9.2812c1.1953-0.69141 1.5977-2.2422 0.90625-3.4375zm-60.695 107.4c-0.31641 0.011718-0.61719 0.089844-0.90625 0.20312l-76.352 32.469c-0.88281 0.37891-1.4727 1.2109-1.5352 2.168-0.050781 0.94531 0.42969 1.8516 1.2461 2.332l18.289 10.566-23.176 40.152c-3.25 5.6172-3.25 12.57 0 18.188l25.809 44.711 7.6445 13.238c3.3633 5.832 9.5859 9.4336 16.312 9.4336h85.949c0.66797 0 1.3086-0.26562 1.7773-0.74219 0.48047-0.48047 0.74219-1.1211 0.74219-1.7891v-52.547c0-0.66797-0.26562-1.3086-0.74219-1.7891-0.46484-0.46484-1.1094-0.74219-1.7773-0.74219h-85.359l22.711-39.336 18.262 10.566c0.83203 0.48047 1.8516 0.44141 2.6445-0.089844 0.79297-0.52734 1.2227-1.4609 1.1094-2.4062l-10.062-82.375c-0.15234-1.2969-1.2852-2.2656-2.582-2.2148zm-2.0039 6.1328 9.043 74.047-16.086-9.2812h-0.011719c-0.56641-0.32812-1.2578-0.41406-1.9023-0.25-0.65625 0.17578-1.1953 0.59375-1.5352 1.1719l-41.957 72.676-23.641-40.945c-2.3438-4.0664-2.3438-9.0703 0-13.137l24.445-42.348 0.011719 0.011719c0.69141-1.2109 0.27734-2.7578-0.91797-3.4492l-16.086-9.2969zm191.9 1.5234v0.011718c-0.44141-0.011718-0.88281 0.11328-1.2578 0.32813l-45.504 26.297c-1.1953 0.69141-1.6133 2.2305-0.90625 3.4375l42.672 73.961h-45.406v-21.137c-0.011719-0.95703-0.54297-1.8281-1.3984-2.2539-0.85547-0.41406-1.875-0.32812-2.6445 0.25l-66.277 49.914v-0.011719c-0.62891 0.48047-0.99609 1.2227-0.99609 2.0156 0 0.78125 0.36719 1.5234 0.99609 2.0039l66.289 49.926h0.011718c0.76953 0.57812 1.7891 0.66797 2.6445 0.23828 0.85547-0.42969 1.3984-1.3086 1.3867-2.2656v-21.109h46.363c6.4883 0 12.48-3.4766 15.73-9.0938l25.809-44.727 7.6445-13.238c3.3633-5.832 3.3633-13.012 0-18.844l-42.973-74.449v0.011719c-0.32812-0.57812-0.88281-1.0078-1.5234-1.1719-0.21484-0.0625-0.42969-0.089844-0.65625-0.089844zm-0.91797 5.957 41.703 72.27c2.4688 4.2695 2.4688 9.5234 0 13.793l-6.9023 11.992h-33.062l-42.887-74.312zm-54.523 81.969v18.617c-0.011719 0.66797 0.25 1.3086 0.73047 1.7891 0.48047 0.46484 1.1211 0.74219 1.7891 0.73047l52.195-0.011719 0.011719 0.011719h0.089843l31.613-0.023438-23.652 40.973c-2.3438 4.0664-6.6641 6.5625-11.359 6.5625h-48.895l0.011719 0.011719c-1.3867 0-2.5078 1.1211-2.5195 2.5078v18.602l-59.598-44.875zm-169.43 25.293h85.734v47.52l-83.43 0.023437c-4.9375 0-9.4727-2.6211-11.941-6.9023l-6.9141-11.977 6.2969-10.906z" fill="#fff"></path></g></svg>