<svg xmlns="http://www.w3.org/2000/svg" width="512pt" height="512pt" viewBox="0 0 512 512"><path d="m512 256c0 141.39-114.61 256-256 256s-256-114.61-256-256 114.61-256 256-256 256 114.61 256 256" fill="#61ce70"></path><path d="m262.14 228.68v12.219c5.0117-10.555 14.586-17.156 26.223-18.113 5.7305-0.46484 11.816 0.42969 17.91 2.543 1.7383 0.60547 2.9727 2.2656 2.9492 4.1953-0.35156 27.105-21.285 42.371-47.082 33.906v7.582c0 2.4297-1.9883 4.4102-4.4102 4.4102-2.4297 0-4.4102-1.9883-4.4102-4.4102v-7.582c-25.797 8.4648-46.703-6.8008-47.082-33.906-0.023438-1.9258 1.2109-3.5898 2.9492-4.1953 11.426-4.0039 23.73-3.9062 33.629 2.9961 4.6094 3.2109 8.1094 7.5078 10.504 12.57v-12.219c-17.633-13.691-24.688-34.688-13.352-54.16 3.5273-6.0977 8.7148-11.613 15.102-16.223 1.5-1.1328 3.6289-1.2109 5.2383-0.074219 26.664 19.234 27.785 50.309 1.8281 70.461zm5.0391 27.066c17.859 4.7344 31.363-4.6836 33.074-23.074-17.859-4.7344-31.363 4.6836-33.074 23.074zm-30.066 1.1211c3.5508 0.27734 7.332-0.10156 11.172-1.1328-1.7148-18.391-15.215-27.809-33.074-23.074 1.1953 12.785 8.4883 23.086 21.902 24.207zm20.617-35.898c19.219-15.668 19.219-37.988 0-53.645-19.219 15.656-19.219 37.961 0 53.645zm0-77.035c-40.027 0-72.461 32.445-72.461 72.461 0 40.027 32.445 72.461 72.461 72.461 40.027 0 72.461-32.445 72.461-72.461 0-40.027-32.434-72.461-72.461-72.461zm-57.484 14.977c31.766-31.738 83.227-31.738 114.97 0 31.738 31.766 31.738 83.207 0 114.97-31.738 31.738-83.207 31.738-114.97 0-31.738-31.766-31.738-83.207 0-114.97zm57.484-38.945c-53.254 0-96.43 43.176-96.43 96.43 0 35.328 39.445 101.62 66.25 146.66 4.5859 7.7344 8.8164 14.836 12.543 21.297 3.7773 6.5234 10.078 10.176 17.633 10.176 7.5312 0 13.879-3.6523 17.633-10.152 4.0664-7.0547 8.1367-13.879 12.543-21.312 26.816-45.066 66.25-111.34 66.25-146.66 0-53.266-43.164-96.441-96.43-96.441zm-74.426 22.004c41.109-41.086 107.75-41.086 148.85 0 19.043 19.043 30.832 45.367 30.832 74.426 0 37.723-40.18 105.25-67.484 151.14-4.875 8.1758-9.3438 15.719-12.531 21.211-11.246 19.512-39.223 19.512-50.48 0.023438-3.5156-6.0977-7.8359-13.324-12.531-21.223-27.293-45.91-67.473-113.45-67.473-151.16 0-29.07 11.777-55.367 30.82-74.426z" fill="#fff"></path></svg>