<svg xmlns="http://www.w3.org/2000/svg" width="100pt" height="100pt" viewBox="0 0 100 100"><path d="m91.773 62.512c-2.3086-2.8164-5.2539-4.918-8.5625-6.1992v-14.336c0-5.3867-4.3828-9.7695-9.7695-9.7695h-13.465c-1.3281 0-2.4102-1.1211-2.4102-2.5v-13.312c0-6.2969-4.4102-11.68-10.488-12.789-1.5469-0.28125-3.125 0.125-4.3359 1.1172-1.2422 1.0156-1.9688 2.5352-1.9961 4.1641-0.09375 5.3086-0.18359 10.32-1.1758 14.965-1.4062 6.5898-3.6562 9.7148-8.8555 12.215h-6.2148v-3.5117c0-0.82031-0.66406-1.4844-1.4844-1.4844h-18.016c-0.82031 0-1.4844 0.66406-1.4844 1.4844v37.836c0 0.82031 0.66406 1.4844 1.4844 1.4844h18.016c0.82031 0 1.4844-0.66406 1.4844-1.4844v-1.9805h5.5c0.875 0.95312 1.5859 1.8906 2.2734 2.8008 3.5898 4.7266 6.6289 7.75 20.293 7.75 0.8125 0 1.6758-0.015626 2.5625-0.035157 0.5625 3.6133 2.0586 7.0352 4.4375 9.9375 3.5195 4.2969 8.5078 6.9688 14.039 7.5195 0.69922 0.070313 1.3906 0.10547 2.0781 0.10547 10.555 0 19.625-8.0234 20.695-18.738 0.55078-5.5273-1.082-10.938-4.6055-15.238zm-85.289 6.3945v-34.867h15.047v3.5078 0.003906 29.375 0.003907 1.9766zm28.152 0.50781c-0.8125-1.0703-1.7344-2.2852-2.9336-3.5195-0.28125-0.28906-0.66406-0.44922-1.0664-0.44922h-6.1406v-26.406h6.5469c0.21875 0 0.42969-0.046874 0.62891-0.14062 6.25-2.9141 9.1758-6.8242 10.797-14.422 1.0508-4.9258 1.1406-10.078 1.2383-15.531 0.015625-0.75781 0.34766-1.457 0.91016-1.9219 0.54297-0.44531 1.2266-0.62109 1.9219-0.49609 4.668 0.85547 8.0547 5.0078 8.0547 9.8711v13.312c0 3.0156 2.4141 5.4688 5.3828 5.4688h13.465c3.75 0 6.8008 3.0508 6.8008 6.8008v13.434c-0.82031-0.18359-1.6523-0.33594-2.5039-0.41797-11.418-1.1484-21.633 7.2227-22.773 18.633-0.078125 0.78516-0.10156 1.5625-0.09375 2.3398-14.992 0.35156-17.098-2.4219-20.23-6.5508zm58.789 8.0391c-0.98047 9.7812-9.7383 16.938-19.527 15.977-4.7422-0.47266-9.0156-2.7617-12.035-6.4453s-4.418-8.3242-3.9453-13.062c0.91797-9.1836 8.6953-16.062 17.746-16.062 0.58984 0 1.1836 0.027344 1.7812 0.089844 4.7422 0.47266 9.0156 2.7617 12.035 6.4453 3.0195 3.6836 4.418 8.3203 3.9453 13.062zm-7.4609-8.9805c0.57812 0.57812 0.57812 1.5195 0 2.1016l-12.324 12.324c-0.125 0.125-0.26562 0.22266-0.41797 0.29297-0.14062 0.066406-0.28906 0.10938-0.44141 0.12891h-0.003906c-0.0625 0.007813-0.125 0.011719-0.1875 0.011719s-0.125-0.003906-0.1875-0.011719h-0.003906-0.003907-0.011719-0.003906-0.003906c-0.14062-0.019531-0.27734-0.0625-0.40625-0.12109h-0.003906c-0.15234-0.070313-0.29688-0.17188-0.42188-0.29688l-6.1641-6.1641c-0.57812-0.57812-0.57812-1.5195 0-2.1016 0.57812-0.57812 1.5195-0.57812 2.0977 0l5.1133 5.1133 11.277-11.273c0.57812-0.57812 1.5195-0.57812 2.1016 0z" fill="#ea5b0a"></path></svg>