<svg xmlns="http://www.w3.org/2000/svg" width="100pt" height="100pt" viewBox="0 0 100 100"><path d="m53.816 96.5c-0.82812 0-1.5-0.67188-1.5-1.5s0.67188-1.5 1.5-1.5h1.9414c3.1211 0 5.957-1.2773 8.0078-3.3281 2.0586-2.0547 3.332-4.8945 3.332-8.0156v-29.184c0-0.99609-0.41016-1.9102-1.0703-2.5664-0.65625-0.65625-1.5703-1.0703-2.5664-1.0703h-46.426c-1 0-1.9102 0.41016-2.5664 1.0703-0.65625 0.65625-1.0703 1.5703-1.0703 2.5664v29.184c0 3.1211 1.2773 5.957 3.3281 8.0078 2.0547 2.0586 4.8945 3.332 8.0156 3.332h22.953c0.82813 0 1.5 0.67188 1.5 1.5s-0.67187 1.5-1.5 1.5h-22.953c-3.9375 0-7.5195-1.6133-10.121-4.207l-0.007813-0.007812c-2.5977-2.6016-4.2109-6.1836-4.2109-10.125v-29.184c0-1.8242 0.74609-3.4883 1.9492-4.6875 1.2031-1.2031 2.8633-1.9492 4.6875-1.9492h0.35547l-3.9219-6.8125c-1.2188-2.1133-2.1016-4.3203-2.6602-6.5508-0.58203-2.3125-0.82422-4.6719-0.74609-6.9922 0.027344-0.82422 0.71875-1.4727 1.543-1.4453s1.4727 0.71875 1.4453 1.543c-0.066407 2.0391 0.14844 4.1172 0.66406 6.1719 0.5 1.9844 1.2773 3.9375 2.3438 5.7891l4.7812 8.3008h5.5234l-6.0742-10.551c-2.2422-3.8984-2.7734-8.3203-1.8203-12.297 0.96094-4.0117 3.4336-7.5859 7.1758-9.7422l0.015624-0.007812c3.7422-2.1523 8.0664-2.4961 12.012-1.3164 3.9258 1.1719 7.4922 3.8555 9.7422 7.7617l5.2969 9.1875 4.3086-2.0742c-1.8477-3.0938-4.1875-6.7656-5.5469-9.6523-2.9844-5.1758-7.6953-8.7227-12.879-10.27-5.1445-1.5352-10.762-1.1016-15.605 1.6758l-0.035157 0.019531c-1.2734 0.73047-2.4297 1.5898-3.4648 2.5508l-0.070313 0.070312c-1.0938 1.0234-2.0547 2.1641-2.8711 3.3828-0.45703 0.6875-1.3867 0.87109-2.0742 0.41016-0.6875-0.45703-0.87109-1.3867-0.41016-2.0742 0.94531-1.4141 2.0547-2.7266 3.3086-3.8984l0.089844-0.078125c1.1875-1.0977 2.5039-2.082 3.9492-2.918l0.125-0.070312c5.582-3.1953 12.027-3.6992 17.918-1.9414 5.875 1.7539 11.215 5.7695 14.594 11.621l6.3281 10.984c0.039063 0.058594 0.074219 0.12109 0.10547 0.18359 0.35938 0.74219 0.046875 1.6406-0.69531 2l-7.0195 3.3789c-0.74219 0.35938-1.6289 0.050781-1.9922-0.6875l-5.9414-10.312c-1.8516-3.2109-4.7773-5.418-8.0078-6.3789-3.1836-0.94922-6.6602-0.68359-9.6523 1.0273l-0.0625 0.035156c-2.9805 1.7305-4.9531 4.5977-5.7305 7.8281-0.78125 3.2617-0.34766 6.8867 1.4922 10.098l6.9453 12.059h33.656c1.8281 0 3.4883 0.74609 4.6875 1.9492 1.2031 1.2031 1.9492 2.8633 1.9492 4.6875v29.184c0 3.9375-1.6133 7.5195-4.207 10.121l-0.007812 0.007813c-2.6016 2.5977-6.1836 4.2109-10.125 4.2109h-1.9414zm-8.5586-22.375v5.2305c0 1.3789-0.5625 2.6328-1.4688 3.5391l-0.097656 0.089844c-0.89844 0.85547-2.1133 1.3789-3.4375 1.3789-1.375 0-2.625-0.5625-3.5352-1.4688l-0.007812-0.007812c-0.90625-0.91016-1.4688-2.1562-1.4688-3.5312v-5.2305c-0.99609-0.71094-1.832-1.625-2.4453-2.6797l-0.046875-0.089843c-0.71484-1.2578-1.125-2.7109-1.125-4.25 0-2.3789 0.96875-4.5352 2.5273-6.0977 1.5586-1.5664 3.7188-2.5352 6.1016-2.5352 2.3789 0 4.5391 0.96875 6.1016 2.5273l0.082031 0.089844c1.5117 1.5547 2.4453 3.6758 2.4453 6.0117 0 1.5742-0.42578 3.0586-1.1719 4.3359-0.61719 1.0586-1.457 1.9766-2.4453 2.6875zm-3 5.2305v-6.0469c0.003907-0.51953 0.27734-1.0234 0.76172-1.3008 0.86719-0.49219 1.5938-1.2109 2.0977-2.0703 0.48047-0.82812 0.76172-1.8008 0.76172-2.8359 0-1.5234-0.60156-2.9023-1.5781-3.918l-0.070312-0.066406c-1.0156-1.0156-2.4258-1.6484-3.9805-1.6484s-2.9648 0.63281-3.9805 1.6484c-1.0195 1.0156-1.6484 2.4258-1.6484 3.9805 0 1.0039 0.26172 1.9492 0.71875 2.7617l0.042968 0.070313c0.48828 0.83594 1.1797 1.5352 2.0039 2.0234 0.50391 0.24219 0.85547 0.75781 0.85547 1.3555v6.0469c0 0.55469 0.22656 1.0586 0.58594 1.418 0.36719 0.36719 0.87109 0.58984 1.4258 0.58984 0.52344 0 1.0039-0.20312 1.3594-0.52734l0.058594-0.0625c0.36328-0.36328 0.58984-0.86719 0.58984-1.418zm29.934-34.703c-0.79688-0.21094-1.2734-1.0352-1.0625-1.832 0.21094-0.79687 1.0352-1.2734 1.832-1.0625l15.875 4.2539c0.79687 0.21094 1.2734 1.0352 1.0625 1.832-0.21094 0.79688-1.0352 1.2734-1.832 1.0625zm1.2617-8c-0.71484 0.41016-1.6289 0.16406-2.0391-0.55078-0.41016-0.71484-0.16406-1.6289 0.55078-2.0391l14.23-8.2148c0.71484-0.41016 1.6289-0.16406 2.0391 0.55078 0.41016 0.71484 0.16406 1.6289-0.55078 2.0391zm-3.9258-6.0078c-0.21094 0.79688-1.0352 1.2734-1.832 1.0625-0.79687-0.21094-1.2734-1.0352-1.0625-1.832l4.2539-15.871c0.21094-0.79688 1.0352-1.2734 1.832-1.0625 0.79688 0.21094 1.2734 1.0352 1.0625 1.832zm-55.527-10.234c-0.24609 0.78906-1.0859 1.2305-1.875 0.98438-0.78906-0.24609-1.2305-1.0859-0.98438-1.875l0.035156-0.11719c0.24609-0.78906 1.0859-1.2305 1.875-0.98438 0.78906 0.24609 1.2305 1.0859 0.98438 1.875z" fill="#ea5b0a"></path></svg>