<svg xmlns="http://www.w3.org/2000/svg" width="100pt" height="100pt" viewBox="0 0 100 100"><path d="m100 50c0 27.613-22.387 50-50 50s-50-22.387-50-50 22.387-50 50-50 50 22.387 50 50" fill="#ea5b0a"></path><path d="m62.848 29.148c-4.082-3.6523-9.5703-5.3945-15.066-4.7812-8.7344 0.97656-15.848 8.0156-16.918 16.734-0.60938 4.9805 0.68359 9.9219 3.6445 13.906 2.4688 3.3203 3.7734 7.0312 3.7734 10.73v0.69531c0 5.6562 4.6016 10.254 10.254 10.254h2.918c5.6562 0 10.254-4.6016 10.254-10.254v-0.70312c0-3.7383 1.2773-7.4141 3.6992-10.629 2.5312-3.3594 3.8672-7.3633 3.8672-11.578 0.003906-5.4766-2.3438-10.719-6.4297-14.375zm-11.391 43.605h-2.918c-2.793 0-5.1406-1.8359-5.9766-4.3516h14.867c-0.83203 2.5156-3.1797 4.3516-5.9766 4.3516zm-6.2891-25.66h-1.3398c-0.73828 0-1.3398-0.60156-1.3398-1.5312 0-0.73828 0.60156-1.3398 1.3398-1.3398s1.3398 0.60156 1.3398 1.3398zm5.7266 17.371h-1.7891v-13.434h1.7891zm11.371-11.73c-2.668 3.543-4.1953 7.5781-4.4531 11.73h-2.9883v-13.434h1.3398c2.9062 0 5.2734-2.3672 5.2734-5.4648 0-2.9062-2.3672-5.2734-5.2734-5.2734s-5.2734 2.3672-5.2734 5.2734v1.5312h-1.7891v-1.5312c0-2.9062-2.3672-5.2734-5.2734-5.2734s-5.2734 2.3672-5.2734 5.4648c0 2.9062 2.3672 5.2734 5.2734 5.2734h1.3398v13.434h-2.9883c-0.26563-4.1172-1.8086-8.1758-4.5078-11.809-2.3555-3.1719-3.3867-7.1055-2.8984-11.078 0.84766-6.9297 6.5039-12.523 13.445-13.297 4.4414-0.49219 8.707 0.85547 12.004 3.8047 3.2539 2.9102 5.1211 7.0781 5.1211 11.438 0.003906 3.3516-1.0586 6.543-3.0742 9.2109zm-7.4375-5.6406v-1.5312c0-0.73828 0.60156-1.3398 1.3398-1.3398s1.3398 0.60156 1.3398 1.5312c0 0.73828-0.60156 1.3398-1.3398 1.3398z" fill="#fff"></path><path d="m32.82 29.496c0.875-0.64453 1.0664-1.875 0.42188-2.75l-1.9297-2.6328c-0.64062-0.875-1.875-1.0664-2.75-0.42188-0.875 0.64062-1.0664 1.8711-0.42188 2.75l1.9297 2.6328c0.38672 0.52734 0.98438 0.80078 1.5898 0.80078 0.40234 0 0.80859-0.12109 1.1602-0.38281z" fill="#fff"></path><path d="m26.738 33.758-3.0391-1.0703c-1.0234-0.35938-2.1484 0.17578-2.5078 1.2031s0.17578 2.1484 1.2031 2.5078l3.0352 1.0664c0.21484 0.078125 0.43359 0.11719 0.65625 0.11719 0.8125 0 1.5703-0.50781 1.8555-1.3125 0.36328-1.0273-0.17578-2.1484-1.1992-2.5117z" fill="#fff"></path><path d="m25.094 43.207-3.1523 0.83984c-1.0508 0.28125-1.6758 1.3594-1.3906 2.4102 0.23438 0.87891 1.0312 1.4609 1.9023 1.4609 0.16797 0 0.33984-0.023438 0.50781-0.066407l3.1523-0.83984c1.0508-0.28125 1.6758-1.3594 1.3906-2.4102-0.27734-1.0508-1.3594-1.6719-2.4102-1.3945z" fill="#fff"></path><path d="m71.438 23.691c-0.87891-0.64453-2.1094-0.45312-2.75 0.42188l-1.9297 2.6328c-0.64453 0.875-0.45312 2.1094 0.42188 2.75 0.35156 0.25781 0.76172 0.38281 1.1641 0.38281 0.60547 0 1.2031-0.28125 1.5898-0.80078l1.9297-2.6328c0.64062-0.87891 0.45312-2.1094-0.42188-2.75z" fill="#fff"></path><path d="m74.566 37.469 3.0352-1.0664c1.0273-0.36328 1.5625-1.4844 1.2031-2.5078-0.36328-1.0273-1.4844-1.5625-2.5078-1.2031l-3.0352 1.0664c-1.0273 0.36328-1.5625 1.4844-1.2031 2.5078 0.28516 0.80859 1.0469 1.3125 1.8555 1.3125 0.22266 0.003906 0.44141-0.035156 0.65625-0.10938z" fill="#fff"></path><path d="m78.059 44.047-3.1523-0.83984c-1.0547-0.27734-2.1289 0.34375-2.4102 1.3906-0.28125 1.0508 0.34375 2.1289 1.3906 2.4102l3.1523 0.83984c0.16797 0.042969 0.33984 0.066406 0.50781 0.066406 0.87109 0 1.6641-0.58203 1.9023-1.4609 0.28125-1.0469-0.33984-2.125-1.3906-2.4062z" fill="#fff"></path></svg>