<svg xmlns="http://www.w3.org/2000/svg" width="512pt" height="512pt" viewBox="0 0 512 512"><path d="m512 256c0 141.39-114.61 256-256 256s-256-114.61-256-256 114.61-256 256-256 256 114.61 256 256" fill="#61ce70"></path><path d="m232.03 109.89c-2.7812 0-5.0391 2.2578-5.0391 5.0391v21.652c-12.32 2.9883-24.102 7.8672-34.934 14.457l-15.309-15.309v0.003906c-1.9648-1.9648-5.1562-1.9648-7.1211 0l-33.891 33.887c-1.9688 1.9688-1.9688 5.1602 0 7.125l15.309 15.309c-6.5938 10.828-11.469 22.613-14.457 34.934h-21.656c-2.7812 0-5.0391 2.2539-5.0391 5.0391v47.941c0 2.7812 2.2578 5.0352 5.0391 5.0352h21.652c2.9883 12.32 7.8672 24.102 14.457 34.934l-15.309 15.309h0.003906c-1.9688 1.9648-1.9688 5.1562 0 7.125l33.891 33.887c1.9648 1.9688 5.1562 1.9688 7.1211 0l15.309-15.309c10.828 6.5938 22.613 11.469 34.934 14.457v21.656c0 2.7852 2.2578 5.0391 5.0391 5.0391h47.938c2.7852 0 5.0391-2.2539 5.0391-5.0391v-21.652c12.32-2.9883 24.102-7.8672 34.934-14.457l15.309 15.309v-0.003906c1.9688 1.9688 5.1562 1.9688 7.125 0l33.891-33.887h-0.003906c1.9688-1.9688 1.9688-5.1602 0-7.125l-15.309-15.309c6.5898-10.828 11.469-22.613 14.457-34.934h21.656c2.7812 0 5.0391-2.2539 5.0391-5.0352v-47.941c0-2.7852-2.2578-5.0391-5.0391-5.0391h-21.586c-2.9961-12.332-7.8828-24.129-14.488-34.969l15.27-15.27v-0.003906c1.9688-1.9648 1.9688-5.1562 0-7.125l-33.891-33.887h0.003906c-1.9688-1.9648-5.1562-1.9648-7.125 0l-15.273 15.27c-10.84-6.6055-22.633-11.492-34.969-14.492v-21.586 0.003906c0-2.7812-2.2539-5.0391-5.0391-5.0391zm5.0391 10.078h37.863v20.57-0.003907c0 2.3867 1.6758 4.4453 4.0117 4.9336 13.895 2.8867 27.121 8.3672 38.984 16.156 1.9961 1.3086 4.6406 1.0391 6.3281-0.64844l14.555-14.555 26.762 26.766-14.555 14.555h0.003907c-1.6875 1.6875-1.957 4.3281-0.64844 6.3242 7.7891 11.863 13.27 25.09 16.156 38.984h-0.003906c0.48828 2.3398 2.5469 4.0156 4.9375 4.0156h20.57v37.863h-20.641c-2.3867 0-4.4492 1.6758-4.9336 4.0156-2.8828 13.883-8.3516 27.098-16.121 38.953-1.3086 1.9961-1.0391 4.6328 0.64453 6.3242l14.586 14.586-26.762 26.766-14.586-14.586c-1.6875-1.6875-4.3281-1.9609-6.3242-0.64844-11.855 7.7734-25.07 13.242-38.953 16.121-2.3398 0.48438-4.0156 2.543-4.0156 4.9336v20.637h-37.863v-20.637c0-2.3906-1.6758-4.4492-4.0156-4.9336-13.883-2.8789-27.098-8.3477-38.953-16.121h0.003906c-1.9961-1.3125-4.6367-1.0391-6.3281 0.64844l-14.586 14.586-26.762-26.766 14.586-14.586c1.6836-1.6914 1.957-4.3281 0.64844-6.3242-7.7734-11.855-13.242-25.07-16.121-38.953h-0.003906c-0.48438-2.3398-2.543-4.0156-4.9336-4.0156h-20.637v-37.863h20.637c2.3906 0 4.4492-1.6758 4.9336-4.0156 2.8828-13.883 8.3516-27.098 16.121-38.953h0.003906c1.3086-1.9961 1.0352-4.6328-0.64844-6.3242l-14.586-14.586 26.762-26.766 14.586 14.586v0.003906c1.6914 1.6836 4.332 1.957 6.3281 0.64453 11.855-7.7734 25.07-13.242 38.953-16.121h-0.003907c2.3398-0.48437 4.0156-2.543 4.0156-4.9336zm18.93 52.191c-22.234 0-43.559 8.8359-59.281 24.555-15.723 15.723-24.555 37.051-24.555 59.281 0 22.234 8.832 43.559 24.555 59.281s37.051 24.555 59.281 24.555c22.234 0 43.562-8.832 59.281-24.555 15.723-15.723 24.555-37.047 24.555-59.281s-8.832-43.562-24.555-59.281c-15.723-15.723-37.051-24.555-59.281-24.555zm0 10.078c19.566 0 38.324 7.7695 52.156 21.605 13.832 13.832 21.605 32.59 21.605 52.156 0 17.848-6.4688 35.02-18.105 48.398-4.1445-19.047-17.918-34.496-36-41.102 7.9062-5.9414 13.039-15.363 13.039-25.941 0-17.914-14.719-32.508-32.699-32.508-17.98 0-32.699 14.594-32.699 32.508 0 10.578 5.1328 20 13.043 25.941-18.082 6.6055-31.855 22.055-36 41.098-11.637-13.379-18.102-30.551-18.102-48.398 0-19.566 7.7695-38.324 21.602-52.156 13.832-13.836 32.594-21.605 52.156-21.605zm0 32.684c12.57 0 22.621 10.004 22.621 22.434s-10.051 22.434-22.621 22.434-22.621-10.004-22.621-22.434 10.051-22.434 22.621-22.434zm0 54.992c24.922 0 45.027 18.91 46.75 43.141-13.129 10.758-29.629 16.707-46.75 16.707s-33.625-5.9492-46.75-16.707c1.7344-24.23 21.828-43.141 46.75-43.141z" fill="#fff"></path></svg>