<svg xmlns="http://www.w3.org/2000/svg" width="100pt" height="100pt" viewBox="0 0 100 100"><path d="m100 50c0 27.613-22.387 50-50 50s-50-22.387-50-50 22.387-50 50-50 50 22.387 50 50" fill="#ea5b0a"></path><path d="m60.316 32.422c-3.9062-3.5195-7.8711-4.375-10.145-0.375l-7.9609 9.043c-4.0547 4.6094-9.043 8.2969-14.637 10.82-8.3281 3.8633-5.9688 15.992 3.1758 16.145 2.6328 0.21094 5.2383-2.0234 7.543-2.2305h0.003906c1.5117 3.3438 5.0781 5.2656 8.7031 4.6758s6.4062-3.5312 6.7812-7.1875l10.602-0.015625c1.0234 0.21484 2.0859 0.12109 3.0547-0.27344 2.1836-0.98828 3.3398-3.7109 3.2578-7.6758-0.027343-7.2656-4.9375-18.109-10.379-22.926zm-3.8828 21.055c-1.7578-2.8438-3.1445-5.9023-4.1211-9.0977 2.3086-0.375 4.582 0.83984 5.5469 2.9727 0.96484 2.1289 0.37891 4.6406-1.4258 6.1289zm-8.1914 14.605v0.003907c-3.0664 1.3828-6.6797 0.050781-8.1133-2.9922 3.7891-1.1211 7.7188-1.7109 11.672-1.7578-0.28906 2.0898-1.6328 3.8828-3.5586 4.7539zm4.0234-6.7344c-6.4141 0.007813-12.754 1.3828-18.594 4.0352-1.5938 0.80078-3.4492 0.90625-5.1211 0.29297-1.6758-0.61328-3.0195-1.8945-3.7188-3.5352-1.2578-3.3086 0.30859-7.0273 3.5586-8.4336 5.8438-2.6406 11.062-6.4922 15.301-11.312l5.4766-6.2227c-0.21094 4.5469 1.1914 9.3555 3.1172 13.703 2.0156 4.3555 4.7227 8.6211 8.3438 11.461zm14.355-0.11719c-2.7695 1.2461-7.2188-3.3047-9.0898-6.1133v0.003906c2.6016-2.0312 3.4766-5.5742 2.1172-8.582-1.3594-3.0078-4.6016-4.6875-7.8438-4.0703-1.7539-6.4844-0.51563-15.52 7.1797-8.5898 5.0469 4.457 9.7188 14.777 9.7383 21.512 0.0625 3.0781-0.70312 5.207-2.1016 5.8398z" fill="#fff"></path><path d="m72.266 41.812c0.14062 0 0.27734-0.03125 0.40234-0.089844l4.0508-1.832c0.24219-0.10547 0.42578-0.30469 0.51953-0.54688 0.09375-0.24609 0.082031-0.51562-0.023437-0.75391-0.10938-0.23828-0.30469-0.42578-0.55078-0.51562-0.24219-0.089844-0.51562-0.082031-0.75391 0.023437l-4.0508 1.832v0.003906c-0.41406 0.19531-0.63672 0.65625-0.53906 1.1016 0.097657 0.44922 0.48828 0.76953 0.94531 0.78125z" fill="#fff"></path><path d="m68.48 38.527c0.50781 0.19141 1.0781-0.066406 1.2695-0.57422l1.5664-4.1602c0.1875-0.50781-0.070312-1.0703-0.57812-1.2578-0.50391-0.19141-1.0703 0.0625-1.2656 0.56641l-1.5664 4.1602c-0.09375 0.24219-0.082031 0.51562 0.023438 0.75391 0.10937 0.23828 0.30859 0.42188 0.55078 0.51562z" fill="#fff"></path><path d="m76.926 46.184-4.1602-1.5664h0.003906c-0.50781-0.17969-1.0625 0.078124-1.2539 0.58203-0.1875 0.50391 0.058594 1.0664 0.55469 1.2656 0.11719 0.015625 4.5117 1.7656 4.5078 1.6328 0.47266-0.011718 0.87109-0.34766 0.95703-0.8125 0.082032-0.46484-0.17188-0.92188-0.60938-1.0977z" fill="#fff"></path></svg>