<svg xmlns="http://www.w3.org/2000/svg" width="100pt" height="100pt" viewBox="0 0 100 100"><path d="m93.266 27.383c-0.035156-1.0195-0.45703-1.9805-1.1758-2.7031-0.77344-0.77344-1.8359-1.207-2.9648-1.1758-3.9258 0.12891-7.0195 3.4297-6.8984 7.3594l0.21484 6.5625-1.1094 4.4883c-0.011719 0-0.019531-0.003906-0.03125-0.003906-1.3945 0-2.6992 0.53906-3.6797 1.5195l-7.2969 7.3047-2.5273 0.4375c-1.6328 0.27734-3.1797 1.0742-4.3516 2.25l-5.0273 5.0273c-1.4805 1.4805-2.3203 3.4453-2.3711 5.5352l-0.1875 8.332c-2.3438 0.77734-4.0547 2.9727-4.082 5.5742l-0.11719 10.91c-0.035156 3.2773 2.6016 5.9727 5.8789 6.0078l18.098 0.19141h0.066406c1.5586 0 3.0312-0.60156 4.1523-1.6992 1.1367-1.1133 1.7734-2.5977 1.7891-4.1797l0.11719-10.906c0.015625-1.582-0.58594-3.082-1.6992-4.2188-0.62891-0.64453-1.3789-1.1172-2.1953-1.4219l0.035156-0.25391c0.27734-1.8555 1.1211-3.5312 2.4453-4.8555l8.4883-8.4922c2.1719-2.168 3.5391-5.0352 3.8555-8.0664l0.90234-8.5586c0.058594-0.30469 0.09375-0.61719 0.10156-0.94531l0.003907-0.03125c0.003906-0.015625 0-0.035156 0-0.050782 0-0.050781 0.007812-0.10156 0.007812-0.15234zm-14.504 50.797-0.11719 10.906c-0.007812 0.78125-0.32422 1.5156-0.89062 2.0664-0.5625 0.55469-1.3086 0.84766-2.0859 0.84766l-18.098-0.19141c-1.6211-0.019532-2.9297-1.3516-2.9102-2.9766l0.11719-10.91c0.019531-1.6133 1.3359-2.9102 2.9414-2.9102h0.03125l18.098 0.19531c0.78125 0.007813 1.5156 0.32422 2.0664 0.88672 0.55469 0.5625 0.85547 1.3047 0.84766 2.0859zm7.9531-21.324-8.4883 8.4922c-1.7812 1.7812-2.918 4.0391-3.2891 6.5391l-0.046875 0.3125-16.023-0.17188 0.17969-7.9727c0.03125-1.3125 0.5625-2.5508 1.4922-3.4844l5.0273-5.0273c0.73438-0.73438 1.707-1.2383 2.7383-1.4141l3-0.51953c0.10547-0.019531 0.20703-0.046875 0.30078-0.085937 0.007812-0.003907 0.015625-0.007813 0.019531-0.011719 0.17969-0.074219 0.33984-0.18359 0.47656-0.31641 0.003907-0.003906 0.003907-0.003906 0.007813-0.003906l7.6367-7.6406c0.82422-0.82812 2.2891-0.82422 3.1133 0 0.41406 0.41406 0.64062 0.96875 0.64062 1.5586s-0.22656 1.1445-0.64062 1.5586l-8.7695 8.7695c-0.58594 0.58594-0.58594 1.5352 0 2.1211 0.28906 0.29688 0.67188 0.44141 1.0547 0.44141 0.38281 0 0.76953-0.14453 1.0625-0.4375l8.7695-8.7695c0.98047-0.98047 1.5195-2.2852 1.5195-3.6797 0-1.3906-0.53906-2.6992-1.5195-3.6797-0.23828-0.23828-0.5-0.45312-0.77734-0.63672l1.1992-4.8477c0.003906-0.015625 0.003906-0.03125 0.007812-0.050781 0.011719-0.050782 0.015625-0.10156 0.023438-0.15234 0.007812-0.054688 0.011718-0.10547 0.011718-0.15625 0-0.015625 0.003906-0.03125 0.003906-0.050782l-0.21875-6.7695c-0.066406-2.2773 1.7266-4.1914 3.9844-4.2695 0.28906 0.003906 0.5625 0.10156 0.76172 0.30078 0.13281 0.12891 0.28906 0.35547 0.30078 0.68359l0.4375 13.672-0.10156 0.96875c-0.003906 0.03125-0.007813 0.066406-0.011719 0.097656l-0.88281 8.3711c-0.25 2.3516-1.3164 4.5742-3 6.2617z" fill="#ea5b0a"></path><path d="m77.738 79.555c0 3.4219-5.1328 3.4219-5.1328 0 0-3.4219 5.1328-3.4219 5.1328 0" fill="#ea5b0a"></path><path d="m44.145 72.316-0.1875-8.332c-0.050781-2.0898-0.89062-4.0547-2.3711-5.5352l-5.0273-5.0273c-1.1719-1.1719-2.7188-1.9727-4.3477-2.2461l-2.5312-0.4375-7.2969-7.3047c-0.98047-0.98047-2.2852-1.5195-3.6797-1.5195-0.011719 0-0.019531 0.003907-0.03125 0.003907l-1.1094-4.4883 0.21484-6.5664c0.11719-3.9258-2.9766-7.2266-6.918-7.3555-1.0547-0.039062-2.1758 0.40234-2.9453 1.1758-0.72266 0.72266-1.1406 1.6836-1.1797 2.7109l-0.44141 13.793c0 0.058594 0.007812 0.11328 0.007812 0.17188v0.015625 0.011719c0.003907 0.33203 0.039063 0.65234 0.10156 0.96875l0.90234 8.5547c0.31641 3.0352 1.6875 5.8984 3.8555 8.0664l8.4883 8.4922c1.3203 1.3203 2.168 3 2.4414 4.8516l0.039062 0.25781c-0.81641 0.30078-1.5664 0.77734-2.1953 1.4219-1.1133 1.1367-1.7148 2.6367-1.6992 4.2188l0.11719 10.906c0.019532 1.582 0.65234 3.0664 1.7891 4.1797 1.1211 1.0977 2.5938 1.6992 4.1523 1.6992h0.0625l18.102-0.19141c3.2773-0.035156 5.9141-2.7305 5.8789-6.0078l-0.11719-10.91c-0.023438-2.6094-1.7305-4.8008-4.0742-5.5781zm-22.371-6.9727-8.4883-8.4922c-1.6836-1.6836-2.7461-3.9062-2.9922-6.2617l-0.88281-8.3672c0-0.03125-0.007812-0.0625-0.011718-0.097656l-0.10156-0.97266 0.4375-13.664c0.011719-0.33594 0.17188-0.55859 0.30078-0.69141 0.19922-0.19922 0.46875-0.30078 0.74219-0.30078 2.2734 0.074218 4.0703 1.9883 4.0039 4.2656l-0.21875 6.7695c0 0.015625 0.003906 0.03125 0.003906 0.050781 0 0.050781 0.003906 0.10547 0.011719 0.15625 0.003906 0.050781 0.011719 0.10156 0.023437 0.15234 0.003907 0.015625 0.003907 0.03125 0.007813 0.050781l1.1992 4.8477c-0.27734 0.1875-0.53516 0.39844-0.77734 0.63672-0.98047 0.98047-1.5195 2.2852-1.5195 3.6797 0 1.3906 0.53906 2.6992 1.5195 3.6797l8.7695 8.7695c0.28516 0.30078 0.67188 0.44531 1.0547 0.44531 0.38281 0 0.76953-0.14453 1.0625-0.4375 0.58594-0.58594 0.58594-1.5352 0-2.1211l-8.7695-8.7695c-0.41406-0.41406-0.64063-0.96484-0.64063-1.5586 0-0.58984 0.22656-1.1445 0.64063-1.5586 0.82422-0.82422 2.2891-0.82813 3.1133 0l7.6367 7.6406c0.003906 0.003907 0.003906 0.003907 0.007812 0.003907 0.13281 0.13281 0.29688 0.24219 0.47656 0.31641 0.007813 0.003906 0.011719 0.007813 0.019532 0.011719 0.097656 0.039062 0.19531 0.066406 0.30078 0.085937l3.0078 0.51953c1.0234 0.17578 1.9961 0.67578 2.7305 1.4102l5.0273 5.0273c0.93359 0.93359 1.4609 2.168 1.4922 3.4805l0.17969 7.9727-16.023 0.17187-0.046876-0.31641c-0.37891-2.4961-1.5156-4.7539-3.2969-6.5352zm20.656 26.461-18.102 0.19531c-0.80078 0-1.5195-0.29297-2.0859-0.84375-0.5625-0.55469-0.87891-1.2852-0.89063-2.0664l-0.11328-10.91c-0.007812-0.78125 0.28906-1.5234 0.84375-2.0859 0.55078-0.5625 1.2852-0.87891 2.0664-0.88672l18.098-0.19531h0.03125c1.6094 0 2.9258 1.3008 2.9414 2.9102l0.11719 10.91c0.023437 1.6211-1.2852 2.957-2.9062 2.9727z" fill="#ea5b0a"></path><path d="m27.395 79.555c0 3.4219-5.1328 3.4219-5.1328 0 0-3.4219 5.1328-3.4219 5.1328 0" fill="#ea5b0a"></path><path d="m29.82 33.477h2.8164c0.35938 1.2227 0.84375 2.3945 1.4492 3.5039l-1.9961 1.9961c-1.2305 1.2305-1.2305 3.2344 0 4.4648l2.8008 2.8008c0.61328 0.61328 1.4258 0.92187 2.2305 0.92187 0.80859 0 1.6172-0.30859 2.2344-0.92187l1.9961-1.9961c1.1094 0.60547 2.2812 1.0938 3.5039 1.4492v2.8203c0 1.7422 1.418 3.1602 3.1602 3.1602h3.9492c1.7422 0 3.1602-1.418 3.1602-3.1602v-2.8203c1.2227-0.35937 2.3945-0.84375 3.5039-1.4492l1.9961 1.9961c0.61328 0.61719 1.4258 0.92187 2.2305 0.92187 0.80859 0 1.6172-0.30859 2.2344-0.92187l2.8008-2.8008c1.2305-1.2305 1.2305-3.2344 0-4.4648l-1.9961-1.9961c0.60547-1.1094 1.0938-2.2812 1.4492-3.5039h2.8164c1.7422 0 3.1602-1.418 3.1602-3.1602v-3.9492c0-1.7422-1.418-3.1602-3.1602-3.1602l-2.8008-0.003906c-0.35938-1.2227-0.84375-2.3945-1.4492-3.5039l1.9961-1.9961c1.2305-1.2305 1.2305-3.2344 0-4.4648l-2.8008-2.8008c-1.1953-1.1914-3.2773-1.1914-4.4688 0l-1.9961 1.9961c-1.1094-0.60547-2.2812-1.0938-3.5039-1.4492v-2.8242c0-1.7422-1.418-3.1602-3.1602-3.1602h-3.9492c-1.7422 0-3.1602 1.418-3.1602 3.1602v2.8203c-1.2227 0.35938-2.3945 0.84375-3.5039 1.4492l-1.9961-1.9961c-1.1914-1.1914-3.2734-1.1953-4.4688 0l-2.8008 2.8008c-1.2305 1.2305-1.2305 3.2344 0 4.4648l1.9961 1.9961c-0.60547 1.1094-1.0938 2.2812-1.4492 3.5039h-2.8164c-1.7422 0-3.1602 1.418-3.1602 3.1602v3.9492c-0.007813 1.75 1.4102 3.168 3.1523 3.168zm-0.16016-7.1133c0-0.09375 0.070313-0.16016 0.16016-0.16016h3.9648 0.003906 0.007813c0.15625 0 0.30078-0.03125 0.44141-0.074219 0.023438-0.007812 0.046875-0.011718 0.070313-0.023437 0.13672-0.050781 0.26172-0.12109 0.37891-0.21094 0.019531-0.015625 0.039062-0.03125 0.058594-0.050781 0.11328-0.09375 0.21484-0.20312 0.29688-0.32812 0.007812-0.015625 0.015625-0.027344 0.023437-0.042969 0.078125-0.13281 0.14062-0.27344 0.17578-0.42969 0.003906-0.007813 0.007812-0.011719 0.007812-0.019531 0.37891-1.707 1.0391-3.3125 1.9727-4.7656 0.046875-0.070312 0.082032-0.14844 0.11328-0.22266 0.003906-0.011718 0.011718-0.019531 0.015624-0.03125 0.070313-0.17188 0.10156-0.35156 0.10156-0.53125 0-0.011718 0.003906-0.023437 0.003906-0.035156 0-0.17969-0.039062-0.35938-0.10156-0.52734-0.003907-0.011718-0.007813-0.023437-0.011719-0.035156-0.070312-0.17578-0.17969-0.33594-0.31641-0.47656-0.003906-0.003907-0.003906-0.007813-0.007813-0.011719l-0.015625-0.015625-2.793-2.7969c-0.0625-0.058594-0.0625-0.16406 0-0.22656l2.8008-2.8008c0.054687-0.054687 0.17188-0.054687 0.22656 0l2.8125 2.8125c0.007813 0.007813 0.015625 0.007813 0.019531 0.011719 0.12891 0.125 0.27344 0.21875 0.43359 0.28906 0.035156 0.015625 0.070313 0.027344 0.10547 0.039063 0.16016 0.058593 0.32812 0.097656 0.5 0.097656h0.003906c0.16797 0 0.33594-0.039063 0.5-0.097656 0.046875-0.015625 0.089844-0.039063 0.13672-0.0625 0.054688-0.027344 0.11719-0.042969 0.17188-0.078125 1.4531-0.93359 3.0586-1.5977 4.7656-1.9727 0.035156-0.007813 0.066406-0.023438 0.097656-0.03125 0.058594-0.019532 0.11719-0.03125 0.17578-0.058594 0.042968-0.019532 0.085937-0.046875 0.125-0.066406 0.042968-0.023438 0.085937-0.046876 0.12891-0.074219 0.042968-0.03125 0.082031-0.066407 0.12109-0.10156 0.03125-0.027344 0.070312-0.054687 0.097656-0.085937 0.035156-0.035157 0.066406-0.078125 0.097656-0.11719 0.027344-0.035156 0.058594-0.070312 0.085938-0.10938 0.027343-0.039062 0.046874-0.085937 0.070312-0.12891s0.046875-0.082031 0.066406-0.12891c0.019532-0.050782 0.03125-0.10156 0.046875-0.15234 0.011719-0.042969 0.027344-0.082031 0.035157-0.125 0.011718-0.066406 0.015624-0.13281 0.019531-0.19922 0.003906-0.03125 0.007812-0.058593 0.007812-0.089843v-0.019532-0.007812-3.9297c0-0.089844 0.070313-0.16016 0.16016-0.16016h3.9492c0.09375 0 0.16016 0.070312 0.16016 0.16016v3.9453 0.007812 0.019531c0 0.03125 0.007813 0.058594 0.007813 0.089844 0.003906 0.066406 0.007813 0.13672 0.019531 0.19922 0.007813 0.042969 0.023438 0.082031 0.035156 0.12109 0.015626 0.050781 0.027344 0.10547 0.046876 0.15625 0.019531 0.042969 0.042968 0.085937 0.0625 0.125 0.023437 0.042969 0.042968 0.089843 0.070312 0.12891 0.023438 0.039063 0.054688 0.070313 0.085938 0.10547 0.03125 0.039062 0.0625 0.082031 0.097656 0.11719 0.03125 0.03125 0.066406 0.058594 0.097656 0.085938 0.039062 0.035156 0.078125 0.070312 0.12109 0.10156 0.039062 0.027344 0.085937 0.050781 0.12891 0.070313 0.042969 0.023437 0.082031 0.050781 0.12891 0.070312 0.054688 0.023438 0.11328 0.039063 0.17578 0.058594 0.035156 0.011719 0.066406 0.023438 0.10156 0.03125 1.707 0.37891 3.3125 1.0391 4.7656 1.9727 0.054687 0.035156 0.11328 0.050782 0.17188 0.078125 0.046875 0.023438 0.089844 0.046875 0.13672 0.0625 0.16406 0.058594 0.33203 0.097657 0.5 0.097657h0.003906c0.17188 0 0.33984-0.039063 0.5-0.097657 0.035156-0.011719 0.070313-0.023437 0.10547-0.039062 0.15625-0.070313 0.30469-0.16406 0.43359-0.28906 0.007812-0.007812 0.015624-0.007812 0.019531-0.011718l2.8125-2.8125c0.050781-0.050782 0.17188-0.050782 0.22266 0l2.8008 2.8008c0.058594 0.058593 0.058594 0.16406 0 0.22266l-2.8125 2.8125c-0.003906 0.003906-0.003906 0.007813-0.007812 0.011719-0.13672 0.14062-0.24219 0.30078-0.31641 0.47656-0.003907 0.011719-0.007813 0.023438-0.011719 0.035156-0.066407 0.16797-0.10156 0.34766-0.10156 0.52734 0 0.011719 0.003906 0.023438 0.003906 0.035156 0.003907 0.17969 0.035157 0.35938 0.10156 0.53125 0.003906 0.011719 0.011719 0.019532 0.015625 0.03125 0.03125 0.074219 0.066406 0.15234 0.11328 0.22266 0.93359 1.4531 1.5977 3.0586 1.9727 4.7656 0.003906 0.007812 0.007812 0.011718 0.007812 0.019531 0.035156 0.15234 0.097656 0.29688 0.17578 0.42578 0.007813 0.015625 0.015625 0.03125 0.023438 0.042969 0.078125 0.125 0.17969 0.23047 0.29297 0.32422 0.019531 0.015625 0.039062 0.035156 0.0625 0.050781 0.11328 0.085937 0.23828 0.15625 0.375 0.20703 0.023437 0.007813 0.046874 0.015625 0.074218 0.023438 0.14062 0.046875 0.28516 0.074218 0.44141 0.074218h0.007813 0.003906 3.9648c0.09375 0 0.16016 0.070313 0.16016 0.16016v3.9492c0 0.09375-0.070312 0.16016-0.16016 0.16016h-3.9414-0.011719-0.011719c-0.019531 0-0.039062 0.003906-0.058593 0.007812-0.078126 0.003906-0.16016 0.007813-0.23828 0.023438-0.019531 0.003906-0.039062 0.011718-0.058594 0.015625-0.074218 0.019531-0.14844 0.039062-0.21875 0.066406-0.023437 0.007813-0.039062 0.023437-0.0625 0.03125-0.066406 0.03125-0.13281 0.0625-0.19141 0.10547-0.023437 0.015625-0.039062 0.03125-0.0625 0.046875-0.054687 0.039062-0.10938 0.082031-0.16016 0.13281-0.023438 0.023438-0.039062 0.046875-0.0625 0.070313-0.042969 0.046875-0.085938 0.09375-0.12109 0.14844-0.023437 0.035157-0.042968 0.078125-0.066406 0.11719-0.023438 0.046875-0.054688 0.089843-0.074219 0.13672-0.023437 0.054687-0.039062 0.11328-0.054687 0.16797-0.011719 0.035156-0.027344 0.066406-0.035156 0.10547-0.37891 1.707-1.0391 3.3125-1.9727 4.7656-0.046875 0.070312-0.082031 0.14844-0.11328 0.22266-0.003906 0.011719-0.011719 0.019532-0.015625 0.03125-0.070313 0.17188-0.10156 0.35156-0.10156 0.53125 0 0.011719-0.003906 0.023438-0.003906 0.035156 0 0.17969 0.039063 0.35938 0.10156 0.52734 0.003906 0.011719 0.007812 0.023438 0.011719 0.035156 0.070312 0.17578 0.17969 0.33594 0.31641 0.47656 0.003906 0.003906 0.003906 0.007813 0.007812 0.011719l0.011719 0.011718s0.003906 0.003907 0.003906 0.003907l2.7969 2.7969c0.058594 0.058594 0.058594 0.16406 0 0.22266l-2.8008 2.8008c-0.0625 0.0625-0.16406 0.0625-0.22656 0l-2.793-2.793c-0.003906-0.003906-0.003906-0.003906-0.007813-0.007812l-0.007812-0.007812c-0.003907-0.003907-0.007813-0.003907-0.007813-0.007813-0.14062-0.13672-0.30078-0.24609-0.47656-0.31641-0.011719-0.003907-0.027344-0.007813-0.039063-0.011719-0.16797-0.0625-0.34375-0.10156-0.52344-0.10156-0.015625 0-0.027344 0.003906-0.039063 0.003906-0.17578 0.003906-0.35547 0.035156-0.52344 0.10156-0.011719 0.003906-0.019532 0.011719-0.03125 0.015625-0.074219 0.03125-0.15234 0.066407-0.22266 0.11328-1.4531 0.92969-3.0586 1.5938-4.7656 1.9727-0.03125 0.007812-0.058593 0.019531-0.089843 0.027343-0.0625 0.019532-0.12891 0.035157-0.1875 0.0625-0.042969 0.019532-0.078125 0.042969-0.12109 0.066407-0.046875 0.023437-0.089844 0.046875-0.13281 0.074219-0.042968 0.027343-0.078124 0.0625-0.11719 0.097656-0.035156 0.03125-0.070313 0.058594-0.10547 0.089844-0.035156 0.035156-0.0625 0.074218-0.09375 0.11328-0.03125 0.035156-0.0625 0.070312-0.085937 0.11328-0.027344 0.039062-0.046875 0.082031-0.066407 0.125-0.023437 0.042969-0.046874 0.085938-0.066406 0.12891-0.019531 0.050782-0.03125 0.10156-0.046875 0.15234-0.011719 0.042969-0.027343 0.082031-0.035156 0.125-0.011719 0.066406-0.015625 0.13281-0.019531 0.19922-0.003906 0.03125-0.007813 0.058593-0.007813 0.089843v0.019532 0.007812 3.9453c0 0.09375-0.070312 0.16016-0.16016 0.16016h-3.9492c-0.09375 0-0.16016-0.070313-0.16016-0.16016v-3.9453-0.007812-0.019532c0-0.03125-0.007812-0.058593-0.007812-0.089843-0.003907-0.066407-0.007813-0.13281-0.019532-0.19531-0.007812-0.042968-0.023437-0.085937-0.035156-0.12891-0.015625-0.050781-0.027344-0.10156-0.046875-0.14844-0.019531-0.046874-0.042969-0.085937-0.066406-0.13281-0.023438-0.042969-0.042969-0.085938-0.066407-0.125-0.027343-0.039062-0.058593-0.074219-0.089843-0.11328-0.03125-0.039063-0.058594-0.078125-0.09375-0.11328-0.03125-0.03125-0.070313-0.0625-0.10547-0.089844-0.039062-0.03125-0.074219-0.066406-0.11719-0.09375-0.042968-0.027344-0.089843-0.050782-0.13281-0.078125-0.039062-0.023438-0.078125-0.046875-0.11719-0.066407-0.058593-0.027343-0.125-0.042968-0.1875-0.0625-0.03125-0.007812-0.058593-0.023437-0.089843-0.027343-1.7109-0.37891-3.3125-1.043-4.7656-1.9727-0.070313-0.046874-0.14844-0.082031-0.22656-0.11328-0.011719-0.003906-0.019531-0.011719-0.027343-0.015625-0.17188-0.070312-0.35156-0.10156-0.53125-0.10156-0.011719 0-0.023438-0.003906-0.035157-0.003906-0.17969 0.003906-0.35938 0.039062-0.52734 0.10156-0.011719 0.003906-0.023438 0.007812-0.035157 0.011719-0.17578 0.070312-0.33594 0.17969-0.47656 0.31641-0.003907 0.003906-0.007813 0.003906-0.011719 0.007813l-0.011719 0.011718-2.8008 2.8008c-0.0625 0.058593-0.16406 0.058593-0.22656 0l-2.8008-2.8008c-0.058594-0.058594-0.058594-0.16406 0-0.22266l2.7969-2.7969 0.003907-0.003906 0.011718-0.011719c0.003906-0.003906 0.003906-0.007812 0.007813-0.011719 0.13672-0.14062 0.24219-0.30078 0.31641-0.47656 0.003906-0.011719 0.007813-0.023438 0.011719-0.035157 0.066406-0.16797 0.10156-0.34766 0.10156-0.52734 0-0.011719-0.003906-0.023438-0.003906-0.035157-0.003906-0.17969-0.035156-0.35937-0.10156-0.53125-0.003907-0.011718-0.011719-0.019531-0.015626-0.03125-0.03125-0.074218-0.066406-0.15234-0.11328-0.22266-0.93359-1.4531-1.5977-3.0586-1.9727-4.7656-0.007813-0.039062-0.023437-0.074219-0.035156-0.11328-0.015625-0.054688-0.03125-0.10938-0.054688-0.16016-0.023437-0.058594-0.058593-0.10938-0.085937-0.16016-0.015625-0.03125-0.03125-0.0625-0.050782-0.089844-0.042968-0.0625-0.09375-0.12109-0.14844-0.17969-0.011719-0.011718-0.023437-0.027344-0.035156-0.039062-0.058594-0.058594-0.125-0.10938-0.19141-0.15625-0.011718-0.007813-0.019531-0.015625-0.03125-0.023438-0.070312-0.046875-0.14453-0.085937-0.22266-0.12109-0.011718-0.003906-0.019531-0.011718-0.03125-0.015624-0.078125-0.03125-0.16016-0.054688-0.24219-0.074219-0.015625-0.003907-0.027344-0.007813-0.039063-0.011719-0.078125-0.015625-0.16016-0.023438-0.24219-0.023438-0.019531 0-0.035157-0.003906-0.054688-0.003906h-0.011719-0.011718-3.9453c-0.09375 0-0.16016-0.070312-0.16016-0.16016z" fill="#ea5b0a"></path><path d="m50 34.84c3.5859 0 6.5-2.9141 6.5-6.5 0-3.5859-2.9141-6.5-6.5-6.5s-6.5 2.9141-6.5 6.5c0 3.582 2.9141 6.5 6.5 6.5zm0-10c1.9297 0 3.5 1.5703 3.5 3.5 0 1.9297-1.5703 3.5-3.5 3.5s-3.5-1.5703-3.5-3.5c0-1.9297 1.5703-3.5 3.5-3.5z" fill="#ea5b0a"></path><path d="m50 40.84c6.8945 0 12.5-5.6055 12.5-12.5 0-6.8945-5.6055-12.5-12.5-12.5s-12.5 5.6055-12.5 12.5c0 6.8906 5.6055 12.5 12.5 12.5zm0-22c5.2383 0 9.5 4.2617 9.5 9.5 0 5.2383-4.2617 9.5-9.5 9.5s-9.5-4.2617-9.5-9.5c0-5.2383 4.2617-9.5 9.5-9.5z" fill="#ea5b0a"></path></svg>