<svg xmlns="http://www.w3.org/2000/svg" width="512pt" height="512pt" viewBox="0 0 512 512"><path d="m512 256c0 141.39-114.61 256-256 256s-256-114.61-256-256 114.61-256 256-256 256 114.61 256 256" fill="#61ce70"></path><path d="m178.08 118.96c-9.3086 0.078125-18.672 2.2695-27.301 6.793-2.2695 1.1914-3.8398 3.3906-4.2227 5.9258-0.38672 2.5352 0.45703 5.1016 2.2695 6.9141l23.836 23.836c2.9258 2.9258 2.9258 7.3008 0 10.23-2.9258 2.9258-7.3047 2.9258-10.23 0l-23.836-23.836c-1.8125-1.8125-4.3789-2.6562-6.9141-2.2695-2.5352 0.38672-4.7344 1.9531-5.9258 4.2227-12.066 23.004-7.7695 51.27 10.594 69.645 0 0.003907 0 0.003907 0.003907 0.003907 14.848 14.84 36.355 20.652 56.48 15.605l24.57 24.57-8.9258 8.9258-5.6055-5.6055v0.003907c-1.8242-1.8242-4.4141-2.6641-6.9609-2.2617-1.6836 0.26562-3.2344 1.0586-4.4375 2.2617l-53.043 53.043c-15.523 15.523-15.426 40.898 0.13672 56.461 15.559 15.559 40.938 15.66 56.461 0.13672l53.043-53.043c3.1445-3.1484 3.1445-8.25 0-11.398l-5.5938-5.5938 8.9258-8.9258 24.559 24.559c-5.0469 20.125 0.76562 41.633 15.605 56.48v-0.003907c0 0.003907 0.003907 0.003907 0.003907 0.003907 18.375 18.363 46.641 22.66 69.645 10.594 2.2695-1.1914 3.8398-3.3906 4.2266-5.9258 0.38281-2.5312-0.45703-5.0977-2.2695-6.9102l-23.836-23.836c-2.9258-2.9258-2.9258-7.3047 0-10.23 2.9258-2.9258 7.3047-2.9258 10.23 0l23.836 23.836c1.8125 1.8125 4.3789 2.6523 6.9102 2.2656 2.5352-0.38281 4.7344-1.9531 5.9258-4.2227 12.066-23.004 7.7695-51.27-10.594-69.645h0.003906c-0.003906 0-0.003906-0.003907-0.007813-0.003907-14.848-14.84-36.355-20.652-56.48-15.605l-24.559-24.559 34.926-34.922 5.7188 5.7188c1.7891 1.7852 4.3164 2.6328 6.8203 2.2812 2.5078-0.35156 4.6992-1.8594 5.9297-4.0703l36.129-65.109v-0.003907c1.7461-3.1445 1.1953-7.0664-1.3477-9.6094l-16.473-16.473c-1.2383-1.2383-2.8438-2.0391-4.5781-2.2812-1.7344-0.24609-3.5 0.082031-5.0312 0.93359l-65.113 36.129c-2.2109 1.2305-3.7188 3.4258-4.0703 5.9297-0.35156 2.5039 0.49609 5.0312 2.2812 6.8203l5.7344 5.7344-34.922 34.926-24.57-24.57c5.0469-20.125-0.76562-41.633-15.605-56.48l-0.003906-0.003906c0-0.003907-0.003907-0.003907-0.003907-0.003907-11.484-11.477-26.832-17.461-42.344-17.387zm0.097657 16.098c11.293-0.078125 22.453 4.3047 30.848 12.691 11.727 11.738 15.723 29.086 10.309 44.77h-0.003907c-1.0039 2.918-0.25781 6.1523 1.9219 8.332l89.891 89.891c2.1797 2.1797 5.4141 2.9258 8.332 1.9219 15.684-5.4141 33.035-1.4219 44.77 10.309 10.637 10.648 14.793 25.738 11.672 39.914l-14.953-14.953c-9.0508-9.0508-23.977-9.0508-33.031 0-9.0508 9.0508-9.0508 23.98 0 33.031l14.953 14.953c-14.176 3.125-29.266-1.0312-39.914-11.672-11.73-11.738-15.723-29.086-10.309-44.77v-0.003907c1.0039-2.9141 0.25781-6.1484-1.9219-8.3281l-56.156-56.156c-0.023438-0.027344-0.050782-0.054688-0.078126-0.082032l-33.625-33.625v0.003906c-2.1797-2.1836-5.4141-2.9258-8.332-1.9219-15.684 5.4141-33.035 1.4219-44.773-10.309-10.637-10.648-14.793-25.738-11.672-39.914l14.953 14.953c9.0508 9.0508 23.98 9.0508 33.031 0 9.0508-9.0508 9.0508-23.98 0-33.031l-14.953-14.953c3-0.66016 6.0391-1.0039 9.0703-1.0195zm181.03 9.8555 7.875 7.8789-27.992 50.449-3.8594-3.8594v-0.003907c-3.1484-3.1484-8.2539-3.1484-11.402 0l-40.625 40.625-11.199-11.199 40.625-40.625h0.003906c3.1445-3.1484 3.1445-8.25 0-11.398l-3.875-3.875zm-130.4 127.09 11.199 11.199-8.9258 8.9258-11.199-11.199zm-31.633 9.0195 5.5469 5.5469h-0.003906c0.027344 0.027344 0.054688 0.054687 0.082031 0.082031l22.598 22.598c0.027343 0.027344 0.050781 0.054688 0.078124 0.082032l5.5352 5.5352-47.344 47.344c-9.3633 9.3672-24.18 9.3398-33.66-0.13672-9.4805-9.4805-9.5039-24.297-0.13672-33.66z" fill="#fff"></path></svg>