<svg xmlns="http://www.w3.org/2000/svg" width="512pt" height="512pt" viewBox="0 0 512 512"><path d="m132.27 38.402c-14.777 0.125-29.652 3.6016-43.348 10.785-3.6055 1.8945-6.0938 5.3867-6.707 9.4102-0.61328 4.0234 0.72656 8.0977 3.6055 10.977l37.852 37.852c4.6484 4.6484 4.6484 11.594 0 16.246-4.6484 4.6484-11.598 4.6484-16.242 0l-37.852-37.852h-0.003906c-2.8789-2.8789-6.9531-4.2148-10.977-3.6055-4.0234 0.61328-7.5195 3.1055-9.4102 6.707-19.164 36.527-12.336 81.41 16.82 110.59 0 0.003906 0.003907 0.003906 0.007813 0.007812 23.578 23.562 57.73 32.793 89.688 24.781l39.016 39.016-14.176 14.176-8.9023-8.9023c-2.8984-2.8945-7.0078-4.2305-11.055-3.5898-2.668 0.42188-5.1328 1.6797-7.0469 3.5898l-84.23 84.23c-24.648 24.648-24.492 64.945 0.21875 89.652 24.707 24.707 65.008 24.863 89.652 0.21875l84.23-84.23c5-4.9961 5-13.102 0-18.102l-8.8789-8.8789 14.176-14.176 38.996 38.996c-8.0117 31.957 1.2148 66.109 24.781 89.688l-0.003906-0.003906c0.003906 0.003906 0.003906 0.003906 0.007812 0.007813 29.18 29.156 74.062 35.984 110.59 16.82 3.6055-1.8906 6.0938-5.3828 6.707-9.4062 0.61328-4.0273-0.72656-8.1016-3.6016-10.98l-37.852-37.852c-4.6484-4.6484-4.6484-11.598 0-16.246 4.6484-4.6484 11.598-4.6484 16.246 0l37.852 37.852-0.003907 0.003906c2.8789 2.875 6.9531 4.2148 10.98 3.6016 4.0234-0.61328 7.5156-3.1055 9.4062-6.707 19.164-36.527 12.336-81.41-16.82-110.59 0 0-0.003907-0.003906-0.007813-0.003906-23.578-23.562-57.73-32.797-89.688-24.781l-38.996-38.996 55.457-55.457 9.082 9.082h0.003906c2.8398 2.8398 6.8516 4.1797 10.828 3.6211s7.4648-2.9492 9.4141-6.4609l57.371-103.39c2.7695-4.9961 1.8984-11.223-2.1406-15.262l-26.156-26.156c-1.9648-1.9648-4.5195-3.2383-7.2734-3.625-2.75-0.38672-5.5547 0.13672-7.9883 1.4844l-103.39 57.371c-3.5117 1.9492-5.9062 5.4336-6.4648 9.4141-0.55859 3.9766 0.78516 7.9883 3.625 10.828l9.1055 9.1055-55.457 55.457-39.016-39.016c8.0117-31.957-1.2148-66.109-24.781-89.688-0.003906-0.003906-0.003906-0.003906-0.007812-0.007813-18.234-18.223-42.609-27.723-67.242-27.605zm0.15625 25.559c17.934-0.125 35.652 6.832 48.984 20.152 18.621 18.637 24.965 46.188 16.367 71.094-1.5977 4.6289-0.41406 9.7656 3.0469 13.227l142.74 142.74c3.4609 3.4609 8.5977 4.6445 13.227 3.0469 24.906-8.5977 52.457-2.2539 71.094 16.367l0.003906 0.003906c16.891 16.906 23.492 40.871 18.531 63.383l-23.742-23.742c-14.371-14.371-38.074-14.371-52.449 0-14.371 14.375-14.371 38.078 0 52.449l23.742 23.742c-22.508 4.9609-46.473-1.6406-63.383-18.531v-0.003906c-18.625-18.637-24.969-46.188-16.367-71.094h-0.007812c1.6016-4.6289 0.41797-9.7656-3.0469-13.23l-89.168-89.172-0.003906 0.003907c-0.039063-0.042969-0.082032-0.085938-0.125-0.12891l-53.395-53.391h0.003907c-3.4648-3.4609-8.6016-4.6445-13.23-3.0469-24.906 8.5977-52.457 2.2539-71.094-16.371-16.891-16.906-23.492-40.871-18.531-63.383l23.742 23.742c14.371 14.371 38.078 14.371 52.449 0 14.371-14.371 14.371-38.078 0-52.449l-23.742-23.742c4.7617-1.0508 9.5898-1.5938 14.402-1.6211zm287.45 15.648 12.508 12.508-44.449 80.105-6.1289-6.1289v0.003906c-4.9961-5-13.102-5-18.102 0l-64.508 64.508-17.781-17.785 64.508-64.508c4.9961-4.9961 4.9961-13.102 0-18.102l-6.1523-6.1523zm-207.06 201.81 17.781 17.781-14.176 14.176-17.785-17.781zm-50.23 14.324 8.8086 8.8086c0.042969 0.042969 0.085938 0.089844 0.12891 0.13281l35.887 35.887-0.003906-0.003906c0.042969 0.046875 0.085938 0.089844 0.125 0.13281l8.7891 8.7891-75.18 75.18c-14.867 14.871-38.395 14.832-53.445-0.21875-15.051-15.051-15.09-38.578-0.21875-53.449z" fill="#fff"></path></svg>