<svg xmlns="http://www.w3.org/2000/svg" width="100pt" height="100pt" viewBox="0 0 100 100"><path d="m100 50c0 27.613-22.387 50-50 50s-50-22.387-50-50 22.387-50 50-50 50 22.387 50 50" fill="#ea5b0a"></path><path d="m38.895 31.109c-4.25 0-7.7852 3.3164-7.7852 7.4844v22.801c0 4.168 3.5352 7.4961 7.7852 7.4961h22.199c4.25 0 7.7969-3.3281 7.7969-7.4961v-22.801c0-4.168-3.5508-7.4844-7.7969-7.4844zm0 3.1367h22.199c2.6406 0 4.6484 1.957 4.6484 4.3477v22.801c0 2.3945-2.0117 4.3477-4.6484 4.3477h-22.199c-2.6406 0-4.6484-1.957-4.6484-4.3477v-22.801c0-2.3945 2.0117-4.3477 4.6484-4.3477zm18.145 6.1992c-1.1406 0.027344-2.2734 0.45313-3.1523 1.2969-2.2734 2.168-4.5469 4.3398-6.8242 6.5117l-0.90234-0.89453v0.007813c-1.8438-1.832-4.875-1.8125-6.6992 0.035156-1.8164 1.8438-1.793 4.8516 0.050781 6.668l4.168 4.125 0.003906 0.003907h0.011718c1.8047 1.7773 4.7344 1.8047 6.5664 0.058593l10.156-9.6797c1.8711-1.7852 1.9414-4.7969 0.16406-6.6719-0.94922-1-2.25-1.4883-3.543-1.4609zm0.14844 3.125c0.40234 0.007813 0.79688 0.17578 1.1055 0.5v-0.003906h0.011719c0.61328 0.64062 0.58594 1.6211-0.058594 2.2344l-10.156 9.6797c-0.62891 0.59766-1.5703 0.58203-2.1875-0.023438v0.011719l-4.168-4.125v-0.003906-0.003906-0.003907c-0.63281-0.62109-0.64844-1.5859-0.023437-2.2188 0.625-0.63672 1.6016-0.64062 2.2344-0.011719l1.9883 1.9648-0.007813-0.003906c0.60547 0.60156 1.5781 0.60938 2.1953 0.023438 2.6445-2.5234 5.293-5.043 7.9414-7.5664 0.32031-0.30859 0.72656-0.46094 1.125-0.45312z" fill="#fff"></path></svg>