<svg xmlns="http://www.w3.org/2000/svg" width="100pt" height="100pt" viewBox="0 0 100 100"><path d="m50 5.6016c24.52 0 44.398 19.879 44.398 44.398s-19.875 44.398-44.398 44.398c-24.52 0-44.398-19.879-44.398-44.398s19.879-44.398 44.398-44.398zm-27.746 69.727c2.9375-9.0781 11.461-15.492 21.25-15.492h12.996c9.7969 0 18.312 6.4219 21.25 15.492 13.543-14.828 13.02-37.691-1.1836-51.895-14.672-14.672-38.461-14.672-53.133 0-14.203 14.203-14.727 37.062-1.1797 51.895zm49.652 5.1953c-0.82812-7.7891-7.4805-13.859-15.406-13.859l-13 0.003907c-7.9297 0-14.578 6.0703-15.406 13.859 13.07 9.3945 30.742 9.3945 43.812-0.003906zm-21.906-59.047c-9.8984 0-17.926 8.0234-17.926 17.926 0 15.918 19.336 23.938 30.598 12.676 11.27-11.27 3.2422-30.602-12.672-30.602zm7.8438 10.078c-6.9727-6.9727-18.938-2.0078-18.938 7.8438 0 9.8516 11.969 14.816 18.938 7.8438 4.332-4.332 4.332-11.355 0-15.688z" fill="#ea5b0a" fill-rule="evenodd"></path></svg>