<svg xmlns="http://www.w3.org/2000/svg" width="100pt" height="100pt" viewBox="0 0 100 100"><path d="m100 50c0 27.617-22.387 50-50 50s-50-22.387-50-50 22.387-50 50-50 50 22.383 50 50zm-4.3047 0c0-25.238-20.457-45.695-45.695-45.695-25.234 0-45.695 20.461-45.695 45.695s20.461 45.695 45.695 45.695c25.238 0 45.695-20.457 45.695-45.695zm-45.629 28.57c-2.6289 0-4.7617-2.1328-4.7617-4.7617s2.1328-4.7617 4.7617-4.7617 4.7617 2.1328 4.7617 4.7617-2.1328 4.7617-4.7617 4.7617zm14.285-42.855c0 7.0781-5.1484 12.953-11.906 14.09v11.953h-4.7617v-16.52h2.3828c5.2578 0 9.5234-4.2617 9.5234-9.5234 0-5.2617-4.2656-9.5234-9.5234-9.5234-5.2617 0-9.5234 4.2617-9.5234 9.5234v2.3789h-4.7617v-2.3789c0-7.8906 6.3945-14.285 14.285-14.285s14.285 6.3945 14.285 14.285z" fill="#ea5b0a"></path></svg>