<svg xmlns="http://www.w3.org/2000/svg" width="100pt" height="100pt" viewBox="0 0 100 100"><path d="m61.266 58.812 4.6133-4.6133c0.070313-0.070313 0.10547-0.16406 0.10547-0.25781s-0.035156-0.1875-0.10547-0.25781l-2.6523-2.6523 0.003907-0.003906c-0.38281-0.38281-0.46875-0.98828-0.17578-1.4688 0.51953-0.85156 0.97266-1.7422 1.3555-2.6602 0.36719-0.88672 0.67188-1.8047 0.90234-2.75 0.089844-0.57422 0.58594-1.0117 1.1836-1.0117h3.75c0.097656 0 0.19141-0.039063 0.25781-0.10938 0.066406-0.066406 0.10938-0.15625 0.10938-0.25781v-6.5234c0-0.097656-0.039062-0.19141-0.10938-0.25781-0.066406-0.066406-0.15625-0.10938-0.25781-0.10938h-3.75v-0.003906c-0.53906 0-1.0273-0.36719-1.1602-0.91406-0.23047-0.95703-0.53125-1.8867-0.90234-2.7812-0.007813-0.019532-0.015625-0.039063-0.023438-0.058594-0.375-0.90234-0.8125-1.7695-1.3125-2.5938-0.33203-0.46875-0.28906-1.1211 0.12891-1.5391l2.6523-2.6523c0.070313-0.070313 0.10547-0.16406 0.10547-0.25781s-0.035156-0.1875-0.10547-0.25781l-4.6133-4.6133c-0.070313-0.070312-0.16406-0.10547-0.25781-0.10547s-0.1875 0.035157-0.25781 0.10547l-2.6523 2.6523-0.003906-0.003906c-0.38281 0.38281-0.98828 0.46875-1.4688 0.17578-0.84375-0.51562-1.7344-0.96875-2.6641-1.3555v-0.003906c-0.88281-0.36719-1.8008-0.66797-2.7461-0.90234-0.57422-0.089843-1.0117-0.58594-1.0117-1.1836v-3.75c0-0.097657-0.039063-0.19141-0.10938-0.25781-0.066406-0.066406-0.15625-0.10938-0.25781-0.10938h-6.5234c-0.097656 0-0.19141 0.039062-0.25781 0.10938-0.066407 0.066406-0.10938 0.15625-0.10938 0.25781v3.75h-0.003906c0 0.53906-0.36719 1.0273-0.91406 1.1602-0.95703 0.23047-1.8867 0.53125-2.7812 0.90234-0.019532 0.007812-0.039063 0.015624-0.058594 0.023437-0.90234 0.375-1.7695 0.8125-2.5938 1.3125-0.46875 0.33203-1.1211 0.28906-1.5391-0.12891l-2.6523-2.6523c-0.070313-0.070313-0.16406-0.10547-0.25781-0.10547s-0.1875 0.035156-0.25781 0.10547l-4.6133 4.6133c-0.070313 0.070313-0.10547 0.16406-0.10547 0.25781s0.035156 0.1875 0.10547 0.25781l2.6523 2.6523-0.003906 0.003906c0.38281 0.38281 0.46875 0.98828 0.17578 1.4688-0.51562 0.84375-0.97266 1.7344-1.3555 2.6641h-0.003907c-0.36719 0.88281-0.66797 1.8008-0.90234 2.7461-0.089844 0.57422-0.58594 1.0117-1.1836 1.0117h-3.75c-0.097656 0-0.19141 0.039063-0.25781 0.10938-0.066406 0.066407-0.10938 0.15625-0.10938 0.25781v6.5234c0 0.097657 0.039063 0.19141 0.10938 0.25781 0.066407 0.066406 0.15625 0.10938 0.25781 0.10938h3.75v0.003906c0.53906 0 1.0273 0.36719 1.1602 0.91406 0.23047 0.95703 0.53125 1.8867 0.90234 2.7812 0.007812 0.019531 0.015625 0.039062 0.023437 0.058593 0.375 0.90234 0.8125 1.7695 1.3125 2.5938 0.33203 0.46875 0.28906 1.1211-0.12891 1.5391l-2.6523 2.6523c-0.070312 0.070312-0.10547 0.16406-0.10547 0.25781s0.035157 0.1875 0.10547 0.25781l4.6133 4.6133c0.070313 0.070312 0.16406 0.10547 0.25781 0.10547s0.1875-0.035156 0.25781-0.10547l2.6523-2.6523 0.003907 0.003906c0.38281-0.38281 0.98828-0.46875 1.4688-0.17578 0.85156 0.51953 1.7422 0.97656 2.6602 1.3555 0.88672 0.36719 1.8047 0.67188 2.75 0.90234 0.57422 0.089843 1.0117 0.58594 1.0117 1.1836v3.75c0 0.097657 0.039063 0.19141 0.10938 0.25781 0.066406 0.066406 0.15625 0.10938 0.25781 0.10938h6.5234c0.097656 0 0.19141-0.039063 0.25781-0.10938 0.066406-0.066406 0.10938-0.15625 0.10938-0.25781v-3.75h0.003906c0-0.53906 0.36719-1.0273 0.91406-1.1602 0.97266-0.23438 1.9219-0.54688 2.8398-0.92578 0.90234-0.375 1.7695-0.8125 2.5938-1.3125 0.46875-0.33203 1.1211-0.28906 1.5391 0.13281l2.6523 2.6523c0.070312 0.070312 0.16406 0.10547 0.25781 0.10547s0.1875-0.035157 0.25781-0.10547zm6.3047-2.918-4.6133 4.6133c-0.53906 0.53906-1.2461 0.80859-1.9531 0.80859-0.70703 0-1.4141-0.26953-1.9531-0.80859l-2.0039-2.0039c-0.70312 0.39062-1.4297 0.73828-2.1719 1.0469-0.73438 0.30469-1.4961 0.57031-2.2773 0.79688v2.832c0 0.76172-0.30859 1.4492-0.80859 1.9492s-1.1914 0.80859-1.9492 0.80859h-6.5234c-0.76172 0-1.4492-0.30859-1.9492-0.80859s-0.80859-1.1914-0.80859-1.9492v-2.832c-0.77734-0.22266-1.5352-0.48828-2.2734-0.79688-0.75-0.3125-1.4766-0.66016-2.1797-1.0469l-2.0039 2.0039c-0.53906 0.53906-1.2461 0.80859-1.9531 0.80859-0.70703 0-1.4141-0.26953-1.9531-0.80859l-4.6133-4.6133c-0.53906-0.53906-0.80859-1.2461-0.80859-1.9531 0-0.70703 0.26953-1.4141 0.80859-1.9531l2.0039-2.0039c-0.39063-0.70312-0.73828-1.4297-1.0469-2.1719-0.007812-0.019531-0.015624-0.042969-0.023437-0.0625-0.29688-0.71875-0.55469-1.4609-0.77344-2.2148h-2.832c-0.76172 0-1.4492-0.30859-1.9492-0.80859s-0.80859-1.1914-0.80859-1.9492v-6.5234c0-0.76172 0.30859-1.4492 0.80859-1.9492s1.1914-0.80859 1.9492-0.80859h2.832c0.22266-0.77734 0.48828-1.5352 0.79687-2.2734l0.003907-0.003906h-0.003907c0.30859-0.74609 0.66016-1.4727 1.0469-2.1758l-2.0039-2.0039c-0.53906-0.53906-0.80859-1.2461-0.80859-1.9531 0-0.70703 0.26953-1.4141 0.80859-1.9531l4.6133-4.6133c0.53906-0.53906 1.2461-0.80859 1.9531-0.80859 0.70703 0 1.4141 0.26953 1.9531 0.80859l2.0039 2.0039c0.70312-0.39063 1.4297-0.73828 2.1719-1.0469 0.019531-0.007812 0.042968-0.015624 0.0625-0.023437 0.71875-0.29688 1.4609-0.55469 2.2148-0.77344v-2.832c0-0.76172 0.30859-1.4492 0.80859-1.9492s1.1914-0.80859 1.9492-0.80859h6.5234c0.76172 0 1.4492 0.30859 1.9492 0.80859s0.80859 1.1914 0.80859 1.9492v2.832c0.77734 0.22266 1.5352 0.48828 2.2734 0.79687l0.003906 0.003907v-0.003907c0.74609 0.30859 1.4727 0.66016 2.1758 1.0469l2.0039-2.0039c0.53906-0.53906 1.2461-0.80859 1.9531-0.80859 0.70703 0 1.4141 0.26953 1.9531 0.80859l4.6133 4.6133c0.53906 0.53906 0.80859 1.2461 0.80859 1.9531 0 0.70703-0.26953 1.4141-0.80859 1.9531l-2.0039 2.0039c0.39062 0.70312 0.73828 1.4297 1.0469 2.1719 0.007813 0.019531 0.015625 0.042968 0.023438 0.0625 0.29688 0.71875 0.55469 1.4609 0.77344 2.2148h2.832c0.76172 0 1.4492 0.30859 1.9492 0.80859s0.80859 1.1914 0.80859 1.9492v6.5234c0 0.76172-0.30859 1.4492-0.80859 1.9492s-1.1914 0.80859-1.9492 0.80859h-2.832c-0.22266 0.77734-0.48828 1.5352-0.79688 2.2734-0.3125 0.75-0.66016 1.4766-1.0469 2.1797l2.0039 2.0039c0.53906 0.53906 0.80859 1.2461 0.80859 1.9531 0 0.70703-0.26953 1.4141-0.80859 1.9531zm-20.992-30.062c3.7773 0 7.1992 1.5312 9.6758 4.0078 2.4766 2.4766 4.0078 5.8984 4.0078 9.6758s-1.5312 7.1992-4.0078 9.6758c-2.4766 2.4766-5.8984 4.0078-9.6758 4.0078s-7.1992-1.5312-9.6758-4.0078c-2.4766-2.4766-4.0078-5.8984-4.0078-9.6758s1.5312-7.1992 4.0078-9.6758c2.4766-2.4766 5.8984-4.0078 9.6758-4.0078zm-21.516 54.031c0.57812-2.2109 1.0039-3.8438 1.0547-4.2734 0.14453-1.2578 0.17187-2.4805-0.011719-3.8008-0.17969-1.3008-0.5625-2.6797-1.2305-4.2578-1.0781-2.5469-2.8711-5.5625-4.7461-8.7188l-1.1289-1.8984c-1.1055-1.875-2.1914-3.7695-3.1367-5.7305-0.92188-1.918-1.6992-3.8828-2.1992-5.918-0.48047-1.9609-0.71094-4-0.73437-6.0703-0.027344-2.2422 0.19141-4.5352 0.59375-6.8008 0.67578-3.7969 2.1055-7.1641 4.0898-10.102 3.9805-5.8867 10.211-10.051 17.105-12.453 6.9297-2.4141 14.52-3.0469 21.184-1.8633 3.9453 0.69922 7.5586 2.0391 10.492 4.0273 2.1953 1.4844 4.5352 3.5586 6.5156 5.8828 1.7422 2.043 3.2031 4.2656 4.0312 6.4336 0.46094 1.2031 0.78906 2.4961 1.0195 3.7852 0.27734 1.5664 0.41016 3.1016 0.44531 4.457 0.03125 1.2422-0.019531 2.375-0.10156 3.375-0.085938 1.0078-0.19922 1.8438-0.29688 2.5273l-0.050781 0.35156c-0.1875 1.2969-0.30469 2.1016-0.23047 3.0586 0.039063 0.54688 0.14453 1.125 0.375 1.7773 0.21875 0.62109 0.55469 1.3047 1.0586 2.0898 0.47656 0.73828 1.1172 1.5781 1.8242 2.4492 0.68359 0.83984 1.4375 1.7148 2.1602 2.543l0.42578 0.48438c1.2188 1.3867 2.3125 2.6328 2.9062 3.6562 0.29297 0.50391 0.46484 0.94531 0.53516 1.3438 0.066406 0.36328 0.054687 0.70312-0.015625 1.0234-0.070313 0.32031-0.19531 0.60937-0.37109 0.84375-0.15234 0.19531-0.35156 0.35937-0.60547 0.47656-0.53516 0.24219-1.3828 0.29688-2.0312 0.33984-0.14062 0.007812-0.26953 0.015625-0.51172 0.039062-0.60937 0.054688-1.0391 0.16406-1.4141 0.46875-0.47266 0.38281-0.65234 0.85547-0.65234 1.5586 0 0.55859 0.13672 1.3672 0.26562 2.1367 0.03125 0.17969 0.058594 0.35547 0.11328 0.69141 0.054688 0.35938 0.09375 0.66016 0.074219 0.86328-0.003906 0.039063 0.023438 0.03125 0.011719 0.042969-0.0625 0.058594-0.22266 0.14844-0.38672 0.24219-0.62891 0.35547-1.2812 0.72656-1.5312 1.6211-0.23047 0.83203 0.085938 1.6797 0.37891 2.4766 0.09375 0.25391 0.18359 0.49609 0.22656 0.66406 0.042969 0.16016 0.054688 0.25781 0.039062 0.30469-0.011718 0.035156-0.070312 0.10156-0.16406 0.1875-0.11719 0.10938-0.26172 0.21875-0.41016 0.33594-0.53516 0.41016-1.1445 0.87891-1.5742 1.6484-0.30469 0.54688-0.47266 1.1797-0.51953 1.8828-0.042969 0.63281 0.007812 1.3242 0.13672 2.0703 0.042969 0.25781 0.10938 0.56641 0.17578 0.88672 0.19922 0.95703 0.41406 1.9844 0.17969 2.7344-0.13281 0.42578-0.43359 0.83594-0.87891 1.2031-0.51172 0.42187-1.1914 0.77734-2.0234 1.0508-0.85547 0.27734-1.8477 0.46094-2.9102 0.5625-1.1836 0.11328-2.4531 0.12891-3.7148 0.058593-1.1992-0.066406-2.4062-0.21094-3.4844-0.37109-1.0508-0.15625-1.9922-0.33594-2.668-0.47266l-0.050782-0.011718c-0.25-0.050782-0.46484-0.09375-0.73828-0.12109-1.7617-0.17969-2.2227 0.36328-2.5625 3.7266l-0.011719 0.125c-0.25391 2.4883-0.47266 4.6562-0.62891 7.0977l-36.742-0.003907c0.65625-3.5547 2.0781-9 3.0547-12.742zm-5.6328 13.684c0.51172-3.5195 2.2031-10 3.3203-14.281 0.55078-2.1016 0.95312-3.6562 0.98828-3.9453 0.125-1.0781 0.14844-2.1094-0.003906-3.1992-0.15234-1.1094-0.48438-2.293-1.0625-3.6602-1-2.3594-2.7617-5.3242-4.6094-8.4297-0.22266-0.37109-0.4375-0.73828-1.1289-1.9062-1.1406-1.9375-2.2656-3.8945-3.2305-5.9023-0.98828-2.0508-1.8203-4.168-2.3672-6.3945-0.52344-2.1367-0.77344-4.3555-0.80078-6.6016-0.027344-2.4258 0.19922-4.8633 0.62109-7.2383 0.73828-4.1445 2.2969-7.8242 4.4648-11.027 4.2891-6.3398 10.949-10.809 18.305-13.371 7.3203-2.5508 15.336-3.2188 22.383-1.9688 4.2734 0.75781 8.1992 2.2227 11.418 4.3984 2.3555 1.5938 4.8672 3.8203 6.9961 6.3125 1.9141 2.2383 3.5234 4.7031 4.4531 7.1328 0.51562 1.3516 0.88672 2.7969 1.1406 4.2266 0.29688 1.6523 0.4375 3.3164 0.47656 4.8125 0.035156 1.3867-0.015625 2.5938-0.10156 3.6289-0.085937 1.0273-0.21094 1.9258-0.31641 2.668l-0.050781 0.35156c-0.16406 1.1367-0.26562 1.8398-0.21094 2.543 0.027344 0.35938 0.09375 0.73438 0.24219 1.1602 0.16016 0.45703 0.41797 0.97656 0.81641 1.5938 0.42969 0.66797 1.0156 1.4375 1.6641 2.2344 0.67187 0.82422 1.4023 1.6758 2.1055 2.4805l0.42578 0.48438c1.3008 1.4844 2.4688 2.8125 3.1797 4.0312 0.43359 0.74219 0.69531 1.4453 0.81641 2.1133 0.13281 0.70312 0.10938 1.3516-0.023437 1.9609-0.14062 0.64453-0.41406 1.2578-0.82031 1.7852-0.39062 0.50781-0.89453 0.92578-1.5156 1.2031-0.92969 0.41797-2.0273 0.48828-2.8633 0.54297l-0.3125 0.019532c0.039063 0.39062 0.125 0.90625 0.20703 1.4062 0.050782 0.30859 0.10547 0.61719 0.12109 0.73047 0.078125 0.52344 0.13281 0.98438 0.09375 1.4258-0.054688 0.60937-0.26172 1.125-0.72656 1.5664-0.26172 0.25-0.55859 0.41797-0.86328 0.58984-0.20312 0.11328-0.38281 0.12891-0.39844 0.17969-0.023438 0.082031 0.15625 0.5625 0.32422 1.0156 0.10937 0.29297 0.21484 0.57812 0.29297 0.87891 0.16016 0.60938 0.16016 1.1289 0.011719 1.6133-0.15234 0.49609-0.43359 0.88672-0.83984 1.2539-0.16406 0.14844-0.35938 0.30078-0.5625 0.45312-0.35547 0.27344-0.75781 0.58594-0.94531 0.91797-0.125 0.22656-0.19531 0.52344-0.22266 0.88281-0.03125 0.43359 0.011719 0.94141 0.10938 1.5117 0.050781 0.28906 0.10156 0.54297 0.15625 0.80078 0.25781 1.2461 0.53906 2.5898 0.125 3.9219-0.27734 0.88672-0.83594 1.6836-1.6367 2.3438-0.73828 0.60938-1.6875 1.1133-2.8086 1.4805-1.0156 0.33203-2.1836 0.54688-3.4219 0.66797-1.3125 0.125-2.6992 0.14453-4.0586 0.070313-1.3164-0.070313-2.5938-0.22266-3.7109-0.39062-1.1445-0.17188-2.1094-0.35547-2.7891-0.49219l-0.050781-0.011718c-0.22656-0.046875-0.42188-0.085938-0.50391-0.09375-0.16797-0.015625 0.18359 0.25391 0.046875 1.5859l-0.011719 0.125c-0.28516 2.8281-0.53125 5.2383-0.6875 8.1211-0.03125 0.64062-0.5625 1.1328-1.1914 1.1328v0.003906h-39.285c-0.66016 0-1.1992-0.53516-1.1992-1.1992 0-0.085937 0.007812-0.17188 0.027344-0.25391zm21.496-44.258c-0.85547-0.49609-1.6367-1.0977-2.332-1.793-0.5-0.5-0.95312-1.0469-1.3516-1.6328l2.4297-2.5312c0.33203-0.34375 0.41406-0.83984 0.25391-1.2578-0.45312-1.2656-0.54688-2.6367-0.26953-3.9453 0.26953-1.2695 0.88281-2.4844 1.8477-3.4922 0.96484-1.0078 2.1562-1.6719 3.418-1.9922 0.625-0.16016 1.2656-0.23438 1.9062-0.22266l-3.7227 3.8828c-0.32031 0.33203-0.41016 0.80469-0.26953 1.2148l1.1797 4.0586c0.12109 0.42578 0.46094 0.72656 0.85938 0.82812l4.1602 1.0234c0.44141 0.10937 0.88672-0.042969 1.1719-0.35938l3.6992-3.8594c0.035156 0.64062-0.011719 1.2891-0.14453 1.9219-0.26953 1.2695-0.88281 2.4844-1.8477 3.4922-0.96484 1.0078-2.1562 1.6719-3.418 1.9922-1.3047 0.33203-2.6836 0.29687-3.9766-0.11328-0.47656-0.14844-0.97656 0.011719-1.2773 0.375l-2.3203 2.418zm-4.8594-5.6484c-0.50391-1.2773-0.77734-2.668-0.77734-4.125 0-3.1172 1.2617-5.9375 3.3047-7.9805 2.043-2.043 4.8633-3.3047 7.9805-3.3047 3.1172 0 5.9375 1.2617 7.9805 3.3047 2.043 2.043 3.3047 4.8633 3.3047 7.9805s-1.2617 5.9375-3.3047 7.9805c-2.043 2.043-4.8633 3.3047-7.9805 3.3047-1.1523 0-2.2695-0.17188-3.3164-0.49609l1.2734-1.3281c1.5 0.34766 3.0664 0.33203 4.5547-0.050781 1.6758-0.42578 3.2617-1.3164 4.5508-2.6562 1.2891-1.3438 2.1094-2.9648 2.4688-4.6602 0.36719-1.7383 0.24219-3.5586-0.35938-5.2422-0.058594-0.17969-0.16016-0.34375-0.30469-0.48438-0.47656-0.45703-1.2305-0.44141-1.6875 0.03125l-4.8125 5.0195-2.8203-0.69141-0.80859-2.7852 4.7578-4.9609c0.15234-0.13672 0.26953-0.31641 0.33594-0.52344 0.19922-0.62891-0.15234-1.3047-0.78125-1.5039-1.7148-0.54297-3.5508-0.59375-5.2852-0.15234-1.6758 0.42578-3.2617 1.3164-4.5508 2.6562-1.2891 1.3438-2.1094 2.9648-2.4688 4.6602-0.31641 1.5039-0.26953 3.0664 0.14063 4.5508l-1.3906 1.4492z" fill="#ea5b0a" fill-rule="evenodd"></path></svg>