<svg xmlns="http://www.w3.org/2000/svg" width="100pt" height="100pt" viewBox="0 0 100 100"><path d="m23.293 34.648h2.8711c0.55469 0 1.1328 0.35547 1.2812 0.78906 0.14844 0.43359 0.35547 1.8203-0.039062 2.2148l-2.0312 2.0312c-0.39453 0.39453-0.42188 1.0625-0.066406 1.4922l2.3906 2.3906c0.19922 0.16797 0.45312 0.25 0.70703 0.25 0.28906 0 0.57422-0.10547 0.78516-0.31641l2.0312-2.0312c0.27734-0.27734 0.6875-0.4375 1.0469-0.4375 0.14844 0 0.28906 0.027344 0.41016 0.085938 0.40625 0.19922 1.5469 1.0391 1.5469 1.5977v2.8711c0 0.55469 0.44922 1.0742 1 1.1484 0 0 0.77344 0.10547 1.6953 0.10547s1.6953-0.10547 1.6953-0.10547c0.55078-0.074219 1-0.59375 1-1.1484v-2.8711c0-0.55469 0.35547-1.1328 0.78906-1.2812 0.24609-0.085938 0.80859-0.1875 1.3164-0.1875 0.38281 0 0.73438 0.058594 0.90234 0.22656l2.0312 2.0312c0.21094 0.21094 0.49609 0.31641 0.78516 0.31641 0.25391 0 0.50781-0.082031 0.70703-0.25l1.3672-1.3672c0.26172-0.45312 0.625-0.83984 1.0703-1.1133 0.023437-0.015625 0.046874-0.039063 0.070312-0.054688-0.003906-0.019531-0.003906-0.042968-0.007812-0.0625-0.085938-0.35547-0.09375-0.72656-0.050782-1.0898-0.039062-0.066406-0.074218-0.13672-0.12891-0.19531l-2.0312-2.0312c-0.39453-0.39453-0.55078-1.0469-0.35156-1.457 0.19922-0.40625 1.0391-1.5469 1.5977-1.5469h2.875c0.55859 0 1.0742-0.44922 1.1484-1 0 0 0.10547-0.77344 0.10547-1.6953 0-0.10156-0.003906-0.20312-0.003906-0.30078-0.41016-0.65625-0.60938-1.4062-0.59375-2.1562-0.19141-0.14062-0.41797-0.23438-0.66016-0.23438h-2.8711c-0.55469 0-1.1328-0.35547-1.2812-0.78906-0.14844-0.43359-0.35547-1.8242 0.039062-2.2188l2.0312-2.0312c0.12109-0.12109 0.19531-0.27344 0.24609-0.43359-0.46875-0.51172-0.80469-1.1367-0.95312-1.832l-1.6172-1.6172c-0.19922-0.16797-0.45313-0.25-0.70703-0.25-0.28906 0-0.57812 0.10547-0.78516 0.31641l-2.0312 2.0312c-0.27734 0.27734-0.6875 0.4375-1.0469 0.4375-0.14844 0-0.28906-0.027344-0.41016-0.085937-0.40625-0.19922-1.5508-1.0391-1.5508-1.5977v-2.8711c0-0.55469-0.44922-1.0742-1-1.1484 0 0-0.77344-0.10547-1.6953-0.10547s-1.6953 0.10547-1.6953 0.10547c-0.55078 0.074219-1 0.59375-1 1.1484v2.8711c0 0.55469-0.35547 1.1328-0.78906 1.2812-0.24609 0.085938-0.80859 0.1875-1.3125 0.1875-0.38281 0-0.73438-0.058593-0.90234-0.22656l-2.0312-2.0312c-0.21094-0.21094-0.49609-0.31641-0.78516-0.31641-0.25391 0-0.50781 0.082031-0.70703 0.24609l-2.3906 2.3906c-0.35547 0.42578-0.32812 1.0977 0.066406 1.4922l2.0312 2.0312c0.39453 0.39453 0.55078 1.0508 0.35156 1.457-0.19922 0.40625-1.0391 1.5508-1.5977 1.5508h-2.8711c-0.55469 0-1.0742 0.44922-1.1484 1 0 0-0.10547 0.77344-0.10547 1.6953s0.10547 1.6953 0.10547 1.6953c0.078125 0.55078 0.59375 1 1.1523 1zm13.633-8.1445c3.0078 0 5.4492 2.4414 5.4492 5.4492s-2.4414 5.4492-5.4492 5.4492c-3.0117 0-5.4492-2.4414-5.4492-5.4492-0.003906-3.0117 2.4375-5.4492 5.4492-5.4492z"></path><path d="m62.477 45.875h1.4414c0.28125 0 0.53906-0.22656 0.57812-0.50391 0 0 0.054687-0.39062 0.054687-0.85156 0-0.46094-0.054687-0.85156-0.054687-0.85156-0.039063-0.27734-0.29688-0.50391-0.57812-0.50391h-1.4414c-0.27734 0-0.57031-0.17969-0.64453-0.39453-0.074219-0.21875-0.17969-0.91797 0.019531-1.1133l1.0195-1.0195c0.19531-0.19922 0.21094-0.53516 0.03125-0.75l-1.1992-1.1992c-0.10156-0.082031-0.23047-0.125-0.35547-0.125-0.14453 0-0.28906 0.054688-0.39453 0.16016l-1.0195 1.0195c-0.14062 0.14062-0.34766 0.21875-0.52344 0.21875-0.074218 0-0.14453-0.015626-0.20703-0.042969-0.20312-0.10156-0.77734-0.52344-0.77734-0.80078v-1.4453c0-0.27734-0.22656-0.53906-0.50391-0.57812 0 0-0.39062-0.054688-0.85156-0.054688-0.46484 0-0.85156 0.054688-0.85156 0.054688-0.27734 0.039062-0.50391 0.29688-0.50391 0.57812v1.4453c0 0.27734-0.17969 0.57031-0.39453 0.64453-0.125 0.042969-0.40625 0.09375-0.66016 0.09375-0.19141 0-0.36719-0.03125-0.45312-0.11328l-1.0195-1.0195c-0.10547-0.10547-0.24609-0.15625-0.39453-0.15625-0.12891 0-0.25391 0.039063-0.35547 0.125l-1.1992 1.1992c-0.17969 0.21484-0.16406 0.55078 0.03125 0.75l1.0195 1.0195c0.19531 0.19922 0.27734 0.52734 0.17578 0.73047-0.097656 0.20312-0.51953 0.77734-0.80078 0.77734h-1.4453c-0.27734 0-0.53906 0.22656-0.57812 0.50391 0 0-0.054687 0.39062-0.054687 0.85156 0 0.46484 0.054687 0.85156 0.054687 0.85156 0.039063 0.27734 0.30078 0.50391 0.57812 0.50391h1.4453c0.27734 0 0.56641 0.17969 0.64453 0.39453 0.074218 0.21875 0.17969 0.91406-0.019532 1.1133l-1.0195 1.0195c-0.19531 0.19922-0.21094 0.53516-0.03125 0.75l1.1992 1.1992c0.10156 0.085937 0.23047 0.125 0.35547 0.125 0.14453 0 0.28906-0.054688 0.39453-0.16016l1.0195-1.0195c0.14062-0.14062 0.34375-0.21875 0.52344-0.21875 0.074219 0 0.14453 0.015625 0.20703 0.042969 0.20312 0.10156 0.77734 0.52344 0.77734 0.80078v1.4414c0 0.27734 0.22656 0.53906 0.50391 0.57812 0 0 0.39062 0.054688 0.85156 0.054688 0.46484 0 0.85156-0.054688 0.85156-0.054688 0.27734-0.039062 0.50391-0.30078 0.50391-0.57812v-1.4414c0-0.27734 0.17969-0.57031 0.39453-0.64453 0.125-0.042969 0.40625-0.09375 0.66016-0.09375 0.19141 0 0.36719 0.027344 0.45312 0.11328l1.0195 1.0195c0.10547 0.10547 0.25 0.16016 0.39453 0.16016 0.12891 0 0.25391-0.039063 0.35547-0.125l1.1992-1.1992c0.17969-0.21484 0.16406-0.55078-0.03125-0.75l-1.0195-1.0195c-0.19531-0.19922-0.27734-0.52734-0.17969-0.73047 0.10156-0.20703 0.52344-0.78125 0.80469-0.78125zm-5.4062 1.3867c-1.5156 0-2.7383-1.2266-2.7383-2.7383 0-1.5117 1.2266-2.7383 2.7383-2.7383 1.5117 0 2.7344 1.2266 2.7344 2.7383 0.003906 1.5078-1.2227 2.7383-2.7344 2.7383z"></path><path d="m51.621 22.551h3.4766c0.67188 0 1.3711 0.42969 1.5547 0.95312 0.18359 0.52344 0.42969 2.2031-0.046875 2.6797l-2.4531 2.457c-0.47656 0.47656-0.51172 1.2852-0.082032 1.8047l2.8906 2.8906c0.24219 0.19922 0.54687 0.30078 0.85547 0.30078 0.35156 0 0.69531-0.12891 0.94922-0.38281l2.457-2.457c0.33594-0.33594 0.82812-0.53125 1.2656-0.53125 0.17969 0 0.35156 0.03125 0.49609 0.10547 0.49219 0.24219 1.8711 1.2617 1.8711 1.9336v3.4766c0 0.67188 0.54688 1.2969 1.2148 1.3906 0 0 0.9375 0.12891 2.0508 0.12891 1.1133 0 2.0508-0.12891 2.0508-0.12891 0.66797-0.089844 1.2109-0.71875 1.2109-1.3906v-3.4766c0-0.67188 0.42969-1.3711 0.95313-1.5508 0.30078-0.10156 0.98047-0.23047 1.5938-0.23047 0.46094 0 0.88672 0.070312 1.0898 0.27344l2.457 2.457c0.25391 0.25391 0.60547 0.38281 0.94922 0.38281 0.30859 0 0.61328-0.10156 0.85547-0.30078l2.8906-2.8906c0.42969-0.51562 0.39453-1.3281-0.082031-1.8047l-2.457-2.457c-0.47656-0.47656-0.66797-1.2656-0.42578-1.7617 0.23828-0.49219 1.2617-1.875 1.9336-1.875h3.4766c0.67578 0 1.3008-0.54688 1.3906-1.2109 0 0 0.12891-0.9375 0.12891-2.0508 0-1.1133-0.12891-2.0508-0.12891-2.0508-0.09375-0.66797-0.71875-1.2109-1.3906-1.2109h-3.4766c-0.67188 0-1.3711-0.42969-1.5547-0.95313-0.17969-0.52344-0.42969-2.207 0.046874-2.6836l2.457-2.457c0.47656-0.47656 0.51172-1.2891 0.082031-1.8047l-2.8906-2.8906c-0.23828-0.19922-0.54688-0.30078-0.85547-0.30078-0.34766 0-0.69531 0.12891-0.94922 0.38281l-2.457 2.457c-0.33594 0.33594-0.82812 0.53125-1.2656 0.53125-0.17969 0-0.35156-0.035157-0.49609-0.10547-0.49609-0.24219-1.8789-1.2578-1.8789-1.9336v-3.4727c0-0.67188-0.54688-1.2969-1.2109-1.3906 0 0-0.9375-0.12891-2.0508-0.12891-1.1133 0-2.0508 0.12891-2.0508 0.12891-0.66797 0.09375-1.2148 0.71875-1.2148 1.3906v3.4766c0 0.67188-0.42969 1.3711-0.95312 1.5547-0.30078 0.10547-0.97656 0.23047-1.5898 0.23047-0.46094 0-0.88672-0.070313-1.0938-0.27344l-2.457-2.457c-0.25391-0.25391-0.60547-0.38281-0.94922-0.38281-0.30859 0-0.60938 0.097656-0.85547 0.30078l-2.8906 2.8906c-0.43359 0.51563-0.39453 1.3281 0.078125 1.8047l2.457 2.457c0.47656 0.47656 0.66797 1.2695 0.42969 1.7617-0.24219 0.49219-1.2617 1.875-1.9336 1.875h-3.4766c-0.67578 0-1.2969 0.54688-1.3906 1.2109 0 0-0.12891 0.9375-0.12891 2.0508s0.12891 2.0508 0.12891 2.0508c0.097657 0.66016 0.72266 1.207 1.3945 1.207zm16.492-9.8555c3.6406 0 6.5938 2.9531 6.5938 6.5938 0 3.6406-2.9531 6.5938-6.5938 6.5938s-6.5938-2.9531-6.5938-6.5938c0-3.6445 2.957-6.5938 6.5938-6.5938z"></path><path d="m87.121 51.051-7.6328-9.582c-0.050781-0.0625-0.10938-0.11719-0.16797-0.17188-0.019531-0.019531-0.035156-0.042969-0.0625-0.0625l-5.4297-4.625c-0.26172 1.1562-1.043 2.1562-2.0898 2.6953l3.7852 3.2266-25.09 21.375-20.828-17.754-5.5664-4.7422-0.20703-0.17578c-0.33203-0.28125-0.75391-0.41797-1.1875-0.39844-0.027343 0-0.054687-0.003907-0.082031 0-0.007812 0-0.015625 0.003906-0.023438 0.003906-0.023437 0.003906-0.042968 0.007812-0.0625 0.011718-0.058593 0.007813-0.11719 0.019532-0.17187 0.035157-0.050782 0.011719-0.10156 0.027343-0.15234 0.046875-0.058594 0.019531-0.10938 0.042968-0.16406 0.070312-0.046875 0.023438-0.09375 0.046875-0.14062 0.074219-0.050781 0.03125-0.097656 0.0625-0.14453 0.097656-0.042969 0.03125-0.085937 0.066407-0.125 0.10156l-0.003906 0.003906c-0.039063 0.039062-0.078125 0.078125-0.11719 0.12109-0.019531 0.023437-0.046875 0.042968-0.066406 0.066406l-7.6328 9.582c-0.57031 0.71875-0.47266 1.7656 0.22656 2.3594l7.0312 5.9922v14.004c0 0.49609 0.21875 0.97266 0.59766 1.2969l27.719 23.613c0.027344 0.019532 0.054688 0.039063 0.082031 0.058594 0.039063 0.027344 0.078126 0.058594 0.11719 0.082031 0.050781 0.03125 0.10547 0.0625 0.15625 0.085938 0.039062 0.019531 0.082031 0.039062 0.125 0.058593 0.0625 0.023438 0.125 0.039063 0.1875 0.058594 0.039062 0.011719 0.074219 0.019532 0.11328 0.027344 0.10547 0.019531 0.21094 0.03125 0.32031 0.03125 0.10547 0 0.21484-0.015625 0.32031-0.03125 0.039063-0.007812 0.074219-0.019531 0.11328-0.027344 0.066406-0.019531 0.12891-0.035156 0.19141-0.058594 0.042968-0.019531 0.082031-0.035156 0.12109-0.058593 0.054687-0.027344 0.10547-0.054688 0.15625-0.085938 0.039062-0.023437 0.078124-0.054687 0.11719-0.082031 0.027344-0.019531 0.058594-0.035156 0.085937-0.058594l27.719-23.613c0.38281-0.32422 0.60156-0.80078 0.60156-1.2969v-14.008l7.0312-5.9922c0.70703-0.59375 0.80469-1.6367 0.23047-2.3555zm-69.668 0.83203 5.5078-6.9141 25.117 21.402-5.5078 6.9141zm31.281 41.445-24.309-20.711v-10.312l17.273 14.719c0.30859 0.26562 0.70312 0.40625 1.1055 0.40625 0.054687 0 0.10937-0.003907 0.16406-0.007813 0.46094-0.046875 0.88281-0.27344 1.168-0.63672l4.5977-5.7695zm27.719-20.711-24.309 20.711 0.003907-22.309 4.5938 5.7695c0.28516 0.35938 0.71094 0.58984 1.168 0.63672 0.054688 0.007813 0.10938 0.007813 0.16406 0.007813 0.40234 0 0.79688-0.14453 1.1055-0.40625l17.273-14.719zm-18.145 0.66797-5.5078-6.9141 7.1055-6.0508 18.02-15.352 5.5078 6.9141z"></path></svg>