<svg xmlns="http://www.w3.org/2000/svg" width="512pt" height="512pt" viewBox="0 0 512 512"><path d="m512 256c0 141.39-114.61 256-256 256s-256-114.61-256-256 114.61-256 256-256 256 114.61 256 256" fill="#ea5b0a"></path><path d="m239.85 342.48h23.766c6.1953-12.887 20.746-19.496 34.535-15.68 13.793 3.8047 22.875 16.941 21.59 31.188-1.2969 14.258-12.594 25.531-26.852 26.801-14.246 1.2578-27.371-7.8477-31.148-21.652h-20c-3.5391 12.871-15.242 21.789-28.59 21.766-13.34-0.011719-25.027-8.9531-28.539-21.828-18.578-1.082-33.465-15.82-34.734-34.398-1.2852-18.566 11.438-35.203 29.699-38.832l-27.961-88.156-44.574 0.15234-0.011719 0.011718c-1.9766 0-3.5898-1.6133-3.5898-3.6016v-12.785c0-0.94531 0.36719-1.8516 1.0312-2.5312 0.67969-0.66797 1.5859-1.0586 2.5312-1.0586 6.2344 0 12.531-0.050782 18.828-0.089844 14.082-0.0625 28.176-0.125 37.695-0.125v0.011719c1.6992 0 3.1602 1.1719 3.5273 2.8203l6.5234 20.555h50.09c0.85547-0.62891 1.625-1.3711 2.293-2.2148 0.89453-1.1445 1.5742-2.4453 2.0391-3.8281 0.61719-1.7891 1.2734-3.5391 1.9883-5.2656 0.70703-1.7148 1.4844-3.4258 2.3164-5.125 1.8398-3.5273 1.8125-7.7461-0.074219-11.246l-0.88281-1.7383c-2.418-4.7227-1.5117-10.465 2.2539-14.219l10.441-10.418h-0.011719c3.7422-3.7773 9.4961-4.6836 14.219-2.2539l1.7266 0.86719c1.7266 0.91797 3.6523 1.4102 5.6172 1.4492 1.9648-0.011719 3.8906-0.48047 5.6562-1.3594 1.6992-0.83203 3.3867-1.625 5.0898-2.332 1.6992-0.71875 3.4766-1.3594 5.2656-1.9766 3.793-1.1836 6.75-4.1836 7.8984-8l0.59375-1.8398c1.625-5.0625 6.3359-8.5 11.664-8.4648h14.75-0.011719c5.3164-0.023437 10.039 3.4023 11.652 8.4648l0.59375 1.8398c1.1445 3.8047 4.1055 6.8008 7.9102 8 1.7891 0.61719 3.5391 1.2578 5.2656 1.9766s3.4258 1.5 5.0898 2.332c1.75 0.88281 3.6914 1.3477 5.6562 1.3594 1.9531-0.039062 3.8789-0.52734 5.6172-1.4492l1.7266-0.86719h-0.011719c4.7227-2.4453 10.48-1.5234 14.219 2.2422l10.418 10.418v0.011719c3.7773 3.7422 4.6992 9.4844 2.2656 14.219l-0.88281 1.7383c-0.91797 1.7266-1.4102 3.6406-1.4375 5.5938 0 1.9648 0.46484 3.9062 1.3594 5.6562 0.83203 1.6992 1.5977 3.3867 2.3164 5.125 0.71875 1.7266 1.3711 3.4766 1.9766 5.2656 1.2227 3.7773 4.2188 6.7266 8.0117 7.8984l1.8398 0.59375c5.0742 1.6133 8.5156 6.3359 8.4648 11.652v14.738c0.050781 5.3164-3.3867 10.039-8.4648 11.637l-1.8398 0.59375v0.011718c-3.8047 1.1602-6.7891 4.1055-8.0117 7.8984-0.59375 1.7891-1.2578 3.5391-1.9766 5.2656-0.71875 1.7266-1.4844 3.4258-2.3164 5.125v-0.011719c-0.89453 1.7617-1.3594 3.6914-1.3594 5.6562 0.023438 1.9648 0.51562 3.8789 1.4375 5.6055l0.88281 1.7383c2.4453 4.7344 1.5234 10.492-2.2539 14.234l-10.418 10.43c-3.7422 3.7773-9.4961 4.6836-14.219 2.2422l-1.7266-0.86719c-1.7266-0.90625-3.6523-1.4102-5.6172-1.4375-1.9648 0.011719-3.8906 0.46484-5.6562 1.3477-1.6992 0.83203-3.3867 1.6133-5.0898 2.332-1.6992 0.71875-3.4766 1.3594-5.2656 1.9766h0.011719c-3.8047 1.1953-6.7656 4.1953-7.9102 8.0117l-0.59375 1.8398c-1.6133 5.0625-6.3359 8.4883-11.652 8.4648h-14.75c-5.3164 0.023437-10.039-3.4023-11.652-8.4648l-0.59375-1.8398c-1.1445-3.8164-4.1055-6.8125-7.9102-8.0117-1.7891-0.61719-3.5391-1.2578-5.2656-1.9766-0.83203-0.33984-1.6484-0.71875-2.4805-1.0703h-1.625 0.011719c-0.44141 0.96875-1.0586 1.8633-1.8125 2.6055-1.6484 1.6641-3.8906 2.5938-6.2227 2.5938h-77.449c-9.0312-0.074218-16.398 7.1797-16.477 16.211-0.0625 9.0195 7.1914 16.398 16.223 16.461 4.1562-8.6406 12.254-14.723 21.715-16.336 9.4609-1.6133 19.105 1.4727 25.883 8.25 2.3789 2.3555 4.332 5.0898 5.7812 8.1094zm50.434 0h0.011719c6.0977 0.023438 11.336 4.3594 12.508 10.34 1.1719 5.9844-2.0547 11.965-7.6953 14.281-5.6289 2.3164-12.129 0.32812-15.504-4.75-3.375-5.0742-2.707-11.828 1.6133-16.133 2.4062-2.4062 5.6797-3.7539 9.082-3.7422zm3.9805 8.8555h0.011719c-1.8906-1.8906-4.8633-2.168-7.0781-0.67969-2.2305 1.5-3.0859 4.3438-2.0547 6.8125 1.0195 2.4688 3.6523 3.8789 6.2852 3.3516 2.6211-0.52734 4.5078-2.832 4.4961-5.5156 0-1.4844-0.59375-2.9102-1.6484-3.9688zm-81.086-8.8555c6.1094 0.023438 11.359 4.3594 12.543 10.352 1.1719 5.9961-2.0547 11.992-7.707 14.32-5.6445 2.332-12.156 0.33984-15.543-4.7617-3.3867-5.0898-2.707-11.863 1.625-16.172 2.418-2.3945 5.6797-3.7422 9.082-3.7422zm3.9805 8.8555c-2.1914-2.1914-5.7695-2.1914-7.9609 0-1.0586 1.0586-1.6484 2.4805-1.6484 3.9805 0 1.4844 0.59375 2.9219 1.6484 3.9805 2.2031 2.1016 5.6914 2.0664 7.8594-0.089844 2.168-2.168 2.2148-5.6562 0.10156-7.8711zm44.07-1.6641h-18.98c0.35156 1.8516 0.52734 3.7422 0.52734 5.6172v0.62891h17.938v-0.62891h-0.011719c0-1.875 0.17578-3.7539 0.52734-5.6172zm44.902-10.215c-7.5586-7.5312-19.371-8.6797-28.238-2.7461-8.8672 5.9336-12.305 17.305-8.2109 27.156 4.082 9.8633 14.559 15.453 25.027 13.363 10.465-2.0781 18-11.273 18-21.941 0-5.9336-2.3555-11.637-6.5742-15.832zm-122.55 16.285v0.011719-0.46484c0.011719-1.9414 0.20312-3.8672 0.56641-5.7695-12.355-1.4609-21.438-12.281-20.746-24.699 0.67969-12.418 10.922-22.156 23.363-22.23h77.449c0.42969 0 0.83203-0.17578 1.1328-0.48047 0.30078-0.30078 0.46484-0.70703 0.46484-1.1211v-3.0625c0-0.41406-0.16406-0.82031-0.46484-1.1211-0.30078-0.30078-0.70703-0.46484-1.1328-0.48047h-66.504c-1.5625 0.011719-2.9492-1.0078-3.4141-2.4922l-26.641-83.758c-0.074219-0.21484-0.15234-0.42969-0.20312-0.64062l-6.5352-20.555c-14.219 0-24.637 0.050781-35.066 0.10156-5.0625 0-10.125 0.050782-15.277 0.0625l0.011719 5.6172 43.316-0.15234h0.011718c1.6758-0.125 3.2227 0.90625 3.7422 2.5078l30.066 94.73c0.089844 0.26562 0.13672 0.54297 0.15234 0.83203 0.125 1.9766-1.3594 3.6914-3.3359 3.8398-15.34 1.1836-27.27 13.855-27.508 29.246-0.25 15.379 11.262 28.426 26.551 30.102zm45.43-16.285c-7.5586-7.5586-19.398-8.7266-28.289-2.7852-8.8789 5.9336-12.344 17.32-8.25 27.191 4.0938 9.875 14.586 15.492 25.062 13.402 10.492-2.0898 18.035-11.285 18.035-21.98 0-5.9336-2.3555-11.637-6.5625-15.832zm43.832-43.266c0.52734 0.20312 1.0312 0.44141 1.5859 0.71875 0.33984 0.15234 0.67969 0.33984 1.0195 0.48047h11.664v-0.011719c6.5 0.11328 12.293-4.0938 14.219-10.316l17.949-55.242c1.5859-4.5352 0.78125-9.5742-2.1406-13.402-1.3594-1.9258-3.1758-3.5-5.2773-4.5977-2.1172-1.0469-4.4453-1.5859-6.8008-1.5625h-129.16l24.434 76.883h63.883c4.1836-0.011719 7.7969 2.9336 8.6289 7.0547zm17.445 8.1602c0.48047 0.40234 0.93359 0.82031 1.3711 1.2578 2.1523 2.2031 3.7539 4.875 4.6836 7.8086l0.59375 1.8398c0.65625 2.1016 2.6055 3.5156 4.8008 3.4766h14.75c2.2031 0.039062 4.1562-1.3711 4.8125-3.4766l0.59375-1.8398c1.8516-5.9688 6.4883-10.668 12.43-12.594 1.6367-0.55469 3.2383-1.1602 4.8242-1.8125 1.5859-0.66797 3.1875-1.3867 4.6836-2.1289l-0.011719-0.011718c5.5781-2.8086 12.18-2.7695 17.723 0.125l1.7266 0.86719v-0.011719c0.94531 0.50391 2.0273 0.67969 3.0859 0.52734 1.0469-0.16406 2.0273-0.67969 2.7695-1.4375l10.43-10.43c0.75391-0.75391 1.2734-1.7148 1.4609-2.7695 0.15234-1.0469-0.023437-2.1289-0.52734-3.0742l-0.88281-1.7383c-2.8984-5.543-2.9336-12.141-0.10156-17.707 0.75391-1.5117 1.4609-3.0859 2.1289-4.6992 0.66797-1.6133 1.2578-3.1875 1.8008-4.8008 1.9531-5.9453 6.6484-10.566 12.609-12.457l1.8398-0.57812c2.1016-0.64062 3.5273-2.6055 3.4766-4.8125v-14.723c0.050781-2.2031-1.3711-4.168-3.4766-4.8125l-1.8398-0.59375c-5.957-1.875-10.645-6.5117-12.594-12.445-0.54297-1.625-1.1602-3.2383-1.8008-4.8008-0.64063-1.5625-1.3711-3.1875-2.1289-4.6992l-0.011719-0.011719c-2.8203-5.5664-2.7852-12.168 0.10156-17.707l0.88281-1.7383h0.011718c0.49219-0.94531 0.67969-2.0156 0.52734-3.0742-0.1875-1.0586-0.70703-2.0156-1.4727-2.7578l-10.418-10.441c-0.74219-0.76953-1.7148-1.2734-2.7695-1.4492-1.0586-0.15234-2.1406 0.039062-3.0859 0.52734l-1.7266 0.88281c-2.7344 1.4102-5.7695 2.1523-8.8438 2.2031-3.0859 0-6.1211-0.71875-8.8789-2.1016-1.5-0.75391-3.0625-1.4609-4.6836-2.1289-1.5859-0.67969-3.1875-1.2578-4.8242-1.8281l0.011719 0.011719c-5.9453-1.9414-10.578-6.6367-12.43-12.609l-0.59375-1.8398c-0.65625-2.0898-2.6055-3.5-4.8125-3.4648h-14.738c-2.2031-0.039062-4.1562 1.3711-4.8125 3.4648l-0.59375 1.8398c-1.8516 5.9688-6.4883 10.668-12.43 12.609-1.6367 0.56641-3.2383 1.1602-4.8242 1.8281-1.5859 0.66797-3.1875 1.3711-4.6992 2.1289v-0.011719c-2.7461 1.3867-5.7812 2.1016-8.8555 2.0781-3.0742-0.023437-6.1094-0.76953-8.8438-2.1797l-1.7266-0.88281c-0.94531-0.49219-2.0273-0.67969-3.0859-0.52734-1.0469 0.17578-2.0273 0.67969-2.7695 1.4492l-10.43 10.441c-0.76953 0.74219-1.2734 1.6992-1.4727 2.7578-0.15234 1.0586 0.039063 2.1289 0.52734 3.0742l0.88281 1.7383h0.011719c2.8828 5.543 2.9219 12.141 0.10156 17.707-0.75391 1.5117-1.4609 3.0859-2.1289 4.6992-0.66797 1.6133-1.2578 3.1875-1.8008 4.8008l-0.011718 0.011719c-0.44141 1.2969-1.0078 2.543-1.6875 3.7266h24.562-0.011719c5.1758-12.406 14.66-22.52 26.703-28.492 12.055-5.957 25.844-7.3828 38.844-3.9805 13.012 3.4023 24.348 11.387 31.93 22.484s10.906 24.562 9.3594 37.898c-1.5625 13.352-7.8828 25.695-17.82 34.75-9.9258 9.0547-22.797 14.219-36.234 14.535l-2.2812 7.0273c-2.5195 8.0742-9.4961 13.957-17.871 15.09zm-24.711-99.301h39.473c7.1055-0.039063 13.793 3.3516 17.961 9.0938 4.168 5.7578 5.3164 13.16 3.0742 19.902l-13.262 40.871c17.254-1.3086 32.508-11.715 40.039-27.293 7.5312-15.582 6.1953-33.996-3.5-48.328-9.6992-14.332-26.285-22.434-43.555-21.234-17.27 1.1836-32.594 11.461-40.23 26.992z" fill="#fff"></path></svg>