<svg xmlns="http://www.w3.org/2000/svg" width="512pt" height="512pt" viewBox="0 0 512 512"><path d="m365.24 149.8-10.48 1.2812-7.3398 22.441c-0.51953 1.6016-1.8398 2.6797-3.3984 3l-17.18 4.6797-3.6602 17.559 13.121 21.602 27.281-3.7383c0.76172-0.078125 1.5 0 2.1602 0.26172l42.082 15.52c0.82031 0.32031 1.5 0.82031 2 1.4805l8.7188 9.7812c-0.71875-9.1602-2.1211-18.121-4.2812-26.801-17.32 0.14062-34.801-1.8008-48.301-5.7617-29.199-8.6016-29.199-26.699 0-35.32 6.6797-1.9609 14.762-3.5195 23.762-4.5195l-6.3984-9.1016c-6.6797-3.1211-12.781-7.3203-18.078-12.359zm-318.04 159.94c1.4805 5.7617-7.2617 7.9609-8.6992 2.1992-19.84-77.902 2.8398-158.96 58.723-214.88 65.961-65.961 166.04-84.398 251.26-45.961 2.2812 1.0195 3.2617 3.6797 2.2383 5.9609-1.0195 2.2812-3.6797 3.2617-5.918 2.2383-81.801-36.898-177.9-19.199-241.24 44.141-53.621 53.656-75.418 131.56-56.359 206.3zm421.56-89.496c-0.96094-5.8398 7.8789-7.3203 8.8594-1.4805 22.82 137.06-82.719 261.78-221.58 261.78-27.68 0-55.281-5.0391-81.102-15.121-5.5-2.1211-2.2812-10.48 3.2383-8.3594 24.879 9.6797 51.199 14.48 77.879 14.48 133.46 0.019531 234.54-119.94 212.7-251.3zm-369.22 75.059c31.379 0 58.344 21.16 66.301 50.738 3.8398-1.6211 7.8008-3.1211 11.961-4.5195-7.0781-23.98-11.238-51.641-11.621-81.102h-73.02c0.33984 12 1.9609 23.68 4.7383 34.879h1.6406zm68.102 59.699c1.5586 11.961-0.039062 23.922-4.4414 34.84 17.18 11.918 36.781 20.641 57.883 25.262-19.641-15.641-32.641-41.48-40.559-65.039-4.5195 1.5195-8.8398 3.1797-12.879 4.9414zm-8.4609 43c-0.62109 1.1211-1.2812 2.1992-1.9805 3.2617-6.9414 10.719-16.801 19.398-28.461 24.879l-6.3789 9.0781c9 1 17.059 2.5391 23.762 4.5195 29.398 8.6797 29.398 26.68 0 35.32-25.879 7.6406-67.242 7.6406-93.16 0-29.398-8.6406-29.398-26.641 0-35.32 6.6797-1.9609 14.801-3.5195 23.762-4.5195l-6.3789-9.0781c-11.641-5.5-21.52-14.16-28.461-24.879-17.66-27.199-13.762-63 9.1016-85.863 10.02-10.02 23.199-16.98 37.84-19.281-14.121-58.902 3.8398-119.96 45.641-161.78 45.98-45.98 112.24-60.277 170.88-42.961 1.9609 0.26172 0.83984-0.058594 2.5781 0.80078 12.641 3.9414 24.922 9.3789 36.52 16.301-2.5-20.48 4.2383-41.719 19.52-57 26.68-26.68 70.48-26.68 97.141 0 22.801 22.801 26.602 58.879 9.1016 85.863-6.9414 10.719-16.801 19.398-28.461 24.859l-6.3984 9.1016c9 1 17.059 2.5391 23.762 4.5195 29.199 8.6211 29.199 26.719 0 35.32-10.199 3-22.68 4.8398-35.641 5.5 13.102 55.98-2.1797 117.24-45.801 160.88-59.184 59.121-150.34 67.082-218.48 20.48zm-42.781 45.68-13.18 18.738c-1.8398 2.6016-5.6797 2.5195-7.3984-0.058594l-13.16-18.68c-10.461 0.83984-19.762 2.4805-27.16 4.6602-9.6016 2.8398-15.52 6.0781-15.52 9.0391 0 2.9805 5.918 6.1992 15.52 9.0391 24.16 7.1211 63.883 7.1211 88.078 0 9.5781-2.8398 15.52-6.0781 15.52-9.0391 0-2.9805-5.918-6.1992-15.52-9.0391-7.418-2.1797-16.699-3.8203-27.18-4.6602zm25.359-121.92c-23.301-23.301-61.082-23.301-84.418 0-19.84 19.84-23.219 51-7.9414 74.598 6.1992 9.5781 15.078 17.262 25.559 22 0.80078 0.32031 1.5 0.83984 2.0391 1.6211l22.539 32.059 22.559-32.059c0.44141-0.64062 1.0391-1.1992 1.8008-1.5195 38.02-16.98 47.461-67.062 17.859-96.703zm-42.219 6.5195c19.699 0 35.68 16 35.68 35.68 0 19.699-16 35.66-35.68 35.66-19.699 0-35.66-15.961-35.66-35.66 0-19.68 15.961-35.68 35.66-35.68zm18.859 16.801c-16.762-16.762-45.52-4.8203-45.52 18.879 0 23.699 28.762 35.602 45.52 18.859 10.441-10.398 10.441-27.301 0-37.738zm277.28-165.36c-10.461 0.87891-19.801 2.5-27.18 4.6797-20.578 6.0781-20.578 12.02 0 18.078 24.379 7.1602 63.684 7.1602 88.078 0 20.578-6.0781 20.578-12.02 0-18.078-7.3984-2.1797-16.719-3.8008-27.18-4.6797l-13.18 18.762c-1.8008 2.6016-5.6406 2.5195-7.3984-0.058594zm-48.602-58.922c-12.199-8.1602-25.262-14.539-38.84-19.082l-10.16 33c-0.39844 1.8008-1.8984 3.1992-3.8398 3.4609l-38.98 4.8203-13.602 16.32 2.0391 17.66 27.559-0.19922c1.2383 0 2.4805 0.51953 3.3594 1.5l15.379 17.141c1.1602 1.1211 1.6797 2.8789 1.1602 4.5586l-11 35.199c-0.94141 2.9805-4.6797 4.1602-7.1406 2.1211l-24.359-20.238-34.48 6.8789c-1.2383 0.26172-2.6016-0.039062-3.6797-0.92188l-26.039-21.281c-0.62109-0.44141-1.1211-1.0781-1.4414-1.8398l-10.602-24.859-15.281 1.5-9.1797 18.559c-0.35938 0.73828-0.96094 1.3984-1.6992 1.8398l-32.281 19.559c-1.6016 1.0781-3.7617 1.0391-5.3594-0.23828l-8.6992-7.1211c-4.0391 13.441-6.3594 27.578-6.7617 42.199h320.32l-9.8008-10.961-40.039-14.801-29.078 3.9609c-1.6992 0.23828-3.4609-0.53906-4.4219-2.1211l-15.398-25.359c-0.67969-0.96094-0.96094-2.1992-0.71875-3.4609l4.5586-21.961c0.33984-1.6016 1.5195-2.9609 3.2383-3.3984l17.762-4.8398 7.3984-22.641c0.44141-1.6992 1.9219-3.0586 3.8008-3.2812l7.0781-0.87891c-4.7812-6.3008-8.418-13.32-10.781-20.801zm107.64-62.961c-23.16-23.199-61.242-23.199-84.398 0-19.801 19.801-23.121 51.16-7.9414 74.598 6.1992 9.5781 15.039 17.262 25.539 22 0.80078 0.32031 1.5195 0.83984 2.0391 1.6016l22.559 32.059 22.539-32.039c0.44141-0.64062 1.0781-1.1992 1.8398-1.5195 10.559-4.7383 19.5-12.441 25.738-22.078 15.219-23.461 11.879-54.84-7.9219-74.617zm-16.961 16.961c13.859 13.84 13.859 36.602 0 50.441-13.84 13.859-36.602 13.859-50.441 0-13.859-13.84-13.859-36.602 0-50.441 13.84-13.84 36.602-13.84 50.441 0zm-6.3594 6.3594c-10.359-10.359-27.359-10.359-37.719 0s-10.359 27.359 0 37.719 27.359 10.359 37.719 0c10.34-10.34 10.34-27.359 0-37.719zm-131.72 17.941c-54.758-15.02-116.08-1.1602-158.84 41.578-16.641 16.641-29.719 36.84-37.918 59.402l8.9219 7.2617 28.641-17.359 9.7188-19.641c0.73828-1.5195 2.1992-2.3984 3.7617-2.5l20.859-2.0391c2-0.19922 3.8398 0.94141 4.5586 2.6797l11.441 26.898 23.68 19.32 34.5-6.9219c1.5195-0.28125 3.0391 0.19922 4.0391 1.2188l20.52 17.059 8.2188-26.398-12.48-13.961-29.559 0.23828c-2.3008 0-4.2188-1.7188-4.4805-4l-2.7617-23.559c-0.16016-1.3984 0.33984-2.6797 1.2383-3.6406l15.801-18.941c0.19922-0.26172 2.8789-1.6211 2.8789-1.6211l37.801-4.6797zm34.641 242.42c17.82 5.9805 32.602 13.961 42.922 23.32 25.039-27.84 40.621-64.316 41.699-104.44l-73.043 0.019531c-0.33984 29.461-4.5 57.117-11.578 81.102zm36.719 29.82c-9.3594-8.4414-22.922-15.719-39.441-21.281-7.9414 23.559-20.961 49.379-40.602 65.039 30.879-6.7812 58.48-22.242 80.039-43.762zm-48.98-24.219c-18.121-5.0195-39.102-8.0586-61.523-8.3984v79.34c31.738-3.6602 52.164-43.301 61.523-70.938zm-70.504-8.3789c-22.441 0.33984-43.398 3.3594-61.523 8.3984 9.3203 27.641 29.801 67.281 61.523 70.957zm-64.199-0.17969c18.961-5.3008 40.879-8.4805 64.199-8.8398v-69.32h-75.359c0.32031 28.48 4.3594 55.121 11.16 78.16zm73.199-8.8398c23.32 0.35938 45.199 3.5391 64.199 8.8398 6.8008-23.039 10.801-49.68 11.16-78.16h-75.359z" fill="#ea5b0a"></path></svg>