<svg xmlns="http://www.w3.org/2000/svg" width="512pt" height="512pt" viewBox="0 0 512 512"><path d="m263.74 415.24h107.26c8.9609 0 16.238-7.2812 16.238-16.238l-0.019531-87.598c0-8.9609-7.2812-16.238-16.238-16.238h-107.24c-8.9609 0-16.238 7.2812-16.238 16.238v87.598c0 8.9609 7.2812 16.238 16.238 16.238zm-6.6602-16.238v-39.02h55.5v45.68h-48.84c-3.6992 0-6.6602-2.9805-6.6602-6.6602zm113.92 6.6602h-48.84v-45.68h55.5v39.02c0 3.6797-2.9805 6.6602-6.6602 6.6602zm6.6602-94.258v39.02h-55.5v-45.68h48.84c3.6797 0 6.6602 2.9805 6.6602 6.6602zm-113.92-6.6602h48.84v45.68h-55.5v-39.02c0-3.6797 2.9609-6.6602 6.6602-6.6602zm164.08 143.56h-9v-192.7c14.84-6.3008 25.301-21.039 25.301-38.141 0-0.39844-0.16016-0.76172-0.26172-1.1797h0.10156l-22.32-86.578c-2.3008-9.0195-10.141-15.059-19.398-15.059h-99.539c2.3008-5.8789 4.3008-11.879 5.6797-17.98 5.2812-23.301 0.39844-45.879-12.641-58.941-21.918-21.918-57.496-21.918-79.422 0-13.102 13.102-17.922 35.68-12.641 58.941 1.3789 6.1016 3.3789 12.141 5.6797 17.98h-99.539c-9.3203 0-17.102 6.0391-19.461 15.059l-22.32 86.578h0.10156c-0.10156 0.39844-0.26172 0.76172-0.26172 1.1797 0 17.102 10.441 31.84 25.301 38.141v192.76h-9.0195c-8.9609 0-16.238 7.2812-16.238 16.238v9.9414c0 8.9609 7.2812 16.238 16.238 16.238h343.7c8.9609 0 16.238-7.2812 16.238-16.238v-9.9414c0-8.9805-7.3203-16.301-16.281-16.301zm-25.18-199c-15.922 0-29.18-11.781-31.48-27.082h63.023c-2.3594 15.301-15.621 27.082-31.539 27.082zm9.6797-117.26 20.781 80.578-63.023 0.019531-13.68-88.422h45.781c4.8594-0.058594 8.9609 3.1211 10.141 7.8203zm-65.598-7.8789 13.68 88.422h-63.18l-4.0391-78.078c1.8398-3.3203 3.6406-6.8008 5.3203-10.398h48.219zm14.078 98.039c-2.3008 15.301-15.559 27.082-31.48 27.082s-29.18-11.781-31.48-27.082zm-136.44-9.5586 3.2812-63.441c7.7383 11.781 15.102 20.84 18.68 25.039 2.3984 2.8203 5.9414 4.4609 9.6797 4.4609 3.6797 0 7.2188-1.6406 9.6797-4.4609 3.5781-4.1992 10.961-13.199 18.68-25.039l3.2812 63.441zm63.121 9.5586c-2.3008 15.301-15.559 27.082-31.48 27.082-15.918 0-29.18-11.781-31.48-27.082zm-64.398-177.76c9.0586-9.0586 21-13.621 32.922-13.621 11.918 0 23.859 4.5586 32.922 13.621 10.801 10.801 14.641 29.961 10.082 50.078-7.418 32.82-32.98 64.559-40.66 73.48-0.82031 0.98047-1.8398 1.1211-2.3594 1.1211-0.51953 0-1.5391-0.16016-2.3594-1.1211-7.6211-8.9609-33.18-40.699-40.66-73.48-4.5195-20.121-0.67969-39.32 10.121-50.078zm-4.2617 90.121-4.0391 78.078h-63.18l13.68-88.422h48.238c1.6797 3.5195 3.4609 7 5.3008 10.34zm-4.6602 87.641c-2.3008 15.301-15.559 27.082-31.48 27.082s-29.18-11.781-31.48-27.082zm-114.48-90.156c1.2188-4.7188 5.2812-7.8789 10.141-7.8789h45.781l-13.68 88.422h-63.023zm-21.801 90.156h63.023c-2.3008 15.301-15.559 27.082-31.48 27.082-15.922 0.019532-29.238-11.762-31.539-27.082zm24.879 36.102c2.1602 0.35938 4.3594 0.55859 6.6016 0.55859 15.879 0 29.699-9.0195 36.66-22.16 6.9609 13.16 20.781 22.16 36.66 22.16s29.699-9.0195 36.66-22.16c6.9609 13.16 20.781 22.16 36.66 22.16 15.879 0 29.699-9.0195 36.66-22.16 6.9609 13.16 20.781 22.16 36.66 22.16 15.879 0 29.699-9.0195 36.66-22.16 6.9609 13.16 20.781 22.16 36.66 22.16 2.2617 0 4.4609-0.19922 6.6016-0.55859v190.06h-185.24v-136.96c0-8.9609-7.2812-16.238-16.238-16.238h-66.758c-8.9609 0-16.238 7.2812-16.238 16.238v136.96h-21.961v-190.06zm111.62 190h-80.039v-136.9c0-3.6797 2.9609-6.6602 6.6602-6.6602h66.758c3.6797 0 6.6602 2.9609 6.6602 6.6602v136.9zm220.1 26.219c0 3.6797-2.9609 6.6602-6.6602 6.6602h-343.64c-3.6797 0-6.6602-2.9609-6.6602-6.6602v-9.9414c0-3.6797 2.9609-6.6602 6.6602-6.6602h343.7c3.6797 0 6.6602 2.9609 6.6602 6.6602v9.9414zm-228.7-105.26v14.539c0 2.6602-2.1602 4.8203-4.8203 4.8203s-4.8203-2.1602-4.8203-4.8203v-14.539c0-2.6602 2.1602-4.8203 4.8203-4.8203s4.8203 2.1602 4.8203 4.8203zm50.219-269.32c13.98 0 25.301-11.359 25.301-25.301 0-13.922-11.32-25.34-25.301-25.34-13.98 0-25.301 11.359-25.301 25.301 0 13.922 11.32 25.34 25.301 25.34zm0-41.059c8.6602 0 15.719 7.0586 15.719 15.719 0 8.6602-7.0586 15.719-15.719 15.719-8.6602 0-15.719-7.0586-15.719-15.719 0-8.6602 7.0586-15.719 15.719-15.719z" fill="#ea5b0a"></path></svg>