<svg xmlns="http://www.w3.org/2000/svg" width="512pt" height="512pt" viewBox="0 0 512 512"><path d="m512 256c0 141.39-114.61 256-256 256s-256-114.61-256-256 114.61-256 256-256 256 114.61 256 256" fill="#ea5b0a"></path><path d="m247.76 396.46c-25.719-40.621-91.684-142.2-91.684-185.61 0-55.18 44.738-99.918 99.918-99.918 55.18 0 99.918 44.738 99.918 99.918 0 43.34-64.879 143.14-91.77 185.73-3.8555 6.1211-12.707 5.918-16.387-0.11328zm8.2383-228.24c-23.539 0-42.625 19.082-42.625 42.625 0 37.848 45.973 56.918 72.762 30.141 26.777-26.789 7.707-72.762-30.141-72.762zm16.461 26.16c-14.625-14.625-39.738-4.2188-39.738 16.461s25.113 31.086 39.738 16.461c9.082-9.0938 9.082-23.832 0-32.926zm-97.035 16.461c0 34.219 53.578 120.04 80.57 162.58 27.004-42.531 80.57-128.35 80.57-162.58 0-71.566-86.918-107.61-137.55-56.98-14.574 14.586-23.59 34.727-23.59 56.98z" fill="#fff" fill-rule="evenodd"></path></svg>