<svg xmlns="http://www.w3.org/2000/svg" width="512pt" height="512pt" viewBox="0 0 512 512"><path d="m256.02 101.44c-82.141 0-148.96 66.82-148.96 148.96 0 54.34 22.398 79.359 46.121 105.86 3.6602 4.1016 7.4414 8.3203 11.18 12.68 13.121 15.379 19.52 32.699 19.52 52.941v25.141c0 34.398 28 62.402 62.402 62.402h19.5c34.398 0 62.402-28 62.402-62.402v-25.141c0-20.238 6.3789-37.559 19.52-52.941 3.7383-4.3789 7.5195-8.6016 11.18-12.699 23.719-26.5 46.121-51.516 46.121-105.86-0.039062-82.098-66.863-148.94-148.98-148.94zm56.258 320.46v23.98h-112.58v-23.98c0-2.6602-0.10156-5.2812-0.30078-7.8594h113.18c-0.17969 2.5781-0.30078 5.1992-0.30078 7.8594zm-46.52 71.68h-19.5c-20.539 0-37.98-13.359-44.141-31.859h107.8c-6.1797 18.5-23.641 31.859-44.16 31.859zm81.258-147.88c-3.7188 4.1602-7.5586 8.4609-11.422 12.961-10.301 12.059-17.102 25.121-20.559 39.5l-118.08 0.019531c-3.4805-14.379-10.281-27.441-20.559-39.52-3.8594-4.5195-7.6992-8.8008-11.422-12.961-23.5-26.262-42.082-47-42.082-95.277 0-73.398 59.719-133.1 133.1-133.1 73.379 0 133.08 59.719 133.08 133.1 0.019532 48.281-18.559 69.02-42.059 95.277zm-282.88-95.277c0 4.3789-3.5391 7.9219-7.9219 7.9219h-40.141c-4.3789 0-7.9219-3.5391-7.9219-7.9219 0-4.3789 3.5391-7.9219 7.9219-7.9219h40.141c4.3789-0.019532 7.9219 3.5391 7.9219 7.9219zm367.12-175.28c3.1016 3.1016 3.1016 8.1211 0 11.219l-28.359 28.398c-1.5391 1.5586-3.5781 2.3203-5.6016 2.3203-2.0195 0-4.0586-0.78125-5.6016-2.3203-3.1016-3.1016-3.1016-8.1211 0-11.219l28.359-28.398c3.0781-3.0781 8.1016-3.0781 11.199 0zm-183.18-24.52v-40.141c0-4.3789 3.5391-7.9219 7.9219-7.9219 4.3789 0 7.9219 3.5391 7.9219 7.9219v40.141c0 4.3789-3.5391 7.9219-7.9219 7.9219-4.3594 0-7.9219-3.5391-7.9219-7.9219zm-167.34 35.738c-3.1016-3.1016-3.1016-8.1211 0-11.219 3.1016-3.1016 8.1211-3.1016 11.219 0l28.359 28.398c3.1016 3.1016 3.1016 8.1211 0 11.219-1.5391 1.5391-3.5781 2.3203-5.6016 2.3203-2.0391 0-4.0586-0.78125-5.6016-2.3203zm423.1 164.06c0 4.3789-3.5391 7.9219-7.9219 7.9219h-40.141c-4.3789 0-7.9219-3.5391-7.9219-7.9219 0-4.3789 3.5391-7.9219 7.9219-7.9219h40.141c4.3789-0.019532 7.9219 3.5391 7.9219 7.9219zm-247.82-95.539c-52.68 0-95.539 42.859-95.539 95.539 0 52.68 42.859 95.539 95.539 95.539 52.66 0 95.5-42.859 95.5-95.539 0-52.68-42.84-95.539-95.5-95.539zm0 175.22c-43.941 0-79.676-35.738-79.676-79.676 0-43.941 35.738-79.676 79.676-79.676 43.918 0 79.66 35.738 79.66 79.676-0.019532 43.941-35.738 79.676-79.66 79.676zm44.738-108c3.1016 3.1016 3.1016 8.1211 0 11.219l-45.398 45.398c-1.5391 1.5391-3.5781 2.3203-5.6016 2.3203-2.0195 0-4.0586-0.78125-5.6016-2.3203l-32.922-32.922c-3.1016-3.1016-3.1016-8.1211 0-11.219 3.1016-3.1016 8.1211-3.1016 11.219 0l27.32 27.32 39.801-39.801c3.0586-3.0781 8.1016-3.0781 11.18 0zm130.5 192.38c3.1016 3.1016 3.1016 8.1211 0 11.219-1.5391 1.5391-3.5781 2.3203-5.6016 2.3203-2.0391 0-4.0586-0.78125-5.6016-2.3203l-28.359-28.398c-3.1016-3.1016-3.1016-8.1211 0-11.219 3.1016-3.1016 8.1211-3.1016 11.219 0zm-310.94-28.422c3.1016 3.1016 3.1016 8.1211 0 11.219l-28.359 28.398c-1.5391 1.5586-3.5781 2.3203-5.6016 2.3203-2.0195 0-4.0586-0.78125-5.6016-2.3203-3.1016-3.1016-3.1016-8.1211 0-11.219l28.359-28.398c3.0781-3.0781 8.1016-3.0781 11.199 0z" fill="#ea5b0a"></path></svg>