<svg xmlns="http://www.w3.org/2000/svg" width="512pt" height="512pt" viewBox="0 0 512 512"><path d="m255.34 441.1c0 3.0781-2.5 5.5781-5.5781 5.5781h-44.801c-3.0781 0-5.5781-2.5-5.5781-5.5781 0-3.1016 2.5-5.6016 5.5781-5.6016h44.801c3.0781 0.019531 5.5781 2.5195 5.5781 5.6016zm181-251.26v163.2c0 6.7383-5.5391 12.219-12.34 12.219h-44.98v84.797c0 20.039-16.301 36.34-36.34 36.34h-230.68c-20.039 0-36.34-16.32-36.34-36.34v-388.12c0-20.039 16.301-36.359 36.34-36.359h230.68c20.039 0 36.34 16.32 36.34 36.359v59.238l17.98-10.82c1.7188-1.0391 3.8789-1.0586 5.6406-0.078124 1.7617 0.98047 2.8398 2.8398 2.8398 4.8594v62.383h18.539c6.7812 0 12.32 5.5195 12.32 12.32zm-42.039-64.797-17.68 10.641c-0.058594 0.039062-0.14062 0.10156-0.19922 0.12109l-74.598 44.898v153.4c0 3.0781-2.5 5.6016-5.6016 5.6016-3.0781 0-5.5781-2.5-5.5781-5.6016l-0.019532-153.38-92.477-55.68v163.54l98.078 59.02 98.078-59.02zm-207.34 166.7v-103.06h-18.539c-0.67969 0-1.1602 0.60156-1.1602 1.1602v163.2c0 0.57812 0.5 1.0391 1.1602 1.0391h116.86l-95.621-57.559c-1.6602-1-2.6992-2.8203-2.6992-4.7812zm-99.48-235.38h279.72c-2.5586-11.199-12.559-19.578-24.52-19.578h-230.68c-11.961 0-21.961 8.3789-24.52 19.578zm280.38 393.7v-31.582h-281.02v31.582c0 13.879 11.281 25.16 25.16 25.16h230.68c13.879 0 25.18-11.281 25.18-25.16zm0-84.797h-199.42c-6.8008 0-12.34-5.4805-12.34-12.219l-0.019531-163.2c0-6.8008 5.5391-12.32 12.34-12.32h18.539v-62.363c0-2.0195 1.0781-3.8789 2.8398-4.8594 1.7617-0.98047 3.8984-0.96094 5.6406 0.078125l100.78 60.66 71.641-43.121v-60.379h-281.02v339.76h281.02zm57.297-175.42c0-0.53906-0.48047-1.1602-1.1602-1.1602h-18.539l0.019531 103.06c0 1.9609-1.0195 3.7812-2.6992 4.7812l-95.641 57.559h116.86c0.64062 0 1.1602-0.46094 1.1602-1.0391zm-153.84 102.54-48.02-28.879c-2.6602-1.5781-6.0781-0.73828-7.6602 1.9219-1.6016 2.6406-0.73828 6.0781 1.8984 7.6602l48.02 28.879c0.89844 0.53906 1.8984 0.80078 2.8789 0.80078 1.8984 0 3.7383-0.96094 4.8008-2.7188 1.5781-2.6406 0.71875-6.0781-1.9219-7.6602zm0-31.539-48.02-28.879c-2.6602-1.6016-6.0781-0.73828-7.6602 1.9219-1.6016 2.6406-0.73828 6.0781 1.8984 7.6602l48.02 28.879c0.89844 0.53906 1.8984 0.80078 2.8789 0.80078 1.8984 0 3.7383-0.96094 4.8008-2.7188 1.5781-2.6406 0.71875-6.0586-1.9219-7.6602zm2.7188-60.602v25.539c0 3.3594-1.8789 6.4609-4.9219 8.1211-1.3984 0.76172-2.9805 1.1797-4.5586 1.1797-1.5586 0-3.1406-0.39844-4.5586-1.1797l-40.699-24.582c-2.7617-1.4805-4.4609-4.4609-4.4609-8v-25.441c0-3.5195 1.8008-6.6016 4.8008-8.2188 3-1.6406 6.5586-1.5391 9.418 0.30078l40.379 24.262c2.7617 1.5195 4.6016 4.6406 4.6016 8.0195zm-11.18 1.0781-36.84-22.141v21.16l36.84 22.242zm106.38 62.184-48.121 28.879c-2.6406 1.5781-3.5 5.0195-1.9219 7.6602 1.0391 1.7383 2.8984 2.7188 4.8008 2.7188 0.98047 0 1.9609-0.26172 2.8594-0.80078l48.121-28.879c2.6406-1.5781 3.5-5.0195 1.9219-7.6602-1.5781-2.6602-5.0195-3.5195-7.6602-1.9219zm0-31.539-48.121 28.879c-2.6406 1.5781-3.5 5.0195-1.9219 7.6602 1.0391 1.7383 2.8984 2.7188 4.8008 2.7188 0.98047 0 1.9609-0.26172 2.8594-0.80078l48.121-28.879c2.6406-1.5781 3.5-5.0195 1.9219-7.6602-1.5781-2.6602-5.0195-3.5195-7.6602-1.9219zm0-33.18-48.121 28.879c-2.6406 1.6016-3.5 5.0195-1.9219 7.6602 1.0391 1.7383 2.8984 2.7188 4.8008 2.7188 0.98047 0 1.9609-0.26172 2.8594-0.80078l48.121-28.879c2.6406-1.6016 3.5-5.0195 1.9219-7.6602-1.5781-2.6602-5.0195-3.5195-7.6602-1.9219zm0-34.32-48.121 28.879c-2.6406 1.5781-3.5 5.0195-1.9219 7.6602 1.0391 1.7383 2.8984 2.6992 4.8008 2.6992 0.98047 0 1.9609-0.26172 2.8594-0.80078l48.121-28.879c2.6406-1.5781 3.5-5.0195 1.9219-7.6602-1.5781-2.6211-5.0195-3.4805-7.6602-1.8984z" fill="#ea5b0a"></path></svg>