<svg xmlns="http://www.w3.org/2000/svg" width="512pt" height="512pt" viewBox="0 0 512 512"><path d="m296.78 390.06h122.16c17.461 0 17.078-26.238 0-26.238l-122.16-0.019531c-16.961 0-17.52 26.262 0 26.262zm-2.3398-35.34h126.82c22.422-33.762 51.422-52.762 51.422-105.68 0-63.441-51.422-114.86-114.84-114.86-63.422 0-114.84 51.422-114.84 114.86 0 52.922 29 71.922 51.441 105.68zm-92.043 125.6c-5.8984-0.14062-5.6992-9.1016 0.19922-8.9609 16.48 0.39844 29.82-4.4414 30.219-20.84 0.19922-8.1602-2.8789-17.059-6.8398-23.719-9.7578-16.602-6.4414-38.18 10.461-48.121 7.8008-4.5586 18.34-6.582 31.52-4.2188 5.8398 1.0195 4.2812 9.8594-1.5586 8.8398-33.121-5.8008-43.82 20.039-32.68 38.98 9.5 16.102 13.762 41.398-5.3984 52.68-6.0781 3.5586-14.52 5.6406-25.922 5.3594zm270.64-354.32c4.2383-4.1211 10.461 2.3594 6.1992 6.4609l-18.68 18.039c-4.2383 4.1211-10.48-2.3594-6.2422-6.4609zm-33.719-25.121c3-5.0781 10.738-0.51953 7.7383 4.6016l-13.238 22.34c-3.0391 5.1016-10.738 0.51953-7.7383-4.5586zm-39.078-15.281c1.5195-5.6992 10.219-3.3398 8.6406 2.3594l-6.8789 25.02c-1.5586 5.6992-10.219 3.3398-8.6406-2.3594zm-41.781-4.4609c0-5.918 9-5.918 9 0v26c0 5.918-9 5.918-9 0zm-192.54 148.94h54.738c2.5 0 4.5195 2 4.5195 4.4805v50.262c0 2.5-2 4.5195-4.5195 4.5195h-54.738c-2.5 0-4.5195-2-4.5195-4.5195v-50.262c0.019531-2.4805 2.0391-4.4805 4.5195-4.4805zm50.238 8.9805h-45.762v41.238h45.762zm-50.238-58.219c-5.918 0-5.918-9 0-9h60.559c5.918 0 5.918 9 0 9zm0 24.738c-5.918 0-5.918-9 0-9h60.559c5.918 0 5.918 9 0 9zm11.918 224.68c1.0781 1 2.0391 1.9219 2.3008 3.3594l8.1406 42.18c0.64062 3.2383-2.1211 5.9805-5.2383 5.3594l-42.262-8.2188c-0.83984-0.16016-1.6797-0.60156-2.3203-1.2383l-99.84-100.02c-17.738-17.801-5.3594-48.781 20.281-48.762 7.3398 0 14.641 2.8008 20.199 8.3594 32.898 33.02 65.816 65.98 98.738 98.98zm-74.219-61.68c-10.398 7.0391-20.762 17.359-27.781 27.68l64.242 64.359c7.3203-10.359 17.398-20.441 27.762-27.719zm-34.219 21.219c7.3203-10.359 17.398-20.441 27.762-27.68l-11.059-11.082c-10.398 7.0391-20.719 17.32-27.781 27.68zm-17.52-17.539c7.3203-10.359 17.398-20.441 27.762-27.719l-6.8789-6.8789c-12.199-12.219-33.461-3.7617-33.48 13.84 0 5.0195 1.8984 10.059 5.7188 13.859zm120.48 68.5c-9.1016 6.4805-18 15.359-24.52 24.441l30.359 5.8984zm-6.4414-346.72c-5.918 0-5.918-9 0-9h91.5c5.918 0 5.918 9 0 9zm0 24.762c-5.918 0-5.918-9 0-9h91.5c5.918 0 5.918 9 0 9zm-85.52 40.301h54.758c2.5 0 4.5195 2 4.5195 4.5195v50.238c0 2.5-2 4.5195-4.5195 4.5195l-54.758-0.039062c-2.4805 0-4.4805-2-4.4805-4.5195v-50.219c0.019531-2.4805 2.0195-4.5 4.4805-4.5zm50.262 8.9805h-45.738v41.281h45.762zm-50.262-95.801h54.758c2.5 0 4.5195 2 4.5195 4.5195v50.262c0 2.5-2 4.5195-4.5195 4.5195l-54.758-0.039063c-2.4805 0-4.4805-2-4.4805-4.5195v-50.238c0.019531-2.5 2.0195-4.5 4.4805-4.5zm50.262 9h-45.738v41.238h45.762zm246.38 101.88c4.9609 1.4219 9.7188 3.3984 14.262 5.918l8.7188-7.3398c1.8008-1.5 4.4219-1.3594 6.0781 0.28125l19.398 19.398c1.7188 1.6992 1.7617 4.4805 0.12109 6.2422l-7.1602 8.5586c2.5 4.5195 4.4805 9.3008 5.918 14.262l11.34 1c2.3203 0.19922 4.1211 2.1602 4.1211 4.4805v27.398c0 2.3789-1.8789 4.3398-4.1992 4.5195l-11.238 0.96094c-1.4414 5-3.4414 9.7578-5.918 14.281l7.3203 8.7188c1.5195 1.8008 1.3594 4.4219-0.26172 6.0781l-19.398 19.398c-1.7188 1.7188-4.5195 1.7617-6.2617 0.078125l-8.5195-7.1602c-4.5391 2.5195-9.3008 4.5195-14.262 5.918l-1 11.359c-0.19922 2.3203-2.1797 4.1211-4.4805 4.1211h-27.441c-2.3789 0-4.3398-1.8789-4.4805-4.1992l-1-11.238c-4.9609-1.4414-9.7578-3.4414-14.262-5.918l-8.7188 7.3203c-1.8008 1.5-4.4414 1.3594-6.0781-0.26172l-19.398-19.398c-1.7188-1.7188-1.7617-4.5195-0.12109-6.2617l7.1602-8.5195c-2.5-4.5391-4.4805-9.3008-5.918-14.281l-11.34-0.96094c-2.3594-0.23828-4.1211-2.1797-4.1211-4.5195v-27.398c0-2.3789 1.8398-4.3398 4.1992-4.4805l11.238-1c1.4219-4.9609 3.3984-9.7578 5.918-14.262l-7.3398-8.7617c-1.5-1.8008-1.3594-4.4219 0.28125-6.0391l19.422-19.461c1.7188-1.6992 4.4805-1.7617 6.2617-0.078125l8.5195 7.1602c4.5391-2.5195 9.3008-4.5195 14.262-5.918l1-11.34c0.19922-2.3594 2.1602-4.1211 4.4805-4.1211h27.441c2.3789 0 4.3008 1.8398 4.4805 4.1992zm-5.1211 7.9414c-1.8984-0.39844-3.3984-1.9805-3.5586-4l-0.92188-10.398h-19.16l-0.92188 10.398c-0.16016 1.8789-1.5195 3.5195-3.4609 3.9609-5.5195 1.3008-12.762 4.1211-17.379 7.1406-1.6211 1.1602-3.8789 1.1211-5.4805-0.23828l-8.0195-6.6797-13.559 13.559 6.6797 8c1.2383 1.5 1.3984 3.6016 0.35938 5.2383-3.1211 5.1016-5.918 11.602-7.2617 17.52-0.39844 1.8984-1.9805 3.3594-4 3.5391l-10.398 0.92188v19.199l10.398 0.92188c1.8789 0.16016 3.5195 1.5 3.9609 3.4414 1.3203 5.5195 4.1211 12.762 7.1406 17.398 1.1602 1.6211 1.1211 3.8398-0.19922 5.4805l-6.7188 8 13.559 13.578 8.0195-6.7188c1.4414-1.1992 3.5391-1.4219 5.2188-0.35938 5.1016 3.1602 11.602 5.918 17.52 7.2617 1.8984 0.39844 3.3594 1.9805 3.5586 4.0391l0.92188 10.359h19.16l0.92188-10.359c0.16016-1.8984 1.5-3.5391 3.4609-4 5.5-1.3008 12.762-4.0781 17.379-7.1406 1.6211-1.1602 3.8789-1.1211 5.4805 0.23828l8 6.7188 13.578-13.578-6.7188-8c-1.1992-1.4414-1.4219-3.5391-0.35937-5.2383 3.1602-5.0781 5.9609-11.559 7.2617-17.48 0.39844-1.8984 2-3.3984 4.0195-3.5586l10.379-0.92188v-19.199l-10.379-0.92188c-1.8789-0.14062-3.5391-1.5-4-3.4414-1.3008-5.5195-4.0781-12.762-7.1406-17.379-1.1211-1.6211-1.1211-3.8789 0.23828-5.5l6.7188-8-13.578-13.559-8 6.6797c-1.4414 1.2188-3.5391 1.4219-5.2383 0.35938-5.3594-3.3398-11.301-5.8203-17.48-7.2812zm-14.059 19.16c21.738 0 39.398 17.641 39.398 39.398 0 21.738-17.66 39.398-39.398 39.398-21.762 0-39.398-17.66-39.398-39.398 0-21.781 17.621-39.398 39.398-39.398zm21.5 17.898c-11.879-11.84-31.121-11.84-42.961 0-11.879 11.879-11.879 31.121 0 43 11.84 11.879 31.102 11.879 42.961 0 11.879-11.879 11.879-31.141 0-43zm30.879 206.12c-7.7383 60.359-97.039 60.359-104.8 0-18.621-0.28125-28.719-22.398-16.32-36.602-12.879-4.8008-18.422-20.121-11.359-32h-143.98c-1.3594 0-2.5781-0.62109-3.3984-1.6016l-98.203-99.199c-0.87891-0.87891-1.3008-2.0391-1.3008-3.1602l-0.019531-194.52c0-20.039 16.398-36.461 36.461-36.461h232.1c20.082 0 36.461 16.398 36.461 36.461v59.961c75.918-13.602 145.84 44.621 145.84 121.88 0 43.141-18 65.617-36.48 88.699-5.1992 6.4805-10.398 13-15.219 20.082 16.281 9.4414 14.039 33.398-3.3984 39.879 12.34 14.219 2.2617 36.301-16.379 36.578zm-95.684 0.039062c7.3594 48.398 79.258 48.398 86.641 0zm-8.7383-9.0195h104.08c11.52 0 17.602-14.059 9.2812-22.398-2.3594-2.3594-5.5781-3.8398-9.1602-3.8398h-104.34c-11.32 0.058594-17.48 14.039-9.1406 22.398 2.3789 2.3594 5.6797 3.8398 9.2812 3.8398zm21.059-296.18v-61.922c0-15.078-12.359-27.441-27.48-27.441h-232.08c-15.078 0-27.441 12.359-27.441 27.441v187.96h64.039c20.039 0 36.422 16.379 36.422 36.461v65.039h144.62c-4.6211-6.6016-9.5586-12.781-14.48-18.941-18.441-23.078-36.461-45.559-36.461-88.699 0-57.098 38.898-106.02 92.863-119.9zm-282.76 135.06 87.219 88.121v-60.684c0-15.078-12.359-27.441-27.441-27.441z" fill="#ea5b0a"></path></svg>