<svg xmlns="http://www.w3.org/2000/svg" width="512pt" height="512pt" viewBox="0 0 512 512"><path d="m250.92 56.961c11.039 0 21.059 4.5 28.32 11.762l0.039062 0.039063c7.2383 7.2617 11.738 17.281 11.738 28.301 0 11.082-4.5 21.102-11.762 28.359-5.6211 5.6211-12.918 9.5781-21.059 11.082l-6.2188 49.418c8.1406 0.96094 15.859 3.2383 22.961 6.6406l62.637-101.86c-1.4805-1.1211-2.8984-2.3594-4.1992-3.6797-7.2812-7.3008-11.781-17.32-11.781-28.359 0-11.039 4.5-21.059 11.762-28.32l0.039063-0.039063c7.2617-7.2383 17.281-11.738 28.301-11.738 11.039 0 21.059 4.5 28.32 11.762l0.039063 0.039062c7.2383 7.2617 11.738 17.281 11.738 28.301 0 11.082-4.5 21.102-11.762 28.359-7.2383 7.2383-17.301 11.762-28.359 11.762-3.5391 0-6.9805-0.46094-10.238-1.3398l-63.441 103.16c2.5195 1.9414 4.8984 4.0391 7.1406 6.2812 6.582 6.582 11.918 14.398 15.621 23.102l42.281-12.941c-3.5391-8.582-5.4609-17.98-5.4609-27.82 0-20.219 8.1992-38.539 21.441-51.801 13.262-13.262 31.559-21.441 51.777-21.441s38.539 8.1992 51.801 21.441c13.262 13.262 21.441 31.559 21.441 51.801 0 20.219-8.1992 38.539-21.441 51.801l-0.46094 0.42187c-13.219 13-31.359 21.02-51.34 21.02-20.219 0-38.539-8.1992-51.777-21.441-3.1406-3.1406-6-6.582-8.5391-10.238l-45.238 13.879c0.87891 4.5391 1.3594 9.2383 1.3594 14.059 0 6.1211-0.76172 12.082-2.1602 17.762l50.359 74.48c4.8008-2.0391 10.121-3.1797 15.66-3.1797 11.082 0 21.102 4.5 28.359 11.762 7.2383 7.2383 11.762 17.301 11.762 28.359 0 11.039-4.5 21.078-11.762 28.32-7.2812 7.2812-17.32 11.781-28.359 11.781-11.039 0-21.078-4.4805-28.32-11.762-7.2812-7.2812-11.781-17.32-11.781-28.359 0-11.059 4.4805-21.078 11.719-28.34l-44.441-65.719c-3.3594 6.1406-7.582 11.762-12.5 16.68-12.621 12.621-29.801 20.641-48.859 21.398l-32.02 28.238c3.5781 2.4805 6.9414 5.3008 10.02 8.3789 13.262 13.262 21.441 31.559 21.441 51.801 0 20.199-8.1992 38.5-21.48 51.758-13.219 13.281-31.539 21.48-51.758 21.48s-38.539-8.1992-51.801-21.441c-13.262-13.262-21.441-31.559-21.441-51.777s8.1992-38.539 21.441-51.801l0.46094-0.42188c13.219-13 31.359-21.02 51.34-21.02 9.6992 0 18.961 1.8789 27.441 5.3203l25.621-22.621c-13.078-3.2812-24.762-10.039-34-19.281-8.0781-8.0781-14.262-18.039-17.879-29.16l-76.098 16.102c-1.3594 8.5586-5.3984 16.199-11.238 22.059l-0.48047 0.44141c-7.2188 7-17.059 11.301-27.898 11.301-11.082 0-21.102-4.5-28.359-11.762-7.2383-7.2383-11.762-17.301-11.762-28.359 0-11.039 4.4805-21.078 11.762-28.32 7.2383-7.2812 17.301-11.781 28.359-11.781 11.039 0 21.078 4.4805 28.32 11.762 5.1992 5.1992 8.9609 11.781 10.699 19.141l73.496-15.559c-0.26172-2.5195-0.39844-5.0586-0.39844-7.6406 0-16.941 5.7383-32.539 15.398-44.941l-40.281-38.719c-11.16 6.8594-24.262 10.82-38.301 10.82-20.199 0-38.5-8.1992-51.758-21.441-13.281-13.262-21.48-31.582-21.48-51.801s8.1992-38.539 21.441-51.801c13.262-13.262 31.559-21.441 51.801-21.441 20.219 0 38.539 8.1992 51.801 21.441l0.42188 0.46094c13 13.219 21.02 31.359 21.02 51.34 0 20.199-8.1992 38.5-21.441 51.758l-1.2188 1.1992 38.641 37.141c11.121-9.3789 25.102-15.52 40.418-16.922l6.2188-49.379c-7.8008-1.6016-14.801-5.4805-20.238-10.922-7.2812-7.3008-11.781-17.32-11.781-28.359 0-11.039 4.5-21.059 11.762-28.32l0.039063-0.039063c7.2617-7.2383 17.262-11.738 28.301-11.738zm128.32-15.82c-4.4609-4.4609-10.66-7.2383-17.52-7.2383s-13.039 2.7617-17.5 7.2188c-4.4805 4.4805-7.2383 10.68-7.2383 17.52 0 6.8594 2.7617 13.039 7.2383 17.52 2.0195 2 4.3594 3.6797 6.9609 4.8789l0.078124 0.039063 0.10156 0.039063 0.16016 0.10156c3.1211 1.4219 6.5586 2.1797 10.199 2.1797 6.8398 0 13.02-2.7812 17.5-7.2383 4.4805-4.4805 7.2383-10.66 7.2383-17.5 0-6.8594-2.7617-13.039-7.2383-17.52zm-249.2 418.36c3.0391-6.0195 7.3398-11.301 12.52-15.52 8.1992-6.6992 18.68-10.738 30.02-10.738s21.801 4.0391 30 10.738c5.1797 4.2188 9.4609 9.5195 12.52 15.539 9.5391-10.301 15.359-24.102 15.359-39.281 0-15.98-6.4805-30.461-16.961-40.941-10.461-10.461-24.941-16.961-40.922-16.961-15.801 0-30.141 6.3203-40.559 16.582l-0.35938 0.37891c-10.461 10.461-16.961 24.941-16.961 40.941 0 15.141 5.8398 28.961 15.359 39.262zm72.781 10.102c-2.0391-5.3984-5.5-10.141-9.9219-13.738-5.5391-4.5195-12.621-7.2383-20.34-7.2383s-14.801 2.7383-20.359 7.2383c-4.3984 3.6016-7.8789 8.3398-9.9219 13.738 8.8008 5.3984 19.16 8.5391 30.262 8.5391 11.102 0 21.461-3.1211 30.262-8.5195zm-30.262-97.301c7.8398 0 15 3.1992 20.141 8.3398l0.44141 0.5c4.8789 5.1211 7.8984 12.039 7.8984 19.641 0 7.8594-3.1992 15-8.3398 20.141s-12.281 8.3398-20.141 8.3398-15-3.1992-20.141-8.3398-8.3398-12.281-8.3398-20.141c0-7.8398 3.1992-14.961 8.3398-20.102 5.1406-5.1797 12.281-8.3789 20.141-8.3789zm9.2812 19.199c-2.3594-2.3594-5.6602-3.8398-9.2812-3.8398s-6.9219 1.4805-9.2812 3.8398c-2.3789 2.3594-3.8398 5.6406-3.8398 9.2812 0 3.6211 1.4805 6.9219 3.8398 9.2812s5.6602 3.8398 9.2812 3.8398c3.6016 0 6.9219-1.4805 9.2812-3.8398s3.8398-5.6602 3.8398-9.2812c0-3.4805-1.3398-6.6406-3.5195-8.9805zm216.2-21.16c-4.4805-4.4805-10.66-7.2383-17.5-7.2383-6.8398 0-13.02 2.7617-17.5 7.2383-4.4609 4.4609-7.2383 10.66-7.2383 17.5 0 6.8594 2.7617 13.039 7.2383 17.52 4.4609 4.4609 10.66 7.2383 17.52 7.2383s13.039-2.7617 17.52-7.2383c4.4609-4.4609 7.2383-10.66 7.2383-17.52 0-6.8398-2.7812-13.02-7.2383-17.5zm-322.48-96.742c-4.4609-4.4609-10.66-7.2383-17.52-7.2383-6.8398 0-13.02 2.7812-17.5 7.2383-4.4609 4.4609-7.2383 10.66-7.2383 17.5s2.7812 13.02 7.2383 17.5c4.4609 4.4609 10.66 7.2383 17.5 7.2383 6.6602 0 12.719-2.6211 17.18-6.8984l0.33984-0.35938c4.4609-4.4609 7.2383-10.66 7.2383-17.5 0-6.8594-2.7617-13.039-7.2383-17.52zm125.34 24.34c3.0391-6.0195 7.3398-11.301 12.52-15.52 8.1992-6.6992 18.68-10.738 30.02-10.738s21.801 4.0391 30 10.738c5.1797 4.2188 9.4609 9.5195 12.52 15.539 9.5391-10.301 15.359-24.121 15.359-39.281 0-15.98-6.4805-30.461-16.961-40.941-3.1602-3.1602-6.6602-5.9609-10.5-8.3008l-0.16016-0.10156c-8.8008-5.4219-19.18-8.5391-30.281-8.5391-15.98 0-30.461 6.4805-40.941 16.961-10.461 10.461-16.961 24.941-16.961 40.941 0 15.141 5.8398 28.961 15.359 39.262zm72.781 10.102c-2.0391-5.3984-5.5-10.141-9.9219-13.738-5.5391-4.5195-12.621-7.2383-20.34-7.2383s-14.801 2.7383-20.359 7.2383c-4.3984 3.6016-7.8789 8.3398-9.9219 13.738 8.8008 5.3984 19.16 8.5391 30.262 8.5391 11.102 0 21.461-3.1211 30.262-8.5195zm-30.262-97.301c7.8398 0 15 3.1992 20.141 8.3398l0.44141 0.5c4.8789 5.1211 7.8984 12.02 7.8984 19.641 0 7.8398-3.1992 15-8.3398 20.141s-12.281 8.3398-20.141 8.3398c-7.8398 0-14.961-3.1992-20.102-8.3398-5.1797-5.1406-8.3789-12.281-8.3789-20.141 0-7.8398 3.1992-14.961 8.3398-20.102 5.1797-5.1797 12.281-8.3789 20.141-8.3789zm9.2812 19.199c-2.3594-2.3594-5.6602-3.8398-9.2812-3.8398-3.6406 0-6.9219 1.4609-9.3008 3.8203-2.3594 2.3594-3.8203 5.6602-3.8203 9.3008 0 3.6016 1.4805 6.9219 3.8398 9.2812 2.3594 2.3789 5.6406 3.8398 9.2812 3.8398 3.6016 0 6.9219-1.4805 9.2812-3.8398s3.8398-5.6602 3.8398-9.2812c0-3.4805-1.3398-6.6406-3.5195-8.9805zm125.64-1.4414c3.0391-6.0195 7.3203-11.301 12.5-15.52 8.2188-6.6992 18.699-10.738 30.02-10.738 11.34 0 21.801 4.0391 30 10.719 5.1797 4.2188 9.4805 9.5195 12.52 15.539 9.5195-10.32 15.359-24.121 15.359-39.281 0-15.98-6.4805-30.461-16.961-40.941-10.461-10.461-24.941-16.961-40.941-16.961-15.98 0-30.461 6.4805-40.922 16.961-10.461 10.461-16.961 24.941-16.961 40.941 0 15.16 5.8203 28.941 15.34 39.262zm72.801 10.102c-2.0391-5.3984-5.5-10.16-9.9219-13.762-5.5391-4.5195-12.641-7.2383-20.34-7.2383-7.7188 0-14.801 2.7383-20.359 7.2383-4.3984 3.6016-7.8594 8.3398-9.8984 13.738 8.8008 5.3984 19.16 8.5391 30.262 8.5391 11.102 0 21.461-3.1211 30.262-8.5zm-30.262-97.301c7.8398 0 14.961 3.1992 20.102 8.3398 5.1797 5.1406 8.3789 12.281 8.3789 20.141 0 7.8398-3.1992 14.961-8.3398 20.102-5.1797 5.1797-12.281 8.3789-20.141 8.3789-7.8398 0-15-3.1992-20.141-8.3398l-0.44141-0.5c-4.8789-5.1211-7.8984-12.039-7.8984-19.641 0-7.8594 3.1992-15 8.3398-20.141 5.1406-5.1406 12.281-8.3398 20.141-8.3398zm9.2812 19.199c-2.3594-2.3594-5.6602-3.8398-9.2812-3.8398-3.6016 0-6.9219 1.4805-9.2812 3.8398-2.3594 2.3594-3.8398 5.6602-3.8398 9.2812 0 3.4805 1.3398 6.6406 3.5195 8.9805l0.32031 0.30078c2.3594 2.3594 5.6602 3.8398 9.2812 3.8398 3.6406 0 6.9219-1.4609 9.3008-3.8203 2.3594-2.3594 3.8203-5.6602 3.8203-9.3008 0-3.6016-1.4805-6.9219-3.8398-9.2812zm-365.66-8.6016c3.0391-6.0195 7.3203-11.32 12.5-15.52 8.2188-6.6992 18.68-10.738 30.02-10.738 11.34 0 21.801 4.0391 30 10.738 5.1797 4.2188 9.4805 9.5195 12.52 15.559 9.5195-10.301 15.359-24.121 15.359-39.301 0-15.801-6.3203-30.141-16.582-40.559l-0.37891-0.35938c-10.461-10.461-24.941-16.961-40.941-16.961-15.98 0-30.461 6.4805-40.941 16.961-10.461 10.461-16.961 24.941-16.961 40.941 0 15.141 5.8398 28.961 15.359 39.262zm72.801 10.102c-2.0391-5.3984-5.5-10.16-9.9219-13.738-5.5391-4.5195-12.641-7.2383-20.34-7.2383-7.7188 0-14.801 2.7383-20.359 7.2383-4.3984 3.6016-7.8789 8.3398-9.8984 13.738 8.8008 5.3984 19.16 8.5195 30.262 8.5195s21.461-3.1211 30.262-8.5zm-30.262-97.301c7.8398 0 15 3.1992 20.141 8.3398s8.3398 12.281 8.3398 20.141c0 7.8398-3.1992 15-8.3398 20.141s-12.281 8.3398-20.141 8.3398c-7.8398 0-14.961-3.1992-20.102-8.3398-5.1797-5.1406-8.3789-12.281-8.3789-20.141 0-7.8398 3.1992-15 8.3398-20.141l0.5-0.44141c5.1211-4.8789 12.02-7.8984 19.641-7.8984zm9.2812 19.199c-2.3594-2.3594-5.6602-3.8398-9.2812-3.8398-3.4805 0-6.6406 1.3398-8.9805 3.5195l-0.30078 0.32031c-2.3594 2.3594-3.8398 5.6602-3.8398 9.2812 0 3.6016 1.4805 6.9219 3.8398 9.2812 2.3594 2.3789 5.6406 3.8398 9.2812 3.8398 3.6016 0 6.9219-1.4805 9.2812-3.8398s3.8398-5.6602 3.8398-9.2812c0-3.6211-1.4805-6.9219-3.8398-9.2812zm152.18-4.2812c-4.4609-4.4609-10.66-7.2383-17.52-7.2383s-13.039 2.7617-17.5 7.2188c-4.4805 4.4805-7.2383 10.68-7.2383 17.52 0 6.8594 2.7617 13.039 7.2383 17.52 4.4609 4.4609 10.66 7.2383 17.52 7.2383 6.8398 0 13.02-2.7812 17.5-7.2383 4.4805-4.4805 7.2383-10.66 7.2383-17.5 0-6.8594-2.7617-13.039-7.2383-17.52z" fill="#ea5b0a"></path></svg>