<svg xmlns="http://www.w3.org/2000/svg" width="512pt" height="512pt" viewBox="0 0 512 512"><path d="m512 256c0 141.39-114.61 256-256 256s-256-114.61-256-256 114.61-256 256-256 256 114.61 256 256" fill="#ea5b0a"></path><path d="m407.09 320.12c-0.33984-1.957-2.2031-3.2695-4.1641-2.9336l-123.16 21.414c-0.72266-2.7305-1.7148-5.3555-2.9609-7.8398l111.27-19.352c1.9609-0.33984 3.2695-2.207 2.9336-4.1641l-21.266-122.31c-0.16406-0.94141-0.69531-1.7812-1.4727-2.3281-0.77734-0.55078-1.7461-0.76562-2.6914-0.60547l-131.81 22.922c-0.94141 0.16406-1.7812 0.69531-2.3281 1.4727-0.55078 0.78125-0.76562 1.75-0.60547 2.6914l17.398 100.05c-3.6445-0.70703-7.3906-0.91406-11.16-0.58984l-28.656-164.8c-1.5508-8.9297-10.086-14.93-19.012-13.379l-9.5039 1.6523c-2.8398-6.7227-10.035-10.875-17.531-9.5703l-44.227 7.6914c-4.207 0.73047-7.8867 3.0664-10.355 6.5781-2.4727 3.5117-3.4297 7.7617-2.6953 11.969 0.73047 4.207 3.0664 7.8867 6.5781 10.355 2.7422 1.9297 5.9336 2.9336 9.207 2.9336 0.91797 0 1.8398-0.082031 2.7617-0.23828l44.23-7.6914c7.4922-1.3047 12.867-7.6406 13.262-14.93l9.5039-1.6523c5.0195-0.875 9.8086 2.5 10.68 7.5156l28.656 164.8c-9.2227 2.4453-17.219 7.9922-22.777 15.887-6.2539 8.8867-8.6719 19.676-6.8125 30.379 3.4375 19.754 20.66 33.715 40.055 33.715 2.3047 0 4.6406-0.19922 6.9883-0.60547 10.703-1.8594 20.043-7.7773 26.301-16.668 5.5586-7.8945 8.0781-17.297 7.2656-26.801l123.16-21.414c1.9609-0.33594 3.2734-2.1992 2.9336-4.1602zm-240.45-173.16-44.227 7.6914c-4.7969 0.83203-9.3828-2.3906-10.219-7.1914-0.40234-2.3125 0.12891-4.6523 1.4922-6.5898s3.3906-3.2266 5.6992-3.6289l44.227-7.6914c0.51172-0.085937 1.0195-0.13281 1.5195-0.13281 4.2109 0 7.9531 3.0312 8.6992 7.3203 0.83203 4.8047-2.3945 9.3867-7.1914 10.223zm152.02 74.402-27.441 4.7734-4.0312-23.18 27.441-4.7734zm-80.105-9.9492 41.539-7.2227 4.6484 26.73c0.16406 0.94141 0.69531 1.7812 1.4727 2.3281 0.60937 0.42969 1.3359 0.65625 2.0742 0.65625 0.20312 0 0.41406-0.015625 0.61719-0.054688l34.539-6.0039c1.9609-0.33984 3.2695-2.207 2.9336-4.1641l-4.6484-26.73 41.539-7.2227 20.031 115.21-110.65 19.242c-2.457-3.1641-5.3984-5.9805-8.7656-8.3516-2.5039-1.7617-5.1641-3.2109-7.9297-4.3516zm29.293 156.95c-5.1445 7.3125-12.832 12.184-21.641 13.715-1.9297 0.33594-3.8516 0.49609-5.75 0.49609-15.965 0-30.137-11.488-32.961-27.742-3.1602-18.188 9.0625-35.555 27.246-38.715 1.9375-0.33594 3.8789-0.50391 5.8086-0.50391 6.8359 0 13.492 2.0938 19.195 6.1094 7.3125 5.1445 12.184 12.832 13.715 21.641 1.5234 8.8125-0.46875 17.688-5.6133 25zm-30.383-36.562c-9.5391 1.6602-15.945 10.77-14.293 20.305 1.4805 8.5234 8.9141 14.551 17.289 14.551 0.99609 0 2.0039-0.082031 3.0156-0.26172 4.6211-0.80469 8.6523-3.3594 11.348-7.1914 2.6953-3.8359 3.7422-8.4922 2.9375-13.113-1.6523-9.5391-10.766-15.949-20.297-14.289zm4.7812 27.496c-5.6211 0.97656-10.996-2.8008-11.973-8.4258-0.97656-5.625 2.8008-10.996 8.4258-11.973 0.59766-0.10547 1.1914-0.15625 1.7812-0.15625 4.9375 0 9.3203 3.5547 10.195 8.582 0.97266 5.625-2.8047 10.996-8.4297 11.973zm91.375-54.184c0.16406 0.94141 0.69531 1.7812 1.4727 2.3281 0.60938 0.42969 1.3359 0.65625 2.0742 0.65625 0.20313 0 0.41406-0.015625 0.61719-0.054687l34.539-6.0039c1.9609-0.33984 3.2695-2.207 2.9336-4.1641l-2.0508-11.809c-0.16406-0.94141-0.69531-1.7812-1.4727-2.3281-0.77734-0.55078-1.7461-0.76562-2.6914-0.60547l-34.547 6.0039c-1.9609 0.33984-3.2695 2.207-2.9336 4.1641zm33.102-14.266 0.82031 4.707-27.441 4.7734-0.82031-4.707z" fill="#fff"></path></svg>