<svg xmlns="http://www.w3.org/2000/svg" width="512pt" height="512pt" viewBox="0 0 512 512"><path d="m187.09 414c-46.336-7.4688-88.578-31.473-118.95-67.586-30.656-36.449-47.008-82.781-46.043-130.46 1.9141-94.301 70.688-174.14 163.54-189.84 3.2656-0.55078 5.4688-3.6484 4.9141-6.918-0.55078-3.2695-3.6523-5.4727-6.918-4.918-98.52 16.664-171.5 101.38-173.53 201.43-1.0273 50.586 16.324 99.746 48.855 138.42 32.227 38.312 77.051 63.781 126.23 71.707 0.32422 0.050781 0.64453 0.078125 0.96094 0.078125 2.8945 0 5.4414-2.0977 5.918-5.0469 0.52734-3.2695-1.6953-6.3516-4.9688-6.8789z" fill="#ea5b0a"></path><path d="m490.04 439.01-61.625-60.93c-5.1445-5.0859-12.344-6.8008-18.895-5.2031l-25.723-25.434c26.41-34.207 42.43-76.867 43.371-123.28 1.1289-55.703-19.5-108.51-58.09-148.7s-90.516-62.938-146.22-64.066h-0.125c-3.2578 0-5.9297 2.6055-5.9961 5.8789-0.066406 3.3125 2.5625 6.0547 5.8789 6.1211 52.496 1.0625 101.44 22.508 137.8 60.383s55.812 87.645 54.746 140.14c-2.125 104.82-85.801 189.38-190.5 192.51-3.3125 0.097656-5.918 2.8633-5.8164 6.1758 0.097657 3.25 2.7617 5.8203 5.9922 5.8203 0.0625 0 0.12109 0 0.18359-0.003907 46.453-1.3867 89-17.887 122.96-44.742l25.715 25.426c-1.5234 6.5664 0.26953 13.746 5.418 18.832l61.625 60.93c7.8867 7.7969 20.598 7.7266 28.395-0.16016l21.062-21.305c7.7969-7.8867 7.7266-20.598-0.16016-28.395zm-113.88-82.242 22.801 22.543-18.949 19.164-22.797-22.539c6.7188-5.9766 13.051-12.375 18.945-19.168z" fill="#ea5b0a"></path><path d="m383.37 288.71c1.2773-3.0586-0.16406-6.5703-3.2227-7.8516-3.0625-1.2773-6.5742 0.16406-7.8516 3.2227-3.9766 9.5156-8.7617 18.512-14.25 26.934-2.8398-1.5312-5.7812-3.0234-8.8438-4.4688-12.465-5.8711-26.371-10.785-41.297-14.707 3.75-18.656 6.0078-38.578 6.6758-59.133h70.035c-0.53125 7.0039-1.5 13.961-2.8945 20.789-0.66406 3.2461 1.4297 6.418 4.6758 7.082 3.25 0.66406 6.418-1.4297 7.082-4.6758 2.4062-11.758 3.625-23.855 3.625-35.965 0-98.418-80.07-178.49-178.49-178.49-98.418-0.003906-178.49 80.066-178.49 178.48s80.07 178.49 178.49 178.49c72.23 0 136.9-43.062 164.75-109.71zm-68.789-81.52c-0.66797-20.547-2.9258-40.469-6.6758-59.121 14.926-3.9258 28.832-8.8438 41.297-14.719 3.0312-1.4297 5.9414-2.9062 8.7539-4.4219 14.961 22.832 24.477 49.539 26.664 78.262zm27.543-98.777c-1.2461 0.625-2.5117 1.2461-3.8086 1.8594-10.977 5.1758-23.262 9.5234-36.488 13.031-3.5508-12.137-7.7773-23.531-12.672-33.914-4.7656-10.117-10.031-19.023-15.711-26.66 26.605 9.3086 50.152 25.18 68.68 45.68zm-123.49 275.75c-16.812 0-34.105-16.23-47.445-44.512-4.1094-8.7227-7.6914-18.273-10.758-28.453 18.367-3.1328 37.992-4.7734 58.203-4.7734 20.211 0 39.836 1.6445 58.203 4.7734-3.0664 10.176-6.6484 19.73-10.758 28.453-13.34 28.281-30.633 44.512-47.445 44.512zm0-103.25c-22.289 0-44 1.8945-64.363 5.4922-3.3633-16.875-5.4141-34.961-6.0586-53.691h140.84c-0.64453 18.73-2.6953 36.812-6.0586 53.691-20.363-3.5977-42.074-5.4922-64.363-5.4922zm0-225.15c16.812 0 34.105 16.23 47.445 44.512 4.1094 8.7227 7.6914 18.273 10.758 28.453-18.367 3.1328-37.992 4.7734-58.203 4.7734-20.211 0-39.836-1.6445-58.203-4.7734 3.0664-10.176 6.6484-19.73 10.758-28.453 13.34-28.281 30.633-44.512 47.445-44.512zm0 103.25c22.289 0 44-1.8984 64.363-5.4961 3.3633 16.875 5.4141 34.957 6.0586 53.68h-140.84c0.64453-18.723 2.6953-36.805 6.0586-53.68 20.363 3.5977 42.074 5.4961 64.363 5.4961zm-54.801-96.293c-5.6836 7.6406-10.957 16.551-15.723 26.676-4.8945 10.383-9.1211 21.773-12.672 33.914-13.223-3.5078-25.512-7.8555-36.488-13.031-1.3047-0.61719-2.5781-1.2422-3.832-1.8711 18.535-20.508 42.098-36.383 68.719-45.684zm-84.539 248.26c-14.969-22.832-24.492-49.539-26.684-78.27h70.078c0.66797 20.551 2.9258 40.477 6.6758 59.133-14.926 3.9258-28.832 8.8398-41.297 14.707-3.0352 1.4297-5.9531 2.9102-8.7695 4.4297zm43.391-103.79h-70.07c2.1836-28.734 11.703-55.445 26.672-78.277 2.8203 1.5195 5.7422 3.0039 8.7812 4.4375 12.465 5.875 26.371 10.793 41.297 14.719-3.75 18.652-6.0117 38.574-6.6758 59.121zm-27.543 124.3c1.2461-0.625 2.5117-1.2461 3.8086-1.8594 10.977-5.1758 23.262-9.5273 36.488-13.031 3.5508 12.137 7.7773 23.531 12.672 33.914 4.7578 10.098 10.016 18.992 15.676 26.617-26.59-9.3008-50.125-25.16-68.645-45.641zm178.28 45.711c5.6836-7.6445 10.961-16.559 15.73-26.691 4.8945-10.383 9.1211-21.773 12.672-33.914 13.223 3.5078 25.512 7.8555 36.488 13.031 1.3398 0.63281 2.6445 1.2734 3.9297 1.9219-18.727 20.77-42.398 36.477-68.82 45.648z" fill="#ea5b0a"></path></svg>