<svg xmlns="http://www.w3.org/2000/svg" width="512pt" height="512pt" viewBox="0 0 512 512"><path d="m224.97 169.62c0 3.2773-2.6641 5.9375-5.9375 5.9375l-195.43 0.003906c-3.2773 0-5.9375-2.6641-5.9375-5.9375 0-3.2773 2.6641-5.9375 5.9375-5.9375h195.43c3.2773 0.046875 5.9414 2.6562 5.9414 5.9336zm-201.37 45.57h97.691c3.2773 0 5.9375-2.6641 5.9375-5.9375 0-3.2773-2.6641-5.9375-5.9375-5.9375l-97.691-0.003906c-3.2773 0-5.9375 2.6641-5.9375 5.9375 0 3.2773 2.6641 5.9414 5.9375 5.9414zm195.43-11.879h-61.594c-3.2773 0-5.9375 2.6641-5.9375 5.9375 0 3.2773 2.6641 5.9375 5.9375 5.9375h61.543c3.2773 0 5.9375-2.6641 5.9375-5.9375 0-3.2773-2.6133-5.9375-5.8867-5.9375zm0 39.629h-195.43c-3.2773 0-5.9375 2.6641-5.9375 5.9375 0 3.2773 2.6641 5.9375 5.9375 5.9375h195.43c3.2773 0 5.9375-2.6641 5.9375-5.9375 0.003906-3.2773-2.6602-5.9375-5.9336-5.9375zm-27.754 45.566c0-3.2773-2.6641-5.9375-5.9375-5.9375h-161.74c-3.2773 0-5.9375 2.6641-5.9375 5.9375 0 3.2773 2.6641 5.9375 5.9375 5.9375l161.74 0.003906c3.2773 0 5.9375-2.6641 5.9375-5.9414zm95.746-59.441c0 3.2773 2.6641 5.9375 5.9375 5.9375h195.43c3.2773 0 5.9375-2.6641 5.9375-5.9375 0-3.2773-2.6641-5.9375-5.9375-5.9375l-195.43-0.003906c-3.2734 0-5.9375 2.6641-5.9375 5.9414zm5.9375 33.688c-3.2773 0-5.9375 2.6641-5.9375 5.9375 0 3.2773 2.6641 5.9375 5.9375 5.9375h61.543c3.2773 0 5.9375-2.6641 5.9375-5.9375 0-3.2773-2.6641-5.9375-5.9375-5.9375zm195.43 0h-97.691c-3.2773 0-5.9375 2.6641-5.9375 5.9375 0 3.2773 2.6641 5.9375 5.9375 5.9375h97.742c3.2773 0 5.9375-2.6641 5.9375-5.9375 0-3.2734-2.7148-5.9375-5.9883-5.9375zm0 39.629h-195.43c-3.2773 0-5.9375 2.6641-5.9375 5.9375 0 3.2773 2.6641 5.9375 5.9375 5.9375h195.43c3.2773 0 5.9375-2.6641 5.9375-5.9375 0.003907-3.2734-2.6602-5.9375-5.9336-5.9375zm0 39.578h-153.45c-3.2773 0-5.9375 2.6641-5.9375 5.9375 0 3.2773 2.6641 5.9375 5.9375 5.9375h153.45c3.2773 0 5.9375-2.6641 5.9375-5.9375 0.003907-3.2734-2.6602-5.9375-5.9336-5.9375zm-278.99 100.45v45.414c0 3.2773-2.6641 5.9375-5.9375 5.9375l-145.36 0.003907c-3.2773 0-5.9375-2.6641-5.9375-5.9375v-45.414c0-27.648 21.965-50.277 49.406-51.301-10.496-8.5-17.203-21.504-17.203-36.043 0-25.602 20.84-46.387 46.387-46.387 25.602 0 46.387 20.84 46.387 46.387 0 14.539-6.707 27.496-17.203 36.043 27.441 1.0195 49.457 23.648 49.457 51.297zm-78.59-52.785c19.047 0 34.508-15.512 34.508-34.508s-15.512-34.508-34.508-34.508c-19.047 0-34.508 15.512-34.508 34.508 0 18.992 15.461 34.508 34.508 34.508zm66.715 52.785c0-21.762-17.715-39.477-39.477-39.477l-54.527 0.003906c-21.762 0-39.477 17.715-39.477 39.477v39.477h133.48zm114.79-245.04v-45.414c0-27.648 21.965-50.277 49.406-51.301-10.496-8.5-17.203-21.504-17.203-36.043 0-25.602 20.84-46.387 46.387-46.387 25.602 0 46.387 20.84 46.387 46.387 0 14.539-6.707 27.496-17.203 36.043 27.391 1.0234 49.406 23.656 49.406 51.301v45.414c0 3.2773-2.6641 5.9375-5.9375 5.9375l-145.3 0.003906c-3.2773-0.050781-5.9375-2.6641-5.9375-5.9414zm78.59-98.25c19.047 0 34.508-15.512 34.508-34.508 0-18.996-15.512-34.508-34.508-34.508-19.047 0-34.508 15.512-34.508 34.508 0 18.992 15.465 34.508 34.508 34.508zm-66.711 92.312h133.48v-39.477c0-21.762-17.715-39.477-39.477-39.477l-54.527 0.003906c-21.762 0-39.477 17.715-39.477 39.477zm120.83 202.24c-0.30859-3.2773-3.1758-5.6836-6.4531-5.375l-26.316 2.3047c-3.2773 0.30859-5.6836 3.1758-5.375 6.4531 0.30859 3.2773 3.1758 5.6836 6.4531 5.375l11.828-1.0234c-56.578 63.844-117.36 87.242-190.41 73.625-3.2266-0.61328-6.2969 1.5352-6.9102 4.7617s1.5352 6.2969 4.7617 6.9102c14.234 2.6641 28.059 3.9922 41.422 3.9922 59.75 0 111.67-26.676 160.41-81.867l1.0742 12.238c0.25781 3.0703 2.8672 5.4258 5.8867 5.4258h0.51172c3.2773-0.30859 5.6836-3.1758 5.375-6.4531zm-364.09-261.02c0.25781 3.0703 2.8672 5.4258 5.8867 5.4258h0.51172l26.316-2.3047c3.2773-0.30859 5.6836-3.1758 5.375-6.4531s-3.1758-5.6836-6.4531-5.375l-11.828 1.0234c56.637-63.844 117.41-87.293 190.47-73.676 3.2266 0.61328 6.2969-1.5352 6.9102-4.7617 0.61328-3.2266-1.5352-6.2969-4.7617-6.9102-77.773-14.488-142.13 10.293-201.83 77.875l-1.0742-12.188c-0.30859-3.2773-3.1758-5.6836-6.4531-5.375-3.2773 0.30859-5.6836 3.1758-5.375 6.4531z" fill="#ea5b0a"></path></svg>