<svg xmlns="http://www.w3.org/2000/svg" width="512pt" height="512pt" viewBox="0 0 512 512"><path d="m208.78 133.26-0.14062-1.0391c-0.55859-3.0586-2.2617-5.6797-4.5781-7.418-2.4609-1.8398-5.6602-2.7617-8.9805-2.2812-3.2812 0.46094-6.0781 2.2188-7.9219 4.6602-1.8594 2.4609-2.7617 5.6602-2.2812 9 0.46094 3.2812 2.2188 6.0781 4.6602 7.9219 2.3203 1.7383 5.3203 2.6602 8.4414 2.3594l0.98047-0.14063c3.1016-0.55859 5.7188-2.2617 7.4805-4.5781 1.7383-2.3203 2.6406-5.3203 2.3398-8.4414zm263.56 16.238c1.1406 8.7188-1.3203 17.16-6.2422 23.699-1.1602 1.5586-2.4609 3-3.8984 4.3203 2.3203 6.2617 4.3984 12.68 6.1992 19.281 2.4414 8.8594 4.3594 18.039 5.6992 27.52l0.039063 0.32031c1.1406 8.0586 1.8203 16.238 2.0781 24.398 0.17969 5.7617 0.14062 11.422-0.10156 16.961 2.0391 0.96094 3.9805 2.1211 5.7812 3.4609 6.6602 5 11.422 12.539 12.68 21.398l0.039062 0.42188c1.1406 8.6992-1.3398 17.121-6.2617 23.66-5 6.6602-12.559 11.422-21.441 12.68-0.87891 0.12109-1.7617 0.21875-2.6406 0.26172-5.1797 15.078-11.98 29.52-20.199 43.059-9.6211 15.879-21.18 30.5-34.34 43.461-4.0195 3.9414-10.5 3.8984-14.441-0.12109-3.9414-4.0195-3.8984-10.5 0.12109-14.441 12.02-11.84 22.52-25.121 31.219-39.461 7.2188-11.898 13.219-24.582 17.879-37.82-0.55859-0.35938-1.1016-0.76172-1.6406-1.1602-6.6602-5-11.422-12.539-12.68-21.441l-0.12109-1c-26.422-5.0586-53.16-8.6797-80.102-10.84-29.762-2.3984-59.48-3.0195-88.98-1.8398-5.6406 0.21875-10.379-4.1797-10.602-9.8008-0.21875-5.6406 4.1797-10.379 9.8008-10.602 30.559-1.2188 61.102-0.60156 91.383 1.8398 27.559 2.2188 55.219 6 82.781 11.301l0.80078-1.3008c-11.379-13.18-23.48-25.48-36.18-36.84-12.859-11.48-26.461-22.102-40.66-31.781-4.4609 3.6797-9.9805 6.2422-16.121 7.1211-8.8594 1.2617-17.418-1.1992-24.059-6.1992-1.4414-1.0781-2.7812-2.2812-4.0195-3.5781-16.602 8.5-32.68 17.961-48.18 28.32-15.539 10.398-30.48 21.699-44.699 33.84 1.0586 2.5195 1.8203 5.2188 2.2188 8.0586 1.2617 8.8398-1.2188 17.398-6.1992 24.039-3.1797 4.2383-7.3984 7.6992-12.32 10 1.5195 20.441 3.6797 40.781 6.4219 60.957 2.7617 20.219 6.1016 40.359 10.059 60.359 5.2617 0.85938 10.18 3 14.359 6.1211 6.1992 4.6602 10.762 11.559 12.379 19.66 4.1992 0.12109 8.3984 0.10156 12.559-0.058593 6.9805-0.26172 14.121-0.89844 21.359-1.9219 7.7383-1.1016 15.262-2.6016 22.539-4.4805 7.5391-1.9609 14.84-4.3008 21.82-6.9805 5.2617-2 11.16 0.62109 13.16 5.8789 2 5.2617-0.62109 11.16-5.8789 13.16-7.8398 3.0195-15.859 5.6016-23.98 7.6992-8.1406 2.1016-16.441 3.7812-24.84 4.9805-7.7617 1.1016-15.602 1.7812-23.441 2.0781-5.3594 0.19922-10.68 0.19922-15.879 0.019531-0.92188 1.9219-2.0391 3.7383-3.3203 5.4414-5 6.6602-12.559 11.422-21.441 12.68l-0.17969 0.019532c-8.7812 1.1992-17.262-1.2812-23.859-6.2422-6.6602-5-11.422-12.52-12.68-21.379l-0.039063-0.42188-0.14062-1.1602c-12.461-4.1211-24.461-9.3008-35.859-15.441-11.781-6.3594-22.961-13.762-33.379-22.078-2.5 1.0586-5.1992 1.8008-8.0195 2.1992-8.8398 1.2617-17.398-1.2188-24.039-6.2188-6.6602-5-11.422-12.559-12.68-21.441-0.92188-6.5586 0.19922-12.961 2.8594-18.52-4.3594-6.0391-8.4609-12.398-12.262-19.02-3.5586-6.1797-6.8398-12.559-9.8008-19.082-7.6016 0.28125-14.82-2.1602-20.621-6.5-6.6602-5-11.422-12.539-12.68-21.398-1.2617-8.8594 1.1992-17.418 6.1992-24.059 2.5586-3.3984 5.7812-6.3008 9.5195-8.5l-0.10156-0.71875c-1.3203-9.5391-2.0391-19.16-2.1211-28.762-0.10156-10 0.44141-19.762 1.6016-29.199 0.67969-5.6016 5.8008-9.6016 11.398-8.9219 5.6016 0.67969 9.6016 5.8008 8.9219 11.398-1.0781 8.8789-1.6016 17.762-1.5195 26.559 0.078125 8.2617 0.69922 16.738 1.8594 25.34 5.8594 0.66016 11.34 2.8984 15.922 6.3398 2.6016 1.9609 4.9219 4.3203 6.8594 6.9805 13.68-4 27.359-7.6211 40.98-10.801l0.42188-0.10156c13.738-3.1992 27.68-6.0391 41.758-8.5 0.78125-5.5 2.9609-10.621 6.1992-14.941 4.0391-5.3789 9.7383-9.5195 16.48-11.578-0.21875-14.219-0.14063-28.441 0.21875-42.66 0.37891-14.641 1.0586-29.02 2-43.141-2.3984-1.0391-4.6797-2.3398-6.7617-3.8984-6.1406-4.6211-10.68-11.398-12.32-19.398-7.9609-0.62109-15.941-1-23.898-1.1406-8-0.14063-16.102-0.039063-24.32 0.33984-1.1016 3.9609-2.9219 7.6602-5.3594 10.898-5 6.6602-12.559 11.422-21.441 12.68-5.4609 0.78125-10.82 0.12109-15.68-1.6602-1.6602 3.1406-3.1992 6.2812-4.6211 9.3984-2.7383 6-5.2383 12.262-7.4414 18.719-1.8008 5.3398-7.6211 8.2188-12.961 6.3984-5.3398-1.8008-8.2188-7.6211-6.3984-12.961 2.3789-6.9414 5.1211-13.84 8.2383-20.641 2.1992-4.8203 4.5195-9.4609 6.9609-13.941-2.4414-3.8203-4.1406-8.1992-4.8203-12.98-1.2617-8.8398 1.2188-17.379 6.2188-24.039s12.539-11.422 21.398-12.68l0.35938-0.039063c4.4414-0.57812 8.8008-0.23828 12.879 0.89844 11.602-11.918 24.582-22.602 38.719-31.738 13.578-8.8008 28.219-16.18 43.738-21.898 0.23828-6.7383 2.6211-13.078 6.5195-18.262 5-6.6602 12.539-11.422 21.398-12.68l0.37891-0.039063c8.7188-1.1406 17.141 1.3398 23.68 6.2617 4.0195 3.0195 7.3398 6.9609 9.6211 11.559 38.18-2.6992 75.102 4.5195 108.02 19.578 33.859 15.5 63.477 39.32 85.863 69.18 1.1602-0.30078 2.3594-0.53906 3.5781-0.71875 8.8398-1.2383 17.398 1.1992 24.039 6.2188 6.6602 5 11.422 12.539 12.68 21.398l0.039062 0.35937zm-28.781 36.52c-8.4414 0.92188-16.582-1.5391-22.961-6.3398-3.6797-2.7617-6.7617-6.2812-9.0195-10.379-6.9414 1.8203-13.84 3.7812-20.68 5.8984-6.9609 2.1602-13.898 4.4805-20.82 6.9805 0.19922 3.3008-0.12109 6.5586-0.87891 9.6406 15.102 10.262 29.602 21.578 43.379 33.879 13.66 12.199 26.559 25.32 38.559 39.262 1.4805-0.53906 3.0195-1 4.6016-1.3203 0.17969-4.7188 0.21875-9.3984 0.078125-14.039-0.21875-7.1992-0.85938-14.582-1.8984-22.102l-0.039063-0.30078c-1.1992-8.4805-2.9609-16.859-5.1797-25.039-1.4609-5.4609-3.1797-10.859-5.1016-16.16zm-35.641-36.859c0.78125-5.5 2.9609-10.621 6.1992-14.941l0.64062-0.82031c-20.262-26.66-46.84-47.898-77.117-61.758-29.461-13.5-62.5-20.039-96.703-17.859-0.92188 5-3 9.6602-6 13.641-4.9219 6.5586-12.34 11.281-21.059 12.621-0.62109 4.0781-1.2383 8.2383-1.8203 12.461-0.57812 4.0391-1.1406 8.2188-1.6797 12.52 2.0781 0.96094 4.0391 2.1406 5.8789 3.5195 6.6602 5 11.422 12.559 12.68 21.441l0.019531 0.17969 0.039063 0.21875c14.859 3.4805 29.5 7.7617 43.879 12.82 14.398 5.0781 28.5 10.941 42.219 17.52 4.7617-4.6016 10.961-7.8008 18-8.7812 8.8398-1.2617 17.398 1.1992 24.039 6.1992 1.9805 1.4805 3.7812 3.1992 5.3789 5.1016 7.3594-2.6602 14.82-5.1602 22.379-7.5 7.582-2.3398 15.281-4.5195 23.02-6.5195zm41.82 11.82c1.8008-2.3984 2.7188-5.5 2.3203-8.7617l-0.039063-0.19922c-0.48047-3.3008-2.2383-6.1211-4.6797-7.9609-2.4609-1.8594-5.6602-2.7617-8.9805-2.3008-3.2812 0.46094-6.0781 2.2188-7.9219 4.6797-1.7383 2.3203-2.6602 5.3203-2.3594 8.4609l0.14062 1c0.55859 3.1016 2.2617 5.7188 4.5781 7.4609 2.3203 1.7383 5.3203 2.6406 8.4414 2.3398l1.0586-0.14062c3.0586-0.55859 5.6797-2.2617 7.418-4.5781zm22.262 141.74c1.7383-2.3203 2.6602-5.3203 2.3594-8.4414l-0.14062-0.98047c-0.55859-3.1016-2.2617-5.7188-4.6016-7.4805-2.3398-1.7617-5.3398-2.6602-8.4609-2.3398l-1.0195 0.14063c-3.0781 0.55859-5.6797 2.2617-7.418 4.5781-1.8594 2.4609-2.7617 5.6602-2.3008 8.9805 0.46094 3.2812 2.2188 6.0781 4.6797 7.9219 2.4609 1.8398 5.6602 2.7617 9 2.2812 3.2812-0.46094 6.0781-2.2188 7.9219-4.6602zm-360.78-190.76c1.8203 2.3789 3.3203 5.0195 4.4219 7.8594 8.5-0.35938 17.078-0.48047 25.699-0.32031 8.7188 0.14062 17.379 0.57812 25.961 1.2617 0.96094-2.0391 2.1211-3.9805 3.4805-5.7812 4.5781-6.1016 11.34-10.621 19.281-12.301 0.53906-4.2188 1.1406-8.5586 1.7617-13 0.60156-4.2812 1.2383-8.6406 1.9219-13.078-1.5-0.80078-2.9219-1.7188-4.2812-2.7188-2.7812-2.1016-5.2383-4.6211-7.2383-7.5195-13.621 5.1211-26.461 11.621-38.359 19.32-11.84 7.6211-22.762 16.461-32.66 26.281zm-16.199 26.941c1.8398-2.4609 2.7617-5.6602 2.3008-9-0.46094-3.2812-2.2188-6.0781-4.6797-7.9219-2.3984-1.8008-5.5195-2.7188-8.7617-2.3203l-0.19922 0.039062c-3.3008 0.46094-6.1016 2.2188-7.9414 4.6602-1.8398 2.4609-2.7617 5.6602-2.3008 8.9805 0.46094 3.2812 2.2188 6.0781 4.6797 7.9219 2.4609 1.8398 5.6602 2.7617 9 2.2812 3.2812-0.46094 6.0781-2.2188 7.8984-4.6602zm-12.918 176.64c-0.10156 7.0195-2.4805 13.66-6.5391 19.039-1.6211 2.1797-3.5391 4.1406-5.6602 5.8398 2.5391 5.5195 5.3203 10.879 8.3008 16.059 2.8008 4.8594 5.8203 9.6211 9.0586 14.281 3.1602-1.6211 6.6211-2.7617 10.32-3.2812 3.8594-0.53906 7.6602-0.37891 11.281 0.37891 7.8789-12.539 16.379-24.84 25.48-36.781 9.0586-11.941 18.578-23.34 28.48-34.219l-0.039063-0.058594c-13.539 2.3594-27.141 5.1406-40.762 8.3008l-0.42188 0.10156c-13.32 3.1016-26.5 6.5586-39.461 10.34zm-22.859 6.8008c1.8594-2.4609 2.7617-5.6602 2.3008-9-0.46094-3.2812-2.2188-6.0781-4.6602-7.9219-2.4609-1.8594-5.6602-2.7617-9-2.2812-3.2812 0.46094-6.0781 2.2188-7.9219 4.6602-1.8398 2.4609-2.7617 5.6406-2.2812 8.9414 0.48047 3.3203 2.2383 6.1211 4.6797 7.9609 2.4609 1.8398 5.6602 2.7617 8.9805 2.2812 3.2812-0.46094 6.0781-2.2188 7.9219-4.6602zm75.039 72.781c1.0586 7.4609-0.53906 14.699-4.0391 20.762 8.6602 6.6797 17.859 12.641 27.48 17.82 9.8789 5.3203 20.199 9.8398 30.84 13.48 0.53906-0.87891 1.1211-1.7188 1.7188-2.5391 2.8789-3.8398 6.6016-7.0586 10.961-9.3203-4-20.262-7.3789-40.582-10.141-60.902-2.7812-20.48-4.9609-40.941-6.5-61.379-2.3789-0.5-4.6797-1.2812-6.8594-2.2812-9.5781 10.52-18.641 21.398-27.18 32.641-8.3984 11.082-16.441 22.68-24.059 34.801 4.0586 4.6016 6.8594 10.398 7.7812 16.898zm-22.539 11.801c1.8594-2.4609 2.7617-5.6602 2.3008-9-0.46094-3.2812-2.2188-6.0781-4.6602-7.9219-2.4609-1.8594-5.6602-2.7617-9-2.2812-3.2812 0.46094-6.0781 2.2188-7.9219 4.6602-1.8398 2.4609-2.7617 5.6602-2.3008 8.9805 0.46094 3.2812 2.2188 6.0781 4.6797 7.9219 2.4609 1.8398 5.6602 2.7617 8.9805 2.3008 3.2812-0.46094 6.0781-2.2188 7.9219-4.6797zm114.16 64.5c1.8398-2.4609 2.7617-5.6406 2.2812-8.9414-0.46094-3.3203-2.2188-6.1211-4.6602-7.9609-2.4609-1.8594-5.6602-2.7617-9-2.3008-3.2812 0.46094-6.0781 2.2188-7.9219 4.6797-1.7383 2.3203-2.6602 5.3203-2.3594 8.4414l0.14062 0.98047c0.55859 3.1016 2.2617 5.7188 4.6016 7.4609 2.3203 1.7383 5.3203 2.6602 8.4414 2.3594l1.0391-0.14062c3.0586-0.55859 5.6797-2.2617 7.418-4.5781zm-7.2812-416.24c1.7383-2.3203 2.6602-5.3203 2.3594-8.4414l-0.14062-1.0391c-0.55859-3.0586-2.2617-5.6602-4.5781-7.3984-2.3203-1.7383-5.3203-2.6602-8.4414-2.3594l-0.98047 0.14062c-3.1016 0.55859-5.7188 2.2617-7.4805 4.6016-1.8398 2.4609-2.7617 5.6602-2.3008 8.9805 0.46094 3.2812 2.2188 6.0781 4.6602 7.9219 2.4609 1.8594 5.6602 2.7617 8.9805 2.3008 3.2812-0.46094 6.0781-2.2188 7.9219-4.6602zm6.4219 95.258c-0.69922 1.2383-1.4609 2.4219-2.3203 3.5391-4.4219 5.8789-10.801 10.262-18.32 12.082-0.96094 14.219-1.6406 28.199-1.9805 41.922-0.35938 14.219-0.44141 28.441-0.21875 42.641 1.9609 0.69922 3.8398 1.6016 5.6211 2.6406 14.879-12.719 30.5-24.559 46.781-35.441 16.281-10.898 33.262-20.859 50.801-29.801-0.39844-3.1602-0.30078-6.2617 0.17969-9.2617-12.879-6.1602-26.059-11.621-39.461-16.34-13.441-4.7188-27.16-8.7383-41.059-12zm-24.121 138.06c1.8594-2.4609 2.7617-5.6602 2.2812-9-0.46094-3.2812-2.2188-6.0781-4.6602-7.8984-2.4609-1.8594-5.6602-2.7617-9-2.3008-3.2812 0.46094-6.0781 2.2188-7.9219 4.6797-1.8398 2.4609-2.7617 5.6406-2.2812 8.9414 0.46094 3.3203 2.2188 6.1211 4.6602 7.9609 2.3984 1.8008 5.5 2.7188 8.7617 2.3203l0.19922-0.039063c3.3203-0.48047 6.1211-2.2383 7.9609-4.6797zm146.36-97.164c1.8398-2.4609 2.7617-5.6602 2.3008-8.9805-0.46094-3.2812-2.2188-6.0781-4.6797-7.9219-2.4609-1.8594-5.6602-2.7617-8.9805-2.2812-3.2812 0.46094-6.0781 2.2188-7.9219 4.6602-1.7383 2.3203-2.6602 5.3203-2.3594 8.4609l0.14062 0.98047c0.55859 3.1016 2.2617 5.7188 4.6016 7.4805 2.3398 1.7617 5.3398 2.6602 8.4805 2.3398l1.0195-0.14062c3.0586-0.55859 5.6797-2.2617 7.418-4.5781zm16.16 234.22c4.7383-3.0195 11.059-1.6211 14.078 3.1211 3.0195 4.7383 1.6211 11.059-3.1211 14.078l-0.73828 0.48047c-4.7383 3.0195-11.059 1.6211-14.078-3.1211-3.0195-4.7383-1.6211-11.059 3.1211-14.078z" fill="#ea5b0a"></path></svg>