<svg xmlns="http://www.w3.org/2000/svg" width="512pt" height="512pt" viewBox="0 0 512 512"><path d="m512 256c0 141.39-114.61 256-256 256s-256-114.61-256-256 114.61-256 256-256 256 114.61 256 256" fill="#ea5b0a"></path><path d="m158.45 130.24h-45.934v19.812h45.934zm183.25 7.4297v13.352c0 2.6719-2.168 4.8359-4.8359 4.8359-1.1836 0-2.2812-0.42969-3.1094-1.1328l-3.8164-2.8828-4.0312 3.0469c-2.1289 1.5977-5.1641 1.1836-6.7656-0.94531-0.65625-0.86719-0.96875-1.8906-0.96875-2.9102l-0.011719-13.352h-16.727v40.18h56.98v-40.18h-16.715zm-13.879 0v3.7656c1.3086-0.62891 2.8594-0.65625 4.207 0v-3.7539h-4.207zm-36.062 40.18v-22.922h-16.715v13.352c0 2.6719-2.168 4.8359-4.8359 4.8359-1.1836 0-2.2812-0.42969-3.1094-1.1328l-3.8164-2.8828-4.0312 3.0469c-2.1289 1.5977-5.1641 1.1836-6.7656-0.94531-0.65625-0.86719-0.96875-1.8906-0.96875-2.9102l-0.011719-13.352h-16.727v22.922h56.98zm0-32.594v-12.418c0-2.6719 2.168-4.8359 4.8359-4.8359h66.656c2.6719 0 4.8359 2.168 4.8359 4.8359v45.016h16.387c2.6719 0 4.8359 2.168 4.8359 4.8359v82.762c-0.023438 2.3945-1.7891 4.4727-4.2305 4.7734l-24.836 3.2227c0.83203 1.5742 1.3984 3.3008 1.625 5.1641l0.050781 0.37891c0.48047 4.0312-0.71875 7.8828-3.0625 10.855-2.332 2.9727-5.8047 5.0508-9.8359 5.543l-111.15 13.301-4.875 11.688h108.82c2.6719 0 4.8359 2.168 4.8359 4.8359 0 2.6719-2.168 4.8359-4.8359 4.8359h-116.07c-0.61719-0.011719-1.2461-0.125-1.8516-0.37891-2.457-1.0195-3.6289-3.8555-2.6055-6.3086l8.6797-20.844c0.61719-1.625 2.1016-2.8711 3.9531-3.0977l113.95-13.641c1.3711-0.16406 2.582-0.89453 3.375-1.9141 0.80469-1.0195 1.2227-2.3555 1.0586-3.7539l-0.050782-0.37891c-0.16406-1.3867-0.88281-2.582-1.9023-3.375-1.0195-0.80469-2.3555-1.2227-3.7539-1.0586l-111.21 13.312c-2.332 0.26562-4.5859-1.2109-5.2148-3.5391l-39.926-145.5c-0.39063-1.4219-1.2109-2.6211-2.3047-3.4492-1.0703-0.82031-2.4297-1.2852-3.9297-1.2852h-15.883v10.555h9.1562c2.1172 0.023437 4.0664 1.4375 4.6484 3.5781l39.41 143.55c0.37891 1.082 0.37891 2.3164-0.10156 3.4648l-12.105 29.043c-0.74219 1.7773-1.0195 3.6289-0.84375 5.4141 0.17578 1.7773 0.80469 3.5508 1.8633 5.1523 1.0586 1.5859 2.4453 2.832 4.0195 3.6758s3.3867 1.2969 5.3281 1.2969h174.91c1.3984 0 2.6719-0.57812 3.5898-1.5 0.93359-0.90625 1.5-2.1797 1.5-3.5898v-0.39062c0-1.3086-0.49219-2.5078-1.2969-3.4023l-0.1875-0.1875c-0.91797-0.91797-2.1914-1.5-3.5898-1.5h-16.93c-2.6719 0-4.8359-2.168-4.8359-4.8359 0-2.6719 2.168-4.8359 4.8359-4.8359h16.93c4.0664 0 7.7578 1.6641 10.43 4.332l0.28906 0.32812c2.4922 2.6445 4.043 6.2109 4.043 10.102v0.39062c0 4.0547-1.6641 7.7461-4.3438 10.418-2.6562 2.6836-6.3477 4.3438-10.418 4.3438h-14.824c3.4258 4.3203 5.4648 9.8008 5.4648 15.742 0 7.0156-2.8477 13.375-7.4453 17.973l-0.30078 0.27734c-4.5703 4.4336-10.809 7.168-17.672 7.168-7.0156 0-13.375-2.8477-17.973-7.4453-4.5977-4.5977-7.4453-10.957-7.4453-17.973 0-5.9336 2.0391-11.41 5.4648-15.742h-71.68c3.4258 4.332 5.4648 9.8008 5.4648 15.742 0 7.0039-2.8477 13.352-7.4453 17.949-4.6094 4.6094-10.969 7.457-17.973 7.457s-13.352-2.8477-17.949-7.4453c-4.6094-4.5977-7.4688-10.957-7.4688-17.973 0-5.9453 2.0391-11.41 5.4648-15.742h-8.6406c-3.5 0-6.8633-0.86719-9.8633-2.4688-2.9844-1.5977-5.5781-3.9297-7.5312-6.8516-1.9414-2.9219-3.0859-6.2109-3.4141-9.5742-0.31641-3.3633 0.17578-6.7891 1.5234-10.027l11.426-27.434-38.023-138.82h-5.4922c-0.11328 2.5703-2.2305 4.6367-4.8359 4.6367h-55.609c-2.6719 0-4.8359-2.168-4.8359-4.8359v-29.484c0-2.6719 2.168-4.8359 4.8359-4.8359h55.609c2.6055 0 4.7227 2.0547 4.8359 4.6367h15.883c3.6523 0 7.0547 1.1953 9.7852 3.2891 2.7188 2.0781 4.7617 5.0508 5.7305 8.5898l11.199 40.773h14.371v-27.762c0-2.6719 2.168-4.8359 4.8359-4.8359h61.816zm-30.594 9.6719v3.7656c1.3086-0.62891 2.8594-0.65625 4.207 0v-3.7539h-4.207zm109.62 199.95c-2.7461-2.7578-6.5234-4.4844-10.719-4.5977h-0.82031c-4.1836 0.10156-7.9609 1.8516-10.719 4.6094-2.8477 2.832-4.6094 6.7773-4.6094 11.133 0 4.3438 1.7617 8.2891 4.6094 11.133 2.8477 2.8477 6.7891 4.6094 11.133 4.6094 4.2461 0 8.0977-1.6758 10.922-4.3828l0.21484-0.22656c2.8477-2.8477 4.6094-6.7891 4.6094-11.133s-1.7617-8.2891-4.6094-11.148zm-111.56 0.011719c-2.7578-2.7578-6.5352-4.4961-10.719-4.6094h-0.80469c-4.0938 0.10156-7.7969 1.75-10.516 4.3828l-0.21484 0.22656c-2.8477 2.8477-4.6094 6.7891-4.6094 11.133s1.7617 8.2891 4.6094 11.133c2.832 2.8477 6.7773 4.6094 11.133 4.6094 4.3594 0 8.3008-1.7617 11.133-4.5977 2.8477-2.8477 4.5977-6.7891 4.5977-11.133 0-4.2461-1.6758-8.0977-4.3828-10.922l-0.22656-0.21484zm79.262-88.332 41.164-5.3398v-73.691h-166.25l24.977 91.023zm20.809 63.504c-2.6719 0-4.8359-2.168-4.8359-4.8359 0-2.6719 2.168-4.8359 4.8359-4.8359h0.71875c2.6719 0 4.8359 2.168 4.8359 4.8359 0 2.6719-2.168 4.8359-4.8359 4.8359z" fill="#fff"></path></svg>