<svg xmlns="http://www.w3.org/2000/svg" width="512pt" height="512pt" viewBox="0 0 512 512"><path d="m512 256c0 141.39-114.61 256-256 256s-256-114.61-256-256 114.61-256 256-256 256 114.61 256 256" fill="#ea5b0a"></path><path d="m279.89 202.85c4.3711 1.0977 8.1758 2.5938 11.16 4.3711 13.516 8.0352 8.6016 19.688-4.2188 25.039-18.668 7.7969-56.551 5.2148-61.691-10.402h-71.809c-28.102 0-28.102 40.934 0 40.934h20.492c34.789 0 34.789 51.238 0 51.238h-29.762c-33.215 1.2852-33.301 52.574 0.20312 52.574h119.34v-70.824c0-1.8008 1.1445-3.3242 2.7578-3.8789l64.387-26.121c1.0469-0.42969 2.1797-0.39062 3.1367 0.023437l64.309 26.086c1.6133 0.55469 2.7695 2.0898 2.7695 3.8906v74.93c0 1.8008-1.1602 3.3242-2.7695 3.8906l-64.172 26.035c-1.0977 0.51563-2.3945 0.51563-3.4766 0l-63.617-25.809-122.66-0.011719c-44.121 0-44.387-67.281-0.51562-68.984l30.078-0.039063c23.918 0 23.918-34.801 0-34.801h-20.492c-38.984 0-38.984-57.371 0-57.371h72.621c3.2891-5.9688 11.574-9.207 17.848-10.781-10.605-15.922-24.32-31.059-24.32-49.488 0-23.391 18.969-42.371 42.371-42.371 28.742 0 48.379 27.91 40.793 53.668-3.6289 12.332-15.469 27.258-22.746 38.191zm112.87 165.09v-66.074l-56.363 22.859v66.062l56.363-22.859zm-120.94 0 56.363 22.859v-66.062l-15.582-6.3242v17.406c0 4.1055-5.3672 5.6289-7.5586 2.2305l-7.9219-10.895-7.0156 3.9531c-2.7344 1.5352-6.1211-0.49219-6.1211-3.5664v-20.746l-12.168-4.9375zm114.13-72.172-12.887-5.2266-53.656 21.766 12.887 5.2266zm-23.805-9.6602-9.4727-3.8398-53.656 21.766 9.4727 3.8398zm-20.391-8.2734-9.4727-3.8398-53.656 21.766 9.4727 3.8398zm-37.383 37.23-12.168-4.9375v10.391c7.4297-4.1953 7.1172-4.293 12.168 2.6562zm-49.828-96.125-5.8711-8.7773c-8.5508 1.6484-25.215 7.6094-8.6914 14.508 11.926 4.9766 31.754 4.9766 43.68 0 16.488-6.8906 0-12.82-8.6797-14.508l-5.8711 8.7773c-3.6523 5.4648-10.922 5.4648-14.574 0zm6.8008-4.5586c0.39062 0.59375 0.59375 0.55469 0.96875 0 9.8477-14.738 28.492-38.617 32.445-52.043 6.0078-20.379-9.5586-43.141-32.926-43.141-23.363 0-38.93 22.773-32.926 43.141 3.9531 13.426 22.598 37.305 32.445 52.043zm0.48047-78.797c-9.75 0-17.645 7.8984-17.645 17.645 0 9.75 7.8984 17.645 17.645 17.645 9.75 0 17.645-7.8984 17.645-17.645 0-9.75-7.8984-17.645-17.645-17.645zm0-8.2266c-14.281 0-25.859 11.574-25.859 25.859 0 14.281 11.586 25.859 25.859 25.859 14.281 0 25.859-11.574 25.859-25.859 0-14.281-11.586-25.859-25.859-25.859z" fill="#fff" fill-rule="evenodd"></path></svg>