<svg xmlns="http://www.w3.org/2000/svg" width="512pt" height="512pt" viewBox="0 0 512 512"><path d="m512 256c0 141.39-114.61 256-256 256s-256-114.61-256-256 114.61-256 256-256 256 114.61 256 256" fill="#ea5b0a"></path><path d="m183.45 337.77c6.5859 10.789 5.2109 25.066-4.1211 34.402-10.945 10.941-28.691 10.941-39.633 0-10.945-10.945-10.945-28.691 0-39.633 9.4922-9.4961 24.098-10.754 34.949-3.7812l26.426-26.426c-3.5039-2-6.1992-4.6094-8.3203-7.9258-3.4336-5.375-5.2734-12.992-6.0117-23.961l-0.015626-0.21094v-1.7695c0-0.26953 0.12109-36.098 25.719-56.379 5.4688-4.332 11.762-4.0508 19.09-1.1875 6.8008 2.6562 14.914 8.0469 24.781 8.0469 9.8672 0 17.977-5.3906 24.777-8.0469 7.3281-2.8633 13.625-3.1445 19.09 1.1875 25.598 20.281 25.719 56.109 25.719 56.379v1.7695l-0.011719 0.21094c-0.73828 10.969-2.582 18.586-6.0156 23.961-1.9883 3.1133-4.4805 5.5977-7.6758 7.5469l26.598 26.598c10.789-6.5898 25.066-5.2148 34.398 4.1172 10.945 10.945 10.945 28.691 0 39.633-10.941 10.945-28.688 10.945-39.629 0-9.4961-9.4922-10.754-24.098-3.7812-34.949l-30.832-30.832c-8.5234 1.4766-20.152 1.7148-36.027 1.75v25.848c12.289 2.9727 21.414 14.039 21.414 27.238 0 15.48-12.547 28.023-28.023 28.023-15.48 0-28.027-12.543-28.027-28.023 0-13.422 9.4414-24.645 22.043-27.383v-25.703c-15.652-0.03125-27.223-0.24219-35.777-1.6055zm15.867-67.961v0.003906c0.55469 8.0938 1.5039 13.828 4.0508 17.812 2.625 4.1133 7.1172 5.7227 14.059 6.75 9.0352 1.3398 21.555 1.3047 38.887 1.3047 17.332 0 29.848 0.035157 38.883-1.3047 6.9414-1.0273 11.434-2.6367 14.062-6.75 2.5469-3.9844 3.4922-9.7227 4.0469-17.816v-1.3438c0-0.21875 0.12109-29.812-20.949-46.508-1.1289-0.89453-2.4219-0.63672-3.8359-0.27734-1.9883 0.50781-4.1055 1.4336-6.3828 2.4609-7.3203 3.2891-15.898 7.4023-25.824 7.4023-9.9297 0-18.508-4.1133-25.824-7.4023-2.2812-1.0273-4.3984-1.9531-6.3867-2.4609-1.4102-0.35938-2.707-0.61719-3.8359 0.27734-21.07 16.695-20.949 46.289-20.949 46.508zm-50.715 93.457c6.0234 6.0234 15.793 6.0234 21.82 0 6.0234-6.0273 6.0234-15.797 0-21.82-6.0273-6.0273-15.797-6.0273-21.82 0-6.0273 6.0234-6.0273 15.793 0 21.82zm215.68 0.12891c6.0273-6.0234 6.0273-15.793 0-21.82-6.0234-6.0234-15.793-6.0234-21.816 0-6.0273 6.0273-6.0273 15.797 0 21.82 6.0234 6.0273 15.793 6.0273 21.816 0zm-107.97 13.391c8.5195 0 15.43-6.9062 15.43-15.43 0-8.5195-6.9102-15.43-15.43-15.43-8.5234 0-15.43 6.9102-15.43 15.43 0 8.5234 6.9062 15.43 15.43 15.43zm0-176.2c-21.375 0-38.73-17.465-38.73-39.047 0-21.578 17.355-39.043 38.73-39.043 21.371 0 38.73 17.465 38.73 39.043 0 21.582-17.359 39.047-38.73 39.047zm0-12.598c14.449 0 26.133-11.855 26.133-26.449 0-14.59-11.684-26.449-26.133-26.449-14.453 0-26.137 11.859-26.137 26.449 0 14.594 11.684 26.449 26.137 26.449z" fill="#fff" fill-rule="evenodd"></path></svg>