<svg xmlns="http://www.w3.org/2000/svg" width="512pt" height="512pt" viewBox="0 0 512 512"><path d="m426.9 303.4-84.18 40.441c-1.3789-13.961-10.762-25.859-24.02-30.441l-97.859-33.801c-12.5-4.1992-26.141-3.3398-38.02 2.3984l-50.84 24.781-32.5 16.121-2.1211-4.3398h0.019531c-1.9609-3.9414-6.7383-5.5781-10.699-3.6797l-50.18 24.48c-3.9805 1.9414-5.6211 6.7188-3.6992 10.699l61.18 125.46 0.019531-0.019532c1.9414 3.9805 6.7188 5.6211 10.699 3.6992l50.18-24.48c3.9414-1.9609 5.6016-6.7383 3.6797-10.699l-3.1016-6.3594 27.941-13.898v-0.019531c4.7383-2.2812 10.199-2.6211 15.18-0.94141l66 22.699 0.019531 0.019532c12.48 4.2617 26.16 3.4414 38.059-2.2617l157.16-76.023c9.4609-4.6992 16.379-13.301 18.961-23.539 2.5781-10.238 0.55859-21.102-5.5391-29.719-10.859-14.262-30.359-18.719-46.34-10.578zm-322.02 157.9-54.18-111.08 35.801-17.461s54.141 111 54.18 111.08zm358.5-121.44c-1.4219 5.6602-5.2812 10.422-10.539 12.98l-157.14 76.023c-8.1016 3.8789-17.379 4.4219-25.879 1.5391l-66.098-22.738c-18.238-7.5586-39.52 8.6406-55.281 15.621l-41.922-85.961 83.34-40.961c8.0586-3.8789 17.34-4.4805 25.82-1.6016l97.816 33.781c10.262 3.6602 15.68 14.898 12.141 25.199-3.5391 10.301-14.699 15.859-25.059 12.441l-92.422-31.82c-4.1406-1.3398-8.6016 0.87891-10.02 5.0195-1.4219 4.1211 0.71875 8.6211 4.8203 10.121l92.52 31.859v-0.019532c16.941 5.6211 35.422-2.0195 43.461-17.941l94.941-45.621v0.019532c6.9414-3.8984 15.539-3.3398 21.918 1.4414 6.3789 4.7617 9.3398 12.84 7.582 20.621z" fill="#ea5b0a"></path><path d="m470.76 142.74-13.422-3.8398c-2.7188-10.719-6.9805-20.98-12.621-30.48l6.7812-12.199h0.019531c2.7383-4.9805 1.8789-11.16-2.1406-15.199l-18.398-18.398c-4.0195-4-10.219-4.8789-15.199-2.1406l-12.199 6.7812v0.019531c-9.5-5.6406-19.762-9.8984-30.48-12.621l-3.8398-13.422c-1.5781-5.4609-6.5586-9.2188-12.238-9.2383h-26.039c-5.6797 0.019532-10.66 3.7812-12.238 9.2383l-3.8398 13.422c-10.719 2.7188-20.98 6.9805-30.48 12.621l-12.199-6.7812v-0.019531c-4.9805-2.7383-11.16-1.8594-15.199 2.1406l-18.398 18.398c-4 4.0195-4.8789 10.219-2.1406 15.199l6.7812 12.199h0.019531c-5.6406 9.5-9.8984 19.762-12.621 30.48l-13.422 3.8398c-5.4609 1.5781-9.2188 6.5586-9.2383 12.238v26.039c0.019532 5.6797 3.7812 10.66 9.2383 12.238l13.422 3.8398c2.7188 10.719 6.9805 20.98 12.621 30.48l-6.7812 12.199h-0.019531c-2.7383 4.9805-1.8594 11.16 2.1406 15.199l18.398 18.398c4.0195 4.0195 10.219 4.8789 15.199 2.1406l12.199-6.7812v-0.019531c9.5 5.6406 19.762 9.8984 30.48 12.621l3.8398 13.422c1.5781 5.4609 6.5586 9.2188 12.238 9.2383h26.039c5.6797-0.019532 10.66-3.7812 12.238-9.2383l3.8398-13.422c10.719-2.7188 20.98-6.9805 30.48-12.621l12.199 6.7812v0.019531c4.9805 2.7383 11.16 1.8594 15.199-2.1406l18.398-18.398c8.8008-8.582-0.42188-19.262-4.6406-27.398h-0.019531c5.6406-9.5 9.8984-19.762 12.621-30.48l13.422-3.8398c5.4609-1.5781 9.2188-6.5586 9.2383-12.238v-26.039c-0.019532-5.6797-3.7812-10.66-9.2383-12.238zm-6.7617 35.82c-7.3984 2.4414-20.16 3.4609-21.762 13-2.4609 10.34-6.5586 20.219-12.141 29.281-2.3984 3.8984-2.5195 8.8008-0.30078 12.82l6.5195 11.738-14.922 14.922-11.738-6.5195c-4.0195-2.2188-8.9219-2.1016-12.84 0.32031-9.0391 5.5586-18.922 9.6602-29.238 12.102-9.6016 1.6211-10.578 14.461-13.02 21.781h-21.121l-3.6992-12.918c-1.2812-4.4219-4.8398-7.8008-9.3008-8.8398-10.34-2.4609-20.219-6.5586-29.281-12.141-7.8398-5.6016-17.738 2.8008-24.559 6.2188l-14.941-14.922c3.5-6.9805 11.801-16.641 6.2188-24.582-5.5586-9.0391-9.6602-18.922-12.102-29.238-1.0586-4.4805-4.4414-8.0391-8.8594-9.3203l-12.918-3.6992v-21.121c7.3984-2.4414 20.16-3.4609 21.762-13h0.019532c2.4414-10.34 6.5391-20.219 12.121-29.281 2.3984-3.8984 2.5195-8.8008 0.30078-12.82l-6.5195-11.738 14.922-14.922c6.9805 3.5 16.641 11.801 24.582 6.2188v-0.019532c9.0391-5.5586 18.922-9.6602 29.238-12.102 4.4805-1.0586 8.0391-4.4414 9.3203-8.8594l3.6992-12.918h21.121c2.4414 7.3984 3.4609 20.16 13 21.762 10.34 2.4609 20.219 6.5586 29.281 12.141 3.8984 2.3984 8.8008 2.5195 12.801 0.30078l11.762-6.5391 14.922 14.922-6.5195 11.762c-2.2188 4.0195-2.1016 8.9219 0.32031 12.84 5.5586 9.0391 9.6602 18.922 12.102 29.238 1.6211 9.6016 14.461 10.578 21.781 13.02z" fill="#ea5b0a"></path><path d="m344 92c-20.16 0-39.48 8-53.738 22.262s-22.262 33.578-22.262 53.738 8 39.48 22.262 53.738c14.262 14.258 33.578 22.262 53.738 22.262s39.48-8 53.738-22.262c14.258-14.262 22.262-33.578 22.262-53.738-0.019531-20.141-8.0391-39.461-22.281-53.719-14.262-14.238-33.559-22.262-53.719-22.281zm0 136c-24.262 0-46.141-14.621-55.438-37.039-9.2812-22.422-4.1406-48.219 13.02-65.383 17.16-17.16 42.961-22.301 65.383-13.02 22.422 9.3008 37.039 31.18 37.039 55.438-0.039062 33.121-26.879 59.961-60 60z" fill="#ea5b0a"></path><path d="m370.34 141.02-37.02 37-15.66-15.68c-1.5-1.5195-3.5391-2.3594-5.6602-2.3789-2.1406 0-4.1797 0.83984-5.6992 2.3398-1.5 1.5195-2.3398 3.5586-2.3398 5.6797 0.019531 2.1406 0.85937 4.1797 2.3789 5.6797l21.34 21.34v-0.019531c1.5 1.5 3.5391 2.3594 5.6602 2.3594s4.1406-0.85938 5.6406-2.3594l42.66-42.66h0.019531c3.1211-3.1211 3.1211-8.1797 0-11.301-3.1211-3.1406-8.1992-3.1406-11.32 0z" fill="#ea5b0a"></path></svg>