<svg xmlns="http://www.w3.org/2000/svg" width="512pt" height="512pt" viewBox="0 0 512 512"><path d="m238.12 358.2c-1.4023-2.4258-3.6641-4.1641-6.3828-4.8906-2.7148-0.72656-5.5469-0.35938-7.9727 1.043l-18.23 10.527c-1.8906-3.9727-3.5586-8.1445-5.3008-12.496-5.3164-13.301-10.812-27.059-23.641-36.305-14.645-10.551-35.004-13.574-54.695-16.496-4.6094-0.6875-9.375-1.3945-13.91-2.1758-0.03125-0.003906-0.0625-0.011719-0.097657-0.015625-7.6172-1.1641-13.73 2.2188-16.777 9.2578-1.1055 2.5586-1.7031 5.1445-1.8008 7.6992-2.7656-2.4219-6.4961-6.707-11.32-14.266-7.0156-10.98-13.609-24.602-17.973-33.613-1.418-2.9297-2.6406-5.4531-3.5977-7.3164-0.15234-0.29688-0.33984-0.57422-0.54688-0.82812-5.3398-6.4453-14.473-8.0898-21.723-3.9023-7.25 4.1836-10.395 12.918-7.4805 20.766 0.035157 0.09375 0.070313 0.18359 0.11328 0.27734 20.188 45.102 37.105 74.156 51.711 88.832 13.812 13.875 24.566 13.953 33.203 14.012 9.9688 0.070312 17.934 0.14453 31.379 22.641l-13.961 8.0625c-5.0195 2.8984-6.7422 9.3398-3.8438 14.355l11.578 20.051c1.9453 3.3672 5.4844 5.2539 9.1172 5.2539 1.7812 0 3.5859-0.44922 5.2383-1.4023l94.652-54.652c5.0195-2.8984 6.7422-9.3398 3.8438-14.355l-11.578-20.051zm-126.36 10.887c-15.492-0.10938-33.059-0.24219-76.496-97.238-1.2656-3.5859 0.1875-7.543 3.4961-9.4531 3.2109-1.8594 7.2305-1.2305 9.7227 1.4609 0.875 1.7188 1.9805 4.0078 3.2461 6.625 13.715 28.328 28.328 55.887 43.109 56.137 13.672 5.0703 27.852 9 42.188 11.68 2.5 0.46484 4.9102-1.1836 5.375-3.6797 0.46484-2.5-1.1836-4.9102-3.6797-5.375-13.461-2.5156-26.789-6.168-39.648-10.875-0.87891-2.582-0.71094-5.2344 0.51172-8.0625 1.3711-3.1797 3.4414-4.3203 6.8867-3.8086 4.6328 0.80469 9.4375 1.5156 14.086 2.207 18.602 2.7578 37.844 5.6172 50.664 14.859 10.656 7.6758 15.422 19.609 20.469 32.246 1.8125 4.543 3.6797 9.1992 5.8516 13.695l-46.48 26.832c-14.98-25.066-25.82-27.152-39.297-27.25zm129.48 15.539-94.652 54.652c-0.60938 0.35156-1.418 0.13281-1.7656-0.47266l-11.578-20.051c-0.23047-0.39453-0.17578-0.78516-0.12109-0.97656 0.050782-0.19531 0.19922-0.55859 0.59375-0.78906l94.652-54.652c0.39844-0.23047 0.78516-0.17578 0.97656-0.12109 0.19531 0.050781 0.55859 0.19922 0.78906 0.59375l11.578 20.051c0.34766 0.60938 0.13281 1.418-0.47266 1.7656zm236.6-130.21c-7.25-4.1836-16.383-2.543-21.723 3.9023-0.21094 0.25781-0.39453 0.53125-0.54688 0.82812-0.95703 1.8633-2.1797 4.3945-3.5977 7.3164-4.3633 9.0117-10.957 22.629-17.973 33.613-4.8281 7.5625-8.5625 11.848-11.32 14.27-0.097656-2.5547-0.69531-5.1406-1.8008-7.707-3.043-7.0391-9.1484-10.414-16.777-9.2578-0.03125 0-0.0625 0.011719-0.097656 0.015625-4.5352 0.78906-9.3047 1.4961-13.91 2.1758-19.691 2.9219-40.059 5.9453-54.695 16.496-12.824 9.2422-18.324 23-23.641 36.301-1.7422 4.3516-3.4102 8.5234-5.3008 12.496l-18.23-10.527c-2.4258-1.3984-5.2578-1.7734-7.9727-1.043-2.7148 0.72656-4.9805 2.4609-6.3828 4.8906l-11.578 20.051c-1.4023 2.4258-1.7734 5.2578-1.043 7.9727 0.72656 2.7188 2.4609 4.9805 4.8906 6.3828l94.652 54.652c1.6133 0.93359 3.4062 1.4062 5.2266 1.4062 0.91797 0 1.8398-0.12109 2.7461-0.36328 2.7188-0.72656 4.9805-2.4609 6.3828-4.8906l11.578-20.051c2.8984-5.0195 1.1719-11.457-3.8438-14.355l-13.969-8.0625c13.445-22.496 21.41-22.57 31.379-22.641 8.6367-0.0625 19.391-0.13672 33.203-14.012 14.605-14.668 31.52-43.727 51.711-88.832 0.039062-0.09375 0.078125-0.18359 0.11328-0.27734 2.9141-7.8477-0.23047-16.578-7.4805-20.766zm-98.977 163.36c0.050781 0.19531 0.10938 0.58203-0.12109 0.97656l-11.578 20.051c-0.23047 0.39453-0.58984 0.54297-0.78906 0.59375-0.19531 0.050781-0.58203 0.10938-0.97656-0.12109l-94.652-54.652c-0.39453-0.23047-0.54297-0.58984-0.59375-0.78906-0.050781-0.19531-0.10938-0.58203 0.12109-0.97656l11.578-20.051c0.23047-0.39453 0.58984-0.54297 0.78906-0.59375 0.085937-0.019531 0.20312-0.046875 0.34766-0.046875 0.18359 0 0.40625 0.039063 0.62891 0.16797l94.652 54.652c0.39453 0.23047 0.54297 0.58984 0.59375 0.78906zm97.863-145.93c-43.438 97-61.004 97.133-76.496 97.238-13.477 0.09375-24.309 2.1797-39.297 27.25l-46.48-26.832c2.1758-4.5 4.0391-9.1602 5.8516-13.699 5.0469-12.637 9.8164-24.57 20.469-32.246 12.824-9.2422 32.062-12.098 50.664-14.859 4.6445-0.69141 9.4531-1.4023 14.086-2.207 3.4492-0.51172 5.5078 0.62891 6.8867 3.8086 1.2227 2.832 1.3945 5.4883 0.51172 8.0625-12.863 4.707-26.195 8.3594-39.648 10.875-2.5039 0.46484-4.1523 2.8711-3.6797 5.375 0.47266 2.5039 2.8828 4.1484 5.375 3.6797 14.324-2.6797 28.508-6.6094 42.172-11.672 14.785-0.23047 29.398-27.801 43.121-56.141 1.2656-2.6172 2.375-4.9062 3.2461-6.625 2.4922-2.6875 6.5078-3.3164 9.7227-1.4609 3.3008 1.9102 4.7617 5.8633 3.4961 9.4531zm-347.43-46.652 21.539 4.6289c1.4844 4.3164 3.2422 8.5508 5.2461 12.652l-11.965 18.508c-1.1758 1.8242-0.92578 4.2227 0.61328 5.7617l38.195 38.195c1.5352 1.5352 3.9375 1.793 5.7617 0.60938l18.508-11.965c4.1055 2.0078 8.3398 3.7617 12.652 5.2461l4.6289 21.547c0.45703 2.125 2.3359 3.6406 4.5039 3.6406h54.02c2.1719 0 4.0508-1.5156 4.5039-3.6406l4.6289-21.547c4.3164-1.4844 8.5508-3.2422 12.652-5.2461l18.508 11.965c1.8242 1.1758 4.2227 0.92188 5.7617-0.60938l38.199-38.195c1.5352-1.5352 1.793-3.9375 0.61328-5.7617l-11.965-18.508c2.0078-4.1055 3.7617-8.3438 5.2461-12.652l21.547-4.6289c2.125-0.45703 3.6406-2.3359 3.6406-4.5039v-54.02c0-2.1719-1.5156-4.0508-3.6406-4.5039l-21.547-4.6289c-1.4844-4.3164-3.2422-8.5547-5.2461-12.652l11.965-18.508c1.1758-1.8242 0.92578-4.2227-0.61328-5.7617l-38.195-38.195c-1.5352-1.5352-3.9336-1.793-5.7617-0.60938l-18.516 11.965c-4.1055-2.0078-8.3398-3.7617-12.652-5.2461l-4.6289-21.547c-0.45703-2.125-2.3359-3.6406-4.5039-3.6406h-54.02c-2.1719 0-4.0508 1.5156-4.5039 3.6406l-4.6289 21.547c-4.3164 1.4844-8.5547 3.2422-12.652 5.2461l-18.508-11.965c-1.8242-1.1758-4.2227-0.92188-5.7617 0.60938l-38.195 38.195c-1.5352 1.5352-1.793 3.9375-0.61328 5.7617l11.965 18.508c-2.0078 4.1016-3.7617 8.3398-5.2461 12.652l-21.539 4.6289c-2.125 0.45703-3.6406 2.3359-3.6406 4.5039v54.02c0 2.1719 1.5156 4.0508 3.6406 4.5039zm5.5742-54.801 20.48-4.3984c1.6172-0.34766 2.9219-1.5352 3.4258-3.1133 1.7578-5.5469 4.0078-10.977 6.6953-16.152 0.76172-1.4688 0.67969-3.2344-0.21875-4.6289l-11.375-17.602 32.934-32.934 17.602 11.375c1.3945 0.90234 3.1602 0.98438 4.6289 0.21875 5.168-2.6875 10.598-4.9414 16.152-6.6953 1.5781-0.5 2.7656-1.8086 3.1133-3.4258l4.3984-20.484h46.57l4.3984 20.484c0.34766 1.6172 1.5352 2.9219 3.1133 3.4258 5.5391 1.7578 10.977 4.0078 16.152 6.6953 1.4688 0.76172 3.2344 0.67969 4.6289-0.21875l17.602-11.375 32.934 32.934-11.375 17.602c-0.90234 1.3945-0.98438 3.1602-0.21875 4.6289 2.6875 5.168 4.9414 10.598 6.6953 16.152 0.5 1.5781 1.8086 2.7656 3.4258 3.1133l20.484 4.3984v46.57l-20.484 4.3984c-1.6172 0.34766-2.9297 1.5352-3.4258 3.1133-1.75 5.5391-4.0039 10.973-6.6953 16.152-0.76172 1.4688-0.67969 3.2344 0.21875 4.6289l11.375 17.602-32.934 32.934-17.602-11.375c-1.3945-0.90234-3.1523-0.98437-4.6289-0.21875-5.1719 2.6875-10.605 4.9414-16.152 6.6953-1.5781 0.5-2.7656 1.8086-3.1133 3.4258l-4.3984 20.484h-46.57l-4.3984-20.484c-0.34766-1.6172-1.5352-2.9219-3.1133-3.4258-5.5391-1.7578-10.977-4.0078-16.152-6.6953-1.4688-0.76172-3.2344-0.67969-4.6289 0.21875l-17.602 11.375-32.934-32.934 11.375-17.602c0.90234-1.3945 0.98438-3.1602 0.21875-4.6289-2.6875-5.168-4.9414-10.605-6.6953-16.152-0.5-1.5781-1.8086-2.7656-3.4258-3.1133l-20.48-4.3984zm78.66 37.352 26.414 1.793 11.859 26.145c0.74609 1.6484 2.3906 2.7031 4.1914 2.7031h0.10156c1.8438-0.039062 3.4883-1.1758 4.1719-2.8867l9.8672-24.566 28.527-3.1992c1.832-0.20312 3.3672-1.4844 3.8945-3.25 0.53125-1.7656-0.039062-3.6797-1.4609-4.8633l-20.316-16.973 5.7695-28.117c0.375-1.8086-0.375-3.6602-1.8906-4.7109-1.5156-1.0508-3.5156-1.0938-5.0742-0.11719l-22.422 14.074-24.961-14.184c-1.6094-0.91016-3.5977-0.77734-5.0625 0.33984-1.4688 1.1172-2.1289 3-1.6797 4.793l6.457 25.676-21.203 19.359c-1.3633 1.2461-1.8516 3.1797-1.2461 4.9258 0.60938 1.7422 2.1953 2.9531 4.0391 3.0781zm26.648-22.41c1.2539-1.1406 1.7773-2.8828 1.3633-4.5273l-4.5-17.891 17.98 10.215c1.4727 0.83984 3.293 0.79688 4.7266-0.10156l15.621-9.8047-4.1562 20.254c-0.34375 1.6602 0.25781 3.375 1.5547 4.4648l14.156 11.828-20.551 2.3047c-1.6836 0.1875-3.1289 1.2891-3.7617 2.8633l-6.8711 17.117-8.5391-18.832c-0.70312-1.5469-2.1914-2.582-3.8867-2.6914l-18.402-1.25 15.27-13.941zm15.816 84.484c41.984 0 76.141-34.156 76.141-76.141s-34.156-76.141-76.141-76.141-76.141 34.156-76.141 76.141 34.156 76.141 76.141 76.141zm0-143.06c36.898 0 66.922 30.023 66.922 66.922 0 36.898-30.023 66.922-66.922 66.922s-66.922-30.023-66.922-66.922c0-36.898 30.02-66.922 66.922-66.922z" fill="#ea5b0a"></path></svg>