<svg xmlns="http://www.w3.org/2000/svg" width="512pt" height="512pt" viewBox="0 0 512 512"><path d="m512 256c0 141.39-114.61 256-256 256s-256-114.61-256-256 114.61-256 256-256 256 114.61 256 256" fill="#ea5b0a"></path><path d="m396.26 295.02c-2.9023-3.2227-8.0625-3.5469-11.285-0.64453l-13.543 11.93v-87.703c0-17.09-13.543-30.953-30.309-30.953h-201.85c-4.5156 0-8.0625 3.5469-8.0625 8.0625s3.5469 8.0625 8.0625 8.0625h201.52c7.7383 0 14.188 6.7695 14.188 14.832v87.703l-13.543-11.93c-3.2227-2.9023-8.3828-2.5781-11.285 0.64453-2.9023 3.2227-2.5781 8.3828 0.64453 11.285l27.086 23.859 0.32422 0.32422c0.32422 0 0.32422 0.32422 0.64453 0.32422 0.32422 0 0.64453 0.32422 0.64453 0.32422 0.32422 0 0.32422 0.32422 0.64453 0.32422 0.32422 0 0.64453 0.32422 0.96875 0.32422h0.64453 1.6133 1.6133 0.64453c0.32422 0 0.64453 0 0.96875-0.32422 0.32422 0 0.32422-0.32422 0.64453-0.32422 0.32422 0 0.64453-0.32422 0.64453-0.32422 0.32422 0 0.32422-0.32422 0.64453-0.32422l0.32422-0.32422 27.086-23.859c2.8945-2.9062 3.2188-8.0664 0.31641-11.289z" fill="#fff"></path><path d="m372.72 345.64h-201.52c-7.7383 0-14.188-6.7695-14.188-14.832v-87.379l13.543 11.93c1.6133 1.2891 3.5469 1.9336 5.4805 1.9336 2.2578 0 4.5156-0.96875 6.125-2.5781 2.9023-3.2227 2.5781-8.3828-0.64453-11.285l-27.086-23.859-0.32422-0.32422c-0.32422 0-0.32422-0.32422-0.64453-0.32422-0.32422 0-0.32422-0.32422-0.64453-0.32422-0.32422 0-0.32422-0.32422-0.64453-0.32422-0.32422 0-0.64453-0.32422-0.96875-0.32422h-0.64453-1.6133-1.6133-0.64453c-0.32422 0-0.64453 0-0.96875 0.32422-0.32422 0-0.32422 0.32422-0.64453 0.32422-0.32422 0-0.64453 0.32422-0.64453 0.32422-0.32422 0-0.32422 0.32422-0.64453 0.32422l-0.32422 0.32422-26.754 23.535c-3.2227 2.9023-3.5469 8.0625-0.64453 11.285 2.9023 3.2227 8.0625 3.5469 11.285 0.64453l13.543-11.93v87.703c0 17.09 13.543 30.953 30.309 30.953h201.52c4.5156 0 8.0625-3.5469 8.0625-8.0625 0-4.5117-3.5469-8.0586-8.0625-8.0586z" fill="#fff"></path><path d="m276.31 150.24h-40.625c-13.219 0-23.539 13.543-23.539 30.953v20.637h16.121v-20.637c0-9.0273 4.5156-14.832 7.418-14.832h40.949c2.9023 0 7.418 5.8047 7.418 14.832v20.637h16.121v-20.637c0-17.414-10.32-30.953-23.863-30.953z" fill="#fff"></path><path d="m258.26 267.61-1.9336-0.32422c-9.6719-3.2227-14.832-5.8047-14.832-12.898 0-9.0273 8.707-10.641 13.543-10.641 6.7695 0 13.543 2.9023 17.734 5.1602 0.96875 0.96875 2.2578 0.96875 3.8711 0.96875 1.2891-0.32422 2.2578-1.2891 3.2227-2.9023l2.9023-6.125c0.96875-0.96875 0.96875-2.2578 0.32422-3.8711-0.32422-0.96875-0.96875-1.9336-1.9336-2.2578-5.1602-3.2227-11.93-5.8047-18.379-6.7695v-10.965h-13.863v10.965c-14.832 2.2578-23.859 11.93-23.859 26.441 0 17.41 11.609 22.895 28.375 29.344 11.609 4.1914 16.766 6.125 16.766 12.898 0 9.9961-10.641 11.609-15.477 11.609-7.7383 0-13.863-2.9023-19.668-5.8047l-1.6211-0.65234h-0.32422c-1.9336 0-3.2227 0.96875-3.8711 1.9336l-3.8711 7.7383v0.32422c0 0.96875 0.32422 3.2227 1.9336 4.1914 5.8047 3.8711 13.543 6.7695 21.602 7.7383v9.9961h13.863v-10.641c14.832-2.9023 23.859-12.898 23.859-27.406 0.011718-18.055-14.82-23.215-28.363-28.051z" fill="#fff"></path></svg>