<svg xmlns="http://www.w3.org/2000/svg" width="512pt" height="512pt" viewBox="0 0 512 512"><path d="m114.54 85.457c-9.6406-3.1211-19.98-3.5-29.82-1.0586-8.8203 1.8008-16.078 8.1016-19.102 16.602-2.2383 8.7188 0.26172 18 6.582 24.418 6.8203 7.5195 15.602 12.98 25.34 15.762 5.6602 1.7617 11.52 2.6602 17.441 2.6992 15.418 0 27.98-6.7188 31.48-18.219 2.2383-8.7383-0.26172-18-6.582-24.418-6.8008-7.5195-15.582-12.98-25.34-15.781zm20.141 36.602c-2.6211 8.5586-18.281 12-33.559 7.3398h0.019531c-7.5-2.1211-14.281-6.2812-19.578-12-3.3789-3.3398-4.9414-8.1211-4.1602-12.82 1.9805-4.3203 5.9414-7.4414 10.621-8.3008 2.9805-0.80078 6.0391-1.1797 9.1211-1.1602 4.6797 0.039062 9.3398 0.73828 13.82 2.1211 7.5 2.1406 14.262 6.2812 19.559 12 3.3984 3.3398 4.9609 8.1211 4.1797 12.82z" fill="#ea5b0a"></path><path d="m135.22 201.4c-16.121-5.3984-33.539-5.4805-49.719-0.26172-36.32 11.02-58.902 42.98-50.34 71.238 6.6211 21.66 29.699 34.941 56.5 34.941 8.4609-0.039062 16.879-1.3008 24.961-3.7812 34.699-10.539 56.844-40.141 51.281-67.523l53.121-16.141c18.719 5.5781 40.641 12 65.34 19.18 42.922 12.461 76.297 16.801 102.02 16.801 57.859 0 76.84-22.039 77.941-23.379 1.7383-2.1211 2.3008-4.9805 1.5-7.582-0.80078-2.6211-2.8398-4.6797-5.4609-5.4805l-119.7-36.52 114.38-34.781c2.6211-0.80078 4.6602-2.8398 5.4609-5.4609 0.80078-2.6211 0.23828-5.4609-1.4805-7.6016-1.5781-1.9414-40.418-47.102-179.96-6.7812-23.801 6.9219-43.539 12.68-59.961 17.539l-47.781-14.582c5.6797-27.262-16.461-56.98-51.199-67.578-36.32-11.082-72.859 2.8594-81.48 31.102-8.6016 28.219 13.941 60.199 50.262 71.281l-0.019531-0.019532c16.18 5.2188 33.578 5.1406 49.719-0.23828l51.121 15.602c-0.67969 1.2812-1.3008 2.4414-1.8594 3.4219zm19.941 21.34c-2.2617 0.67969-4.1016 2.3008-5.0781 4.4414-0.98047 2.1406-0.98047 4.6016-0.039062 6.7383 0.48047 1.0586 0.89844 2.1797 1.2188 3.1406 5.9414 19.578-11.738 42.359-39.398 50.762-27.66 8.3984-55.02-0.67969-60.98-20.219-5.9414-19.578 11.738-42.359 39.418-50.762h-0.019531c13.539-4.3984 28.16-4.1211 41.52 0.82031 1.7383 0.71875 3.6797 0.82031 5.5 0.26172l60.297-18.301c1.8203-0.55859 3.3789-1.7383 4.4414-3.3203 0.039063-0.058593 0.10156-0.14062 0.14063-0.19922 1.8008 3.7383 3.5586 7.5391 5.0391 10.82zm130.46-78.66c87.02-25.141 130.94-15.418 150.12-6.6406l-121.26 36.859-64.797-19.781c10.82-3.1602 22.738-6.6211 35.941-10.461zm-148.42 5.4414c-13.359 4.9219-27.98 5.1992-41.52 0.80078-27.66-8.4414-45.301-31.219-39.34-50.781 5.9609-19.559 33.34-28.621 60.98-20.18 27.66 8.4414 45.301 31.219 39.34 50.781-0.32031 1.0586-0.71875 2.1211-1.1992 3.1211-0.96094 2.1602-0.96094 4.6211 0 6.7812 0.98047 2.1406 2.8398 3.7812 5.1016 4.4609l58 17.699 0.078125 0.019531 93.242 28.441 0.058594 0.019532 129.1 39.379c-19.238 8.7812-63.18 18.422-150.08-6.8008-25.539-7.418-48.141-14.039-67.242-19.738v0.019531c-4.8203-11.141-10.238-22.02-16.281-32.559-1.0586-1.5781-2.6211-2.7617-4.4609-3.3203l-60.277-18.398c-1.8203-0.53906-3.7617-0.46094-5.5 0.26172z" fill="#ea5b0a"></path><path d="m122.52 222.96c-10.219-2.5391-20.961-2.1797-30.98 1.0391-23.781 7.2188-38.422 26-33.34 42.719 3.2812 9.1406 11.02 15.941 20.5 18 4.2617 1.1602 8.6602 1.7188 13.059 1.6992 6.0781-0.039063 12.121-0.96094 17.922-2.7383 10.121-2.8984 19.238-8.5586 26.301-16.379 6.7383-6.9805 9.3984-16.941 7.0391-26.34-3.2617-9.1406-11.02-15.941-20.5-18zm1.0195 33.641-0.019531 0.019532c-5.0391 5.4219-11.48 9.3398-18.621 11.34-7.0391 2.3008-14.582 2.6211-21.801 0.94141-4.0195-0.66016-7.4609-3.2617-9.1797-6.9414-2.0195-6.6602 7.1211-17.602 22.398-22.242 4.2617-1.3203 8.6992-2 13.16-2.0195 2.9219-0.019531 5.8203 0.33984 8.6406 1.0781 4.0195 0.66016 7.4609 3.2617 9.1797 6.9609 0.62109 4.0195-0.80078 8.1016-3.7812 10.879z" fill="#ea5b0a"></path><path d="m240.96 192.96c10.559 0 10.578-16.418 0-16.418s-10.578 16.418 0 16.418z" fill="#ea5b0a"></path><path d="m490.6 334.08-469.88 2.8203 0.67969 115.36 469.88-2.8008zm-51.801 99.242-0.23828-41.262v0.019531c-0.019532-3.3789-2.7812-6.1211-6.1602-6.1211h-0.039063c-1.6211 0-3.1992 0.66016-4.3398 1.8203s-1.7812 2.7383-1.7812 4.3789l0.23828 41.262-28.102 0.16016-0.16016-27.52c-0.019532-3.3789-2.7617-6.1211-6.1602-6.1211h-0.019532c-1.6406 0-3.1992 0.66016-4.3594 1.8203-1.1406 1.1797-1.7812 2.7383-1.7617 4.3789l0.16016 27.52-28.102 0.16016-0.16016-27.52h-0.019531c-0.019531-3.3789-2.7617-6.1211-6.1406-6.1211h-0.039063c-1.6406 0-3.1992 0.66016-4.3398 1.8203-1.1602 1.1797-1.8008 2.7383-1.7812 4.3789l0.16016 27.52-28.102 0.16016-0.23828-41.262c-0.078125-3.3789-2.8203-6.0781-6.1992-6.1211-1.6406 0.019531-3.1992 0.66016-4.3398 1.8398-1.1602 1.1602-1.8008 2.7188-1.7812 4.3594l0.23828 41.262-28.102 0.16016-0.16016-27.52c-0.019531-3.3789-2.7812-6.1211-6.1602-6.1211h-0.039063c-1.6211 0.019531-3.1992 0.67969-4.3398 1.8398-1.1406 1.1602-1.7812 2.7188-1.7812 4.3594l0.16016 27.52-28.102 0.16016-0.16016-27.52c-0.019531-3.3789-2.7617-6.1211-6.1602-6.1211h-0.039063 0.019532c-3.3984 0.019531-6.1406 2.8008-6.1211 6.1992l0.16016 27.52-28.102 0.16016-0.23828-41.262h-0.019531c-0.019531-3.3789-2.7617-6.1211-6.1406-6.1211h-0.039062c-1.6406 0.019531-3.1992 0.67969-4.3398 1.8398-1.1602 1.1602-1.8008 2.7188-1.7812 4.3594l0.23828 41.262-28.102 0.16016-0.16016-27.52c-0.019531-3.3789-2.7812-6.1211-6.1602-6.1211h-0.039062c-1.6406 0.019531-3.1992 0.67969-4.3398 1.8398-1.1406 1.1602-1.7812 2.7188-1.7812 4.3594l0.16016 27.52-28.102 0.16016-0.16016-27.52v0.019532c-0.019531-3.3984-2.7812-6.1406-6.1602-6.1406h-0.039063c-1.6211 0.019531-3.1992 0.67969-4.3398 1.8398-1.1406 1.1602-1.7812 2.7383-1.7812 4.3594l0.16016 27.52-28.102 0.16016-0.23828-41.262v0.019532c-0.019531-3.3984-2.7617-6.1406-6.1602-6.1406h-0.039063c-1.6211 0.019532-3.1797 0.67969-4.3398 1.8398-1.1406 1.1602-1.7812 2.7188-1.7812 4.3594l0.23828 41.262-25.02 0.14062-0.48047-82.5 437.04-2.6016 0.5 82.52z" fill="#ea5b0a"></path></svg>