<svg xmlns="http://www.w3.org/2000/svg" width="512pt" height="512pt" viewBox="0 0 512 512"><path d="m385.54 279.73c0.47656 1.7852 0.22656 3.6875-0.69922 5.2852-0.92578 1.6016-2.4492 2.7695-4.2344 3.2461l-28.602 7.6797c-1.8086 0.54297-3.7578 0.33203-5.4062-0.58984-1.6445-0.91797-2.8516-2.4688-3.3359-4.293-0.48437-1.8203-0.21094-3.7656 0.76172-5.3828 0.97266-1.6172 2.5586-2.7695 4.3945-3.1953l28.609-7.6797h0.003906c3.707-0.97656 7.5078 1.2266 8.5078 4.9297zm-58.773-2.6016 47.445-12.715 0.003907 0.003906c1.8164-0.44922 3.375-1.6094 4.3242-3.2188 0.95312-1.6094 1.2188-3.5352 0.73828-5.3398-0.48047-1.8086-1.668-3.3438-3.293-4.2695-1.6289-0.92188-3.5547-1.1523-5.3555-0.64063l-47.445 12.734c-3.6523 1.043-5.7969 4.8203-4.8203 8.4922s4.7148 5.8867 8.4023 4.9727zm-81.781 115.64c-5.0391 8.7461-13.352 15.129-23.102 17.746-9.75 2.6133-20.137 1.2461-28.879-3.8008s-15.121-13.359-17.73-23.109c-2.6133-9.7539-1.2383-20.141 3.8125-28.879 5.0508-8.7422 13.371-15.113 23.121-17.719 9.7539-2.6055 20.141-1.2266 28.879 3.832 8.7305 5.043 15.098 13.348 17.703 23.086 2.6094 9.7383 1.2383 20.113-3.8047 28.844zm-20.867-39.895c-5.5391-3.1914-12.121-4.0547-18.297-2.3945-6.1758 1.6562-11.441 5.7031-14.633 11.242-3.1953 5.5391-4.0547 12.121-2.3984 18.297 1.6602 6.1758 5.707 11.438 11.246 14.633 5.5391 3.1914 12.121 4.0547 18.297 2.3945s11.438-5.7031 14.633-11.246c3.1836-5.5391 4.0391-12.117 2.3828-18.289-1.6602-6.1758-5.6992-11.438-11.23-14.637zm258.41-32.512c-3.6289 6.3125-9.6211 10.918-16.656 12.801l-180.04 48.277c-2.5898 24.996-17.664 46.977-40.047 58.402-22.383 11.422-49.031 10.73-70.793-1.8359-21.762-12.566-35.676-35.301-36.973-60.395-1.293-25.098 10.211-49.141 30.566-63.879l-46.898-175.02-75.605-20.281c-7.043-1.9531-13.027-6.6133-16.652-12.965-3.6211-6.3477-4.5859-13.875-2.6836-20.934 1.9023-7.0586 6.5195-13.078 12.84-16.746 6.293-3.6523 13.777-4.6484 20.805-2.7695l102.53 27.477c2.4375 0.65234 4.3359 2.5703 4.957 5.0195l16.34 60.984 173.25-46.418c1.7812-0.48047 3.6836-0.23047 5.2852 0.69531 1.6016 0.92578 2.7656 2.4492 3.2422 4.2344l46.418 173.24 39.176-10.492c7.0742-1.832 14.59-0.79297 20.902 2.8945 6.3164 3.6875 10.914 9.7227 12.793 16.785 1.8828 7.0664 0.89062 14.59-2.7539 20.926zm-224.82-167.13 13.754 51.332 26.746-7.168-13.75-51.324zm-69.883 18.73 34.387 128.33c9.4883 1.3359 18.633 4.4844 26.934 9.2734 8.293 4.7852 15.586 11.129 21.473 18.684l128.34-34.398-44.613-166.51-56.422 15.121 15.559 58.066v-0.003906c0.99219 3.7227-1.2188 7.543-4.9375 8.5352l-40.207 10.754c-1.7852 0.47656-3.6875 0.22266-5.2852-0.70312-1.6016-0.92578-2.7656-2.4492-3.2422-4.2344l-15.578-58.035zm-6.793 134.45v-0.003906c8.3867-3.8477 17.414-6.1016 26.625-6.6562l-52.223-194.84-98.66-26.434c-5.3516-1.3633-10.996 0.60547-14.344 4.9961-3.3477 4.3906-3.7461 10.355-1.0156 15.156 1.7852 3.1367 4.7617 5.418 8.2539 6.3281l79.395 21.273c2.4492 0.62109 4.3672 2.5156 5.0195 4.957zm81.07 33.793c-0.046875-0.070312-0.097656-0.14453-0.14453-0.21875v-0.003906c-5.1172-7.5469-11.879-13.832-19.777-18.383-17.219-9.9414-38.238-10.738-56.164-2.1367-17.926 8.6055-30.449 25.5-33.469 45.156-3.0156 19.652 3.8633 39.531 18.383 53.113 14.523 13.586 34.812 19.125 54.223 14.809 19.406-4.3203 35.434-17.941 42.824-36.402 7.3945-18.457 5.1953-39.375-5.8711-55.895zm193.07-46.988-176.77 47.367c4.1094 8.2539 6.6602 17.199 7.5156 26.379l176.37-47.258h0.003906c3.4609-0.93359 6.4062-3.207 8.1914-6.3164 2.707-4.793 2.3086-10.734-1.0195-15.121-3.3242-4.3828-8.9414-6.3711-14.285-5.0508z" fill="#ea5b0a"></path></svg>