<svg xmlns="http://www.w3.org/2000/svg" width="512pt" height="512pt" viewBox="0 0 512 512"><path d="m256 25.578c38.922 0 58.543 47.262 30.98 74.82-5.9414 5.9414-13.578 10.18-22.121 11.941v67.262c14.602 1.6797 27.941 7.4414 38.879 16.121l47.559-47.559c-19.039-28.879 1.6211-67.922 36.621-67.922 38.941 0 58.5 47.301 31 74.82-14.84 14.84-37.918 16.941-55.082 5.6406l-47.559 47.559c8.6797 10.941 14.441 24.281 16.121 38.879h67.281c6.9414-33.941 49.18-46.84 73.883-22.121 27.422 27.422 8.0391 74.82-30.98 74.82-20.961 0-38.781-14.781-42.898-34.961l-67.281-0.039062c-1.6797 14.602-7.4414 27.961-16.121 38.879l47.559 47.559c28.879-19.039 67.922 1.6211 67.922 36.621 0 38.961-47.301 58.5-74.82 31-14.84-14.84-16.941-37.918-5.6406-55.082l-47.559-47.559c-10.941 8.6797-24.281 14.441-38.879 16.121v67.262c33.879 6.9609 46.879 49.16 22.121 73.922-27.539 27.539-74.82 7.9219-74.82-30.98 0-20.98 14.82-38.781 34.961-42.922l0.019531-67.281c-14.602-1.6797-27.961-7.4414-38.879-16.121l-47.559 47.559c19.039 28.879-1.6211 67.922-36.621 67.922-38.961 0-58.5-47.301-31-74.82 14.84-14.84 37.918-16.941 55.082-5.6406l47.559-47.559c-8.6797-10.941-14.441-24.281-16.121-38.879h-67.281c-6.9414 33.941-49.16 46.84-73.883 22.121-27.422-27.422-8.0391-74.82 30.98-74.82 20.961 0 38.762 14.781 42.898 34.961l67.281 0.019532c1.6797-14.602 7.4414-27.961 16.121-38.879l-47.559-47.559c-28.879 19.039-67.922-1.6211-67.922-36.621 0-38.961 47.301-58.5 74.82-31 14.84 14.84 16.941 37.918 5.6406 55.082l47.559 47.559c10.941-8.6797 24.281-14.441 38.879-16.121v-67.242c-33.879-6.9609-46.879-49.16-22.121-73.922 7.9219-7.9414 18.879-12.84 30.98-12.84zm41.84 188.56c-37.18-37.18-101.02-10.699-101.02 41.84 0 52.543 63.84 79.023 101.02 41.84 23.121-23.102 23.121-60.559 0-83.68zm-173.78-63.98c23.199 0 34.84-28.18 18.461-44.559-16.379-16.379-44.559-4.7383-44.559 18.461 0.019531 14.422 11.699 26.102 26.102 26.102zm-36.18 124.28c16.52-16.52 4.6211-44.559-18.461-44.559-23.078 0-34.98 28.039-18.461 44.559 10.199 10.199 26.738 10.199 36.918 0zm62.301 113.48c0-23.199-28.18-34.84-44.559-18.461s-4.7383 44.559 18.461 44.559c14.422 0 26.102-11.699 26.102-26.102zm124.28 36.18c-16.398-16.398-44.559-4.7188-44.559 18.461 0 23.18 28.16 34.859 44.559 18.461 10.199-10.199 10.199-26.719 0-36.918zm113.46-10.082c23.199 0 34.84-28.18 18.461-44.559-16.379-16.379-44.559-4.7383-44.559 18.461 0 14.398 11.68 26.102 26.102 26.102zm73.117-139.58c16.52-16.52 4.6211-44.559-18.461-44.559-23.078 0-34.98 28.039-18.461 44.559 10.199 10.199 26.719 10.199 36.918 0zm-47.02-150.38c0-23.199-28.18-34.84-44.559-18.461-16.379 16.379-4.7383 44.559 18.461 44.559 14.422 0 26.102-11.68 26.102-26.102zm-139.56-73.098c-16.398-16.398-44.559-4.7188-44.559 18.461 0 23.18 28.16 34.859 44.559 18.461 10.199-10.199 10.199-26.738 0-36.918z" fill="#ea5b0a" fill-rule="evenodd"></path></svg>