<svg xmlns="http://www.w3.org/2000/svg" width="512pt" height="512pt" viewBox="0 0 512 512"><path d="m486.55 410.61-78.66-78.664-19.781-19.859c-6.1289-6.1289-16.137-6.1289-22.344 0l-2.9492 2.9492-21.953-21.953c49.262-72.145 40.57-168.26-21.488-230.4-70.75-70.672-185.87-70.672-256.54 0-70.75 70.75-70.75 185.87 0 256.62 35.219 35.219 81.379 53.293 128 53.293 35.453 0 71.137-10.473 102.4-31.805l21.953 21.953-2.9492 2.9492c-2.9492 2.9492-4.6562 6.9023-4.6562 11.172 0 4.1875 1.6289 8.1445 4.6562 11.172l98.52 98.52c10.164 10.164 23.582 15.746 37.934 15.746 14.352 0 27.852-5.5859 37.934-15.746 20.875-20.949 20.875-55.004-0.070312-75.949zm-196.19-82.074c-67.879 49.105-160.2 41.812-219.38-17.379-66.25-66.25-66.25-173.93 0-240.18 33.047-33.047 76.566-49.648 120.01-49.648 43.441 0 86.961 16.523 120.09 49.648 59.191 59.27 66.484 151.5 17.379 219.46-1.707 2.3281-1.3945 5.5078 0.62109 7.5234l25.445 25.445-31.184 31.184-25.445-25.445c-2.0195-2.0117-5.2031-2.3203-7.5273-0.61328zm28.781 48.406c0-1.0859 0.38672-2.1719 1.2422-2.9492l53.605-53.605c0.77734-0.77734 1.8633-1.2422 2.9492-1.2422 1.0859 0 2.0938 0.38672 2.9492 1.2422l15.672 15.672-59.422 59.422-15.746-15.746c-0.78516-0.69922-1.25-1.707-1.25-2.793zm159.18 101.39c-7.9141 7.9141-18.539 12.336-29.711 12.336-11.25 0-21.797-4.3438-29.711-12.336l-74.551-74.551 59.422-59.422 74.551 74.551c16.367 16.367 16.367 43.055 0 59.422z" fill="#ea5b0a"></path><path d="m289.59 92.547c-26.297-26.297-61.285-40.805-98.52-40.805-37.238 0-72.223 14.508-98.52 40.805s-40.805 61.285-40.805 98.52c0 37.238 14.508 72.223 40.805 98.52 26.297 26.297 61.285 40.805 98.52 40.805 37.238 0 72.223-14.508 98.52-40.805 26.297-26.297 40.805-61.285 40.805-98.52s-14.508-72.219-40.805-98.52zm-8.2227 188.82c-24.047 24.125-56.164 37.391-90.297 37.391-34.133 0-66.25-13.266-90.297-37.391-24.125-24.047-37.391-56.164-37.391-90.297 0-34.133 13.266-66.25 37.391-90.297 24.125-24.047 56.164-37.391 90.297-37.391 34.133 0 66.172 13.266 90.297 37.391s37.391 56.164 37.391 90.297c0 34.133-13.266 66.172-37.391 90.297z" fill="#ea5b0a"></path><path d="m191.07 83.859c-43.832 0-79.438 35.684-79.438 79.438 0 34.598 48.02 102.09 68.656 129.55 2.5586 3.4141 6.5156 5.4297 10.859 5.4297s8.2227-1.9375 10.859-5.4297c20.637-27.461 68.656-94.953 68.656-129.55-0.15625-43.832-35.766-79.438-79.594-79.438zm1.4727 202.01c-1.0078 1.3203-2.0156 1.3203-3.0273 0-15.594-20.637-66.328-90.609-66.328-122.57 0-37.391 30.41-67.801 67.801-67.801s67.879 30.41 67.879 67.801c0.003906 31.961-50.73 101.93-66.324 122.57z" fill="#ea5b0a"></path><path d="m191.07 128.08c-19.473 0-35.219 15.824-35.219 35.297s15.824 35.219 35.219 35.219c19.395 0 35.219-15.824 35.219-35.219 0-19.473-15.824-35.297-35.219-35.297zm0 58.879c-13.031 0-23.582-10.629-23.582-23.582 0-12.957 10.629-23.66 23.582-23.66 12.957 0 23.582 10.629 23.582 23.66s-10.551 23.582-23.582 23.582z" fill="#ea5b0a"></path></svg>