<svg xmlns="http://www.w3.org/2000/svg" width="512pt" height="512pt" viewBox="0 0 512 512"><path d="m512 256c0 141.39-114.61 256-256 256s-256-114.61-256-256 114.61-256 256-256 256 114.61 256 256" fill="#ea5b0a"></path><path d="m205.8 235.16c-13.305 0-25.754-5.1758-35.129-14.551-9.3711-9.3711-14.551-21.891-14.551-35.129 0-13.305 5.1758-25.754 14.551-35.129 9.3711-9.3711 21.891-14.551 35.129-14.551 13.305 0 25.754 5.1758 35.129 14.551 9.3711 9.3711 14.551 21.891 14.551 35.129s-5.1758 25.754-14.551 35.129-21.891 14.551-35.129 14.551zm0-91.949c-23.266 0-42.141 18.941-42.141 42.141 0 23.199 18.941 42.141 42.141 42.141s42.141-18.941 42.141-42.141c-0.003906-23.199-18.875-42.141-42.141-42.141z" fill="#fff" fill-rule="evenodd"></path><path d="m205.8 206.19c-5.1133 0-9.7656-2.4922-12.191-6.5547-1.0469-1.7695-0.45703-4.1289 1.3125-5.1758 1.7695-1.0469 4.1289-0.45703 5.1758 1.3125 0.98438 1.7031 3.2109 2.8164 5.6367 2.8164 3.3438 0 6.1602-2.1641 6.1602-4.7188 0-2.5547-2.8164-4.7188-6.1602-4.7188-7.6016 0-13.695-5.5039-13.695-12.254s6.1602-12.254 13.695-12.254c5.3086 0 10.223 2.7539 12.453 7.0781 0.98438 1.8359 0.26172 4.1289-1.5742 5.1133-1.8359 0.98437-4.1289 0.26172-5.1133-1.5742-0.91797-1.8359-3.2773-3.0156-5.7656-3.0156-3.3438 0-6.1602 2.1641-6.1602 4.7188 0 2.5547 2.8164 4.7188 6.1602 4.7188 7.6016 0 13.695 5.5039 13.695 12.254 0.066406 6.75-6.0938 12.254-13.629 12.254z" fill="#fff" fill-rule="evenodd"></path><path d="m205.8 210.65c-2.0977 0-3.8008-1.7031-3.8008-3.8008v-4.457c0-2.0977 1.7031-3.8008 3.8008-3.8008 2.0977 0 3.8008 1.7031 3.8008 3.8008v4.457c-0.066406 2.0977-1.7031 3.8008-3.8008 3.8008z" fill="#fff" fill-rule="evenodd"></path><path d="m205.8 172.18c-2.0977 0-3.8008-1.7031-3.8008-3.8008v-4.457c0-2.0977 1.7031-3.8008 3.8008-3.8008 2.0977 0 3.8008 1.7031 3.8008 3.8008v4.457c-0.066406 2.0977-1.7031 3.8008-3.8008 3.8008z" fill="#fff" fill-rule="evenodd"></path><path d="m205.8 255.15c-12.648 0-24.574-1.5078-33.621-4.3242-4.5859-1.4414-8.3242-3.082-10.945-5.0469-4.2617-3.082-5.1758-6.3555-5.1758-8.5195 0-2.8164 1.4414-6.8828 8.3242-10.484 4.3242-2.293 10.422-4.1289 17.629-5.4414 2.0312-0.39453 3.9961 0.98438 4.3906 3.082 0.39453 2.0312-0.98438 3.9961-3.082 4.3906-6.4219 1.1797-11.797 2.7539-15.465 4.7188-3.3438 1.7695-4.2617 3.2773-4.2617 3.8008 0 0.78516 1.9648 3.6719 10.812 6.3555 8.3242 2.5547 19.465 3.9336 31.391 3.9336s23.07-1.375 31.391-3.9336c8.7812-2.6875 10.812-5.5703 10.812-6.3555 0-0.52344-0.91797-2.0312-4.2617-3.8008-3.6719-1.9023-8.9766-3.5391-15.465-4.7188-2.0312-0.39453-3.4062-2.3594-3.082-4.3906 0.39453-2.0312 2.3594-3.4062 4.3906-3.082 7.207 1.3125 13.305 3.1445 17.629 5.4414 6.8828 3.6055 8.3242 7.668 8.3242 10.484 0 2.1641-0.91797 5.4414-5.1758 8.5195-2.6211 1.9023-6.3555 3.6055-10.945 5.0469-9.0391 2.8164-20.965 4.3242-33.613 4.3242z" fill="#fff" fill-rule="evenodd"></path><path d="m205.8 279.66c-8.2578 0-16.383-0.65625-23.527-1.9023-7.2734-1.3125-13.434-3.1445-17.762-5.4414-6.9453-3.6055-8.3867-7.7344-8.3867-10.484 0-2.0977 1.7031-3.8008 3.8008-3.8008 2.0977 0 3.8008 1.7031 3.8008 3.8008 0 0.52344 0.91797 2.0312 4.3242 3.8008 3.7344 1.9023 9.1094 3.5391 15.598 4.7188 6.6836 1.1797 14.418 1.8359 22.215 1.8359s15.531-0.65625 22.215-1.8359c6.4883-1.1797 11.926-2.7539 15.598-4.7188 3.4062-1.7695 4.3242-3.2773 4.3242-3.8008 0-2.0977 1.7031-3.8008 3.8008-3.8008 2.0977 0 3.8008 1.7031 3.8008 3.8008 0 2.8164-1.4414 6.8828-8.3867 10.484-4.3906 2.293-10.551 4.1289-17.762 5.4414-7.2695 1.2461-15.395 1.9023-23.652 1.9023z" fill="#fff" fill-rule="evenodd"></path><path d="m205.8 304.11c-8.2578 0-16.383-0.65625-23.527-1.9023-7.2734-1.3125-13.434-3.1445-17.762-5.4414-6.9453-3.6055-8.3867-7.7344-8.3867-10.484 0-2.0977 1.7031-3.8008 3.8008-3.8008 2.0977 0 3.8008 1.7031 3.8008 3.8008 0 0.52344 0.91797 2.0312 4.3242 3.8008 3.7344 1.9023 9.1094 3.5391 15.598 4.7188 6.6836 1.1797 14.418 1.8359 22.215 1.8359s15.531-0.65625 22.215-1.8359c6.4883-1.1797 11.926-2.7539 15.598-4.7188 3.4062-1.7695 4.3242-3.2773 4.3242-3.8008 0-2.0977 1.7031-3.8008 3.8008-3.8008 2.0977 0 3.8008 1.7031 3.8008 3.8008 0 2.8164-1.4414 6.8828-8.3867 10.484-4.3906 2.293-10.551 4.1289-17.762 5.4414-7.2695 1.2461-15.395 1.9023-23.652 1.9023z" fill="#fff" fill-rule="evenodd"></path><path d="m205.8 328.55c-8.2578 0-16.383-0.65625-23.527-1.9023-7.2734-1.3125-13.434-3.1445-17.762-5.4414-6.9453-3.6055-8.3867-7.7344-8.3867-10.484 0-2.0977 1.7031-3.8008 3.8008-3.8008 2.0977 0 3.8008 1.7031 3.8008 3.8008 0 0.52344 0.91797 2.0312 4.3242 3.8008 3.7344 1.9023 9.1094 3.5391 15.598 4.7188 6.6836 1.1797 14.418 1.8359 22.215 1.8359s15.531-0.65625 22.215-1.8359c4.9805-0.85156 9.3711-2.0312 12.844-3.4062 1.9648-0.78516 4.1289 0.19531 4.9141 2.0977 0.78516 1.9648-0.19531 4.1289-2.0977 4.9141-3.9336 1.5742-8.7812 2.8828-14.285 3.8672-7.2695 1.1797-15.395 1.8359-23.652 1.8359z" fill="#fff" fill-rule="evenodd"></path><path d="m205.8 352.93c-8.2578 0-16.383-0.65625-23.527-1.9023-7.2734-1.3125-13.434-3.1445-17.762-5.4414-6.9453-3.6055-8.3867-7.7344-8.3867-10.484 0-2.0977 1.7031-3.8008 3.8008-3.8008 2.0977 0 3.8008 1.7031 3.8008 3.8008 0 0.52344 0.91797 2.0312 4.3242 3.8008 3.7344 1.9023 9.1094 3.5391 15.598 4.7188 6.6836 1.1797 14.418 1.8359 22.215 1.8359s15.531-0.65625 22.215-1.8359c7.4727-1.3125 13.566-3.2773 17.172-5.5703 1.7695-1.1133 4.0625-0.58984 5.2422 1.1797 1.1797 1.7695 0.58984 4.0625-1.1797 5.2422-4.457 2.8164-11.336 5.1133-19.922 6.6836-7.207 1.1172-15.332 1.7734-23.59 1.7734z" fill="#fff" fill-rule="evenodd"></path><path d="m205.8 377.31c-8.2578 0-16.383-0.65625-23.527-1.9023-7.2734-1.3125-13.434-3.1445-17.762-5.4414-6.9453-3.6055-8.3867-7.7344-8.3867-10.484v-122.16c0-2.0977 1.7031-3.8008 3.8008-3.8008 2.0977 0 3.8008 1.7031 3.8008 3.8008v122.09c0 0.52344 0.91797 2.0312 4.3242 3.8008 3.7344 1.9023 9.1094 3.5391 15.598 4.7188 6.6836 1.1797 14.418 1.8359 22.215 1.8359s15.531-0.65625 22.215-1.8359c6.4883-1.1797 11.926-2.7539 15.598-4.7188 3.4062-1.7695 4.3242-3.2773 4.3242-3.8008v-10.484c0-2.0977 1.7031-3.8008 3.8008-3.8008 2.0977 0 3.8008 1.7031 3.8008 3.8008v10.484c0 2.8164-1.4414 6.8828-8.3867 10.484-4.3906 2.293-10.551 4.1289-17.762 5.4414-7.2695 1.2422-15.395 1.9648-23.652 1.9648z" fill="#fff" fill-rule="evenodd"></path><path d="m251.74 292.11c-2.0977 0-3.8008-1.7031-3.8008-3.8008v-51.051c0-2.0977 1.7031-3.8008 3.8008-3.8008 2.0977 0 3.8008 1.7031 3.8008 3.8008v51.051c-0.066407 2.0977-1.707 3.8008-3.8008 3.8008z" fill="#fff" fill-rule="evenodd"></path><path d="m276.32 243.81c-1.4414 0-2.8164-0.85156-3.4727-2.2266l-13.238-29.23c-0.52344-1.1797-0.45703-2.5547 0.26172-3.6055 0.72266-1.0469 1.9023-1.7031 3.1445-1.7031 5.1758 0 7.9297 1.4414 10.223 2.6211 1.9023 0.98438 3.4062 1.7695 6.75 1.7695s4.8516-0.78516 6.75-1.7695c2.2266-1.1797 5.0469-2.6211 10.223-2.6211s7.9297 1.4414 10.223 2.6211c1.9023 0.98438 3.4062 1.7695 6.75 1.7695s4.8516-0.78516 6.75-1.7695c2.2266-1.1797 5.0469-2.6211 10.223-2.6211 1.3125 0 2.4922 0.65625 3.1445 1.7031 0.72266 1.0469 0.78516 2.4258 0.26172 3.6055l-13.102 29.227c-0.85156 1.9023-3.082 2.7539-4.9805 1.9023-1.9023-0.85156-2.7539-3.082-1.9023-4.9805l10.027-22.215c-0.066406 0-0.066406 0.066407-0.13281 0.066407-2.2266 1.1797-5.0469 2.6211-10.223 2.6211-5.1758 0-7.9297-1.4414-10.223-2.6211-1.9023-0.98438-3.4062-1.7695-6.75-1.7695s-4.8516 0.78516-6.75 1.7695c-2.2266 1.1797-5.0469 2.6211-10.223 2.6211s-7.9297-1.4414-10.223-2.6211c-0.066406 0-0.066406-0.066407-0.13281-0.066407l10.027 22.215c0.85156 1.9023 0 4.1289-1.9023 4.9805-0.45703 0.19531-0.98047 0.32812-1.5039 0.32812z" fill="#fff" fill-rule="evenodd"></path><path d="m298.73 377.31c-10.289 0-20.449-2.7539-29.359-7.9961l-2.8164-1.6367c-6.5547-3.8672-12.125-8.8477-16.711-14.812-3.9336-5.1133-6.8828-10.879-8.7812-16.973-1.9023-5.9648-2.7539-12.191-2.5547-18.48 0.19531-6.293 1.375-12.453 3.5391-18.352 2.2266-6.0312 5.4414-11.602 9.5664-16.582l21.691-26.344c1.3125-1.6367 3.7344-1.8359 5.3086-0.52344 1.6367 1.3125 1.8359 3.7344 0.52344 5.3086l-21.691 26.344c-14.68 17.824-15.27 42.926-1.5078 61.078 3.9336 5.1758 8.8477 9.5664 14.551 12.91l2.8164 1.6367c7.7344 4.5234 16.582 6.9453 25.492 6.9453 9.6328 0 19.004-2.7539 27.133-7.9297 6.2266-3.9961 11.402-9.1094 15.336-15.336 11.273-17.762 9.8945-40.828-3.5391-57.41l-22.938-28.312c-1.3125-1.6367-1.0469-3.9961 0.58984-5.3086 1.6367-1.3125 3.9961-1.0469 5.3086 0.58984l22.938 28.312c7.5352 9.3047 11.926 20.512 12.715 32.441 0.78516 11.992-2.2266 23.66-8.6523 33.75-4.5234 7.1445-10.484 13.043-17.629 17.629-9.4414 5.8398-20.254 9.0508-31.328 9.0508z" fill="#fff" fill-rule="evenodd"></path><path d="m297.36 341.2c-5.6367 0-10.746-2.7539-13.371-7.207-1.0469-1.7695-0.45703-4.1289 1.3125-5.1758s4.1289-0.45703 5.1758 1.3125c1.2461 2.0977 3.9336 3.4727 6.8828 3.4727 4.1289 0 7.5352-2.6211 7.5352-5.8984s-3.4062-5.8984-7.5352-5.8984c-8.3242 0-15.074-6.0312-15.074-13.434 0-7.4062 6.75-13.434 15.074-13.434 5.832 0 11.207 3.0156 13.695 7.7344 0.98438 1.8359 0.26172 4.1289-1.5742 5.1133-1.8359 0.98438-4.1289 0.26172-5.1133-1.5742-1.1797-2.2266-3.9336-3.6719-7.0117-3.6719-4.1289 0-7.5352 2.6211-7.5352 5.8984s3.4062 5.8984 7.5352 5.8984c8.3242 0 15.074 6.0312 15.074 13.434 0 7.4648-6.75 13.43-15.07 13.43z" fill="#fff" fill-rule="evenodd"></path><path d="m297.36 346.31c-2.0977 0-3.8008-1.7031-3.8008-3.8008v-5.1133c0-2.0977 1.7031-3.8008 3.8008-3.8008 2.0977 0 3.8008 1.7031 3.8008 3.8008v5.1133c0 2.0977-1.707 3.8008-3.8008 3.8008z" fill="#fff" fill-rule="evenodd"></path><path d="m297.36 302.6c-2.0977 0-3.8008-1.7031-3.8008-3.8008v-5.1133c0-2.0977 1.7031-3.8008 3.8008-3.8008 2.0977 0 3.8008 1.7031 3.8008 3.8008v5.1133c0 2.0977-1.707 3.8008-3.8008 3.8008z" fill="#fff" fill-rule="evenodd"></path><path d="m317.61 262.16h-41.484c-0.98438 0-1.9648-0.39453-2.6875-1.1133-0.72266-0.72266-1.1133-1.7031-1.1133-2.6875l0.19531-18.352c0-2.0977 1.7031-3.7344 3.8008-3.7344h41.418c0.98438 0 1.9648 0.39453 2.6875 1.1133 0.72266 0.72266 1.1133 1.7031 1.1133 2.6875l-0.13281 18.352c0.003906 2.0312-1.6992 3.7344-3.7969 3.7344zm-37.684-7.5352h33.949l0.066406-10.812h-33.883z" fill="#fff" fill-rule="evenodd"></path></svg>