<?xml version="1.0" encoding="UTF-8"?><svg id="Calque_1" xmlns="http://www.w3.org/2000/svg" viewBox="0 0 165 55"><defs><style>.cls-1{fill:#2dab66;}.cls-1,.cls-2{stroke-width:0px;}.cls-2{fill:#005520;}</style></defs><path class="cls-1" d="m41.27,24.47l5.23-17.15c.18-.47.23-.94.23-1.35,0-2.41-2.11-3.82-4.17-3.82-1.53,0-3.23.88-3.82,3.11-3.05,11.33-4.11,15.33-4.52,18.09-.53-3.41-1.23-6.11-4.35-17.09-.7-2.47-2.64-4.17-5.23-4.17s-4.58,1.88-5.17,3.99c-3.29,11.69-4.11,14.74-4.58,17.91-.47-3.29-2.11-8.16-4.52-18.56-.59-2.53-2.29-3.29-3.88-3.29-2.35,0-4.46,1.64-4.46,3.99,0,.41.12.82.23,1.29l6.75,22.2c.7,2.29,2.94,3.99,5.34,3.99,2.64,0,4.7-1.82,5.34-4.05,3.05-10.28,4.11-13.8,4.82-17.56.36,2.53.79,4.41,2.53,10.58,2.86,1.39,5.99,2.61,9.18,2.81,1.93.12,3.56-.16,5.02-.94Z"/><path class="cls-1" d="m28.73,28.45c.09.31.18.63.27.95.76,2.64,2.94,4.23,5.4,4.23,2.27,0,4.33-1.51,5.15-3.61-3.59.57-7.34-.26-10.82-1.57Z"/><path class="cls-1" d="m59.49,18.21c0-.13,0-.25,0-.38,0-4.87,3.58-8.46,8.46-8.46s8.51,3.58,8.51,8.46c0,3.24-1.59,5.91-4.1,7.34,2.27.44,4.64.1,6.81-.82,2.09-.88,3.73-2.18,5.17-3.7.15-.91.23-1.85.23-2.82,0-9.22-6.99-15.97-16.62-15.97s-16.56,6.75-16.56,15.97c0,.05,0,.09,0,.14.26-.09.52-.18.78-.25,2.4-.64,4.96-.32,7.33.49Z"/><path class="cls-1" d="m100.53,7.7c1.56.39,2.91,1.24,3.97,2.38.62-.19,1.31-.31,2.08-.35,3.17-.18,4.52-2.17,4.52-4.05,0-1.7-1.17-3.29-3.76-3.29-.29,0-.59,0-.88.06-2.76.35-4.52,1.82-5.75,3.88v-.06c0-2.7-2.06-4.17-4.17-4.17s-4.17,1.47-4.17,4.17v4.43c2.21-2.14,4.96-3.78,8.16-2.99Z"/><path class="cls-1" d="m100.07,12.54c-1.39-.69-2.61-.05-3.69.87-1.57,1.34-2.82,2.97-4.01,4.65v11.4c0,2.76,2.17,4.17,4.17,4.17s4.17-1.41,4.17-4.17v-13.8c0-.88.12-1.68.36-2.37-.28-.3-.61-.55-.99-.75Z"/><path class="cls-1" d="m126.2,26.04c-2.43,1.48-5.37,2.45-8.35,2.73v.43c0,2.76,2.11,4.17,4.23,4.17s4.17-1.41,4.17-4.17v-3.2s-.03.02-.05.03Z"/><path class="cls-1" d="m151.32,1.67c-3.99,0-7.22,1.41-9.16,4.29-1.82-2.82-4.82-4.29-8.22-4.29s-6.11,1.53-7.69,4.11c-.06-2.52-2.11-3.82-4.11-3.82-2.11,0-4.29,1.41-4.29,4.17v18.21c.1-.01.2-.02.3-.03,3.07-.39,5.83-1.75,8.1-3.76v-5.03c.06-4.52,2.17-6.69,5.17-6.69,2.13,0,4.31,1.21,4.7,5.21.37-.01.74-.01,1.12.02,2.64.24,5.17,1.39,7.4,2.99v-1.52c0-4.46,2.11-6.69,5.11-6.69,2.35,0,4.76,1.41,4.76,6.52v13.74c0,2.88,2.17,4.35,4.23,4.35s4.23-1.47,4.23-4.35v-15.09c0-8.57-5.64-12.33-11.63-12.33Z"/><path class="cls-1" d="m142.31,20.85c-1.74-1.32-3.94-2.56-6.14-2.43v10.67c0,2.88,2.17,4.35,4.23,4.35s4.23-1.47,4.23-4.35v-6.21c-.74-.75-1.53-1.44-2.32-2.04Z"/><path class="cls-2" d="m80.09,29.07c-5.22,4.3-13.27,3.57-18.34-.62,5.91,3.07,12.31,3.76,18.34.62-1.93.72-4,1.11-6.17,1.04-3.46-.11-6.53-1.5-9.33-3.45-2.58-1.8-4.99-3.77-8.16-4.37-1.53-.29-2.96-.02-4.33.53,2.01,6.61,8.04,11,15.84,11,4.94,0,9.19-1.77,12.15-4.74,0,0,0,0,0,0Z"/><path class="cls-2" d="m2.15,40.9h.97l.8,3.41.82-3.41h.72l.83,3.41.79-3.41h.96l-1.27,4.7h-.85l-.83-3.34-.82,3.34h-.88l-1.25-4.7Z"/><path class="cls-2" d="m11.8,45.6h-.83v-.5c-.22.41-.69.61-1.18.61-1.12,0-1.77-.87-1.77-1.86,0-1.1.79-1.85,1.77-1.85.64,0,1.02.34,1.18.62v-.51h.83v3.49Zm-2.95-1.73c0,.43.31,1.06,1.06,1.06.46,0,.77-.24.93-.56.08-.15.12-.32.13-.49,0-.17-.03-.34-.1-.49-.15-.33-.47-.62-.97-.62-.67,0-1.06.55-1.06,1.09h0Z"/><path class="cls-2" d="m14.21,43.06c0-.18-.1-.37-.43-.37-.28,0-.41.18-.41.35,0,.22.26.34.59.44.56.15,1.16.32,1.17,1.07.01.72-.59,1.18-1.32,1.18-.54,0-1.27-.28-1.34-1.12h.83c.03.37.36.45.52.45.26,0,.48-.17.48-.41,0-.3-.26-.38-.9-.6-.47-.15-.85-.41-.86-.91,0-.69.58-1.11,1.25-1.11.47,0,1.17.21,1.24,1.05h-.82Z"/><path class="cls-2" d="m16.05,42.76h-.58v-.64h.58v-1.21h.83v1.21h.6v.64h-.6v2.85h-.83v-2.85Z"/><path class="cls-2" d="m18.49,44.14c.04.56.53.87,1.01.86.41,0,.68-.18.84-.47h.86c-.17.39-.41.68-.71.88-.29.2-.64.31-1,.31-1.07,0-1.84-.87-1.84-1.84s.78-1.86,1.83-1.86c.52,0,.98.2,1.3.53.43.44.59.99.52,1.6h-2.81Zm1.99-.64c-.03-.33-.38-.79-.99-.79-.62,0-.95.45-.99.79h1.98Z"/><path class="cls-2" d="m23.98,40.9h.83v.74h-.83v-.74Zm0,1.21h.83v3.49h-.83v-3.49Z"/><path class="cls-2" d="m25.69,42.11h.78c0,.15,0,.3,0,.46.15-.27.46-.58,1.09-.57,1.14,0,1.35.88,1.35,1.49v2.1h-.83v-1.89c0-.52-.17-.92-.76-.92-.59,0-.79.4-.79.89v1.93h-.83v-3.49Z"/><path class="cls-2" d="m31.77,40.9h.83v1.63c.2-.37.62-.53,1.03-.52.54,0,.88.18,1.08.49.21.31.27.72.27,1.19v1.92h-.83v-1.88c0-.27-.04-.5-.16-.66-.12-.17-.31-.27-.6-.27-.33,0-.53.13-.64.31s-.15.38-.15.56v1.95h-.83v-4.7Z"/><path class="cls-2" d="m39,45.6h-.78v-.46c-.15.27-.46.58-1.09.57-1.14,0-1.36-.88-1.36-1.49v-2.11h.83v1.9c0,.52.17.92.76.92.6,0,.8-.39.8-.89v-1.93h.83v3.49Z"/><path class="cls-2" d="m39.89,42.11h.78v.44c.08-.16.41-.55,1.02-.55.29,0,.6.08.86.36.08.08.17.23.21.32.06-.11.14-.22.25-.33.22-.2.52-.34.89-.34.29,0,.66.08.93.35.32.33.38.62.38,1.34v1.91h-.83v-1.88c0-.22-.02-.46-.14-.65-.09-.17-.25-.29-.55-.29s-.5.13-.6.32c-.11.19-.12.37-.12.58v1.91h-.83v-1.91c0-.2-.02-.4-.11-.58-.1-.18-.27-.32-.57-.32-.31,0-.5.15-.6.32-.1.18-.13.4-.13.6v1.89h-.83v-3.49Z"/><path class="cls-2" d="m49.68,45.6h-.83v-.5c-.22.41-.69.61-1.18.61-1.12,0-1.77-.87-1.77-1.86,0-1.1.79-1.85,1.77-1.85.64,0,1.02.34,1.18.62v-.51h.83v3.49Zm-2.95-1.73c0,.43.31,1.06,1.06,1.06.46,0,.77-.24.93-.56.08-.15.12-.32.13-.49,0-.17-.03-.34-.1-.49-.15-.33-.47-.62-.97-.62-.67,0-1.06.55-1.06,1.09h0Z"/><path class="cls-2" d="m50.57,42.11h.78c0,.15,0,.3,0,.46.15-.27.46-.58,1.09-.57,1.14,0,1.35.88,1.35,1.49v2.1h-.83v-1.89c0-.52-.17-.92-.76-.92-.59,0-.79.4-.79.89v1.93h-.83v-3.49Z"/><path class="cls-2" d="m54.67,40.9h.83v.74h-.83v-.74Zm0,1.21h.83v3.49h-.83v-3.49Z"/><path class="cls-2" d="m56.61,42.76h-.58v-.64h.58v-1.21h.83v1.21h.6v.64h-.6v2.85h-.83v-2.85Z"/><path class="cls-2" d="m62.04,45.6h-.83v-.5c-.22.41-.69.61-1.18.61-1.12,0-1.77-.87-1.77-1.86,0-1.1.79-1.85,1.77-1.85.64,0,1.02.34,1.18.62v-.51h.83v3.49Zm-2.95-1.73c0,.43.31,1.06,1.06,1.06.46,0,.77-.24.93-.56.08-.15.12-.32.13-.49,0-.17-.03-.34-.1-.49-.15-.33-.47-.62-.97-.62-.67,0-1.06.55-1.06,1.09h0Z"/><path class="cls-2" d="m62.92,42.11h.79v.46c.15-.31.44-.56.97-.57v.84h-.04c-.58,0-.88.27-.88.88v1.88h-.83v-3.49Z"/><path class="cls-2" d="m65.25,40.9h.83v.74h-.83v-.74Zm0,1.21h.83v3.49h-.83v-3.49Z"/><path class="cls-2" d="m70.56,45.6h-.83v-.5c-.22.41-.69.61-1.18.61-1.12,0-1.77-.87-1.77-1.86,0-1.1.79-1.85,1.77-1.85.64,0,1.02.34,1.18.62v-.51h.83v3.49Zm-2.95-1.73c0,.43.31,1.06,1.06,1.06.46,0,.77-.24.93-.56.08-.15.12-.32.13-.49,0-.17-.03-.34-.1-.49-.15-.33-.47-.62-.97-.62-.67,0-1.06.55-1.06,1.09h0Z"/><path class="cls-2" d="m71.45,42.11h.78c0,.15,0,.3,0,.46.15-.27.46-.58,1.09-.57,1.14,0,1.35.88,1.35,1.49v2.1h-.83v-1.89c0-.52-.17-.92-.76-.92-.59,0-.79.4-.79.89v1.93h-.83v-3.49Z"/><path class="cls-2" d="m77.35,43.29c0-1.51,1.16-2.48,2.47-2.48,1.42,0,2.47,1.11,2.47,2.44s-1.04,2.44-2.48,2.44-2.46-1.14-2.46-2.4h0Zm.95-.04c0,.86.62,1.61,1.53,1.61s1.51-.83,1.51-1.6-.56-1.62-1.52-1.62-1.53.78-1.53,1.6h0Z"/><path class="cls-2" d="m83,42.11h.78v.51c.25-.35.65-.62,1.23-.62,1.22,0,1.74,1.04,1.74,1.88,0,.99-.71,1.82-1.73,1.82-.68,0-1.05-.35-1.19-.57v1.68h-.83v-4.71Zm2.92,1.74c0-.5-.36-1.07-1.07-1.07-.31,0-.57.12-.76.32-.18.19-.3.46-.3.77s.11.57.31.76c.19.19.46.31.76.31.64,0,1.06-.5,1.06-1.07h0Z"/><path class="cls-2" d="m88.08,44.14c.04.56.53.87,1.01.86.41,0,.68-.18.84-.47h.86c-.16.39-.41.68-.71.88-.29.2-.64.31-1,.31-1.07,0-1.84-.87-1.84-1.84s.78-1.86,1.83-1.86c.52,0,.98.2,1.3.53.43.44.59.99.51,1.6h-2.81Zm1.99-.64c-.03-.33-.38-.79-.99-.79-.62,0-.95.45-.99.79h1.98Z"/><path class="cls-2" d="m91.59,42.11h.79v.46c.15-.31.44-.56.97-.57v.84h-.04c-.58,0-.88.27-.88.88v1.88h-.83v-3.49Z"/><path class="cls-2" d="m97.31,45.6h-.83v-.5c-.22.41-.69.61-1.18.61-1.12,0-1.77-.87-1.77-1.86,0-1.1.79-1.85,1.77-1.85.64,0,1.02.34,1.18.62v-.51h.83v3.49Zm-2.95-1.73c0,.43.31,1.06,1.06,1.06.46,0,.77-.24.93-.56.08-.15.12-.32.13-.49,0-.17-.03-.34-.1-.49-.15-.33-.47-.62-.97-.62-.67,0-1.06.55-1.06,1.09h0Z"/><path class="cls-2" d="m98.43,42.76h-.58v-.64h.58v-1.21h.83v1.21h.6v.64h-.6v2.85h-.83v-2.85Z"/><path class="cls-2" d="m100.41,40.9h.83v.74h-.83v-.74Zm0,1.21h.83v3.49h-.83v-3.49Z"/><path class="cls-2" d="m101.94,43.85c0-.89.65-1.84,1.87-1.84s1.87.95,1.87,1.84-.65,1.85-1.87,1.85-1.87-.95-1.87-1.85h0Zm.83.01c0,.61.46,1.06,1.04,1.06s1.03-.45,1.03-1.07-.46-1.07-1.03-1.07-1.04.45-1.04,1.07h0Z"/><path class="cls-2" d="m106.39,42.11h.78c0,.15,0,.3,0,.46.15-.27.46-.58,1.09-.57,1.14,0,1.35.88,1.35,1.49v2.1h-.83v-1.89c0-.52-.17-.92-.76-.92-.59,0-.79.4-.79.89v1.93h-.83v-3.49Z"/><path class="cls-2" d="m111.99,43.06c0-.18-.1-.37-.43-.37-.28,0-.41.18-.41.35,0,.22.26.34.59.44.56.15,1.16.32,1.17,1.07.01.72-.59,1.18-1.32,1.18-.54,0-1.27-.28-1.34-1.12h.83c.03.37.36.45.52.45.26,0,.48-.17.48-.41,0-.3-.26-.38-.9-.6-.47-.15-.85-.41-.86-.91,0-.69.58-1.11,1.25-1.11.47,0,1.17.21,1.24,1.05h-.82Z"/><path class="cls-2" d="m114.6,43.06h-.87v-.94h.87v.94Zm0,2.55h-.87v-.94h.87v.94Z"/><path class="cls-2" d="m2.48,48.53h1.23c.74,0,1.08.09,1.32.24.38.23.64.73.64,1.26,0,.32-.08.65-.28.92-.28.38-.62.47-1.05.51l1.17,1.76h-.57l-1.33-2.05h.15c.33,0,.79,0,1.04-.24.25-.24.36-.53.36-.86s-.17-.72-.46-.91c-.24-.15-.53-.17-.95-.17h-.74v4.24h-.53v-4.7Z"/><path class="cls-2" d="m6.51,51.66c.03.86.76,1.27,1.34,1.27.53,0,.95-.26,1.18-.71h.49c-.16.37-.4.65-.69.83-.29.18-.62.28-.97.28-1.19,0-1.81-.95-1.81-1.8,0-1,.78-1.81,1.8-1.81.48,0,.93.17,1.25.48.39.38.58.91.53,1.46h-3.12Zm2.65-.37c-.03-.6-.61-1.18-1.32-1.16-.74,0-1.28.54-1.33,1.16h2.64Z"/><path class="cls-2" d="m13.78,53.24h-.45v-.71c-.24.45-.7.8-1.41.8-1.09,0-1.77-.85-1.77-1.81,0-1.02.74-1.8,1.76-1.8.75,0,1.25.43,1.4.79v-1.98h.47v4.7Zm-3.17-1.71c0,.69.48,1.37,1.37,1.37.38,0,.73-.15.97-.4.25-.25.39-.6.38-.99,0-.39-.15-.72-.39-.96-.24-.25-.59-.39-.97-.39-.79,0-1.37.6-1.37,1.37h0Z"/><path class="cls-2" d="m17.92,53.24h-.45v-.61c-.19.44-.65.71-1.26.71-1.07-.02-1.44-.74-1.44-1.58v-1.94h.46v1.85c0,.74.33,1.23,1.1,1.23.71,0,1.12-.43,1.12-1.14v-1.93h.47v3.42Z"/><path class="cls-2" d="m22.23,52.08c-.22.72-.89,1.25-1.71,1.25-1.16,0-1.84-.89-1.84-1.81,0-1.01.77-1.81,1.81-1.81.77,0,1.51.46,1.74,1.28h-.48c-.22-.58-.76-.85-1.24-.85-.4,0-.68.12-.97.39-.23.22-.39.59-.39.99,0,.81.61,1.37,1.35,1.37.65,0,1.09-.4,1.24-.81h.49Z"/><path class="cls-2" d="m23.24,50.19h-.67v-.37h.67v-1.28h.46v1.28h.75v.37h-.75v3.05h-.46v-3.05Z"/><path class="cls-2" d="m25.03,48.53h.47v.65h-.47v-.65Zm0,1.28h.47v3.42h-.47v-3.42Z"/><path class="cls-2" d="m26.27,51.52c0-.95.71-1.8,1.81-1.8s1.82.85,1.82,1.81-.71,1.8-1.82,1.8-1.81-.84-1.81-1.8h0Zm.46.01c0,.78.59,1.36,1.35,1.36s1.35-.59,1.35-1.37-.59-1.37-1.35-1.37-1.35.58-1.35,1.37h0Z"/><path class="cls-2" d="m30.67,49.82h.44c0,.19,0,.38,0,.61.2-.44.66-.72,1.27-.71,1.06.01,1.44.74,1.44,1.57v1.95h-.46v-1.85c0-.74-.33-1.24-1.1-1.23-.71,0-1.11.43-1.11,1.14v1.93h-.47v-3.42Z"/><path class="cls-2" d="m40.12,53.24h-.47v-.71c-.27.52-.79.8-1.4.8-1.11,0-1.77-.86-1.77-1.81,0-1,.73-1.81,1.77-1.81.73,0,1.23.43,1.4.81v-.72h.47v3.42Zm-3.18-1.7c0,.62.43,1.36,1.37,1.36.6,0,1.05-.35,1.23-.83.08-.17.11-.36.11-.54,0-.19-.03-.38-.11-.55-.19-.47-.65-.82-1.25-.82-.79,0-1.36.61-1.36,1.37h0Z"/><path class="cls-2" d="m41.1,49.82h.44c0,.19,0,.38,0,.61.2-.44.66-.72,1.27-.71,1.06.01,1.44.74,1.44,1.57v1.95h-.46v-1.85c0-.74-.33-1.24-1.1-1.23-.71,0-1.11.43-1.11,1.14v1.93h-.47v-3.42Z"/><path class="cls-2" d="m48.64,53.24h-.45v-.71c-.24.45-.7.8-1.41.8-1.09,0-1.77-.85-1.77-1.81,0-1.02.74-1.8,1.76-1.8.75,0,1.25.43,1.4.79v-1.98h.47v4.7Zm-3.17-1.71c0,.69.48,1.37,1.37,1.37.38,0,.73-.15.97-.4.25-.25.39-.6.38-.99,0-.39-.15-.72-.39-.96-.24-.25-.59-.39-.97-.39-.79,0-1.37.6-1.37,1.37h0Z"/><path class="cls-2" d="m51.54,53.24v-4.7h.74l1.74,3.95,1.74-3.95h.74v4.7h-.5v-4.18s-1.81,4.18-1.81,4.18h-.34l-1.83-4.18v4.18s-.48,0-.48,0Z"/><path class="cls-2" d="m57.49,48.53h.47v.65h-.47v-.65Zm0,1.28h.47v3.42h-.47v-3.42Z"/><path class="cls-2" d="m58.94,49.82h.44c0,.19,0,.38,0,.61.2-.44.66-.72,1.27-.71,1.06.01,1.44.74,1.44,1.57v1.95h-.46v-1.85c0-.74-.33-1.24-1.1-1.23-.71,0-1.11.43-1.11,1.14v1.93h-.47v-3.42Z"/><path class="cls-2" d="m63.06,48.53h.47v.65h-.47v-.65Zm0,1.28h.47v3.42h-.47v-3.42Z"/><path class="cls-2" d="m64.51,49.82h.44v.54c.22-.43.69-.64,1.08-.64.36,0,.69.11.93.39.09.09.2.32.22.36.05-.1.12-.23.25-.36.22-.24.56-.38.94-.38.35,0,.69.1.92.34.3.3.39.67.39,1.27v1.9h-.47v-1.88c0-.36-.06-.69-.25-.91-.14-.18-.36-.29-.68-.29-.3,0-.59.12-.75.36-.17.24-.2.43-.2.82v1.9h-.47v-1.9c.01-.38-.04-.6-.18-.81-.16-.22-.4-.36-.75-.36-.32-.01-.58.15-.72.35-.15.2-.23.46-.23.82v1.91h-.47v-3.42Z"/><path class="cls-2" d="m70.65,48.53h.47v.65h-.47v-.65Zm0,1.28h.47v3.42h-.47v-3.42Z"/><path class="cls-2" d="m73.64,50.67c0-.36-.24-.57-.59-.57-.37,0-.6.25-.59.55.01.32.26.46.67.58.49.13,1.04.27,1.06,1,.03.63-.48,1.09-1.13,1.09-.55,0-1.16-.35-1.17-1.07h.46c.02.47.37.68.71.68.39,0,.67-.29.66-.64-.01-.39-.27-.55-.86-.72-.49-.15-.87-.34-.88-.88,0-.62.49-.98,1.07-.98.48,0,1.01.26,1.04.95h-.46Z"/><path class="cls-2" d="m78.46,53.24h-.47v-.71c-.27.52-.79.8-1.4.8-1.11,0-1.77-.86-1.77-1.81,0-1,.73-1.81,1.77-1.81.73,0,1.23.43,1.4.81v-.72h.47v3.42Zm-3.18-1.7c0,.62.43,1.36,1.37,1.36.6,0,1.05-.35,1.23-.83.08-.17.11-.36.11-.54,0-.19-.03-.38-.11-.55-.19-.47-.65-.82-1.25-.82-.79,0-1.36.61-1.36,1.37h0Z"/><path class="cls-2" d="m79.71,50.19h-.67v-.37h.67v-1.28h.46v1.28h.75v.37h-.75v3.05h-.46v-3.05Z"/><path class="cls-2" d="m81.5,48.53h.47v.65h-.47v-.65Zm0,1.28h.47v3.42h-.47v-3.42Z"/><path class="cls-2" d="m82.74,51.52c0-.95.71-1.8,1.81-1.8s1.82.85,1.82,1.81-.71,1.8-1.82,1.8-1.81-.84-1.81-1.8h0Zm.46.01c0,.78.59,1.36,1.35,1.36s1.35-.59,1.35-1.37-.59-1.37-1.35-1.37-1.35.58-1.35,1.37h0Z"/><path class="cls-2" d="m87.14,49.82h.44c0,.19,0,.38,0,.61.2-.44.66-.72,1.27-.71,1.06.01,1.44.74,1.44,1.57v1.95h-.46v-1.85c0-.74-.33-1.24-1.1-1.23-.71,0-1.11.43-1.11,1.14v1.93h-.47v-3.42Z"/></svg>