<svg xmlns="http://www.w3.org/2000/svg" width="100pt" height="100pt" viewBox="0 0 100 100"><path d="m43.598 51.301c-0.52344-0.39844-0.62891-1.1445-0.23047-1.6719 0.39844-0.52344 1.1445-0.62891 1.6719-0.23047l3.9414 2.9961 5.7734-7.1914c0.41406-0.51562 1.1641-0.59766 1.6797-0.18359 0.51562 0.41406 0.59766 1.1641 0.18359 1.6797l-6.5 8.0977-0.003907-0.003906c-0.40234 0.5-1.1328 0.59375-1.6484 0.20312l-4.8672-3.6992zm17.074-11.93c-2.7305-2.7305-6.5039-4.4219-10.672-4.4219s-7.9414 1.6875-10.672 4.4219c-2.7305 2.7305-4.4219 6.5039-4.4219 10.672s1.6875 7.9414 4.4219 10.672c2.7305 2.7305 6.5039 4.4219 10.672 4.4219s7.9414-1.6875 10.672-4.4219c2.7305-2.7305 4.4219-6.5039 4.4219-10.672s-1.6875-7.9414-4.4219-10.672zm-10.672-6.8164c-4.8281 0-9.1992 1.957-12.363 5.1211-3.1641 3.1641-5.1211 7.5352-5.1211 12.367 0 4.8281 1.957 9.1992 5.1211 12.363 3.1641 3.1641 7.5352 5.1211 12.363 5.1211s9.1992-1.957 12.363-5.1211c3.1641-3.1641 5.1211-7.5352 5.1211-12.363s-1.957-9.1992-5.1211-12.367c-3.1641-3.1641-7.5352-5.1211-12.363-5.1211zm18.078 41.246 5.7227-5.7227-2.7266-2.7266 0.003906-0.003906c-0.39453-0.39453-0.47266-1.0234-0.15234-1.5039 0.88281-1.3359 1.6406-2.7539 2.2539-4.2422 0.59375-1.4375 1.0586-2.9375 1.375-4.4883 0.066406-0.60156 0.57422-1.0664 1.1914-1.0664h3.8711v-8.0938h-3.8867v-0.003906c-0.55469 0-1.0547-0.39062-1.1719-0.95312-0.32422-1.5781-0.79688-3.1055-1.4062-4.5703-0.60938-1.4648-1.3555-2.8555-2.2188-4.1641-0.35938-0.46875-0.32031-1.1445 0.10547-1.5703l2.7617-2.7617-5.7227-5.7227-2.7695 2.7695-0.003906-0.003906c-0.39453 0.39453-1.0234 0.47266-1.5039 0.15234-1.3281-0.87891-2.7422-1.6328-4.2227-2.2461-1.4297-0.59375-2.9258-1.0547-4.4648-1.375-0.59766-0.066406-1.0664-0.57422-1.0664-1.1914v-3.9219h-8.0938v3.9219h-0.003906c0 0.55859-0.39062 1.0547-0.96094 1.1719-1.5742 0.32031-3.1055 0.78906-4.5664 1.3945-1.457 0.60156-2.8477 1.3438-4.1602 2.2031-0.46875 0.35547-1.1406 0.32031-1.5703-0.10938l-2.7695-2.7695-5.7227 5.7227 2.7617 2.7617-0.003907 0.003906c0.39453 0.39453 0.47266 1.0234 0.15234 1.5039-0.88281 1.3281-1.6406 2.7422-2.2617 4.2305-0.59766 1.4375-1.0664 2.9336-1.3867 4.4766-0.070313 0.59375-0.57813 1.0508-1.1875 1.0508h-3.8867v8.0938h3.8711v0.003906c0.55859 0 1.0547 0.39062 1.1719 0.96094 0.32031 1.5859 0.78906 3.1211 1.3945 4.5898 0.60547 1.4648 1.3477 2.8633 2.2109 4.1797 0.35547 0.46875 0.32031 1.1406-0.10938 1.5703l-2.7266 2.7266 5.7227 5.7227 2.7188-2.7188 0.003906 0.003907c0.39453-0.39453 1.0234-0.47266 1.5039-0.15234 1.332 0.88672 2.7539 1.6484 4.25 2.2695 1.4414 0.59766 2.9453 1.0664 4.4883 1.3867 0.59766 0.066406 1.0664 0.57422 1.0664 1.1914v3.8359h8.0938v-3.8359h0.003906c0-0.55859 0.39062-1.0547 0.96094-1.1719 1.5781-0.32031 3.1172-0.79688 4.5898-1.4062 1.4727-0.60938 2.8711-1.3594 4.1836-2.2266 0.46875-0.35937 1.1445-0.32031 1.5703 0.10547l2.7188 2.7188zm8.2656-4.8789c0.46875-0.46875 0.46875-1.2266 0-1.6953l-2.8984-2.8984c0.74219-1.2148 1.3906-2.4922 1.9414-3.8242 0.53906-1.3047 0.98047-2.6641 1.3164-4.0664h4.1094c0.66016 0 1.1992-0.53516 1.1992-1.1992v-10.488c0-0.66016-0.53516-1.1992-1.1992-1.1992h-4.1289c-0.33984-1.3984-0.78125-2.7539-1.3242-4.0547-0.55078-1.3242-1.2031-2.5938-1.9453-3.8047l2.9297-2.9297c0.46875-0.46875 0.46875-1.2266 0-1.6953l-7.418-7.418c-0.46875-0.46875-1.2266-0.46875-1.6953 0l-2.9414 2.9414c-1.207-0.73828-2.4805-1.3867-3.8047-1.9336-1.2969-0.53516-2.6484-0.97656-4.043-1.3125v-4.1641c0-0.66016-0.53516-1.1992-1.1992-1.1992h-10.488c-0.66016 0-1.1992 0.53516-1.1992 1.1992v4.1641c-1.3945 0.33594-2.7461 0.77734-4.043 1.3125-1.3281 0.55078-2.5977 1.1953-3.8047 1.9336l-2.9414-2.9414c-0.46875-0.46875-1.2266-0.46875-1.6953 0l-7.418 7.418c-0.46875 0.46875-0.46875 1.2266 0 1.6953l2.9297 2.9297c-0.74219 1.2109-1.3945 2.4805-1.9453 3.8047-0.53906 1.3008-0.98438 2.6523-1.3242 4.0508h-4.1289c-0.66016 0-1.1992 0.53516-1.1992 1.1992v10.488c0 0.66016 0.53516 1.1992 1.1992 1.1992h4.1094c0.33594 1.4023 0.77734 2.7617 1.3164 4.0664 0.55078 1.332 1.1992 2.6094 1.9414 3.8242l-2.8984 2.8984c-0.46875 0.46875-0.46875 1.2266 0 1.6953l7.418 7.418c0.46875 0.46875 1.2266 0.46875 1.6953 0l2.8867-2.8867c1.2148 0.74609 2.4961 1.4023 3.8242 1.9531 1.3047 0.53906 2.6641 0.98438 4.0742 1.3242v4.0781c0 0.66016 0.53516 1.1992 1.1992 1.1992h10.488c0.66016 0 1.1992-0.53516 1.1992-1.1992v-4.0781c1.4102-0.33984 2.7734-0.78516 4.0742-1.3242 1.332-0.55469 2.6094-1.207 3.8242-1.9531l2.8867 2.8867c0.46875 0.46875 1.2266 0.46875 1.6953 0l7.418-7.418zm-10.922-62.273c-0.25-0.60938 0.039063-1.3086 0.64844-1.5586 0.60938-0.25 1.3086 0.039062 1.5586 0.64844l2.2422 5.457c0.25 0.60938-0.039063 1.3086-0.64844 1.5586l-5.457 2.2422c-0.60938 0.25-1.3086-0.039063-1.5586-0.64844s0.039063-1.3086 0.64844-1.5586l2.9023-1.1914c-2.1016-0.86328-4.293-1.5586-6.5547-2.0703-2.9492-0.66797-6.0273-1.0195-9.1992-1.0195-5.8789 0-11.465 1.2188-16.52 3.4102-5.2539 2.2812-9.9414 5.6211-13.805 9.7539-0.44922 0.48438-1.207 0.51172-1.6875 0.0625-0.48438-0.44922-0.51172-1.207-0.0625-1.6875 4.0781-4.3633 9.043-7.8984 14.609-10.316 5.3594-2.3281 11.266-3.6172 17.465-3.6172 3.3281 0 6.5859 0.375 9.7227 1.0859 2.3398 0.53125 4.6133 1.2461 6.7969 2.1367l-1.1016-2.6836zm-58.77 27.934c-0.60938 0.25-1.3086-0.039062-1.5586-0.64844s0.039062-1.3086 0.64844-1.5586l5.457-2.2422c0.60938-0.25 1.3086 0.039063 1.5586 0.64844l2.2422 5.457c0.25 0.60938-0.039062 1.3086-0.64844 1.5586-0.60937 0.25-1.3086-0.039063-1.5586-0.64844l-1.1914-2.9023c-0.86328 2.1016-1.5586 4.293-2.0703 6.5547-0.66797 2.9492-1.0195 6.0273-1.0195 9.1992 0 5.8789 1.2188 11.465 3.4102 16.52 2.2812 5.2539 5.6211 9.9414 9.7539 13.805 0.48438 0.44922 0.51172 1.207 0.0625 1.6875-0.44922 0.48438-1.207 0.51172-1.6875 0.0625-4.3633-4.0781-7.8984-9.043-10.316-14.609-2.3281-5.3594-3.6172-11.266-3.6172-17.465 0-3.3281 0.375-6.5859 1.0859-9.7227 0.53125-2.3398 1.2461-4.6133 2.1367-6.7969l-2.6836 1.1016zm27.93 58.766c0.25 0.60938-0.039062 1.3086-0.64844 1.5586s-1.3086-0.039062-1.5586-0.64844l-2.2422-5.457c-0.25-0.60938 0.039063-1.3086 0.64844-1.5586l5.457-2.2422c0.60938-0.25 1.3086 0.039062 1.5586 0.64844 0.25 0.60937-0.039063 1.3086-0.64844 1.5586l-2.9023 1.1914c2.1016 0.86328 4.293 1.5586 6.5547 2.0703 2.9492 0.66797 6.0273 1.0195 9.1992 1.0195 5.8789 0 11.465-1.2188 16.52-3.4102 5.2539-2.2812 9.9414-5.6211 13.805-9.7539 0.44922-0.48438 1.207-0.51172 1.6875-0.0625 0.48438 0.44922 0.51172 1.207 0.0625 1.6875-4.0781 4.3633-9.043 7.8984-14.609 10.316-5.3594 2.3281-11.266 3.6172-17.465 3.6172-3.3281 0-6.5859-0.375-9.7227-1.0859-2.3398-0.53125-4.6133-1.2461-6.7969-2.1367l1.1016 2.6836zm58.766-27.93c0.60938-0.25 1.3086 0.039062 1.5586 0.64844s-0.039062 1.3086-0.64844 1.5586l-5.457 2.2422c-0.60938 0.25-1.3086-0.039063-1.5586-0.64844l-2.2422-5.457c-0.25-0.60938 0.039062-1.3086 0.64844-1.5586 0.60937-0.25 1.3086 0.039063 1.5586 0.64844l1.1914 2.9023c0.86328-2.1016 1.5586-4.293 2.0703-6.5547 0.66797-2.9492 1.0195-6.0273 1.0195-9.1992 0-5.8789-1.2188-11.465-3.4102-16.52-2.2812-5.2539-5.6211-9.9414-9.7539-13.805-0.48438-0.44922-0.51172-1.207-0.0625-1.6875 0.44922-0.48438 1.207-0.51172 1.6875-0.0625 4.3633 4.0781 7.8984 9.043 10.316 14.609 2.3281 5.3594 3.6172 11.266 3.6172 17.465 0 3.3281-0.375 6.5859-1.0859 9.7227-0.53125 2.3398-1.2461 4.6133-2.1367 6.7969l2.6836-1.1016z" fill="#ea5b0a" fill-rule="evenodd"></path></svg>