<svg xmlns="http://www.w3.org/2000/svg" width="100pt" height="100pt" viewBox="0 0 100 100"><path d="m50 86.363c-20.051 0-36.363-16.312-36.363-36.363s16.312-36.363 36.363-36.363 36.363 16.312 36.363 36.363-16.312 36.363-36.363 36.363zm0-69.816c-18.445 0-33.453 15.008-33.453 33.453s15.008 33.453 33.453 33.453 33.453-15.008 33.453-33.453-15.008-33.453-33.453-33.453z" fill="#ea5b0a"></path><path d="m95.09 96.547c-0.37109 0-0.74609-0.14062-1.0273-0.42578l-20.406-20.406c-0.56641-0.56641-0.56641-1.4883 0-2.0586 0.56641-0.56641 1.4883-0.56641 2.0586 0l20.406 20.406c0.56641 0.56641 0.56641 1.4883 0 2.0586-0.28516 0.28125-0.65625 0.42578-1.0312 0.42578z" fill="#ea5b0a"></path><path d="m25.316 26.77c-0.37109 0-0.74609-0.14062-1.0273-0.42578l-20.41-20.406c-0.56641-0.56641-0.56641-1.4883 0-2.0586 0.56641-0.56641 1.4883-0.56641 2.0586 0l20.406 20.406c0.56641 0.56641 0.56641 1.4883 0 2.0586-0.28125 0.28516-0.65625 0.42578-1.0273 0.42578z" fill="#ea5b0a"></path><path d="m4.9102 96.547c-0.37109 0-0.74609-0.14062-1.0273-0.42578-0.56641-0.56641-0.56641-1.4883 0-2.0586l20.406-20.406c0.56641-0.56641 1.4883-0.56641 2.0586 0 0.56641 0.56641 0.56641 1.4883 0 2.0586l-20.406 20.406c-0.28906 0.28125-0.66016 0.42578-1.0312 0.42578z" fill="#ea5b0a"></path><path d="m74.684 26.77c-0.37109 0-0.74609-0.14062-1.0273-0.42578-0.56641-0.56641-0.56641-1.4883 0-2.0586l20.406-20.406c0.56641-0.56641 1.4883-0.56641 2.0586 0 0.56641 0.56641 0.56641 1.4883 0 2.0586l-20.406 20.406c-0.28516 0.28516-0.66016 0.42578-1.0312 0.42578z" fill="#ea5b0a"></path><path d="m4.9102 18c-0.80469 0-1.4531-0.65234-1.4531-1.4531l-0.003906-11.637c0-0.80469 0.65234-1.4531 1.4531-1.4531h11.637c0.80469 0 1.4531 0.65234 1.4531 1.4531 0 0.80469-0.65234 1.4531-1.4531 1.4531h-10.18v10.184c0 0.80078-0.65234 1.4531-1.4531 1.4531z" fill="#ea5b0a"></path><path d="m95.09 18c-0.80469 0-1.4531-0.65234-1.4531-1.4531v-10.184h-10.184c-0.80469 0-1.4531-0.65234-1.4531-1.4531 0-0.80469 0.65234-1.4531 1.4531-1.4531h11.637c0.80469 0 1.4531 0.65234 1.4531 1.4531v11.637c0.003906 0.80078-0.64844 1.4531-1.4531 1.4531z" fill="#ea5b0a"></path><path d="m95.09 96.547h-11.453c-0.80469 0-1.4531-0.65234-1.4531-1.4531 0-0.80469 0.65234-1.4531 1.4531-1.4531h10v-10.184c0-0.80469 0.65234-1.4531 1.4531-1.4531 0.80469 0 1.4531 0.65234 1.4531 1.4531v11.637c0.003906 0.80078-0.64844 1.4531-1.4531 1.4531z" fill="#ea5b0a"></path><path d="m16.547 96.547h-11.637c-0.80469 0-1.4531-0.65234-1.4531-1.4531v-11.637c0-0.80469 0.65234-1.4531 1.4531-1.4531 0.80469 0 1.4531 0.65234 1.4531 1.4531v10.184h10.184c0.80469 0 1.4531 0.65234 1.4531 1.4531s-0.65234 1.4531-1.4531 1.4531z" fill="#ea5b0a"></path><path d="m82.91 63.09h-5.6484c-1.7734 0-3.4297-0.79297-4.5391-2.1797-1.1094-1.3828-1.5273-3.1719-1.1406-4.9023l0.38672-1.7344c0.19141-0.86719-0.015625-1.7578-0.57031-2.4492-0.55859-0.69531-1.3789-1.0938-2.2578-1.0938-0.125 0-0.25391 0.007812-0.375 0.023437-1.7812 0.22266-3.5352-0.37109-4.8086-1.6328-1.2773-1.2578-1.8945-3.0039-1.6992-4.7852l0.24609-2.2305c0.097656-0.87891-0.20312-1.7422-0.82422-2.3672-0.62109-0.62891-1.4805-0.9375-2.3594-0.84766l-4.3789 0.4375c-1.6367 0.16016-3.2695-0.375-4.4844-1.4766-1.2148-1.0977-1.9102-2.6719-1.9102-4.3125v-18.449c0-0.80469 0.65234-1.4531 1.4531-1.4531 0.80469 0 1.4531 0.65234 1.4531 1.4531v18.449c0 0.83203 0.33984 1.5977 0.95703 2.1562 0.61719 0.55859 1.4141 0.82031 2.2461 0.73828l4.3789-0.4375c1.7578-0.17578 3.4766 0.44141 4.7148 1.6992 1.2422 1.2539 1.8398 2.9805 1.6445 4.7344l-0.24609 2.2266c-0.097657 0.89062 0.21094 1.7656 0.84766 2.3945 0.63672 0.62891 1.5156 0.92578 2.4062 0.81641 0.23828-0.03125 0.48828-0.046876 0.73438-0.046876 1.7656 0 3.4141 0.79297 4.5273 2.1797 1.1094 1.3828 1.5234 3.168 1.1406 4.8984l-0.38672 1.7344c-0.19141 0.86719 0.015625 1.7578 0.57031 2.4531 0.55469 0.69141 1.3828 1.0898 2.2695 1.0898l5.6523 0.007813c0.80469 0 1.4531 0.65234 1.4531 1.4531 0 0.80469-0.65234 1.4531-1.4531 1.4531z" fill="#ea5b0a"></path><path d="m45.637 86.184c-0.80469 0-1.4531-0.65234-1.4531-1.4531v-5.2422c0-2.5898 1.5391-4.918 3.918-5.9375l4.8672-2.0859c1.0156-0.43359 1.7773-1.332 2.0469-2.4023l0.59766-2.3906c0.28125-1.1289 0.007813-2.2852-0.75-3.1719-0.75781-0.88281-1.8594-1.332-3.0195-1.2266l-2.1523 0.19922c-1.832 0.16406-3.5859-0.42578-4.9414-1.6602-1.3398-1.2227-2.1094-2.957-2.1094-4.7578 0-0.46484 0.050781-0.9375 0.15625-1.4062 0.24219-1.0898-0.03125-2.1992-0.74609-3.0508-0.71875-0.85547-1.7695-1.3086-2.8906-1.2617l-23.996 1.1641c-0.80469 0.042969-1.4844-0.57812-1.5234-1.3828-0.039063-0.80078 0.57812-1.4844 1.3828-1.5234l24-1.1641c2.0352-0.09375 3.9492 0.73828 5.2539 2.293 1.3047 1.5508 1.8008 3.5742 1.3594 5.5508-0.058594 0.26562-0.085938 0.51953-0.085938 0.77734 0 0.98438 0.42188 1.9375 1.1602 2.6094 0.74219 0.67969 1.707 1 2.7148 0.91016l2.1523-0.19922c2.1133-0.19141 4.1133 0.62109 5.4922 2.2305 1.3789 1.6094 1.875 3.7148 1.3633 5.7695l-0.59766 2.3906c-0.48438 1.9453-1.875 3.5781-3.7227 4.3711l-4.8672 2.0859c-1.3086 0.55859-2.1562 1.8438-2.1562 3.2656v5.2422c0 0.80469-0.64844 1.457-1.4531 1.457z" fill="#ea5b0a"></path><path d="m30.363 36.91h-12.184c-0.80469 0-1.4531-0.65234-1.4531-1.4531 0-0.80469 0.65234-1.4531 1.4531-1.4531h12.184c1.2031 0 2.1836-0.98047 2.1836-2.1836v-1.4531c0-2.8086 2.2852-5.0898 5.0898-5.0898 0.58203 0 1.1289-0.22656 1.543-0.64062 0.41406-0.41406 0.64062-0.96094 0.64062-1.543l-0.003906-6.9023c0-0.80469 0.65234-1.4609 1.4531-1.4609 0.80469 0 1.4531 0.64844 1.4531 1.4492v6.9102c0 1.3594-0.53125 2.6367-1.4922 3.5977-0.95703 0.96484-2.2344 1.4961-3.5938 1.4961-1.2031 0-2.1836 0.98047-2.1836 2.1836v1.4531c0 2.8047-2.2812 5.0898-5.0898 5.0898z" fill="#ea5b0a"></path></svg>