<svg xmlns="http://www.w3.org/2000/svg" width="100pt" height="100pt" viewBox="0 0 100 100"><path d="m49.492 85.895c-1.2461 0-2.4375 0.49609-3.3164 1.375-0.87891 0.87891-1.375 2.0742-1.375 3.3164v1.6016c0 1.2383 0.49609 2.4336 1.375 3.3125 0.87891 0.87891 2.0703 1.375 3.3164 1.375h0.53516c1.2461 0 2.4375-0.49609 3.3203-1.375 0.875-0.87891 1.3711-2.0742 1.3711-3.3125v-1.6016c0-1.2422-0.49609-2.4375-1.3711-3.3164-0.88281-0.87891-2.0742-1.375-3.3203-1.375zm0 3.1289h0.53516c0.41797 0 0.81641 0.16406 1.1055 0.45312 0.29688 0.30078 0.46094 0.69141 0.46094 1.1094v1.6016c0 0.41406-0.16406 0.80859-0.46094 1.1055-0.28906 0.29297-0.6875 0.45703-1.1055 0.45703h-0.53516c-0.41797 0-0.81641-0.16406-1.1055-0.45703-0.29688-0.29688-0.46094-0.69141-0.46094-1.1055v-1.6016c0-0.41797 0.16406-0.80859 0.46094-1.1094 0.28906-0.28906 0.6875-0.45312 1.1055-0.45312z" fill="#ea5b0a" fill-rule="evenodd"></path><path d="m19.629 48.68v28.031c0 0.86328 0.69922 1.5625 1.5625 1.5625h23.613v0.054687c0 2.3672 1.918 4.2852 4.2812 4.2852h1.3516c2.3672 0 4.2812-1.918 4.2812-4.2852v-0.054687h24.09c0.86328 0 1.5625-0.69922 1.5625-1.5625v-28.031l8.6914-6.5156c1.8906-1.418 2.4297-4.0234 1.2578-6.0781l-8.4922-14.859c-0.64844-1.1289-1.7266-1.9414-2.9922-2.2383-1.2656-0.30078-2.5977-0.058593-3.6797 0.66016l-5.4609 3.6406h-39.391l-5.4609-3.6406c-1.082-0.71875-2.4141-0.96094-3.6797-0.66016-1.2656 0.29688-2.3438 1.1094-2.9922 2.2383l-8.4922 14.859c-1.1719 2.0547-0.63281 4.6602 1.2578 6.0781zm30.938 20.895h-0.003906c-1.4844 0.10547-2.6328 1.3438-2.6328 2.832v5.9258c0 0.63672 0.51562 1.1562 1.1562 1.1562h1.3516c0.63672 0 1.1562-0.51953 1.1562-1.1602v-3.8516c0-0.73828 0.51562-1.375 1.2383-1.5312 6.6133-1.4102 11.582-7.293 11.582-14.328 0-8.0859-6.5664-14.648-14.652-14.648-6.707 0-12.363 4.5117-14.102 10.664v0.003907c-0.16016 0.55859-0.050781 1.1641 0.30078 1.6289 0.34375 0.45703 0.83203 0.78516 1.4062 0.78906h0.085937c0.82422-0.003907 1.543-0.55469 1.7656-1.3438 1.2305-4.6602 5.4922-8.0781 10.543-8.0781 6.0625 0 10.984 4.9219 10.984 10.984 0 5.7969-4.4922 10.547-10.18 10.957zm14.434-20.113c1.6094 2.6758 2.5391 5.8125 2.5391 9.1562 0 7.5-4.6562 13.922-11.234 16.531h20.941v-25.688zm-30.477 0h-11.77v25.688h22.051v-2.7422c0-3.1289 2.4141-5.7227 5.5312-5.9453h0.003906c4.0703-0.29688 7.2812-3.6992 7.2812-7.8438 0-4.3359-3.5195-7.8594-7.8594-7.8594-3.6055 0-6.6523 2.4375-7.5273 5.7656 0 0.003906-0.003906 0.015624-0.007813 0.019531-0.59375 2.1406-2.5312 3.6211-4.75 3.6367h-0.14062c-1.5508-0.015626-2.9375-0.79688-3.8711-2.0312-0.94141-1.25-1.2383-2.8672-0.8125-4.3711 0.43359-1.5312 1.0703-2.9805 1.8711-4.3164zm-11.078-3.125h13.469c3.2344-3.3828 7.7969-5.4922 12.848-5.4922s9.6094 2.1094 12.848 5.4922h13.945l-7.4688-19.922h-38.172zm4.4883-20.871-4.8242-3.2148c-0.35938-0.24219-0.80469-0.32031-1.2266-0.22266-0.42187 0.10156-0.78125 0.37109-0.99609 0.74609l-8.4922 14.863c-0.39453 0.68359-0.21484 1.5547 0.41797 2.0273l7.6484 5.7344zm51.605 19.934 7.6484-5.7344c0.63281-0.47266 0.8125-1.3438 0.41797-2.0273l-8.4922-14.863c-0.21484-0.375-0.57422-0.64453-0.99609-0.74609-0.42188-0.097656-0.86719-0.019532-1.2266 0.22266l-4.8242 3.2148z" fill="#ea5b0a" fill-rule="evenodd"></path><path d="m51.562 16.211v-11.523c0-0.85938-0.69922-1.5625-1.5625-1.5625s-1.5625 0.70312-1.5625 1.5625v11.523c0 0.86328 0.69922 1.5625 1.5625 1.5625s1.5625-0.69922 1.5625-1.5625z" fill="#ea5b0a" fill-rule="evenodd"></path><path d="m38.387 16.77-5.7617-9.9805c-0.42969-0.74609-1.3867-1.0039-2.1328-0.57422-0.74609 0.43359-1 1.3906-0.57031 2.1328l5.7617 9.9805c0.42969 0.74609 1.3867 1.0039 2.1328 0.57422 0.74609-0.43359 1-1.3867 0.57031-2.1328z" fill="#ea5b0a" fill-rule="evenodd"></path><path d="m64.316 18.328 5.7656-9.9805c0.42969-0.74219 0.17188-1.6992-0.57422-2.1328-0.74609-0.42969-1.7031-0.17188-2.1328 0.57422l-5.7617 9.9805c-0.42969 0.74609-0.17578 1.6992 0.57031 2.1328 0.74609 0.42969 1.7031 0.17188 2.1328-0.57422z" fill="#ea5b0a" fill-rule="evenodd"></path></svg>