<svg xmlns="http://www.w3.org/2000/svg" width="100pt" height="100pt" viewBox="0 0 100 100"><path d="m90.707 17.586h-17.613c0.24609-0.64063 0.10156-1.3867-0.39844-1.8906l-5.2148-5.2148c-0.60156-0.60156-1.5469-0.69141-2.25-0.21484l-3.6055 2.4492c-1.6992-0.96875-3.5-1.7148-5.3789-2.2305l-0.81641-4.2773c-0.16016-0.83594-0.89063-1.4414-1.7422-1.4414h-7.3711c-0.85156 0-1.582 0.60547-1.7422 1.4414l-0.81641 4.2773c-1.8789 0.51562-3.6797 1.2617-5.3789 2.2305l-3.6055-2.4492c-0.70313-0.48047-1.6484-0.39062-2.25 0.21484l-5.2148 5.2148c-0.50391 0.50391-0.64844 1.2461-0.39844 1.8906h-17.617c-2.1484 0-3.8984 1.7461-3.8984 3.8984v51.828c0 2.1484 1.7461 3.8984 3.8984 3.8984h29.207v7.3242h-6.3789c-2.9492 0-5.3516 2.3984-5.3516 5.3516 0 2.9492 2.3984 5.3516 5.3516 5.3516h35.762c2.9492 0 5.3516-2.3984 5.3516-5.3516 0-2.9492-2.3984-5.3516-5.3516-5.3516h-6.3789v-7.3242h29.207c2.1484 0 3.8984-1.7461 3.8984-3.8984l-0.003906-51.832c0-2.1484-1.7461-3.8984-3.8984-3.8984zm-57.59 2.9102-2.2617-3.3281 3.1367-3.1367 3.332 2.2656c0.58594 0.39844 1.3516 0.41016 1.9492 0.027344 1.9727-1.2578 4.1211-2.1484 6.3945-2.6523 0.69141-0.15234 1.2266-0.70312 1.3594-1.3984l0.75391-3.9531h4.4375l0.75391 3.9531c0.13281 0.69531 0.66797 1.2461 1.3594 1.3984 2.2734 0.50391 4.4219 1.3945 6.3945 2.6523 0.59766 0.38281 1.3633 0.37109 1.9492-0.027344l3.332-2.2656 3.1406 3.1367-2.2617 3.3281c-0.39844 0.58594-0.41016 1.3516-0.027344 1.9492 1.2578 1.9688 2.1484 4.1211 2.6523 6.3945 0.15234 0.69141 0.70312 1.2266 1.3984 1.3594l3.9531 0.75391v4.4375l-3.9531 0.75391c-0.69531 0.13281-1.2461 0.66797-1.3984 1.3594-0.50391 2.2734-1.3945 4.4258-2.6523 6.3945-0.38281 0.59766-0.37109 1.3633 0.027344 1.9492l2.2656 3.332-3.1406 3.1406-3.3281-2.2617c-0.58594-0.39844-1.3555-0.41016-1.9492-0.027344-1.9688 1.2578-4.1211 2.1484-6.3945 2.6523-0.69141 0.15234-1.2266 0.70312-1.3594 1.3984l-0.75391 3.9531h-4.4375l-0.75391-3.9531c-0.13281-0.69531-0.66797-1.2461-1.3594-1.3984-2.2734-0.50391-4.4219-1.3945-6.3945-2.6523-0.59766-0.38281-1.3633-0.37109-1.9492 0.027344l-3.332 2.2656-3.1367-3.1406 2.2617-3.3281c0.39844-0.58594 0.41016-1.3516 0.027344-1.9492-1.2578-1.9688-2.1484-4.1211-2.6523-6.3945-0.15234-0.69141-0.70312-1.2266-1.3984-1.3594l-3.9531-0.75391v-4.4375l3.9531-0.75391c0.69531-0.13281 1.2461-0.66797 1.3984-1.3594 0.50391-2.2734 1.3945-4.4258 2.6523-6.3945 0.38281-0.59766 0.37109-1.3633-0.027344-1.9492zm36.566 69.383c0 0.99219-0.80859 1.8047-1.8008 1.8047h-35.762c-0.99219 0-1.8008-0.80859-1.8008-1.8047 0-0.99219 0.80859-1.8008 1.8008-1.8008h35.762c0.99219 0 1.8008 0.80859 1.8008 1.8008zm-11.73-5.3477h-15.906v-7.3242h15.906zm33.105-11.223c0 0.1875-0.16016 0.34766-0.34766 0.34766l-81.418 0.003906c-0.1875 0-0.34766-0.16016-0.34766-0.34766l-0.003906-51.832c0-0.1875 0.16016-0.34766 0.34766-0.34766h19.969l0.28516 0.41797c-0.96875 1.6992-1.7148 3.5-2.2305 5.3789l-4.2773 0.81641c-0.83594 0.16016-1.4414 0.89062-1.4414 1.7422v7.3711c0 0.85156 0.60547 1.582 1.4414 1.7422l4.2773 0.81641c0.51562 1.8789 1.2617 3.6836 2.2305 5.3789l-2.4492 3.6055c-0.48047 0.70312-0.39062 1.6484 0.21484 2.25l5.2148 5.2148c0.60156 0.60156 1.5469 0.69141 2.25 0.21484l3.6055-2.4492c1.6992 0.96875 3.5 1.7148 5.3789 2.2305l0.81641 4.2773c0.16016 0.83594 0.89062 1.4414 1.7422 1.4414h7.3711c0.85156 0 1.582-0.60547 1.7422-1.4414l0.81641-4.2773c1.8789-0.51562 3.6836-1.2617 5.3789-2.2305l3.6055 2.4492c0.70312 0.48047 1.6484 0.39062 2.25-0.21484l5.2148-5.2148c0.60156-0.60156 0.69141-1.5469 0.21484-2.25l-2.4492-3.6055c0.96875-1.6992 1.7148-3.5 2.2305-5.3789l4.2773-0.81641c0.83594-0.16016 1.4414-0.89062 1.4414-1.7422v-7.3711c0-0.85156-0.60547-1.582-1.4414-1.7422l-4.2773-0.81641c-0.51562-1.8789-1.2617-3.6836-2.2305-5.3789l0.28516-0.41797h19.969c0.1875 0 0.34766 0.16016 0.34766 0.34766v51.828zm-41.059-24.543c8.5977 0 15.59-6.9922 15.59-15.59 0-8.5977-6.9922-15.59-15.59-15.59s-15.59 6.9922-15.59 15.59c0 8.5977 6.9922 15.59 15.59 15.59zm0-27.633c6.6406 0 12.043 5.4023 12.043 12.043s-5.4023 12.043-12.043 12.043-12.043-5.4023-12.043-12.043 5.4023-12.043 12.043-12.043z" fill="#ea5b0a"></path></svg>