<svg xmlns="http://www.w3.org/2000/svg" width="100pt" height="100pt" viewBox="0 0 100 100"><path d="m16.359 92.695 8.4219-2.418-0.52344-4.1172c-0.007812-0.039062-0.011718-0.078125-0.015624-0.11719l-2.9688-23.34-12.555 3.6016 7.6367 26.387zm7.3477-27.133c3.4023-1.7734 7.8281-2.6797 12.285-2.8203 5.0586-0.16016 10.121 0.66406 13.734 2.3203 0.15234 0.070312 0.3125 0.097656 0.47266 0.09375l14.988-0.66016c0.91797-0.039063 1.7695 0.29688 2.3984 0.875 2.1797 1.9961 0.85547 5.6602-2.1016 5.793l-18.09 0.79688c-0.56641 0.023437-1.0078 0.50391-0.98047 1.0703 0.023438 0.56641 0.50391 1.0078 1.0703 0.98047l18.09-0.79688c3.5117-0.15625 5.9453-3.6172 4.9219-6.9609l9.6602-9.2891c1.6836-1.6094 4.6016-3.1211 6.4688-1.1641 1.8789 1.9727 1.6797 5-0.18359 6.9219l-22.285 23.016c-2.5312 2.6133-12.777 1.0703-22.762-0.43359-4.4961-0.67578-8.9414-1.3477-12.711-1.6211-0.17188-0.011719-0.33594 0.019531-0.48047 0.082031l-2.082 0.78516-2.4141-18.992zm2.4844 26.453-10.254 2.9414c-0.5625 0.16016-1.1367-0.16406-1.2891-0.77734l-8.1914-28.293c-0.16016-0.55078 0.16406-1.125 0.70312-1.2734v-0.003906l14.691-4.2188c0.60938-0.17578 1.2461 0.22266 1.3086 0.94141l0.26172 2.0625c3.5781-1.6992 8.0352-2.5703 12.496-2.7109 5.2539-0.16406 10.547 0.6875 14.426 2.4023l14.75-0.65234c1.7266-0.074219 3.3203 0.67969 4.375 1.9414 3.0742-2.957 6.1445-6.0039 9.2617-8.9062 1.293-1.2305 2.8945-2.1914 4.5-2.5273 1.7422-0.36328 3.4766-0.019531 4.8672 1.4297 2.6523 2.7734 2.4336 7.0703-0.19141 9.7812l-22.285 23.016c-3.2656 3.3711-14.043 1.75-24.539 0.17188-4.3789-0.66016-8.7109-1.3125-12.332-1.5898l-2.3711 0.89453 0.53906 4.2461c0.066406 0.51172-0.25781 0.98047-0.73828 1.1172v0.003907zm55.055-77.785c-2.6367-2.6367-7.1602-0.76172-7.1602 2.9648 0 3.7266 4.5273 5.6016 7.1602 2.9648 1.6367-1.6367 1.6367-4.2969 0-5.9336zm-10.625 16.871c4.5781 3.2539 10.738 3.2539 15.316 0 0.082031-3.6133-2.7695-6.5039-6.2852-6.5039h-2.7422c-3.5195 0-6.3672 2.8945-6.2852 6.5039zm17.016-20.156c5.0781 5.0781 5.1797 13.277 0.23438 18.477-0.60156-3.375-3.2461-6.0664-6.6016-6.7305 3.6562-1.9922 4.3984-6.957 1.4336-9.9219-2.4414-2.4414-6.4023-2.4414-8.8477 0-2.9648 2.9648-2.2227 7.9297 1.4336 9.9219-3.3594 0.66406-6.0039 3.3555-6.6055 6.7305-4.9492-5.2031-4.8438-13.402 0.23438-18.477 5.168-5.168 13.551-5.168 18.719 0zm-9.3594-5.9375c8.4492 0 15.297 6.8477 15.297 15.297 0 8.4453-6.8477 15.297-15.297 15.297-8.4453 0-15.297-6.8477-15.297-15.297 0-8.4453 6.8477-15.297 15.297-15.297zm-53.805 2.0508h-2.6992v2.6562h-0.003907c0 0.47266-0.32422 0.89844-0.80469 1.0039-1 0.22266-2.2031 0.69922-3.0586 1.2656-0.40234 0.27734-0.95703 0.23828-1.3164-0.11719l-1.8789-1.8789-1.9062 1.9062 1.8789 1.8789c0.33594 0.33594 0.40234 0.86328 0.14062 1.2812-0.50781 0.80078-1.0977 2.0938-1.2695 3.0117-0.066407 0.50391-0.5 0.89062-1.0195 0.89062h-2.6562v2.6992h2.6562v0.003906c0.47266 0 0.89844 0.32422 1.0039 0.80469 0.22266 1 0.69922 2.2031 1.2656 3.0586 0.27734 0.40234 0.23828 0.95703-0.11719 1.3164l-1.8789 1.8789 1.9062 1.9062 1.8789-1.8789c0.33203-0.33203 0.86328-0.40234 1.2812-0.14062 0.80078 0.50781 2.0938 1.0977 3.0117 1.2695 0.50391 0.066406 0.89062 0.5 0.89062 1.0195v2.6562h2.6992v-2.6562h0.003907c0-0.47266 0.32422-0.89844 0.80469-1.0039 1-0.22266 2.2031-0.69922 3.0586-1.2656 0.40234-0.27734 0.95703-0.23828 1.3164 0.11719l1.8789 1.8789 1.9062-1.9062-1.8789-1.8789c-0.33594-0.33594-0.40234-0.86328-0.14062-1.2812 0.50781-0.80078 1.0977-2.0938 1.2695-3.0117 0.066407-0.50391 0.5-0.89062 1.0195-0.89062h2.6562v-2.6992h-2.6562v-0.003906c-0.47266 0-0.89844-0.32422-1.0039-0.80469-0.22266-1-0.69922-2.2031-1.2656-3.0586-0.27734-0.40234-0.23828-0.95703 0.11719-1.3164l1.8789-1.8789-1.9062-1.9062-1.8789 1.8789c-0.33203 0.33203-0.86328 0.40234-1.2812 0.14062-0.80078-0.50781-2.0938-1.0977-3.0117-1.2695-0.50391-0.066406-0.89062-0.5-0.89062-1.0195zm-3.7266-2.0625h4.7578c0.57031 0 1.0312 0.46094 1.0312 1.0312v2.8984c0.77734 0.23047 1.5195 0.53906 2.2266 0.92188l2.0469-2.0469c0.40234-0.40234 1.0547-0.40234 1.457 0l3.3633 3.3633c0.40234 0.40234 0.40234 1.0547 0 1.457l-2.0469 2.0469c0.38281 0.70703 0.69141 1.4492 0.92188 2.2266h2.8984c0.57031 0 1.0312 0.46094 1.0312 1.0312v4.7578c0 0.57031-0.46094 1.0312-1.0312 1.0312h-2.8984c-0.23047 0.77734-0.53906 1.5195-0.92188 2.2266l2.0469 2.0469c0.40234 0.40234 0.40234 1.0547 0 1.457l-3.3633 3.3633c-0.40234 0.40234-1.0547 0.40234-1.457 0l-2.0469-2.0469c-0.70703 0.38281-1.4492 0.69141-2.2266 0.92188v2.8984c0 0.57031-0.46094 1.0312-1.0312 1.0312h-4.7578c-0.57031 0-1.0312-0.46094-1.0312-1.0312v-2.8945c-0.77734-0.23047-1.5195-0.53906-2.2266-0.92188l-2.0469 2.0469c-0.40234 0.40234-1.0547 0.40234-1.457 0l-3.3633-3.3633c-0.40234-0.40234-0.40234-1.0547 0-1.457l2.0469-2.0469c-0.38281-0.70703-0.69141-1.4492-0.92188-2.2266h-2.8945c-0.57031 0-1.0312-0.46094-1.0312-1.0312v-4.7578c0-0.57031 0.46094-1.0312 1.0312-1.0312h2.8945c0.23047-0.77734 0.53906-1.5195 0.92188-2.2266l-2.0469-2.0469c-0.40234-0.40234-0.40234-1.0547 0-1.457l3.3633-3.3633c0.40234-0.40234 1.0547-0.40234 1.457 0l2.0469 2.0469c0.70703-0.38281 1.4492-0.69141 2.2266-0.92187v-2.8984c0-0.57031 0.46094-1.0312 1.0312-1.0312zm6.2461 11.441c2.1367 2.1367 2.1367 5.5977 0 7.7305-2.1367 2.1367-5.5977 2.1367-7.7305 0-2.1367-2.1367-2.1367-5.5977 0-7.7305 2.1367-2.1367 5.5977-2.1367 7.7305 0zm-3.8672-3.6602c4.1562 0 7.5273 3.3711 7.5273 7.5273s-3.3711 7.5273-7.5273 7.5273-7.5273-3.3711-7.5273-7.5273 3.3711-7.5273 7.5273-7.5273zm38.438 22.797-10.867-5.4961-10.867 5.4961 10.867 5.4961zm-9.8398 7.2773v13.215l11.086-5.9648v-12.855zm-13.148-5.6055v12.855l11.086 5.9648v-13.215zm25.656-2.625-13.074-6.6133c-0.28125-0.14453-0.625-0.15234-0.92969 0l-13.078 6.6133c-0.37109 0.15625-0.63672 0.52344-0.63672 0.95312v15.141h0.003906c0 0.36719 0.19531 0.71875 0.53906 0.90625l13.086 7.043c0.36328 0.21094 0.73047 0.21094 1.0938 0l13.023-7.0078c0.35547-0.16016 0.60547-0.51953 0.60547-0.9375v-15.141c0-0.42969-0.26172-0.79688-0.63672-0.95312z" fill="#ea5b0a" fill-rule="evenodd"></path></svg>