<svg xmlns="http://www.w3.org/2000/svg" width="100pt" height="100pt" viewBox="0 0 100 100"><path d="m69.199 40.102h-16.5c1.5-3.3984 3.3984-8.6016 3.3984-14.199 0-5.3008-2.8984-9.5-8.1016-11.898-2-0.89844-4.3008-0.89844-6.1992 0-2 0.89844-3.3984 2.6992-3.8984 4.8008l-1 3.8984c-1.8008 7-5.6016 13-10.699 17.102-1 0.80078-2 1.3984-3 2-0.80078-1-2.1016-1.6016-3.5-1.6016l-12.598-0.003906c-2.5 0-4.6016 2.1016-4.6016 4.6016v37.398c0 2.5 2.1016 4.6016 4.6016 4.6016h12.5c1.6016 0 2.8984-0.80078 3.8008-2 7.6016 2.1992 14.699 3.3008 22.301 3.3008h18.297c4.3984 0 8-3.6016 8-8 0-1.3984-0.39844-2.8008-1.1016-4 2.1992-1.3984 3.6992-3.8984 3.6992-6.6992 0-1.3984-0.39844-2.8008-1.1016-4 2.1992-1.3984 3.6992-3.8984 3.6992-6.6992 0-2.1016-0.80078-3.8984-2.1016-5.3008 1.3008-1.3984 2.1016-3.3008 2.1016-5.3008 0.003907-4.4023-3.5938-8-7.9961-8zm-55.801 40.199c-1.8984 0-3.3984-1.5-3.3984-3.3984 0-1.8984 1.5-3.3984 3.3984-3.3984 1.8984 0 3.3984 1.5 3.3984 3.3984 0.003906 1.8984-1.4961 3.3984-3.3984 3.3984zm50.801-24.301h5c1.5 0 2.6992 1.1992 2.6992 2.6992s-1.1992 2.6992-2.6992 2.6992h-6c-1.5 0-2.6016 1.1992-2.6016 2.6016 0 1.5 1.1992 2.6016 2.6016 2.6016h3.3984c1.5 0 2.6992 1.1992 2.6992 2.6992s-1.1992 2.6992-2.6992 2.6992h-5.3008c-1.3984 0-2.6016 1.1992-2.6016 2.6016 0 1.5 1.1992 2.6016 2.6016 2.6016l2.7031-0.003906c1.5 0 2.6992 1.1992 2.6992 2.6992s-1.1992 2.6992-2.6992 2.6992l-18.301 0.003906c-7.3008 0-14-1.1016-21.398-3.3008v-32.102c1.6992-0.89844 3.5-1.8984 5.1016-3.3008 6-4.8008 10.5-11.801 12.5-19.898l1-3.8984c0.19922-0.80078 0.80078-1.1992 1.1016-1.3008 0.30078-0.19922 1-0.39844 1.8008 0 3.3984 1.6016 5 3.8984 5 7.1016 0 8-4.6016 15.301-4.6992 15.398-0.5 0.80078-0.5 1.8008-0.10156 2.6992 0.5 0.80078 1.3008 1.3984 2.3008 1.3984h20.898c1.5 0 2.6992 1.1992 2.6992 2.6992s-1.1992 2.6992-2.6992 2.6992h-5c-1.5 0-2.6016 1.1992-2.6016 2.6016 0 1.4023 1.1992 2.6016 2.5977 2.6016z" fill="#ea5b0a"></path><path d="m94.898 40.102h-9.3984c-1.3984 0-2.6016 1.1992-2.6016 2.6016 0 1.3984 1.1992 2.6016 2.6016 2.6016h9.3984c1.3984 0 2.6016-1.1992 2.6016-2.6016 0-1.5039-1.1992-2.6016-2.6016-2.6016z" fill="#ea5b0a"></path><path d="m88.5 20.898c-1-1-2.6992-1-3.6992 0l-6.6016 6.6016c-1 1-1 2.6992 0 3.6992 0.5 0.5 1.1992 0.80078 1.8008 0.80078 0.69922 0 1.3008-0.30078 1.8008-0.80078l6.6016-6.6016c1.1992-0.99609 1.1992-2.5977 0.097656-3.6992z" fill="#ea5b0a"></path><path d="m66.898 26.5c1.3984 0 2.6016-1.1992 2.6016-2.6016v-9.3984c0-1.3984-1.1992-2.6016-2.6016-2.6016-1.3984 0-2.6016 1.1992-2.6016 2.6016v9.3984c-0.097656 1.5 1.1016 2.6016 2.6016 2.6016z" fill="#ea5b0a"></path></svg>