<svg xmlns="http://www.w3.org/2000/svg" width="100pt" height="100pt" viewBox="0 0 100 100"><path d="m69.871 13.762c-0.39453-0.68359-0.16016-1.5547 0.52344-1.9492l4.3672-2.5195c0.68359-0.39453 1.5547-0.16016 1.9492 0.52344 0.39453 0.68359 0.16016 1.5547-0.52344 1.9492l-4.3672 2.5195c-0.22656 0.12891-0.46875 0.19141-0.71094 0.19141-0.49609 0-0.97656-0.25781-1.2383-0.71484zm3.1562 11.516c0 0.78906 0.64062 1.4258 1.4258 1.4258h5.043c0.78906 0 1.4258-0.64062 1.4258-1.4258 0-0.78906-0.64062-1.4258-1.4258-1.4258h-5.043c-0.78906 0-1.4258 0.63672-1.4258 1.4258zm-1.0781 11.031c-0.68359-0.39453-1.5547-0.16016-1.9492 0.52344-0.39453 0.68359-0.16016 1.5547 0.52344 1.9492l4.3672 2.5195c0.22656 0.12891 0.46875 0.19141 0.71094 0.19141 0.49219 0 0.97266-0.25781 1.2344-0.71484 0.39453-0.68359 0.16016-1.5547-0.52344-1.9492zm-48.211 2.75c-0.68359 0.39453-0.91406 1.2656-0.52344 1.9492 0.26562 0.45703 0.74219 0.71484 1.2344 0.71484 0.24219 0 0.48828-0.0625 0.71094-0.19141l4.3672-2.5195c0.68359-0.39453 0.91406-1.2656 0.52344-1.9492-0.39453-0.68359-1.2656-0.91406-1.9492-0.52344zm0-27.293 4.3672 2.5195c0.22656 0.12891 0.46875 0.19141 0.71094 0.19141 0.49219 0 0.97266-0.25781 1.2344-0.71484 0.39453-0.68359 0.16016-1.5547-0.52344-1.9492l-4.3672-2.5195c-0.68359-0.39453-1.5547-0.16016-1.9492 0.52344-0.38672 0.67969-0.15234 1.5547 0.52734 1.9492zm-3.2344 14.918h5.043c0.78906 0 1.4258-0.64062 1.4258-1.4258 0-0.78906-0.64062-1.4258-1.4258-1.4258h-5.043c-0.78906 0-1.4258 0.64062-1.4258 1.4258 0 0.78906 0.64062 1.4258 1.4258 1.4258zm67.688 50.633c-0.41406 0.62109-1.0469 1.043-1.7734 1.1875l-6.8555 1.3672c-0.18359 0.035156-0.36719 0.054687-0.55078 0.054687-0.54688 0-1.0781-0.16016-1.5469-0.47266-0.62109-0.41406-1.043-1.0469-1.1875-1.7734l-0.007813-0.046876-2.7383 2.7383c0.51953 1.8359 0.027344 3.8789-1.3477 5.2578-1.0938 1.0938-2.5508 1.6094-3.9805 1.5586 0.054687 1.4336-0.46484 2.8867-1.5586 3.9805-1.0078 1.0078-2.3477 1.5625-3.7773 1.5625-1.2812 0-2.4922-0.44531-3.4531-1.2617-0.24609 0.8125-0.69141 1.5781-1.332 2.2188-2.0859 2.0859-5.4727 2.0859-7.5586 0l-1.9922-1.9922c-0.25391 0.82422-0.70312 1.5742-1.3242 2.1992-1.0078 1.0078-2.3477 1.5586-3.7773 1.5586-1.4297 0-2.7734-0.55469-3.7773-1.5625l-15.988-15.98c-0.18359 0.63281-0.57422 1.1719-1.1289 1.543-0.46484 0.3125-1 0.47266-1.5469 0.47266-0.18359 0-0.36719-0.019531-0.55078-0.054687l-6.8555-1.3672c-0.73047-0.14453-1.3594-0.56641-1.7734-1.1875-0.41406-0.62109-0.5625-1.3633-0.41797-2.0938l5.3281-26.746c0.14453-0.73047 0.56641-1.3594 1.1875-1.7734s1.3633-0.5625 2.0938-0.41797l6.8555 1.3672c0.73047 0.14453 1.3594 0.56641 1.7734 1.1875 0.1875 0.28516 0.32031 0.59375 0.39453 0.91406h11.492l0.007813-4.2422c0-0.92188-0.4375-1.6875-1.2305-2.1602-3.0508-1.8164-5.6055-4.4023-7.3906-7.4727-1.8398-3.1641-2.8086-6.7852-2.8086-10.465 0-11.508 9.3594-20.867 20.867-20.867 11.508 0 20.867 9.3594 20.867 20.867 0 3.6797-0.97266 7.3008-2.8086 10.465-1.7812 3.0703-4.3398 5.6523-7.3906 7.4727-0.79297 0.47266-1.2266 1.2383-1.2266 2.1602v4.4805c4.5273 2.5156 8.332 2.125 11.578 1.082l-0.027344-0.13672c-0.14453-0.73047 0.003906-1.4727 0.41797-2.0938 0.41406-0.62109 1.0469-1.043 1.7734-1.1875l6.8555-1.3672c0.73047-0.14453 1.4727 0.003907 2.0938 0.41797 0.62109 0.41406 1.043 1.0469 1.1875 1.7734l5.3281 26.746c0.14453 0.72656-0.003906 1.4688-0.41797 2.0898zm-41.898-50.934c0-1.1797-0.96094-2.1367-2.1367-2.1367-1.1797 0-2.1367 0.96094-2.1367 2.1367 0 1.3164 1.6875 2.7422 4.2773 3.4727zm4.4844 6.793c-0.53906 0.023438-1.0938 0.023438-1.6328 0v12.66h1.5039c0.042968-0.003907 0.085937-0.003907 0.12891-0.007813zm-7.4023 15.555c0.007812-0.015625 0.015625-0.027344 0.023438-0.039063h-0.023438zm-2.6211-7.832c1.6641 0.99219 2.6211 2.6719 2.6211 4.6133v0.32812h2.918v-13.035c-4.1953-0.92969-7.1289-3.418-7.1289-6.4219 0-2.75 2.2383-4.9883 4.9883-4.9883s4.9883 2.2383 4.9883 4.9883v3.9375c0.53516 0.03125 1.0977 0.03125 1.6328 0v-3.9375c0-2.75 2.2383-4.9883 4.9883-4.9883s4.9883 2.2383 4.9883 4.9883c0 3.0039-2.9336 5.4961-7.1289 6.4219v13.031h2.918l0.007813-0.32422c0-1.9375 0.95312-3.6172 2.6211-4.6094 5.4336-3.2383 8.8086-9.1719 8.8086-15.488 0-9.9336-8.082-18.016-18.016-18.016-9.9336 0-18.016 8.082-18.016 18.016 0 6.3125 3.375 12.246 8.8086 15.484zm17.152-14.516c0-1.1797-0.96094-2.1367-2.1367-2.1367-1.1797 0-2.1367 0.96094-2.1367 2.1367v3.4727c2.5859-0.72656 4.2734-2.1562 4.2734-3.4727zm-31.664 24.055-6.7383-1.3438-5.3047 26.629 6.7383 1.3438zm44.441 30.414-16.766-17.012c-2.6758-2.4336-4.5586-3.0508-5.2031-3.0508h-0.046875c-0.027344 0.29688-0.054688 0.59375-0.078125 0.88672-0.42969 4.9023-0.92188 10.461-8.5469 12.34-0.375 0.09375-0.76953 0.027344-1.0938-0.17578-0.32812-0.20312-0.55859-0.53125-0.64062-0.90625l-2.7891-12.781c-0.40234-1.8398 0.28125-3.6602 1.875-4.9883l3.0664-2.5586h-11.742l-4.3711 21.949 17.32 17.32c0.46875 0.46875 1.0938 0.72656 1.7617 0.72656 0.66797 0 1.293-0.25781 1.7617-0.72656s0.72656-1.0938 0.72656-1.7617-0.25781-1.293-0.72266-1.7617l-4.6328-4.6328c-0.55859-0.55859-0.55859-1.4609 0-2.0156 0.55859-0.55859 1.4609-0.55859 2.0156 0l9.9648 9.9648c0.97266 0.97266 2.5508 0.97266 3.5234 0 0.97266-0.97266 0.97266-2.5508 0-3.5234l-9.3047-9.3047c-0.55859-0.55859-0.55859-1.4609 0-2.0156 0.55859-0.55859 1.4609-0.55859 2.0156 0l12.328 12.328c0.46875 0.46875 1.0938 0.72656 1.7617 0.72656 0.66797 0 1.293-0.25781 1.7617-0.72656 0.97266-0.97266 0.97266-2.5508 0-3.5234l-11.668-11.664c-0.55859-0.55859-0.55859-1.4609 0-2.0156 0.55859-0.55859 1.4609-0.55859 2.0156 0l11.664 11.664c0.97266 0.97266 2.5508 0.97266 3.5234 0 0.72266-0.72266 0.92188-1.832 0.51953-2.7617zm4.9141-6.582-4.0625-20.383c-4.5156 1.3906-10.352 1.7266-17.301-4.0078-1.8242-1.5039-4.1602-1.5859-5.8164-0.20312l-4.543 3.793c-0.003906 0-0.003906 0.003906-0.003906 0.003906l-4.6484 3.8789c-0.53906 0.44922-1.1328 1.1953-0.91797 2.1914l2.4609 11.27c4.2969-1.6133 4.5898-4.9375 4.9805-9.3906 0.03125-0.33984 0.058594-0.68359 0.09375-1.0273 0-0.011719 0.003906-0.023437 0.003906-0.035156 0.125-1.0586 0.74219-1.8672 1.6992-2.2227 1.9648-0.73438 4.9961 0.58594 8.3242 3.6172 0.019531 0.015625 0.035156 0.035156 0.054687 0.054688l15.949 16.184zm10.203 1.4531-5.3047-26.629-6.7383 1.3438 5.3047 26.629z" fill="#ea5b0a"></path></svg>