<svg xmlns="http://www.w3.org/2000/svg" width="100pt" height="100pt" viewBox="0 0 100 100"><path d="m62.559 86.566c1.7266 2.7773 4.2969 5.0195 7.4492 6.3203 2.9844 1.2344 5.5742 2.3086 5.5742 2.3086 0.38281 0.15625 0.8125 0.15625 1.1953 0 0 0 2.5898-1.0742 5.5742-2.3086 5.9648-2.4688 9.8516-8.2852 9.8516-14.738v-11.25c0-0.64063-0.38281-1.2109-0.97266-1.4492l-13.488-5.5039v-53.695c0-0.86328-0.69922-1.5625-1.5625-1.5625h-66.816c-0.86719 0-1.5625 0.69922-1.5625 1.5625v78.754c0 0.86328 0.69531 1.5625 1.5625 1.5625zm26.52-18.621v10.203c0 5.1875-3.1289 9.8672-7.9219 11.852l-4.9766 2.0586-4.9766-2.0586c-4.793-1.9844-7.9219-6.6641-7.9219-11.852v-10.203l12.898-5.2656zm-21.391 9.7773 5.9141 5.9102c0.60938 0.61328 1.5977 0.61328 2.2109 0l9.5586-9.5586c0.60938-0.60938 0.60938-1.5977 0-2.207-0.60938-0.60938-1.5977-0.60938-2.207 0l-8.457 8.4531-4.8086-4.8086c-0.60938-0.61328-1.6016-0.61328-2.2109 0-0.60938 0.60938-0.60938 1.6016 0 2.2109zm6.9297-17.777v-52.133h-63.691v75.629h50.133c-0.58594-1.6719-0.90234-3.457-0.90234-5.293v-11.25c0-0.64063 0.38281-1.2109 0.97266-1.4492zm-55.844-0.019531 4.8984 4.8945c0.60938 0.60938 1.5977 0.60938 2.2109 0l7.9102-7.9141c0.60938-0.60938 0.60938-1.6016 0-2.2109-0.60938-0.60937-1.5977-0.60937-2.207 0l-6.8125 6.8125s-3.7891-3.793-3.7891-3.793c-0.60938-0.60938-1.6016-0.60938-2.2109 0-0.60938 0.60938-0.60938 1.6016 0 2.2109zm19.688 2.6289h16.723c0.86328 0 1.5625-0.69922 1.5625-1.5625 0-0.85938-0.69922-1.5625-1.5625-1.5625h-16.723c-0.86328 0-1.5625 0.70312-1.5625 1.5625 0 0.86328 0.69922 1.5625 1.5625 1.5625zm-19.688-15.391 4.8984 4.8945c0.60938 0.60938 1.5977 0.60938 2.2109 0l7.9102-7.9141c0.60938-0.60938 0.60938-1.6016 0-2.2109s-1.5977-0.60938-2.207 0l-6.8125 6.8086-3.7891-3.7891c-0.60938-0.60938-1.6016-0.60938-2.2109 0-0.60938 0.60938-0.60938 1.6016 0 2.2109zm19.688 2.6289h26.332c0.85938 0 1.5625-0.69922 1.5625-1.5625s-0.70312-1.5625-1.5625-1.5625h-26.332c-0.86328 0-1.5625 0.69922-1.5625 1.5625s0.69922 1.5625 1.5625 1.5625zm-19.688-15.395 4.8984 4.8984c0.60938 0.61328 1.5977 0.61328 2.2109 0l7.9102-7.9141c0.60938-0.60937 0.60938-1.5977 0-2.207-0.60938-0.61328-1.5977-0.61328-2.207 0l-6.8125 6.8086s-3.7891-3.793-3.7891-3.793c-0.60938-0.60938-1.6016-0.60938-2.2109 0-0.60938 0.61328-0.60938 1.5977 0 2.207zm19.688 2.6367h26.332c0.85938 0 1.5625-0.69922 1.5625-1.5625 0-0.86328-0.70312-1.5625-1.5625-1.5625h-26.332c-0.86328 0-1.5625 0.69922-1.5625 1.5625 0 0.86328 0.69922 1.5625 1.5625 1.5625zm-19.688-15.395 4.8984 4.8984c0.60938 0.60938 1.5977 0.60938 2.2109 0l7.9102-7.918c0.60938-0.60938 0.60938-1.5977 0-2.207-0.60938-0.60937-1.5977-0.60937-2.207 0l-6.8125 6.8086s-3.7891-3.793-3.7891-3.793c-0.60938-0.60938-1.6016-0.60938-2.2109 0-0.60938 0.60937-0.60938 1.6016 0 2.2109zm19.688 2.6328h26.332c0.85938 0 1.5625-0.70313 1.5625-1.5625 0-0.86328-0.70312-1.5625-1.5625-1.5625h-26.332c-0.86328 0-1.5625 0.69922-1.5625 1.5625 0 0.85937 0.69922 1.5625 1.5625 1.5625z" fill="#ea5b0a" fill-rule="evenodd"></path></svg>