<svg xmlns="http://www.w3.org/2000/svg" width="100pt" height="100pt" viewBox="0 0 100 100"><path d="m38.711 67.719h6.6641c1.043 0 1.8906 0.99219 1.8906 2.207 0 1.2188-0.84766 2.207-1.8906 2.207h-6.6641c-1.043 0-1.8906-0.99219-1.8906-2.207 0-1.2188 0.84766-2.207 1.8906-2.207zm39.125-3.4297c0 5.8906-4.7969 10.684-10.688 10.684-5.8906 0-10.684-4.793-10.684-10.684 0-5.8945 4.793-10.691 10.684-10.691 5.8945 0 10.688 4.7969 10.688 10.691zm-4.418 0c0-3.457-2.8125-6.2734-6.2734-6.2734-3.457 0-6.2656 2.8125-6.2656 6.2734 0 3.457 2.8125 6.2656 6.2656 6.2656 3.457 0 6.2734-2.8125 6.2734-6.2656zm-29.996 1.4766c1.0195 0 1.8516-0.99219 1.8516-2.207 0-1.2188-0.83203-2.207-1.8516-2.207h-4.75c-1.0195 0-1.8516 0.99219-1.8516 2.207 0 1.2188 0.83203 2.207 1.8516 2.207zm-24.816 5.9688v-9.9805c0-1.9023 1.5469-3.4531 3.4453-3.4531h9.9805c1.9023 0 3.4453 1.5469 3.4453 3.4531v9.9805c0 1.9023-1.5469 3.4453-3.4453 3.4453h-9.9805c-1.9023 0-3.4453-1.5469-3.4453-3.4453zm12.457-0.96875v-8.0469h-8.0391v8.0469zm-2.0586-7.1055c-0.48438 0-0.9375 0.19141-1.2734 0.53906l-1.3281 1.3672-0.12109-0.11328c-0.32812-0.30469-0.75781-0.47266-1.207-0.47266-0.49219 0-0.96875 0.20703-1.3008 0.57031-0.32031 0.34766-0.48828 0.80078-0.46875 1.2734 0.019531 0.47266 0.21875 0.91016 0.56641 1.2344l1.3945 1.293c0.32812 0.30469 0.75781 0.47266 1.207 0.47266 0.48438 0 0.9375-0.19141 1.2734-0.53906l2.5352-2.6133c0.32812-0.33984 0.50781-0.78906 0.5-1.2617s-0.19922-0.91797-0.53906-1.2461c-0.33203-0.32422-0.76953-0.5-1.2344-0.5zm-10.402-9.3516v-9.9805c0-1.9023 1.5469-3.4453 3.4453-3.4453h9.9805c1.9023 0 3.4453 1.5469 3.4453 3.4453v9.9805c0 1.9023-1.5469 3.4453-3.4453 3.4453h-9.9805c-1.9023 0-3.4453-1.5469-3.4453-3.4453zm12.457-0.96875v-8.0391h-8.0391v8.0391zm57.125 33.488c0.42969 1.0781 0.28516 2.207-0.38672 3.0234-0.52734 0.64063-1.3359 1.0078-2.2188 1.0078-0.21094 0-0.42578-0.019531-0.64062-0.0625l-5.0273-0.96484-3.1992 3.9961c-0.59375 0.74609-1.4375 1.1758-2.3164 1.1758-0.15625 0-0.3125-0.011718-0.46484-0.039062-1.043-0.18359-1.8906-0.94531-2.2617-2.0469l-2.8516-8.5-1.6797-0.67578-1.6758 0.67578-2.8516 8.4961c-0.37109 1.1016-1.2188 1.8672-2.2617 2.0469-0.15234 0.027343-0.30859 0.039062-0.46484 0.039062-0.87891 0-1.7227-0.42969-2.3203-1.1797l-3.1953-3.9961-5.0273 0.96484c-0.21484 0.042969-0.42969 0.0625-0.64062 0.0625-0.87891 0-1.6875-0.36719-2.2188-1.0078-0.67578-0.81641-0.82031-1.9453-0.39062-3.0195l2.0625-5.1211-29.504 0.003906c-4.207 0-7.6328-3.4219-7.6328-7.6328v-61.441c0-4.207 3.4258-7.6328 7.6328-7.6328h42.969c4.207 0 7.6328 3.4219 7.6328 7.6328v30.633c0.28125 0.15625 0.54688 0.34766 0.80469 0.57812l3.5664 3.2109 4.8125-0.17188c0.050781 0 0.10156-0.003906 0.15234-0.003906 2.1367 0 3.9727 1.5977 4.2695 3.7148l0.67188 4.7695 3.7969 2.9648c1.7422 1.3594 2.1758 3.8047 1.0039 5.6875l-2.5586 4.0859 1.0039 4.7148c0.41406 1.9688-0.52734 3.8906-2.3047 4.7617l3.7188 9.2422zm-14.242-1.0273 1.043 3.1133 2.8438-3.5547 0.13281-0.16797 0.066406-0.082031 0.09375-0.11719 0.14844 0.027343 0.31641 0.058594 4.4727 0.85938-2.793-6.9414-0.97266 0.31641-2.2617 4.2578c-0.63672 1.1914-1.7773 2.0078-3.0938 2.2305zm8.0547-19.992 2.5312-4.0469-3.7617-2.9375c-0.89453-0.69922-1.4531-1.6641-1.6133-2.793l-0.66406-4.7266-4.7578 0.16797c-0.058594 0.003906-0.11719 0.003906-0.17969 0.003906-1.0703 0-2.0586-0.38281-2.8633-1.1133l-3.543-3.1914-3.543 3.1953c-0.8125 0.72656-1.8086 1.1094-2.8828 1.1094-0.050781 0-0.10547 0-0.15625-0.003906l-4.7617-0.16797-0.66406 4.7188c-0.15234 1.1211-0.71094 2.0898-1.6133 2.8008l-3.7617 2.9375 2.5312 4.043c0.60938 0.97656 0.80078 2.082 0.55859 3.1914l-0.98828 4.6523 4.5391 1.4727c1.082 0.35547 1.9336 1.0742 2.4688 2.0742l2.2383 4.2148 4.418-1.7812c0.52344-0.21484 1.0664-0.32422 1.6172-0.32422 0.55469 0 1.1055 0.10937 1.6289 0.32812l4.4062 1.7891 2.2422-4.2188c0.53516-1.0039 1.3906-1.7188 2.4688-2.0742l4.543-1.4766-0.99219-4.6641c-0.23438-1.1172-0.039062-2.2148 0.55859-3.1797zm-30.777 20.129 4.4727-0.85938 0.31641-0.058594 0.14844-0.027343 0.09375 0.11719 0.066406 0.082031 0.13281 0.16797 2.8438 3.5547 1.043-3.1133c-1.3164-0.22266-2.457-1.0391-3.0938-2.2305l-2.2617-4.2578-0.97266-0.31641-2.793 6.9414zm-35.789-11.859c0 1.7734 1.4414 3.2148 3.2148 3.2148h30.66c-1.4375-0.96484-2.1602-2.6953-1.7891-4.4648l1.0039-4.7188-2.5547-4.0859c-1.168-1.8828-0.73828-4.3281 1.0039-5.6914l3.7969-2.9648 0.67188-4.7695c0.30078-2.1172 2.1328-3.7148 4.2578-3.7148 0.054688 0 0.10547 0 0.16016 0.003907l4.8203 0.17188 3.5781-3.2266c0.17969-0.16016 0.37109-0.30859 0.57422-0.4375l0.003906-30.762c0-1.7734-1.4414-3.2148-3.2148-3.2148h-42.969c-1.7734 0-3.2148 1.4414-3.2148 3.2148v61.441zm13.48-27.711c-0.46484 0-0.90234 0.18359-1.2266 0.51953l-1.25 1.2891-0.10156-0.09375c-0.31641-0.29297-0.73047-0.45703-1.1602-0.45703-0.47656 0-0.93359 0.19922-1.2539 0.54688-0.30859 0.33594-0.46875 0.76953-0.45312 1.2266 0.019531 0.45703 0.21094 0.87891 0.54688 1.1875l1.3281 1.2305c0.31641 0.29297 0.73047 0.45703 1.1602 0.45703 0.46484 0 0.90234-0.18359 1.2266-0.51953l2.4141-2.4844c0.31641-0.32812 0.48828-0.75781 0.48438-1.2148-0.007812-0.45703-0.19141-0.88281-0.51953-1.2031-0.32031-0.3125-0.74219-0.48437-1.1914-0.48437zm18.426 3.9297h-8.6016c-1.0547 0-1.9141 0.99219-1.9141 2.207 0 1.2188 0.85938 2.207 1.9141 2.207h8.6016c1.0547 0 1.9141-0.99219 1.9141-2.207 0-1.2188-0.85938-2.207-1.9141-2.207zm-8.5039-1.957h6.6523c1.1094 0 2.0156-0.99219 2.0156-2.207 0-1.2188-0.90234-2.207-2.0156-2.207h-6.6523c-1.1094 0-2.0117 0.99219-2.0117 2.207 0 1.2188 0.90234 2.207 2.0117 2.207zm-12.828-10.219c0-2.8633 0.85547-5.6211 2.4727-7.9766 1.3516-1.9648 3.1758-3.5625 5.293-4.6328-1.3438-1.5391-2.0781-3.4922-2.0781-5.5391 0-4.6523 3.7852-8.4414 8.4414-8.4414 4.6523 0 8.4414 3.7852 8.4414 8.4414 0 2.0469-0.73438 4.0039-2.0781 5.5391 2.1172 1.0703 3.9414 2.668 5.293 4.6328 1.6172 2.3555 2.4727 5.1133 2.4727 7.9766 0 1.2188-0.99219 2.207-2.207 2.207h-23.84c-1.2188 0-2.207-0.99219-2.207-2.207zm23.582-2.207c-1.0156-4.3633-4.9453-7.5-9.457-7.5-4.5117 0-8.4375 3.1367-9.457 7.5zm-13.477-15.941c0 2.2188 1.8047 4.0234 4.0234 4.0234s4.0234-1.8047 4.0234-4.0234-1.8047-4.0234-4.0234-4.0234-4.0234 1.8047-4.0234 4.0234z" fill="#ea5b0a"></path></svg>