<svg xmlns="http://www.w3.org/2000/svg" width="100pt" height="100pt" viewBox="0 0 100 100"><path d="m43.602 74.602c-0.55078 0.55469-0.72656 1.3789-0.44922 2.1094 0.27344 0.73047 0.94922 1.2344 1.7266 1.2891h0.0625c0.67578 0.027344 1.3203-0.28516 1.7148-0.83594 0.39062-0.55078 0.48047-1.2656 0.23047-1.8945-0.24609-0.63281-0.79688-1.0938-1.4609-1.2266-0.66406-0.13672-1.3516 0.074219-1.8242 0.55859z" fill="#ea5b0a"></path><path d="m74.352 51.398c-0.75391-0.78906-1.7578-1.2852-2.8398-1.3984 0.30469-0.59766 0.47266-1.2578 0.48828-1.9297 0.03125-1.1602-0.39453-2.2852-1.1914-3.1289-0.73047-0.78906-1.7344-1.2773-2.8086-1.3633 0.6875-1.707 0.32031-3.6562-0.94141-5-0.71094-0.75391-1.6523-1.2539-2.6797-1.418l8.0898-7.6797c1.7148-1.6445 1.7891-4.3633 0.17188-6.1016-0.78125-0.83203-1.8594-1.3203-3-1.3594-1.1484-0.03125-2.2656 0.39453-3.1016 1.1797l-19.391 18.352c-0.61328-2.9844-2.0234-5.75-4.0781-8-1.7734-2.2148-4.375-3.6133-7.1992-3.8711-1.2461-0.14063-2.4609 0.4375-3.1406 1.4922-0.96484 1.7109-0.94531 3.8086 0.058593 5.5 2.3242 4.1211 3.3164 8.8594 2.832 13.566-0.17188 1.6328-0.53125 3.2422-1.0703 4.793-0.375-0.15234-0.77734-0.24219-1.1797-0.26172-0.86719-0.023437-1.7109 0.29688-2.3398 0.89062l-5.5898 5.2617c-1.3164 1.2344-1.3867 3.3008-0.15234 4.6172l16.898 18h0.003906c1.2383 1.3125 3.3047 1.3789 4.6289 0.15234l5.5898-5.2617c0.625-0.59375 0.98828-1.418 1-2.2812 0.019532-0.56641-0.10938-1.125-0.37109-1.6289l2.6406-1.4219v0.003906c3.4766-1.8672 6.6953-4.1797 9.5703-6.8828l8.8594-8.3281c1.8516-1.7383 1.9453-4.6484 0.21094-6.5zm-23.211 25.691-5.6016 5.25c-0.26953 0.26172-0.63672 0.40234-1.0117 0.39062s-0.73047-0.17188-0.98828-0.44922l-16.898-18c-0.25781-0.27344-0.39844-0.63672-0.38672-1.0156 0.011719-0.375 0.17188-0.73047 0.44531-0.98438l5.6094-5.2812c0.27344-0.25 0.63281-0.38672 1-0.37891 0.38281 0.003906 0.74219 0.16797 1 0.44922l13.98 14.93 2.9102 3.1016c0.25781 0.26563 0.39844 0.625 0.39062 1-0.011719 0.375-0.17578 0.73047-0.44922 0.98828zm22.59-22.449c-0.019531 0.72656-0.33203 1.4141-0.85938 1.9102l-8.8711 8.3281c-2.7539 2.5938-5.8398 4.8125-9.1719 6.6016l-3 1.5898-7.2773-7.7695-8.4688-9h-0.003906c0.71484-1.8398 1.1797-3.7695 1.3828-5.7305 0.53516-5.1055-0.51172-10.25-3-14.742-0.67188-1.0898-0.72266-2.4492-0.14063-3.5898 0.30078-0.48047 0.85938-0.73438 1.418-0.64844 2.3672 0.19922 4.543 1.375 6 3.25 3.8984 4.3906 3.8203 8.6406 3.8203 8.6797-0.015625 0.375 0.19922 0.72656 0.54297 0.87891 0.33594 0.14844 0.72656 0.082031 1-0.16797l20.68-19.652c0.47656-0.44922 1.1133-0.6875 1.7695-0.66797 0.65234 0.015625 1.2734 0.29297 1.7188 0.76953 0.93359 0.98828 0.89062 2.543-0.089843 3.4805l-13 12.379c-0.32422 0.35938-0.31641 0.90625 0.015624 1.2617 0.33203 0.35156 0.875 0.39062 1.2539 0.089844l2.2695-2.1289c1.1406-1.0742 2.9336-1.0156 4.0078 0.125 1.0703 1.1406 1.0156 2.9336-0.125 4.0039l-3 2.8281c-0.37891 0.35156-0.39844 0.94141-0.046874 1.3164 0.35156 0.375 0.94141 0.39453 1.3164 0.042969l2.1016-2h-0.003906c0.48828-0.45312 1.1328-0.69922 1.8008-0.67969 0.66406 0.019531 1.293 0.30469 1.75 0.79297 0.45703 0.48047 0.69922 1.1289 0.67969 1.793s-0.30469 1.293-0.78906 1.7461l-1.5195 1.4297-1.5703 1.4688c-0.35937 0.36719-0.35937 0.95703 0 1.3203 0.36328 0.35938 0.94531 0.35938 1.3086 0l1.5781-1.4805h0.003907c0.80859-0.75391 1.9922-0.94922 3-0.49219 1.0117 0.45703 1.6445 1.4766 1.6094 2.582z" fill="#ea5b0a"></path><path d="m42.539 24.578c0.17578 0.17578 0.41406 0.27344 0.66016 0.27344 0.24609-0.007812 0.48047-0.10156 0.66016-0.27344 0.35938-0.35938 0.35938-0.94531 0-1.3086l-3.25-3.2695c-0.36719-0.35156-0.94531-0.34375-1.3008 0.015625-0.35938 0.35938-0.36328 0.94141-0.007813 1.3047z" fill="#ea5b0a"></path><path d="m49.852 21.859c0.51172 0 0.92969-0.41406 0.92969-0.92969v-4.5781c0-0.51562-0.41797-0.92969-0.92969-0.92969-0.51562 0-0.92969 0.41406-0.92969 0.92969v4.5781c0 0.51562 0.41406 0.92969 0.92969 0.92969z" fill="#ea5b0a"></path><path d="m56.75 24.801c0.24609 0 0.48438-0.097656 0.66016-0.26953l3.2383-3.2383v-0.003907c0.21875-0.16016 0.35547-0.41016 0.375-0.67969 0.015624-0.27344-0.082032-0.53516-0.27734-0.72656-0.19141-0.19141-0.46094-0.28906-0.73047-0.26562-0.26953 0.023437-0.51562 0.16406-0.67578 0.38281l-3.2383 3.2188c-0.17969 0.17188-0.28125 0.41016-0.28125 0.65625s0.10156 0.48438 0.28125 0.65625c0.17188 0.17188 0.40625 0.26953 0.64844 0.26953z" fill="#ea5b0a"></path></svg>