<svg xmlns="http://www.w3.org/2000/svg" width="100pt" height="100pt" viewBox="0 0 100 100"><path d="m94.633 49.18-8.8711-7.9141c-0.32422-0.28906-0.78516-0.35938-1.1797-0.18359s-0.64844 0.57031-0.64844 1v2.9805h-3.9688c-0.76953-4.7031-2.6289-9.043-5.3008-12.762l2.8164-2.8164 2.1094 2.1094c0.30469 0.30469 0.76172 0.40234 1.168 0.25 0.40234-0.15234 0.67969-0.53125 0.70313-0.96484l0.67969-11.867c0.019531-0.3125-0.097656-0.61719-0.32031-0.83984-0.22266-0.22266-0.52344-0.33984-0.83984-0.32031l-11.867 0.67969c-0.43359 0.023438-0.80859 0.30078-0.96484 0.70312-0.15234 0.40234-0.054688 0.85938 0.25 1.168l2.1094 2.1094-2.8164 2.8164c-3.7188-2.6758-8.0586-4.5312-12.762-5.3008v-3.9688h2.9805c0.43359 0 0.82422-0.25391 1-0.64844 0.17578-0.39453 0.10547-0.85547-0.18359-1.1797l-7.9141-8.8711c-0.20703-0.23438-0.50781-0.36719-0.82031-0.36719s-0.60938 0.13281-0.82031 0.36719l-7.9141 8.8711c-0.28906 0.32422-0.35937 0.78516-0.18359 1.1797 0.17578 0.39453 0.57031 0.64844 1 0.64844h2.9844v3.9688c-4.7031 0.76953-9.043 2.6289-12.762 5.3008l-2.8164-2.8164 2.1094-2.1094c0.30469-0.30469 0.40234-0.76172 0.25-1.168-0.15234-0.40234-0.53125-0.67969-0.96484-0.70312l-11.867-0.67969c-0.3125-0.023437-0.61719 0.097657-0.83984 0.32031-0.22266 0.22266-0.33594 0.52734-0.32031 0.83984l0.67969 11.867c0.023437 0.43359 0.30078 0.80859 0.70312 0.96484 0.40234 0.15234 0.85938 0.054688 1.168-0.25l2.1094-2.1094 2.8164 2.8164c-2.6758 3.7188-4.5312 8.0586-5.3008 12.762h-3.9688v-2.9805c0-0.43359-0.25391-0.82422-0.64844-1-0.39453-0.17969-0.85547-0.10547-1.1797 0.18359l-8.8711 7.9141c-0.23438 0.20703-0.36719 0.50781-0.36719 0.82031s0.13281 0.60938 0.36719 0.82031l8.8711 7.9141c0.20313 0.18359 0.46484 0.27734 0.73047 0.27734 0.15234 0 0.30469-0.03125 0.44922-0.097657 0.39453-0.17578 0.64844-0.57031 0.64844-1v-2.9805h3.9688c0.76953 4.7031 2.6289 9.043 5.3008 12.762l-2.8164 2.8164-2.1094-2.1094c-0.30859-0.30859-0.76563-0.40234-1.168-0.25-0.40234 0.15234-0.67969 0.53125-0.70312 0.96484l-0.67969 11.867c-0.019531 0.3125 0.097656 0.61719 0.32031 0.83984 0.20703 0.20703 0.48438 0.32031 0.77734 0.32031h0.0625l11.867-0.67969c0.43359-0.023438 0.80859-0.30078 0.96484-0.70312 0.15234-0.40234 0.054687-0.85938-0.25-1.168l-2.1094-2.1094 2.8164-2.8164c3.7188 2.6758 8.0586 4.5312 12.762 5.3008v3.9688h-2.9844c-0.43359 0-0.82422 0.25391-1 0.64844-0.17578 0.39453-0.10547 0.85547 0.18359 1.1797l7.9141 8.8711c0.20703 0.23438 0.50781 0.36719 0.82031 0.36719s0.60937-0.13281 0.82031-0.36719l7.9141-8.8711c0.28906-0.32422 0.35938-0.78516 0.18359-1.1797-0.17578-0.39453-0.57031-0.64844-1-0.64844h-2.9805v-3.9688c4.7031-0.76953 9.043-2.6289 12.762-5.3008l2.8164 2.8164-2.1094 2.1094c-0.30469 0.30469-0.40234 0.76172-0.25 1.168 0.15234 0.40234 0.53125 0.67969 0.96484 0.70312l11.867 0.67969h0.0625c0.28906 0 0.57031-0.11328 0.77734-0.32031 0.22266-0.22266 0.33594-0.52734 0.32031-0.83984l-0.67969-11.867c-0.023438-0.43359-0.30078-0.80859-0.70313-0.96484-0.40234-0.15625-0.85937-0.058594-1.168 0.25l-2.1094 2.1094-2.8164-2.8164c2.6758-3.7188 4.5312-8.0586 5.3008-12.762h3.9688v2.9805c0 0.43359 0.25391 0.82422 0.64844 1 0.14453 0.066407 0.29688 0.097657 0.44922 0.097657 0.26562 0 0.52734-0.09375 0.73047-0.27734l8.8711-7.9141c0.23438-0.20703 0.36719-0.50781 0.36719-0.82031s-0.13281-0.60938-0.36719-0.82031zm-30.957-0.27734c-0.070312-4.4844-0.55469-8.6914-1.375-12.441h12.406c2.0469 3.7188 3.2734 7.9453 3.4453 12.441zm-25.152 0c0.074218-4.4648 0.59375-8.7031 1.4531-12.441h20.047c0.85937 3.7383 1.3828 7.9766 1.4531 12.441h-22.957zm22.957 2.1953c-0.074219 4.4648-0.59375 8.7031-1.4531 12.441h-20.047c-0.85938-3.7422-1.3828-7.9766-1.4531-12.441h22.957zm0.28516-16.832c-1.3828-5.168-3.4414-9.293-5.9258-11.832 7.2617 1.5352 13.5 5.875 17.523 11.832zm-2.3008 0h-18.93c2.0938-7.4492 5.5898-12.441 9.4648-12.441s7.3711 4.9922 9.4648 12.441zm-21.23 0h-11.598c4.0234-5.957 10.262-10.293 17.527-11.832-2.4844 2.5391-4.543 6.6641-5.9258 11.832zm-0.53125 2.1953c-0.82422 3.75-1.3086 7.957-1.3789 12.441h-14.477c0.17188-4.4961 1.3984-8.7227 3.4453-12.441zm-1.3789 14.637c0.070312 4.4844 0.55469 8.6914 1.3789 12.441h-12.406c-2.0469-3.7188-3.2734-7.9453-3.4453-12.441h14.477zm1.9102 14.637c1.3867 5.168 3.4453 9.293 5.9258 11.828-7.2617-1.5352-13.5-5.875-17.523-11.828zm2.2969 0h18.93c-2.0938 7.4492-5.5898 12.441-9.4648 12.441s-7.3711-4.9922-9.4648-12.441zm21.23 0h11.598c-4.0234 5.957-10.262 10.293-17.523 11.828 2.4844-2.5391 4.543-6.6641 5.9258-11.828zm0.53125-2.1953c0.82422-3.75 1.3086-7.957 1.375-12.441h14.477c-0.17188 4.4961-1.3984 8.7227-3.4453 12.441zm10.539-40.242c0.42969-0.42969 0.42969-1.125 0-1.5508l-1.1523-1.1523 8.1953-0.46875-0.46875 8.1953-1.1523-1.1523c-0.42969-0.42969-1.125-0.42969-1.5508 0l-3.3945 3.3945c-1.1719-1.4023-2.4648-2.6953-3.8672-3.8672l3.3945-3.3945zm-26.668-9.4219h-1.6289l5.4648-6.125 5.4609 6.125h-1.6289c-0.60547 0-1.0977 0.49219-1.0977 1.0977v4.7891c-0.90234-0.082031-1.8125-0.12891-2.7344-0.12891s-1.832 0.046876-2.7344 0.12891v-4.7891c0-0.60547-0.49219-1.0977-1.0977-1.0977zm-22.871 13.293c-0.42969-0.42969-1.125-0.42969-1.5508 0l-1.1523 1.1523-0.46875-8.1953 8.1953 0.46875-1.1523 1.1523c-0.42969 0.42969-0.42969 1.125 0 1.5508l3.3945 3.3945c-1.4023 1.1719-2.6953 2.4648-3.8672 3.8672l-3.3945-3.3945zm-8.3281 25.57c-0.60547 0-1.0977 0.49219-1.0977 1.0977v1.6289l-6.125-5.4648 6.125-5.4609v1.6289c0 0.60547 0.49219 1.0977 1.0977 1.0977h4.7891c-0.082031 0.90234-0.12891 1.8125-0.12891 2.7344s0.046875 1.832 0.12891 2.7344h-4.7891zm12.195 23.969c-0.42969 0.42969-0.42969 1.125 0 1.5508l1.1523 1.1523-8.1953 0.46875 0.46875-8.1953 1.1523 1.1523c0.42969 0.42969 1.125 0.42969 1.5508 0l3.3945-3.3945c1.1719 1.4023 2.4648 2.6953 3.8672 3.8672l-3.3945 3.3945zm26.668 9.4258h1.6289l-5.4609 6.125-5.4648-6.125h1.6289c0.60547 0 1.0977-0.49219 1.0977-1.0977v-4.7891c0.90234 0.082031 1.8125 0.12891 2.7344 0.12891 0.92187 0 1.832-0.046875 2.7344-0.12891v4.7891c0 0.60547 0.49219 1.0977 1.0977 1.0977zm22.871-13.293c0.42969 0.42969 1.125 0.42969 1.5508 0l1.1523-1.1523 0.46875 8.1953-8.1953-0.46875 1.1523-1.1523c0.42969-0.42969 0.42969-1.125 0-1.5508l-3.3945-3.3945c1.4023-1.1719 2.6953-2.4648 3.8672-3.8672l3.3945 3.3945zm9.4258-17.375v-1.6289c0-0.60547-0.49219-1.0977-1.0977-1.0977h-4.7891c0.082031-0.90234 0.12891-1.8125 0.12891-2.7344s-0.046876-1.832-0.12891-2.7344h4.7891c0.60547 0 1.0977-0.49219 1.0977-1.0977v-1.6289l6.125 5.4609-6.125 5.4648z" fill="#ea5b0a"></path></svg>