<svg xmlns="http://www.w3.org/2000/svg" width="100pt" height="100pt" viewBox="0 0 100 100"><path d="m60.844 17.391c-0.19531-0.55469-0.68359-0.95312-1.2656-1.0312l-5.6562-0.73438-2.625-5.375c-0.26562-0.54297-0.82031-0.88281-1.4219-0.875-0.60938 0.007812-1.1562 0.36719-1.4062 0.92188l-2.4531 5.4219-5.6562 0.95312c-0.57812 0.097656-1.0508 0.51562-1.2266 1.0742-0.17578 0.5625-0.019531 1.1719 0.39844 1.582l4.2188 4.1094-0.89062 5.9844c-0.10547 0.60547 0.14844 1.2148 0.65625 1.5625 0.26562 0.17188 0.57422 0.26562 0.89062 0.26562 0.26953 0 0.53125-0.070312 0.76562-0.20312l4.9688-2.9219 5.0938 2.7031c0.53125 0.28125 1.1758 0.23047 1.6562-0.125 0.48828-0.35938 0.72656-0.96875 0.60938-1.5625l-1.0625-5.9531 4.0625-4.2812c0.375-0.41016 0.50781-0.98438 0.34375-1.5156zm-7.2188 4.2969c-0.34375 0.36328-0.49609 0.86719-0.40625 1.3594l0.64062 3.5156-3.0156-1.5625c-0.48438-0.27734-1.0781-0.27734-1.5625 0l-2.9531 1.6875 0.54688-3.5312c0.078125-0.49219-0.085938-0.99219-0.4375-1.3438l-2.5938-2.5625 3.5-0.5c0.51953-0.085938 0.95703-0.42578 1.1719-0.90625l1.4375-3.125 1.5625 3.125c0.23047 0.46484 0.67188 0.78906 1.1875 0.85938l3.4688 0.46875z" fill="#ea5b0a"></path><path d="m86.516 66.344c3.3867-2.7266 4.8398-7.1992 3.6992-11.395-1.1445-4.1953-4.6641-7.3164-8.9648-7.9492v-12.625h-3.125v12.609h-0.35938l-0.4375 0.09375-0.59375 0.15625-0.40625 0.10938-0.60938 0.21875-0.34375 0.14062-0.70312 0.34375-0.21875 0.09375-0.85938 0.53125-0.125 0.09375c-0.23828 0.15625-0.46875 0.33203-0.6875 0.51562-0.089844 0.0625-0.17578 0.13672-0.25 0.21875l-0.5 0.5-0.26562 0.28125-0.42188 0.45312-0.25 0.32812c-0.12891 0.15625-0.25 0.31641-0.35938 0.48438-0.085937 0.10938-0.16406 0.22266-0.23438 0.34375-0.11328 0.16797-0.21875 0.33984-0.3125 0.51562-0.082031 0.11719-0.14844 0.24219-0.20312 0.375-0.09375 0.17188-0.17188 0.34375-0.26562 0.53125s-0.10938 0.25-0.17188 0.39062l-0.20312 0.5625-0.14062 0.40625c0 0.20312-0.10938 0.40625-0.15625 0.625l-0.09375 0.39062c-0.046875 0.23047-0.078125 0.46484-0.09375 0.70312v0.32812 1.0781 1.2031 0.375c0 0.125 0.078125 0.53125 0.14062 0.78125s0 0.29688 0.10938 0.4375 0.125 0.46875 0.20312 0.6875 0.10938 0.29688 0.15625 0.4375 0.17188 0.42188 0.28125 0.64062 0.125 0.28125 0.20312 0.42188 0.21875 0.40625 0.32812 0.59375l0.23438 0.39062c0.14062 0.20312 0.28125 0.40625 0.4375 0.59375s0.14062 0.21875 0.23438 0.32812 0.42188 0.48438 0.64062 0.71875l0.10938 0.10938c0.26562 0.26562 0.54688 0.51562 0.82812 0.75-0.79297 0.17578-1.5742 0.39453-2.3438 0.65625h-0.09375c-0.70312 0.25-1.3906 0.53516-2.0625 0.85938h-0.078125c-0.61719 0.30469-1.207 0.66016-1.7656 1.0625-0.55469 0.37109-1.0781 0.78906-1.5625 1.25h-0.10938l-0.17188-0.14062c-0.37891-0.36719-0.78125-0.71094-1.2031-1.0312l-0.46875-0.17188c-0.34375-0.23438-0.73438-0.45312-1.125-0.67188l-0.51562-0.28125c-0.53125-0.25-1.0938-0.48438-1.6719-0.70312l-0.67188-0.21875c-0.64062-0.22266-1.293-0.41406-1.9531-0.5625h-0.10938c0.28125-0.23438 0.5625-0.48438 0.82812-0.75l0.10938-0.10938c0.21875-0.23438 0.4375-0.46875 0.64062-0.71875s0.15625-0.21875 0.23438-0.32812 0.29688-0.39062 0.4375-0.59375l0.23438-0.39062c0.10938-0.1875 0.23438-0.39062 0.32812-0.59375s0.14062-0.28125 0.20312-0.42188 0.1875-0.42188 0.28125-0.64062 0.10938-0.28125 0.15625-0.4375 0.14062-0.45312 0.20312-0.6875 0.078125-0.28125 0.10938-0.4375 0.09375-0.51562 0.14062-0.78125 0-0.25 0-0.375v-1.2031c0-6.0391-4.8984-10.938-10.938-10.938s-10.938 4.8984-10.938 10.938v1.2031 0.375c0 0.125 0.078125 0.53125 0.14062 0.78125s0 0.29688 0.10938 0.4375 0.125 0.46875 0.20312 0.6875 0.10938 0.29688 0.15625 0.4375 0.17188 0.42188 0.28125 0.64062 0.125 0.28125 0.20312 0.42188 0.21875 0.40625 0.32812 0.59375l0.23438 0.39062c0.14062 0.20312 0.28125 0.40625 0.4375 0.59375s0.14062 0.21875 0.23438 0.32812 0.42188 0.48438 0.64062 0.71875l0.10938 0.10938c0.26562 0.26562 0.54688 0.51562 0.82812 0.75h-0.10938c-0.66016 0.14844-1.3125 0.33984-1.9531 0.5625l-0.67188 0.21875c-0.57812 0.21875-1.1406 0.45312-1.6719 0.70312l-0.51562 0.28125c-0.38672 0.20312-0.76172 0.42969-1.125 0.67188l-0.51562 0.34375c-0.42188 0.32031-0.82422 0.66406-1.2031 1.0312l-0.17188 0.14062h-0.10938c-0.46094-0.45703-0.95703-0.875-1.4844-1.25-0.55859-0.40234-1.1484-0.75781-1.7656-1.0625h-0.078125c-0.5625-0.33594-1.1406-0.64062-1.7344-0.92188h-0.09375c-0.76953-0.26172-1.5508-0.48047-2.3438-0.65625 0.28125-0.23438 0.5625-0.48438 0.82812-0.75l0.10938-0.10938c0.21875-0.23438 0.4375-0.46875 0.64062-0.71875s0.15625-0.21875 0.23438-0.32812 0.29688-0.39062 0.4375-0.59375l0.23438-0.39062c0.10938-0.1875 0.23438-0.39062 0.32812-0.59375s0.14062-0.28125 0.20312-0.42188 0.1875-0.42188 0.28125-0.64062 0.10938-0.28125 0.15625-0.4375 0.14062-0.45312 0.20312-0.6875 0-0.28125 0.10938-0.4375 0.09375-0.51562 0.14062-0.78125 0-0.25 0-0.375v-1.2031-1.0781-0.34375c-0.015625-0.23047-0.046875-0.46094-0.09375-0.6875l-0.09375-0.40625c0-0.20312-0.10938-0.40625-0.15625-0.60938l-0.14062-0.40625-0.20312-0.5625c0-0.14062-0.125-0.26562-0.17188-0.39062l-0.26562-0.53125c-0.054688-0.13281-0.12109-0.25781-0.20312-0.375-0.09375-0.17578-0.19922-0.34766-0.3125-0.51562l-0.25-0.4375c-0.10938-0.16797-0.23047-0.32812-0.35938-0.48438l-0.25-0.32812-0.42188-0.45312-0.26562-0.29688-0.5-0.45312c-0.074219-0.082031-0.16016-0.15625-0.25-0.21875-0.21875-0.1875-0.45312-0.34375-0.6875-0.51562l-0.125-0.09375-0.85938-0.53125-0.21875-0.09375-0.70312-0.34375-0.34375-0.14062-0.60938-0.21875-0.40625-0.10938-0.59375-0.15625-0.4375-0.09375h-0.35938v-25.156h-3.125v25.125c-4.3008 0.63281-7.8203 3.7539-8.9648 7.9492-1.1406 4.1953 0.3125 8.668 3.6992 11.395-6.3906 1.4375-10.359 4.9688-10.359 9.6719v19.297c0 0.41406 0.16406 0.8125 0.45703 1.1055s0.69141 0.45703 1.1055 0.45703h90.625c0.41406 0 0.8125-0.16406 1.1055-0.45703s0.45703-0.69141 0.45703-1.1055v-19.297c0-4.7031-3.9688-8.2344-10.359-9.6719zm-74.016-8.5312c0-3.1602 1.9023-6.0078 4.8242-7.2188 2.918-1.207 6.2773-0.53906 8.5117 1.6953 2.2344 2.2344 2.9023 5.5938 1.6953 8.5117-1.2109 2.9219-4.0586 4.8242-7.2188 4.8242-4.3164 0-7.8125-3.4961-7.8125-7.8125zm20.812 15.484c-0.12109 0.32031-0.21875 0.64844-0.29688 0.98438-0.019531 0.125-0.042969 0.25-0.078125 0.375-0.082031 0.44922-0.125 0.90234-0.125 1.3594v17.734h-26.562v-17.734c0-5 7.2969-7.2656 14.062-7.2656h2.2031c0.40625 0 0.78125 0.078125 1.1562 0.10938l0.89062 0.09375 1.4375 0.26562h0.46875c0.51562 0.125 1 0.26562 1.4844 0.40625h0.26562c0.48438 0.17188 0.9375 0.34375 1.375 0.53125h0.1875c0.4375 0.20312 0.82812 0.40625 1.2188 0.625l0.14062 0.09375c0.34766 0.21094 0.67969 0.4375 1 0.6875l0.17188 0.14062c0.25781 0.21875 0.5 0.46094 0.71875 0.71875 0.12109 0.11719 0.23828 0.24219 0.34375 0.375 0 0-0.03125 0.42188-0.0625 0.5zm8.875-15.484c0-3.1602 1.9023-6.0078 4.8242-7.2188 2.918-1.207 6.2773-0.53906 8.5117 1.6953 2.2344 2.2344 2.9023 5.5938 1.6953 8.5117-1.2109 2.9219-4.0586 4.8242-7.2188 4.8242-4.3164 0-7.8125-3.4961-7.8125-7.8125zm21.875 35.938h-28.125v-17.734c0.003906-0.36328 0.042969-0.72266 0.125-1.0781l0.09375-0.29688c0.074219-0.26172 0.17578-0.51953 0.29688-0.76562 0.18359-0.36328 0.41016-0.70312 0.67188-1.0156 0.25-0.30469 0.52734-0.58594 0.82812-0.84375l0.28125-0.20312c0.20703-0.17188 0.42578-0.32812 0.65625-0.46875 0.1875-0.10938 0.35938-0.23438 0.54688-0.32812l0.25-0.14062c2.2891-1.1055 4.7617-1.7734 7.2969-1.9688h1.25 1.7656 1.7656 1.25c2.5352 0.19531 5.0078 0.86328 7.2969 1.9688l0.25 0.14062c0.1875 0.09375 0.35938 0.21875 0.54688 0.32812 0.23047 0.14062 0.44922 0.29688 0.65625 0.46875l0.28125 0.20312c0.30078 0.25781 0.57812 0.53906 0.82812 0.84375 0.26172 0.3125 0.48828 0.65234 0.67188 1.0156 0.12109 0.24609 0.22266 0.50391 0.29688 0.76562l0.09375 0.29688c0.082031 0.35547 0.12109 0.71484 0.125 1.0781zm7.8125-35.938c0-3.1602 1.9023-6.0078 4.8242-7.2188 2.918-1.207 6.2773-0.53906 8.5117 1.6953 2.2344 2.2344 2.9023 5.5938 1.6953 8.5117-1.2109 2.9219-4.0586 4.8242-7.2188 4.8242-4.3164 0-7.8125-3.4961-7.8125-7.8125zm21.875 35.938h-26.562v-17.734c0-0.45703-0.042969-0.91016-0.125-1.3594-0.035156-0.125-0.058594-0.25-0.078125-0.375-0.078125-0.33594-0.17578-0.66406-0.29688-0.98438v-0.21875c0.10547-0.13281 0.22266-0.25781 0.34375-0.375 0.21875-0.25781 0.46094-0.5 0.71875-0.71875l0.17188-0.14062c0.32031-0.25 0.65234-0.47656 1-0.6875l0.14062-0.09375c0.39062-0.21875 0.78125-0.42188 1.2188-0.625h0.1875c0.4375-0.1875 0.89062-0.35938 1.375-0.53125h0.26562c0.48438-0.14062 0.96875-0.28125 1.5625-0.40625h0.46875l1.4375-0.26562 0.89062-0.09375c0.375 0 0.75-0.09375 1.1562-0.10938h2.2031c6.7656 0 14.062 2.2656 14.062 7.2656z" fill="#ea5b0a"></path><path d="m81.25 25v-20.312c0-0.41406-0.16406-0.8125-0.45703-1.1055s-0.69141-0.45703-1.1055-0.45703h-59.375c-0.86328 0-1.5625 0.69922-1.5625 1.5625v7.8125h3.125v-6.25h56.25v18.75z" fill="#ea5b0a"></path><path d="m64.062 9.375h3.125v3.125h-3.125z" fill="#ea5b0a"></path><path d="m64.062 15.625h3.125v3.125h-3.125z" fill="#ea5b0a"></path><path d="m64.062 21.875h3.125v3.125h-3.125z" fill="#ea5b0a"></path><path d="m64.062 28.125h3.125v3.125h-3.125z" fill="#ea5b0a"></path><path d="m32.812 9.375h3.125v3.125h-3.125z" fill="#ea5b0a"></path><path d="m32.812 15.625h3.125v3.125h-3.125z" fill="#ea5b0a"></path><path d="m32.812 21.875h3.125v3.125h-3.125z" fill="#ea5b0a"></path><path d="m32.812 28.125h3.125v3.125h-3.125z" fill="#ea5b0a"></path><path d="m64.062 34.375h3.125v3.125h-3.125z" fill="#ea5b0a"></path><path d="m70.312 9.375h3.125v3.125h-3.125z" fill="#ea5b0a"></path><path d="m70.312 15.625h3.125v3.125h-3.125z" fill="#ea5b0a"></path><path d="m70.312 21.875h3.125v3.125h-3.125z" fill="#ea5b0a"></path><path d="m70.312 28.125h3.125v3.125h-3.125z" fill="#ea5b0a"></path><path d="m70.312 34.375h3.125v3.125h-3.125z" fill="#ea5b0a"></path><path d="m57.812 34.375h3.125v3.125h-3.125z" fill="#ea5b0a"></path><path d="m51.562 34.375h3.125v3.125h-3.125z" fill="#ea5b0a"></path><path d="m45.312 34.375h3.125v3.125h-3.125z" fill="#ea5b0a"></path><path d="m39.062 34.375h3.125v3.125h-3.125z" fill="#ea5b0a"></path><path d="m32.812 34.375h3.125v3.125h-3.125z" fill="#ea5b0a"></path><path d="m26.562 9.375h3.125v3.125h-3.125z" fill="#ea5b0a"></path><path d="m26.562 15.625h3.125v3.125h-3.125z" fill="#ea5b0a"></path><path d="m26.562 21.875h3.125v3.125h-3.125z" fill="#ea5b0a"></path><path d="m26.562 28.125h3.125v3.125h-3.125z" fill="#ea5b0a"></path><path d="m26.562 34.375h3.125v3.125h-3.125z" fill="#ea5b0a"></path><path d="m64.062 40.625h3.125v3.125h-3.125z" fill="#ea5b0a"></path><path d="m70.312 40.625h3.125v3.125h-3.125z" fill="#ea5b0a"></path><path d="m57.812 40.625h3.125v3.125h-3.125z" fill="#ea5b0a"></path><path d="m51.562 40.625h3.125v3.125h-3.125z" fill="#ea5b0a"></path><path d="m45.312 40.625h3.125v3.125h-3.125z" fill="#ea5b0a"></path><path d="m39.062 40.625h3.125v3.125h-3.125z" fill="#ea5b0a"></path><path d="m32.812 40.625h3.125v3.125h-3.125z" fill="#ea5b0a"></path><path d="m26.562 40.625h3.125v3.125h-3.125z" fill="#ea5b0a"></path><path d="m7.8125 15.625c-0.86328 0-1.5625 0.69922-1.5625 1.5625s0.69922 1.5625 1.5625 1.5625c2.5898 0 4.6875 2.0977 4.6875 4.6875 0 0.86328 0.69922 1.5625 1.5625 1.5625s1.5625-0.69922 1.5625-1.5625c0-2.5898 2.0977-4.6875 4.6875-4.6875 0.86328 0 1.5625-0.69922 1.5625-1.5625s-0.69922-1.5625-1.5625-1.5625c-2.5898 0-4.6875-2.0977-4.6875-4.6875 0-0.86328-0.69922-1.5625-1.5625-1.5625s-1.5625 0.69922-1.5625 1.5625c0 2.5898-2.0977 4.6875-4.6875 4.6875zm6.25 0c0.44922 0.58984 0.97266 1.1133 1.5625 1.5625-0.58984 0.44922-1.1133 0.97266-1.5625 1.5625-0.44922-0.58984-0.97266-1.1133-1.5625-1.5625 0.58984-0.44922 1.1133-0.97266 1.5625-1.5625z" fill="#ea5b0a"></path><path d="m81.25 31.25c2.5898 0 4.6875 2.0977 4.6875 4.6875 0 0.86328 0.69922 1.5625 1.5625 1.5625s1.5625-0.69922 1.5625-1.5625c0-2.5898 2.0977-4.6875 4.6875-4.6875 0.86328 0 1.5625-0.69922 1.5625-1.5625s-0.69922-1.5625-1.5625-1.5625c-2.5898 0-4.6875-2.0977-4.6875-4.6875 0-0.86328-0.69922-1.5625-1.5625-1.5625s-1.5625 0.69922-1.5625 1.5625c0 2.5898-2.0977 4.6875-4.6875 4.6875-0.86328 0-1.5625 0.69922-1.5625 1.5625s0.69922 1.5625 1.5625 1.5625zm6.25-3.125c0.44922 0.58984 0.97266 1.1133 1.5625 1.5625-0.58984 0.44922-1.1133 0.97266-1.5625 1.5625-0.44922-0.58984-0.97266-1.1133-1.5625-1.5625 0.58984-0.44922 1.1133-0.97266 1.5625-1.5625z" fill="#ea5b0a"></path></svg>