<svg xmlns="http://www.w3.org/2000/svg" width="100pt" height="100pt" viewBox="0 0 100 100"><path d="m88.855 43.234c-0.015625-0.035156-0.035157-0.066406-0.054688-0.10156-3.9727-6.4805-10.855-10.352-18.414-10.352h-0.007813c-7.5586 0-14.441 3.8672-18.414 10.352-0.019532 0.03125-0.039063 0.066407-0.054688 0.10156-3.082 6.1953-3.5508 12.16-1.3984 17.73 0.85938 2.2266 1.625 3.5195 2.2969 4.6602 0.98438 1.668 1.7617 2.9844 2.5938 6.8086 0.72266 3.3242 1.5195 5.7227 2.4414 7.2969-1.125 0.62891-1.8867 1.832-1.8867 3.2109 0 0.90234 0.32812 1.7305 0.87109 2.3711-0.54297 0.64062-0.87109 1.4688-0.87109 2.3711 0 2.0273 1.6484 3.6758 3.6758 3.6758h1.5273v1.0625c0 2.0273 1.6484 3.6758 3.6758 3.6758h10.867c2.0273 0 3.6758-1.6484 3.6758-3.6758v-1.0625h1.5273c2.0273 0 3.6758-1.6484 3.6758-3.6758 0-0.90234-0.32812-1.7305-0.87109-2.3711 0.54297-0.64062 0.87109-1.4648 0.87109-2.3711 0-1.3086-0.6875-2.4531-1.7188-3.1055 0.94531-1.5742 1.7617-4.0039 2.5-7.3984 0.83203-3.8242 1.6094-5.1406 2.5938-6.8086 0.67578-1.1406 1.4375-2.4336 2.2969-4.6602 2.1523-5.5742 1.6836-11.539-1.3984-17.734zm-21.707 18.059c-2.9453-1.2891-4.8477-4.1953-4.8477-7.4102 0-2.4883 1.1406-4.7891 3.0195-6.3008v4.3906c0 0.37109 0.16016 0.72656 0.43359 0.97266l3.0078 2.6953c0.92188 0.82812 2.3164 0.82812 3.2383 0l3.0078-2.6953c0.27734-0.24609 0.43359-0.60156 0.43359-0.97266v-4.3906c1.8789 1.5117 3.0195 3.8164 3.0195 6.3008 0 3.2148-1.9023 6.1211-4.8477 7.4102-0.47656 0.20703-0.78516 0.67969-0.78516 1.1953v16.773h-4.8984l0.003906-16.773c0-0.51953-0.30859-0.98828-0.78516-1.1953zm13.328 20.586c0.14453 0 0.28906-0.027344 0.42578-0.074218v0.074218c0.58594 0 1.0625 0.47656 1.0625 1.0625 0 0.58594-0.47656 1.0625-1.0625 1.0625h-21.273c-0.58594 0-1.0625-0.47656-1.0625-1.0625 0-0.58594 0.47656-1.0625 1.0625-1.0625v-0.17969c0.19922 0.11719 0.42578 0.17969 0.66016 0.17969zm-3.7148 10.539c0 0.58594-0.47656 1.0625-1.0625 1.0625l-10.867 0.003906c-0.58594 0-1.0625-0.47656-1.0625-1.0625v-1.0625h12.992zm4.1406-3.6758h-21.273c-0.58594 0-1.0625-0.47656-1.0625-1.0625 0-0.58594 0.47656-1.0625 1.0625-1.0625h21.277c0.58594 0 1.0625 0.47656 1.0625 1.0625 0 0.58594-0.47656 1.0625-1.0664 1.0625zm6.918-28.719c-0.78125 2.0234-1.457 3.168-2.1094 4.2734-1.0195 1.7227-1.9766 3.3477-2.8984 7.5859-1.125 5.1758-2.1914 6.8477-2.7617 7.3828h-4.6055v-15.957c3.4492-1.8516 5.6328-5.4609 5.6328-9.4219 0-4.2539-2.5195-8.1016-6.4141-9.8047-0.40234-0.17578-0.87109-0.13672-1.2383 0.10547-0.36719 0.24219-0.58984 0.65234-0.58984 1.0938v6.1133l-2.4492 2.1953-2.4492-2.1953v-6.1133c0-0.44141-0.22266-0.85156-0.58984-1.0938-0.36719-0.24219-0.83594-0.28125-1.2383-0.10547-3.8984 1.7031-6.4141 5.5508-6.4141 9.8047 0 3.9609 2.1836 7.5703 5.6328 9.4219v15.957h-4.6055c-0.57031-0.53906-1.6367-2.207-2.7617-7.3828-0.91797-4.2383-1.8789-5.8633-2.8984-7.5859-0.65234-1.1055-1.3281-2.25-2.1094-4.2734-1.8984-4.9102-1.4805-10.008 1.2773-15.574 3.5-5.6719 9.5352-9.0547 16.156-9.0547h0.007812c6.6211 0 12.656 3.3828 16.156 9.0547 2.7461 5.5664 3.1641 10.664 1.2695 15.574zm-54.031-46.984c-0.54297-0.42969-1.3125-0.44531-1.875-0.042968l-1.0977 0.79297c-0.55859-0.29687-1.1445-0.53906-1.75-0.72656l-0.21484-1.3359c-0.10937-0.68359-0.66797-1.2188-1.3555-1.2969-0.96094-0.11328-1.9297-0.11328-2.8906 0-0.6875 0.078124-1.2461 0.61328-1.3555 1.2969l-0.21484 1.3359c-0.60547 0.1875-1.1914 0.42969-1.75 0.72656l-1.0977-0.79297c-0.5625-0.40625-1.332-0.38672-1.875 0.042968-0.75781 0.60156-1.4453 1.2891-2.0469 2.0469-0.42969 0.54297-0.44531 1.3125-0.042969 1.875l0.79297 1.0977c-0.29688 0.55859-0.53906 1.1445-0.72656 1.75l-1.3359 0.21484c-0.68359 0.10937-1.2188 0.66797-1.2969 1.3555-0.11328 0.96094-0.11328 1.9336 0 2.8906 0.078125 0.6875 0.61328 1.2461 1.2969 1.3555l1.3359 0.21484c0.1875 0.60547 0.42969 1.1914 0.72656 1.75l-0.79297 1.0977c-0.40625 0.5625-0.38672 1.332 0.042969 1.875 0.60156 0.75781 1.2891 1.4453 2.0469 2.0469 0.54297 0.42969 1.3125 0.44531 1.875 0.039063l1.0977-0.79297c0.55859 0.29688 1.1445 0.53906 1.75 0.72656l0.21484 1.3359c0.10938 0.68359 0.66797 1.2148 1.3555 1.2969 0.48047 0.054687 0.96094 0.082031 1.4453 0.082031 0.48047 0 0.96484-0.027344 1.4453-0.082031 0.6875-0.078125 1.2461-0.61328 1.3555-1.2969l0.21484-1.3359c0.60547-0.1875 1.1914-0.42969 1.75-0.72656l1.0977 0.79297c0.55859 0.40625 1.332 0.38672 1.875-0.042969 0.75781-0.60156 1.4453-1.2891 2.0469-2.0469 0.42969-0.54297 0.44531-1.3125 0.042968-1.875l-0.79297-1.0977c0.29687-0.55859 0.53906-1.1445 0.72656-1.75l1.3359-0.21484c0.68359-0.10938 1.2148-0.66797 1.2969-1.3555 0.11328-0.96094 0.11328-1.9336 0-2.8906-0.078124-0.6875-0.61328-1.2461-1.2969-1.3555l-1.3359-0.21484c-0.1875-0.60547-0.42969-1.1914-0.72656-1.75l0.79297-1.0977c0.40625-0.5625 0.38672-1.332-0.042968-1.875-0.59766-0.75391-1.2891-1.4414-2.0469-2.043zm2.1211 9.4336c0.007813 0.23828 0.007813 0.47266 0 0.71094l-1.3555 0.21875c-0.53125 0.085937-0.95703 0.48828-1.0703 1.0195-0.19141 0.90625-0.54688 1.7617-1.0508 2.5391-0.29297 0.45312-0.27734 1.0391 0.035156 1.4766l0.80469 1.1133c-0.16016 0.17578-0.32813 0.33984-0.50391 0.50391l-1.1133-0.80469c-0.4375-0.31641-1.0234-0.33203-1.4766-0.035156-0.77734 0.50391-1.6328 0.85938-2.5391 1.0508-0.52734 0.11328-0.92969 0.53906-1.0195 1.0703l-0.21875 1.3555c-0.23828 0.007813-0.47266 0.007813-0.71094 0l-0.21875-1.3555c-0.085937-0.53125-0.48828-0.95703-1.0195-1.0703-0.90625-0.19141-1.7617-0.54688-2.5391-1.0508-0.45312-0.29297-1.0391-0.27734-1.4766 0.035156l-1.1133 0.80469c-0.17578-0.16016-0.33984-0.32813-0.50391-0.50391l0.80469-1.1133c0.31641-0.4375 0.33203-1.0234 0.035156-1.4766-0.50391-0.77734-0.85938-1.6328-1.0508-2.5391-0.11328-0.52734-0.53906-0.92969-1.0703-1.0195l-1.3555-0.21875c-0.007813-0.23828-0.007813-0.47266 0-0.71094l1.3555-0.21875c0.53125-0.085937 0.95703-0.48828 1.0703-1.0195 0.19141-0.90625 0.54688-1.7617 1.0508-2.5391 0.29297-0.45312 0.27734-1.0391-0.035156-1.4766l-0.80469-1.1133c0.16016-0.17578 0.32813-0.33984 0.50391-0.50391l1.1133 0.80469c0.4375 0.31641 1.0234 0.33203 1.4766 0.035156 0.77734-0.50391 1.6328-0.85938 2.5391-1.0508 0.52734-0.11328 0.92969-0.53906 1.0195-1.0703l0.21875-1.3555c0.23828-0.007813 0.47266-0.007813 0.71094 0l0.21875 1.3555c0.085937 0.53125 0.49219 0.95703 1.0195 1.0703 0.90625 0.19141 1.7578 0.54688 2.5391 1.0508 0.45312 0.29297 1.0391 0.27734 1.4766-0.035156l1.1133-0.80469c0.17188 0.16016 0.33984 0.32813 0.50391 0.50391l-0.80469 1.1133c-0.31641 0.4375-0.33203 1.0234-0.035156 1.4766 0.50391 0.77734 0.85938 1.6328 1.0508 2.5391 0.11328 0.52734 0.53906 0.92969 1.0703 1.0195zm-9.8594-6.3281c-3.6836 0-6.6797 2.9961-6.6797 6.6797 0 3.6836 2.9961 6.6797 6.6797 6.6797 3.6836 0 6.6797-2.9961 6.6797-6.6797 0-3.6836-2.9961-6.6797-6.6797-6.6797zm0 10.75c-2.2422 0-4.0664-1.8242-4.0664-4.0664s1.8242-4.0664 4.0664-4.0664c2.2422 0 4.0664 1.8242 4.0664 4.0664s-1.8242 4.0664-4.0664 4.0664zm-17.633-4.0703c0-9.7227 7.9102-17.633 17.633-17.633h0.023438c2.0859 0 4.1602 0.37891 6.1133 1.1016l-0.16406-0.83203c-0.13672-0.70703 0.32422-1.3945 1.0312-1.5352 0.70703-0.13672 1.3945 0.32422 1.5352 1.0312l0.65234 3.3281v0.007813c0.003906 0.027343 0.007812 0.054687 0.011718 0.082031 0.003906 0.015625 0.003906 0.03125 0.007813 0.046875 0.003906 0.027344 0.003906 0.054687 0.003906 0.082031 0 0.054688 0 0.10547-0.003906 0.16016v0.011719c-0.003907 0.035157-0.011719 0.074219-0.015625 0.10938 0 0.007813-0.003906 0.011719-0.003906 0.019532-0.019532 0.085937-0.042969 0.16797-0.078126 0.24609-0.003906 0.007813-0.007812 0.015625-0.011718 0.023438-0.015625 0.03125-0.027344 0.066406-0.046875 0.09375 0 0.003906 0 0.003906-0.003907 0.003906-0.007812 0.011719-0.011718 0.023437-0.019531 0.03125-0.015625 0.023437-0.027343 0.046875-0.042969 0.070313-0.011718 0.015624-0.023437 0.03125-0.035156 0.046874-0.011718 0.019532-0.027344 0.035157-0.042968 0.054688-0.011719 0.015625-0.027344 0.03125-0.042969 0.046875s-0.027344 0.03125-0.042969 0.046875-0.03125 0.027344-0.042969 0.042969c-0.015625 0.015625-0.035156 0.03125-0.050781 0.042969-0.015625 0.011718-0.027344 0.023437-0.042969 0.03125-0.019531 0.015624-0.039062 0.027343-0.058593 0.042968-0.011719 0.007813-0.027344 0.015625-0.039063 0.023438-0.023437 0.011718-0.046875 0.027344-0.070313 0.039062-0.011718 0.007813-0.027343 0.011719-0.039062 0.019532-0.023438 0.011718-0.050781 0.023437-0.078125 0.035156-0.011719 0.003906-0.027344 0.011718-0.042969 0.015625-0.027344 0.007812-0.050781 0.019531-0.078125 0.027343-0.019531 0.003907-0.035156 0.007813-0.050781 0.011719-0.019531 0.003907-0.042969 0.011719-0.0625 0.015625l-3.3281 0.65234c-0.085937 0.015625-0.16797 0.023438-0.25391 0.023438-0.61328 0-1.1602-0.43359-1.2812-1.0547-0.085938-0.44922 0.066406-0.88672 0.36719-1.1836-1.1875-0.29688-2.4102-0.45312-3.6406-0.45312h-0.019531c-8.2852 0-15.02 6.7383-15.02 15.02s6.7383 15.02 15.02 15.02c0.72266 0 1.3047 0.58594 1.3047 1.3047 0 0.72266-0.58594 1.3047-1.3047 1.3047-9.7344 0.007812-17.645-7.9023-17.645-17.625zm29.75 11.023c0.49219 0.52734 0.46484 1.3516-0.058594 1.8477-1.3789 1.293-2.9453 2.3477-4.6602 3.1406-0.17578 0.082031-0.36328 0.12109-0.54688 0.12109-0.49219 0-0.96484-0.28125-1.1875-0.75781-0.30469-0.65625-0.019532-1.4297 0.63672-1.7344 1.4609-0.67578 2.793-1.5742 3.9688-2.6758 0.52734-0.49609 1.3555-0.46875 1.8477 0.058594zm4.2305-12.039c0.72266 0.011718 1.2969 0.60938 1.2852 1.3281-0.019532 1.1328-0.15234 2.2695-0.38672 3.3789-0.15625 0.72656-0.35938 1.4492-0.60547 2.1523-0.1875 0.53906-0.69531 0.875-1.2305 0.875-0.14453 0-0.28906-0.023438-0.43359-0.074219-0.67969-0.23828-1.0391-0.98438-0.80078-1.6641 0.21094-0.59766 0.38281-1.2148 0.51563-1.832 0.20312-0.94531 0.3125-1.9141 0.33203-2.8789 0.007812-0.72266 0.60547-1.3008 1.3242-1.2852zm-5.6992-9.5703c-0.50781-0.51172-0.50781-1.3398 0.003906-1.8477s1.3398-0.50781 1.8477 0.003906c1.332 1.3398 2.4336 2.875 3.2773 4.5664 0.32031 0.64453 0.058594 1.4297-0.58594 1.7539-0.1875 0.09375-0.38672 0.13672-0.58203 0.13672-0.48047 0-0.94141-0.26562-1.168-0.72266-0.71875-1.4414-1.6562-2.75-2.793-3.8906zm-9.2031 62.406c0.6875-0.078125 1.2461-0.61328 1.3555-1.2969l0.21484-1.3359c0.60547-0.1875 1.1914-0.42969 1.75-0.72656l1.0977 0.79297c0.5625 0.40625 1.332 0.38672 1.875-0.042969 0.75781-0.60156 1.4453-1.2891 2.0469-2.0469 0.42969-0.54297 0.44531-1.3125 0.042968-1.875l-0.79297-1.0977c0.29687-0.55859 0.53906-1.1445 0.72656-1.75l1.3359-0.21484c0.68359-0.10938 1.2148-0.66797 1.2969-1.3555 0.11328-0.96094 0.11328-1.9336 0-2.8906-0.078124-0.6875-0.61328-1.2461-1.2969-1.3555l-1.3359-0.21484c-0.1875-0.60547-0.42969-1.1914-0.72656-1.75l0.79297-1.0977c0.40625-0.5625 0.38672-1.332-0.042968-1.875-0.60156-0.75781-1.2891-1.4453-2.043-2.043-0.54297-0.42969-1.3164-0.44922-1.875-0.042969l-1.0977 0.79297c-0.55859-0.29688-1.1445-0.53906-1.75-0.72656l-0.21484-1.3359c-0.10938-0.68359-0.66797-1.2148-1.3555-1.2969-0.96094-0.10938-1.9297-0.10938-2.8906 0-0.6875 0.082031-1.2461 0.61328-1.3555 1.2969l-0.21484 1.3359c-0.60547 0.1875-1.1914 0.42969-1.75 0.72656l-1.0977-0.79297c-0.5625-0.40234-1.332-0.38672-1.875 0.042969-0.75781 0.60156-1.4453 1.2891-2.0469 2.0469-0.42969 0.54297-0.44531 1.3125-0.042969 1.875l0.79297 1.0977c-0.29688 0.55859-0.53906 1.1445-0.72656 1.75l-1.3359 0.21484c-0.68359 0.10938-1.2148 0.66797-1.2969 1.3555-0.10938 0.96094-0.10938 1.9297 0 2.8906 0.078125 0.6875 0.61328 1.2461 1.2969 1.3555l1.3359 0.21484c0.1875 0.60547 0.42969 1.1914 0.72656 1.75l-0.79297 1.0977c-0.40625 0.5625-0.38672 1.332 0.042969 1.875 0.60156 0.75781 1.2891 1.4453 2.0469 2.0469 0.54297 0.42969 1.3125 0.44531 1.875 0.042969l1.0977-0.79297c0.55859 0.29688 1.1445 0.53906 1.75 0.72656l0.21484 1.3359c0.10938 0.68359 0.66797 1.2188 1.3555 1.2969 0.48047 0.054687 0.96094 0.082031 1.4453 0.082031 0.48047-0.003907 0.96484-0.03125 1.4414-0.085938zm-2.0195-3.8906c-0.085937-0.53125-0.49219-0.95703-1.0195-1.0703-0.90625-0.19141-1.7617-0.54688-2.5391-1.0508-0.45312-0.29297-1.0391-0.27734-1.4766 0.035157l-1.1133 0.80469c-0.17578-0.16016-0.33984-0.32812-0.50391-0.50391l0.80469-1.1133c0.31641-0.4375 0.33203-1.0234 0.035156-1.4766-0.50391-0.77734-0.85937-1.6328-1.0508-2.5391-0.11328-0.52734-0.53906-0.92969-1.0703-1.0195l-1.3555-0.21875c-0.007812-0.23828-0.007812-0.47266 0-0.71094l1.3555-0.21875c0.53125-0.085937 0.95703-0.49219 1.0703-1.0195 0.19141-0.90625 0.54688-1.7578 1.0508-2.5391 0.29297-0.45312 0.27734-1.0391-0.035156-1.4766l-0.80469-1.1133c0.16016-0.17578 0.32812-0.33984 0.50391-0.50391l1.1133 0.80469c0.4375 0.31641 1.0234 0.33203 1.4766 0.035156 0.77734-0.50391 1.6328-0.85938 2.5391-1.0508 0.52734-0.11328 0.92969-0.53906 1.0195-1.0703l0.21875-1.3555c0.23828-0.007812 0.47266-0.007812 0.71094 0l0.21875 1.3555c0.085938 0.53125 0.48828 0.95703 1.0195 1.0703 0.90625 0.19141 1.7617 0.54688 2.5391 1.0508 0.45312 0.29297 1.0391 0.27734 1.4766-0.035156l1.1133-0.80469c0.17578 0.16016 0.33984 0.32812 0.50391 0.50391l-0.80469 1.1133c-0.31641 0.4375-0.33203 1.0234-0.035156 1.4766 0.50391 0.77734 0.85938 1.6328 1.0508 2.5391 0.11328 0.52734 0.53906 0.92969 1.0703 1.0195l1.3555 0.21875c0.007813 0.23828 0.007813 0.47266 0 0.71094l-1.3555 0.21875c-0.53125 0.085938-0.95703 0.49219-1.0703 1.0195-0.19141 0.90625-0.54688 1.7617-1.0508 2.5391-0.29297 0.45312-0.27734 1.0391 0.035156 1.4766l0.80469 1.1133c-0.16016 0.17578-0.32812 0.33984-0.50391 0.50391l-1.1133-0.80469c-0.4375-0.31641-1.0234-0.33203-1.4766-0.035157-0.77734 0.50391-1.6328 0.85938-2.5391 1.0508-0.52734 0.11328-0.92969 0.53906-1.0195 1.0703l-0.21875 1.3555c-0.23828 0.007813-0.47266 0.007813-0.71094 0zm7.2539-8.5c0-3.6836-2.9961-6.6797-6.6797-6.6797-3.6836 0-6.6797 2.9961-6.6797 6.6797s2.9961 6.6797 6.6797 6.6797c3.6836 0 6.6797-3 6.6797-6.6797zm-10.746 0c0-2.2422 1.8242-4.0664 4.0664-4.0664 2.2422 0 4.0664 1.8242 4.0664 4.0664 0 2.2422-1.8242 4.0664-4.0664 4.0664-2.2422 0-4.0664-1.8242-4.0664-4.0664zm21.699 0c0 9.7227-7.9102 17.633-17.633 17.633-0.72266 0-1.3047-0.58594-1.3047-1.3047 0-0.72266 0.58594-1.3047 1.3047-1.3047 8.2812 0 15.02-6.7383 15.02-15.02 0-8.2852-6.7383-15.027-15.02-15.027h-0.023437c-1.2305 0-2.457 0.15234-3.6445 0.45312 0.30469 0.29688 0.45703 0.73828 0.36719 1.1836-0.12109 0.62109-0.66797 1.0547-1.2812 1.0547-0.082031 0-0.16797-0.007813-0.25391-0.023437l-3.3281-0.65234c-0.015625-0.003906-0.03125-0.007813-0.046875-0.011719-0.023438-0.003906-0.046875-0.011719-0.070313-0.019531-0.023437-0.007813-0.042969-0.015625-0.066406-0.023438-0.019531-0.007812-0.039063-0.011718-0.054687-0.019531-0.023438-0.007813-0.042969-0.019531-0.066407-0.03125-0.015625-0.007813-0.03125-0.015625-0.050781-0.023437-0.019531-0.011719-0.042969-0.023438-0.0625-0.035157-0.015625-0.007812-0.03125-0.019531-0.050781-0.027343-0.019531-0.011719-0.035157-0.023438-0.054688-0.039063-0.015625-0.011719-0.035156-0.023437-0.050781-0.039063-0.015625-0.011718-0.03125-0.027343-0.046875-0.039062-0.015625-0.015625-0.035156-0.03125-0.050781-0.046875-0.011719-0.011719-0.027344-0.027344-0.039063-0.042969-0.015625-0.015625-0.03125-0.035156-0.046875-0.050781-0.011718-0.015625-0.027344-0.035156-0.039062-0.050781-0.011719-0.015625-0.023438-0.03125-0.035156-0.050782-0.015626-0.023437-0.03125-0.046874-0.046876-0.074218-0.007812-0.011719-0.011718-0.019532-0.019531-0.03125 0 0 0-0.003906-0.003906-0.003906-0.019531-0.03125-0.035156-0.066407-0.050781-0.10156-0.003906-0.003906-0.003906-0.011719-0.007813-0.015625-0.035156-0.078125-0.058593-0.16016-0.078125-0.24609 0-0.003906 0-0.007812-0.003906-0.011718-0.007812-0.039063-0.011719-0.078126-0.019531-0.11719v-0.007812c-0.003907-0.054688-0.007813-0.10938-0.003907-0.16406 0-0.027344 0-0.054687 0.003907-0.082031 0-0.015625 0.003906-0.027344 0.007812-0.042969 0.003907-0.027344 0.007813-0.054687 0.011719-0.085937v-0.007813l0.65234-3.3281c0.14062-0.70703 0.82422-1.168 1.5352-1.0312 0.70703 0.13672 1.168 0.82422 1.0312 1.5352l-0.16406 0.83203c1.9609-0.72656 4.043-1.1055 6.1367-1.1016 9.7383 0.011719 17.648 7.918 17.648 17.645zm-31.805 4.9766c0.23828 0.67969-0.11719 1.4258-0.80078 1.6641-0.14453 0.050781-0.28906 0.074219-0.43359 0.074219-0.53906 0-1.043-0.33594-1.2305-0.875-0.24609-0.69922-0.44922-1.4258-0.60547-2.1523-0.23828-1.1094-0.36719-2.2461-0.38672-3.3789-0.011719-0.72266 0.5625-1.3164 1.2852-1.3281 0.71484-0.011719 1.3164 0.5625 1.3281 1.2852 0.015625 0.96484 0.12891 1.9336 0.33203 2.8789 0.12891 0.61719 0.30469 1.2344 0.51172 1.832zm8.5039 10.391c-0.22266 0.47656-0.69141 0.75781-1.1875 0.75781-0.18359 0-0.37109-0.039062-0.54687-0.12109-1.7148-0.79297-3.2812-1.8516-4.6602-3.1406-0.52734-0.49219-0.55469-1.3203-0.058593-1.8477 0.49219-0.52734 1.3203-0.55078 1.8477-0.058593 1.1719 1.1016 2.5078 2 3.9688 2.6758 0.65625 0.30469 0.94141 1.082 0.63672 1.7344zm-4.9805-25.957c-1.1328 1.1406-2.0742 2.4492-2.7891 3.8867-0.22656 0.45703-0.69141 0.72266-1.1719 0.72266-0.19531 0-0.39453-0.042969-0.58203-0.13672-0.64453-0.32031-0.91016-1.1055-0.58594-1.7539 0.83984-1.6914 1.9453-3.2266 3.2773-4.5664 0.50781-0.51172 1.3359-0.51172 1.8477-0.003906 0.50781 0.51172 0.51172 1.3359 0.003906 1.8516z" fill="#ea5b0a"></path></svg>