<svg xmlns="http://www.w3.org/2000/svg" width="100pt" height="100pt" viewBox="0 0 100 100"><path d="m64.594 85.551-13.309-7.6836v-13.875l12.664 7.3086c0.39844 0.23047 0.89062 0.23047 1.2891 0l12.664-7.3086v13.875zm-29.188 0-13.305-7.6797v-13.875l12.66 7.3086c0.39844 0.23047 0.89062 0.23047 1.2891 0l12.66-7.3086v13.875zm0-30.727-12.02 6.9375 12.02 6.9375 12.016-6.9375zm14.594-18.762c10.961 0 19.965 8.5391 20.707 19.316l-5.4688-3.1562c-0.39844-0.23047-0.89062-0.23047-1.2891 0l-13.949 8.0547-13.949-8.0547c-0.39844-0.23047-0.89062-0.23047-1.2891 0l-5.4688 3.1562c0.74219-10.777 9.7461-19.316 20.707-19.316zm-9.6172-12.195c0-5.3047 4.3125-9.6172 9.6172-9.6172s9.6211 4.3164 9.6211 9.6172c0 5.3047-4.3125 9.6172-9.6211 9.6172-5.3047 0-9.6172-4.3125-9.6172-9.6172zm36.23 37.895-12.02-6.9375-12.02 6.9375 12.02 6.9375zm3.2188-1.1133-6.5-3.75c0-10.773-7.207-19.812-17.09-22.559 3.5586-2.1328 5.9492-6.0273 5.9492-10.469 0-6.7227-5.4688-12.195-12.195-12.195-6.7227 0-12.191 5.4688-12.191 12.195 0 4.4414 2.3867 8.3359 5.9492 10.469-9.8828 2.75-17.09 11.785-17.09 22.562l-6.4961 3.75c-0.39844 0.23047-0.64453 0.65625-0.64453 1.1172v16.852c0 0.46094 0.24609 0.88672 0.64453 1.1172l14.594 8.4258c0.39844 0.23047 0.89062 0.23047 1.2891 0l13.949-8.0547 13.949 8.0547c0.39453 0.22656 0.89062 0.23047 1.2891 0l14.594-8.4258c0.39844-0.23047 0.64453-0.65625 0.64453-1.1172v-16.852c0-0.46875-0.24609-0.89453-0.64453-1.1211z" fill="#ea5b0a" fill-rule="evenodd"></path></svg>