<svg xmlns="http://www.w3.org/2000/svg" width="100pt" height="100pt" viewBox="0 0 100 100"><path d="m89.445 62.555-13.047-7.5312v-14.957c0-0.39844-0.21094-0.76562-0.55469-0.96094l-13.602-7.8516h0.003906c-0.34375-0.19922-0.76953-0.19922-1.1133 0l-11.734 6.7773c-0.91016-0.30859-1.832-0.56641-2.7695-0.78125 5.5078-2.8633 8.3477-9.125 6.8711-15.156-1.4727-6.0352-6.8789-10.277-13.09-10.277-6.2109 0-11.617 4.2422-13.094 10.277-1.4727 6.0312 1.3633 12.293 6.875 15.156-0.43359 0.097656-0.86328 0.20703-1.2891 0.32422l-0.875-0.875v0.003906c-0.39453-0.39062-1.0156-0.43359-1.457-0.10156l-1.8906 1.4336c-0.60938-0.32422-1.2539-0.58984-1.9141-0.79297l-0.32422-2.3516v0.003906c-0.078125-0.55078-0.54688-0.96094-1.1016-0.96094h-3.4492c-0.55469 0-1.0234 0.41016-1.0977 0.96094l-0.32422 2.3516v-0.003906c-0.66406 0.20312-1.3047 0.46875-1.9141 0.79297l-1.8945-1.4336c-0.44141-0.33594-1.0625-0.29297-1.457 0.097657l-2.4336 2.4375c-0.39062 0.39453-0.43359 1.0156-0.097656 1.457l1.4336 1.8906h-0.003907c-0.32422 0.60938-0.58984 1.2539-0.79297 1.9141l-2.3516 0.32422h0.003907c-0.55078 0.078125-0.96094 0.54688-0.96094 1.1016v3.4453-0.003906c0 0.55469 0.41016 1.0273 0.96094 1.1016l2.3516 0.32422h-0.003906c0.20312 0.66016 0.46875 1.3047 0.79297 1.9141l-1.4297 1.8945c-0.33594 0.44141-0.29297 1.0664 0.097656 1.457l0.63672 0.63672c-0.80859 2.6523-1.2148 5.4062-1.2148 8.1797v4.3164c0 0.37891 0.19531 0.73438 0.51953 0.9375 6.2773 3.9531 13.324 6.5195 20.676 7.5312v1.6602c0 0.39844 0.21094 0.76562 0.55469 0.96094l13.602 7.8516c0.34375 0.19922 0.76562 0.19922 1.1094 0l13.039-7.5312 13.043 7.5312c0.34375 0.19531 0.76953 0.19531 1.1133 0l13.602-7.8516h-0.003907c0.34375-0.19922 0.55469-0.56641 0.55469-0.96094v-15.699c0-0.39844-0.21094-0.76562-0.55469-0.96484zm-14.152 7.5312-2.6641-1.5391 11.371-6.5703 2.668 1.5391zm-7.1133-32.844-11.379 6.5703-1.6016-0.92188 11.375-6.5664zm4.8906 2.8203-11.379 6.5703-2.6641-1.5391 11.371-6.5664zm-31.461 26.277 11.289-6.5156 1.6016 0.92188-11.293 6.5156zm32.57-11.316-11.379 6.5703v-13.035l11.379-6.5664zm-18.492-9.2891-0.027344 3.8984c-0.34766-0.39062-0.92578-0.48047-1.3789-0.21875l-0.18359 0.10938-0.003906-4.7109zm-3.8164-2.1992v7.918-0.003906c0 0.39844 0.21094 0.76562 0.55469 0.96484 0.34375 0.19531 0.76562 0.19531 1.1094 0l0.89062-0.51562 1.3555 2.3477c0.25 0.43359 0.76172 0.64453 1.2461 0.51953 0.48438-0.12891 0.82422-0.56641 0.82812-1.0664l0.046875-6.6836 2.6797 1.5469-0.003906 13.031-11.371-6.5703v-13.035zm-3.8633 13.465 2.6641 1.5391-11.285 6.5195-2.668-1.5391zm-5.918 12.184-0.027344 3.8984v0.003907c-0.34766-0.39063-0.92578-0.48438-1.3789-0.22266l-0.18359 0.10547-0.003906-4.707zm14.625-7.1562 2.6641 1.5391-11.277 6.5195-2.6641-1.5391zm-7.5078 9.9844 11.375-6.5664v13.133l-11.375 6.5664zm26.172-15.012 2.5781 1.4883-11.375 6.5703-2.582-1.4922zm6.3984 3.6992-11.379 6.5625-1.6016-0.92188 11.383-6.5664zm-12.492 8.4883-0.027344 3.8984 0.003907 0.003906c-0.35156-0.39062-0.92969-0.48047-1.3828-0.21875l-0.1875 0.10547v-4.7148zm-7.5938-35.688 2.668 1.5391-11.375 6.5664-2.668-1.5391zm-32.543-8.1992c0-4.5547 2.7422-8.6602 6.9492-10.402 4.207-1.7422 9.0469-0.78125 12.266 2.4414 3.2227 3.2188 4.1836 8.0586 2.4414 12.266-1.7422 4.207-5.8477 6.9492-10.398 6.9492-6.2148-0.007813-11.25-5.043-11.258-11.254zm-16.93 23 0.003906-1.5078 2.1211-0.29297c0.46094-0.0625 0.83203-0.40234 0.93359-0.85547 0.21484-0.9375 0.58594-1.8359 1.1016-2.6523 0.24609-0.39063 0.22266-0.89063-0.054687-1.2617l-1.293-1.707 1.0664-1.0664 1.7031 1.2969c0.36719 0.27734 0.87109 0.30078 1.2617 0.050782 0.81641-0.51172 1.7109-0.88672 2.6523-1.0977 0.44922-0.10156 0.79297-0.47266 0.85547-0.93359l0.29297-2.1211h1.5078l0.29297 2.1211h-0.003906c0.0625 0.46094 0.40234 0.83203 0.85547 0.93359 0.94141 0.21094 1.8359 0.58594 2.6523 1.0977 0.39062 0.24609 0.89453 0.22656 1.2617-0.050782l1.707-1.293 0.66406 0.66406 0.39844 0.40625-1.293 1.707-0.003906-0.007812c-0.27734 0.37109-0.30078 0.87109-0.050782 1.2617 0.51172 0.81641 0.88672 1.7148 1.0977 2.6523 0.10156 0.45312 0.47266 0.79297 0.93359 0.85547l2.1211 0.29297v1.5078l-2.1211 0.29297c-0.46094 0.0625-0.83203 0.40234-0.93359 0.85156-0.21094 0.94141-0.58594 1.8398-1.0977 2.6523-0.25 0.39062-0.22656 0.89453 0.050782 1.2656l1.2969 1.707-1.0664 1.0664-1.7031-1.2969c-0.37109-0.27734-0.87109-0.30078-1.2656-0.054688-0.8125 0.51562-1.7109 0.88672-2.6484 1.1016-0.45312 0.10156-0.79297 0.47266-0.85547 0.92969l-0.29297 2.1211-1.5078 0.003906-0.29297-2.1211v-0.003906c-0.0625-0.45703-0.40234-0.82812-0.85156-0.92969-0.94141-0.21484-1.8398-0.58594-2.6523-1.1016-0.39062-0.24609-0.89453-0.22266-1.2617 0.054688l-1.707 1.293-1.0664-1.0664 1.293-1.707v0.003906c0.27734-0.37109 0.30078-0.875 0.054688-1.2656-0.51562-0.8125-0.88672-1.7109-1.1016-2.6523-0.10156-0.44922-0.47266-0.78906-0.92969-0.85156zm2.1914 20.168v-3.6992h0.003906c0-2.1523 0.26953-4.293 0.80078-6.375 0.39062 0.38672 1.0078 0.42969 1.4492 0.09375l1.8906-1.4336v0.003906c0.60937 0.32422 1.25 0.58984 1.9141 0.78906l0.32422 2.3516c0.078125 0.55078 0.54688 0.96094 1.1016 0.96094h3.4453-0.003906c0.55469 0 1.0234-0.41016 1.1016-0.96094l0.32422-2.3516c0.66016-0.19922 1.3008-0.46484 1.9141-0.78906l1.8906 1.4336v-0.003907c0.44141 0.33594 1.0625 0.29297 1.457-0.097656l2.4336-2.4336v-0.003906c0.39453-0.39062 0.4375-1.0156 0.10156-1.457l-1.4336-1.8906c0.32422-0.60938 0.58984-1.25 0.79297-1.9141l2.3516-0.32422c0.54688-0.074219 0.95703-0.54297 0.95703-1.0977v-3.4453c0-0.55469-0.41016-1.0234-0.95703-1.1016l-2.3516-0.32422v0.003906c-0.20312-0.66406-0.46484-1.3047-0.79297-1.918l1.4336-1.8906c0.25391-0.33984 0.29297-0.79297 0.097656-1.1719 4.0938-0.92969 8.3516-0.85156 12.406 0.22656-0.054688 0.13281-0.082031 0.27344-0.082031 0.41797v14.957l-13.043 7.5312c-0.34375 0.19922-0.55469 0.56641-0.55469 0.96094v11.801c-6.7266-0.94922-13.188-3.2773-18.969-6.8477zm21.195-3.0273 2.6641 1.5391v7.918h0.003907c0 0.39453 0.21094 0.76172 0.55469 0.96094s0.76562 0.19922 1.1094 0l0.89062-0.51172 1.3555 2.3477v-0.003906c0.25 0.4375 0.76172 0.64844 1.2461 0.51953 0.48437-0.12891 0.82422-0.56641 0.82812-1.0664l0.046876-6.6836 2.6797 1.5469-0.003906 13.137-11.371-6.5664zm27.199 0 2.6641 1.5391v7.918h0.003906c0 0.39453 0.21094 0.76172 0.55469 0.96094s0.76953 0.19922 1.1133 0l0.89062-0.51172 1.3555 2.3477-0.003907-0.003906c0.25391 0.4375 0.76172 0.64844 1.2461 0.51953 0.48438-0.12891 0.82422-0.56641 0.82812-1.0664l0.046875-6.6836 2.6797 1.5469v13.137l-11.383-6.5664zm13.602 19.699v-13.129l11.375-6.5664 0.003906 13.133zm-52.793-32.277c2.5391 0 4.7227-1.793 5.2148-4.2812 0.49219-2.4922-0.83984-4.9805-3.1836-5.9531-2.3477-0.96875-5.0508-0.14453-6.457 1.9648-1.4102 2.1094-1.1328 4.9219 0.66406 6.7148 0.99609 1 2.3516 1.5586 3.7617 1.5547zm-2.1914-7.5117v0.003907c0.88672-0.88672 2.2188-1.1523 3.3789-0.67188 1.1602 0.47656 1.9141 1.6094 1.9141 2.8633s-0.75391 2.3828-1.9141 2.8633c-1.1602 0.48047-2.4922 0.21484-3.3789-0.67188-0.58203-0.58203-0.91016-1.3711-0.91016-2.1914 0-0.82422 0.32812-1.6133 0.91016-2.1914z" fill="#ea5b0a"></path></svg>