<svg xmlns="http://www.w3.org/2000/svg" width="100pt" height="100pt" viewBox="0 0 100 100"><path d="m86.309 27.75h-11.094v-11.098c0-3.6875-3-6.6875-6.6875-6.6875h-37.055c-3.6875 0-6.6875 3-6.6875 6.6875v11.098h-11.094c-3.6914 0-6.6914 3-6.6914 6.6914v12.598c0 0.82813 0.67188 1.5 1.5 1.5h4.4297v34.809c0 3.6914 3 6.6914 6.6914 6.6914h60.762c3.6914 0 6.6914-3 6.6914-6.6914v-34.809h4.4297c0.82812 0 1.5-0.67187 1.5-1.5v-12.598c0-3.6914-3-6.6914-6.6914-6.6914zm-58.523-11.098c0-2.0312 1.6562-3.6875 3.6875-3.6875h37.051c2.0312 0 3.6875 1.6562 3.6875 3.6875v11.098h-2.9258v-10.355c0-0.82812-0.67188-1.5-1.5-1.5h-35.574c-0.82813 0-1.5 0.67188-1.5 1.5v10.355h-2.9258zm5.9297 11.098v-8.8555h32.574v8.8555zm-17.785 55.598v-34.809h3.082c0.53516 2.8359 2.9453 5.2305 5.7734 5.7656v32.734h-5.1641c-2.0352 0-3.6914-1.6562-3.6914-3.6914zm50.512-34.809c0.52734 2.8281 2.9453 5.2383 5.7734 5.7695v32.73h-44.43v-32.73c2.8906-0.59375 5.1758-2.875 5.7695-5.7695zm11.699-1.5c0 2.4375-1.9883 4.418-4.4297 4.418-2.3789 0.046875-4.4727-2.0352-4.418-4.418v-4.4297h8.8477zm-47.43 0c0 2.4375-1.9805 4.418-4.418 4.418-2.3789 0.046875-4.4766-2.0273-4.4297-4.418v-4.4297h8.8477zm53.359 36.309c0 2.0352-1.6562 3.6914-3.6914 3.6914h-5.1641v-32.734c2.8945-0.59766 5.1758-2.8789 5.7734-5.7656h3.082zm5.9297-37.809h-8.8594v-4.4297c0-0.82812-0.67188-1.5-1.5-1.5h-11.848c-0.82812 0-1.5 0.67188-1.5 1.5v4.4297h-32.582v-4.4297c0-0.82812-0.67188-1.5-1.5-1.5h-11.848c-0.82812 0-1.5 0.67188-1.5 1.5v4.4297h-8.8594v-11.098c0-2.0352 1.6562-3.6914 3.6914-3.6914h72.617c2.0352 0 3.6914 1.6562 3.6914 3.6914v11.098z" fill="#ea5b0a"></path><path d="m50 74.684c3.8047 0 6.9023-3.0938 6.9023-6.8984 0-3.8047-3.0938-6.9023-6.9023-6.9023-3.8047 0-6.8984 3.0938-6.8984 6.9023 0 3.8047 3.0938 6.8984 6.8984 6.8984zm0-10.797c2.1523 0 3.9023 1.75 3.9023 3.9023 0 2.1523-1.75 3.8984-3.9023 3.8984s-3.8984-1.75-3.8984-3.8984c0-2.1523 1.75-3.9023 3.8984-3.9023z" fill="#ea5b0a"></path><path d="m36.5 71.535h1.3125c0.23438 0.76562 0.54297 1.5039 0.91797 2.2148l-0.92969 0.92969c-0.28125 0.28125-0.44141 0.66406-0.44141 1.0586 0 0.39844 0.15625 0.78125 0.44141 1.0625l3.1836 3.1797c0.58594 0.58594 1.5352 0.58594 2.1211 0l0.92969-0.92969c0.71094 0.37891 1.4531 0.68359 2.2148 0.92188v1.3125c0 0.82812 0.67188 1.5 1.5 1.5h4.5c0.82812 0 1.5-0.67188 1.5-1.5v-1.3125c0.76562-0.23438 1.5078-0.54297 2.2148-0.92188l0.92969 0.92969c0.5625 0.5625 1.5586 0.5625 2.1211 0l3.1797-3.1797c0.58594-0.58594 0.58594-1.5352 0-2.1211l-0.92969-0.92969c0.37891-0.71094 0.68359-1.4531 0.91797-2.2148h1.3086c0.82812 0 1.5-0.67188 1.5-1.5v-4.5c0-0.82812-0.67188-1.5-1.5-1.5h-1.3125c-0.23438-0.76562-0.54297-1.5078-0.92188-2.2148l0.92969-0.92969c0.28125-0.28125 0.44141-0.66016 0.44141-1.0586 0-0.39844-0.15625-0.78125-0.44141-1.0586l-3.1836-3.1797c-0.58594-0.58594-1.5352-0.58594-2.1211 0l-0.92969 0.92969c-0.71094-0.37891-1.4492-0.68359-2.2148-0.91797v-1.3125c0-0.82812-0.67188-1.5-1.5-1.5h-4.5c-0.82812 0-1.5 0.67188-1.5 1.5v1.3125c-0.76562 0.23438-1.5039 0.54297-2.2148 0.91797l-0.92969-0.92969c-0.28125-0.28125-0.66016-0.44141-1.0586-0.44141-0.39844 0-0.78125 0.15625-1.0586 0.44141l-3.1836 3.1836c-0.28125 0.28125-0.44141 0.66406-0.44141 1.0586 0 0.39844 0.15625 0.78125 0.44141 1.0586l0.92969 0.92969c-0.37891 0.71094-0.68359 1.4492-0.91797 2.2148h-1.3125c-0.39844 0-0.78125 0.15625-1.0586 0.44141-0.28125 0.28125-0.44141 0.66406-0.44141 1.0586v4.5c0 0.82813 0.67187 1.5 1.5 1.5zm2.4766-4.5c0.71484 0 1.3281-0.50391 1.4688-1.2031 0.24609-1.2148 0.72266-2.3672 1.4219-3.4219 0.39453-0.59375 0.3125-1.3828-0.19141-1.8867l-0.69141-0.69141 1.0625-1.0625 0.69141 0.69531c0.50391 0.50391 1.293 0.58203 1.8906 0.19141 1.0508-0.69531 2.2031-1.1758 3.4219-1.4219 0.69922-0.14062 1.2031-0.75781 1.2031-1.4688v-0.97656h1.5v0.97656c0 0.71484 0.50391 1.3281 1.2031 1.4688 1.2188 0.24609 2.3672 0.72656 3.418 1.4219 0.59375 0.39453 1.3867 0.3125 1.8906-0.19141l0.69531-0.69531 1.0586 1.0586-0.69141 0.69141c-0.50391 0.50391-0.58594 1.293-0.19141 1.8906 0.69531 1.0508 1.1719 2.2031 1.4219 3.4219 0.14453 0.69922 0.75781 1.1992 1.4688 1.1992h0.97266v1.5h-0.97266c-0.71484 0-1.3281 0.50391-1.4688 1.2031-0.24609 1.2188-0.72656 2.3711-1.4219 3.4219-0.39453 0.59375-0.3125 1.3828 0.19141 1.8867l0.69141 0.69141-1.0586 1.0586-0.69531-0.69531c-0.50391-0.50391-1.293-0.58594-1.8906-0.19141-1.0508 0.69531-2.2031 1.1758-3.4219 1.4219-0.69922 0.14062-1.2031 0.75781-1.2031 1.4688v0.97656h-1.5v-0.97656c0-0.71484-0.50391-1.3281-1.2031-1.4688-1.2188-0.24609-2.3672-0.72656-3.4219-1.4219-0.59766-0.39453-1.3867-0.31641-1.8906 0.19141l-0.69141 0.69141-1.0625-1.0586 0.69531-0.69531c0.50391-0.50391 0.58594-1.293 0.19141-1.8906-0.69531-1.0508-1.1719-2.2031-1.418-3.418-0.14062-0.69922-0.75781-1.2031-1.4688-1.2031h-0.97656v-1.5h0.97656z" fill="#ea5b0a"></path></svg>