<svg xmlns="http://www.w3.org/2000/svg" width="100pt" height="100pt" viewBox="0 0 100 100"><path d="m14.84 55.473-3.2188 7.9414 8.5352-3.457 0.82422 0.61328c5.1914 3.8594 11.496 5.5625 17.668 5.1055 6.0742-0.44922 12.027-3 16.676-7.6484 5.1445-5.1445 7.7188-11.895 7.7188-18.645 0-6.7461-2.5742-13.496-7.7188-18.645-5.1484-5.1484-11.895-7.7227-18.645-7.7227-6.7461 0-13.496 2.5742-18.641 7.7188-4.4648 4.4648-6.9961 10.121-7.5859 15.922-0.60547 5.918 0.79688 11.996 4.207 17.117l0.53516 0.80078-0.36328 0.89453zm9.3242-17.938h10.699v-10.699h3.668v10.699h10.699v3.668h-10.699v10.699h-3.668v-10.699h-10.699zm41.066-7.5c3.3672 0.21484 6.707 0.99219 9.8516 2.3281 3.4336 1.4609 6.6562 3.5938 9.4648 6.4023 5.0781 5.0703 7.957 11.523 8.6328 18.152 0.65625 6.4258-0.76953 13.012-4.2656 18.672l6.0898 15.062-14.652-5.9258c-5.75 3.9727-12.574 5.707-19.258 5.2148-6.9219-0.51172-13.707-3.4141-19.004-8.7109-1.8672-1.8672-3.4336-3.918-4.707-6.0938-1.082-1.8438-1.9531-3.7891-2.6055-5.793-5.3125-0.33594-10.555-2.082-15.121-5.2344l-14.652 5.9219 4.043-10 2.0469-5.0586c-3.5-5.6602-4.9219-12.25-4.2656-18.672 0.67578-6.6289 3.5547-13.082 8.6289-18.152 5.8633-5.8633 13.551-8.7969 21.234-8.7969s15.371 2.9336 21.23 8.7969c3.457 3.457 5.8945 7.5469 7.3164 11.895zm-26.582 39.305c0.51172 1.3516 1.1406 2.6719 1.8867 3.9492 1.1094 1.9102 2.4883 3.7109 4.1289 5.3516 4.6484 4.6523 10.602 7.1992 16.684 7.6484 6.1719 0.45703 12.477-1.2461 17.668-5.1055l0.82422-0.61719 8.5391 3.4609-3.582-8.8359 0.53516-0.80078c3.4102-5.125 4.8125-11.203 4.207-17.117-0.58984-5.8008-3.1211-11.461-7.582-15.922-2.457-2.4648-5.2891-4.3398-8.3086-5.625-2.3945-1.0195-4.9141-1.668-7.457-1.9453 0.34766 1.8477 0.52344 3.7227 0.52344 5.5938 0 7.6836-2.9336 15.371-8.7969 21.234-5.293 5.293-12.082 8.1992-19.012 8.7109l-0.26172 0.019532z" fill="#ea5b0a"></path></svg>