<svg xmlns="http://www.w3.org/2000/svg" width="100pt" height="100pt" viewBox="0 0 100 100"><path d="m61.641 67.621c0 4.6172 3.7422 8.3594 8.3594 8.3594s8.3594-3.7422 8.3594-8.3594c0-4.6172-3.7422-8.3594-8.3594-8.3594s-8.3594 3.7422-8.3594 8.3594zm13.77 0c0 2.9844-2.4258 5.4102-5.4102 5.4102s-5.4102-2.4258-5.4102-5.4102 2.4258-5.4102 5.4102-5.4102 5.4102 2.4297 5.4102 5.4102z" fill="#ea5b0a"></path><path d="m21.637 67.621c0 4.6172 3.7422 8.3594 8.3594 8.3594 4.6172 0 8.3594-3.7422 8.3594-8.3594 0-4.6172-3.7422-8.3594-8.3594-8.3594-4.6133 0-8.3594 3.7422-8.3594 8.3594zm13.773 0c0 2.9844-2.4258 5.4102-5.4102 5.4102s-5.4102-2.4258-5.4102-5.4102 2.4258-5.4102 5.4102-5.4102c2.9805 0 5.4102 2.4297 5.4102 5.4102z" fill="#ea5b0a"></path><path d="m72.711 78.934h-5.4219c-1.3086 0-2.5703 0.19531-3.7695 0.53906-2.7969-2.2812-6.3633-3.6562-10.242-3.6562h-6.5586c-3.8828 0-7.4453 1.3711-10.242 3.6562-1.1992-0.34375-2.4609-0.53906-3.7695-0.53906h-5.4219c-7.5391 0-13.672 6.1328-13.672 13.672v2.168c0 0.078124 0.011719 0.15234 0.011719 0.22656h2.9492c-0.003907-0.074219-0.011719-0.15234-0.011719-0.22656v-2.168c0-5.9102 4.8086-10.719 10.719-10.719h5.4219c0.44531 0 0.88281 0.035156 1.3125 0.089843-2.2031 2.7695-3.5312 6.2695-3.5312 10.074v2.6211c0 0.10938 0.015625 0.21875 0.015625 0.32812h2.9492c-0.003907-0.10938-0.015625-0.21875-0.015625-0.32812v-2.6211c0-7.3242 5.957-13.277 13.277-13.277h6.5586c7.3242 0 13.277 5.957 13.277 13.277v2.6211c0 0.10938-0.015625 0.21875-0.015625 0.32812h2.9492c0.003906-0.10938 0.015625-0.21875 0.015625-0.32812v-2.6211c0-3.8086-1.3281-7.3047-3.5312-10.074 0.42969-0.054687 0.86719-0.089843 1.3125-0.089843h5.4219c5.9102 0 10.719 4.8086 10.719 10.719v2.168c0 0.078124-0.011719 0.15234-0.011719 0.22656h2.9492c0-0.078125 0.011719-0.15234 0.011719-0.22656v-2.168c0.015624-7.5391-6.1172-13.672-13.656-13.672z" fill="#ea5b0a"></path><path d="m41.641 65.656c0 4.6172 3.7422 8.3594 8.3594 8.3594s8.3594-3.7422 8.3594-8.3594-3.7422-8.3594-8.3594-8.3594c-4.6172-0.003906-8.3594 3.7383-8.3594 8.3594zm13.77 0c0 2.9844-2.4258 5.4102-5.4102 5.4102s-5.4102-2.4258-5.4102-5.4102 2.4258-5.4102 5.4102-5.4102c2.9844-0.003906 5.4102 2.4258 5.4102 5.4102z" fill="#ea5b0a"></path><path d="m79.879 5h-44.422v11.035h-14.355v42.746l10.848-6.8359h33.574v-11.035h3.5078l10.848 6.8359zm-17.305 43.996h-31.477l-7.043 4.4375-0.003907-34.449h38.523zm14.355-6.5977-7.043-4.4375h-4.3594l-0.003906-21.926h-27.117v-8.0859h38.523z" fill="#ea5b0a"></path></svg>