<svg xmlns="http://www.w3.org/2000/svg" width="100pt" height="100pt" viewBox="0 0 100 100"><path d="m90.102 34.699c0.007813-0.019531 0.015626-0.039063 0.023438-0.0625 0.007812-0.019531 0.011719-0.027344 0.015625-0.042969s0.011719-0.035156 0.015625-0.050781 0.011719-0.039063 0.015625-0.054688c0.003906-0.019531 0-0.027343 0.007813-0.042969 0.007812-0.015624 0.007812-0.042968 0.011718-0.066406v-0.22266c0-0.023438 0-0.035156-0.007812-0.054688-0.007813-0.019531 0-0.035156-0.007813-0.054687-0.007812-0.019531-0.007812-0.039063-0.011719-0.058594l-0.011718-0.042969c-0.007813-0.019531-0.011719-0.042968-0.019532-0.0625l-0.015624-0.039062c-0.007813-0.019531-0.015626-0.039062-0.023438-0.058594l-0.019531-0.042968-0.027344-0.050782-0.027344-0.046875c-0.007812-0.015625-0.019531-0.027343-0.027343-0.039062h-0.007813c-0.011719-0.015625-0.023437-0.03125-0.035156-0.046875l-0.027344-0.035156-0.042969-0.046876-0.035156-0.03125c-0.015625-0.015624-0.027344-0.027343-0.042969-0.039062l-0.042969-0.035156-0.039062-0.03125-0.058594-0.035156-0.023437-0.015626-0.011719-0.003906v-0.003906c-0.023438-0.011719-0.042969-0.023438-0.066406-0.035156l-0.035156-0.015625-0.066407-0.023438-0.039062-0.015625-0.058594-0.015625-0.050781-0.015625-0.046875-0.007812-0.0625-0.011719h-0.11328l-13.668 0.003906c-0.046875-0.51953-0.44531-0.94141-0.96094-1.0117l-2.9609-0.40625c-0.25391-0.87891-0.60156-1.7266-1.043-2.5273l1.8047-2.3828h0.003907c0.33594-0.44141 0.29297-1.0664-0.10156-1.4609l-2.9258-2.9258c-0.39453-0.39453-1.0195-0.4375-1.4648-0.10156l-2.3828 1.8008h0.003906c-0.80078-0.4375-1.6445-0.78516-2.5195-1.043l-0.40625-2.9609c-0.078125-0.55078-0.54688-0.96484-1.1055-0.96484h-4.1367c-0.55859 0-1.0312 0.41406-1.1055 0.96484l-0.40625 2.9609c-0.875 0.25781-1.7188 0.60547-2.5195 1.043l-2.3828-1.8008c-0.44141-0.33594-1.0664-0.29297-1.4609 0.10156l-2.9258 2.9258c-0.39453 0.39453-0.4375 1.0195-0.10156 1.4609l1.8047 2.3828c-0.4375 0.80078-0.78516 1.6445-1.043 2.5156l-2.9609 0.40625v0.003906c-0.51562 0.070312-0.91406 0.48828-0.95703 1.0078h-13.02l-2.6016-4.5-0.019531-0.027343c-0.011719-0.019531-0.023438-0.035157-0.035157-0.054688-0.011719-0.015625-0.019531-0.027343-0.03125-0.042969l-0.03125-0.042968-0.039062-0.046875-0.027344-0.019531-0.046875-0.042969-0.035156-0.027344-0.050782-0.035156-0.039062-0.027344-0.046875-0.027344-0.050781-0.027343-0.042969-0.019532-0.097656-0.039062-0.0625-0.019532-0.042969-0.011718c-0.019531 0-0.039062-0.011719-0.0625-0.011719l-0.050781-0.007813-0.054688-0.007812h-0.0625l-15.691-0.003906c-0.61719-0.003906-1.1172 0.49609-1.1211 1.1094v4.2305c0 0.61719 0.5 1.1172 1.1133 1.1172h12.586l11.074 19.188c-5.4062 1.543-8.8516 6.832-8.0703 12.398 0.77734 5.5664 5.5391 9.7109 11.16 9.7109h3.1914c1.293 3.0273 4.2656 4.9883 7.5547 4.9883 3.2891 0 6.2617-1.9609 7.5547-4.9883h9.6875c1.293 3.0273 4.2656 4.9883 7.5547 4.9883 3.2891 0 6.2617-1.9609 7.5547-4.9883h3.6172c0.61328 0 1.1133-0.5 1.1133-1.1133v-4.2305c0-0.61719-0.5-1.1172-1.1133-1.1172h-3.6172c-1.293-3.0234-4.2656-4.9844-7.5547-4.9844-3.2891 0-6.2617 1.9609-7.5547 4.9844h-9.6875c-1.293-3.0234-4.2656-4.9844-7.5547-4.9844-3.2891 0-6.2617 1.9609-7.5547 4.9844h-3.1914c-1.2891 0.019532-2.5273-0.48047-3.4453-1.3828s-1.4336-2.1367-1.4336-3.4219c0-1.2891 0.51562-2.5234 1.4336-3.4258s2.1562-1.4023 3.4453-1.3828h46.715c0.29297 0 0.57812-0.11719 0.78906-0.32812 0.20703-0.21094 0.32422-0.49219 0.32422-0.78906v-4.2344c0-0.29688-0.11719-0.58203-0.32422-0.78906-0.21094-0.21094-0.49609-0.32812-0.78906-0.32812h-5.0078l10.676-18.488 0.003906-0.011719c0.011719-0.019531 0.023438-0.042969 0.03125-0.0625zm-44.711-0.49219 2.7383-0.37891h-0.003906c0.46094-0.0625 0.83203-0.40234 0.9375-0.85547 0.26172-1.1523 0.71484-2.2539 1.3477-3.2539 0.24609-0.39062 0.22656-0.89844-0.054687-1.2695l-1.668-2.1992 1.5469-1.5508 2.1992 1.668h0.003906c0.36719 0.28125 0.875 0.30469 1.2695 0.058593 1-0.63281 2.0977-1.0898 3.25-1.3516 0.45312-0.10156 0.79688-0.47266 0.85938-0.93359l0.38281-2.7422h2.1875l0.37891 2.7344v0.003907c0.0625 0.46094 0.40625 0.83203 0.85938 0.9375 1.1523 0.26172 2.25 0.71484 3.25 1.3477 0.39453 0.24609 0.90234 0.22656 1.2695-0.054687l2.1992-1.668 1.5508 1.5508-1.668 2.1992v-0.003907c-0.28125 0.37109-0.30469 0.87891-0.054687 1.2695 0.62891 1 1.0859 2.1016 1.3477 3.2539 0.10156 0.45312 0.47656 0.79297 0.93359 0.85547l2.7383 0.37891v2.1953l-2.7383 0.37891c-0.45703 0.0625-0.83203 0.40625-0.93359 0.85938-0.26172 1.1523-0.71875 2.25-1.3477 3.25-0.25 0.39453-0.22656 0.89844 0.054687 1.2695l1.668 2.1992-1.5508 1.543-2.1992-1.668c-0.37109-0.28125-0.87891-0.30078-1.2695-0.054688-1 0.63281-2.1016 1.0859-3.2539 1.3477-0.44922 0.10547-0.79297 0.47656-0.85547 0.9375l-0.37891 2.7383h-2.1875l-0.37891-2.7344h0.003907c-0.066407-0.46094-0.40625-0.83594-0.85938-0.9375-1.1523-0.26172-2.2539-0.71875-3.25-1.3477-0.39453-0.25-0.90234-0.22656-1.2734 0.054687l-2.1992 1.668-1.5469-1.5469 1.668-2.1992c0.28125-0.37109 0.30469-0.87891 0.054688-1.2695-0.62891-1-1.0859-2.1016-1.3477-3.2539-0.10156-0.45312-0.47656-0.79297-0.93359-0.85937l-2.7461-0.375zm37.871 37.406v2h-1.9023c0.085937-0.66406 0.085937-1.3359 0-2zm-10.055-4.9844c2.418 0 4.6016 1.457 5.5273 3.6953 0.92578 2.2344 0.41406 4.8086-1.2969 6.5195-1.7109 1.7148-4.2852 2.2266-6.5234 1.2969-2.2344-0.92578-3.6914-3.1055-3.6914-5.5273 0.003906-3.3047 2.6797-5.9805 5.9844-5.9844zm-8.1562 4.9844c-0.082031 0.66406-0.082031 1.3359 0 2h-8.4844c0.082032-0.66406 0.082032-1.3359 0-2zm-16.641-4.9844c2.4219 0 4.6016 1.457 5.5273 3.6953 0.92969 2.2344 0.41797 4.8086-1.2969 6.5195-1.7109 1.7148-4.2852 2.2266-6.5195 1.2969-2.2383-0.92578-3.6953-3.1055-3.6953-5.5273 0.003907-3.3047 2.6797-5.9805 5.9844-5.9844zm-17.789-2.0547c0.007812 3.8867 3.1562 7.0352 7.043 7.0391h2.5938-0.003906c-0.082031 0.66406-0.082031 1.3359 0 2h-2.5898c-4.7695 0.015625-8.7266-3.6758-9.0469-8.4297-0.32031-4.7578 3.1094-8.9453 7.8359-9.5703h0.007813c0.042968-0.007812 0.082031-0.015625 0.125-0.023437l0.039062-0.011719c0.03125-0.007813 0.0625-0.019531 0.09375-0.03125l0.03125-0.015625h-0.003906c0.042968-0.015625 0.078125-0.03125 0.11719-0.054688h0.007813c0.027344-0.015624 0.058594-0.035156 0.085937-0.054687l0.011719-0.007813c0.023438-0.015624 0.046875-0.035156 0.066406-0.054687l-0.003906 0.003906c0.082031-0.070312 0.15625-0.15625 0.21484-0.24609l0.011718-0.015626c0.011719-0.019531 0.019532-0.035156 0.03125-0.054687 0.011719-0.019531 0.015626-0.027344 0.023438-0.042969l0.015625-0.03125c0.011719-0.023437 0.019531-0.042968 0.027344-0.066406v-0.007812l-0.003907-0.003907c0.042969-0.10938 0.0625-0.22266 0.070313-0.33594v-0.089844c0-0.03125 0-0.066406-0.007813-0.10156v-0.015626c0-0.03125-0.011718-0.058593-0.015624-0.089843l-0.011719-0.035157c-0.007813-0.023437-0.011719-0.046874-0.019531-0.070312-0.007813-0.023438-0.015626-0.035156-0.019532-0.054688-0.007812-0.019531-0.011718-0.03125-0.019531-0.046874-0.007813-0.015626-0.023437-0.046876-0.035156-0.066407l-0.015625-0.027343-0.003906-0.007813-12.164-21.082-0.019531-0.027344c-0.011719-0.019531-0.023438-0.035156-0.035156-0.054688-0.011719-0.019531-0.019532-0.027343-0.03125-0.042968l-0.03125-0.039063c-0.011719-0.015625-0.027344-0.03125-0.039063-0.046875l-0.03125-0.03125-0.046875-0.042968-0.035156-0.027344c-0.015625-0.011719-0.03125-0.023438-0.050782-0.035156l-0.039062-0.027344-0.046875-0.027344-0.050781-0.027344-0.042969-0.019531-0.097656-0.039063-0.0625-0.019531-0.042969-0.011719-0.0625-0.011718-0.050781-0.007813c-0.019531 0-0.035157-0.003906-0.054688-0.007812h-12.195v-2h13.898l14.238 24.66 0.011718 0.015625c0.019532 0.03125 0.039063 0.0625 0.0625 0.089844l0.023438 0.03125c0.027344 0.03125 0.054687 0.066406 0.085937 0.10156l0.023438 0.023438c0.023437 0.023437 0.050781 0.042968 0.074219 0.0625l0.035156 0.027344c0.027344 0.019531 0.054687 0.035156 0.082031 0.054687l0.027344 0.015625-0.003907-0.003906c0.039063 0.019531 0.078126 0.039062 0.12109 0.058594l0.015625 0.007812v-0.003906c0.035157 0.015625 0.070313 0.027344 0.10938 0.035156l0.03125 0.007812c0.03125 0.007813 0.066406 0.015626 0.10156 0.019532l0.035156 0.003906v0.003906c0.039063 0.003906 0.082031 0.007813 0.125 0.007813h42.121v2h-45.602c-3.8828 0.003906-7.0273 3.1484-7.0391 7.0312zm11.168-11.273-10.355-17.934h11.723v2c0.003906 0.55859 0.41406 1.0312 0.96484 1.1094l2.9609 0.40625c0.25781 0.875 0.60547 1.7188 1.043 2.5156l-1.8008 2.3828c-0.33594 0.44531-0.29297 1.0703 0.10156 1.4648l2.9258 2.9258c0.39453 0.39453 1.0195 0.4375 1.4648 0.097656l2.3828-1.8008-0.003907 0.003906c0.80078 0.4375 1.6445 0.78516 2.5195 1.043l0.40625 2.9609c0.078125 0.55078 0.54688 0.96094 1.1055 0.96094h4.1367c0.55859 0 1.0312-0.41016 1.1055-0.96094l0.40625-2.9609h0.003906c0.87109-0.25781 1.7148-0.60547 2.5156-1.043l2.3828 1.8008v-0.003907c0.44141 0.33984 1.0664 0.29688 1.4609-0.097656l2.9258-2.9258c0.39453-0.39453 0.4375-1.0195 0.10156-1.4648l-1.8125-2.3828c0.44141-0.79688 0.78906-1.6406 1.0469-2.5156l2.9609-0.40625c0.55078-0.078124 0.96484-0.54687 0.96484-1.1055v-2h11.719l-10.352 17.93zm31.418 23.641c1.75 0 3.3281-1.0547 3.9961-2.6719 0.67188-1.6172 0.30078-3.4805-0.9375-4.7148-1.2383-1.2383-3.0977-1.6094-4.7148-0.9375-1.6172 0.66797-2.6719 2.2461-2.6719 3.9961 0.003906 2.3867 1.9375 4.3242 4.3281 4.3281zm0-6.4219c0.84766 0 1.6094 0.50781 1.9336 1.293 0.32422 0.78125 0.14453 1.6836-0.45312 2.2812-0.60156 0.59766-1.5 0.77734-2.2812 0.45312-0.78516-0.32422-1.293-1.0859-1.293-1.9336 0.003907-1.1562 0.9375-2.0898 2.0938-2.0938zm-24.797 6.4219c1.75 0 3.3281-1.0547 3.9961-2.6719 0.67188-1.6172 0.30078-3.4805-0.9375-4.7148-1.2383-1.2383-3.0977-1.6094-4.7148-0.9375-1.6172 0.66797-2.6719 2.2461-2.6719 3.9961 0.003907 2.3867 1.9375 4.3242 4.3281 4.3281zm0-6.4219c0.84766 0 1.6094 0.50781 1.9336 1.293 0.32422 0.78125 0.14453 1.6836-0.45312 2.2812s-1.5 0.77734-2.2812 0.45312-1.293-1.0859-1.293-1.9336c0.003906-1.1562 0.9375-2.0898 2.0938-2.0938zm3.4219-35.219c-0.003906 2.082 0.86719 4.0742 2.3984 5.4883 1.5273 1.4141 3.582 2.125 5.6602 1.957 2.0781-0.16797 3.9883-1.1953 5.2734-2.8359 1.2852-1.6445 1.8242-3.7461 1.4883-5.8047 0-0.035157-0.011719-0.070313-0.019532-0.10938v0.003906c-0.62891-3.5625-3.7266-6.1602-7.3438-6.1602-3.6172 0-6.7109 2.5977-7.3398 6.1602-0.007813 0.03125-0.011719 0.066406-0.019531 0.10156v-0.003906c-0.0625 0.39844-0.097657 0.80078-0.097657 1.2031zm7.457 5.2266v-0.003906c-2.8555-0.003907-5.1797-2.2969-5.2227-5.1562h10.445c-0.039063 2.8594-2.3633 5.1562-5.2227 5.1602zm0-10.449c2.0469 0 3.9023 1.1953 4.7539 3.0586h-9.5039c0.84766-1.8633 2.707-3.0547 4.75-3.0586zm24.812 8.1758c0 0.61719-0.5 1.1172-1.1172 1.1172h-5.9219c-0.60547-0.019532-1.0859-0.51172-1.0859-1.1172 0-0.60156 0.48047-1.0977 1.0859-1.1172h5.9258-0.003906c0.61719 0.003906 1.1172 0.5 1.1172 1.1172zm-2.9609 5.2891h-0.003906c0 0.61719-0.5 1.1172-1.1172 1.1172h-5.918c-0.60547-0.019531-1.0859-0.51172-1.0859-1.1172 0-0.60156 0.48047-1.0977 1.0859-1.1172h5.9258-0.003906c0.61719 0 1.1172 0.5 1.1172 1.1172zm-2.9609 5.2891h-0.003907c0 0.61719-0.5 1.1172-1.1172 1.1172h-5.9219c-0.60156-0.019531-1.082-0.51172-1.082-1.1172 0-0.60156 0.48047-1.0977 1.082-1.1172h5.9258c0.61719 0 1.1172 0.5 1.1172 1.1172zm-36.66-9.4609h-5.918c-0.30469 0.007812-0.59766-0.10547-0.8125-0.31641-0.21875-0.20703-0.33984-0.5-0.33984-0.80078 0-0.30078 0.12109-0.58984 0.33984-0.80078 0.21484-0.21094 0.50781-0.32422 0.8125-0.31641h5.9258-0.003906c0.60547 0.019531 1.0859 0.51562 1.0859 1.1172 0 0.60547-0.48047 1.0977-1.0859 1.1172zm2.9609 5.2891h-5.9219c-0.30469 0.007813-0.59766-0.10547-0.8125-0.31641-0.21875-0.21094-0.33984-0.5-0.33984-0.80078s0.12109-0.58984 0.33984-0.80078c0.21484-0.21094 0.50781-0.32422 0.8125-0.31641h5.9258-0.003906c0.60547 0.019531 1.0859 0.51562 1.0859 1.1172 0 0.60547-0.48047 1.0977-1.0859 1.1172zm4.0781 4.1719h-0.003906c0 0.61719-0.5 1.1172-1.1133 1.1172h-5.9219c-0.30078 0.007812-0.59375-0.10547-0.8125-0.31641-0.21484-0.21094-0.33984-0.5-0.33984-0.80078s0.125-0.58984 0.33984-0.80078c0.21875-0.21094 0.51172-0.32422 0.8125-0.31641h5.9258-0.003906c0.61719 0 1.1172 0.5 1.1172 1.1172z" fill="#ea5b0a"></path></svg>