<svg xmlns="http://www.w3.org/2000/svg" width="100pt" height="100pt" viewBox="0 0 100 100"><path d="m78.621 6.4297h-66.473c-0.74609 0-1.3594 0.60937-1.3594 1.3594v84.422c0 0.74609 0.60938 1.3594 1.3594 1.3594h66.465c0.74609 0 1.3594-0.60937 1.3594-1.3594l-0.003906-84.422c0.011719-0.74609-0.60156-1.3594-1.3477-1.3594zm-1.3672 84.422h-63.738v-81.703h63.746v81.703zm-56.434-60.746v-12.695c0-0.74609 0.60938-1.3594 1.3594-1.3594h12.707c0.74609 0 1.3594 0.60938 1.3594 1.3594 0 0.74609-0.60938 1.3594-1.3594 1.3594h-11.34v9.9805h9.9805v-3.1562c0-0.74609 0.60938-1.3594 1.3594-1.3594 0.74609 0 1.3594 0.60938 1.3594 1.3594v4.5156c0 0.74609-0.60938 1.3594-1.3594 1.3594l-12.695-0.003906c-0.76172 0.007812-1.3711-0.60156-1.3711-1.3594zm8.3594-6.5039 8.8203-5.2617c0.64062-0.39062 1.4844-0.17969 1.8633 0.47266 0.39062 0.64062 0.17969 1.4844-0.47266 1.8633l-10.855 6.4805c-0.21094 0.125-0.45312 0.19141-0.69531 0.19141-0.23047 0-0.46484-0.0625-0.66406-0.17969-0.42188-0.24219-0.69531-0.68359-0.69531-1.1797l-0.042969-4.9883c-0.011719-0.74609 0.60156-1.3672 1.3477-1.3672h0.011719c0.74609 0 1.3594 0.60156 1.3594 1.3477zm15.199-3.4844c0-0.74609 0.60938-1.3594 1.3594-1.3594h22.852c0.74609 0 1.3594 0.60938 1.3594 1.3594 0 0.74609-0.60938 1.3594-1.3594 1.3594l-22.852-0.003906c-0.75 0.011719-1.3594-0.59766-1.3594-1.3555zm0 7.2812c0-0.74609 0.60938-1.3594 1.3594-1.3594h22.852c0.74609 0 1.3594 0.60938 1.3594 1.3594 0 0.74609-0.60938 1.3594-1.3594 1.3594h-22.852c-0.75 0-1.3594-0.60937-1.3594-1.3594zm-23.559 28.949v-12.695c0-0.74609 0.60938-1.3594 1.3594-1.3594h12.707c0.74609 0 1.3594 0.60938 1.3594 1.3594 0 0.74609-0.60938 1.3594-1.3594 1.3594h-11.34v9.9805h9.9805v-3.1562c0-0.74609 0.60938-1.3594 1.3594-1.3594 0.74609 0 1.3594 0.60938 1.3594 1.3594v4.5273c0 0.74609-0.60938 1.3594-1.3594 1.3594l-12.695-0.007812c-0.76172 0-1.3711-0.60938-1.3711-1.3672zm19.043-11.297c0.39062 0.64062 0.17969 1.4844-0.47266 1.8633l-10.852 6.4844c-0.21094 0.125-0.45312 0.19141-0.69531 0.19141-0.23047 0-0.46484-0.0625-0.66406-0.17969-0.42188-0.24219-0.69531-0.68359-0.69531-1.1797l-0.042969-4.9883c-0.011718-0.74609 0.60156-1.3672 1.3477-1.3672h0.011719c0.74609 0 1.3594 0.60156 1.3594 1.3477l0.019532 2.6094 8.8203-5.2617c0.64062-0.37891 1.4844-0.17187 1.8633 0.48047zm4.5156 1.3086c0-0.74609 0.60938-1.3594 1.3594-1.3594h22.852c0.74609 0 1.3594 0.60938 1.3594 1.3594 0 0.74609-0.60938 1.3594-1.3594 1.3594l-22.852-0.003906c-0.75 0.011718-1.3594-0.59766-1.3594-1.3555zm0 7.2812c0-0.74609 0.60938-1.3594 1.3594-1.3594h22.852c0.74609 0 1.3594 0.60938 1.3594 1.3594 0 0.74609-0.60938 1.3594-1.3594 1.3594h-22.852c-0.75 0-1.3594-0.60938-1.3594-1.3594zm-23.559 28.949v-12.695c0-0.74609 0.60938-1.3594 1.3594-1.3594h12.707c0.74609 0 1.3594 0.60938 1.3594 1.3594 0 0.74609-0.60938 1.3594-1.3594 1.3594h-11.34v9.9805h9.9805v-3.1562c0-0.74609 0.60938-1.3594 1.3594-1.3594 0.74609 0 1.3594 0.60938 1.3594 1.3594v4.5156c0 0.74609-0.60938 1.3594-1.3594 1.3594l-12.695-0.003906c-0.76172 0-1.3711-0.61328-1.3711-1.3594zm19.043-11.297c0.39062 0.64062 0.17969 1.4844-0.47266 1.8633l-10.852 6.4844c-0.21094 0.125-0.45312 0.19141-0.69531 0.19141-0.23047 0-0.46484-0.0625-0.66406-0.17969-0.42188-0.24219-0.69531-0.68359-0.69531-1.1797l-0.042969-4.9883c-0.011718-0.74609 0.60156-1.3672 1.3477-1.3672h0.011719c0.74609 0 1.3594 0.60156 1.3594 1.3477l0.019532 2.6094 8.8203-5.2617c0.64062-0.38281 1.4727-0.17188 1.8633 0.48047zm4.5156 1.3086c0-0.74609 0.60938-1.3594 1.3594-1.3594h22.852c0.74609 0 1.3594 0.60937 1.3594 1.3594 0 0.74609-0.60938 1.3594-1.3594 1.3594l-22.852-0.003907c-0.75 0-1.3594-0.59766-1.3594-1.3555zm0 7.2812c0-0.74609 0.60938-1.3594 1.3594-1.3594h22.852c0.74609 0 1.3594 0.60937 1.3594 1.3594 0 0.74609-0.60938 1.3594-1.3594 1.3594h-22.852c-0.75 0-1.3594-0.60938-1.3594-1.3594z" fill="#ea5b0a"></path></svg>