<svg xmlns="http://www.w3.org/2000/svg" width="100pt" height="100pt" viewBox="0 0 100 100"><path d="m24.828 15.25c-0.14062-0.53906-0.55859-0.96094-1.0938-1.1094l-5.25-1.4062c-0.55469-0.16406-1.1562-0.007813-1.5625 0.40625l-3.7812 3.8281c-0.41406 0.40625-0.57031 1.0078-0.40625 1.5625l1.4062 5.25c0.14844 0.53516 0.57031 0.95312 1.1094 1.0938l5.2344 1.4062c0.55469 0.16406 1.1562 0.007812 1.5625-0.40625l3.8281-3.8281c0.41406-0.40625 0.57031-1.0078 0.40625-1.5625zm-4.4062 7.8125-3.5-0.9375-0.9375-3.5 2.5625-2.5625 3.5 0.9375 0.9375 3.5z" fill="#ea5b0a"></path><path d="m91 70.031c-1.8828-1.8711-4.2344-3.1992-6.8047-3.8516-2.5742-0.64844-5.2734-0.59766-7.8203 0.14844l-42.703-42.703c4.2188-14.641-13.828-25.359-24.672-14.625s0 28.938 14.656 24.703l42.672 42.672c-2.9375 9.0781 4.5938 19.25 14.188 18.938 13.062 0.14062 19.781-16.094 10.484-25.281zm-2.2031 18.75c-8.8438 8.7969-23.438-0.64062-19.25-12.328 0.18359-0.58594 0.035156-1.2266-0.39062-1.6719l-43.969-43.969c-0.44531-0.39844-1.0703-0.53516-1.6406-0.35938-3.5859 1.2773-7.5703 0.74219-10.691-1.4336-3.1211-2.1758-5-5.7305-5.043-9.5352 0.058594-6.4219 5.25-11.613 11.672-11.672 3.8086 0.046875 7.3594 1.9336 9.5312 5.0664 2.1719 3.1289 2.6953 7.1133 1.4062 10.699-0.17578 0.58594-0.027344 1.2227 0.39062 1.6719l43.969 43.906c0.44922 0.42969 1.0977 0.58203 1.6875 0.39062 11.656-4.2812 21.094 10.406 12.328 19.234z" fill="#ea5b0a"></path><path d="m86.656 75.469c-0.14844-0.53516-0.57031-0.95312-1.1094-1.0938l-6.25-1.7031c-0.55469-0.16406-1.1562-0.007813-1.5625 0.40625l-4.6875 4.6875c-0.41406 0.40625-0.57031 1.0078-0.40625 1.5625l1.7031 6.25c0.14062 0.53906 0.55859 0.96094 1.0938 1.1094l6.3438 1.7031c0.55469 0.16406 1.1562 0.007813 1.5625-0.40625l4.6875-4.6875c0.41406-0.40625 0.57031-1.0078 0.40625-1.5625zm-4.9062 9.6406-4.5938-1.2344-1.2344-4.5938 3.3594-3.3594 4.5938 1.2344 1.2344 4.5938z" fill="#ea5b0a"></path><path d="m54.984 38.969c0.41406 0.003906 0.81641-0.16016 1.1094-0.45312l12.172-12.188c0.42188-0.45703 0.55469-1.1172 0.34375-1.7031-1.4102-3.5977-1.0391-7.6484 1-10.926 2.043-3.2812 5.5117-5.4062 9.3594-5.7305l-4.4844 4.5312c-0.41406 0.40625-0.57031 1.0078-0.40625 1.5625l2.2969 8.5625c0.14453 0.53125 0.5625 0.94922 1.0938 1.0938l8.5625 2.2969c0.13672 0.015625 0.26953 0.015625 0.40625 0 0.41406 0.003906 0.81641-0.16016 1.1094-0.45312l4.4844-4.4844c-0.32422 3.8477-2.4492 7.3164-5.7305 9.3594-3.2773 2.0391-7.3281 2.4102-10.926 1-0.58594-0.24219-1.2578-0.10547-1.7031 0.34375l-12.172 12.188c-0.61328 0.61328-0.61328 1.6055 0 2.2188s1.6055 0.61328 2.2188 0l11.469-11.5c10.75 3.7656 22.188-6.4219 19.734-17.5-0.14453-0.66016-0.69922-1.1523-1.375-1.2188-0.46094-0.042969-0.92188 0.10938-1.2656 0.42188l-6.25 6.25-6.8125-1.8281-1.8906-6.75 6.25-6.25c0.3125-0.34375 0.46484-0.80469 0.42188-1.2656-0.023438-0.69922-0.50781-1.3008-1.1875-1.4688-11.156-2.4062-21.172 8.9844-17.438 19.703l-11.5 11.516c-0.44922 0.44531-0.58594 1.1211-0.34375 1.707 0.24609 0.58594 0.81641 0.96875 1.4531 0.96484z" fill="#ea5b0a"></path><path d="m43.922 61.5-11.469 11.469c-1.2891-2.2578-3.1641-4.1328-5.4219-5.4219l11.484-11.453c0.61328-0.61328 0.61328-1.6055 0-2.2188s-1.6055-0.61328-2.2188 0l-12.328 12.328c-14.594-4.3906-25.625 13.625-14.797 24.625s29.016-0.20312 24.625-14.781l12.344-12.328c0.61328-0.61328 0.61328-1.6055 0-2.2188s-1.6055-0.61328-2.2188 0zm-16.016 27.109c-2.1875 2.1914-5.1602 3.4219-8.2578 3.4219-3.0977 0-6.0703-1.2305-8.2578-3.4219-7.375-7.1719-1.9219-20.109 8.25-19.859 10.172-0.25 15.641 12.688 8.2656 19.859z" fill="#ea5b0a"></path><path d="m22.469 72.828c-0.40625-0.41406-1.0078-0.57031-1.5625-0.40625l-6.375 1.7188c-0.54297 0.14453-0.96484 0.56641-1.1094 1.1094l-1.7188 6.4219c-0.16406 0.55469-0.007813 1.1562 0.40625 1.5625l4.6875 4.6875c0.40625 0.41406 1.0078 0.57031 1.5625 0.40625l6.4219-1.7188c0.54297-0.14453 0.96484-0.56641 1.1094-1.1094l1.7188-6.4219c0.16406-0.55469 0.007813-1.1562-0.40625-1.5625zm0.60938 10.938-4.6875 1.2656-3.4375-3.4375 1.2656-4.6875 4.6875-1.25 3.4375 3.4375z" fill="#ea5b0a"></path></svg>