<svg xmlns="http://www.w3.org/2000/svg" width="100pt" height="100pt" viewBox="0 0 100 100"><path d="m59.266 74.449c8.1719-9.7109 19.512-25.395 19.512-37.734 0-18.09-14.633-28.902-28.777-28.902s-28.777 10.812-28.777 28.902c0 12.34 11.34 28.02 19.512 37.734-11.535 1.2383-19.961 4.8203-19.961 8.6328 0 4.3984 11.746 9.1055 29.227 9.1055 17.484 0 29.227-4.707 29.227-9.1055 0-3.7539-8.5859-7.3867-19.961-8.6289zm-9.2656-63.512c12.609 0 25.652 9.6445 25.652 25.777 0 15.496-20.602 38.094-25.652 43.402-5.0508-5.3086-25.652-27.906-25.652-43.402 0-16.133 13.043-25.777 25.652-25.777zm0 78.125c-16.574 0-25.516-4.4141-26.117-5.8672 0.35156-0.98437 5.8477-4.7812 19.348-5.8398 3.082 3.5 5.3555 5.8047 5.6641 6.1133 0.29297 0.29297 0.69141 0.45703 1.1055 0.45703s0.8125-0.16406 1.1055-0.45703c0.3125-0.3125 2.582-2.6133 5.6641-6.1094 13.492 1.0547 18.996 4.8477 19.352 5.6094-0.60156 1.6797-9.5391 6.0938-26.117 6.0938zm16.141-53.121c0-8.8984-7.2422-16.141-16.141-16.141-8.9023 0-16.141 7.2422-16.141 16.141 0 8.8984 7.2422 16.141 16.141 16.141s16.141-7.2422 16.141-16.141zm-29.156 0c0-7.1797 5.8398-13.016 13.016-13.016 7.1797 0 13.016 5.8398 13.016 13.016 0 7.1797-5.8398 13.016-13.016 13.016s-13.016-5.8398-13.016-13.016zm21.43 0c0-4.6406-3.7734-8.418-8.4141-8.418s-8.4141 3.7734-8.4141 8.418c0 4.6406 3.7734 8.4141 8.4141 8.4141s8.4141-3.7734 8.4141-8.4141zm-13.703 0c0-2.918 2.3711-5.293 5.2891-5.293 2.9141 0 5.2891 2.375 5.2891 5.293 0 2.918-2.3711 5.2891-5.2891 5.2891-2.9141 0-5.2891-2.3711-5.2891-5.2891z" fill="#ea5b0a"></path></svg>