<svg xmlns="http://www.w3.org/2000/svg" width="100pt" height="100pt" viewBox="0 0 100 100"><path d="m69.504 40.82c0-0.69141-0.55859-1.25-1.25-1.25h-0.51172l-4.2188-9.3555c0.25-0.085938 0.50391-0.17969 0.76562-0.29297 0.63281-0.27734 0.92578-1.0117 0.64844-1.6484-0.27734-0.63281-1.0117-0.92578-1.6484-0.64844-2.2305 0.97266-3.9375 0.45312-5.9141-0.14453-1.8086-0.54688-3.8086-1.1523-6.125-0.38281v-0.34375c0-0.69141-0.55859-1.25-1.25-1.25s-1.25 0.55859-1.25 1.25v0.34375c-2.3164-0.76953-4.3164-0.16406-6.125 0.38281-1.9766 0.59766-3.6836 1.1133-5.9141 0.14453-0.63281-0.27734-1.3711 0.015625-1.6484 0.64844-0.27734 0.63281 0.015625 1.3711 0.64844 1.6484 0.25781 0.11328 0.51562 0.21094 0.76562 0.29688l-4.2148 9.3516h-0.51172c-0.69141 0-1.25 0.55859-1.25 1.25 0 4.1289 3.3594 7.4922 7.4922 7.4922 4.1328 0 7.4922-3.3594 7.4922-7.4922 0-0.69141-0.55859-1.25-1.25-1.25h-0.40234l-4.0195-8.918c1.2891-0.089844 2.4531-0.44141 3.5469-0.76953 1.9258-0.58203 3.4805-1.0547 5.3984-0.066406v27.074h-3.9531c-0.69141 0-1.25 0.55859-1.25 1.25s0.55859 1.25 1.25 1.25h10.41c0.69141 0 1.25-0.55859 1.25-1.25s-0.55859-1.25-1.25-1.25h-3.9531v-27.074c1.918-0.98438 3.4727-0.51562 5.3984 0.066406 1.0938 0.32813 2.2578 0.68359 3.5469 0.76953l-4.0195 8.918h-0.40234c-0.69141 0-1.25 0.55859-1.25 1.25 0 4.1289 3.3594 7.4922 7.4922 7.4922 4.1328 0 7.4922-3.3594 7.4922-7.4922zm-31.516 4.9883c-2.3164 0-4.2734-1.5898-4.8281-3.7344h9.6562c-0.55859 2.1445-2.5117 3.7344-4.8281 3.7344zm3.0898-6.2383h-6.0703l3.0352-6.7344zm20.883-6.7344 3.0352 6.7344h-6.0703zm0.054687 12.977c-2.3164 0-4.2734-1.5898-4.8281-3.7344h9.6562c-0.55859 2.1445-2.5117 3.7344-4.8281 3.7344zm26.234 20.598c-1.2305-1.2539-4.3984-2.9219-11.797-0.011718-1.3242 0.51953-2.7656 1.0586-4.25 1.5859l-0.26953-0.98047 2.6211-2.6211 3.4453 0.94531c1.0664 0.29297 2.1992-0.17188 2.75-1.1289l3.4609-5.9805c0.55469-0.96094 0.39062-2.1719-0.39453-2.9492l-2.543-2.5156 0.96094-3.5781 3.4531-0.90625c1.0703-0.28125 1.8164-1.25 1.8164-2.3555v-6.9102c0-1.1055-0.74609-2.0742-1.8164-2.3555l-3.4531-0.90625-0.96094-3.5781 2.543-2.5156c0.78516-0.77734 0.94922-1.9922 0.39453-2.9492l-3.4609-5.9805c-0.55469-0.95703-1.6836-1.4219-2.75-1.1289l-3.4453 0.94531-2.6211-2.6211 0.94531-3.4453c0.29297-1.0664-0.17188-2.1992-1.1289-2.75l-5.9805-3.4609c-0.96094-0.55469-2.1719-0.39062-2.9492 0.39453l-2.5156 2.543-3.5781-0.96094-0.90625-3.4531c-0.28125-1.0703-1.25-1.8164-2.3555-1.8164h-6.9102c-1.1055 0-2.0742 0.74609-2.3555 1.8164l-0.90625 3.4531-3.5781 0.96094-2.5156-2.543c-0.77734-0.78516-1.9922-0.94922-2.9492-0.39453l-5.9805 3.4609c-0.95703 0.55469-1.4219 1.6836-1.1289 2.7539l0.94531 3.4453-2.6211 2.6211-3.4453-0.94531c-1.0664-0.29297-2.1992 0.17188-2.7539 1.1289l-3.4609 5.9805c-0.55469 0.96094-0.39063 2.1719 0.39453 2.9492l2.543 2.5156-0.96094 3.5781-3.4531 0.90625c-1.0703 0.28125-1.8164 1.25-1.8164 2.3555v6.9102c0 1.1055 0.74609 2.0742 1.8164 2.3555l3.4531 0.90625 0.96094 3.5781-2.543 2.5156c-0.78906 0.77734-0.94922 1.9922-0.39453 2.9492l3.4609 5.9805c0.55469 0.95703 1.6836 1.4219 2.75 1.1289l3.4453-0.94531 1.5312 1.5312c-1.8828 0.74219-3.7734 1.7969-5.6875 3.1641-3.8359 2.7422-7.1289 6.2617-10.441 9.9297-0.46484 0.51172-0.42188 1.3047 0.089844 1.7656 0.23828 0.21484 0.53906 0.32422 0.83984 0.32422 0.34375 0 0.68359-0.14062 0.92969-0.41016 5.4258-6.0039 12.855-14.223 22.195-13.586 7.0156 0.73438 12.625 1.2031 18.902 1.2617 3.0781 0.027343 4.707 0.94531 4.8398 2.7305 0.074219 0.98828-0.18359 1.75-0.8125 2.3984-2.7266 2.8086-11.215 2.4453-15.293 2.2656-0.67969-0.027344-1.2695-0.054688-1.7539-0.066407-0.69531-0.015624-1.2617 0.53516-1.2773 1.2266-0.015626 0.69141 0.53516 1.2617 1.2266 1.2773 0.46094 0.011719 1.0352 0.035156 1.6992 0.0625 6.625 0.28516 13.961 0.3125 17.199-3.0234 0.30469-0.3125 0.5625-0.64844 0.77344-1.0039 0.86719-0.22266 1.9062-0.49609 2.3477-0.61719 4.293-1.168 10.031-3.0859 14.613-4.8867 5.1328-2.0195 8.0664-1.6172 9.0977-0.56641 0.6875 0.69922 0.55469 1.6602 0.33984 2.3164-1.0078 0.73047-3.1055 1.9258-5.1094 2.9062l-27.371 12.449c-3.9766 1.7891-6.8281 1.7305-9.3438 1.6797-0.56641-0.011719-1.1016-0.023437-1.6445-0.015625-1.0078 0.015625-1.9453-0.003906-2.8516-0.023438-4.8633-0.10547-8.7031-0.1875-15.531 5.3594-0.53516 0.4375-0.61719 1.2227-0.18359 1.7617 0.24609 0.30469 0.60938 0.46094 0.97266 0.46094 0.27734 0 0.55469-0.09375 0.78906-0.28125 6.1172-4.9688 9.2148-4.9023 13.898-4.8008 0.92969 0.019532 1.8906 0.039063 2.9453 0.023438 0.49609-0.007812 1.0078 0.003906 1.5547 0.015625 2.6406 0.054687 5.9297 0.12109 10.426-1.8984l27.395-12.461c0.011719-0.003906 0.019531-0.011719 0.03125-0.015625 1.9805-0.96875 4.6602-2.4492 5.8516-3.4102 0.16406-0.13281 0.29297-0.30469 0.37109-0.49609 0.83203-2.0078 0.55078-3.9961-0.75391-5.3242zm-34.43-0.54688c-3.2969-0.03125-6.4141-0.17969-9.6602-0.41797-10.527-2.6641-17.871-12.105-17.871-22.988 0-13.074 10.637-23.715 23.715-23.715s23.715 10.637 23.715 23.715c0 11.715-8.3633 21.543-19.898 23.406zm8.2773 5.3398c-0.19141 0.050781-0.53125 0.14453-0.9375 0.25 0-0.17578-0.003906-0.35547-0.015625-0.53906-0.070312-0.92969-0.45703-2.625-2.2344-3.7969 4.207-1.5195 7.9922-4.1094 10.957-7.5469 4.0977-4.7539 6.3555-10.832 6.3555-17.113 0-14.457-11.762-26.219-26.219-26.219-14.457 0-26.219 11.762-26.219 26.219 0 9.2617 4.8086 17.574 12.328 22.258-0.32031-0.03125-0.64453-0.066406-0.97266-0.10156-0.015625 0-0.027344-0.003906-0.042969-0.003906-1.8242-0.12891-3.6289 0.023437-5.4297 0.45703l-2.9609-2.9609c-0.31641-0.31641-0.78125-0.44141-1.2148-0.32031l-4.0977 1.1211-3.4062-5.8906 3.0234-2.9922c0.32031-0.31641 0.44531-0.77734 0.32812-1.2148l-1.3359-4.9844c-0.11719-0.43359-0.45703-0.77344-0.89062-0.88672l-4.1094-1.0781v-6.8086l4.1094-1.0781c0.43359-0.11328 0.77344-0.45312 0.89062-0.88672l1.3359-4.9844c0.11719-0.43359-0.007813-0.89844-0.32812-1.2148l-3.0234-2.9922 3.4062-5.8906 4.0977 1.1211c0.43359 0.11719 0.89844-0.003906 1.2148-0.32031l3.6484-3.6484c0.31641-0.31641 0.44141-0.78125 0.32031-1.2148l-1.1211-4.0977 5.8906-3.4062 2.9922 3.0234c0.31641 0.32031 0.77734 0.44531 1.2148 0.32812l4.9844-1.3359c0.43359-0.11719 0.77344-0.45703 0.88672-0.89062l1.0781-4.1094h6.8086l1.0781 4.1094c0.11328 0.43359 0.45312 0.77344 0.88672 0.89062l4.9844 1.3359c0.43359 0.11719 0.89844-0.007812 1.2148-0.32812l2.9922-3.0234 5.8906 3.4062-1.1211 4.0977c-0.11719 0.43359 0.003906 0.89844 0.32031 1.2148l3.6484 3.6484c0.31641 0.31641 0.78125 0.44141 1.2148 0.32031l4.0977-1.1211 3.4062 5.8906-3.0234 2.9922c-0.32031 0.31641-0.44531 0.77734-0.32812 1.2148l1.3359 4.9844c0.11719 0.43359 0.45703 0.77344 0.89063 0.88672l4.1094 1.0781v6.8086l-4.1094 1.0781c-0.43359 0.11328-0.77344 0.45312-0.89063 0.88672l-1.3359 4.9844c-0.11719 0.43359 0.007813 0.89844 0.32812 1.2148l3.0234 2.9922-3.4062 5.8906-4.0977-1.1211c-0.43359-0.11719-0.89844 0.003906-1.2148 0.32031l-3.6484 3.6484c-0.31641 0.31641-0.44141 0.78125-0.32031 1.2148l0.50391 1.8438c-2.7422 0.92969-5.4766 1.7812-7.7344 2.3945z" fill="#ea5b0a"></path></svg>