<svg xmlns="http://www.w3.org/2000/svg" width="100pt" height="100pt" viewBox="0 0 100 100"><path d="m96.988 65.105c-0.67578-2-2.293-3.4492-4.5547-4.0859-2.4297-0.68359-5.5938-0.46484-9.3984 0.64844l-17.316 5.082c-0.88672-1.8125-2.5234-3.2461-4.6172-3.8086l-12.305-3.2969c-8.9805-6.293-13.789-4.4844-20.867-1.0234-3.3867 1.6562-6.7461 3.2578-9.9297 4.7578l-0.66797-1.6016c-0.88672-2.125-3.3359-3.1367-5.4609-2.2539l-6.6445 2.7617c-1.0469 0.43359-1.8281 1.2188-2.2617 2.2656-0.42188 1.0469-0.42188 2.1523 0.015625 3.1992l11.254 27.023c0.66797 1.6016 2.2266 2.5703 3.8633 2.5703 0.53516 0 1.0742-0.10156 1.5977-0.32031l6.6445-2.7578c1.0469-0.43359 1.8281-1.2188 2.2617-2.2656 0.43359-1.0469 0.42969-2.1523-0.003906-3.1992l-0.75391-1.8086 4.332-2.1055c1.582-0.76953 3.1719-0.90625 4.8633-0.41406l13.824 4.0117c1.0195 0.29688 2.0703 0.42188 3.1367 0.42188 3.6758 0 7.5273-1.5 10.766-2.7578 0.28516-0.11328 0.56641-0.21875 0.83984-0.32422l25.945-9.9961c4.1953-1.6211 6.7891-6.7305 5.4375-10.723zm-70.871 25.875c-0.16406 0.39453-0.41406 0.64453-0.80859 0.80859l-6.6445 2.7578c-0.76172 0.31641-1.6367-0.046875-1.9531-0.80469l-11.254-27.023c-0.16406-0.39062-0.16406-0.75391-0.003906-1.1445s0.41797-0.64844 0.80859-0.80859l6.6445-2.7617c0.1875-0.078125 0.37891-0.11328 0.57031-0.11328 0.58594 0 1.1445 0.34766 1.3828 0.91797l11.254 27.023c0.16406 0.39062 0.16797 0.75781 0.003907 1.1484zm64.465-17.66-25.945 9.9961c-0.27734 0.10547-0.55859 0.21484-0.84766 0.32812-3.8008 1.4805-8.5312 3.3203-12.18 2.2617l-13.824-4.0117c-2.3242-0.67578-4.6055-0.48047-6.7852 0.57812l-4.1914 2.0391-7.7695-18.652c3.2227-1.5234 6.6328-3.1445 10.074-4.8281 6.6133-3.2344 10.434-4.6602 18.336 0.94141 0.12891 0.089844 0.27344 0.16016 0.42969 0.19922l12.535 3.3594c2.418 0.64844 3.8594 3.1445 3.2109 5.5625s-3.1445 3.8594-5.5625 3.2109l-16.66-4.4648c-0.71484-0.19141-1.4492 0.23047-1.6445 0.94922-0.19141 0.71484 0.23438 1.4492 0.94922 1.6445l16.66 4.4648c3.8477 1.0312 7.8164-1.2617 8.8477-5.1094 0.22266-0.82031 0.28906-1.6484 0.22266-2.4531l17.355-5.0898c5.7344-1.6836 9.7148-1.0391 10.652 1.7227 0.88672 2.6172-1.0273 6.2578-3.8633 7.3516zm-40.586-20.062c13.953 0 25.305-11.352 25.305-25.305s-11.352-25.305-25.305-25.305c-13.953 0.003906-25.301 11.355-25.301 25.309 0 13.949 11.348 25.301 25.301 25.301zm0-47.922c12.473 0 22.617 10.148 22.617 22.617 0 12.473-10.148 22.617-22.617 22.617-12.473 0-22.617-10.148-22.617-22.617s10.145-22.617 22.617-22.617zm0 42.848c11.156 0 20.23-9.0742 20.23-20.23s-9.0742-20.23-20.23-20.23-20.23 9.0742-20.23 20.23 9.0742 20.23 20.23 20.23zm0-37.773c9.6758 0 17.547 7.8711 17.547 17.547s-7.8711 17.547-17.547 17.547c-9.6758 0-17.547-7.8711-17.547-17.547s7.8711-17.547 17.547-17.547zm-2.3633 17.547c0-0.80469 0.40625-1.5195 1.0234-1.9453v-6.25c0-0.74219 0.60156-1.3398 1.3398-1.3398 0.74219 0 1.3398 0.60156 1.3398 1.3398v6.25c0.57031 0.39453 0.95703 1.0273 1.0117 1.7539l3.4141 1.9727c0.64062 0.37109 0.86328 1.1914 0.49219 1.832-0.25 0.42969-0.69922 0.67188-1.1641 0.67188-0.22656 0-0.45703-0.058594-0.66797-0.17969l-3.418-1.9727c-0.30859 0.14844-0.64844 0.23047-1.0117 0.23047-1.2969 0-2.3594-1.0625-2.3594-2.3633zm1.0234-13.59v-0.94141c0-0.74219 0.60156-1.3398 1.3398-1.3398 0.74219 0 1.3398 0.60156 1.3398 1.3398v0.94141c0 0.74219-0.60156 1.3398-1.3398 1.3398-0.73828 0.003907-1.3398-0.59766-1.3398-1.3398zm10 4.9297c-0.52344-0.52344-0.52344-1.375 0-1.8984l0.66406-0.66406c0.52344-0.52344 1.375-0.52344 1.8984 0s0.52344 1.375 0 1.8984l-0.66406 0.66406c-0.26172 0.26172-0.60547 0.39453-0.94922 0.39453s-0.6875-0.13281-0.94922-0.39453zm3.5859 8.6602c0-0.74219 0.60156-1.3398 1.3398-1.3398h0.94141c0.74219 0 1.3398 0.60156 1.3398 1.3398 0 0.74219-0.60156 1.3398-1.3398 1.3398h-0.94141c-0.73828 0-1.3398-0.60156-1.3398-1.3398zm-1.0234 9.3242c0.52344 0.52344 0.52344 1.375 0 1.8984-0.26172 0.26172-0.60547 0.39453-0.94922 0.39453s-0.6875-0.13281-0.94922-0.39453l-0.66406-0.66406c-0.52344-0.52344-0.52344-1.375 0-1.8984 0.52344-0.52344 1.375-0.52344 1.8984 0zm-9.8789 4.2617v0.94141c0 0.74219-0.60156 1.3398-1.3398 1.3398-0.74219 0-1.3398-0.60156-1.3398-1.3398v-0.94141c0-0.74219 0.60156-1.3398 1.3398-1.3398 0.73828-0.003906 1.3398 0.59766 1.3398 1.3398zm-10.004-4.9297c0.52344 0.52344 0.52344 1.375 0 1.8984l-0.66406 0.66406c-0.26172 0.26172-0.60547 0.39453-0.94922 0.39453s-0.6875-0.13281-0.94922-0.39453c-0.52344-0.52344-0.52344-1.375 0-1.8984l0.66406-0.66406c0.52734-0.52344 1.375-0.52344 1.8984 0zm-3.5859-8.6562c0 0.74219-0.60156 1.3398-1.3398 1.3398h-0.94141c-0.74219 0-1.3398-0.60156-1.3398-1.3398 0-0.74219 0.60156-1.3398 1.3398-1.3398h0.94141c0.74219-0.003907 1.3398 0.59766 1.3398 1.3398zm1.0234-9.3242c-0.52344-0.52344-0.52344-1.375 0-1.8984 0.52344-0.52344 1.375-0.52344 1.8984 0l0.66406 0.66406c0.52344 0.52344 0.52344 1.375 0 1.8984-0.26172 0.26172-0.60547 0.39453-0.94922 0.39453s-0.6875-0.13281-0.94922-0.39453z" fill="#ea5b0a"></path></svg>