<svg xmlns="http://www.w3.org/2000/svg" width="100pt" height="100pt" viewBox="0 0 100 100"><path d="m88.93 65.035c-4.9141 0.007813-9.0742 3.6211-9.7695 8.4844h-21.125c-0.66797-3.8008-3.9688-6.5703-7.8281-6.5703s-7.1602 2.7695-7.8281 6.5703h-21.539c-0.72656-5.1289-5.2969-8.8242-10.465-8.4609-5.168 0.36328-9.1758 4.6641-9.1758 9.8438 0 5.1797 4.0078 9.4805 9.1758 9.8438 5.168 0.36328 9.7383-3.332 10.465-8.4609h21.539c0.66797 3.8008 3.9688 6.5703 7.8281 6.5703s7.1602-2.7695 7.8281-6.5703h21.125c0.54297 3.8281 3.2695 6.9844 6.9766 8.0781 3.707 1.0977 7.7109-0.074219 10.242-2.9922 2.5352-2.918 3.1328-7.0469 1.5273-10.562-1.6016-3.5195-5.1133-5.7734-8.9766-5.7734zm-77.859 16.965c-2.8711 0-5.4609-1.7305-6.5586-4.3828-1.1016-2.6562-0.49219-5.707 1.5391-7.7383s5.0859-2.6406 7.7383-1.5391c2.6523 1.0977 4.3828 3.6875 4.3828 6.5586-0.003906 3.9219-3.1797 7.0977-7.1016 7.1016zm39.137-1.9102c-2.0977 0-3.9883-1.2656-4.7891-3.2031-0.80469-1.9375-0.35938-4.168 1.125-5.6484 1.4805-1.4844 3.7109-1.9297 5.6484-1.125 1.9375 0.80078 3.2031 2.6914 3.2031 4.7891-0.003906 2.8633-2.3242 5.1836-5.1875 5.1875zm38.723 1.9102c-2.8711 0-5.4609-1.7305-6.5625-4.3828-1.0977-2.6562-0.48828-5.7109 1.543-7.7383 2.0312-2.0312 5.0859-2.6406 7.7383-1.5391 2.6523 1.0977 4.3828 3.6875 4.3828 6.5586-0.003906 3.9219-3.1836 7.0977-7.1016 7.1016zm-59.328-39.582 1.2891 4.7852c0.48047 1.8164 2.1406 3.0703 4.0195 3.0352l2.1367-0.035156h0.003906c0.42188-0.019531 0.82422 0.17578 1.0742 0.51562 0.85156 1.1016 1.8203 2.1094 2.8867 3 0.31641 0.25 0.49609 0.64062 0.47656 1.043l-0.042969 2.4609c-0.03125 1.8789 1.2188 3.5352 3.0352 4.0234l4.7852 1.2812h-0.003906c1.8164 0.48438 3.7266-0.32422 4.6406-1.9688l1.0391-1.8633h-0.003906c0.19531-0.375 0.56641-0.625 0.98438-0.66797 1.3828-0.1875 2.7383-0.52344 4.0469-1.0039 0.375-0.14844 0.80078-0.10547 1.1406 0.10937l2.1094 1.2656h0.003906c1.6094 0.96875 3.6719 0.71094 5-0.62109l3.5-3.5c1.332-1.3281 1.5859-3.3906 0.61719-5l-1.0977-1.832c-0.22656-0.35547-0.26172-0.80078-0.089844-1.1875 0.52734-1.2891 0.91406-2.6328 1.1562-4.0078 0.058594-0.39844 0.30469-0.74609 0.66406-0.93359l2.1484-1.207c1.6445-0.91016 2.4531-2.8242 1.9648-4.6367l-1.2812-4.7773v-0.003906c-0.48438-1.8125-2.1406-3.0664-4.0195-3.0352l-2.1406 0.035156c-0.42188 0.019532-0.82812-0.17188-1.0742-0.51562-0.85156-1.1016-1.8203-2.1094-2.8906-3-0.31641-0.25-0.49219-0.64062-0.47656-1.043l0.039063-2.457h0.003906c0.03125-1.8789-1.2227-3.5352-3.0391-4.0195l-4.7773-1.2812c-1.8125-0.49219-3.7305 0.31641-4.6445 1.957l-1.0352 1.8633v0.003907c-0.19531 0.37109-0.5625 0.62109-0.98438 0.66406-1.3789 0.1875-2.7383 0.52734-4.0469 1.0078-0.375 0.14844-0.80078 0.10547-1.1406-0.11328l-2.1094-1.2617c-1.6133-0.96875-3.6719-0.71484-5 0.61719l-3.5 3.5039-0.003906-0.003907c-1.3281 1.3281-1.582 3.3906-0.61719 5l1.0977 1.832c0.23047 0.35547 0.26172 0.80078 0.089844 1.1875-0.30859 0.75781-0.56641 1.5352-0.77734 2.3242-0.14844 0.55469-0.27344 1.1172-0.37109 1.6836-0.058594 0.39844-0.30859 0.74609-0.66797 0.93359l-2.1523 1.2031c-1.6445 0.91406-2.4531 2.8281-1.9648 4.6406zm3.3086-2.2227 2.1523-1.1953c1.0898-0.58984 1.8438-1.6523 2.0469-2.875 0.085937-0.48438 0.19141-0.96875 0.32031-1.4453 0.17969-0.67578 0.40234-1.3398 0.66797-1.9922 0.5-1.1914 0.39844-2.5508-0.27734-3.6523l-1.0977-1.832c-0.32812-0.51953-0.24219-1.1992 0.19922-1.625l3.5-3.5c0.42578-0.44531 1.1055-0.52734 1.625-0.19922l2.1094 1.2656v-0.003906c1.0586 0.64844 2.3555 0.77344 3.5195 0.33594 1.1172-0.41016 2.2812-0.69922 3.4609-0.86328 1.2852-0.15625 2.4141-0.92578 3.0312-2.0664l1.0352-1.8633c0.28906-0.54297 0.91797-0.80859 1.5078-0.64062l4.7852 1.2812-0.003906 0.003906c0.59766 0.14453 1.0078 0.69141 0.98828 1.3047l-0.035157 2.4531c-0.03125 1.2383 0.51172 2.4219 1.4688 3.207 0.91406 0.76562 1.7422 1.6289 2.4727 2.5742 0.78125 1.0312 2.0117 1.625 3.3047 1.5898l2.1406-0.035156v0.003906c0.61328-0.019531 1.1562 0.39062 1.3047 0.98438l1.2812 4.7852v-0.003906c0.17188 0.58984-0.09375 1.2188-0.63672 1.5078l-2.1484 1.1953c-1.0898 0.59375-1.8438 1.6523-2.0469 2.875-0.20313 1.1797-0.53516 2.332-0.98828 3.4375-0.50391 1.1914-0.39844 2.5508 0.27734 3.6523l1.0977 1.832c0.32422 0.52344 0.24219 1.1992-0.20312 1.625l-3.5 3.5c-0.42578 0.44531-1.1016 0.52734-1.6211 0.20312l-2.1094-1.2656h-0.003906c-1.0586-0.64844-2.3555-0.76953-3.5156-0.33203-1.1211 0.41406-2.2812 0.70312-3.4648 0.86328-1.2852 0.16016-2.4102 0.92969-3.0273 2.0664l-1.043 1.8711c-0.28906 0.54297-0.91797 0.80859-1.5078 0.63672l-4.7773-1.2812c-0.59375-0.14844-1.0039-0.69141-0.98438-1.3047l0.039062-2.457c0.03125-1.2422-0.51562-2.4258-1.4766-3.2148-0.91406-0.76562-1.7461-1.625-2.4727-2.5703-0.76563-1.0156-1.9648-1.6055-3.2383-1.5938h-0.066406l-2.1367 0.035156c-0.61719 0.023438-1.1602-0.39062-1.3047-0.98438l-1.2812-4.7773-0.003906-0.003907c-0.17188-0.58984 0.09375-1.2227 0.63672-1.5117zm16.867 12.059c5.3828 1.4414 11.105-0.5 14.5-4.918 3.3945-4.4219 3.7891-10.453 1.0039-15.281-2.7891-4.8242-8.207-7.4961-13.734-6.7695-5.5234 0.73047-10.066 4.7148-11.508 10.098-1.9453 7.3438 2.4062 14.883 9.7383 16.871zm-7.0664-16.156c1.1523-4.3008 4.7812-7.4805 9.1953-8.0625 4.4141-0.58203 8.7461 1.5547 10.969 5.4102 2.2266 3.8555 1.9141 8.6719-0.79688 12.203s-7.2812 5.0859-11.582 3.9336c-5.8672-1.5859-9.3477-7.6133-7.7852-13.484zm-11.52 15.031c0 0.36719-0.14844 0.71875-0.40625 0.97656-0.26172 0.25781-0.61328 0.40625-0.97656 0.40625h-14.645c-0.37109 0.007812-0.73437-0.13281-1-0.39062-0.26953-0.26172-0.42187-0.62109-0.42187-0.99219 0-0.375 0.15234-0.73438 0.42187-0.99219 0.26563-0.26172 0.62891-0.40234 1-0.39062h14.645c0.36328 0 0.71875 0.14453 0.97656 0.40234 0.25781 0.26172 0.40625 0.61328 0.40625 0.98047zm-22.336-10.266c0-0.76172 0.62109-1.3828 1.3828-1.3828h17.242c0.76562 0 1.3828 0.62109 1.3828 1.3828 0 0.76562-0.61719 1.3828-1.3828 1.3828h-17.242c-0.36719 0-0.71875-0.14453-0.97656-0.40234-0.26172-0.26172-0.40625-0.61328-0.40625-0.98047zm4.9219-9.0312c0-0.36719 0.14453-0.71875 0.40625-0.97656 0.25781-0.26172 0.60938-0.40625 0.97656-0.40625h14.648c0.37109-0.011719 0.73438 0.13281 1 0.39062 0.26953 0.26172 0.42188 0.62109 0.42188 0.99219 0 0.375-0.15234 0.73047-0.42188 0.99219-0.26562 0.26172-0.62891 0.40234-1 0.39062h-14.645c-0.36719 0.003906-0.71875-0.14453-0.98047-0.40234-0.25781-0.25781-0.40625-0.61328-0.40625-0.98047z" fill="#ea5b0a"></path></svg>