<svg xmlns="http://www.w3.org/2000/svg" width="100pt" height="100pt" viewBox="0 0 100 100"><path d="m83.488 28.34-11.91-11.91v-8.668c0-0.78125-0.62891-1.4102-1.4102-1.4102h-52.656c-0.78125 0-1.4102 0.62891-1.4102 1.4102v74.969c0 0.78125 0.62891 1.4102 1.4102 1.4102h7.9492v8.1016c0 0.78125 0.62891 1.4102 1.4102 1.4102h55.629c0.78125 0 1.4102-0.62891 1.4102-1.4102v-62.914c0-0.36719-0.14844-0.72656-0.42188-0.98828zm-11.91-7.918 7.5117 7.5117h-7.5117zm-52.656 60.898v-72.148h49.84v6.4297h-41.891c-0.78125 0-1.4102 0.62891-1.4102 1.4102v64.309zm9.3594 9.5078v-72.406h40.48v10.91c0 0.78125 0.62891 1.4102 1.4102 1.4102h10.91v60.09z" fill="#ea5b0a"></path><path d="m42.109 60.809h25.141c0.78125 0 1.4102-0.62891 1.4102-1.4102v-25.137c0-0.78125-0.62891-1.4102-1.4102-1.4102h-25.141c-0.78125 0-1.4102 0.62891-1.4102 1.4102v25.137c0 0.78125 0.62891 1.4102 1.4102 1.4102zm14.379-25.129v4.0312l-0.92969-0.73828c-0.26172-0.21094-0.57031-0.30859-0.87891-0.30859-0.30859 0-0.62109 0.10156-0.87891 0.30859l-0.92969 0.73828v-4.0312zm-12.969 0h6.5312v6.9688c0 0.53906 0.30859 1.0391 0.80078 1.2695 0.19141 0.089843 0.39844 0.14062 0.60938 0.14062 0.30859 0 0.62891-0.10938 0.87891-0.30859l2.3398-1.8711 2.3398 1.8711c0.42188 0.33984 1 0.41016 1.4883 0.17188 0.48828-0.23047 0.80078-0.73047 0.80078-1.2695v-6.9688h6.5312v22.32l-22.32-0.003906z" fill="#ea5b0a"></path><path d="m72.52 66.328h-35.68c-0.78125 0-1.4102 0.62891-1.4102 1.4102s0.62891 1.4102 1.4102 1.4102h35.672c0.78125 0 1.4102-0.62891 1.4102-1.4102 0-0.77734-0.62109-1.4102-1.4023-1.4102z" fill="#ea5b0a"></path><path d="m72.52 73.852h-35.68c-0.78125 0-1.4102 0.62891-1.4102 1.4102s0.62891 1.4102 1.4102 1.4102h35.672c0.78125 0 1.4102-0.62891 1.4102-1.4102 0.007813-0.78125-0.62109-1.4102-1.4023-1.4102z" fill="#ea5b0a"></path><path d="m72.52 81.379h-35.68c-0.78125 0-1.4102 0.62891-1.4102 1.4102s0.62891 1.4102 1.4102 1.4102h35.672c0.78125 0 1.4102-0.62891 1.4102-1.4102 0.007813-0.77734-0.62109-1.4102-1.4023-1.4102z" fill="#ea5b0a"></path></svg>