<svg xmlns="http://www.w3.org/2000/svg" width="1200pt" height="1200pt" viewBox="0 0 1200 1200"><g fill="#ea5b0a"><path d="m123.74 863.55c1.207 1.3477 2.5273 2.582 3.7969 3.8711v-0.003906c76.84 89.52 181.66 150.46 297.46 172.96 115.8 22.5 235.82 5.2383 340.59-48.996-29.531 3.8281-59.496 2.7266-88.668-3.2578-79.203 26.07-163.78 31.328-245.61 15.258-81.82-16.066-158.13-52.91-221.59-107 6.7305-2.1641 12.883-5.832 17.988-10.723 27.621-26.77 26.047-65.012 24.664-98.758-1.582-38.609-1.0156-63.117 20.215-77.949 24.996-17.188 42.922-42.848 50.465-72.234 2.9062-15.965 2.6992-32.34-0.60547-48.23-3.207-12.344-3.1172-25.316 0.25781-37.617 2.0078-4.1367 4.3984-8.0742 7.1406-11.766 4.9141-6.5938 8.9375-13.805 11.965-21.449 9.4922-26.293-1.2266-55.5-27.969-76.234v-0.003906c-5.832-4.8125-10.078-11.273-12.176-18.539-2.0977-7.2617-1.957-14.992 0.41016-22.172l0.42969-1.3828c5.3633-12.953 6.1367-27.348 2.1875-40.797-16.496-43.469-49.07-65.121-91.957-61.027-4.3477 0.64062-14.117-15.602-19.512-24.18-11.344-18.051-25.84-41.066-49.762-51.258 51.77-65.148 119.28-116.04 196.16-147.86 7.1836 50.426 52.305 51.109 80.25 51.445 13.09-1 26.242 0.80469 38.582 5.293 5.9688 3.043 10.742 8.0039 13.555 14.082 11.461-5.2812 23.543-9.082 35.965-11.305-5.8086-15.266-16.953-27.91-31.367-35.59-17.195-9.5117-37.969-9.7578-56.297-9.9805-36.441-0.43359-44.027-2.7422-44.254-27.305h0.003906c84.746-27.223 175.33-30.715 261.92-10.102 86.59 20.613 165.88 64.547 229.27 127.04 63.391 62.488 108.46 141.14 130.31 227.43-2.6953-1.6211-5.4375-3.3789-8.082-5.0938-15.508-10.043-36.777-23.805-60.105-12.543-9.3594 5.125-17.172 12.66-22.633 21.828-2 3.1445-4.3164 6.0742-6.918 8.7422-7.0586 6.3008-22.734 3.4141-31.66-5.8125-11.602-11.992-16.004-31.199-18.777-48.414-1.7617-17.297-7.707-33.902-17.324-48.387-10.617-11.871-24.59-20.238-40.07-23.996-6.3906-1.7773-12.48-4.4922-18.074-8.0547-2.7656-6.2344-4.1953-12.977-4.2031-19.793-1.1992-13.066-2.6992-29.316-15.414-39.148-18.934-14.613-46.949-16.195-74.953-4.2305-2.3047 0.98828-4.4258 2.1367-6.6367 3.2148h-0.003906c4.8945 11.809 8.25 24.191 9.9922 36.855 3.8125-2.0547 7.5859-3.9648 11.387-5.5898 11.434-4.8906 26.797-7.6641 36.328-1.2617v-0.003906c1.0508 4.4688 1.7109 9.0234 1.9688 13.605-0.023438 14.531 4.4844 28.711 12.891 40.566 9.5273 9.3633 21.387 16.008 34.348 19.234 8.1406 2.0078 15.75 5.7383 22.32 10.941 5.8711 9.7383 9.4336 20.688 10.422 32.016 3.707 22.961 10.023 49.062 28.84 68.508h-0.003906c12.844 12.988 30.289 20.391 48.551 20.602 12.887 0.21875 25.391-4.3789 35.066-12.891 4.8203-4.5586 9.0781-9.6758 12.688-15.242 2.1055-3.6602 4.875-6.8867 8.168-9.5234 4.3398-2.0703 14.492 4.4688 23.43 10.254 11.047 8.2461 23.785 13.934 37.301 16.652 11.039 69.016 7.0469 139.6-11.695 206.93 7.2578 28.945 9.7344 58.879 7.3359 88.621 43.758-95.383 57.918-201.69 40.66-305.2-17.258-103.51-65.145-199.48-137.48-275.5-72.336-76.027-165.8-128.63-268.32-151.02-102.52-22.387-209.41-13.527-306.85 25.426-97.441 38.957-180.97 106.22-239.8 193.12-58.832 86.895-90.273 189.43-90.258 294.37-0.10547 122.6 42.895 241.33 121.48 335.43 0.64844 1.1172 1.4062 2.1641 2.2656 3.1289zm-4.1289-608.97c16.992 1.4531 27.828 16.371 41.875 38.707 13 20.699 27.668 44 54.84 41.555 16.297-1.6016 39.477 0.56641 53.301 37.004l0.003906 0.003906c0.22266 5.6289-0.78906 11.242-2.9688 16.441l-0.4375 1.457c-4.5742 14.457-4.668 29.965-0.26953 44.477 4.3984 14.516 13.086 27.359 24.914 36.848 10.539 8.168 20.188 21.352 15.664 33.875-2.0117 4.5938-4.5586 8.9336-7.5859 12.93-4.1836 5.7031-7.7734 11.816-10.723 18.246-6.4336 18.613-7.4336 38.676-2.8828 57.84 2.4531 11.195 2.8711 22.738 1.2344 34.078-5.4805 20.41-18.055 38.203-35.469 50.18-39.598 27.656-37.711 73.445-36.199 110.23 1.207 29.625 2.2617 55.207-13.293 70.285-2.4727 2.3125-5.8594 3.3789-9.2109 2.9023-14.152-2.1641-27.184-8.9688-37.051-19.344-69.418-80.57-110.5-181.68-116.96-287.83-6.457-106.15 22.074-211.5 81.215-299.88z"></path><path d="m713.34 733.64c6.0039-6.4609 10.512-14.168 13.199-22.57 1.0156-3.3164 2.5508-6.457 4.543-9.3008 4.4062-1.7734 9.1172-2.6797 13.871-2.6641 14.273 0.35938 28.074-5.1484 38.176-15.242 5.3438-6.8398 8.9297-14.883 10.445-23.43 7.4805-26.336 10.438-53.75 8.75-81.078-13.141-6.5664-27.125-11.277-41.559-14.004 9.6758 24.246 3.6172 55.801-3.6758 86.402-0.48828 2.6406-1.293 5.2148-2.3984 7.6641-4.1602 1.4922-8.543 2.2773-12.961 2.3242-12.652-0.074219-24.977 3.9961-35.094 11.59-7.0234 6.6445-12.215 14.984-15.07 24.219-1.0391 3.3438-2.582 6.5156-4.5664 9.4023-2.1602 2.125-9.8867 1.6289-16.984-2.2539-7.6914-4.6602-14.918-10.047-21.578-16.086-15.41-13.008-32.875-27.758-57.23-28.344-0.49609-0.019531-0.98047-0.019531-1.457-0.019531-1.9062 0-3.7227 0.14062-5.5312 0.27734h0.003906c-5.1328 12.453-8.6602 25.504-10.504 38.844 2.418-0.21875 4.7422-0.50781 6.9336-0.78516v-0.003907c3.1914-0.47656 6.4102-0.75781 9.6406-0.83203 11.168 0.27344 21.727 9.1914 33.957 19.52 8.5469 7.6953 17.848 14.508 27.766 20.332 9.3242 5.1406 19.77 7.9023 30.414 8.0391 11.496 0.30469 22.629-4.0195 30.91-12z"></path><path d="m534.38 525c7.5117 0.078125 14.883-2.0586 21.191-6.1406 6.3047-4.0859 11.27-9.9336 14.277-16.82 51.113-115.44 77.031-189.61 77.031-220.43 0.09375-29.898-11.715-58.602-32.824-79.777s-49.777-33.078-79.676-33.078-58.566 11.902-79.676 33.078-32.918 49.879-32.824 79.777c0 30.824 25.918 104.99 77.031 220.43v0.003906c3.0078 6.8867 7.9727 12.734 14.277 16.82 6.3086 4.082 13.68 6.2188 21.191 6.1406zm0-318.75c19.934 0.070312 39.023 8.043 53.082 22.172 14.062 14.125 21.941 33.254 21.918 53.184 0 24.125-27.594 100.86-73.828 205.25-0.23828 0.55078-2.1055 0.55078-2.3438 0-46.234-104.4-73.828-181.13-73.828-205.25-0.023438-19.93 7.8555-39.059 21.918-53.184 14.059-14.129 33.148-22.102 53.082-22.172z"></path><path d="m590.62 281.25c0-14.918-5.9258-29.223-16.473-39.773-10.547-10.547-24.855-16.477-39.77-16.477-14.918 0-29.227 5.9219-39.777 16.469-10.547 10.547-16.477 24.852-16.48 39.77s5.918 29.223 16.465 39.777c10.543 10.551 24.848 16.48 39.766 16.484 14.918-0.015625 29.219-5.9453 39.766-16.488 10.551-10.547 16.484-24.848 16.504-39.762zm-75 0c0-4.9727 1.9766-9.7422 5.4922-13.262 3.5195-3.5156 8.2891-5.4883 13.266-5.4883 4.9727 0 9.7422 1.9805 13.258 5.5 3.5156 3.5156 5.4883 8.2891 5.4844 13.262-0.003906 4.9766-1.9844 9.7422-5.5039 13.258-3.5195 3.5156-8.2891 5.4844-13.266 5.4805-4.9688-0.007812-9.7305-1.9883-13.242-5.5039-3.5117-3.5117-5.4844-8.2773-5.4883-13.246z"></path><path d="m928.86 847.84c30.688-48.148 42.723-105.85 33.84-162.25-8.8789-56.402-38.062-107.62-82.059-144.01-43.996-36.391-99.773-55.449-156.84-53.594-57.066 1.8594-111.49 24.504-153.03 63.676-41.539 39.172-67.332 92.172-72.527 149.03-5.1953 56.859 10.566 113.66 44.316 159.71 33.75 46.055 83.168 78.188 138.95 90.355 55.785 12.168 114.09 3.5312 163.96-24.281l262.84 262.84c6.9219 6.9492 16.34 10.836 26.148 10.793h0.55078-0.003906c9.8984-0.13281 19.344-4.1406 26.312-11.168l27.633-27.633c7.0273-6.9648 11.039-16.414 11.168-26.312 0.1875-9.9961-3.7109-19.637-10.793-26.695zm-336.82 13.25c-36.918-36.914-57.664-86.984-57.668-139.19-0.007813-52.211 20.723-102.29 57.629-139.21 36.91-36.926 86.973-57.68 139.18-57.695 52.207-0.019532 102.29 20.699 139.22 57.602 36.934 36.902 57.699 86.961 57.727 139.17 0.027344 52.211-20.68 102.29-57.574 139.23l-0.17969 0.17969c-36.961 36.824-87.012 57.496-139.19 57.48-52.172-0.015625-102.21-20.719-139.15-57.566zm570.4 273.7-27.621 28.016-256.52-256.52 18.5-18.5 0.18359-0.17578 0.17578-0.18359 9.125-9.125 256.33 256.17c0.003906 0.027344 0.003906 0.14844-0.16797 0.32031z"></path><path d="m841.64 801.06c-1.0859-6.9727-4.5547-13.352-9.8125-18.055-5.2617-4.7031-11.988-7.4414-19.035-7.7461-1.8672-0.32031-4.6953-0.78906-5.0898-0.90625-1.7578-2.9414-3.2578-6.0273-4.4805-9.2266-4.1562-9.7305-16.754-39.34-45.5-28.234-10.102 4.25-18.449 11.82-23.668 21.457-3.7734 5.9219-4.668 6.8555-7.4336 7.6797v0.003906c-2.6719 0.49609-5.375 0.78516-8.0938 0.86719-11.848 0.77734-31.668 2.0703-42.984 20.746-3.4727 7.375-4.7383 15.594-3.6406 23.668 0.58594 7.5508 0.003906 15.148-1.7305 22.523-6.2422 8.6875-10.906 18.41-13.781 28.719 38.109 20.133 82.727 24.043 123.75 10.844 1.6055-2.4648 3.7656-4.5195 6.3086-6 1.6289-0.45703 3.2891-0.79297 4.9688-1 2.043-0.32813 4.0938-0.66016 6.1328-1.1172h0.003906c3.0273-0.70312 5.9844-1.6758 8.8359-2.9023 4.25-2.2695 8.4336-4.6992 12.504-7.3789 16.586-12.691 25.234-33.203 22.742-53.941zm-52.312 27.641c-1.2344 0.27344-2.5 0.45703-3.7617 0.66016h-0.003906c-16.828 1.8516-31.633 11.965-39.477 26.969-2.2148 3.3086-4.7148 6.418-7.4688 9.293-8.4414 7.9648-23.969 9.082-40.484 9.5938l-1.4453 0.046875c-1.3164 0.046875-3.1875 0.15625-4.6523 0.082031 1.207-7.4023 4.3125-14.371 9.0078-20.223 8.8984-12.91 8.5859-31.137 8.3594-44.457-0.027344-1.4727-0.0625-3.2227-0.0625-4.75l-0.003906-0.003906c3.8047-0.98828 7.7109-1.5195 11.637-1.582 5.5469-0.16406 11.059-0.95703 16.426-2.3711 12.141-3.8203 22.301-12.242 28.301-23.465 0.55078-0.87109 1.0352-1.6211 1.4648-2.2695 0.57812 1.2891 1.125 2.5742 1.5742 3.625 2.832 8.1016 7.3438 15.52 13.238 21.762 6.3164 5.543 14.121 9.1094 22.449 10.262-0.70703 3.9297-2.4922 7.5859-5.1602 10.559-2.668 2.9727-6.1094 5.1406-9.9375 6.2695z"></path><path d="m704.96 440.98c2.7266 2.8008 5.2734 5.6016 7.8203 8.4062 0.40234 0.44141 0.84766 0.90625 1.2539 1.3516h-0.003906c30.25-1.9062 60.605 1.2227 89.832 9.2656-2.9219-7.6328-7.5586-14.496-13.547-20.059-12.188-10.832-29.051-14.719-44.754-10.316-1.6836-1.793-3.3516-3.625-5.0547-5.4922-2.8281-3.1055-5.6562-6.207-8.6992-9.3281h0.003906c-15.719-14.902-38.062-20.543-58.969-14.887-7.0859 2.1992-14.363 3.7344-21.734 4.5898-4.4375 11.609-9.4531 24.305-15.156 38.246 16.238 0.17578 32.406-2.1875 47.914-7.0039 7.457-1.4688 15.184 0.44531 21.094 5.2266z"></path><path d="m396.52 502.85c9.6406 23.973 29.16 42.617 53.551 51.145 3.1211 0.87891 4.4219 1.2344 5.5664 17.934 0.035156 10.555 2.293 20.98 6.6172 30.605 3.9297 7.4922 9.5391 13.973 16.383 18.941 4.8711-12.301 10.641-24.23 17.262-35.684-0.11719-0.20703-0.28125-0.36328-0.39062-0.57812-1.625-5.125-2.4531-10.465-2.4648-15.84-0.28516-7.1641-1.2969-14.285-3.0156-21.246-10.195-7.2695-18.426-16.949-23.953-28.184-1.918-0.80469-3.8789-1.4922-5.8789-2.0586-13.547-5.5469-24.184-16.473-29.359-30.168-7.5352-17.293-8.2227-36.797-1.9336-54.578-13.43-32.309-25.199-65.277-35.262-98.785l-0.09375 0.15234c-8.6133 14.879-3.1406 32.566 1.6953 48.164h-0.003906c2.7812 7.1953 4.4141 14.785 4.8438 22.484-15.988 30.328-17.297 66.285-3.5625 97.695z"></path></g></svg>