<svg xmlns="http://www.w3.org/2000/svg" width="1200pt" height="1200pt" viewBox="0 0 1200 1200"><g fill="#ea5b0a"><path d="m525 787.5v-450c0-20.738-16.801-37.5-37.5-37.5v-75c0-12.039-5.7734-23.363-15.602-30.449-9.8242-7.0859-22.387-9.0391-33.789-5.1367l-25.609 8.5859v-85.5c0-14.664-8.5508-27.938-21.824-34.051-13.312-6.1133-28.914-3.9766-40.086 5.5859l-262.5 225c-0.039063 0.039063-0.078125 0.11328-0.11328 0.15234-0.375 0.33594-0.63672 0.78906-1.0117 1.125-1.7266 1.6484-2.8906 3.6758-4.3164 5.5859-1.1992 1.6484-2.8125 3-3.7109 4.8359-0.1875 0.37891-0.14844 0.78906-0.33594 1.1641-0.90234 1.9531-1.1641 4.125-1.7266 6.2266-0.60156 2.2891-1.5742 4.4609-1.7266 6.8242-0.039063 0.375 0.14844 0.75 0.14844 1.1641-0.035156 0.48828-0.29688 0.89844-0.29688 1.3867v450c0 20.738 16.801 37.5 37.5 37.5h375c20.699 0 37.5-16.762 37.5-37.5zm-112.5-510.45v22.949h-68.887zm-75-54.074-55.312 18.449 55.312-47.402zm112.5 527.02h-300v-375h300z"></path><path d="m225 600h150c20.699 0 37.5-16.762 37.5-37.5v-112.5c0-20.738-16.801-37.5-37.5-37.5h-150c-20.699 0-37.5 16.762-37.5 37.5v112.5c0 20.738 16.801 37.5 37.5 37.5zm37.5-112.5h75v37.5h-75z"></path><path d="m787.5 375v-75c0-20.738-16.801-37.5-37.5-37.5s-37.5 16.762-37.5 37.5v75c0 20.738 16.801 37.5 37.5 37.5s37.5-16.762 37.5-37.5z"></path><path d="m900 375v-75c0-20.738-16.801-37.5-37.5-37.5s-37.5 16.762-37.5 37.5v75c0 20.738 16.801 37.5 37.5 37.5s37.5-16.762 37.5-37.5z"></path><path d="m1012.5 375v-75c0-20.738-16.801-37.5-37.5-37.5s-37.5 16.762-37.5 37.5v75c0 20.738 16.801 37.5 37.5 37.5s37.5-16.762 37.5-37.5z"></path><path d="m787.5 675v-75c0-20.738-16.801-37.5-37.5-37.5s-37.5 16.762-37.5 37.5v75c0 20.738 16.801 37.5 37.5 37.5s37.5-16.762 37.5-37.5z"></path><path d="m900 675v-75c0-20.738-16.801-37.5-37.5-37.5s-37.5 16.762-37.5 37.5v75c0 20.738 16.801 37.5 37.5 37.5s37.5-16.762 37.5-37.5z"></path><path d="m1012.5 675v-75c0-20.738-16.801-37.5-37.5-37.5s-37.5 16.762-37.5 37.5v75c0 20.738 16.801 37.5 37.5 37.5s37.5-16.762 37.5-37.5z"></path><path d="m787.5 975v-75c0-20.738-16.801-37.5-37.5-37.5s-37.5 16.762-37.5 37.5v75c0 20.738 16.801 37.5 37.5 37.5s37.5-16.762 37.5-37.5z"></path><path d="m900 975v-75c0-20.738-16.801-37.5-37.5-37.5s-37.5 16.762-37.5 37.5v75c0 20.738 16.801 37.5 37.5 37.5s37.5-16.762 37.5-37.5z"></path><path d="m1012.5 975v-75c0-20.738-16.801-37.5-37.5-37.5s-37.5 16.762-37.5 37.5v75c0 20.738 16.801 37.5 37.5 37.5s37.5-16.762 37.5-37.5z"></path><path d="m1012.5 150h-450c-20.699 0-37.5 16.762-37.5 37.5s16.801 37.5 37.5 37.5h450c20.664 0 37.5 16.801 37.5 37.5v187.5h-450c-20.699 0-37.5 16.762-37.5 37.5s16.801 37.5 37.5 37.5h450v225h-450c-20.699 0-37.5 16.762-37.5 37.5s16.801 37.5 37.5 37.5h450v187.5c0 20.699-16.836 37.5-37.5 37.5h-525c-20.664 0-37.5-16.801-37.5-37.5v-112.5c0-20.738-16.801-37.5-37.5-37.5s-37.5 16.762-37.5 37.5v112.5c0 62.023 50.477 112.5 112.5 112.5h525c62.023 0 112.5-50.477 112.5-112.5v-750c0-62.023-50.477-112.5-112.5-112.5z"></path></g></svg>