<svg width="24" height="24" viewBox="0 0 24 24" fill="none" xmlns="http://www.w3.org/2000/svg">
<path fill-rule="evenodd" clip-rule="evenodd" d="M0.8 7.2V1.8H23.2V7.2H0.8ZM0 1.5C0 1.22386 0.223858 1 0.5 1H23.5C23.7761 1 24 1.22386 24 1.5V7.5C24 7.77614 23.7761 8 23.5 8H0.5C0.223857 8 0 7.77614 0 7.5V1.5ZM7.29968 13.0063C7.22384 12.9924 7.14648 13.0018 7.07663 13.0322C7.00712 13.0624 6.94935 13.1117 6.90744 13.1711L5.37231 15.356L4.65143 14.3282C4.61498 14.2758 4.56635 14.2312 4.50788 14.2003C4.44904 14.1692 4.38255 14.1532 4.31469 14.1553C4.24814 14.1575 4.18429 14.1767 4.12817 14.2097C4.07222 14.2426 4.02603 14.2879 3.9916 14.3405L2.06948 17.3349C2.02908 17.3978 2.00611 17.4699 2.00106 17.5432C1.99602 17.6164 2.00893 17.6907 2.03956 17.7583C2.07021 17.8259 2.11841 17.8862 2.18177 17.93C2.24545 17.9742 2.32141 17.9994 2.4012 18L8.59832 18L8.60056 18C8.67003 17.9992 8.73685 17.9796 8.79516 17.9449C8.85325 17.9103 8.9005 17.8622 8.93476 17.8066C8.96897 17.7511 8.98989 17.6887 8.99713 17.625C9.00343 17.5694 8.99936 17.5129 8.98497 17.4588C8.98345 17.4484 8.98103 17.4381 8.97773 17.4281L7.61162 13.287C7.5897 13.2192 7.55119 13.1563 7.49743 13.1062C7.44327 13.0558 7.3753 13.0201 7.29968 13.0063ZM5.69489 16.3438L7.10051 14.3413L8.03003 17.1569L3.16472 17.1444L4.33954 15.322L5.04711 16.3389L5.04767 16.3397C5.08324 16.3903 5.1301 16.4334 5.18619 16.4641C5.24244 16.4948 5.30578 16.5118 5.3712 16.5121L5.374 16.5121C5.43845 16.5115 5.50087 16.4949 5.55657 16.465C5.61211 16.4351 5.65891 16.3932 5.69489 16.3438ZM20.2997 13.0063C20.2238 12.9924 20.1465 13.0018 20.0766 13.0322C20.0071 13.0624 19.9493 13.1117 19.9074 13.1711L18.3723 15.356L17.6514 14.3282C17.615 14.2758 17.5663 14.2312 17.5079 14.2003C17.449 14.1692 17.3826 14.1532 17.3147 14.1553C17.2481 14.1575 17.1843 14.1767 17.1282 14.2097C17.0722 14.2426 17.026 14.2879 16.9916 14.3405L15.0695 17.3349C15.0291 17.3978 15.0061 17.4699 15.0011 17.5432C14.996 17.6164 15.0089 17.6907 15.0396 17.7583C15.0702 17.8259 15.1184 17.8862 15.1818 17.93C15.2455 17.9742 15.3214 17.9994 15.4012 18L21.5983 18L21.6006 18C21.67 17.9992 21.7368 17.9796 21.7952 17.9449C21.8533 17.9103 21.9005 17.8622 21.9348 17.8066C21.969 17.7511 21.9899 17.6887 21.9971 17.625C22.0034 17.5694 21.9994 17.5129 21.985 17.4588C21.9835 17.4484 21.981 17.4381 21.9777 17.4281L20.6116 13.287C20.5897 13.2192 20.5512 13.1563 20.4974 13.1062C20.4433 13.0558 20.3753 13.0201 20.2997 13.0063ZM18.6949 16.3438L20.1005 14.3413L21.03 17.1569L16.1647 17.1444L17.3395 15.322L18.0471 16.3389L18.0477 16.3397C18.0832 16.3903 18.1301 16.4334 18.1862 16.4641C18.2424 16.4948 18.3058 16.5118 18.3712 16.5121L18.374 16.5121C18.4385 16.5115 18.5009 16.4949 18.5566 16.465C18.6121 16.4351 18.6589 16.3932 18.6949 16.3438ZM20.5012 5.77895L22.1054 3.56008C22.1795 3.45761 22.2188 3.35437 22.2188 3.26855C22.2188 3.10263 22.0781 3 21.8427 3L18.3756 3C18.1405 3 18.0001 3.1025 18.0001 3.26803C18.0001 3.35398 18.0394 3.45558 18.1137 3.55827L19.7179 5.77818C19.8212 5.92094 19.9603 6 20.1096 6C20.2589 6.00003 20.3979 5.92188 20.5012 5.77895ZM0.8 21.2V9.8H10.2V21.2H0.8ZM0 9.5C0 9.22386 0.223858 9 0.5 9H10.5C10.7761 9 11 9.22386 11 9.5V21.5C11 21.7761 10.7761 22 10.5 22H0.5C0.223858 22 0 21.7761 0 21.5V9.5ZM13.8 9.8V21.2H23.2V9.8H13.8ZM13.5 9C13.2239 9 13 9.22386 13 9.5V21.5C13 21.7761 13.2239 22 13.5 22H23.5C23.7761 22 24 21.7761 24 21.5V9.5C24 9.22386 23.7761 9 23.5 9H13.5ZM3 4.40001H11V3.60001H3V4.40001Z" fill="#661FF4"/>
</svg>
