<svg xmlns="http://www.w3.org/2000/svg" width="1200pt" height="1200pt" viewBox="0 0 1200 1200"><path d="m570.05 985.55c7.8281-0.79688 14.812 4.9219 15.562 12.656 0.79688 7.8281-4.8281 14.812-12.656 15.562-8.9062 0.98438-17.906 1.6406-27 2.1094-9.4688 0.46875-18.469 0.79688-27.094 0.79688-140.34 0-267.47-56.859-359.48-148.87-92.016-92.016-148.87-219.1-148.87-359.48 0-140.34 56.859-267.47 148.87-359.48 92.016-92.016 219.1-148.87 359.48-148.87 140.34 0 267.47 56.859 359.48 148.87 92.016 92.016 148.87 219.1 148.87 359.48 0 33.094-3.1875 65.578-9.2812 97.031-6.1875 32.203-15.562 63.469-27.562 93.141-2.9062 7.3594-11.203 10.828-18.469 7.9219s-10.734-11.203-7.8281-18.469c11.297-28.031 20.109-57.469 26.016-87.938 4.8281-25.172 7.7344-51 8.5312-77.484h-174.71c-0.1875 8.1094-0.5625 16.359-1.1719 24.656-0.89063 12.75-2.1094 25.641-3.9844 38.578-0.98437 7.8281-8.1094 13.266-15.844 12.188-7.8281-0.98438-13.266-8.1094-12.188-15.984 1.5469-12 2.8125-24.281 3.6562-36.75 0.46875-7.4531 0.89063-15 1.0781-22.734h-259.36l1.2656 212.34c-0.1875 7.8281-6.6562 14.016-14.531 13.828-63.938-1.7344-129.61 5.0156-193.87 20.203-6.2812 1.4531-12.562 3-18.75 4.6406 2.625 4.8281 5.3438 9.5625 8.1094 14.297 45 76.406 108.42 141.98 186.32 189.79v-82.406c0-7.8281 6.375-14.203 14.203-14.203s14.203 6.375 14.203 14.203v92.766c3.8906-0.09375 7.7344-0.28125 11.438-0.46875 8.5312-0.375 17.109-1.1719 25.547-2.0156zm554.21 129.05c-13.922 1.5469-24 14.016-22.453 28.031 1.5469 13.922 14.109 24 28.031 22.453s24-14.109 22.453-28.031-14.016-24-28.031-22.453zm-209.16-120.94c-79.031 74.578-203.63 79.828-288.94 8.2969-91.875-77.016-103.97-214.55-27-306.47 77.016-91.875 214.55-103.97 306.47-27 85.312 71.484 101.95 195.1 42.375 285.94l33.469 27.938c18.75-7.3594 40.734-4.6406 57.375 9l130.4 109.12c23.906 20.016 27.094 55.547 7.0781 79.312-20.109 23.812-55.547 27.094-79.312 6.9844l-130.69-108.84c-16.453-14.016-23.719-36-18.469-57l-32.719-27.375zm-39.75-289.03c-71.953-60.094-179.63-50.766-240.1 21.188-60.188 71.953-50.766 179.63 21.188 240.1 71.953 60.375 179.63 50.766 240.1-21.188 60.375-71.953 50.766-179.63-21.188-240.1zm-695.81 143.06c74.672 74.672 173.95 124.87 284.48 137.44-70.125-48.375-127.87-111.14-170.16-182.9-4.0781-6.8906-7.9219-13.734-11.625-20.719-41.203 12.469-81.469 28.547-119.77 48.188 5.5312 6.0938 11.203 12.094 17.016 18zm-140.34-325.13c3.1875 107.58 41.672 206.34 104.48 284.9 40.125-21 82.406-38.203 125.68-51.656-34.031-71.953-53.391-151.22-55.406-233.26zm140.34-353.58c-5.2031 5.2031-10.266 10.547-15.281 15.984 38.578 19.641 78.469 35.672 119.16 48 3.375-6.1875 6.8906-12.375 10.453-18.469 42.281-71.766 100.03-134.48 170.16-182.9-110.58 12.562-209.81 62.766-284.48 137.44zm-34.266 38.203c-63.75 78.844-102.94 178.36-106.12 286.92h174.71c2.0156-82.922 21.75-162.89 56.484-235.45-42.75-13.359-84.656-30.469-125.06-51.469zm712.92-38.203c-74.672-74.672-173.95-124.87-284.48-137.44 70.125 48.469 127.87 111.14 170.16 182.9l3.5625 6.1875c38.109-13.828 75.281-30.938 111.14-51.281zm140.34 325.13c-3.375-116.3-48.188-222.1-119.95-303.47-37.922 21.938-77.203 40.359-117.52 55.219 38.578 75.844 60.656 160.5 62.766 248.21h174.71zm-465.37-455.16 1.3594 224.72c62.766-3.1875 125.16-14.391 185.53-33.75l-0.65625-1.1719c-45-76.406-108.33-141.89-186.24-189.79zm1.5469 253.18 1.1719 201.98h259.55c-2.2031-84.656-23.719-166.08-61.312-238.82-64.922 21.188-131.95 33.469-199.36 36.844zm-25.828 428.06-1.1719-197.63h-265.45c2.1094 79.312 21.188 155.95 54.562 225.19 8.5312-2.3438 17.016-4.4531 25.641-6.4688 61.641-14.531 124.6-21.562 186.42-21.094zm-1.3594-226.08-1.1719-201.1c-70.031 0.89062-140.16-7.9219-208.45-26.297-34.031 69.844-53.484 147.24-55.641 227.44h265.26zm-1.3594-229.45-1.3594-225.79c-77.953 47.766-141.52 113.48-186.52 189.89-2.4375 4.0781-4.6406 8.0156-6.9844 12.094 63.844 16.734 129.42 24.562 194.81 23.812z"></path></svg>