<svg xmlns="http://www.w3.org/2000/svg" width="512pt" height="512pt" viewBox="0 0 512 512"><path d="m106.15 378.07c-5.5508 0-10.879 2.2031-14.805 6.1289-3.9297 3.9258-6.1328 9.25-6.1367 14.805 0 5.5508 2.207 10.875 6.1328 14.805 3.9258 3.9258 9.25 6.1328 14.801 6.1328 5.5547 0 10.879-2.207 14.805-6.1328 3.9297-3.9258 6.1328-9.25 6.1328-14.805-0.003906-5.5469-2.2109-10.871-6.1328-14.793-3.9258-3.9258-9.2461-6.1328-14.797-6.1406zm0 29.066c-3.2891 0-6.2578-1.9805-7.5195-5.0195-1.2617-3.043-0.56641-6.543 1.7617-8.8711 2.3281-2.3242 5.8281-3.0234 8.8672-1.7617 3.043 1.2617 5.0234 4.2305 5.0234 7.5195-0.007812 4.4883-3.6445 8.125-8.1328 8.1328zm329.63-128.21c-0.79297-2.5586-1.6133-5.3594-2.4688-8.2891-6.8438-23.508-17.199-59.027-46.414-59.027l-50.059-0.003906c-3.5352 0-6.3984 2.8672-6.3984 6.4023v107.66h-10.609v-124.16c0-1.6953-0.67578-3.3242-1.875-4.5234-1.1992-1.1992-2.8281-1.875-4.5234-1.875h-58.879l-0.003906-124.16c0-1.6953-0.67188-3.3242-1.8711-4.5234-1.2031-1.1992-2.8281-1.875-4.5273-1.875h-130.56c-3.5352 0-6.4023 2.8633-6.4023 6.3984v124.13h-58.879c-3.5352 0-6.3984 2.8672-6.3984 6.4023v124.16h-13.918c-1.7031 0-3.332 0.67578-4.5352 1.8828-1.1992 1.207-1.8711 2.8398-1.8633 4.543v66.941c0 1.6992 0.67188 3.3281 1.8711 4.5273 1.2031 1.1992 2.8281 1.875 4.5273 1.875h26.227c2.0781 15.621 11.637 29.246 25.617 36.52 13.984 7.2695 30.629 7.2695 44.613 0 13.98-7.2734 23.539-20.898 25.617-36.52h179.68c0.51953-0.003906 1.0352-0.070313 1.5352-0.19922 0.50391 0.12891 1.0195 0.19531 1.5352 0.19922h26.004c0.21484 0 0.42969 0 0.64062-0.035156 2.0703 15.668 11.652 29.34 25.676 36.633 14.02 7.2891 30.715 7.2852 44.73-0.019531 14.016-7.3008 23.59-20.98 25.645-36.652 0.29687 0.046875 0.59375 0.070313 0.89062 0.074219h19.586c3.5352 0 6.3984-2.8672 6.3984-6.4023v-57.547c-0.019532-14.641-5.0547-28.828-14.262-40.207-9.2109-11.379-22.039-19.258-36.352-22.328zm-14.754-4.707 0.96875 3.2969h-26.113l-0.003907-50.816c13.391 7.207 20.055 30.039 25.145 47.52zm-37.93-49.812-0.003906 53.105h-39.852v-53.105zm-76.066 101.26h-117.76v-117.76h29.117v53.914l0.003906 0.003906c0 2.5859 1.5625 4.918 3.9531 5.9102 2.3906 0.98828 5.1406 0.44141 6.9727-1.3906l18.836-18.836 18.836 18.836c1.832 1.832 4.582 2.3789 6.9727 1.3906 2.3906-0.99219 3.9531-3.3242 3.9531-5.9102v-53.941h29.117zm-206.4-117.76h33.926v38.461l-12.441-12.438v0.003906c-1.1992-1.1992-2.8242-1.875-4.5234-1.875-1.6953 0-3.3242 0.67578-4.5234 1.875l-12.438 12.438zm164.48 0v38.465l-12.438-12.438 0.003906 0.003906c-2.5039-2.4961-6.5547-2.4961-9.0547 0l-12.438 12.438 0.003906-38.461h33.926zm-99.207-130.56h33.926v38.461l-12.445-12.43c-2.5-2.4961-6.5508-2.4961-9.0508 0l-12.438 12.438zm-41.914 0h29.113v53.914h0.003906c0 2.5898 1.5586 4.9258 3.9492 5.9141 2.3945 0.99219 5.1484 0.44531 6.9766-1.3867l18.836-18.836 18.852 18.84c1.832 1.832 4.5859 2.3828 6.9766 1.3906s3.9492-3.3281 3.9453-5.9141v-53.914h29.117v117.76h-117.76zm-65.273 130.54h29.117v53.945c-0.003906 2.5898 1.5547 4.9219 3.9492 5.9102 2.3906 0.99219 5.1406 0.44141 6.9688-1.3906l18.84-18.836 18.836 18.836h0.003906c1.8281 1.832 4.582 2.3789 6.9727 1.3906 2.3906-0.98828 3.9531-3.3203 3.9531-5.9102v-53.914h29.113v117.76h-117.76zm-20.324 130.59h292.05v54.145h-176.37c-2.0781-15.621-11.637-29.25-25.617-36.52-13.984-7.2695-30.629-7.2695-44.613 0-13.98 7.2695-23.539 20.898-25.617 36.52h-19.828zm67.754 96.102c-9.4336 0.003906-18.48-3.7422-25.148-10.414-6.6719-6.668-10.418-15.715-10.418-25.145-0.003907-9.4336 3.7461-18.48 10.414-25.152 6.6719-6.668 15.719-10.414 25.148-10.414 9.4336 0 18.48 3.7461 25.148 10.418 6.668 6.6719 10.414 15.719 10.414 25.148-0.011719 9.4297-3.7617 18.465-10.43 25.133-6.6641 6.6641-15.703 10.414-25.129 10.426zm305.36 0.097656c-9.4609 0.003906-18.531-3.7539-25.219-10.441s-10.449-15.758-10.449-25.215c0-9.4609 3.7578-18.531 10.445-25.219s15.762-10.445 25.219-10.445 18.527 3.7578 25.215 10.445c6.6875 6.6914 10.445 15.762 10.445 25.219-0.011719 9.4531-3.7734 18.52-10.457 25.203s-15.746 10.441-25.199 10.453zm62.086-42.055h-13.172c-0.29688 0-0.59375 0.023438-0.89063 0.066407-2.0547-15.668-11.629-29.348-25.645-36.652-14.016-7.3008-30.711-7.3086-44.734-0.015625-14.02 7.293-23.602 20.965-25.672 36.633-0.21094 0-0.42578-0.03125-0.64062-0.03125h-19.602v-102.3h79.211c13.559 0.015624 26.559 5.4062 36.148 14.996 9.5898 9.5898 14.98 22.59 14.996 36.152zm-62.086-14.633c-5.5781 0-10.93 2.2148-14.875 6.1562-3.9453 3.9453-6.1641 9.293-6.1641 14.875 0 5.5781 2.2148 10.926 6.1602 14.871 3.9414 3.9453 9.293 6.1641 14.871 6.1641 5.5781 0 10.93-2.2148 14.875-6.1602 3.9453-3.9453 6.1602-9.293 6.1602-14.875-0.007813-5.5742-2.2227-10.918-6.168-14.863-3.9414-3.9414-9.2852-6.1602-14.859-6.168zm0 29.262c-3.332 0-6.3359-2.0039-7.6094-5.082-1.2773-3.0742-0.57422-6.6172 1.7812-8.9727s5.8984-3.0586 8.9766-1.7852c3.0742 1.2773 5.082 4.2812 5.0781 7.6094-0.003907 4.543-3.6836 8.2227-8.2266 8.2305z"></path></svg>