<svg xmlns="http://www.w3.org/2000/svg" width="1200pt" height="1200pt" viewBox="0 0 1200 1200"><path d="m501.14 292.78c1.2188 0 2.3906-0.14062 3.4688-0.60938 22.781-7.0781 46.547-11.766 71.297-13.688 6-0.46875 10.688-5.2969 10.688-11.297v-158.76c0-6.375-5.1562-11.531-11.391-11.531h-0.60938c-46.781 2.3906-91.922 11.156-134.53 25.453-6.1406 2.0625-9.2344 9-6.9375 15l57.375 148.22c1.7812 4.4531 6 7.2188 10.547 7.2188zm61.406-171v133.92c-18.234 2.0625-36.234 5.3906-53.859 10.312l-48.375-124.92c33.234-10.078 67.547-16.547 102.23-19.312z" fill="#ea5b0a"></path><path d="m759.84 122.39c-42.609-14.297-87.703-23.062-134.63-25.453h-0.60938c-6.2344 0-11.391 5.1562-11.391 11.531v169.45c28.453 1.2188 55.922 6.1406 81.938 14.297 1.2188 0.375 2.3906 0.60938 3.4688 0.60938 4.5469 0 8.8594-2.7656 10.547-7.2188l57.469-148.22c2.3906-6-0.70312-12.938-6.9375-15zm-68.625 143.68c-17.625-4.9219-35.766-8.2969-53.859-10.312v-133.92c34.781 2.625 69.141 9.1406 102.38 19.312l-48.469 124.92z" fill="#ea5b0a"></path><path d="m739.92 309.94c21.844 10.547 42.375 23.531 61.078 38.625 2.1562 1.6875 4.6875 2.5312 7.3125 2.5312 3.1406 0 6.1406-1.2188 8.2969-3.7031l106.92-117.23c4.3125-4.7812 3.9375-12.375-0.9375-16.547-34.922-29.156-73.688-53.625-115.69-72.469-1.4531-0.70312-3.1406-0.9375-4.5469-0.9375-4.5469 0-9 2.7656-10.781 7.3125l-57.375 147.94c-2.1562 5.625 0.375 11.766 5.7656 14.391zm69.141-141.24c31.219 15.141 60.703 33.609 87.844 55.078l-90.141 98.766c-14.625-10.922-30-20.625-46.078-29.156l48.375-124.78z" fill="#ea5b0a"></path><path d="m888.71 444.94c1.6875 0 3.375-0.375 5.0625-1.2188l142.08-70.781c5.7656-2.8594 8.1562-10.078 5.0625-15.703-22.078-40.078-49.453-76.688-81.234-109.22-2.1562-2.2969-5.1562-3.375-8.0625-3.375-3.1406 0-6.2344 1.3125-8.5312 3.7031l-107.06 117.38c-4.0781 4.4531-3.8438 11.062 0.23438 15.469 16.219 17.531 30.469 36.938 42.609 57.844 2.1562 3.7031 6 5.8594 9.9375 5.8594zm62.906-170.39c23.531 25.312 44.156 53.156 61.547 82.781l-119.77 59.625c-9.6094-15.375-20.297-29.859-32.062-43.453l90.234-99z" fill="#ea5b0a"></path><path d="m929.29 561h1.0781l157.92-14.625c6.4688-0.60938 11.156-6.4688 10.312-12.844-6-45.844-18.141-89.625-35.625-130.69-1.7812-4.3125-6.1406-6.8438-10.547-6.8438-1.6875 0-3.4688 0.375-5.1562 1.2188l-142.31 70.781c-5.2969 2.625-7.5469 8.8594-5.3906 14.531 8.625 21.844 14.859 44.859 18.469 68.766 0.84375 5.625 5.625 9.8438 11.297 9.8438zm116.62-136.45c12.469 31.781 21.469 65.062 26.859 99.141l-133.08 12.375c-3.2344-17.531-7.9219-34.781-13.922-51.609l120-59.766z" fill="#ea5b0a"></path><path d="m1091.5 572.86h-1.0781l-168.71 15.609c0.23438 3.7031 0.60938 7.5469 0.60938 11.297 0 23.859-2.7656 47.156-7.7812 69.469-1.3125 6 2.0625 11.859 7.9219 13.547l152.39 43.453 3.1406 0.46875c5.1562 0 9.8438-3.4688 11.156-8.625 9.2344-37.922 14.391-77.391 14.391-118.22 0-5.3906-0.23437-10.781-0.46875-16.078-0.375-6.1406-5.3906-10.781-11.391-10.781zm-22.828 126.74-128.39-36.609c3.375-17.531 5.2969-35.156 5.8594-52.547l133.31-12.375v1.7812c0 33.141-3.6094 66.609-10.688 99.703z" fill="#ea5b0a"></path><path d="m1066.9 751.69-152.63-43.453-3.1406-0.46875c-4.6875 0-8.8594 2.8594-10.688 7.4531-8.5312 21.938-19.312 42.703-32.156 62.062-3.375 5.0625-2.3906 11.859 2.5312 15.469l126.47 95.531c2.0625 1.5469 4.5469 2.2969 6.9375 2.2969 3.6094 0 7.2188-1.6875 9.375-4.7812 25.312-36.609 45.938-76.688 60.938-119.39 2.1562-6.2344-1.4531-12.938-7.7812-14.766zm-65.531 109.69-106.69-80.531c9.1406-14.766 17.156-30.375 24-46.312l128.76 36.609c-12.141 31.547-27.469 61.781-46.078 90.234z" fill="#ea5b0a"></path><path d="m854.29 813.71c-2.0625-1.5469-4.4531-2.2969-6.7031-2.2969-3.1406 0-6.375 1.3125-8.625 3.8438-15.609 17.156-32.859 32.625-51.703 46.219-4.9219 3.4688-6.375 10.219-3.2344 15.375l83.531 135c2.1562 3.4688 6 5.5312 9.8438 5.5312 2.1562 0 4.4531-0.60938 6.375-1.9219 36.938-25.312 70.312-55.312 99.234-89.391 4.2188-5.0625 3.375-12.609-1.9219-16.547l-126.71-95.625zm26.625 174.24-70.453-113.77c13.688-10.453 26.531-21.938 38.391-34.312l106.92 80.766c-22.547 25.078-47.625 47.625-74.859 67.453z" fill="#ea5b0a"></path><path d="m713.53 1089.6 2.5312-0.375c44.062-10.453 85.781-26.531 124.45-47.531 5.7656-3.1406 7.5469-10.547 4.2188-16.078l-83.625-135.14c-2.1562-3.4688-5.7656-5.2969-9.6094-5.2969-1.7812 0-3.6094 0.46875-5.3906 1.3125-20.391 10.453-41.859 18.703-64.547 24.609-5.8594 1.5469-9.6094 7.2188-8.3906 13.078l29.156 155.86c1.0781 5.5312 5.8594 9.375 11.297 9.375zm33.234-176.68 70.547 113.86c-29.859 15.234-61.312 27.234-93.844 35.859l-24.609-131.53c16.453-4.9219 32.391-11.062 47.859-18.234z" fill="#ea5b0a"></path><path d="m676.08 1085.4-29.156-156c-1.0781-5.5312-5.8594-9.375-11.297-9.375h-1.4531c-11.297 1.4531-22.688 2.2969-34.312 2.2969s-23.062-0.84375-34.312-2.2969h-1.4531c-5.5312 0-10.312 3.7031-11.297 9.2344l-29.156 156c-1.2188 6.375 3.1406 12.609 9.6094 13.453 21.844 3 44.062 4.6875 66.609 4.6875s44.766-1.6875 66.609-4.5469c6.4688-0.84375 10.781-7.0781 9.6094-13.453zm-76.219-6c-16.312 0-33.141-0.9375-50.156-2.7656l24.609-131.53c9 0.84375 17.391 1.2188 25.688 1.2188s16.547-0.375 25.547-1.2188l24.609 131.53c-17.062 1.7812-33.844 2.7656-50.156 2.7656z" fill="#ea5b0a"></path><path d="m359.16 1041.7c38.625 21.141 80.391 37.219 124.45 47.531l2.5312 0.375c5.3906 0 10.219-3.8438 11.297-9.375l29.156-155.86c1.0781-5.8594-2.625-11.531-8.3906-13.078-22.547-5.8594-44.156-14.297-64.453-24.609-1.6875-0.84375-3.6094-1.3125-5.3906-1.3125-3.8438 0-7.4531 1.9219-9.6094 5.2969l-83.625 135.14c-3.4688 5.5312-1.5469 12.938 4.2188 16.078zm93.844-128.76c15.469 7.3125 31.453 13.453 47.859 18.234l-24.609 131.53c-32.531-8.625-63.938-20.625-93.844-35.859l70.547-113.86z" fill="#ea5b0a"></path><path d="m352.22 811.45c-2.3906 0-4.6875 0.70312-6.7031 2.2969l-126.71 95.625c-5.2969 3.9375-6.1406 11.531-1.9219 16.547 28.922 33.938 62.297 64.078 99.234 89.297 1.9219 1.3125 4.2188 1.9219 6.375 1.9219 3.8438 0 7.6875-1.9219 9.8438-5.5312l83.531-135c3.2344-5.1562 1.6875-11.766-3.2344-15.375-18.844-13.547-36.234-29.062-51.703-46.219-2.2969-2.5312-5.3906-3.8438-8.625-3.8438zm37.078 62.625-70.453 113.77c-27.234-19.781-52.312-42.375-74.859-67.453l106.92-80.766c11.859 12.375 24.844 23.859 38.391 34.312z" fill="#ea5b0a"></path><path d="m288.61 707.76-3.1406 0.46875-152.63 43.453c-6.375 1.7812-9.9375 8.5312-7.7812 14.766 15 42.844 35.531 82.922 60.938 119.53 2.1562 3.1406 5.7656 4.7812 9.375 4.7812 2.3906 0 4.9219-0.70312 6.9375-2.2969l126.61-95.531c4.7812-3.7031 5.8594-10.453 2.5312-15.469-12.844-19.312-23.625-40.078-32.156-62.156-1.7812-4.5469-6-7.4531-10.688-7.4531zm-90.234 153.47c-18.469-28.453-33.938-58.688-46.078-90.234l128.76-36.609c6.8438 15.938 14.766 31.453 24 46.312z" fill="#ea5b0a"></path><path d="m121.78 726.61 3.1406-0.46875 152.39-43.312c5.8594-1.6875 9.2344-7.5469 7.9219-13.547-5.0625-22.312-7.7812-45.609-7.7812-69.375 0-3.8438 0.375-7.5469 0.60938-11.391l-168.71-15.609h-1.0781c-6 0-11.062 4.6875-11.391 10.781-0.375 5.3906-0.46875 10.781-0.46875 16.219 0 40.781 5.1562 80.156 14.391 118.08 1.3125 5.1562 6 8.625 11.156 8.625zm-1.4062-128.68 133.31 12.375c0.60937 17.391 2.5312 35.062 5.8594 52.547l-128.39 36.469c-7.0781-33.141-10.688-66.609-10.688-99.609v-1.9219z" fill="#ea5b0a"></path><path d="m111.61 546.24 157.78 14.625h1.0781c5.625 0 10.312-4.0781 11.297-9.8438 3.6094-23.859 9.8438-46.922 18.469-68.766 2.1562-5.5312 0-11.766-5.3906-14.531l-142.31-70.781c-1.6875-0.84375-3.375-1.2188-5.1562-1.2188-4.4531 0-8.625 2.5312-10.547 6.8438-17.531 41.062-29.531 84.844-35.625 130.69-0.84375 6.375 3.9375 12.234 10.312 12.844zm42.234-121.69 120 59.766c-6 16.781-10.547 34.078-13.922 51.609l-133.08-12.375c5.3906-34.078 14.391-67.312 26.859-99z" fill="#ea5b0a"></path><path d="m164.06 372.94 142.08 70.781c1.5469 0.84375 3.375 1.2188 5.0625 1.2188 3.9375 0 7.7812-2.1562 9.9375-5.8594 12-20.859 26.297-40.219 42.609-57.844 4.0781-4.3125 4.2188-11.062 0.23438-15.469l-106.92-117.38c-2.2969-2.5312-5.3906-3.7031-8.5312-3.7031-2.8594 0-5.8594 1.0781-8.0625 3.375-31.781 32.531-59.156 69.141-81.234 109.22-3.1406 5.625-0.84375 12.844 5.0625 15.703zm84.094-98.391 90.234 99c-11.766 13.547-22.547 28.219-32.062 43.547l-119.77-59.625c17.531-29.766 38.156-57.469 61.688-82.922z" fill="#ea5b0a"></path><path d="m397.69 140.16c-1.5469 0-3.1406 0.375-4.5469 0.9375-42 18.938-80.766 43.453-115.69 72.469-4.9219 4.2188-5.3906 11.766-1.0781 16.547l106.92 117.23c2.2969 2.3906 5.2969 3.7031 8.2969 3.7031 2.5312 0 5.1562-0.84375 7.3125-2.625 18.703-15 39.234-27.938 61.078-38.625 5.3906-2.625 7.9219-8.7656 5.7656-14.391l-57.375-148.08c-1.7812-4.5469-6.1406-7.4531-10.781-7.4531zm-4.5469 182.53-90.141-98.859c27.234-21.469 56.625-39.938 87.844-55.078l48.375 124.78c-16.078 8.3906-31.547 18.234-46.078 29.156z" fill="#ea5b0a"></path></svg>