<svg xmlns="http://www.w3.org/2000/svg" width="1200pt" height="1200pt" viewBox="0 0 1200 1200"><path d="m600 50.195c-93.039 0-168.8 75.762-168.8 168.8 0 49.5 21.438 94.09 55.52 124.97v0.003906c0.15234 0.14062 0.30859 0.28125 0.46875 0.41797 29.922 26.918 69.5 43.309 112.81 43.309 93.039 0 168.7-75.66 168.7-168.7s-75.66-168.8-168.7-168.8zm0 26.668c78.625 0 142.03 63.508 142.03 142.14 0 32.117-10.59 61.691-28.465 85.441-9.2188-36.949-36.141-66.965-71.277-80.547 14.887-12.227 24.426-30.723 24.426-51.355 0-36.617-30.02-66.535-66.719-66.535-36.699 0-66.848 29.918-66.848 66.535 0 20.637 9.582 39.156 24.504 51.379-35.125 13.582-62.086 43.551-71.328 80.469-17.871-23.746-28.465-53.297-28.465-85.391 0-78.625 63.508-142.14 142.14-142.14zm0 55.809c22.363 0 40.051 17.742 40.051 39.871 0 22.125-17.688 39.871-40.051 39.871s-40.156-17.742-40.156-39.871c0-22.125 17.793-39.871 40.156-39.871zm-431.3 98.645c-93.039 0-168.7 75.66-168.7 168.7 0 49.539 21.441 94.164 55.547 125.08 29.945 27.145 69.652 43.723 113.15 43.723 42.895 0 82.078-16.129 111.88-42.605 0.47656-0.36719 0.92969-0.76953 1.3516-1.1992 0.054688-0.042969 0.10547-0.085938 0.15625-0.12891 33.969-30.906 55.312-75.445 55.312-124.87 0-93.039-75.66-168.7-168.7-168.7zm862.5 0c-93.039 0-168.7 75.66-168.7 168.7s75.66 168.8 168.7 168.8c42.996 0 82.289-16.199 112.14-42.785l-0.003907-0.003906c0.32812-0.26172 0.64062-0.53906 0.9375-0.83203 34.191-30.918 55.73-75.59 55.73-125.18 0-93.039-75.766-168.7-168.8-168.7zm-431.2 11.406c49.055 0 88.293 37.906 90.262 86.066-24.512 20.16-55.934 32.238-90.262 32.238-34.352 0-65.82-12.105-90.363-32.293 2-48.137 41.328-86.016 90.363-86.016zm-431.3 15.262c78.625 0 142.11 63.406 142.11 142.03 0 32.141-10.598 61.738-28.516 85.52-9.1914-36.984-36.125-67-71.277-80.598 14.934-12.227 24.504-30.738 24.504-51.379 0-36.617-30.125-66.535-66.824-66.535-36.699 0-66.824 29.918-66.824 66.535 0 20.645 9.5742 39.156 24.504 51.379-35.148 13.598-62.086 43.617-71.277 80.598-17.918-23.781-28.543-53.379-28.543-85.52 0-78.625 63.508-142.03 142.14-142.03zm862.5 0c78.625 0 142.11 63.406 142.11 142.03 0 32.141-10.598 61.738-28.516 85.52-9.1914-36.984-36.125-67-71.277-80.598 14.934-12.227 24.504-30.738 24.504-51.379 0-36.617-30.125-66.535-66.824-66.535-36.699 0-66.824 29.918-66.824 66.535 0 20.645 9.5742 39.156 24.504 51.379-35.133 13.594-62.074 43.586-71.277 80.547-17.871-23.773-28.438-53.352-28.438-85.469 0-78.625 63.406-142.03 142.03-142.03zm-862.5 55.699c22.363 0 40.156 17.742 40.156 39.871 0 22.125-17.793 39.844-40.156 39.844s-40.156-17.719-40.156-39.844 17.793-39.871 40.156-39.871zm862.5 0c22.363 0 40.156 17.742 40.156 39.871 0 22.125-17.793 39.844-40.156 39.844s-40.156-17.719-40.156-39.844 17.793-39.871 40.156-39.871zm-438.2 103.93c-0.66406 0.011718-1.3242 0.070312-1.9805 0.17969-0.21875 0.039063-0.43359 0.082031-0.65234 0.13281-0.39453 0.078124-0.78516 0.17187-1.1719 0.28906-0.62109 0.19531-1.2305 0.44141-1.8203 0.72656-0.15625 0.066407-0.3125 0.13672-0.46875 0.20703-0.34766 0.18359-0.6875 0.38672-1.0156 0.59766-0.28516 0.18359-0.5625 0.375-0.83203 0.57422-0.26172 0.19141-0.51172 0.39062-0.75781 0.59766-0.40234 0.35156-0.78516 0.72656-1.1445 1.1211-0.11719 0.11719-0.22656 0.23828-0.33984 0.36328l-36.457 40.496c-2.3672 2.6445-3.5859 6.1211-3.3789 9.668 0.20313 3.543 1.8125 6.8594 4.4727 9.2109 5.4883 4.8711 13.875 4.3945 18.777-1.0664l13.488-15.027v130.57c0.027344 7.3203 5.957 13.25 13.281 13.281 3.5352 0.011719 6.9336-1.3789 9.4414-3.8711 2.5117-2.4883 3.9297-5.875 3.9453-9.4102v-130.52l13.488 14.973v0.003906c4.9023 5.4766 13.312 5.9531 18.801 1.0664 2.6445-2.3672 4.2344-5.6914 4.4219-9.2344 0.18359-3.543-1.0508-7.0156-3.4297-9.6445l-36.406-40.52c-0.011718-0.007812-0.019531-0.015624-0.027343-0.027343-0.62891-0.73438-1.3359-1.3945-2.1094-1.9766-0.33594-0.26172-0.68359-0.50391-1.043-0.73047-0.29688-0.18359-0.60156-0.35938-0.91016-0.51953-0.47266-0.24609-0.96094-0.46484-1.457-0.65234-0.28516-0.097656-0.57031-0.18359-0.85938-0.26172-0.38672-0.12109-0.77734-0.22656-1.1719-0.3125-0.20703-0.039063-0.41797-0.074219-0.625-0.10547-0.67969-0.11328-1.3672-0.17578-2.0586-0.18359zm-424.3 6.1211c49.082 0 88.336 37.949 90.262 86.145-24.527 20.16-55.953 32.238-90.262 32.238-34.312 0-65.758-12.074-90.285-32.238 1.9258-48.195 41.199-86.152 90.285-86.145zm862.5 0c49.086-0.003906 88.332 37.949 90.262 86.145-24.527 20.16-55.953 32.238-90.262 32.238-34.34 0-65.77-12.098-90.285-32.293 1.9531-48.172 41.223-86.094 90.285-86.094zm-154.79 107.94c-0.20703 0.003906-0.41797 0.011718-0.625 0.027343l-54.922 2.9414c-7.3359 0.39062-12.973 6.6445-12.605 13.984 0.39453 7.3359 6.6484 12.973 13.984 12.605l20.184-1.0938-92.316 92.316c-2.5156 2.5039-3.9297 5.9062-3.9297 9.4531 0 3.5469 1.4141 6.9492 3.9297 9.4531 2.5 2.5078 5.8984 3.918 9.4375 3.918 3.543 0 6.9414-1.4102 9.4414-3.918l92.344-92.344-1.0938 20.184c-0.37109 7.3359 5.2656 13.59 12.605 13.984 7.3281 0.35156 13.562-5.2812 13.957-12.605l2.8906-53.566c0.64844-4.2109-0.75391-8.4805-3.7773-11.484-1.1406-1.1133-2.4727-2.0156-3.9297-2.6562-0.39453-0.17578-0.79297-0.33203-1.1992-0.46875-0.19922-0.066406-0.39844-0.125-0.59766-0.18359-0.45703-0.13672-0.91406-0.25-1.3828-0.33594-0.16406-0.03125-0.32812-0.058594-0.49219-0.082031-0.62891-0.089844-1.2656-0.13281-1.9023-0.12891zm-553 0.027343c-0.078125 0.007813-0.15625 0.015625-0.23438 0.023438-0.42578 0.007812-0.85156 0.035156-1.2734 0.082031-0.33203 0.03125-0.66406 0.074219-0.99219 0.13281-0.24219 0.050782-0.48828 0.11328-0.72656 0.17969-0.37891 0.085938-0.75391 0.19141-1.1211 0.3125-0.54297 0.18359-1.0742 0.39844-1.5898 0.65234-1.293 0.62109-2.4805 1.4453-3.5156 2.4453-2.8945 2.9141-4.2891 6.9961-3.7734 11.07l2.8906 53.984c0.39453 7.3359 6.6445 12.969 13.984 12.602 7.3359-0.39453 12.973-6.6484 12.602-13.984l-1.0938-20.156 92.344 92.316c2.5039 2.5078 5.8984 3.918 9.4414 3.918 3.543 0 6.9375-1.4102 9.4414-3.918 2.5156-2.5039 3.9297-5.9062 3.9297-9.4531 0-3.5469-1.4141-6.9492-3.9297-9.4531l-92.316-92.316 20.184 1.0938h-0.003906c7.3281 0.35156 13.566-5.2812 13.957-12.605 0.37109-7.3281-5.25-13.578-12.578-13.984l-54.922-2.9414c-0.19141-0.003906-0.37891-0.003906-0.57031 0h-0.13281zm276.59 112.11c-57.008 0-103.64 46.172-103.64 102.94 0 38.273 21.195 71.785 52.473 89.559-79.234 22.113-137.32 94.332-137.32 180.23v70.965-0.003906c0.027343 7.3633 6.0195 13.309 13.383 13.281h254.82v35.73h0.003906c0.027344 7.3633 6.0195 13.309 13.383 13.281h199.22c7.3242-0.03125 13.254-5.957 13.281-13.281v-199.71c0.03125-7.3633-5.918-13.355-13.281-13.383h-128.77c-24.227-42.078-64.422-73.754-112.39-87.109 31.25-17.77 52.395-51.285 52.395-89.559 0-56.77-46.531-102.94-103.54-102.94zm0 26.668c42.695 0 76.875 34.016 76.875 76.277s-34.18 76.379-76.875 76.379-76.98-34.117-76.98-76.379 34.285-76.277 76.98-76.277zm0 185.52c54.715 0 102.62 26.602 131.82 67.422h-38.727c-3.5547-0.015625-6.9648 1.3906-9.4805 3.9023-2.5117 2.5156-3.918 5.9258-3.9023 9.4805v137.32l-241.54 0.003906v-57.578c0-89.133 71.945-160.55 161.82-160.55zm106.38 94.09h44.297v49.113c0 4.5039 2.2734 8.7031 6.043 11.168 3.7734 2.4648 8.5312 2.8555 12.656 1.043l23.332-10.34 23.23 10.34c4.1328 1.8594 8.9297 1.4922 12.73-0.98047 3.8008-2.4688 6.0898-6.6992 6.0703-11.23v-49.113h44.191v173.05h-172.55zm70.965 0h30.73v28.645l-9.9492-4.4258v-0.003906c-3.4492-1.5312-7.3867-1.5312-10.832 0l-9.9492 4.4258z" fill-rule="evenodd"></path></svg>