<svg xmlns="http://www.w3.org/2000/svg" width="512pt" height="512pt" viewBox="0 0 512 512"><path d="m206.38 59.699c-0.55859-2.6211 1.0195-5.1797 3.6406-5.7383 15-3.3789 30.461-5.1211 45.98-5.1211 55.344 0 107.36 21.559 146.48 60.684 39.117 39.121 60.684 91.141 60.684 146.48 0 26-4.7188 51.199-14.02 75.059l20.02-9.3594c2.3984-1.1211 5.2812-0.10156 6.3984 2.3008 1.1211 2.3984 0.10156 5.2812-2.3008 6.3984l-31.379 14.738c-0.66016 0.30078-1.3398 0.46094-2.0391 0.46094-1.8008 0-3.5391-1.0195-4.3594-2.7617l-14.738-31.379c-1.1211-2.3984-0.10156-5.2812 2.3008-6.3984 2.3984-1.1211 5.2812-0.10156 6.3984 2.3008l10.18 21.699c9.2617-23.199 13.98-47.762 13.98-73.062 0-54.52-22.219-103.94-58.062-139.72-35.801-35.738-85.121-57.859-139.54-57.859-14.801 0-29.539 1.6406-43.82 4.8594-2.6211 0.62109-5.1797-1.0195-5.8008-3.5781zm37.84 393.52c-64.199-3.7812-119.8-38.102-153.04-88.32-20.738-31.281-32.719-68.762-32.719-108.86 0-10.301 0.82031-20.578 2.3594-30.719l13.922 19c1.5781 2.1602 4.5586 2.6211 6.6992 1.0195 2.1602-1.5781 2.6211-4.5586 1.0195-6.6992l-20.48-28c-0.76172-1.0195-1.8984-1.7383-3.1211-1.8984-1.2812-0.19922-2.5586 0.10156-3.5781 0.87891l-28 20.48c-2.1602 1.5781-2.6211 4.5586-1.0195 6.6992 1.5781 2.1602 4.5586 2.6211 6.6992 1.0195l18.238-13.359c-1.5781 10.398-2.3594 21-2.3594 31.539 0 42.141 12.641 81.52 34.461 114.32 34.859 52.582 93.137 88.52 160.4 92.461h0.30078c2.5 0 4.6602-1.9414 4.8203-4.5 0.058594-2.6602-1.9414-4.8984-4.6016-5.0586zm247.3-29.84v34.262c0 8.0781-6.6016 14.699-14.699 14.699h-0.87891c-2.2812 10.941-11.961 19.18-23.539 19.18-11.582 0-21.238-8.2383-23.5-19.141h-98.359c-2.2383 10.898-11.918 19.141-23.5 19.141-11.578 0-21.238-8.2383-23.5-19.141h-0.87891c-8.0781 0-14.699-6.6016-14.699-14.699l0.019531-60.52c-4 0.35938-7.9805 0.55859-11.98 0.55859-78.141 0-141.72-63.602-141.72-141.72 0-19.66 4.1406-39.02 11.918-56.879l-20.082 11.578c-0.76172 0.39844-1.5781 0.66016-2.3984 0.66016-0.82031 0-1.6406-0.19922-2.3984-0.66016l-78.438-45.32c-1.4805-0.87891-2.3984-2.4219-2.3984-4.1602v-90.617c0-1.7383 0.92188-3.3203 2.3984-4.1406l78.5-45.32c1.4805-0.87891 3.3203-0.87891 4.8203 0l78.48 45.32c1.4805 0.87891 2.3984 2.4609 2.3984 4.1406v61.598c21-11.719 44.641-17.922 68.922-17.922 78.141 0 141.72 63.602 141.72 141.72 0 35.121-12.641 68.102-35.738 94.059h47.359c8.0781 0 14.699 6.6016 14.699 14.699v16.379h33.941c5.2188 0 9.7812 2.5586 12.5 6.9609l20.281 32.762c0.5 0.78125 0.76172 1.6406 0.76172 2.5195zm-142.8-73.32c6.0391-6 11.52-12.398 16.238-19.262-13.359-3.0781-26.98-5.5195-40.762-7.418-2.8594 9.5781-6.4609 18.441-10.602 26.68zm-224.72-89.242c0.82031 22.281 7.1602 43.16 17.719 61.336 14.281-3.3789 28.879-6.1016 43.578-8.1406-4.1406-16.539-6.4609-34.559-6.8008-53.203zm136.82 48.281c18.941 0.16016 37.738 1.3789 56.258 3.6406 4.1016-16.121 6.5-33.801 6.8594-51.922h-63.121zm65.941 4.8984c14.738 2.0391 29.34 4.7617 43.68 8.1406 10.762-18.48 16.801-39.418 17.621-61.336l-54.539 0.019531c-0.35938 18.68-2.6602 36.66-6.7617 53.18zm61.242-62.824c-0.82031-22.281-7.1602-43.16-17.719-61.336-14.281 3.3789-28.879 6.1016-43.578 8.1406 4.1406 16.539 6.4609 34.559 6.8008 53.203zm-70.859-51.902c-18.539 2.2617-37.32 3.4414-56.32 3.6406v48.281h63.078c-0.35938-18.301-2.6797-35.859-6.7617-51.922zm-2.6602-9.3789c-3.0781-9.8398-6.7617-19.039-11.219-27.238-11.719-21.699-26.621-34.559-42.441-36.719v67.379c18.059-0.19922 35.98-1.3203 53.656-3.4219zm-105.74-27.238c-4.4609 8.2383-8.1406 17.398-11.219 27.238 17.66 2.0391 35.578 3.2188 53.656 3.3789v-67.316c-15.82 2.1406-30.762 15-42.441 36.699zm-13.879 36.621c-4.1016 16.078-6.4609 33.641-6.8008 51.922h63.078v-48.281c-18.898-0.16016-37.738-1.3984-56.277-3.6406zm0 113.44c18.539-2.2617 37.32-3.4414 56.32-3.6406v-48.281l-63.078 0.019532c0.35938 18.281 2.6797 35.84 6.7617 51.902zm2.6602 9.3789c3.0781 9.8398 6.7617 19.039 11.219 27.238 11.68 21.699 26.621 34.559 42.441 36.719v-67.34c-18.059 0.16016-35.98 1.2812-53.656 3.3789zm85.16 27.961h20.121c4.5586-8.3398 8.5-17.719 11.68-27.961-17.66-2.0391-35.578-3.2188-53.656-3.3789v67.316c2.3984-0.35938 4.8203-0.92188 7.1602-1.7383v-19.559c0-8.1406 6.6016-14.68 14.699-14.68zm4.7617-222.36c9.0195 7.1211 17.262 17.301 24.262 30.422 4.9609 9.2188 9.0586 19.5 12.441 30.559 13.781-1.8984 27.34-4.3594 40.699-7.418-18.121-26.32-45.5-45.738-77.398-53.559zm-100.36 15.66v17.859c0 1.7383-0.92188 3.3203-2.3984 4.1406l-30.32 17.52c11 2.3008 22.219 4.1992 33.48 5.7812 3.3203-11.059 7.4805-21.359 12.441-30.559 7.0195-13 15.199-23.199 24.219-30.32-13.199 3.1797-25.801 8.4609-37.422 15.582zm-46.539 36.398 36.918-21.301v-79.5l-18.48 10.641v29.379c0 1.7383-0.92188 3.3203-2.3984 4.1406l-22.32 12.898c-0.76172 0.39844-1.5781 0.66016-2.3984 0.66016-0.82031 0-1.6406-0.19922-2.3984-0.66016-1.4805-0.87891-2.3984-2.4609-2.3984-4.1406l-0.039062-23.84-18.48 10.641v79.52l31.801-18.379 0.058594-0.10156c0.10156 0 0.10156 0.039063 0.14062 0.039063zm-3.8789-56.219 12.699-7.3203v-21.102l-12.699 7.3203zm7.8789-36.699-68.859-39.781-12.699 7.3203 68.859 39.781zm-91.141-26.879-18.48 10.641 68.859 39.781 18.48-10.641zm31.898-18.441 68.859 39.781 18.48-10.641-68.859-39.84zm-55.199 116.94 68.859 39.781v-79.559l-68.859-39.719zm111.26 31.961c-10.602 18.48-16.539 39.418-17.301 60.82h54.422c0.35938-18.641 2.6602-36.602 6.8008-53.203-14.602-2.0391-29.039-4.7188-43.219-8.0391zm83.199 193.88c-9.0195-7.1211-17.262-17.301-24.262-30.422-4.9609-9.2188-9.0586-19.5-12.441-30.559-13.781 1.8984-27.34 4.3594-40.699 7.418 18.121 26.32 45.5 45.738 77.398 53.559zm96.879 83.262c0-7.9414-6.4609-14.34-14.34-14.34-7.8789 0-14.34 6.4609-14.34 14.34 0 7.9414 6.4609 14.34 14.34 14.34 7.8789 0 14.34-6.4609 14.34-14.34zm93.02-102.82c0-2.8203-2.3008-5.1211-5.1211-5.1211h-126.66c-2.8203 0-5.1211 2.3008-5.1211 5.1211v92.883c0 2.8203 2.3008 5.1211 5.1211 5.1211h0.87891c2.2617-10.898 11.918-19.141 23.5-19.141 11.578 0 21.238 8.2383 23.5 19.141h83.922zm43.578 26.02h-14.539v22.738c0 2.8203 2.3008 5.1211 5.1211 5.1211h29.5l-15.719-25.441c-1.0391-1.6016-2.5195-2.4219-4.3594-2.4219zm8.7617 76.801c0-7.9414-6.4609-14.34-14.34-14.34-7.9414 0-14.34 6.4609-14.34 14.34 0 7.9414 6.4609 14.34 14.34 14.34 7.8789 0 14.34-6.4609 14.34-14.34zm15.102-9.9414v-29.441h-33.281c-8.0781 0-14.699-6.6016-14.699-14.699v-22.738h-9.7812v71.98h4.8594c2.2617-10.898 11.918-19.141 23.5-19.141 11.578 0 21.238 8.2383 23.5 19.141h0.87891c2.7188 0.019531 5.0195-2.2812 5.0195-5.1016z" fill="#ea5b0a"></path></svg>