<svg xmlns="http://www.w3.org/2000/svg" width="1200pt" height="1200pt" viewBox="0 0 1200 1200"><path d="m601.12 584.23h-2.25c-23.973 0-43.477-19.414-43.477-43.27 0-23.863 19.508-43.277 43.477-43.277 23.973 0 43.473 19.414 43.473 43.277 0 6.6289 5.3711 12 12 12s12-5.3711 12-12c0-33.008-23.984-60.48-55.473-66.148v-13.168c0-6.6289-5.3711-12-12-12s-12 5.3711-12 12v13.168c-31.492 5.668-55.477 33.145-55.477 66.148 0 37.098 30.27 67.27 67.477 67.27h2.25c23.973 0 43.477 19.414 43.477 43.277s-19.508 43.277-43.477 43.277c-23.973 0-43.473-19.414-43.473-43.277 0-6.6289-5.3711-12-12-12s-12 5.3711-12 12c0 32.219 22.844 59.191 53.223 65.734v13.582c0 6.6289 5.3711 12 12 12s12-5.3711 12-12v-12.824c32.59-4.7383 57.727-32.707 57.727-66.492 0-37.098-30.27-67.277-67.477-67.277z"></path><path d="m600 386.49c-117.73 0-213.51 95.777-213.51 213.51s95.777 213.51 213.51 213.51 213.51-95.777 213.51-213.51-95.777-213.51-213.51-213.51zm0 403.02c-104.5 0-189.51-85.016-189.51-189.51s85.016-189.51 189.51-189.51 189.51 85.016 189.51 189.51-85.016 189.51-189.51 189.51z"></path><path d="m889.02 600c0-159.37-129.66-289.02-289.02-289.02s-289.02 129.66-289.02 289.02 129.66 289.02 289.02 289.02 289.02-129.66 289.02-289.02zm-289.02 265.02c-146.13 0-265.02-118.89-265.02-265.02s118.89-265.02 265.02-265.02 265.02 118.89 265.02 265.02-118.89 265.02-265.02 265.02z"></path><path d="m119.99 344.53c0 4.8516 2.9219 9.2305 7.4062 11.086 4.4844 1.8477 9.6406 0.82812 13.078-2.6016l54.887-54.887 70.43 70.434c2.25 2.25 5.3008 3.5156 8.4844 3.5156 3.1797 0 6.2344-1.2656 8.4844-3.5156l86.156-86.156c2.25-2.25 3.5156-5.3008 3.5156-8.4844 0-3.1797-1.2656-6.2344-3.5156-8.4844l-70.434-70.43 54.527-54.527c3.4336-3.4336 4.457-8.5898 2.6016-13.078-1.8633-4.4805-6.2383-7.4023-11.09-7.4023h-212.53c-6.6289 0-12 5.3711-12 12zm24-200.53h171.56l-42.527 42.527c-2.25 2.25-3.5156 5.3008-3.5156 8.4844 0 3.1797 1.2656 6.2344 3.5156 8.4844l70.434 70.43-69.188 69.188-70.43-70.434c-2.25-2.25-5.3008-3.5156-8.4844-3.5156-3.1797 0-6.2344 1.2656-8.4844 3.5156l-42.887 42.887z"></path><path d="m1080 132c0-6.6289-5.3711-12-12-12h-212.53c-4.8516 0-9.2305 2.9219-11.086 7.4062-1.8594 4.4883-0.83203 9.6445 2.6016 13.078l54.887 54.887-70.434 70.434c-2.25 2.25-3.5156 5.3008-3.5156 8.4844 0 3.1797 1.2656 6.2344 3.5156 8.4844l86.156 86.148c2.25 2.25 5.3008 3.5156 8.4844 3.5156 3.1797 0 6.2344-1.2656 8.4844-3.5156l70.43-70.434 54.527 54.527c3.4258 3.4258 8.5742 4.4492 13.078 2.6016 4.4805-1.8555 7.4023-6.2344 7.4023-11.086zm-24 183.56-42.527-42.527c-4.5-4.5-12.469-4.5-16.969 0l-70.43 70.434-69.188-69.18 70.434-70.434c4.6875-4.6875 4.6875-12.281 0-16.969l-42.883-42.887h171.56z"></path><path d="m1080 855.47c0-4.8516-2.9219-9.2305-7.4062-11.086-4.5078-1.8633-9.6484-0.83203-13.078 2.6016l-54.887 54.887-70.434-70.434c-4.5-4.5-12.469-4.5-16.969 0l-86.148 86.156c-2.25 2.25-3.5156 5.3008-3.5156 8.4844 0 3.1797 1.2656 6.2344 3.5156 8.4844l70.434 70.43-54.527 54.527c-3.4336 3.4336-4.457 8.5898-2.6016 13.078 1.8555 4.4805 6.2344 7.4023 11.086 7.4023h212.53c6.6289 0 12-5.3711 12-12zm-24 200.53h-171.56l42.527-42.527c2.25-2.25 3.5156-5.3008 3.5156-8.4844 0-3.1797-1.2656-6.2344-3.5156-8.4844l-70.434-70.43 69.18-69.188 70.434 70.434c4.6875 4.6875 12.281 4.6875 16.969 0l42.887-42.883z"></path><path d="m119.99 1068c0 6.6289 5.3711 12 12 12h212.53c4.8516 0 9.2305-2.9219 11.086-7.4062 1.8594-4.4883 0.83203-9.6445-2.6016-13.078l-54.887-54.887 70.434-70.43c2.25-2.25 3.5156-5.3008 3.5156-8.4844 0-3.1797-1.2656-6.2344-3.5156-8.4844l-86.156-86.156c-4.6875-4.6875-12.281-4.6875-16.969 0l-70.434 70.434-54.52-54.527c-3.4414-3.4336-8.5977-4.4648-13.078-2.6016-4.4844 1.8594-7.4062 6.2344-7.4062 11.086zm24-183.55 42.52 42.52c2.25 2.25 5.3008 3.5156 8.4844 3.5156 3.1797 0 6.2344-1.2656 8.4844-3.5156l70.434-70.434 69.188 69.188-70.43 70.426c-2.25 2.25-3.5156 5.3008-3.5156 8.4844 0 3.1797 1.2656 6.2344 3.5156 8.4844l42.883 42.887h-171.56z"></path></svg>