<svg xmlns="http://www.w3.org/2000/svg" width="1200pt" height="1200pt" viewBox="0 0 1200 1200"><path d="m667.45 1013.9c60.844-8.8125 122.58-9.7031 183.61-2.7188h0.375c79.219 9.1875 156.37 31.172 228.56 65.016v-676.78c-8.1094-2.4375-16.312-4.7344-24.656-6.7969-7.3125-1.8281-14.531-3.4688-21.703-4.9688v581.86c0 1.2188-0.1875 2.4844-0.5625 3.6562-0.98438 3.0469-3.1406 5.5781-5.9531 7.0312s-6.1406 1.7344-9.1875 0.75c-68.297-22.078-140.9-27.234-211.64-15.047-48.516 8.4844-95.391 24.703-138.79 48zm-230.06-861.1c34.828-16.594 72.562-26.25 111.09-28.453 37.828-2.3906 75.703 2.8594 111.42 15.469 35.719 12.047 67.547 33.422 92.25 61.875 24.75 28.453 41.438 62.953 48.375 100.03 0.09375 0.42187 0.14062 0.79687 0.23438 1.2188v-0.046876c1.7812 8.8594 3.0469 17.766 3.8906 26.766 5.1562 35.25 18.188 68.906 38.109 98.484 18.141 28.688 38.297 56.016 60.375 81.797 1.6406 4.125 1.1719 8.8125-1.1719 12.562-0.14062 0.1875-0.23438 0.375-0.32812 0.60937-2.7188 3.7969-7.0781 6-11.719 6-0.42188 0-0.89062 0-1.3594 0.09375-20.906-0.23437-41.812-2.25-62.391-6.1406-3.1406-0.5625-6.375 0.14062-8.9531 1.9219-2.625 1.8281-4.4062 4.6406-4.9688 7.7344 0 0.23437-0.09375 0.42187-0.09375 0.65625-16.031 129.94-45.609 131.86-65.719 133.22-20.906 1.3594-36 2.3438-36 42.938l-0.046875 106.5h-311.63v-137.81c0-0.51562-0.046875-1.0781-0.14062-1.5938-3.8906-68.391-28.688-107.53-53.344-146.48-24.797-39.141-49.453-78.094-49.359-148.87-1.4062-47.766 11.25-94.875 36.422-135.47 25.172-40.641 61.688-72.984 105.05-93zm389.06 157.31c29.953-3.75 60.234-4.4531 90.375-2.0156 31.406 2.5312 62.531 8.3906 92.719 17.438v627.74c-67.406-19.219-138.28-23.016-207.32-11.109-68.109 12-132.94 38.203-190.22 76.969v-179.02h110.25c3.1875 0 6.2344-1.2656 8.4844-3.5156s3.5156-5.3438 3.5156-8.4844v-118.59c0-18 5.6719-18.422 13.547-18.938 27.375-1.7812 67.312-4.3594 86.484-141.84 18.422 3.2344 37.125 4.7344 55.828 4.5 12.656-0.14062 24.422-6.4688 31.453-16.969 0.23438-0.32812 0.46875-0.65625 0.70312-1.0312 6.8906-11.062 7.6875-24.844 2.1094-36.609-0.46875-1.0312-1.0781-2.0156-1.7812-2.9062-21.75-25.219-41.578-52.031-59.344-80.203-17.906-26.344-29.766-56.344-34.641-87.844v-0.14062c-0.5625-6-1.2656-11.766-2.1562-17.438zm-554.53 71.156c-0.09375-24.562 2.7656-49.078 8.5781-72.984-13.828 1.1719-27.609 3.0469-41.344 5.5312-16.453 3-32.719 6.9375-48.703 11.719v627.74c67.406-19.219 138.28-23.016 207.32-11.109 68.109 12 132.94 38.203 190.22 76.969v-179.02h-201.28c-6.6562 0-12-5.3906-12-12v-150.1c-3.5625-62.062-26.719-98.625-49.781-135-26.672-42-53.156-83.906-53.062-161.76zm255.14 14.391c-9.7031 0.046875-17.531 7.9219-17.578 17.578 0.046875 9.7031 7.875 17.531 17.578 17.578h17.578v-17.578c-0.046875-9.7031-7.875-17.531-17.578-17.578zm59.25 0c-9.6562 0.09375-17.438 7.9219-17.531 17.578v17.578h17.531c9.7031-0.046875 17.531-7.875 17.578-17.578-0.046875-9.6562-7.875-17.531-17.578-17.578zm30.188 178.31h-119.62c-4.2188 0.046875-7.6406 3.4688-7.6875 7.6875 0.046875 4.2656 3.4688 7.6875 7.6875 7.6875h119.62c4.2188 0 7.6875-3.4219 7.6875-7.6875 0-4.2188-3.4688-7.6406-7.6875-7.6875zm-28.312 39.469-62.953 0.046875c4.0781 10.547 13.219 18.375 24.281 20.812 11.062 2.3906 22.641-0.89062 30.75-8.8125 3.4688-3.4219 6.1406-7.5 7.9219-12zm187.45-232.31-0.046875 0.046875c6.6562 0 12.047 5.3906 12.047 12.047s-5.3906 12.047-12.047 12.047h-45.141c-6.6562 0-12.047-5.3906-12.047-12.047s5.3906-12.047 12.047-12.047zm-72.656-151.22-31.922 31.922v0.046875c-4.7344 4.7344-4.7344 12.328 0 17.062 4.6875 4.6875 12.328 4.6875 17.016 0l31.922-32.016c4.6875-4.6875 4.6875-12.328 0-17.062-4.6875-4.6875-12.328-4.6875-17.062 0zm-365.21 175.31h45.141c6.6562 0 12.047-5.3906 12.047-12.047s-5.3906-12.047-12.047-12.047h-45.141c-6.6562 0-12.047 5.3906-12.047 12.047s5.3906 12.047 12.047 12.047zm55.594-158.29 31.922 31.922c4.6875 4.6875 12.328 4.6875 17.016 0 4.7344-4.7344 4.7344-12.328 0-17.062l-31.922-31.922c-4.6875-4.6875-12.328-4.6875-17.016 0-4.7344 4.7344-4.7344 12.375 0 17.062zm151.26-72.656v45.141c0 6.6562 5.3906 12.047 12.047 12.047s12.047-5.3906 12.047-12.047v-45.141c0-6.6562-5.3906-12.047-12.047-12.047s-12.047 5.3906-12.047 12.047zm57.141 375.61h-33v-94.969h17.531c23.016-0.046875 41.625-18.703 41.719-41.672-0.09375-23.016-18.703-41.625-41.719-41.672-11.062-0.046875-21.656 4.3594-29.438 12.234l-0.1875 0.1875-0.1875-0.1875c-7.7812-7.875-18.375-12.281-29.438-12.234-23.016 0.046875-41.625 18.656-41.672 41.672 0.046875 22.969 18.656 41.625 41.672 41.672h17.578v94.922h-33.047l-3.8438-44.391c-0.375-4.3125-3-8.1094-6.9375-9.8906-18.281-10.031-33.609-24.75-44.344-42.703-21.422-36-21.844-80.766-1.125-117.23 20.719-36.422 59.438-58.969 101.34-58.969 41.953 0 80.625 22.547 101.34 58.969 20.719 36.469 20.297 81.234-1.125 117.23-10.875 18.141-26.391 33-45 43.031-3.5625 1.9219-5.9531 5.5312-6.2812 9.6094zm-114.23 1.4062-3.2344-37.453v0.046875c-54.234-32.531-80.062-97.266-63.188-158.16 16.922-60.938 72.375-103.08 135.56-103.08 63.234 0 118.69 42.141 135.56 103.08 16.875 60.891-8.9531 125.63-63.141 158.16l-3.2344 37.453-0.046875-0.046875c13.359 4.125 22.453 16.453 22.453 30.422-0.046875 17.531-14.25 31.734-31.781 31.781h-3.2812c-5.6719 26.625-29.203 45.703-56.438 45.703-27.281 0-50.812-19.078-56.484-45.703h-3.375c-17.531-0.046875-31.734-14.25-31.781-31.781 0.046875-13.969 9.1406-26.25 22.453-30.422zm-166.22 93.141c-11.156-0.79688-22.641-1.2656-34.547-1.4062-11.672-0.09375-23.156 0.1875-34.5 0.84375-6.6094 0.375-11.672 6.0469-11.344 12.656 0.375 6.6562 6.0469 11.719 12.656 11.344 11.203-0.65625 22.219-0.9375 33-0.84375 10.641 0.09375 21.609 0.5625 32.906 1.4062h0.046874c6.6094 0.51562 12.375-4.4531 12.891-11.062 0.46875-6.6562-4.5-12.422-11.109-12.938zm626.39-0.5625c6.6094 0.375 11.719 6.0469 11.344 12.656-0.375 6.6562-6 11.719-12.656 11.344-11.203-0.65625-22.219-0.9375-33-0.84375-10.641 0.09375-21.609 0.5625-32.906 1.4062-6.6562 0.51562-12.422-4.4531-12.891-11.062-0.51562-6.6562 4.4531-12.422 11.109-12.938 11.156-0.79688 22.641-1.2656 34.547-1.4062 11.672-0.09375 23.156 0.1875 34.5 0.84375zm-425.02 274.18c5.9062 3 8.2969 10.219 5.2969 16.125-2.9531 5.9531-10.172 8.3438-16.125 5.3438-40.078-20.156-82.594-35.016-126.47-44.25-43.312-9.1406-87.609-12.469-131.81-9.8906-6.6094 0.375-12.281-4.7344-12.656-11.344-0.32813-6.6562 4.7344-12.281 11.344-12.656 46.266-2.6719 92.672 0.79688 138 10.359 45.938 9.6562 90.469 25.266 132.42 46.312zm425.02-56.719c6.6094 0.375 11.672 6.0469 11.344 12.656-0.375 6.6094-6.0469 11.719-12.656 11.344-44.203-2.5312-88.5 0.79687-131.81 9.8906-43.922 9.2344-86.438 24.141-126.52 44.297-5.9531 2.9531-13.172 0.5625-16.172-5.3438-2.9531-5.9531-0.5625-13.172 5.3438-16.125 41.953-21.094 86.438-36.656 132.37-46.359 45.375-9.5625 91.781-13.031 138-10.359zm-626.39-108.19c-11.156-0.79688-22.641-1.2656-34.547-1.4062-11.672-0.09375-23.156 0.1875-34.5 0.84375v0.046874c-6.6094 0.32813-11.719 6-11.344 12.609 0.375 6.6562 6 11.719 12.656 11.391 11.203-0.65625 22.219-0.9375 33-0.84375 10.641 0.09375 21.609 0.5625 32.906 1.4062 6.6562 0.46875 12.422-4.5 12.891-11.109 0.51563-6.6562-4.4531-12.422-11.109-12.891zm626.39-0.5625v0.046874c6.6094 0.32813 11.672 6 11.344 12.609-0.375 6.6562-6.0469 11.719-12.656 11.391-11.203-0.65625-22.219-0.9375-33-0.84375-10.641 0.09375-21.609 0.5625-32.906 1.4062h-0.046875c-6.6094 0.46875-12.375-4.5-12.891-11.109-0.46875-6.6562 4.5-12.422 11.109-12.891 11.156-0.79687 22.641-1.2656 34.547-1.4062 11.672-0.09375 23.156 0.1875 34.5 0.84375zm-781.36-364.92c-6.8906 1.4062-13.734 3-20.531 4.6875-8.6719 2.1562-17.297 4.5-25.828 7.125v676.78c72.281-33.938 149.58-55.922 228.89-65.062h0.375c60.984-6.9375 122.58-6 183.28 2.7188-43.406-23.297-90.281-39.516-138.79-48-70.406-12.141-142.74-7.0781-210.79 14.766-3.7031 1.5-7.9219 1.0781-11.25-1.1719-3.3281-2.2031-5.3438-5.9531-5.3438-9.9844z" fill-rule="evenodd"></path></svg>