<svg xmlns="http://www.w3.org/2000/svg" width="1200pt" height="1200pt" viewBox="0 0 1200 1200"><path d="m302.21 903.28c-71.578 0-129.79-58.219-129.79-129.79v-43.641c0-71.578 58.219-129.79 129.79-129.79s129.79 58.219 129.79 129.79v43.641c0 71.531-58.219 129.79-129.79 129.79zm0-268.36c-52.312 0-94.922 42.562-94.922 94.922v43.641c0 52.312 42.562 94.922 94.922 94.922 52.312 0 94.922-42.562 94.922-94.922v-43.641c-0.046875-52.359-42.609-94.922-94.922-94.922z"></path><path d="m545.44 1158.6h-488.72c-9.6562 0-17.438-7.8281-17.438-17.438v-115.64c0-32.25 21.844-61.359 53.156-70.734l139.45-41.766 13.734-40.078c3.1406-9.1406 13.031-13.969 22.172-10.875 9.1406 3.1406 13.969 13.031 10.875 22.172l-16.641 48.562c-1.8281 5.3438-6.0938 9.4688-11.484 11.062l-148.08 44.344c-16.641 4.9688-28.266 20.344-28.266 37.266v98.203h453.79v-98.203c0-17.438-10.922-32.391-27.188-37.312l-147.24-44.344c-5.3906-1.6406-9.7031-5.7656-11.484-11.109l-16.5-48.562c-3.0938-9.1406 1.7812-19.031 10.922-22.125s19.031 1.7812 22.125 10.922l13.594 40.031 138.66 41.766c31.078 9.375 52.031 37.781 52.031 70.734v115.64c0 9.6562-7.8281 17.484-17.484 17.484z"></path><path d="m302.21 973.97c-28.172 0-54.609-13.781-70.688-36.891-5.5312-7.9219-3.5625-18.797 4.3594-24.281 7.9219-5.5312 18.797-3.5625 24.281 4.3125 9.7031 13.969 25.078 21.938 42.094 21.938s32.344-8.0156 42.094-21.938c5.5312-7.9219 16.406-9.8438 24.281-4.3125 7.9219 5.5312 9.8438 16.406 4.3594 24.281-16.219 23.109-42.656 36.891-70.781 36.891z"></path><path d="m460.36 1158.6c-9.6562 0-17.438-7.8281-17.438-17.438v-69.797c0-9.6562 7.8281-17.438 17.438-17.438 9.6562 0 17.438 7.8281 17.438 17.438v69.797c0 9.6094-7.7812 17.438-17.438 17.438z"></path><path d="m146.21 1158.6c-9.6562 0-17.438-7.8281-17.438-17.438v-69.797c0-9.6562 7.8281-17.438 17.438-17.438 9.6562 0 17.438 7.8281 17.438 17.438v69.797c0 9.6094-7.8281 17.438-17.438 17.438z"></path><path d="m601.08 868.36c-71.578 0-129.79-58.219-129.79-129.79v-43.641c0-71.578 58.219-129.79 129.79-129.79s129.79 58.219 129.79 129.79v43.641c0.046875 71.578-58.219 129.79-129.79 129.79zm0-268.36c-52.312 0-94.922 42.562-94.922 94.922v43.641c0 52.312 42.562 94.922 94.922 94.922 52.312 0 94.922-42.562 94.922-94.922v-43.641c0-52.359-42.562-94.922-94.922-94.922z"></path><path d="m393.28 955.03c-7.125 0-13.781-4.3594-16.359-11.438-3.3281-9.0469 1.3125-19.078 10.312-22.406 1.5-0.5625 2.9062-1.0312 4.2656-1.4062l139.31-41.719 13.734-40.031c3.1406-9.1406 13.031-13.969 22.172-10.875 9.1406 3.1406 13.969 13.031 10.875 22.172l-16.641 48.562c-1.8281 5.3438-6.0938 9.4688-11.484 11.062l-148.08 44.344c-0.79687 0.23438-1.4062 0.46875-2.0625 0.65625-1.9688 0.70312-4.0312 1.0781-6.0469 1.0781z"></path><path d="m652.36 1123.6h-106.92c-9.6562 0-17.438-7.8281-17.438-17.438 0-9.6562 7.8281-17.438 17.438-17.438h106.92c9.6562 0 17.438 7.8281 17.438 17.438s-7.7812 17.438-17.438 17.438z"></path><path d="m807.1 954.74c-2.0156 0-4.0781-0.32813-6.0469-1.0781-0.42188-0.14062-0.79688-0.28125-1.2188-0.42187l-147.32-44.344c-5.3906-1.6406-9.7031-5.7656-11.484-11.109l-16.5-48.562c-3.0938-9.1406 1.7812-19.031 10.922-22.125 9.1406-3.0938 19.031 1.7812 22.125 10.922l13.594 40.031 138.61 41.766c1.125 0.32813 2.25 0.70313 3.375 1.125 9.0469 3.3281 13.641 13.406 10.312 22.453-2.625 6.9844-9.2812 11.344-16.359 11.344z"></path><path d="m601.08 939.1c-28.172 0-54.609-13.781-70.734-36.891-5.5312-7.9219-3.5625-18.797 4.3594-24.281 7.9219-5.5312 18.797-3.5625 24.281 4.3125 9.7031 13.969 25.078 21.938 42.094 21.938s32.344-8.0156 42.094-21.938c5.5312-7.9219 16.406-9.8438 24.281-4.3125 7.9219 5.5312 9.8438 16.406 4.3125 24.281-16.078 23.062-42.516 36.891-70.688 36.891z"></path><path d="m897.79 903.28c-71.578 0-129.79-58.219-129.79-129.79v-43.641c0-71.578 58.219-129.79 129.79-129.79s129.79 58.219 129.79 129.79v43.641c0.046874 71.531-58.172 129.79-129.79 129.79zm0-268.36c-52.312 0-94.922 42.562-94.922 94.922v43.641c0 52.312 42.562 94.922 94.922 94.922 52.312 0 94.922-42.562 94.922-94.922v-43.641c0-52.359-42.562-94.922-94.922-94.922z"></path><path d="m1141.1 1158.6h-488.72c-9.6562 0-17.438-7.8281-17.438-17.438v-115.64c0-32.25 21.844-61.359 53.156-70.734l139.45-41.766 13.734-40.078c3.1406-9.1406 13.078-13.969 22.172-10.875 9.1406 3.1406 13.969 13.031 10.875 22.172l-16.641 48.562c-1.8281 5.3438-6.0938 9.4688-11.484 11.062l-148.08 44.344c-16.641 4.9688-28.312 20.344-28.312 37.266v98.203h453.79v-98.203c0-17.438-10.922-32.391-27.188-37.312l-147.24-44.344c-5.3906-1.6406-9.7031-5.7656-11.484-11.109l-16.5-48.562c-3.0938-9.1406 1.7812-19.031 10.922-22.125s19.031 1.7812 22.125 10.922l13.594 40.031 138.66 41.766c31.125 9.375 52.078 37.781 52.078 70.734v115.64c0 9.6562-7.8281 17.484-17.484 17.484z"></path><path d="m897.79 973.97c-28.172 0-54.609-13.781-70.688-36.891-5.5312-7.9219-3.5625-18.797 4.3125-24.281 7.9219-5.5312 18.797-3.5625 24.281 4.3125 9.75 13.969 25.078 21.938 42.094 21.938s32.344-8.0156 42.094-21.938c5.5312-7.9219 16.406-9.8438 24.281-4.3125 7.9219 5.5312 9.8438 16.406 4.3125 24.281-16.078 23.109-42.516 36.891-70.688 36.891z"></path><path d="m1056 1158.6c-9.6562 0-17.438-7.8281-17.438-17.438v-69.797c0-9.6562 7.8281-17.438 17.438-17.438 9.6562 0 17.438 7.8281 17.438 17.438v69.797c0 9.6094-7.7812 17.438-17.438 17.438z"></path><path d="m741.79 1158.6c-9.6562 0-17.438-7.8281-17.438-17.438v-69.797c0-9.6562 7.8281-17.438 17.438-17.438 9.6562 0 17.438 7.8281 17.438 17.438v69.797c0.046875 9.6094-7.7812 17.438-17.438 17.438z"></path><path d="m707.02 793.6c-7.5 0-14.391-4.8281-16.688-12.375-2.8125-9.2344 2.3906-18.984 11.625-21.797 26.016-7.9219 51.141-18.984 74.672-32.812 8.2969-4.875 19.031-2.1094 23.906 6.1875s2.1094 19.031-6.1875 23.906c-25.875 15.234-53.531 27.375-82.172 36.094-1.7812 0.5625-3.4688 0.79688-5.1562 0.79688z"></path><path d="m911.76 635.76c-3.1406 0-6.3281-0.84375-9.1875-2.625-8.2031-5.0625-10.734-15.844-5.625-24.047 33.75-54.375 51.75-117.14 52.125-181.5v-2.2031c0-192.47-156.61-349.08-349.08-349.08-192.47 0-349.08 156.61-349.08 349.08v2.2031c0.375 64.312 18.422 127.08 52.125 181.5 5.0625 8.2031 2.5781 18.938-5.625 24.047-8.2031 5.0625-18.938 2.5781-24.047-5.625-37.078-59.812-56.953-128.76-57.375-199.5v-2.5781c0-211.74 172.26-384 384-384 211.74 0 384 172.26 384 384 0 0.84375 0 1.7344-0.046875 2.5781-0.46875 70.688-20.297 139.69-57.375 199.5-3.2812 5.2969-9 8.25-14.812 8.25z"></path><path d="m495.42 794.29c-1.6406 0-3.3281-0.23438-4.9688-0.70312-29.625-8.8125-58.172-21.188-84.75-36.844-8.2969-4.875-11.062-15.609-6.1875-23.906s15.609-11.062 23.906-6.1875c24.188 14.203 50.062 25.5 77.016 33.469 9.2344 2.7656 14.484 12.469 11.766 21.703-2.2969 7.5938-9.2344 12.469-16.781 12.469z"></path><path d="m488.76 725.34c-6.0469 0-11.906-3.1406-15.141-8.7656-20.344-35.484-37.031-80.297-48.234-129.66-11.531-50.625-17.391-104.95-17.391-161.48s5.8594-110.86 17.344-161.48c31.172-137.26 98.109-222.52 174.66-222.52s143.48 85.266 174.66 222.52c11.484 50.625 17.344 105 17.344 161.48 0 56.531-5.8594 110.86-17.344 161.48-10.922 48.141-26.344 90.375-45.938 125.53-4.6875 8.4375-15.328 11.438-23.719 6.75-8.4375-4.6875-11.438-15.328-6.75-23.719 17.672-31.828 32.344-72.047 42.375-116.3 10.922-48.094 16.453-99.797 16.453-153.74 0-53.906-5.5312-105.66-16.5-153.74-26.953-118.64-82.125-195.32-140.58-195.32s-113.62 76.688-140.58 195.32c-10.969 48.094-16.5 99.844-16.5 153.74 0 53.902 5.5312 105.66 16.5 153.74 10.453 46.031 25.828 87.516 44.484 120 4.7812 8.3438 1.9219 19.031-6.4688 23.812-2.7656 1.5938-5.7656 2.3438-8.6719 2.3438z"></path><path d="m544.22 615.47c-0.42188 0-0.84375 0-1.2656-0.046875-88.125-6.4219-169.26-27.891-228.47-60.422-63.516-34.922-98.484-80.906-98.484-129.56 0-107.67 168.66-192 384-192s384 84.328 384 192c0 48.469-34.734 94.312-97.781 129.19-58.828 32.484-139.5 54-227.16 60.609-9.5625 0.75-18-6.4688-18.703-16.078s6.4688-18 16.078-18.703c82.781-6.2344 158.39-26.25 212.9-56.391 51.422-28.406 79.734-63.422 79.734-98.625 0-85.172-159.84-157.08-349.08-157.08-189.24 0-349.08 71.953-349.08 157.08 0 35.297 28.547 70.453 80.344 98.953 54.891 30.188 130.97 50.156 214.22 56.203 9.6094 0.70312 16.828 9.0469 16.125 18.656-0.70312 9.1875-8.3438 16.219-17.391 16.219z"></path><path d="m600 600c-9.6562 0-17.438-7.8281-17.438-17.438v-523.64c0-9.6562 7.8281-17.438 17.438-17.438 9.6562 0 17.438 7.8281 17.438 17.438v523.64c0 9.6094-7.7812 17.438-17.438 17.438z"></path><path d="m966.56 442.92h-733.13c-9.6562 0-17.438-7.8281-17.438-17.438 0-9.6562 7.8281-17.438 17.438-17.438h733.08c9.6562 0 17.438 7.8281 17.438 17.438 0.046875 9.6094-7.7812 17.438-17.391 17.438z"></path></svg>