<svg xmlns="http://www.w3.org/2000/svg" width="1200pt" height="1200pt" viewBox="0 0 1200 1200"><path d="m872.86 930.24c-138.52 183.37-426.14 210-595.87 55.875l34.125-17.156c9.0469-4.7812 12.609-15.891 8.0156-25.031s-15.656-12.891-24.844-8.4844l-58.734 29.531c-4.7812 2.625-8.3438 7.0781-9.8438 12.375l-14.812 61.641h0.046875c-2.2031 9.9844 3.9844 19.875 13.922 22.266s19.969-3.6562 22.547-13.5l7.3594-30.703c93.375 79.594 215.11 117.8 337.26 105.8 122.11-12 234.1-73.125 310.22-169.36 6.1875-8.1094 4.7344-19.688-3.2812-26.016-8.0156-6.375-19.594-5.1094-26.109 2.7656z"></path><path d="m813.42 426.56c-4.5-3.5625-10.359-4.875-15.938-3.5625l-247.22 58.359-245.63-55.828c-5.5312-1.2188-11.344 0.14062-15.797 3.7031-4.4062 3.5156-7.0312 8.9062-7.0781 14.578v35.156h-35.25c-10.312 0.046875-18.703 8.4375-18.75 18.75v307.22c0 4.9688 1.9688 9.75 5.4844 13.266 3.5156 3.5156 8.2969 5.4844 13.266 5.4844h605.21c4.9688 0 9.75-1.9688 13.266-5.4844s5.4844-8.2969 5.4844-13.266v-307.22c-0.09375-10.312-8.4375-18.703-18.75-18.75h-31.172v-37.688c0-5.7656-2.625-11.156-7.125-14.719zm-30.375 67.828c-0.79688 2.1562-0.79688 4.5469 0 6.7031v229.69l-213.94 50.438v-265.78l213.94-50.484zm-251.44 21.141v265.92l-212.34-48.234v-230.86c1.125-3 1.125-6.2812 0-9.2344v-25.781zm-266.34 0.9375h16.5v231.71c0 8.7188 6.0469 16.312 14.578 18.281l86.859 19.734h-117.94zm567.71 0v269.72h-121.45l94.594-22.312c8.4375-2.0156 14.438-9.5625 14.438-18.281v-229.13z"></path><path d="m609.1 586.18c1.4531 0 2.9531-0.1875 4.3594-0.51562l125.58-30h0.046875c9.8438-2.5781 15.891-12.609 13.5-22.547s-12.281-16.125-22.219-13.969l-125.58 30-0.046875 0.046875c-9.0938 2.3438-15.047 11.016-13.969 20.391 1.125 9.3281 8.9062 16.406 18.328 16.594z"></path><path d="m605.58 655.08c1.4531 0 2.9531-0.1875 4.3594-0.51562l125.58-30.047c9.8906-2.5781 15.891-12.562 13.547-22.5-2.3906-9.9375-12.281-16.172-22.266-13.969l-125.58 30.047c-9.0938 2.3438-15.047 11.016-13.969 20.344 1.125 9.375 8.9062 16.453 18.328 16.641z"></path><path d="m605.58 719.16c1.4531 0 2.9531-0.14062 4.3594-0.51562l125.58-30c9.8906-2.5781 15.891-12.562 13.547-22.5-2.3906-9.9375-12.281-16.172-22.266-13.969l-125.58 30c-9.0938 2.3438-15.047 11.062-13.969 20.391 1.125 9.3281 8.9062 16.406 18.328 16.594z"></path><path d="m355.4 559.4 125.58 30c9.9844 2.2031 19.969-3.9844 22.312-13.969 2.3906-9.9375-3.6562-19.969-13.594-22.5l-125.58-30v-0.046875c-9.9844-2.1562-19.875 4.0781-22.266 13.969-2.3438 9.9375 3.6562 19.969 13.547 22.547z"></path><path d="m493.22 621.79-125.58-30c-9.9844-2.25-19.922 3.9844-22.312 13.922-2.3906 9.9844 3.6562 20.016 13.594 22.547l125.58 30c10.078 2.4375 20.203-3.7969 22.594-13.875s-3.7969-20.156-13.875-22.594z"></path><path d="m493.22 685.92-125.58-30c-10.078-2.3906-20.203 3.7969-22.594 13.875s3.7969 20.203 13.875 22.594l125.58 30c9.9844 2.25 19.969-3.9844 22.312-13.922 2.3906-9.9844-3.6562-20.016-13.594-22.547z"></path><path d="m218.48 924.52c-198.71-253.97-27.422-637.82 290.76-663.79l-24.094 32.438h-0.046875c-6.1406 8.3438-4.4062 20.062 3.8906 26.25 8.3438 6.1406 20.062 4.4062 26.25-3.8906l47.719-64.219h-0.046875c4.7812-6.7969 4.6875-15.891-0.1875-22.594l-45.375-59.109c-6.375-7.9688-17.953-9.375-26.062-3.1406-8.1094 6.1875-9.75 17.766-3.6562 25.969l23.344 30.375v0.046875c-113.02 9.4219-218.39 60.891-295.22 144.28-76.875 83.438-119.58 192.66-119.72 306.05-0.32812 99.094 32.25 195.52 92.625 274.13 6.3281 7.9688 17.953 9.4219 26.062 3.2344 8.1094-6.2344 9.7969-17.812 3.75-26.016z"></path><path d="m607.69 225.28c-10.172-1.125-19.359 6.0469-20.672 16.172-1.3594 10.125 5.6719 19.453 15.75 21 276.56 32.062 444.71 349.6 315.66 596.29l-8.6719-16.359c-4.875-9.1406-16.219-12.609-25.359-7.7812-9.1406 4.875-12.609 16.219-7.7812 25.359l24.891 46.875c2.0156 3.6094 5.1094 6.4688 8.9062 8.1562 0.23438 2.625 63.844 5.3906 66.891 6.1406 10.312 0.75 19.312-6.9844 20.062-17.344 0.75-10.312-7.0312-19.312-17.344-20.016l-31.125-2.25c146.16-269.26-36.938-621.14-341.21-656.26z"></path><path d="m1098.5 159.79-79.828-79.359c-4.0312-3.5156-9.2344-5.4375-14.625-5.4375-4.9219 0-9.7031 1.9688-13.219 5.4375l-79.781 79.359c-5.4375 5.3906-7.0781 13.547-4.0781 20.578 4.6406 11.812 17.625 12.094 28.266 11.25v159.94c0 4.9688 1.9688 9.75 5.4844 13.266s8.2969 5.4844 13.266 5.4844h101.53c4.9688 0 9.75-1.9688 13.266-5.4844s5.4844-8.2969 5.4844-13.266v-160.03l10.5 0.28125v0.046875c7.6875 0.14062 14.672-4.3594 17.672-11.391 3-7.0781 1.4531-15.234-3.9375-20.672zm-56.062-0.9375c-3.6094 3.5156-5.6719 8.3438-5.6719 13.406v160.55h-64.031v-160.55c0-5.5312-2.4375-10.781-6.6562-14.297l38.719-38.438 38.672 38.438c-0.375 0.28125-0.70312 0.5625-1.0312 0.89062z"></path></svg>