<svg xmlns="http://www.w3.org/2000/svg" width="1200pt" height="1200pt" viewBox="0 0 1200 1200"><path d="m262.55 411.28c40.031 0 72.609-32.531 72.609-72.562 0-12.984-3.4219-25.172-9.4219-35.766l123.52-83.25c0.09375-0.09375 0.1875-0.14062 0.32812-0.23438 12.984 12.141 30.422 19.641 49.547 19.641 16.734 0 32.203-5.7188 44.531-15.281l114.8 84.797c-4.1719 9.1875-6.5625 19.359-6.5625 30.094 0 40.031 32.531 72.562 72.562 72.562s72.609-32.531 72.609-72.562c0-16.219-5.3438-31.266-14.391-43.359l107.48-144.94c9.2812 4.3125 19.641 6.75 30.516 6.75 40.031 0 72.609-32.578 72.609-72.609 0-39.984-32.578-72.562-72.609-72.562s-72.609 32.578-72.609 72.609c0 18.609 7.0312 35.578 18.562 48.422l-105.89 142.82c-10.688-6.1875-23.062-9.75-36.234-9.75-18.75 0-35.859 7.1719-48.75 18.891l-113.02-83.484c5.7656-10.406 9.0469-22.312 9.0469-35.062 0-39.984-32.578-72.562-72.609-72.562s-72.609 32.578-72.609 72.562c0 10.359 2.2031 20.203 6.1406 29.156l-126.32 85.172c-12.188-9.1875-27.328-14.672-43.734-14.672-40.031 0-72.562 32.578-72.562 72.609-0.046875 40.031 32.484 72.562 72.469 72.562zm658.13-370.03c23.906 0 43.359 19.453 43.359 43.359s-19.453 43.359-43.359 43.359-43.359-19.453-43.359-43.359 19.453-43.359 43.359-43.359zm-196.22 254.16c23.906 0 43.359 19.453 43.359 43.359 0 23.859-19.453 43.312-43.359 43.312-23.859 0-43.312-19.406-43.312-43.312 0-23.953 19.453-43.359 43.312-43.359zm-225.37-172.18c23.906 0 43.359 19.406 43.359 43.312 0 6.2344-1.3125 12.141-3.7031 17.484-3.9375 8.9531-10.828 16.312-19.453 20.859-6.0469 3.1875-12.891 5.0156-20.203 5.0156-23.906 0-43.359-19.453-43.359-43.359s19.453-43.312 43.359-43.312zm-236.53 172.18c23.906 0 43.359 19.453 43.359 43.359 0 23.859-19.453 43.312-43.359 43.312-23.859 0-43.312-19.406-43.312-43.312 0.046875-23.953 19.453-43.359 43.312-43.359zm607.13-5.4375h132.47c8.0625 0 14.625 6.5625 14.625 14.625v513.94c0 8.0625-6.5625 14.625-14.625 14.625s-14.625-6.5625-14.625-14.625v-499.26h-103.22v550.74c0 8.0625-6.5625 14.625-14.625 14.625s-14.625-6.5625-14.625-14.625v-565.36c0-8.1094 6.5156-14.672 14.625-14.672zm-98.25 619.87v-425.11h-103.22v293.58c0 8.0625-6.5625 14.625-14.625 14.625s-14.625-6.5625-14.625-14.625l-0.046876-308.21c0-8.0625 6.5625-14.625 14.625-14.625h132.47c8.0625 0 14.625 6.5625 14.625 14.625v439.74c0 8.0625-6.5625 14.625-14.625 14.625s-14.578-6.5625-14.578-14.625zm-216.05-196.03v-392.06h-103.22v334.08c0 8.0625-6.5625 14.625-14.625 14.625s-14.625-6.5625-14.625-14.625l-0.046874-348.71c0-8.0625 6.5625-14.625 14.625-14.625h132.47c8.0625 0 14.625 6.5625 14.625 14.625v406.69c0 8.0625-6.5625 14.625-14.625 14.625s-14.578-6.5625-14.578-14.625zm536.21 190.08c-23.109-47.625-80.672-67.594-128.29-44.484l-203.16 98.484c3.4688-32.344-9.7031-65.25-36.844-86.156-72.188-55.734-144.32-111.42-216.52-167.06-15.234-11.766-31.969-17.531-51.234-17.531h-342.1c-8.0625 0-14.625 6.5625-14.625 14.625v307.82c0 8.0625 6.5625 14.625 14.625 14.625h167.34c34.594 18.047 66.047 34.781 93.938 49.547 144.71 76.828 216.52 114.23 288.71 114.23 68.484 0 137.34-33.656 269.02-99.281 33.469-16.688 71.438-35.625 114.61-56.531 22.969-11.109 40.312-30.656 48.75-54.938s6.9375-50.344-4.2188-73.359zm-23.391 63.797c-5.8594 16.922-17.906 30.469-33.844 38.203-43.312 21-81.328 39.938-114.89 56.672-127.55 63.562-193.18 96.234-256.03 96.234-1.6406 0-3.2812-0.046875-4.875-0.046875-64.641-1.7344-133.26-38.203-270.05-110.77-28.781-15.281-61.359-32.578-97.312-51.328-2.1094-1.0781-4.4062-1.6406-6.75-1.6406h-156.37v-278.63h327.52c12.703 0 23.297 3.6094 33.328 11.391 72.188 55.688 144.32 111.33 216.52 167.06 23.953 18.469 32.297 50.391 21.047 77.953-0.42188 1.125-0.9375 2.2031-1.4531 3.2812-0.28125 0.60938-0.60938 1.2188-0.89062 1.7812-1.875 3.7031-4.0781 7.2656-6.6094 10.594-10.828 14.062-26.625 23.062-44.344 25.359-17.766 2.2969-35.25-2.3906-49.312-13.266l-153.56-118.5c-6.375-4.9219-15.609-3.75-20.531 2.625s-3.75 15.562 2.625 20.531l153.61 118.55c16.875 13.031 37.219 19.922 58.359 19.922 4.1719 0 8.3906-0.28125 12.609-0.79687 25.5-3.2812 48.188-16.266 63.797-36.562 2.3438-3.0938 4.5-6.3281 6.4688-9.6562l228.89-110.95c33.094-16.078 73.125-2.1562 89.203 30.938 7.6875 16.031 8.7188 34.125 2.8594 51.047zm-728.95-311.86v-54.609h-103.17v54.609c0 8.0625-6.5625 14.625-14.625 14.625s-14.625-6.5625-14.625-14.625v-69.234c0-8.0625 6.5625-14.625 14.625-14.625h132.42c8.0625 0 14.625 6.5625 14.625 14.625v69.234c0 8.0625-6.5625 14.625-14.625 14.625s-14.625-6.5625-14.625-14.625z" fill="#ea5b0a"></path></svg>