<svg xmlns="http://www.w3.org/2000/svg" width="1200pt" height="1200pt" viewBox="0 0 1200 1200"><path d="m234 654.32c51.562 0 101.02 20.484 137.48 56.953s56.953 85.922 56.906 137.48c0 6.75-0.375 13.5-1.0312 20.203-0.5625 5.25-1.2656 10.406-2.25 15.516l38.859 77.672-0.046875 0.046875c2.0625 4.0781 1.875 8.9062-0.51562 12.797-2.4375 3.8906-6.6562 6.2812-11.25 6.2812h-36.703v28.406-0.046875c0 7.3125-5.9531 13.266-13.266 13.266h-14.203l17.484 17.578c2.4844 2.4375 3.8906 5.8125 3.8906 9.3281v30.328-0.046875c-0.046875 7.3125-5.9531 13.219-13.266 13.219h-79.031v37.266c0 3.5156-1.3594 6.8906-3.8438 9.375s-5.8594 3.8906-9.375 3.8906h-216c-4.2656 0.046875-8.2969-2.0156-10.828-5.4844-2.4844-3.5156-3.1875-7.9688-1.7812-12.047l37.875-125.29v0.046875c-42.422-33.656-68.859-83.484-73.031-137.48-4.125-54 14.484-107.25 51.281-147 36.797-39.703 88.5-62.297 142.64-62.25zm666.1-189.47h0.046875c-7.3125 0-13.219-5.9531-13.219-13.266 0-7.2656 5.9062-13.219 13.219-13.219h82.125-0.046875c7.3125 0 13.219 5.9531 13.219 13.219 0 7.3125-5.9062 13.266-13.219 13.266zm-33.562-151.82c-3.0469 1.8281-6.7031 2.3906-10.172 1.5-3.4219-0.89062-6.375-3.1406-8.1562-6.2344s-2.2031-6.75-1.2656-10.172c0.98438-3.4219 3.3281-6.3281 6.4688-8.0156l71.109-41.016c6.2812-3.6094 14.344-1.4531 17.953 4.8281 3.6562 6.3281 1.4531 14.391-4.8281 18zm-105.09-114.7c-3.6094 6.2812-11.672 8.4375-17.953 4.8281-6.3281-3.6094-8.4844-11.672-4.875-18l41.062-71.109c3.6094-6.2812 11.672-8.4844 18-4.875 6.3281 3.6562 8.4844 11.672 4.875 18zm-461.58 240.1c7.3125 0 13.219 5.9062 13.219 13.219s-5.9062 13.219-13.219 13.219h-82.125 0.046875c-7.3125 0-13.219-5.9062-13.219-13.219s5.9062-13.219 13.219-13.219zm46.734-148.31c3.1406 1.6875 5.4844 4.5938 6.4688 8.0156 0.9375 3.4219 0.51562 7.0781-1.2656 10.172s-4.7344 5.3438-8.1562 6.2344c-3.4688 0.89063-7.125 0.32813-10.172-1.5l-71.109-41.109c-6.2812-3.6094-8.4844-11.672-4.8281-18 3.6094-6.2812 11.672-8.4375 17.953-4.8281zm114.7-104.95c3.6562 6.3281 1.5 14.344-4.8281 18-6.2812 3.6094-14.344 1.4531-17.953-4.875l-41.109-71.109c-1.7344-3-2.2031-6.6094-1.3125-9.9844 0.9375-3.375 3.1406-6.2812 6.1875-8.0156 6.3281-3.6094 14.391-1.4062 18 4.875zm151.92-33.562c0 7.3125-5.9062 13.219-13.219 13.219s-13.219-5.9062-13.219-13.219v-82.125c0-7.3125 5.9062-13.219 13.219-13.219s13.219 5.9062 13.219 13.219zm-13.219 197.02c36.891 0.046874 68.578 26.156 75.75 62.297 7.1719 36.188-12.188 72.375-46.266 86.484-34.078 14.062-73.359 2.1562-93.844-28.547-20.484-30.656-16.453-71.484 9.6094-97.594 14.531-14.484 34.219-22.641 54.75-22.641zm36.047 41.391v0.046876c-17.203-17.156-44.109-19.781-64.266-6.2812-20.203 13.5-28.031 39.375-18.703 61.781 9.2812 22.406 33.141 35.156 56.906 30.422 23.812-4.7344 40.969-25.641 40.969-49.922 0.046875-13.5-5.3438-26.484-14.906-36zm33.281-84.984 2.5312-1.2656h-0.046875c10.078-5.1094 22.266-3.1406 30.234 4.8281l15.422 15.375c3.8906 3.8906 6.4688 8.9062 7.3125 14.344 0.89062 5.4375 0 10.969-2.4844 15.891l-1.2656 2.5312v-0.046874c-0.79688 1.5-1.2656 3.0938-1.2656 4.7812 0.046875 1.6875 0.46875 3.375 1.2656 4.875 1.2656 2.6719 2.5312 5.3906 3.6094 8.0625 1.0781 2.6719 2.2031 5.4375 3.1406 8.25h-0.046875c0.51562 1.5938 1.4062 3.0469 2.5312 4.2656 1.2188 1.1719 2.6719 2.0156 4.2656 2.5312l2.7656 0.89063v-0.046876c10.781 3.4688 18.047 13.5 18 24.797v21.844c0 5.4844-1.7344 10.828-4.9688 15.281-3.2344 4.4531-7.8281 7.7812-13.078 9.4688l-2.7656 0.89062v-0.046874c-1.5938 0.51562-3.0469 1.4062-4.2656 2.5312-1.1719 1.2188-2.0156 2.6719-2.5312 4.2656-0.9375 2.8125-2.0156 5.5781-3.1406 8.2969s-2.2969 5.2969-3.6094 8.0156c-0.75 1.5-1.1719 3.1875-1.2188 4.875 0 1.6875 0.42188 3.3281 1.2188 4.7812l1.2656 2.5312c5.1562 10.031 3.2344 22.219-4.7344 30.188l-15.469 15.469h0.046875c-7.9688 7.9688-20.156 9.9375-30.234 4.8281l-2.5312-1.2656c-1.4531-0.79687-3.0938-1.2656-4.7344-1.2656-1.7344 0.046874-3.375 0.46875-4.875 1.2656-2.6719 1.2656-5.3906 2.5312-8.0625 3.6094-2.6719 1.0781-5.4375 2.2031-8.25 3.1406v-0.046874c-1.6406 0.51562-3.0938 1.4062-4.2656 2.5312-1.1719 1.2188-2.0625 2.7188-2.5312 4.3594l-0.89062 2.6719c-3.4219 10.781-13.453 18.047-24.75 18h-21.844c-5.4844 0-10.828-1.7344-15.328-4.9219-4.4531-3.2344-7.7812-7.8281-9.4219-13.078l-0.89062-2.6719c-0.46875-1.6406-1.3594-3.1406-2.5312-4.3594-1.1719-1.125-2.625-2.0156-4.2656-2.5312-2.8125-0.9375-5.5781-2.0156-8.2969-3.1406s-5.2969-2.2969-8.0156-3.6094v0.046874c-1.5-0.79687-3.1406-1.2188-4.875-1.2656-1.6406 0-3.2812 0.46875-4.7344 1.2656l-2.5312 1.2656c-10.078 5.1094-22.266 3.1406-30.234-4.8281l-15.422-15.469c-7.9688-7.9688-9.9375-20.156-4.8281-30.188l1.2656-2.5312c0.79688-1.4531 1.2188-3.0938 1.2656-4.7812-0.046875-1.6875-0.46875-3.375-1.2656-4.875-1.2656-2.6719-2.5312-5.3906-3.6094-8.0156s-2.2031-5.4844-3.1406-8.2969c-0.51562-1.5938-1.3594-3.0469-2.5312-4.2656-1.2188-1.1719-2.7188-2.0156-4.3125-2.5312l-2.6719-0.89063v0.046876c-5.25-1.6875-9.7969-5.0156-13.031-9.4688-3.1875-4.4531-4.9219-9.7969-4.9219-15.328v-21.797c-0.046875-11.297 7.2188-21.328 18-24.75l2.6719-0.89063c1.6406-0.46875 3.0938-1.3594 4.3125-2.5312 1.1719-1.1719 2.0625-2.625 2.5312-4.2656 0.9375-2.8125 2.0156-5.5781 3.1406-8.25 1.125-2.6719 2.2969-5.3906 3.6094-8.0625 0.79688-1.5 1.2188-3.1406 1.2656-4.875-0.046875-1.6406-0.46875-3.2812-1.2656-4.7344l-1.2656-2.5312c-5.1094-10.078-3.1406-22.266 4.8281-30.234l15.469-15.469v0.046874c7.9688-7.9688 20.156-9.9375 30.188-4.8281l2.5312 1.2656c1.4531 0.79688 3.0938 1.2188 4.7812 1.2656 1.6875-0.046876 3.3281-0.46875 4.875-1.2656 2.6719-1.2656 5.3906-2.5312 8.0156-3.6094 2.625-1.0781 5.4844-2.2031 8.2969-3.1406 1.5938-0.46875 3.0469-1.3594 4.2656-2.5312 1.125-1.2188 2.0156-2.6719 2.4844-4.2656l0.89062-2.7656v0.046876c3.4219-10.781 13.453-18.094 24.797-18.047h21.844-0.046875c11.297-0.046874 21.328 7.2656 24.797 18.047l0.89062 2.7656-0.046875-0.046874c0.51562 1.5938 1.4062 3.0469 2.5312 4.2656 1.1719 1.1719 2.6719 2.0625 4.2656 2.5312 2.8125 0.9375 5.5781 2.0156 8.25 3.1406s5.3906 2.2969 8.0625 3.6094c1.5 0.79688 3.1875 1.2188 4.875 1.2656 1.6875-0.046876 3.2812-0.46875 4.7812-1.2656zm14.25 22.406-2.25 1.1719h-0.046875c-10.453 5.3906-22.828 5.4375-33.328 0.1875-2.0156-0.98437-4.1719-2.0156-6.5156-2.9531s-4.3594-1.7344-6.6094-2.5312v0.046874c-5.4844-1.875-10.5-4.9688-14.578-9.0938-4.0312-4.0781-7.0781-9.1406-8.8125-14.625l-0.75-2.4375h-21.328l-0.75 2.4375h-0.046875c-1.7344 5.4844-4.7812 10.5-8.8125 14.625-4.125 4.125-9.0938 7.2188-14.578 9.0938-2.25 0.75-4.5 1.6406-6.6094 2.5312-2.3438 0.9375-4.5 1.9219-6.5156 2.9531v-0.046876c-10.5 5.25-22.875 5.2031-33.328-0.1875l-2.25-1.1719-15.047 15.047 1.1719 2.25-0.046875 0.046876c5.3438 10.453 5.4375 22.781 0.1875 33.281-0.98438 2.0156-2.0156 4.1719-2.9531 6.5156s-1.7344 4.3594-2.5312 6.6094v0.046874c-1.8281 5.4844-4.9219 10.453-9.0469 14.531-4.125 4.0781-9.1406 7.125-14.625 8.8594l-2.4375 0.75v21.328l2.4375 0.75c5.4844 1.7812 10.5 4.8281 14.625 8.8594 4.0781 4.0781 7.2188 9.0469 9.0469 14.531 0.75 2.25 1.5469 4.5 2.5312 6.6094 0.9375 2.3438 1.9219 4.5 2.9531 6.5156v0.046874c5.25 10.5 5.1562 22.875-0.1875 33.328l-1.1719 2.25 15.047 15.047 2.25-1.1719c10.453-5.3438 22.828-5.4375 33.375-0.1875 2.0156 0.98437 4.1719 2.0156 6.5156 2.9531s4.3594 1.7344 6.6094 2.5312c5.4844 1.875 10.453 4.9688 14.531 9.0469 4.0781 4.125 7.0781 9.1406 8.8594 14.625l0.75 2.4375h21.328l0.75-2.4375c1.7812-5.4844 4.7812-10.5 8.8594-14.625 4.0781-4.0781 9.0938-7.2188 14.578-9.0469 2.25-0.75 4.4531-1.5469 6.6094-2.5312 2.2031-0.9375 4.5-1.9219 6.5156-2.9531 10.5-5.25 22.875-5.1562 33.328 0.1875l2.25 1.1719 15.047-15.047-1.1719-2.25c-5.3438-10.453-5.3906-22.875-0.14062-33.375 0.98438-2.0156 2.0156-4.1719 2.9531-6.5156 0.89062-2.1094 1.7344-4.3594 2.5312-6.6094v-0.046876c1.8281-5.4844 4.9688-10.453 9.0469-14.531 4.125-4.0312 9.1406-7.0781 14.625-8.8594l2.4375-0.75v-21.281l-2.4375-0.75v-0.046876c-5.4844-1.7344-10.5-4.7812-14.625-8.8125-4.125-4.0781-7.2188-9.0938-9.0469-14.578-0.75-2.25-1.6406-4.4531-2.5312-6.6094-0.89062-2.2031-1.9219-4.5-2.9531-6.5156-5.25-10.5-5.1562-22.875 0.1875-33.328l1.1719-2.25zm-226.97 312.28h20.625v-0.84375h0.046875c0.09375-8.8125-1.7344-17.531-5.3906-25.594-3.75-7.9688-9.1875-15.047-15.984-20.672-24.516-20.953-44.25-46.922-57.844-76.172-23.297-50.438-26.953-107.72-10.172-160.69 16.781-52.922 52.781-97.688 100.88-125.44 48.094-27.797 104.86-36.562 159.1-24.609 54.238 11.953 102.05 43.734 134.02 89.156 32.016 45.422 45.844 101.11 38.859 156.24-7.0312 55.078-34.406 105.56-76.734 141.52-13.781 11.344-21.656 28.406-21.281 46.266v0.84375h20.672c23.438 0 42.422 18.984 42.422 42.469 0 23.438-18.984 42.469-42.422 42.469h-20.672v2.8594c0 17.812-7.0781 34.875-19.688 47.484-6.2812 6.2344-13.734 11.203-21.938 14.625-4.2188 41.625-39.281 73.266-81.094 73.266s-76.875-31.641-81.094-73.266c-8.2031-3.4219-15.656-8.3906-21.938-14.625-12.609-12.609-19.688-29.672-19.688-47.484v-2.8594h-20.672c-23.438 0-42.469-19.031-42.469-42.469 0-23.484 19.031-42.469 42.469-42.469zm47.109 0h192.52v-0.84375c-0.28125-25.594 11.016-50.016 30.75-66.328 41.016-34.875 65.859-85.078 68.719-138.79 2.9062-53.719-16.453-106.27-53.438-145.31-37.031-39.047-88.453-61.172-142.26-61.172-53.809 0-105.23 22.125-142.26 61.172-36.984 39.047-56.344 91.594-53.438 145.31 2.8594 53.719 27.703 103.92 68.719 138.79 19.734 16.312 31.031 40.734 30.703 66.328zm192.52 84.938h-192.52v2.8594c0.14062 22.406 18.281 40.547 40.688 40.641h111.19c22.359-0.09375 40.5-18.234 40.594-40.641zm47.156-58.5h-286.74c-8.8594 0-15.984 7.1719-15.984 15.984s7.125 15.984 15.984 15.984h286.74c4.2188 0 8.25-1.6875 11.25-4.6875 4.5-4.5938 5.8594-11.438 3.4219-17.391-2.4844-5.9531-8.25-9.8438-14.672-9.8906zm-104.44 154.18c7.0781-7.0781 12.094-15.938 14.484-25.641h-106.88c4.7812 19.266 19.547 34.453 38.719 39.75 19.125 5.3438 39.609-0.046876 53.672-14.109zm327.05-139.45c-92.766 0-168 75.234-168 168 0 6.1406 0.32812 11.953 0.89062 17.484h-0.046875c0.60938 5.8125 1.5469 11.625 2.7656 17.344 0.65625 3.1406 0.14062 6.4219-1.5 9.2344l-30.844 61.922h28.594c3.5156 0 6.8906 1.3594 9.375 3.8438 2.4844 2.4844 3.8906 5.8594 3.8906 9.375v28.406h32.859l-0.046875-0.046874c3.5156 0 6.8906 1.4062 9.375 3.8906 2.4844 2.4844 3.8906 5.8594 3.8906 9.375 0 3.6094-1.4531 6.9844-3.9844 9.5156l-36.141 36.094v11.578h79.125c3.5156 0 6.8906 1.3594 9.375 3.8438 2.4844 2.5312 3.8906 5.9062 3.8906 9.4219v37.266h184.87l-35.531-117.47c-1.6875-5.5781 0.42188-11.578 5.25-14.812 59.062-42.609 83.953-118.45 61.641-187.82-22.359-69.328-86.859-116.39-159.71-116.44zm-137.48 30.422c37.828-37.781 89.578-58.359 143.02-56.812 53.484 1.5469 103.92 25.031 139.55 64.969 35.578 39.938 53.156 92.766 48.562 146.02-4.5938 53.297-30.938 102.38-72.797 135.61l37.875 125.29c0.46875 1.3594 0.70312 2.8125 0.70312 4.2656 0 7.3125-5.9531 13.219-13.266 13.219h-216c-3.5156 0-6.8906-1.3594-9.375-3.8906-2.4844-2.4844-3.8438-5.8594-3.8438-9.3281v-37.312h-79.078c-7.3125 0-13.219-5.9062-13.266-13.172v-30.328c0-3.5156 1.4062-6.8438 3.8906-9.3281l17.484-17.531h-14.156c-7.3125 0-13.266-5.9062-13.266-13.219v-28.406h-36.75c-4.5938 0-8.8125-2.3906-11.203-6.2812-2.4375-3.8906-2.625-8.7188-0.5625-12.797l38.859-77.672c-0.9375-5.1094-1.6875-10.266-2.25-15.516-0.70312-6.75-1.0781-13.5-1.0781-20.25-0.09375-51.562 20.391-101.06 56.953-137.53zm-475.78 18.703c-33.141-33.328-78.75-51.234-125.72-49.406-46.969 1.8281-91.031 23.297-121.45 59.109s-44.484 82.734-38.719 129.42c5.7656 46.641 30.844 88.734 69.094 116.06 4.7812 3.2344 6.9375 9.2344 5.25 14.812l-35.531 117.47h184.87v-37.312c0-7.3125 5.9062-13.266 13.266-13.266h79.125v-11.578l-36.141-36.094h-0.046875c-2.5312-2.5312-3.9844-5.9062-3.9844-9.5156 0-3.5156 1.4062-6.8906 3.8906-9.375 2.4844-2.4844 5.8594-3.8906 9.375-3.8906h32.859l-0.046875-28.359c0.046875-3.5156 1.4531-6.8906 3.9375-9.375 2.4844-2.4844 5.8594-3.8438 9.3281-3.8438h28.641l-30.938-61.969c-1.6406-2.8125-2.2031-6.0938-1.5-9.2812 1.2188-5.7188 2.1094-11.484 2.7188-17.297 0.5625-5.5781 0.89062-11.391 0.89062-17.484v-0.046874c0.046875-44.531-17.719-87.281-49.266-118.73z" fill="#ea5b0a"></path></svg>