<svg xmlns="http://www.w3.org/2000/svg" width="1200pt" height="1200pt" viewBox="0 0 1200 1200"><path d="m470.16 372.94-66.375-32.062c-11.625-5.625-25.922-2.7656-34.547 6.8438l-18.141 20.391c-2.3906 2.7656-5.7656 4.3125-9.375 4.3125-3.7031 0-7.0781-1.3125-9.6094-3.8438l-97.453-98.156c-4.7812-4.7812-5.0625-12.375-0.70312-17.531l22.688-27c8.0625-9.6094 9.1406-23.297 2.625-33.938l-45.234-74.531c-5.5312-9.1406-14.625-15.609-25.078-17.766s-21.375 0-30.141 6.2344l-11.625 8.2969c-38.156 27-54.375 74.391-40.312 117.94 41.531 129.37 146.76 208.69 227.76 252.47 15.844 8.5312 33 12.609 49.922 12.609 37.453 0 74.062-19.781 93.375-54.703l9-16.219c5.1562-9.2344 6.2344-20.297 3-30.375s-10.453-18.469-20.062-23.062zm-3.9375 41.766-9 16.219c-21.844 39.234-71.531 53.859-110.86 32.625-77.156-41.625-177.37-116.86-216.37-238.69-10.781-33.609 1.7812-70.219 31.312-91.078l11.625-8.2969c2.5312-1.7812 5.3906-2.625 8.2969-2.625 0.9375 0 2.0625 0 3 0.375 3.9375 0.84375 7.3125 3.2344 9.4688 6.7031l45.234 74.531c1.2188 1.9219 0.9375 4.3125-0.46875 6l-22.688 27c-12.469 14.766-11.531 36.234 2.0625 49.922l97.453 98.156c7.2188 7.2188 17.156 11.297 27.375 10.922 10.219-0.23438 19.922-4.7812 26.625-12.375l18.141-20.391c1.5469-1.6875 4.0781-2.2969 6.1406-1.2188l66.375 32.062c3.6094 1.7812 6.375 4.7812 7.5469 8.7656 1.2188 3.9375 0.84375 7.9219-1.2188 11.391z"></path><path d="m489.47 771.24h-384.84c-6.6094 0-12 5.3906-12 12v237.24c0 6.6094 5.3906 12 12 12h384.84c6.6094 0 12-5.3906 12-12v-237.24c0-6.6094-5.3906-12-12-12zm-192.32 116.53-150.14-92.531h300.14l-150.14 92.531zm-64.922-11.906-115.55 115.55v-186.71zm21 12.984 37.547 23.156c1.9219 1.2188 4.0781 1.7812 6.2344 1.7812s4.3125-0.60938 6.2344-1.7812l37.547-23.156 119.62 119.53h-326.72zm108.7-12.984 115.55-71.297v186.71l-115.55-115.55z"></path><path d="m810 849.71c-17.062 0-30.844 13.781-30.844 30.844s13.781 30.844 30.844 30.844 30.844-13.781 30.844-30.844-13.781-30.844-30.844-30.844zm0 37.688c-3.8438 0-6.8438-3.1406-6.8438-6.8438s3.1406-6.8438 6.8438-6.8438 6.8438 3.1406 6.8438 6.8438-3.1406 6.8438-6.8438 6.8438z"></path><path d="m872.86 849.71c-17.062 0-30.844 13.781-30.844 30.844s13.781 30.844 30.844 30.844 30.844-13.781 30.844-30.844-13.781-30.844-30.844-30.844zm0 37.688c-3.8438 0-6.8438-3.1406-6.8438-6.8438s3.1406-6.8438 6.8438-6.8438 6.8438 3.1406 6.8438 6.8438-3.1406 6.8438-6.8438 6.8438z"></path><path d="m935.63 849.71c-17.062 0-30.844 13.781-30.844 30.844s13.781 30.844 30.844 30.844 30.844-13.781 30.844-30.844-13.781-30.844-30.844-30.844zm0 37.688c-3.8438 0-6.8438-3.1406-6.8438-6.8438s3.1406-6.8438 6.8438-6.8438 6.8438 3.1406 6.8438 6.8438-3.1406 6.8438-6.8438 6.8438z"></path><path d="m967.55 880.55c0 17.062 13.781 30.844 30.844 30.844s30.844-13.781 30.844-30.844-13.781-30.844-30.844-30.844-30.844 13.781-30.844 30.844zm37.828 0c0 3.8438-3.1406 6.8438-6.8438 6.8438s-6.8438-3.1406-6.8438-6.8438 3.1406-6.8438 6.8438-6.8438 6.8438 3.1406 6.8438 6.8438z"></path><path d="m904.22 698.63c-100.31 0-181.78 81.609-181.78 181.78 0 47.531 18 91.922 50.766 126l-33 73.922c-2.0625 4.5469-1.0781 9.9375 2.5312 13.453 2.2969 2.2969 5.2969 3.4688 8.3906 3.4688 1.6875 0 3.4688-0.375 5.0625-1.0781l91.781-42.703c18.141 5.8594 37.078 8.8594 56.297 8.8594 100.22 0 181.78-81.609 181.78-181.78 0-100.22-81.609-181.78-181.78-181.78zm0 339.61c-18.141 0-36-3.1406-52.922-9.1406-3-1.0781-6.2344-0.9375-9.1406 0.46875l-66.938 31.219 23.297-52.219c2.0625-4.6875 0.9375-10.078-2.7656-13.547-31.781-30.141-49.312-70.781-49.312-114.61 0-87 70.781-157.78 157.78-157.78s157.78 70.781 157.78 157.78c0 86.996-70.781 157.78-157.78 157.78z"></path><path d="m49.547 557.76h495.14c6.6094 0 12-5.3906 12-12v-495.14c0-6.6094-5.3906-12-12-12h-495.14c-6.6094 0-12 5.3906-12 12v495.14c0 6.6094 5.3906 12 12 12zm12-495.14h471.14v471.14h-471.14z"></path><path d="m643.45 50.625v495.14c0 6.6094 5.3906 12 12 12h495.14c6.6094 0 12-5.3906 12-12l-0.046875-495.14c0-6.6094-5.3906-12-12-12h-495.14c-6.6094 0-12 5.3906-12 12zm24 12h471.14v471.14h-471.14z"></path><path d="m49.547 1161.4h495.14c6.6094 0 12-5.3906 12-12v-495.14c0-6.6094-5.3906-12-12-12h-495.14c-6.6094 0-12 5.3906-12 12v495.14c0 6.6094 5.3906 12 12 12zm12-495.14h471.14v471.14h-471.14z"></path><path d="m655.45 1161.4h495.14c6.6094 0 12-5.3906 12-12v-495.14c0-6.6094-5.3906-12-12-12h-495.14c-6.6094 0-12 5.3906-12 12v495.14c0 6.6094 5.3906 12 12 12zm12-495.14h471.14v471.14h-471.14z"></path><path d="m962.06 277.08c20.156-16.922 33-42.234 33-70.547 0-50.766-41.297-92.156-92.156-92.156s-92.156 41.297-92.156 92.156c0 28.312 12.844 53.625 33 70.547-79.781 13.219-141 82.547-141 166.08v23.062c0 6.6094 5.3906 12 12 12h376.22c6.6094 0 12-5.3906 12-12v-23.062c0-83.531-61.219-152.86-141-166.08zm-127.36-70.547c0-37.547 30.609-68.156 68.156-68.156s68.156 30.609 68.156 68.156-30.609 68.156-68.156 68.156-68.156-30.609-68.156-68.156zm244.36 247.69h-352.22v-11.062c0-79.688 64.781-144.61 144.47-144.61h63.141c79.688 0 144.61 64.781 144.61 144.61z"></path></svg>