<svg xmlns="http://www.w3.org/2000/svg" width="1200pt" height="1200pt" viewBox="0 0 1200 1200"><path d="m1088.3 315.24 0.046876 1.2188v790.18c0 27.375-11.25 52.312-29.344 70.453-18.047 18.094-42.984 29.344-70.453 29.344h-791.9c-27.375 0-52.312-11.203-70.406-29.297-18.141-18.141-29.391-43.125-29.391-70.5v-1000.4c0-27.375 11.203-52.359 29.297-70.453 18.141-18.141 43.125-29.391 70.5-29.391h580.92l0.9375 0.046875 0.9375-0.046875c5.3438 0 10.172 2.1562 13.688 5.6719l289.55 289.55c3.7031 3.7031 5.625 8.625 5.6719 13.547zm-873.24 694.6c-6.75-8.25-5.4375-20.438 2.7656-27.141 8.25-6.75 20.438-5.4375 27.141 2.7656l27.656 33.984 76.031-93.328c6.75-8.25 18.891-9.5156 27.141-2.7656s9.5156 18.891 2.7656 27.141l-90.797 111.52-2.9531 3c-8.25 6.75-20.438 5.4375-27.141-2.7656l-42.609-52.359zm0-258.47c-6.75-8.25-5.4375-20.438 2.7656-27.141 8.25-6.75 20.438-5.4375 27.141 2.7656l27.656 33.984 76.031-93.328c6.75-8.25 18.891-9.5156 27.141-2.7656s9.5156 18.891 2.7656 27.141l-90.797 111.52-2.9531 3c-8.25 6.75-20.438 5.4375-27.141-2.7656l-42.609-52.359zm0-258.47c-6.75-8.25-5.4375-20.438 2.7656-27.141 8.25-6.75 20.438-5.4375 27.141 2.7656l27.656 33.984 76.031-93.328c6.75-8.25 18.891-9.5156 27.141-2.7656s9.5156 18.891 2.7656 27.141l-90.797 111.52-2.9531 3c-8.25 6.75-20.438 5.4375-27.141-2.7656l-42.609-52.359zm0-258.47c-6.75-8.25-5.4375-20.438 2.7656-27.141 8.25-6.75 20.438-5.4375 27.141 2.7656l27.656 33.984 76.031-93.328c6.75-8.25 18.891-9.5156 27.141-2.7656s9.5156 18.891 2.7656 27.141l-90.797 111.52-2.9531 3c-8.25 6.75-20.438 5.4375-27.141-2.7656l-42.609-52.359zm265.69 49.406c-10.688 0-19.359-8.6719-19.359-19.359s8.6719-19.359 19.359-19.359h189c10.688 0 19.359 8.6719 19.359 19.359s-8.6719 19.359-19.359 19.359zm0 258.47c-10.688 0-19.359-8.6719-19.359-19.359s8.6719-19.359 19.359-19.359h474.52c10.688 0 19.359 8.6719 19.359 19.359s-8.6719 19.359-19.359 19.359zm0 258.47c-10.688 0-19.359-8.6719-19.359-19.359s8.6719-19.359 19.359-19.359h474.52c10.688 0 19.359 8.6719 19.359 19.359s-8.6719 19.359-19.359 19.359zm0-608.34c-10.688 0-19.359-8.6719-19.359-19.359s8.6719-19.359 19.359-19.359h189c10.688 0 19.359 8.6719 19.359 19.359s-8.6719 19.359-19.359 19.359zm0 258.47c-10.688 0-19.359-8.6719-19.359-19.359s8.6719-19.359 19.359-19.359h364.03c10.688 0 19.359 8.6719 19.359 19.359s-8.6719 19.359-19.359 19.359zm0 258.47c-10.688 0-19.359-8.6719-19.359-19.359s8.6719-19.359 19.359-19.359h364.03c10.688 0 19.359 8.6719 19.359 19.359s-8.6719 19.359-19.359 19.359zm0 349.87c-10.688 0-19.359-8.6719-19.359-19.359s8.6719-19.359 19.359-19.359h474.52c10.688 0 19.359 8.6719 19.359 19.359s-8.6719 19.359-19.359 19.359zm0-91.453c-10.688 0-19.359-8.6719-19.359-19.359s8.6719-19.359 19.359-19.359h364.03c10.688 0 19.359 8.6719 19.359 19.359s-8.6719 19.359-19.359 19.359zm279.37-922.64h-563.44c-16.781 0-32.109 6.8906-43.172 17.906-11.016 11.062-17.906 26.344-17.906 43.172v1000.4c0 16.781 6.8906 32.109 17.906 43.172 11.062 11.016 26.344 17.906 43.172 17.906h791.9c16.781 0 32.062-6.8906 43.125-17.953 11.109-11.016 17.953-26.344 17.953-43.125v-771.94h-189.79c-27.375 0-52.312-11.203-70.406-29.297-18.141-18.094-29.391-42.984-29.391-70.5v-189.74zm99.797 250.82h162.37l-223.45-223.45v162.37c0 16.781 6.8906 32.062 17.953 43.125 11.016 11.109 26.344 17.953 43.125 17.953z"></path></svg>