<svg xmlns="http://www.w3.org/2000/svg" width="1200pt" height="1200pt" viewBox="0 0 1200 1200"><path d="m980.26 251.21c-6.4219-67.734-62.625-118.88-130.69-118.88h-120.37v-38.625c0-31.031-25.219-56.25-56.25-56.25h-145.92c-31.031 0-56.25 25.219-56.25 56.25v38.625h-120.37c-68.062 0-124.26 51.094-130.69 118.88l-64.688 682.45c-2.4844 26.25 6.2812 52.453 24 71.906 17.719 19.5 42.984 30.656 69.328 30.656h102.84v0.84375c-21.797 7.7812-37.5 28.406-37.5 52.781v72.562h572.53v-72.562c0-24.422-15.703-45.047-37.5-52.781v-0.84375h102.84c26.344 0 51.656-11.203 69.328-30.656 17.719-19.5 26.484-45.703 24-71.906l-64.688-682.45zm-135.74 672.56c-4.0312-9.7969-10.781-18.141-19.312-24.234 27.75-35.016 70.172-109.88 36.375-213.79-20.812-64.078-45.609-97.078-65.578-123.56-19.406-25.875-33.094-44.109-36.328-82.453h54.75v-28.969c0-51.703-42.047-93.75-93.75-93.75h-13.922l-42.141-112.12h185.02c9.75 0 17.766 7.2656 18.656 16.969l62.719 661.92zm-319.5-109.92c0-50.672 41.25-153.32 75-153.32s75 102.66 75 153.32c0 41.344-33.656 75-75 75s-75-33.656-75-75zm75-190.82c-68.859 0-112.5 134.21-112.5 190.82 0 28.828 10.969 55.078 28.875 75h-101.3c-17.297-18.047-74.719-87.984-41.016-191.53 18.891-58.125 40.641-87.094 59.859-112.69 21.469-28.594 40.359-53.672 44.016-104.95h244.08c3.6562 51.281 22.5 76.359 44.016 104.95 19.219 25.547 40.969 54.516 59.859 112.69 33.891 104.25-23.344 173.39-40.969 191.53h-101.34c17.906-19.922 28.875-46.172 28.875-75 0-56.672-43.641-190.82-112.5-190.82zm80.766-228.52h39.891c28.125 0 51.469 20.719 55.594 47.719h-352.5c4.125-26.953 27.516-47.719 55.594-47.719h120.66v-37.5h-66.656l42.141-112.12h49.031zm-187.5-37.5h-13.922c-51.703 0-93.75 42.047-93.75 93.75v28.969h54.75c-3.2812 38.297-16.922 56.578-36.328 82.453-19.922 26.531-44.719 59.531-65.578 123.56-33.797 103.97 8.625 178.78 36.375 213.79-8.4844 6.0938-15.234 14.438-19.312 24.234h-86.484l62.719-661.92c0.9375-9.6562 8.9531-16.969 18.656-16.969h185.02zm355.5 768h-497.53v-35.062c0-10.359 8.3906-18.75 18.75-18.75h347.16v-37.5h-328.4v-34.922h117.52v-37.5h-117.52v-16.172c0-10.359 8.3906-18.75 18.75-18.75h385.03c10.359 0 18.75 8.3906 18.75 18.75v88.547h-40.641v37.5h59.391c10.359 0 18.75 8.3906 18.75 18.75zm144.47-144.66c-10.641 11.719-25.781 18.422-41.625 18.422h-102.84v-37.5h123.47l-66.609-702.94c-2.7656-29.062-26.812-50.953-56.016-50.953h-499.22c-29.156 0-53.25 21.891-56.016 50.906l-66.609 702.98h123.47v37.5h-102.84c-15.797 0-30.984-6.7031-41.625-18.422-10.641-11.672-15.891-27.422-14.391-43.125l64.688-682.45c4.5938-48.422 44.719-84.891 93.328-84.891h249.61v-37.5h-91.688v-38.625c0-10.359 8.3906-18.75 18.75-18.75h145.92c10.359 0 18.75 8.3906 18.75 18.75v38.625h-36.375v37.5h194.26c48.609 0 88.734 36.516 93.328 84.891l64.688 682.45c1.5 15.75-3.75 31.453-14.391 43.125z" fill="#ea5b0a"></path><path d="m463.69 607.5c-5.8594 7.7812-11.578 15.422-17.203 23.812l31.125 20.906c5.25-7.8281 10.594-14.953 16.312-22.5 17.25-22.969 36.844-49.031 48.75-88.312l-35.906-10.875c-9.9844 32.953-26.672 55.172-43.078 77.016z" fill="#ea5b0a"></path><path d="m409.74 708.89 35.672 11.625c4.125-12.703 8.3906-23.859 13.125-34.219l-34.125-15.562c-5.2969 11.625-10.125 24.094-14.672 38.156z" fill="#ea5b0a"></path><path d="m535.03 961.26h40.078v37.5h-40.078z" fill="#ea5b0a"></path></svg>