<svg xmlns="http://www.w3.org/2000/svg" width="1200pt" height="1200pt" viewBox="0 0 1200 1200"><path d="m338.86 410.06c-32.484 34.359-52.406 76.172-59.812 119.67-7.9688 46.875-1.4531 95.672 19.547 139.26 2.7188 5.625 0.32812 12.422-5.2969 15.141s-12.422 0.32812-15.141-5.2969c-23.062-47.859-30.234-101.44-21.469-152.86 8.1094-47.719 29.906-93.609 65.344-131.21l-32.109 4.4531c-6.1875 0.84375-11.906-3.4688-12.797-9.6562-0.84375-6.1875 3.4688-11.906 9.6562-12.797l66.047-9.1875c0.5625-0.09375 1.0781-0.14062 1.6406-0.14062h0.23438c1.2656 0 2.4844 0.23438 3.6562 0.65625l0.23438 0.09375c1.3594 0.51562 2.625 1.3125 3.6562 2.25 0.23438 0.23438 0.46875 0.42188 0.65625 0.65625 0.98438 1.0312 1.7344 2.2969 2.25 3.6562l0.09375 0.23438c0.42188 1.1719 0.60938 2.3906 0.65625 3.6562v0.23438c0 0.5625-0.046875 1.125-0.14062 1.6406l-9.1875 66.047c-0.84375 6.1875-6.5625 10.547-12.797 9.6562-6.1875-0.84375-10.547-6.5625-9.6562-12.797zm-60.141 367.22c-6.2344 0.046875-11.344-4.9688-11.391-11.203s4.9688-11.344 11.203-11.391c29.812-0.32812 66.188 6.7969 104.34 20.109 36.609 12.844 75.047 31.5 111 54.938 36.188 23.578 65.016 48.891 84.938 73.125 8.7656 10.641 15.891 21.188 21.188 31.359 5.2969-10.172 12.375-20.719 21.141-31.359 19.922-24.234 48.797-49.547 84.938-73.125 35.953-23.438 74.391-42.094 111-54.938 38.156-13.359 74.484-20.438 104.34-20.109 6.2344 0.046875 11.25 5.1562 11.203 11.391s-5.1562 11.297-11.391 11.203c-27.234-0.28125-60.938 6.375-96.703 18.891-34.969 12.234-71.719 30.094-106.12 52.547-31.359 20.438-56.719 42.047-74.953 62.859 1.6406-1.1719 3.2812-2.3438 5.0156-3.5156 28.547-19.828 66.141-39.234 110.11-55.781 43.922-16.547 88.219-28.031 128.48-34.219 41.953-6.4219 79.828-7.125 108.56-1.7812 6.1406 1.125 10.219 7.0312 9.0938 13.172s-7.0312 10.219-13.172 9.0938c-26.156-4.875-61.453-4.125-101.11 1.9688-38.859 5.9531-81.609 17.016-123.89 32.953-33.844 12.75-63.609 27.141-88.031 42.047 34.078-13.172 75.469-24.516 121.26-32.531 48.656-8.5312 95.953-12.094 137.39-11.25 43.266 0.84375 80.25 6.6094 105.89 16.641 5.8125 2.2969 8.7188 8.8594 6.4219 14.672-2.2969 5.8125-8.8594 8.7188-14.672 6.4219-23.297-9.0938-57.516-14.344-98.109-15.141-39.797-0.79688-85.594 2.7188-133.03 10.969-47.344 8.2969-89.531 20.156-123.32 33.797-19.781 7.9688-36.562 16.5-49.641 25.172h350.63c13.922 0 26.578 5.6719 35.719 14.859 9.1406 9.1406 14.859 21.797 14.859 35.719s-5.6719 26.578-14.859 35.719c-9.1406 9.1406-21.797 14.859-35.719 14.859l-321.98-0.046875c-0.65625 15.328-7.1719 29.203-17.391 39.422-10.781 10.781-25.594 17.438-41.953 17.438s-31.219-6.6562-41.953-17.438c-10.219-10.172-16.734-24.047-17.391-39.422h-322.03c-13.922 0-26.578-5.6719-35.719-14.859-9.1406-9.1406-14.859-21.797-14.859-35.719s5.6719-26.578 14.859-35.719c9.1406-9.1406 21.797-14.859 35.719-14.859h350.63c-13.078-8.6719-29.859-17.156-49.641-25.172-33.797-13.641-76.031-25.547-123.37-33.797-47.438-8.2969-93.234-11.766-133.03-10.969-40.547 0.79688-74.812 6.0469-98.109 15.141-5.8125 2.2969-12.422-0.60938-14.672-6.4219-2.2969-5.8125 0.60937-12.422 6.4219-14.672 25.688-10.031 62.625-15.797 105.89-16.641 41.391-0.84375 88.734 2.7656 137.39 11.25 45.797 8.0156 87.188 19.359 121.26 32.531-24.422-14.906-54.188-29.297-88.031-42.047-42.281-15.938-85.031-27-123.89-32.953-39.656-6.0938-74.953-6.8438-101.11-1.9688-6.1406 1.125-12.047-2.9531-13.172-9.0938s2.9531-12.047 9.0938-13.172c28.734-5.3438 66.562-4.6406 108.56 1.7812 40.266 6.1875 84.609 17.672 128.48 34.219 43.969 16.547 81.516 35.953 110.11 55.781 1.6875 1.1719 3.375 2.3438 4.9688 3.5156-18.281-20.766-43.641-42.422-74.953-62.859-34.406-22.453-71.156-40.266-106.12-52.547-35.672-12.469-69.375-19.125-96.609-18.844zm418.69-207.94v-13.875c0-24.656 5.3438-47.531 15.891-68.391 10.641-21.047 26.672-40.219 47.906-57.281 23.438-18.844 42.422-41.766 55.453-67.453 12.609-24.891 19.594-52.359 19.594-81.188 0-56.484-26.719-107.53-69.844-144.37-42.703-36.469-101.53-59.016-166.4-59.016-64.875 0-123.71 22.547-166.4 59.016-43.172 36.844-69.844 87.891-69.844 144.37 0 28.828 6.9844 56.297 19.594 81.188 13.031 25.688 32.016 48.609 55.453 67.453 21.281 17.062 37.266 36.234 47.906 57.281 10.547 20.859 15.891 43.734 15.891 68.391v13.875c-5.4844 1.7812-10.359 4.875-14.344 8.8594-6.5625 6.5625-10.641 15.656-10.641 25.688v6.9844c0 9.9844 4.0781 19.078 10.641 25.688 6.6094 6.5625 15.656 10.641 25.688 10.641h6.3281c5.2031 17.109 14.672 32.016 27 43.078 14.484 13.031 32.766 20.766 52.781 20.766 19.969 0 38.297-7.7812 52.781-20.766 12.281-11.062 21.797-25.969 27-43.078h6.3281c9.9844 0 19.078-4.0781 25.688-10.641 6.6094-6.6094 10.688-15.656 10.688-25.688v-6.9844c0-9.9844-4.0781-19.078-10.688-25.688-4.0781-3.9844-8.9531-7.0312-14.438-8.8594zm-41.672 77.859c-4.1719 10.312-10.453 19.312-18.141 26.203-10.359 9.375-23.438 14.953-37.594 14.953s-27.234-5.5781-37.594-14.906c-7.6875-6.9375-13.969-15.891-18.141-26.203zm30.328-56.953c3.75 0 7.1719 1.5469 9.6094 4.0312 2.4844 2.4844 4.0312 5.9062 4.0312 9.6094v6.9844c0 3.75-1.5469 7.1719-4.0312 9.6094-2.4844 2.4844-5.9062 4.0312-9.6094 4.0312h-172.13c-3.75 0-7.1719-1.5469-9.6094-4.0312-2.4844-2.4844-4.0312-5.9062-4.0312-9.6094v-6.9844c0-3.75 1.5469-7.125 4.0312-9.6094s5.9062-4.0312 9.6094-4.0312zm295.31 396.71h-762.74c-7.6406 0-14.625 3.1406-19.688 8.2031s-8.2031 12.047-8.2031 19.688c0 7.6406 3.1406 14.625 8.2031 19.688s12.047 8.2031 19.688 8.2031h333.32c6.2812 0 11.344 5.1094 11.344 11.344v8.7656c0 10.078 4.125 19.266 10.781 25.922s15.844 10.781 25.922 10.781 19.266-4.125 25.922-10.781 10.781-15.844 10.781-25.922v-8.7656c0-6.2812 5.1094-11.344 11.344-11.344h333.32c7.6406 0 14.625-3.1406 19.688-8.2031s8.2031-12.047 8.2031-19.688c0-7.6406-3.1406-14.625-8.2031-19.688-5.1094-5.0625-12.047-8.2031-19.688-8.2031zm-103.41-592.18c35.438 37.641 57.234 83.484 65.344 131.21 8.7188 51.375 1.5938 104.95-21.469 152.86-2.7188 5.625-9.4688 7.9688-15.141 5.2969-5.625-2.7188-8.0156-9.4688-5.2969-15.141 21-43.594 27.516-92.391 19.547-139.26-7.4062-43.5-27.328-85.359-59.812-119.67l4.6875 33.469c0.84375 6.1875-3.4688 11.906-9.6562 12.797-6.1875 0.84375-11.906-3.4688-12.797-9.6562l-9.1875-66.047c-0.09375-0.5625-0.14062-1.0781-0.14062-1.6406v-0.23438c0-1.2656 0.23438-2.4844 0.65625-3.6562l0.09375-0.23437c0.51562-1.3594 1.3125-2.625 2.25-3.6562 0.23438-0.23438 0.42188-0.46875 0.65625-0.65625 1.0312-0.98438 2.2969-1.7344 3.6562-2.25l0.23438-0.09375c1.1719-0.42188 2.3906-0.60938 3.6094-0.65625h0.23438c0.5625 0 1.125 0.046874 1.6406 0.14062l66.047 9.1875c6.1875 0.84375 10.547 6.5625 9.6562 12.797-0.84375 6.1875-6.5625 10.547-12.797 9.6562zm-300.24-20.016v-60.469c0-6.2812-5.1094-11.344-11.344-11.344h-71.812c-6.2812 0-11.344 5.1094-11.344 11.344v71.812c0 6.2812 5.1094 11.344 11.344 11.344h60.469v170.06h-29.766v-12.047c0-28.172-6.1406-54.469-18.375-78.562-12.094-23.953-30.141-45.609-53.953-64.734-20.953-16.828-37.875-37.219-49.406-60-11.016-21.75-17.109-45.75-17.109-71.016 0-49.547 23.672-94.547 61.875-127.18 38.719-33.047 92.344-53.484 151.69-53.484s112.97 20.438 151.69 53.484c38.25 32.672 61.875 77.625 61.875 127.18 0 25.219-6.0938 49.266-17.109 71.016-11.531 22.781-28.453 43.172-49.406 60-23.766 19.125-41.812 40.781-53.953 64.734-12.234 24.141-18.375 50.391-18.375 78.562v12.047h-29.766v-170.06h60.469c6.2812 0 11.344-5.1094 11.344-11.344v-71.812c0-6.2812-5.1094-11.344-11.344-11.344h-71.812c-6.2812 0-11.344 5.1094-11.344 11.344v60.469zm44.531 192.74h-44.531v-170.06h44.531zm22.688-241.87h49.125v49.125h-49.125zm-89.906 49.125h-49.125v-49.125h49.125z" fill="#ea5b0a" fill-rule="evenodd"></path></svg>