<svg xmlns="http://www.w3.org/2000/svg" width="1200pt" height="1200pt" viewBox="0 0 1200 1200"><path d="m617.58 522.89c-20.578-4.6875-41.812-1.0781-59.672 10.172-17.906 11.25-30.328 28.781-35.016 49.406-4.6875 20.578-1.0781 41.766 10.172 59.672s28.781 30.328 49.406 35.016c5.9062 1.3594 11.812 2.0156 17.719 2.0156 14.719 0 29.203-4.125 41.953-12.188 17.906-11.25 30.328-28.781 35.016-49.406 4.6875-20.578 1.0781-41.812-10.172-59.672-11.25-17.906-28.828-30.328-49.406-35.016zm40.406 90.328c-3.5156 15.469-12.891 28.641-26.297 37.125-13.453 8.4375-29.344 11.156-44.859 7.6406-15.469-3.5156-28.641-12.891-37.125-26.297-8.4375-13.453-11.156-29.391-7.6406-44.859s12.891-28.641 26.297-37.125c9.6094-6.0469 20.484-9.1406 31.547-9.1406 4.4062 0 8.9062 0.51562 13.312 1.5 15.469 3.5156 28.641 12.891 37.125 26.297 8.4375 13.406 11.156 29.344 7.6406 44.859zm63.422-45.375-10.266-1.5938c-2.2031-7.3125-5.1562-14.344-8.7656-21.094l6.1406-8.4844c2.4375-3.375 2.4844-7.9219 0.14062-11.297-9.2344-13.453-20.719-24.938-34.125-34.125-3.4219-2.3438-8.0156-2.2969-11.344 0.1875l-8.3906 6.1406c-6.7031-3.6094-13.781-6.5156-21.141-8.7188l-1.6406-10.312c-0.65625-4.0781-3.8438-7.3594-7.9219-8.1094-16.078-3-32.297-3-48.281 0-4.0781 0.79688-7.2656 4.0312-7.9219 8.1562l-1.5938 10.266c-7.3125 2.2031-14.344 5.1562-21.094 8.7656l-8.4844-6.1406c-3.375-2.4375-7.9219-2.4844-11.344-0.14062-13.453 9.2344-24.938 20.719-34.125 34.125-2.3438 3.4219-2.2969 8.0156 0.1875 11.344l6.1406 8.3906c-3.6094 6.7031-6.5156 13.781-8.7188 21.141l-10.312 1.6406c-4.0781 0.65625-7.3594 3.8438-8.1094 7.9219-3 16.078-3 32.297 0 48.281 0.79688 4.0781 4.0312 7.2656 8.1562 7.9219l10.266 1.5938c2.2031 7.3125 5.1562 14.344 8.7656 21.094l-6.1406 8.4844c-2.4375 3.375-2.4844 7.9219-0.14062 11.297 9.2344 13.453 20.719 24.938 34.125 34.125 3.4219 2.3438 8.0156 2.2969 11.344-0.1875l8.3906-6.1406c6.7031 3.6094 13.781 6.5156 21.141 8.7188l1.6406 10.312c0.65625 4.0781 3.8438 7.3594 7.9219 8.1094 8.0156 1.5 16.078 2.25 24.141 2.25s16.125-0.75 24.141-2.25c4.0781-0.79688 7.2656-4.0312 7.9219-8.1562l1.5938-10.266c7.3125-2.2031 14.344-5.1562 21.094-8.7656l8.4844 6.1406c3.375 2.4375 7.9219 2.4844 11.344 0.14062 13.453-9.2344 24.938-20.719 34.125-34.125 2.3438-3.4219 2.2969-8.0156-0.1875-11.344l-6.1406-8.3906c3.6094-6.7031 6.5156-13.781 8.7188-21.141l10.312-1.6406c4.0781-0.65625 7.3594-3.8438 8.1094-7.9219 3-16.078 3-32.297 0-48.281-0.79688-4.125-4.0312-7.2656-8.1562-7.9219zm-10.125 45.797-9.5156 1.5469c-3.8906 0.60938-7.0781 3.5625-7.9688 7.4062-2.3438 9.8438-6.2344 19.172-11.391 27.703-2.0625 3.4219-1.875 7.7344 0.46875 10.922l5.6719 7.7344c-5.6719 7.2656-12.141 13.781-19.453 19.406l-7.8281-5.6719c-3.2344-2.3438-7.5-2.4844-10.875-0.42188-8.5781 5.25-17.906 9.1406-27.656 11.484-3.8438 0.9375-6.7969 4.125-7.4062 8.0625l-1.4531 9.4688c-9.1406 1.125-18.328 1.125-27.469 0l-1.5469-9.5156c-0.60938-3.8906-3.5625-7.0781-7.4062-7.9688-9.8438-2.3906-19.172-6.2344-27.703-11.391-3.4219-2.0625-7.7344-1.875-10.922 0.46875l-7.7344 5.6719c-7.2656-5.6719-13.781-12.141-19.453-19.453l5.6719-7.8281c2.3438-3.2344 2.4844-7.5 0.42188-10.875-5.25-8.5781-9.1406-17.906-11.484-27.656-0.9375-3.8438-4.125-6.7969-8.0625-7.4062l-9.4688-1.4531c-1.125-9.1406-1.125-18.328 0-27.469l9.5156-1.5469c3.8906-0.60938 7.0781-3.5625 8.0156-7.4062 2.3438-9.8438 6.2344-19.172 11.391-27.703 2.0625-3.4219 1.875-7.7344-0.46875-10.922l-5.6719-7.7344c5.6719-7.2656 12.141-13.781 19.453-19.406l7.8281 5.6719c3.2344 2.3438 7.5 2.4844 10.875 0.42188 8.5781-5.25 17.906-9.1406 27.656-11.484 3.8438-0.9375 6.7969-4.125 7.4062-8.0625l1.4531-9.4688c9.1406-1.125 18.328-1.125 27.469 0l1.5469 9.5156c0.60938 3.8906 3.5625 7.0781 7.4062 8.0156 9.8438 2.3438 19.172 6.2344 27.703 11.391 3.4219 2.0625 7.7344 1.875 10.922-0.46875l7.7344-5.6719c7.2656 5.6719 13.781 12.141 19.406 19.453l-5.6719 7.8281c-2.3438 3.2344-2.4844 7.5-0.42188 10.875 5.25 8.5781 9.1406 17.906 11.484 27.656 0.9375 3.8438 4.125 6.7969 8.0625 7.4062l9.4688 1.4531c1.1719 9.0938 1.1719 18.281 0 27.422zm-111.28-271.03c-141.94 0-257.39 115.45-257.39 257.39 0 141.93 115.45 257.39 257.39 257.39s257.39-115.45 257.39-257.39c0-141.93-115.45-257.39-257.39-257.39zm0 495.14c-131.11 0-237.74-106.64-237.74-237.74 0-131.11 106.64-237.74 237.74-237.74 131.11 0 237.74 106.64 237.74 237.74 0 131.11-106.64 237.74-237.74 237.74zm552.66-247.6h-129.79c-5.1562-225.42-187.6-407.86-413.02-413.02v-129.79c0-5.4375-4.4062-9.8438-9.8438-9.8438s-9.8438 4.4062-9.8438 9.8438v129.84c-225.42 5.1562-407.86 187.6-413.02 413.02l-129.79-0.046875c-5.4375 0-9.8438 4.4062-9.8438 9.8438s4.4062 9.8438 9.8438 9.8438h129.84c5.1562 225.42 187.6 407.86 413.02 413.02v129.84c0 5.4375 4.4062 9.8438 9.8438 9.8438s9.8438-4.4062 9.8438-9.8438l-0.046876-129.84c225.42-5.1562 407.86-187.6 413.02-413.02h129.84c5.4375 0 9.8438-4.4062 9.8438-9.8438-0.046875-5.4375-4.4531-9.8438-9.8906-9.8438zm-543.84-347.11-8.8125 16.172-8.8125-16.172zm-17.625 713.9 8.8125-16.172 8.8125 16.172zm18.656 46.219v-26.578h15.562c3.4688 0 6.6562-1.8281 8.4375-4.8281s1.8281-6.6562 0.1875-9.7031l-25.359-46.547c-1.7344-3.1406-5.0156-5.1094-8.625-5.1094-3.6094 0-6.8906 1.9688-8.625 5.1094l-25.359 46.547c-1.6406 3.0469-1.5938 6.75 0.1875 9.7031 1.7812 3 4.9688 4.8281 8.4375 4.8281h15.562v26.578c-214.6-5.1562-388.22-178.78-393.37-393.37h26.578v15.562c0 3.4688 1.8281 6.6562 4.8281 8.4375 1.5469 0.89063 3.2812 1.3594 5.0156 1.3594 1.5938 0 3.2344-0.42188 4.6875-1.2188l46.547-25.359c3.1406-1.7344 5.1094-5.0156 5.1094-8.625 0-3.6094-1.9688-6.8906-5.1094-8.625l-46.547-25.359c-3.0469-1.6406-6.75-1.5938-9.7031 0.1875-3 1.7812-4.8281 4.9688-4.8281 8.4375v15.562h-26.578c5.1562-214.6 178.78-388.22 393.37-393.37v26.578l-15.609 0.046875c-3.4688 0-6.6562 1.8281-8.4375 4.8281s-1.8281 6.6562-0.1875 9.7031l25.359 46.547c1.7344 3.1406 5.0156 5.1094 8.625 5.1094 3.6094 0 6.8906-1.9688 8.625-5.1094l25.359-46.547c1.6406-3.0469 1.5938-6.75-0.1875-9.7031-1.7812-3-4.9688-4.8281-8.4375-4.8281h-15.562v-26.578c214.6 5.1562 388.22 178.78 393.37 393.37h-26.578v-15.562c0-3.4688-1.8281-6.6562-4.8281-8.4375-2.9531-1.7812-6.6562-1.8281-9.7031-0.1875l-46.547 25.359c-3.1406 1.7344-5.1094 5.0156-5.1094 8.625 0 3.6094 1.9688 6.8906 5.1094 8.625l46.547 25.359c1.4531 0.79688 3.0938 1.2188 4.6875 1.2188 1.7344 0 3.4688-0.46875 5.0156-1.3594 3-1.7812 4.8281-4.9688 4.8281-8.4375v-15.562h26.578c-5.1562 214.6-178.74 388.18-393.32 393.32zm-366.79-411.98 16.172 8.8125-16.172 8.8125zm713.9 17.625-16.172-8.8125 16.172-8.8125z" fill="#ea5b0a"></path></svg>