<svg xmlns="http://www.w3.org/2000/svg" width="512pt" height="512pt" viewBox="0 0 512 512"><path d="m254.88 294.3c20.539 0 37.219-16.699 37.219-37.219 0-20.539-16.699-37.219-37.219-37.219-20.539 0-37.219 16.699-37.219 37.219 0 20.539 16.699 37.219 37.219 37.219zm0-68.961c17.52 0 31.738 14.238 31.738 31.738 0 17.52-14.238 31.738-31.738 31.738-17.52 0-31.738-14.238-31.738-31.738 0-17.52 14.238-31.738 31.738-31.738z" fill="#ea5b0a"></path><path d="m198.5 317.6 14.379-2.3594c3.9414 2.8594 8.1992 5.3203 12.641 7.3203l5.1211 13.621c0.92188 2.5 3.3789 4.1992 6.0391 4.1992h36.398c2.6602 0 5.0586-1.6797 6.0391-4.1406l5.1211-13.621c4.4609-2 8.6992-4.4609 12.641-7.3203l14.379 2.3594c2.6211 0.46094 5.2812-0.82031 6.6016-3.1211l18.18-31.539c1.3398-2.3008 1.0781-5.2188-0.62109-7.3203l-9.2617-11.262c0.26172-2.5 0.39844-4.9609 0.39844-7.2812 0-2.3008-0.16016-4.8203-0.39844-7.2812l9.2617-11.262c1.6797-2.0391 1.9414-5.0195 0.62109-7.3203l-18.18-31.539c-1.3398-2.3008-4-3.5781-6.6016-3.1211l-14.379 2.3594c-3.9414-2.8594-8.1992-5.3203-12.641-7.3203l-5.1211-13.621c-0.92188-2.5-3.3789-4.1406-6.0391-4.1406h-36.398c-2.6602 0-5.0586 1.6797-6.0391 4.1406l-5.1211 13.621c-4.4609 2-8.6992 4.4609-12.641 7.3203l-14.379-2.3594c-2.6211-0.46094-5.2812 0.82031-6.6016 3.1211l-18.18 31.539c-1.3398 2.3008-1.0781 5.2188 0.62109 7.3203l9.2617 11.262c-0.26172 2.5-0.39844 4.9609-0.39844 7.2812 0 2.3008 0.16016 4.8203 0.39844 7.2812l-9.2617 11.262c-1.6797 2.0391-1.9414 5.0195-0.62109 7.3203l18.18 31.539c1.3398 2.3008 4 3.5781 6.6016 3.1211zm-20.02-37.441c-0.19922-0.30078-0.16016-0.76172 0.10156-1.0195l10.762-13.059-0.16016-1.1797c-0.30078-2.7188-0.46094-5.2812-0.46094-7.8398s0.16016-5.1211 0.46094-7.8398l0.16016-1.1797-10.762-13.059c-0.26172-0.30078-0.26172-0.71875-0.10156-1.0195l18.18-31.539c0.19922-0.30078 0.55859-0.51953 0.92188-0.46094l16.699 2.7617 0.92188-0.71875c4.1992-3.1211 8.7617-5.7812 13.559-7.8398l1.0781-0.46094 5.9414-15.82c0.16016-0.35937 0.46094-0.62109 0.87891-0.62109h36.398c0.35938 0 0.71875 0.26172 0.87891 0.62109l5.9414 15.82 1.0781 0.46094c4.8203 2.0391 9.3594 4.7188 13.559 7.8398l0.92188 0.71875 16.699-2.7617c0.35938-0.058594 0.76172 0.10156 0.92188 0.46094l18.18 31.539c0.19922 0.30078 0.16016 0.76172-0.10156 1.0195l-10.762 13.059 0.16016 1.1797c0.30078 2.7188 0.46094 5.2812 0.46094 7.8398s-0.16016 5.1211-0.46094 7.8398l-0.16016 1.1797 10.762 13.059c0.26172 0.30078 0.26172 0.71875 0.10156 1.0195l-18.18 31.539c-0.19922 0.30078-0.55859 0.51953-0.92188 0.46094l-16.699-2.7617-0.92188 0.71875c-4.1992 3.1211-8.7617 5.7812-13.559 7.8398l-1.0781 0.46094-5.9414 15.82c-0.16016 0.35938-0.46094 0.62109-0.87891 0.62109h-36.398c-0.35937 0-0.71875-0.26172-0.87891-0.62109l-5.9414-15.82-1.0781-0.46094c-4.8203-2.0391-9.3594-4.7188-13.559-7.8398l-0.92188-0.71875-16.699 2.7617c-0.35938 0.058594-0.76172-0.10156-0.98047-0.46094l-18.18-31.539z" fill="#ea5b0a"></path><path d="m93.598 158.88h38c6 0 10.859-4.8594 10.859-10.859v-24.418c0-6-4.8594-10.859-10.859-10.859h-4.1406c5.0195-4.2383 8.2383-10.539 8.2383-17.621 0-12.699-10.34-23.039-23.039-23.039s-23.039 10.34-23.039 23.039c0 7.0586 3.2188 13.422 8.2383 17.621h-4.1406c-6 0-10.859 4.8594-10.859 10.859v24.418c0 6 4.8594 10.859 10.859 10.859zm1.3789-63.758c0-9.7188 7.8789-17.621 17.621-17.621 9.7188 0 17.621 7.8789 17.621 17.621 0 9.7188-7.8789 17.621-17.621 17.621-9.7188 0-17.621-7.8789-17.621-17.621zm-6.8203 28.48c0-2.9609 2.4609-5.4219 5.4219-5.4219h38c2.9609 0 5.4219 2.4609 5.4219 5.4219v24.418c0 2.9609-2.4609 5.4219-5.4219 5.4219h-38c-2.9609 0-5.4219-2.4609-5.4219-5.4219z" fill="#ea5b0a"></path><path d="m112.58 172.44c31.379 0 56.98-25.539 56.98-56.98 0-31.441-25.539-56.98-56.98-56.98s-56.98 25.539-56.98 56.98c0 31.441 25.539 56.98 56.98 56.98zm0-108.5c28.422 0 51.559 23.141 51.559 51.559 0 28.422-23.141 51.559-51.559 51.559s-51.559-23.141-51.559-51.559c0-28.422 23.141-51.559 51.559-51.559z" fill="#ea5b0a"></path><path d="m416.16 395.98h-4.1406c5.0195-4.2383 8.2383-10.539 8.2383-17.621 0-12.699-10.34-23.039-23.039-23.039s-23.039 10.34-23.039 23.039c0 7.0586 3.2188 13.422 8.2383 17.621h-4.1406c-6 0-10.859 4.8594-10.859 10.859v24.418c0 6 4.8594 10.859 10.859 10.859h38c6 0 10.859-4.8594 10.859-10.859v-24.418c0-6-4.8594-10.859-10.859-10.859zm-36.621-17.66c0-9.7188 7.8789-17.621 17.621-17.621 9.7188 0 17.621 7.8789 17.621 17.621 0 9.7188-7.8789 17.621-17.621 17.621-9.7188 0-17.621-7.8789-17.621-17.621zm42.039 52.879c0 2.9609-2.4609 5.4219-5.4219 5.4219h-38c-2.9609 0-5.4219-2.4609-5.4219-5.4219v-24.418c0-2.9609 2.4609-5.4219 5.4219-5.4219h38c2.9609 0 5.4219 2.4609 5.4219 5.4219z" fill="#ea5b0a"></path><path d="m397.16 341.7c-31.379 0-56.98 25.539-56.98 56.98 0 31.441 25.539 56.98 56.98 56.98s56.98-25.539 56.98-56.98c0-31.441-25.539-56.98-56.98-56.98zm0 108.5c-28.422 0-51.559-23.141-51.559-51.559s23.141-51.559 51.559-51.559c28.422 0 51.559 23.141 51.559 51.559s-23.141 51.559-51.559 51.559z" fill="#ea5b0a"></path><path d="m456.66 87.5h-0.16016l-6.6602-26.68h-89.801l-6.6602 26.68h-0.16016v79.359h103.42v-79.359zm-40.602-19.5h28.219l4.8594 19.5h-33.078zm-14.961 0h7.7383v19.5h-7.7383zm0 26.719h7.7383v12.641h-7.7383zm-35.422-26.719h28.219v19.5h-33.078zm83.758 91.637h-88.98v-64.922h33.441v19.859h22.121v-19.859h33.441v64.922z" fill="#ea5b0a"></path><path d="m402.54 123.54h-31.281c-3.3203 0-6 2.7188-6 6v19.262c0 3.3203 2.7188 6 6 6h31.281c3.3203 0 6-2.7188 6-6v-19.262c0-3.3203-2.7188-6-6-6zm-1.1797 24.059h-28.879v-16.84h28.879z" fill="#ea5b0a"></path><path d="m180.22 346.16h-113.76c-4.1016 0-7.418 3.3203-7.418 7.418v64.301c0 4.1016 3.3203 7.418 7.418 7.418h1.4805l-14.84 28.059 53.004-28.059h74.137c4.1016 0 7.418-3.3203 7.418-7.418v-64.301c0-4.1016-3.3203-7.418-7.418-7.418zm2.5195 71.742c0 1.3789-1.1211 2.4609-2.4609 2.4609h-75.359l-39.879 21.102 11.16-21.102h-9.6797c-1.3789 0-2.4609-1.1211-2.4609-2.4609v-64.301c0-1.3789 1.1211-2.4609 2.4609-2.4609h113.76c1.3789 0 2.4609 1.1211 2.4609 2.4609z" fill="#ea5b0a"></path><path d="m337.2 438.84c-21.199 9.6797-44.398 15.66-68.762 17.359l-22.941-22.941c-1.8984-1.8984-4.9219-1.8984-6.8008 0-1.8984 1.8984-1.8984 4.9219 0 6.8008l16.641 16.641h-0.46094c-20.68 0-40.602-3.1797-59.402-9.0195v9.9805c18.84 5.5781 38.762 8.6602 59.402 8.6602 0.62109 0 1.2188 0 1.8398-0.058593l-18.02 18.02c-1.8984 1.8984-1.8984 4.9219 0 6.8008 0.92188 0.92188 2.1602 1.4414 3.3789 1.4414s2.4609-0.46094 3.3789-1.4414l25.441-25.441c25.699-2 50.078-8.5586 72.34-19-2.1992-2.4609-4.3008-5.0195-6.1406-7.7812z" fill="#ea5b0a"></path><path d="m56.621 323.84h10.141c-6.1992-17.461-10.039-36.039-11.16-55.301l23.039-23.039c1.8984-1.8984 1.8984-4.9219 0-6.8008-1.8984-1.8984-4.9219-1.8984-6.8008 0l-16.539 16.539c0.26172-28.359 6.4609-55.301 17.398-79.66-2.7617-1.8398-5.3203-3.8984-7.8398-6.0391-12.281 26.578-19.199 56.059-19.262 87.199l-18.02-18.02c-1.8984-1.8984-4.9219-1.8984-6.8008 0-1.8984 1.8984-1.8984 4.9219 0 6.8008l25.301 25.301c1.2188 18.441 4.8203 36.199 10.5 53.039z" fill="#ea5b0a"></path><path d="m172.54 75.32c21.141-9.6211 44.238-15.621 68.562-17.301l23.141 23.141c0.92187 0.92188 2.1602 1.4414 3.3789 1.4414s2.4609-0.46094 3.3789-1.4414c1.8984-1.8984 1.8984-4.9219 0-6.8008l-16.84-16.84h0.71875c27.641 0 53.961 5.6406 77.922 15.879v-10.34c-24.121-9.7188-50.379-15.102-77.922-15.102h-1.5781l17.762-17.762c1.8984-1.8984 1.8984-4.9219 0-6.8008-1.8984-1.8984-4.9219-1.8984-6.8008 0l-25.199 25.199c-25.801 1.9414-50.281 8.5586-72.656 19 2.1992 2.4609 4.3008 5.0195 6.1406 7.7812z" fill="#ea5b0a"></path><path d="m488.34 264.2-24.98-24.98c-1.5781-18.941-5.7383-37.121-12.082-54.281h-10.34c6.8594 17.621 11.262 36.398 12.859 56.02l-23.301 23.301c-1.8984 1.8984-1.8984 4.9219 0 6.8008 0.92188 0.92188 2.1602 1.4414 3.3789 1.4414s2.4609-0.46094 3.3789-1.4414l17.102-17.102c0 1.0781 0.058593 2.1016 0.058593 3.1797 0 29.039-6.3008 56.582-17.461 81.52 2.7617 1.8398 5.3203 3.8984 7.8398 6.0391 12.34-26.68 19.262-56.32 19.262-87.562 0-1.1797-0.058594-2.3984-0.10156-3.5781l17.52 17.52c1.8984 1.8984 4.9219 1.8984 6.8008 0 1.8984-1.8984 1.8984-4.9219 0-6.8008z" fill="#ea5b0a"></path></svg>