<svg xmlns="http://www.w3.org/2000/svg" width="1200pt" height="1200pt" viewBox="0 0 1200 1200"><path d="m575.34 512.21c-15.891 7.6406-27.234 22.312-30.609 39.609-3.3281 17.344 1.7344 35.203 13.641 48.188-15 16.406-18.844 40.172-9.7969 60.469 9 20.344 29.203 33.375 51.422 33.281h1.5c9.375 64.5 64.594 112.36 129.74 112.5h75c65.156-0.14062 120.37-48 129.74-112.5h1.5c22.219 0.09375 42.422-12.938 51.422-33.281 9.0469-20.297 5.2031-44.062-9.7969-60.469 11.906-12.984 16.969-30.844 13.641-48.188-3.375-17.297-14.719-31.969-30.562-39.609 24.562-39.422 69.094-121.13 69.094-196.13h-0.046875c-0.9375-93.141-51.141-178.82-132-225.14-80.812-46.312-180.14-46.312-261 0-80.812 46.312-131.06 132-132 225.14 0 75 44.531 156.71 69.094 196.13zm362.16 31.547c10.359 0 18.75 8.3906 18.75 18.75s-8.3906 18.75-18.75 18.75h-337.5c-10.359 0-18.75-8.3906-18.75-18.75s8.3906-18.75 18.75-18.75zm-131.26 225h-75c-44.531-0.046875-82.875-31.406-91.875-75h258.74c-9 43.594-47.344 74.953-91.875 75zm131.26-112.5h-337.5c-10.359 0-18.75-8.3906-18.75-18.75s8.3906-18.75 18.75-18.75h337.5c10.359 0 18.75 8.3906 18.75 18.75s-8.3906 18.75-18.75 18.75zm-168.74-562.5c59.062 0.42188 115.69 23.906 157.69 65.438 42.047 41.531 66.188 97.828 67.312 156.89 0 75.469-55.031 164.11-72.375 190.18h-305.26c-17.344-26.016-72.375-114.52-72.375-190.18 1.125-59.062 25.266-115.36 67.312-156.89 42-41.531 98.625-65.016 157.69-65.438zm225 676.78c-11.062 4.4062-43.359 21.094-95.156 47.953-46.547 24.141-101.81 52.828-135.52 68.719l-0.046876 0.046875c-5.3906-28.453-24.281-52.453-50.625-64.406l-303.28-153.42c-30.703-13.734-65.672-14.391-96.891-1.9219l-87.234 21.141v-51.141c0-4.9688-1.9688-9.75-5.4844-13.266s-8.2969-5.4844-13.266-5.4844h-150c-10.359 0-18.75 8.3906-18.75 18.75v431.26c0 4.9688 1.9688 9.75 5.4844 13.266 3.5156 3.5156 8.2969 5.4844 13.266 5.4844h150c4.9688 0 9.75-1.9688 13.266-5.4844 3.5156-3.5156 5.4844-8.2969 5.4844-13.266v-52.219c48.234 8.7656 96 20.109 143.06 33.984l237.37 94.125c24.844 11.062 51.703 16.781 78.891 16.734 36.516-0.09375 72.328-10.078 103.59-28.922 58.5-35.344 311.63-216.79 323.34-243.05h-0.046875c15.469-33.75 8.3906-73.594-17.719-99.984-26.109-26.438-65.812-33.938-99.75-18.891zm-806.26 279.47h-112.5v-393.74h112.5zm890.11-177.28c-19.688 22.781-234.05 182.29-309.05 227.63-44.953 27.328-100.45 30.984-148.6 9.75l-238.08-94.453c-51.562-15.328-103.97-27.797-156.89-37.359v-251.06l97.359-23.625c0.89062-0.1875 1.7344-0.46875 2.625-0.84375 21.797-9.0938 46.359-8.9062 68.062 0.51563l303.28 153.42c21.516 9.9375 33.984 32.859 30.562 56.344-0.046875 0.28125-0.14062 1.1719-0.14062 1.3594v-0.046876c-0.28125 5.8594-1.4531 11.578-3.4219 17.062-5.0625 13.969-15.281 25.453-28.547 32.109-12.797 6.3281-27.609 7.1719-41.016 2.3438l-186.61-68.203c-9.75-3.5625-20.531 1.4531-24.094 11.203-3.5625 9.7031 1.4531 20.484 11.203 24.047l186.61 68.203h-0.046875c9.75 3.5625 20.016 5.3906 30.375 5.3906 13.875-0.046874 27.516-3.2344 39.984-9.2344 27.188-13.312 46.312-38.859 51.469-68.672 31.547-13.734 95.766-47.016 153.19-76.828 42.141-21.844 81.938-42.469 91.828-46.453 12.938-5.9531 27.797-6.4219 41.109-1.1719 13.312 5.2031 23.906 15.609 29.344 28.828 5.1562 12.75 4.9688 27.094-0.51562 39.75zm-383.86-591.47c1.125-30.562 25.688-55.125 56.25-56.25v-18.75c0-10.359 8.3906-18.75 18.75-18.75 10.359 0 18.75 8.3906 18.75 18.75v18.75h18.75c10.359 0 18.75 8.3906 18.75 18.75s-8.3906 18.75-18.75 18.75h-56.25c-9.7969 1.2188-17.531 8.9531-18.75 18.75 1.2188 9.7969 8.9531 17.531 18.75 18.75h37.5c30.562 1.125 55.125 25.688 56.25 56.25-1.125 30.562-25.688 55.125-56.25 56.25v18.75c0 10.359-8.3906 18.75-18.75 18.75-10.359 0-18.75-8.3906-18.75-18.75v-18.75h-18.75c-10.359 0-18.75-8.3906-18.75-18.75s8.3906-18.75 18.75-18.75h56.25c9.7969-1.2188 17.531-8.9531 18.75-18.75-1.2188-9.7969-8.9531-17.531-18.75-18.75h-37.5c-30.562-1.125-55.125-25.688-56.25-56.25zm286.74-174.24c-3.5156-3.5156-5.4844-8.2969-5.4844-13.266s1.9688-9.75 5.4844-13.266l37.5-37.5c3.5156-3.6094 8.2969-5.6719 13.312-5.7188 5.0625-0.046875 9.8906 1.9219 13.453 5.4844s5.5312 8.3906 5.4844 13.453c-0.046875 5.0156-2.1094 9.7969-5.7188 13.312l-37.5 37.5c-3.5156 3.5156-8.2969 5.4844-13.266 5.4844s-9.75-1.9688-13.266-5.4844zm75 85.969 37.5-37.5c7.3594-7.0781 19.078-6.9844 26.297 0.23438s7.3125 18.938 0.23438 26.297l-37.5 37.5c-7.3594 7.0781-19.078 6.9844-26.297-0.23438s-7.3125-18.938-0.23438-26.297zm107.02 125.76c0 4.9688-1.9688 9.75-5.4844 13.266s-8.2969 5.4844-13.266 5.4844h-56.25c-10.359 0-18.75-8.3906-18.75-18.75s8.3906-18.75 18.75-18.75h56.25c4.9688 0 9.75 1.9688 13.266 5.4844s5.4844 8.2969 5.4844 13.266zm-669.52-249.24c-7.0781-7.3594-6.9844-19.078 0.23438-26.297s18.938-7.3125 26.297-0.23438l37.5 37.5c3.6094 3.5156 5.6719 8.2969 5.7188 13.312 0.046875 5.0625-1.9219 9.8906-5.4844 13.453s-8.3906 5.5312-13.453 5.4844c-5.0156-0.046874-9.7969-2.1094-13.312-5.7188zm-75 112.5c-7.0781-7.3594-6.9844-19.078 0.23438-26.297s18.938-7.3125 26.297-0.23438l37.5 37.5c3.6094 3.5156 5.6719 8.2969 5.7188 13.312 0.046875 5.0625-1.9219 9.8906-5.4844 13.453s-8.3906 5.5312-13.453 5.4844c-5.0156-0.046874-9.7969-2.1094-13.312-5.7188zm-42.984 136.74c0-10.359 8.3906-18.75 18.75-18.75h56.25c10.359 0 18.75 8.3906 18.75 18.75s-8.3906 18.75-18.75 18.75h-56.25c-10.359 0-18.75-8.3906-18.75-18.75z"></path></svg>