<svg xmlns="http://www.w3.org/2000/svg" width="1200pt" height="1200pt" viewBox="0 0 1200 1200"><path d="m1020.7 649.84c8.5117-7.8164 13.398-18.816 13.5-30.371v-100.63c0-22.488-18.852-41.281-45.828-45.695l-47.305-7.7383v-0.003907c-9.3242-35.559-23.453-69.68-42-101.42l27.996-38.941c15.961-22.199 15.996-48.816 0.085937-64.727l-71.148-71.148c-15.91-15.91-42.527-15.863-64.715 0.085938l-38.988 27.957c-31.746-18.543-65.867-32.672-101.43-42l-7.7383-47.305c-4.4023-26.977-23.207-45.828-45.695-45.828h-100.6c-22.488 0-41.281 18.852-45.695 45.828l-7.7773 47.305c-35.559 9.3281-69.68 23.457-101.43 42l-38.938-27.961c-22.199-15.961-48.816-15.996-64.727-0.085937l-71.148 71.148c-15.91 15.91-15.875 42.527 0.085937 64.727l27.996 38.941-0.003906 0.003906c-18.539 31.742-32.672 65.863-42 101.42l-47.305 7.7383c-27.023 4.4688-45.863 23.211-45.863 45.699v100.63c0 22.535 18.84 41.293 45.828 45.695l47.305 7.7383c9.3281 35.562 23.457 69.691 42 101.44l-27.996 38.93c-15.961 22.211-15.996 48.816-0.085938 64.727l71.184 71.207c15.898 15.91 42.516 15.875 64.727-0.085938l38.941-27.996v0.003906c31.742 18.547 65.863 32.676 101.43 42l7.7383 47.305c4.4141 26.988 23.207 45.828 45.695 45.828h100.63c22.488 0 41.293-18.84 45.695-45.828l7.7383-47.305c0.78125-0.20312 1.5352-0.43359 2.3164-0.64844h0.003907c20.582 49.172 56.16 90.594 101.66 118.36 45.504 27.77 98.609 40.469 151.75 36.293 53.145-4.1797 103.61-25.023 144.21-59.562 40.605-34.543 69.27-81.016 81.914-132.8 12.645-51.781 8.625-106.24-11.492-155.6-20.113-49.367-55.297-91.125-100.53-119.32zm-384.21 290.26c-5.0547 1.2109-8.8867 5.3438-9.7227 10.473l-9.1094 55.668c-2.3281 14.23-10.645 24.18-20.219 24.18h-100.59c-9.6016 0-17.891-9.9492-20.219-24.18l-9.1094-55.68c-0.83984-5.125-4.668-9.25-9.7188-10.461-38.75-9.2891-75.789-24.633-109.75-45.469-4.4336-2.7148-10.059-2.5078-14.281 0.52734l-45.828 32.941c-11.711 8.3984-24.625 9.6016-31.402 2.7969l-71.148-71.148c-6.7695-6.7812-5.6289-19.691 2.7969-31.402l32.941-45.828-0.003906-0.003907c3.0352-4.2188 3.2422-9.8477 0.53125-14.281-20.832-33.953-36.176-70.98-45.469-109.71-1.2148-5.0508-5.3359-8.8828-10.465-9.7188l-55.68-9.1094c-14.23-2.3281-24.18-10.645-24.18-20.219v-100.63c0-9.6016 9.9492-17.891 24.18-20.219l55.68-9.1094c5.1289-0.83594 9.25-4.668 10.465-9.7188 9.293-38.738 24.637-75.762 45.469-109.72 2.7109-4.4297 2.5039-10.059-0.53125-14.277l-32.938-45.828c-8.3984-11.711-9.6016-24.625-2.7969-31.402l71.148-71.148c6.7812-6.7695 19.691-5.6289 31.402 2.7969l45.828 32.953v-0.003906c4.2266 3.0234 9.8477 3.2266 14.281 0.51562 33.957-20.824 70.98-36.172 109.71-45.469 5.0508-1.2109 8.8828-5.3359 9.7227-10.465l9.1094-55.68c2.3281-14.23 10.645-24.168 20.219-24.168h100.63c9.6016 0 17.891 9.9375 20.219 24.168l9.1094 55.68h-0.003906c0.83984 5.1289 4.6719 9.2539 9.7227 10.465 38.738 9.293 75.77 24.641 109.73 45.469 4.4258 2.7109 10.047 2.5078 14.27-0.51562l45.828-32.953c11.711-8.3984 24.625-9.6016 31.402-2.7969l71.148 71.16c6.7695 6.7695 5.6289 19.68-2.7969 31.391l-32.941 45.828 0.003907 0.003906c-3.0352 4.2188-3.2422 9.8477-0.53125 14.277 20.824 33.957 36.16 70.984 45.445 109.72 1.2109 5.0508 5.3359 8.8828 10.465 9.7188l55.68 9.1094c14.23 2.3281 24.18 10.645 24.18 20.219v100.63c-0.35547 3.6758-1.7344 7.1797-3.9766 10.117-2.2383 2.9336-5.2539 5.1875-8.707 6.5039-59.105-28.18-126.83-32.363-188.95-11.68 11.426-53.668 5.9336-109.56-15.715-159.98-21.648-50.422-58.391-92.895-105.17-121.57-46.781-28.68-101.3-42.16-156.06-38.578-54.754 3.582-107.05 24.043-149.7 58.57-42.648 34.527-73.547 81.426-88.445 134.23-14.898 52.812-13.062 108.95 5.2539 160.67 18.316 51.727 52.211 96.504 97.023 128.18 44.812 31.668 98.336 48.668 153.21 48.668 30.906 0.0625 61.582-5.3125 90.625-15.879-7.3242 39.754-5.043 80.684 6.6602 119.38-2.6406 0.69531-5.2773 1.3633-7.918 2.0039zm9.0469-152.4v-0.003906c-46.754 21.023-99.02 26.492-149.11 15.605-50.094-10.891-95.371-37.562-129.18-76.098 10.371-39.77 33.672-74.957 66.238-100.03 32.566-25.074 72.543-38.598 113.64-38.453h0.097656c33.105-0.078125 65.629 8.7188 94.184 25.477 28.551 16.758 52.09 40.863 68.164 69.805-29.453 28.84-51.434 64.43-64.031 103.68zm-170.29-296.67c0-19.059 7.5703-37.34 21.043-50.82 13.477-13.484 31.754-21.062 50.812-21.07 19.062-0.011719 37.348 7.5508 50.836 21.02 13.488 13.465 21.074 31.738 21.094 50.801 0.019531 19.059-7.5312 37.348-20.992 50.844-13.461 13.492-31.73 21.09-50.793 21.121h-0.097657 0.003907c-19.062-0.027344-37.336-7.6094-50.812-21.086-13.48-13.477-21.062-31.746-21.094-50.809zm254.08 175.48c-27.801-47.074-72.812-81.496-125.52-96 22.652-16.133 37.355-41.152 40.43-68.793 3.0703-27.641-5.7812-55.277-24.34-75.992-18.559-20.711-45.062-32.535-72.871-32.504-27.809 0.027344-54.289 11.906-72.805 32.66-18.512 20.75-27.305 48.41-24.176 76.043 3.1328 27.633 17.891 52.621 40.574 68.707-32.543 8.9766-62.469 25.613-87.273 48.52-24.801 22.906-43.762 51.414-55.297 83.145-29.965-44.855-43.918-98.508-39.598-152.27 4.3242-53.77 26.664-104.5 63.406-144 36.742-39.492 85.738-65.43 139.05-73.613 53.316-8.1797 107.84 1.8711 154.73 28.527s83.418 68.359 103.66 118.36c20.246 49.996 23.023 105.36 7.8867 157.14-17.027 8.207-33.082 18.293-47.867 30.07zm157.52 425.61c-44.984 0.007813-88.965-13.324-126.37-38.309-37.41-24.984-66.566-60.504-83.789-102.06-17.219-41.559-21.73-87.289-12.961-131.41 8.7734-44.125 30.43-84.652 62.238-116.46 31.805-31.812 72.332-53.477 116.45-62.254 44.121-8.7812 89.852-4.2773 131.41 12.938s77.082 46.367 102.07 83.773c24.992 37.402 38.332 81.379 38.328 126.36-0.070312 60.289-24.047 118.09-66.676 160.72-42.625 42.637-100.42 66.621-160.71 66.703zm0-419.3c-50.891 0-99.695 20.215-135.68 56.199s-56.199 84.789-56.199 135.68 20.215 99.695 56.199 135.68 84.789 56.199 135.68 56.199 99.695-20.215 135.68-56.199 56.199-84.789 56.199-135.68c-0.058594-50.871-20.293-99.645-56.262-135.62-35.973-35.973-84.746-56.207-135.62-56.262zm0 357.95c-32.848 0.007813-64.961-9.7227-92.277-27.965-27.316-18.242-48.609-44.176-61.184-74.52-12.578-30.344-15.875-63.738-9.4727-95.953 6.4023-32.219 22.219-61.812 45.441-85.043 23.223-23.23 52.812-39.051 85.027-45.465 32.215-6.4102 65.609-3.125 95.957 9.4453 30.348 12.566 56.285 33.852 74.535 61.164 18.25 27.309 27.992 59.418 27.992 92.266-0.035156 44.031-17.535 86.246-48.66 117.39-31.125 31.141-73.332 48.664-117.36 48.727zm49.934-241.05-71.656 71.602-28.258-28.262c-6.9297-6.9219-16.324-10.809-26.117-10.809-9.7969 0-19.188 3.8867-26.117 10.809-6.9219 6.9336-10.812 16.328-10.812 26.125 0 9.7969 3.8906 19.191 10.812 26.125l54.383 54.371c6.9258 6.9258 16.32 10.812 26.117 10.812 9.7969 0 19.191-3.8867 26.117-10.812l97.727-97.715h0.003906c9.1328-9.375 12.625-22.879 9.1836-35.504-3.4414-12.625-13.305-22.488-25.93-25.93-12.625-3.4414-26.133 0.050781-35.504 9.1836zm33.996 33.996-97.727 97.715-0.003906-0.003906c-2.0859 2.0898-4.9141 3.2617-7.8672 3.2617-2.9492 0-5.7773-1.1719-7.8633-3.2617l-54.469-54.383c-4.3438-4.3438-4.3438-11.387 0-15.73s11.387-4.3438 15.73 0l37.391 37.391h0.003906c5.0391 5.0391 13.207 5.0391 18.25 0l80.723-80.723c4.3477-4.3477 11.391-4.3516 15.738-0.007813 4.3477 4.3438 4.3516 11.391 0.007812 15.738z" fill="#ea5b0a"></path></svg>