<svg xmlns="http://www.w3.org/2000/svg" width="1200pt" height="1200pt" viewBox="0 0 1200 1200"><path d="m592.32 128.26c-7.0742 0-12.809-5.7344-12.809-12.809v-102.46c0-7.0742 5.7344-12.809 12.809-12.809 7.0742 0 12.809 5.7344 12.809 12.809v102.46c0 7.0703-5.7344 12.809-12.809 12.809z"></path><path d="m449.3 159.77c-5.0273 0-9.7969-2.9805-11.84-7.9102l-19.602-47.332c-2.707-6.5352 0.39844-14.027 6.9297-16.734 6.5352-2.6992 14.027 0.39844 16.734 6.9297l19.602 47.332c3.6133 8.1953-2.9414 17.883-11.824 17.715z"></path><path d="m250.35 367.02c-1.6328 0-3.293-0.31641-4.8984-0.97656l-47.332-19.605c-6.5352-2.707-9.6406-10.199-6.9297-16.734 2.707-6.5352 10.199-9.6328 16.734-6.9297l47.332 19.605c12.863 4.8516 8.5625 25.117-4.9062 24.641z"></path><path d="m208.91 673.84c-13.473 0.48047-17.766-19.793-4.9062-24.645l47.332-19.605c6.5391-2.7031 14.027 0.39844 16.734 6.9297 2.707 6.5352-0.39453 14.027-6.9297 16.734 0 0-35.496 14.707-47.332 19.605-1.6055 0.66797-3.2617 0.98047-4.8984 0.98047z"></path><path d="m996.97 659.64c-1.6328 0-3.293-0.31641-4.8984-0.97656l-47.332-19.605c-6.5352-2.707-9.6406-10.199-6.9297-16.734 2.707-6.5352 10.199-9.6328 16.734-6.9297l47.332 19.605c12.863 4.8516 8.5586 25.121-4.9062 24.641z"></path><path d="m943.77 352.82c-13.473 0.48047-17.766-19.793-4.9062-24.645l47.332-19.605c6.5352-2.7031 14.027 0.39844 16.734 6.9297 2.707 6.5352-0.39453 14.027-6.9297 16.734l-47.332 19.605c-1.6055 0.66406-3.2656 0.98047-4.8984 0.98047z"></path><path d="m736.5 153.89c-8.8867 0.16797-15.438-9.5195-11.828-17.715l19.605-47.332c2.707-6.5352 10.199-9.6328 16.734-6.9297 6.5352 2.707 9.6406 10.199 6.9297 16.734l-19.605 47.332c-2.0391 4.9336-6.8125 7.9102-11.836 7.9102z"></path><path d="m329.21 243.6c-3.2773 0-6.5547-1.25-9.0586-3.75l-72.449-72.449c-5.0039-5.0039-5.0039-13.113 0-18.113s13.109-5 18.113 0l72.449 72.449c8.1719 7.6133 1.9062 22.254-9.0547 21.863z"></path><path d="m224.73 511.21h-102.46c-7.0742 0-12.809-5.7344-12.809-12.809 0-7.0742 5.7344-12.809 12.809-12.809h102.46c7.0742 0 12.809 5.7344 12.809 12.809 0 7.0742-5.7344 12.809-12.809 12.809z"></path><path d="m1077.7 495.84h-102.46c-7.0742 0-12.809-5.7344-12.809-12.809s5.7344-12.809 12.809-12.809h102.46c7.0742 0 12.809 5.7344 12.809 12.809 0 7.0703-5.7383 12.809-12.809 12.809z"></path><path d="m859.92 232.74c-10.957 0.39062-17.223-14.254-9.0586-21.867l72.449-72.449c5.0039-5 13.109-5 18.113 0 5.0039 5.0039 5.0039 13.113 0 18.113l-72.449 72.449c-2.5 2.5039-5.7734 3.7539-9.0547 3.7539z"></path><path d="m763.13 771.96c0 9.1953-7.4531 16.652-16.648 16.652s-16.652-7.457-16.652-16.652c0-9.1953 7.457-16.648 16.652-16.648s16.648 7.4531 16.648 16.648"></path><path d="m600 182.2c-168.01 0-309.95 140.48-309.95 306.77 0 86.453 41.449 171.13 113.72 232.32 31.516 26.684 49.59 65.781 49.59 107.27v11.691c0 0.050781-0.03125 0.097656-0.078125 0.11719-19.34 8.1719-32.949 27.324-32.949 49.605 0 16.375 7.3711 31.043 18.945 40.922 0.058594 0.050781 0.058594 0.13672 0 0.19141-11.141 9.5117-18.387 23.457-18.914 39.09-1.0352 30.664 24.629 55.656 55.312 55.656h16.77c0.0625 0 0.11719 0.046875 0.125 0.10938 8.1719 50.027 53.07 87.625 107.43 87.625s99.254-37.598 107.43-87.625c0.011719-0.0625 0.0625-0.10938 0.125-0.10938h16.77c30.684 0 56.348-24.992 55.312-55.656-0.52734-15.633-7.7734-29.582-18.914-39.09-0.058594-0.050782-0.058594-0.13672 0-0.19141 11.141-9.5117 18.387-23.457 18.914-39.09 1.0352-30.664-24.629-55.656-55.312-55.656h-60.148c-0.070313 0-0.12891-0.058594-0.12891-0.12891v-191.63c0-0.050781 0.03125-0.097657 0.078125-0.11719 57.949-24.82 98.629-82.199 98.629-148.87 0-89.324-73.008-161.99-162.75-161.99-89.742 0-162.75 72.672-162.75 161.99 0 66.672 40.684 124.05 98.629 148.87 0.046875 0.019531 0.078125 0.066407 0.078125 0.11719v191.63c0 0.070313-0.058594 0.12891-0.12891 0.12891h-56.719c-0.070313 0-0.12891-0.058594-0.12891-0.12891v-7.457c0-49.039-21.379-95.262-58.652-126.82-66.512-56.312-104.66-133.86-104.66-212.77 0-152.4 130.21-281.15 284.33-281.15s284.33 128.75 284.33 281.15c0 78.676-37.922 156-104.07 212.27-5.168 4.3945-6.7148 12.066-2.8125 17.613 4.3945 6.2461 13.078 7.2578 18.777 2.4375 72.273-61.188 113.73-145.87 113.73-232.32-0.011719-166.29-141.95-306.77-309.96-306.77zm125.84 818.02h-250.73c-14.746 0-27.707-10.918-29.035-25.602-1.5078-16.723 11.676-30.816 28.094-30.816h250.73c14.746 0 27.707 10.918 29.035 25.602 1.5078 16.723-11.676 30.816-28.094 30.816zm-205.27-508.55c4.9062-4.6406 12.73-4.2852 17.777 0.20312l38.562 34.285c0.054688 0.046875 0.13281 0.042969 0.18359-0.007812l84.312-88.23c5.1445-5.3906 13.875-5.3008 18.902 0.42188 4.4609 5.0703 3.8242 12.875-0.84375 17.758l-92.48 96.773c-4.7734 4.9922-12.629 5.293-17.77 0.72266l-48.387-43.02c-5.5625-4.9531-5.793-13.672-0.25781-18.906zm41.012 161.28c0-0.085938 0.078125-0.14453 0.16016-0.125 12.281 2.957 25.086 4.5625 38.266 4.5625 13.18 0 25.984-1.6055 38.266-4.5625 0.082031-0.019531 0.16016 0.039062 0.16016 0.125v183.07c0 0.070313-0.058594 0.12891-0.12891 0.12891h-76.586c-0.070313 0-0.12891-0.058593-0.12891-0.12891z"></path><path d="m1100 912.46c0.44531-2.0547 1.4414-3.9414 2.6445-5.6602 5.793-8.2461 8.9688-18.457 8.2539-29.457-1.4336-22.062-18.852-40.379-40.828-42.773-27.785-3.0273-51.289 18.652-51.289 45.824 0 9.0273 2.6211 17.426 7.1133 24.531 6.4492 10.16 0.48828 26.301-12.645 26.02h-62.941c-11.316 0-20.492 9.1758-20.492 20.492v60.977c-0.28516 13.133 15.848 19.098 26.012 12.656 8.4492-5.3438 18.727-8.043 29.715-6.832 21.207 2.332 38.344 19.445 40.648 40.656 3.0156 27.777-18.66 51.273-45.824 51.273-9.8359 0-18.934-3.1016-26.41-8.3594-9.7656-7.5898-24.508 0.19531-24.133 12.094v65.426c0 11.316 9.1758 20.492 20.492 20.492h229.17c11.316 0 20.492-9.1758 20.492-20.492v-227.89c0-11.316-9.1758-20.492-20.492-20.492h-64.746c-9.4492-0.003907-16.867-8.6719-14.738-18.484z"></path><path d="m99.969 912.46c-0.44531-2.0547-1.4414-3.9414-2.6445-5.6602-5.793-8.2461-8.9688-18.457-8.2539-29.457 1.4336-22.062 18.852-40.379 40.828-42.773 27.785-3.0273 51.289 18.652 51.289 45.824 0 9.0273-2.6211 17.426-7.1133 24.531-6.4492 10.16-0.48828 26.301 12.645 26.02h57.82c14.148 0 25.617 11.469 25.617 25.617v55.852c0.28516 13.133-15.848 19.098-26.012 12.656-8.4492-5.3438-18.727-8.043-29.715-6.832-21.207 2.332-38.344 19.445-40.648 40.656-3.0156 27.777 18.66 51.273 45.824 51.273 9.8359 0 18.934-3.1016 26.41-8.3594 9.7656-7.5898 24.508 0.19531 24.133 12.094v60.305c0 14.148-11.469 25.617-25.617 25.617l-218.91-0.003906c-14.148 0-25.617-11.469-25.617-25.617v-217.64c0-14.148 11.469-25.617 25.617-25.617h59.621c9.4453 0 16.863-8.668 14.73-18.48z"></path></svg>