<svg xmlns="http://www.w3.org/2000/svg" width="1200pt" height="1200pt" viewBox="0 0 1200 1200"><path d="m600 37.5c10.359 0 18.75 8.3906 18.75 18.75h131.26c20.719 0 37.5 16.781 37.5 37.5v34.781l85.219 25.594c33.984 10.172 36.094 57.562 3.1406 70.734l-111.94 44.766c-24.609 9.8438-51.422-8.2969-51.422-34.828v-9.7969h-93.75v52.594c19.453 4.9219 37.172 17.625 47.812 38.109l140.53 270.66 64.125-85.5c31.781-42.375 96.281-39.328 123.98 5.8125l156.24 255.14c7.2188 11.812 11.062 25.359 11.062 39.188v286.5c0 35.344-24.422 64.969-57.328 72.891l1.0781 2.1094h-1012.5l1.0781-2.1094c-32.906-7.9219-57.328-37.547-57.328-72.891v-286.5c0-13.828 3.8438-27.375 11.062-39.188l156.24-255.14c27.703-45.141 92.203-48.188 123.98-5.8125l64.125 85.5 140.53-270.66c10.641-20.484 28.359-33.188 47.812-38.109v-221.34c0-10.359 8.3906-18.75 18.75-18.75zm150 187.5v9.7969l111.94-44.766-74.438-22.312v19.781c0 20.719-16.781 37.5-37.5 37.5zm93.797 432.05-17.531-33.75 74.953-99.938c15.891-21.188 48.141-19.688 61.969 2.9062l86.859 141.79c-31.547-18.938-72.141-15.281-99.891 9.7031-17.859 16.078-44.953 16.078-62.812 0-12.562-11.297-27.75-18.234-43.547-20.719zm243 467.95-213.32-410.86c31.453 20.062 73.219 17.203 101.77-8.5312 16.453-14.766 40.969-16.125 58.875-3.1875l61.172 44.062c1.3125 0.9375 2.7188 1.6875 4.1719 2.25l20.016 32.672c3.6094 5.9062 5.5312 12.656 5.5312 19.594v286.5c0 20.719-16.781 37.5-37.5 37.5zm-760.26-410.86-213.32 410.86h-0.70313c-20.719 0-37.5-16.781-37.5-37.5v-286.5c0-6.9375 1.9219-13.688 5.5312-19.594l20.016-32.672c1.4531-0.5625 2.8594-1.3125 4.1719-2.25l61.172-44.062c17.906-12.938 42.422-11.578 58.875 3.1875 28.547 25.734 70.312 28.594 101.77 8.5312zm47.203-90.844-17.531 33.75c-15.797 2.4844-30.984 9.4219-43.547 20.719-17.859 16.078-44.953 16.078-62.812 0-27.75-24.984-68.344-28.641-99.891-9.7031l86.859-141.79c13.828-22.594 46.078-24.094 61.969-2.9062zm245.02-529.55v93.75h131.26v-93.75zm167.9 534.56 257.86 496.69h-889.03l257.86-496.69 59.25-38.766c20.531-13.453 47.438-12 66.422 3.5156l1.6406 1.3594c34.5 28.219 84.188 28.219 118.69 0l1.6406-1.3594c18.984-15.516 45.891-16.969 66.422-3.5156zm-338.02-67.875 118.08-227.48c14.016-26.953 52.547-26.953 66.562 0l118.08 227.48-3.4219-2.25c-34.219-22.406-79.031-20.016-110.72 5.8594l-1.5938 1.3125c-20.719 16.969-50.531 16.969-71.25 0l-1.5938-1.3125c-31.688-25.875-76.5-28.266-110.72-5.8594z" fill="#ea5b0a" fill-rule="evenodd"></path></svg>