<svg xmlns="http://www.w3.org/2000/svg" width="512pt" height="512pt" viewBox="0 0 512 512"><path d="m112.6 73.18c20.898 0 37.84 16.941 37.84 37.84 0 20.898-16.941 37.84-37.84 37.84-20.898 0-37.84-16.941-37.84-37.84-0.019531-20.898 16.941-37.84 37.84-37.84zm-75.059 360.96c-6.3984 0.76172-7.5391-8.9609-1.1406-9.7188 157.86-18.68 313.84-62.281 436.92-158.54 2.1211-1.6602 5.1797-1.2812 6.8398 0.83984s1.2812 5.1797-0.83984 6.8398c-124.68 97.543-282.08 141.64-441.78 160.58zm187.62-342.64 8.7188-5.0586c-8.0195 15.18-12.918 31.719-14.5 48.762-3.6797-0.87891-7.6406-0.80078-11.48 0.44141l-68.801 20.621-50.961-3.7617c-11.141-0.82031-20.941 7.418-22 18.602l-8.0391 84.363c-1.7617 6.5195-0.76172 13.219 2.3203 18.762 3.1406 5.6406 8.3984 10.121 15.059 12.02l69.02 19.82 7.0781 65.922c-0.67969 1.0781-0.94141 2.4219-0.62109 3.7617 0.64062 2.6211 3.2812 4.2188 5.8984 3.6016l40.418-9.7383c2.4414-0.5 4.1602-2.7617 3.8984-5.2812l-8.3398-78.801c-0.5-6.7812-2.7617-12.34-7.6797-17.141-3.7812-3.6602-7.5391-5.4609-12.539-6.6797l-34.719-9.9609 2.3398-31.801 13.602 14.922c5.5 6.3984 13.34 9.5 21.719 7.4609l54.223-13.199 0.17969-0.039063c4.8203-1.3398 8.8594-4.2812 11.641-8.1406 4.2617 6.2188 9.1211 12.141 14.582 17.699 4.5 4.5781 11.48-2.2617 6.9609-6.8398-16.699-17-27.859-38.219-32.34-61.5 7.6406-8.9219 6.8008-22.32-1.9805-30.121 1-16.922 5.5781-33.539 13.48-48.66v9.8203c0 2.6992 2.1797 4.8789 4.8789 4.8789s4.8789-2.1797 4.8789-4.8789l-0.058594-27.961c0.10156-4.1602-4.1602-6.3203-7.3203-4.4805l-24.398 14.18c-5.5781 3.1992-0.67969 11.66 4.8789 8.418zm68.141 179.74-5.0586-8.7188c49.641 26.238 111.32 17.859 152.16-22.281 4.5781-4.5-2.2617-11.48-6.8398-6.9609-37.621 36.98-94.5 44.801-140.3 20.859l9.8789-0.019531c2.6992 0 4.8789-2.1797 4.8789-4.8789s-2.1797-4.8789-4.8789-4.8789l-27.961 0.058594c-4.1602-0.10156-6.3203 4.1602-4.4805 7.3203l14.18 24.398c3.1992 5.5586 11.641 0.67969 8.418-4.8984zm152.82-77.961c0-6.4219 9.7383-6.4219 9.7578 0l0.019532 9.8594c23.961-45.801 16.121-102.66-20.859-140.28-4.5195-4.5781 2.4609-11.441 6.9609-6.8398 40.141 40.84 48.52 102.52 22.301 152.16l8.7188-5.0586c5.5586-3.2188 10.461 5.2188 4.8984 8.4609l-24.398 14.18c-3.1992 1.8594-7.3203-0.42188-7.3203-4.2188zm-51.039-143c-6.4219 0-6.4219-9.7383 0-9.7578l9.8594-0.019531c-45.801-23.961-102.66-16.141-140.28 20.859-4.5781 4.5-11.422-2.4609-6.8398-6.9609 40.82-40.141 102.52-48.539 152.16-22.301l-5.0586-8.7188c-3.2188-5.5586 5.2188-10.461 8.4609-4.8984l14.18 24.398h-0.039062c1.8594 3.1992-0.42188 7.3203-4.2188 7.3203zm-159.52 160.94c-1.0391 4.0195-4.1406 7.2812-8.2383 8.4414l-54.062 13.16c-2.2188 0.53906-4.4609 0.37891-6.5-0.33984-3.1797-1.1211-4.1211-2.5195-6.0391-4.5586l-19.5-21.398 0.26172-3.5195 22.34-7.3594c0.19922 0.66016 0.55859 1.2812 1.0586 1.8398l7.8984 8.6797c1.1602 1.2812 2.9609 1.8984 4.7617 1.4609l43.02-10.539c2-0.44141 3-0.71875 5.1211-0.42188 1.1016 0.14063 2.1797 0.46094 3.1797 0.89844 1.3008 3.1211 2.7383 6.1992 4.2812 9.2188 0.78125 1.4609 1.5781 2.9609 2.4219 4.4414zm-10.641-24.461c-2.3398-0.10156-4.3398 0.17969-6.6797 0.80078l-40.18 9.8398-4.5391-5 47.801-15.762v-0.019531l0.78125-0.28125c0.78125 3.5195 1.7188 6.9805 2.8203 10.422zm-2.8008-21.602c1.3203-1.3008 2-1.9414 2.8789-3.7188 4.3594-8.7617-3.3008-19.699-14.441-16.379-7 2.1016-69.141 20.918-70.52 21.02l-52.582-3.8203c-5.8789-0.44141-11.039 3.8984-11.578 9.7578l-6.5391 68.52c5.8398-3.5586 13.059-4.7383 20.039-2.7383l38.922 11.18 3.6602-49.762c0.058593-2 1.3398-3.8594 3.3594-4.5195l82.918-27.34v0.019531c1.4609-0.51953 2.7617-1.2812 3.8789-2.2188zm136.9-38.879c2.4414-2.3398 4.7617-3.5781 8.0391-3.7617 10.762-0.62109 16.539 12.219 9.6016 19.84-7.6211 8.1602-14.922 17.359-22.359 25.781-4.4805 5.0195-12.34 5.3789-17.18 0.66016l-0.26172-0.26172c-4.8398-4.3398-9.7812-8.6602-14.559-13.039l-0.019531 0.019531c-4.8203-4.8203-5.0586-11.898-0.53906-16.84l-0.019532-0.019531c4.7617-4.7617 11.801-5.0391 16.641-0.71875l6 5.3789 14.5-16.801zm6.9414 6.9219-17.461 20.238c-1.8008 2.0586-4.8984 2.2617-6.9414 0.44141l-9.6992-8.6992c-2.1406-1.8984-4.8008 1.3398-3.0391 3.0195 0.14063 0.10156 0.26172 0.21875 0.37891 0.33984v0.019532l14.16 12.68c0.73828 0.62109 2.1992 2 3.6406 0.37891l22.441-25.879c1.4805-1.7188-0.85938-5.1602-3.4805-2.5391zm-21.941-29.922c-23.379 2.8008-40.059 24.039-37.238 47.418 2.8008 23.379 24.039 40.059 47.418 37.262 23.379-2.8008 40.059-24.039 37.238-47.418-2.8203-23.398-24.039-40.078-47.418-37.262zm-36.141 9.9414c-17.898 22.781-13.941 55.723 8.8203 73.621 22.781 17.898 55.723 13.941 73.621-8.8203 17.898-22.781 13.941-55.723-8.8203-73.621-22.781-17.898-55.742-13.941-73.621 8.8203zm20.98-36c1.5391-0.46094 2.8203-1.6602 3.3008-3.3203l5.9805-20.719h21.898l5.918 20.48c0.37891 1.6406 1.6406 3.0586 3.3789 3.5586 3.9414 1.1602 10.039 3.5391 13.539 5.5781 1.4609 0.89844 3.3398 1.0195 4.9414 0.14062l18.859-10.422 15.48 15.48-10.422 18.859c-0.78125 1.3984-0.83984 3.1602 0 4.6797 2.3398 4.3008 4.3203 9.0781 5.7188 13.801 0.46094 1.5391 1.6602 2.8398 3.3203 3.3203l20.719 5.9805v21.898l-20.48 5.918c-1.6602 0.37891-3.0586 1.6406-3.5586 3.3789-1.1602 3.9414-3.5391 10.039-5.5781 13.539-0.89844 1.4609-1.0195 3.3398-0.14062 4.9414l10.422 18.859-15.48 15.48-18.859-10.422c-1.3984-0.78125-3.1602-0.83984-4.6797 0-4.3008 2.3398-9.0781 4.3203-13.801 5.7188-1.5391 0.46094-2.8398 1.6602-3.3203 3.3203l-5.9805 20.719h-21.898l-5.918-20.48c-0.37891-1.6602-1.6406-3.0586-3.3789-3.5586-3.9414-1.1602-10.039-3.5391-13.539-5.5781-1.4609-0.89844-3.3398-1.0195-4.9414-0.14062l-18.859 10.422-15.48-15.48 10.422-18.859c0.78125-1.3984 0.83984-3.1602 0-4.6797-2.3398-4.3008-4.3203-9.0781-5.7188-13.801-0.46094-1.5391-1.6602-2.8398-3.3203-3.3203l-20.699-5.9805v-21.918l20.461-5.8984c1.6602-0.37891 3.0586-1.6406 3.5586-3.3789 1.1602-3.9414 3.5391-10.039 5.5781-13.539 0.89844-1.4609 1.0195-3.3398 0.14062-4.9414l-10.422-18.859 15.48-15.48 18.859 10.422v-0.019531c1.3984 0.78125 3.1602 0.83984 4.6797 0.019531 4.3203-2.3398 9.0781-4.3203 13.82-5.7188zm-10.801-6.5195c1.7812-0.73828 3.6016-1.4219 5.4609-2.0391l6.2812-21.719c0.60156-2.0391 2.4609-3.5195 4.6797-3.5195h29.102c2.1797-0.058594 4.1992 1.3398 4.8398 3.5195l6.2812 21.719c3.6992 1.2383 7.2188 2.6797 10.719 4.4414l19.539-10.781c1.8984-1.1992 4.4414-0.98047 6.0781 0.67969l20.68 20.68c1.5 1.5 1.8984 3.8594 0.82031 5.8203l-10.941 19.801c1.7617 3.5 3.2188 7.0195 4.4414 10.719l21.719 6.2812c2.0391 0.60156 3.5195 2.4609 3.5195 4.6797v29.102c0.058594 2.1797-1.3398 4.1992-3.5195 4.8398l-21.719 6.2812c-1.2383 3.6992-2.6797 7.2188-4.4414 10.719l10.781 19.539c1.1992 1.8984 0.98047 4.4414-0.67969 6.0781l-20.68 20.68c-1.5 1.5-3.8594 1.8984-5.8008 0.82031l-19.801-10.941c-3.5 1.7617-7.0195 3.2188-10.719 4.4414l-6.2812 21.719c-0.57812 2.0391-2.4609 3.5195-4.6797 3.5195h-29.078c-2.1797 0.058594-4.2188-1.3398-4.8398-3.5195l-6.2812-21.719c-3.7188-1.2383-7.2188-2.6797-10.719-4.4414l-19.539 10.781c-1.8984 1.1992-4.4414 0.98047-6.0781-0.67969l-20.68-20.68c-1.5-1.5-1.8984-3.8594-0.82031-5.8203l10.941-19.801c-1.7617-3.5-3.2188-7.0195-4.4414-10.719l-21.301-6.1602c-2.2617-0.44141-3.9414-2.4219-3.9414-4.8008l-0.058594-29.238h0.019531c0-2.1211 1.3789-4.0586 3.5195-4.6797l21.719-6.2812c1.2383-3.6992 2.6797-7.2188 4.4414-10.719l-10.781-19.539c-1.1992-1.8984-0.98047-4.4414 0.67969-6.0781l20.68-20.68c1.5-1.5 3.8594-1.8984 5.8008-0.82031l19.801 10.941c1.7617-0.89844 3.5195-1.6992 5.2812-2.4219zm136.02 243.46v164.3c0 4.3398-3.6992 7.7188-8.0781 7.7188h-41.238c-4.3789 0-8.0781-3.3789-8.0781-7.7188v-121.72c0-6.4414-9.8008-6.4414-9.8008 0v121.72c0 9.7188 8.1602 17.52 17.879 17.52h41.238c9.7188 0 17.879-7.8203 17.879-17.52v-164.3c0-6.4414-9.8008-6.4414-9.8008 0zm-114.8 66.477v97.816c0 4.3398-3.6992 7.7188-8.0781 7.7188h-41.238c-4.3789 0-8.0781-3.3789-8.0781-7.7188v-70.84c0-6.4414-9.8008-6.4414-9.8008 0v70.84c0 9.7188 8.1406 17.52 17.879 17.52h41.238c9.7188 0 17.879-7.8008 17.879-17.52v-97.816c-0.019531-6.4414-9.8008-6.4414-9.8008 0zm-114.82 42.199v55.617c0 4.3398-3.6992 7.7188-8.0781 7.7188h-41.238c-4.3789 0-8.0781-3.3789-8.0781-7.7188v-38.602c0-6.4414-9.8008-6.4414-9.8008 0v38.602c0 9.7188 8.1602 17.52 17.879 17.52h41.238c9.7188 0 17.879-7.8203 17.879-17.52v-55.617c0-6.4609-9.8008-6.4609-9.8008 0zm-114.8 26.422c0-6.4414 9.8008-6.4414 9.8008 0v29.199c0 9.6992-8.1602 17.52-17.879 17.52h-41.238c-9.7188 0-17.879-7.8008-17.879-17.52v-19.102c0-6.4414 9.8008-6.4414 9.8008 0v19.102c0 4.3398 3.6992 7.7188 8.0781 7.7188h41.238c4.3789 0 8.0781-3.3984 8.0781-7.7188zm-74.379-48.621 43.621-4.9219c2.1406-0.23828 3.8008-1.8398 4.2188-3.8398l25.539-81.637c1.9219-6.1406-7.418-9.0586-9.3398-2.8984l-24.699 79.043-32.102 3.6797 27.48-92.199c1.8398-6.1797-7.5391-8.9609-9.3789-2.8008l-29.578 99.199c-0.94141 3.0781 1.1602 6.1211 4.2383 6.3789zm125.74-32.34 29.98-7.2383-7.8984-74.641c-0.26172-2.4805-0.17969-3.5-1.3594-6.1406-1.8594-4.1992-5.3789-7.3398-9.8203-8.6016l-85.238-24.461c-13.121-3.7617-24.398 10.262-17.738 22.262 1.9219 3.4609 5.1406 6.1992 9.2188 7.3594l72.203 20.738c2.0586 0.57812 3.4414 2.4219 3.5391 4.4414zm-28.602-277.1c-17.621-17.621-47.879-5.0781-47.879 19.84 0 24.922 30.262 37.461 47.879 19.84 10.961-10.961 10.961-28.738 0-39.68z" fill="#ea5b0a" fill-rule="evenodd"></path></svg>