<svg xmlns="http://www.w3.org/2000/svg" width="1200pt" height="1200pt" viewBox="0 0 1200 1200"><path d="m815.29 943.13h-8.2969v-86.672c0.32812-35.016-23.25-65.766-57.188-74.531l-26.719-7.2188v0.046875c-5.2031-1.3125-9.6094-4.8281-12-9.6094l-63-119.72c-2.2031-4.2188-6.6094-6.8906-11.391-6.8906h-129.84c-3.4219 0-6.7031 1.3594-9.0938 3.7969-2.4375 2.3906-3.7969 5.6719-3.7969 9.0938v244.4h-17.25v-166.78c0-7.125-5.7656-12.938-12.891-12.938h-76.969v-166.78c0-3.4219-1.3594-6.7031-3.75-9.1406-2.4375-2.4375-5.7188-3.7969-9.1406-3.7969h-179.72c-7.1719 0-12.938 5.8125-12.938 12.938v166.78h-76.922c-3.4219 0-6.7031 1.3594-9.0938 3.7969-2.4375 2.3906-3.7969 5.6719-3.7969 9.1406v166.78h-18.609c-3.4219 0-6.7031 1.3594-9.0938 3.7969-2.4375 2.3906-3.7969 5.7188-3.7969 9.1406v112.78c0 3.4219 1.3594 6.7031 3.7969 9.1406 2.3906 2.3906 5.6719 3.75 9.0938 3.75h46.078c6.4219 47.016 46.547 82.031 93.938 82.031s87.516-35.016 93.938-82.031h187.08c6.375 47.016 46.5 82.031 93.938 82.031 47.391 0 87.516-35.016 93.938-82.031h133.5c3.4219 0 6.7031-1.3594 9.1406-3.75 2.4375-2.4375 3.7969-5.7188 3.7969-9.1406v-65.484c0-3.4688-1.3594-6.75-3.7969-9.1406-2.4375-2.4375-5.7188-3.7969-9.1406-3.7969zm-133.82-178.74h-123.14v-100.03h70.547zm-161.68-100.03h12.703v112.88c0 3.4219 1.3594 6.7031 3.7969 9.1406s5.7188 3.7969 9.1406 3.7969h152.95c5.2031 4.5469 11.344 7.8281 18 9.5625l26.719 7.2188c22.547 5.8125 38.25 26.25 38.109 49.5v21.375h-50.25c-7.125 0-12.891 5.7656-12.891 12.891s5.7656 12.938 12.891 12.938h50.25v39.469h-140.16c-32.109-21.844-74.297-21.844-106.45 0h-14.812zm-68.859 231.47h-153.94v-153.89h33.75v67.781c0 3.4219 1.3594 6.7031 3.7969 9.1406 2.3906 2.4375 5.6719 3.7969 9.0938 3.7969h60.609c3.4219 0 6.7031-1.3594 9.1406-3.7969 2.3906-2.4375 3.75-5.7188 3.75-9.1406v-67.781h33.75zm-59.578-153.89v54.844h-34.781l-0.046875-54.844zm-124.64-179.72h34.781v54.891h-34.781zm-59.578 0h33.75v67.781c0 3.4219 1.3594 6.7031 3.75 9.1406 2.4375 2.3906 5.7188 3.75 9.1406 3.75h60.609c7.125 0 12.891-5.7656 12.891-12.891v-67.781h33.75v153.89h-153.89zm-30.281 179.72h34.781v54.844h-34.781zm-59.578 0h33.75v67.781c0 3.4219 1.3594 6.7031 3.75 9.1406 2.4375 2.4375 5.7188 3.7969 9.1406 3.7969h60.609c3.4219 0 6.7031-1.3594 9.1406-3.7969 2.3906-2.4375 3.75-5.7188 3.75-9.1406v-67.781h33.797v153.89h-153.94zm-31.453 179.68h408.14v34.453c0 3.4219 1.3594 6.7031 3.7969 9.0938 2.3906 2.4375 5.6719 3.7969 9.0938 3.7969h2.1562c-8.0156 11.906-13.172 25.5-15.094 39.703h-187.08c-6.4219-46.969-46.547-81.984-93.938-81.984s-87.516 35.016-93.938 81.984h-33.141zm127.08 168.98c-27.938 0-53.109-16.828-63.797-42.609s-4.7812-55.5 14.953-75.234c19.781-19.734 49.453-25.641 75.234-14.953 25.828 10.688 42.609 35.859 42.609 63.797-0.046876 38.062-30.891 68.953-69 69zm374.95 0c-38.109-0.046874-69-30.891-69.047-69 0-27.938 16.828-53.062 42.609-63.75s55.5-4.7812 75.234 14.953c19.734 19.734 25.641 49.406 14.953 75.234-10.688 25.781-35.859 42.609-63.75 42.609zm214.55-81.938h-120.61c-1.9688-14.203-7.125-27.797-15.094-39.703h135.71zm-589.5-24.469c-15.141 0-28.734 9.1406-34.547 23.109-5.7656 13.969-2.5781 30.047 8.1094 40.734s26.766 13.875 40.734 8.1094c13.969-5.8125 23.062-19.453 23.062-34.547 0-20.625-16.734-37.359-37.359-37.406zm0 48.938c-4.6875 0-8.9062-2.8125-10.688-7.125-1.8281-4.3125-0.79688-9.2812 2.4844-12.609 3.3281-3.3281 8.2969-4.3125 12.609-2.4844 4.3125 1.7812 7.1719 6 7.125 10.688 0.046874 3.0469-1.1719 6-3.3281 8.2031-2.2031 2.1562-5.1094 3.4219-8.2031 3.4219zm374.95-48.938c-15.141 0-28.781 9.0938-34.547 23.062-5.8125 13.969-2.625 30.047 8.0625 40.734 10.688 10.734 26.766 13.922 40.734 8.1562 13.969-5.8125 23.109-19.453 23.109-34.547-0.046876-20.625-16.734-37.359-37.359-37.406zm0 48.938c-4.6875 0-8.9062-2.8125-10.688-7.125-1.8281-4.3125-0.79687-9.2812 2.4844-12.609 3.3281-3.3281 8.2969-4.3125 12.609-2.4844 4.3125 1.7812 7.1719 6 7.125 10.688 0.046876 3.0469-1.1719 6-3.375 8.2031-2.1562 2.1562-5.1094 3.4219-8.1562 3.4219zm477.42-764.9c0-45.562-27.422-86.578-69.469-104.02-42.094-17.438-90.516-7.7812-122.68 24.422-32.203 32.156-41.859 80.578-24.422 122.68 17.438 42.047 58.453 69.469 104.02 69.469 62.109-0.09375 112.45-50.438 112.55-112.55zm-199.31 0c0-35.109 21.141-66.75 53.578-80.156 32.391-13.406 69.703-6 94.5 18.797s32.25 62.109 18.797 94.547c-13.406 32.391-45.047 53.531-80.109 53.531-47.906-0.046875-86.672-38.859-86.766-86.719zm148.03 244.45c57.141-77.766 126-176.11 126-241.92 0-66.844-35.672-128.68-93.609-162.1-57.891-33.469-129.28-33.469-187.18 0-57.938 33.422-93.609 95.25-93.609 162.1 0 65.766 68.812 164.16 126 241.92-64.078 7.0781-126 26.391-126 62.203 0 44.953 97.078 65.438 187.26 65.438 90.234 0 187.13-20.484 187.13-65.438 0-35.812-61.734-55.125-126-62.203zm-61.219-403.26c89.062 0.14062 161.21 72.328 161.29 161.34 0 62.906-81.375 173.11-135.24 246-9.2812 12.562-18.234 24.703-26.156 35.672-7.875-10.969-16.781-23.109-26.156-35.672-53.859-72.891-135.24-183.1-135.24-246h0.046875c0.09375-89.062 72.281-161.26 161.39-161.34zm119.58 490.26c-38.953 10.5-79.219 15.516-119.58 14.859-40.312 0.65625-80.578-4.3594-119.53-14.859-34.359-10.359-41.906-21.422-41.906-24.797 0-10.406 39.469-31.734 118.12-37.922 12.75 17.25 23.859 32.391 32.719 45.281v-0.046875c2.3906 3.5156 6.375 5.5781 10.594 5.5781 4.2656 0 8.25-2.0625 10.641-5.5781 8.8594-12.891 19.969-27.984 32.719-45.281 78.609 6.1875 118.12 27.469 118.12 37.922-0.09375 3.4219-7.5938 14.484-41.953 24.844zm-993.14 1.5469v-127.97c0.09375-66.469 53.953-120.32 120.42-120.47h176.39c21.188 0.046875 41.438 8.7656 56.062 24.094s22.359 35.953 21.375 57.141c0.046875 16.641 13.5 30.094 30.141 30.141h199.74l-30.469-30.469c-4.7812-5.0625-4.6406-13.031 0.28125-17.953 4.9219-4.9688 12.891-5.0625 18-0.28125l52.453 52.406c5.0156 5.0625 5.0156 13.219 0 18.281l-52.5 52.5c-5.0625 4.7812-13.031 4.6406-18-0.28125-4.9219-4.9688-5.0156-12.891-0.23437-18l30.422-30.422h-199.69c-30.891-0.046875-55.922-25.078-55.922-55.969 0.9375-14.297-4.0312-28.359-13.828-38.859-9.75-10.5-23.438-16.5-37.781-16.5h-176.39c-52.266 0.046875-94.594 42.375-94.688 94.641v127.97c0.14062 3.4688-1.1719 6.8438-3.6094 9.375-2.4375 2.4844-5.8125 3.8906-9.2812 3.8906-3.5156 0-6.8438-1.4062-9.2812-3.8906-2.4375-2.5312-3.75-5.9062-3.6094-9.375z"></path></svg>