<svg xmlns="http://www.w3.org/2000/svg" width="1200pt" height="1200pt" viewBox="0 0 1200 1200"><path d="m1188 322.69v728.26c0 10.125-8.2031 18.375-18.375 18.375-10.125 0-18.375-8.2031-18.375-18.375l0.046875-716.81-460.55-225.42-460.5 225.42v477c0 10.125-8.2031 18.375-18.375 18.375-10.125 0-18.375-8.2031-18.375-18.375l0.046875-488.44c0-7.0312 3.9844-13.406 10.266-16.5l478.87-234.42c5.1094-2.4844 11.062-2.4844 16.125 0l478.87 234.37c6.3281 3.0938 10.312 9.5156 10.312 16.547zm-835.78 70.969h677.21c10.125 0 18.375 8.2031 18.375 18.375v72.281c0 10.125-8.2031 18.375-18.375 18.375h-32.625v297.79c0 10.125-8.2031 18.375-18.375 18.375-10.125 0-18.375-8.2031-18.375-18.375v-297.84h-538.6v202.4c0 10.125-8.2031 18.375-18.375 18.375-10.125 0-18.375-8.2031-18.375-18.375l0.046875-202.4h-32.531c-10.125 0-18.375-8.2031-18.375-18.375v-72.281c0-10.125 8.2031-18.328 18.375-18.328zm18.328 72.234h640.45v-35.531h-640.45zm245.34 502.31v82.688c0 10.125-8.2031 18.375-18.375 18.375h-52.078c-2.6719 33.984-31.172 60.797-65.812 60.797s-63.047-26.812-65.719-60.797h-136.69c-2.6719 33.984-31.125 60.797-65.719 60.797-34.641 0-63.141-26.812-65.812-60.797h-49.5c-10.125 0-18.375-8.2031-18.375-18.375v-325.03l-61.828-77.672c-6.3281-7.9219-5.0156-19.5 2.9062-25.781 7.9219-6.3281 19.5-5.0156 25.781 2.9062l65.812 82.688c2.5781 3.2344 3.9844 7.2656 3.9844 11.438v230.44h42.234v-85.688c0-10.125 8.2031-18.375 18.375-18.375h83.812l0.046875-85.594c0-10.125 8.2031-18.375 18.375-18.375h159.14c10.125 0 18.375 8.2031 18.375 18.375v85.641h38.672c10.125 0 18.375 8.2031 18.375 18.375v85.688h85.688c10.125-0.046875 18.328 8.1562 18.328 18.281zm-179.44-85.641h-83.812v67.312h122.48v-67.312zm-140.76-36.75h122.44l-0.046875-67.266h-122.39zm-102.14 104.06h122.39v-67.312h-122.44zm46.688 119.39h-57.562c2.4844 13.688 14.438 24.094 28.828 24.094 14.344 0 26.297-10.406 28.734-24.094zm268.26 0h-57.562c2.4375 13.688 14.391 24.094 28.734 24.094 14.391 0 26.344-10.406 28.828-24.094zm70.688-82.688h-464.63v45.938h464.57v-45.938zm499.5-132.74v197.11c0 10.125-8.2031 18.375-18.375 18.375l-376.45-0.046875c-10.125 0-18.375-8.2031-18.375-18.375v-178.69h-124.4c-10.125 0-18.375-8.2031-18.375-18.375v-186.14c0-10.125 8.2031-18.375 18.375-18.375h355.4c10.125 0 18.375 8.2031 18.375 18.375v167.76h145.45c10.125 0 18.375 8.25 18.375 18.375zm-289.74-18.375h89.203v-149.39h-89.203zm0 80.016h32.953v-43.312h-32.953zm-147.61-190.55h29.062l-0.046876-38.859h-29.062zm42.516 110.53h68.344v-149.39h-45.141v57.234c0 10.125-8.2031 18.375-18.375 18.375h-65.766c-10.125 0-18.375-8.2031-18.375-18.375l0.09375-57.234h-45.188v149.44zm224.76 36.75h-49.969v61.641c0 10.125-8.2031 18.375-18.375 18.375h-69.656c-10.125 0-18.375-8.2031-18.375-18.375v-61.641h-50.016v160.36h206.39zm133.31 0h-96.609v160.36h96.609zm-416.39-532.13c-10.125 0-18.375-8.2031-18.375-18.375v-93.375c0-10.125 8.2031-18.375 18.375-18.375h130.45c10.125 0 18.375 8.2031 18.375 18.375v93.375c0 10.125-8.2031 18.375-18.375 18.375zm18.328-36.75h93.75v-56.625h-93.75z" fill="#ea5b0a"></path></svg>