<svg xmlns="http://www.w3.org/2000/svg" width="1200pt" height="1200pt" viewBox="0 0 1200 1200"><path d="m248.34 864.66c0-1.2188 0.1875-2.3438 0.51562-3.4219l29.625-130.64c0.09375-0.60938 0.23438-1.2188 0.42188-1.7812l29.578-130.45c0.09375-0.60938 0.23438-1.2188 0.42188-1.7812l7.5469-33.234c-70.125-24.516-91.266-114.38-38.25-167.39 39.609-39.609 103.78-39.609 143.39 0 15.797 15.797 26.438 36.797 29.062 60.234h291.79l8.7656-134.76-7.4531-7.1719-28.219 17.531c-2.1562 1.3594-4.0781 2.5312-7.875 2.9531l-130.22 14.672c-19.406 2.2031-26.906-25.219-8.8125-33.094l120.1-52.406c3.4219-1.5 5.7188-1.4062 8.25-1.3594l33.234 1.0781c3.6094-18.141 15.516-33.422 31.875-41.531l-9.6094-31.734c-0.75-2.4844-1.4062-4.6875-0.89062-8.3438l19.547-129.56c2.9062-19.406 31.359-19.406 34.266 0l19.547 129.56c0.5625 3.6094-0.14062 5.8594-0.89062 8.3438h0.046875l-9.6562 31.734c16.359 8.0625 28.266 23.391 31.875 41.531l33.141-1.0781c2.5312-0.09375 4.8281-0.14063 8.25 1.3594l120.1 52.406c18.094 7.875 10.594 35.297-8.8125 33.094l-130.36-14.672c-3.75-0.42188-5.7188-1.6406-7.875-2.9531l-28.172-17.484-7.3594 7.0312 8.7656 134.86h99.469c5.7656 0 10.547 4.2656 11.344 9.8438l29.625 130.6c0.1875 0.5625 0.32812 1.1719 0.42188 1.7812l29.578 130.45c0.1875 0.60937 0.32812 1.1719 0.42188 1.8281l29.625 130.6c0.32812 1.0781 0.51562 2.25 0.51562 3.4219v58.453c0 6.3281-5.1562 11.484-11.484 11.484h-327.24l10.266 86.719h44.438c6.3281 0 11.484 5.1562 11.484 11.484v49.5h149.48c15.094 0 15.094 22.922 0 22.922h-540.61c-15.094 0-15.094-22.922 0-22.922h149.48v-49.5c0-6.3281 5.1562-11.484 11.484-11.484h44.438l10.266-86.719h-327.24c-6.3281 0-11.484-5.1562-11.484-11.484zm483.84-570.24c-0.89063-2.5312-1.5938-5.1562-2.1094-7.875l-33.562-1.0781-84.938 37.031 92.062-10.359zm114.05-7.875c-0.51562 2.7188-1.2188 5.3438-2.1094 7.9219l28.453 17.672 92.062 10.359-84.938-37.031zm-21.891-10.594v-1.0781c0.32812-15.562-11.766-30.938-26.438-34.5-38.062-9.2812-60.516 35.344-35.391 60.469 14.156 14.156 37.078 14.156 51.234 0 6.5625-6.5156 10.453-15.516 10.594-24.891zm-40.266-59.719h8.2031l9.7031-32.109-13.781-91.5-13.781 91.594zm-10.688 116.3-8.0156 123.61h45.703l-8.0156-123.66c-9.7031 2.5312-19.969 2.5312-29.672 0.046875zm-108.8 284.34c41.766 19.453 41.766 79.078 0 98.531-10.594 4.9688-7.875 21.094 4.3594 21.844l35.484 2.8125c15.047 1.1719 16.828-21.656 1.7812-22.828l-6.1875-0.46875c33.844-39.094 20.344-99.141-25.734-120.61-5.7188-2.6719-12.562-0.1875-15.234 5.5312-2.6719 5.7188-0.1875 12.516 5.5312 15.188zm-45.844 98.531c-41.766-19.453-41.766-79.078 0-98.531 10.594-4.9688 7.875-21.094-4.3125-21.844l-35.484-2.7656c-15.047-1.1719-16.828 21.656-1.7812 22.828l6.1875 0.46875c-33.844 39.094-20.344 99.141 25.734 120.61 5.7188 2.6719 12.562 0.1875 15.234-5.5312 2.6719-5.7188 0.1875-12.562-5.5781-15.234zm34.406-181.64c39.328 3.375 74.156 23.906 96.375 54.797h42.609l-14.016-109.45h-124.92zm109.64 77.719c15.656 34.594 15.656 74.719 0 109.31h46.266l-14.016-109.31zm-13.266 132.28c-22.219 30.844-57.047 51.422-96.375 54.797v54.656h172.92l-14.062-109.45zm-119.34 54.75c-39.328-3.375-74.156-23.906-96.375-54.797h-62.484l-14.016 109.45h172.92zm-109.64-77.719c-15.656-34.594-15.656-74.672 0-109.31h-32.25l-14.016 109.31zm13.266-132.24c22.219-30.844 57.047-51.422 96.375-54.797v-54.703h-124.92l-14.016 109.45zm185.58-0.14062c-42.938-42.938-112.55-42.938-155.44 0-42.938 42.938-42.938 112.55 0 155.44 42.938 42.938 112.55 42.938 155.44 0 42.938-42.891 42.938-112.5 0-155.44zm-452.11-219.56-32.016-32.016c-10.688-10.688-26.906 5.5312-16.219 16.219l32.016 32.016c10.641 10.641 26.906-5.5781 16.219-16.219zm-45.703 87.281h-45.281c-15.094 0-15.094 22.922 0 22.922h45.281c15.141 0.046875 15.141-22.922 0-22.922zm29.484 94.078-32.016 32.016c-10.688 10.688 5.5312 26.906 16.219 16.219l32.016-32.016c10.688-10.688-5.5781-26.906-16.219-16.219zm197.58-165.19 32.016-32.016c10.688-10.688-5.5312-26.906-16.219-16.219l-32.016 32.016c-10.688 10.688 5.5312 26.906 16.219 16.219zm-87.328-45.656v-45.281c0-15.094-22.922-15.094-22.922 0v45.281c0 15.094 22.922 15.094 22.922 0zm-39.797 201.47 17.156-75.703c1.2188-5.3438 5.9062-8.9531 11.156-8.9062v-0.046875h77.625c-9.2812-63.281-87.375-89.719-133.08-44.016-40.219 40.172-25.406 108.33 27.141 128.68zm19.594 16.969-6.9844 30.75h134.02l14.016-109.45h-123.24zm30.234 604.22c-15.094 0-15.094-22.922 0-22.922l540.66-0.046875c15.094 0 15.094 22.922 0 22.922zm312.19-140.68-10.312-86.719h-63.094l-10.312 86.719zm56.016 22.922h-195.74v38.016h195.79zm-274.31-432.79h-136.26l-24.797 109.31h147.1zm349.92-22.922h134.02l-24.844-109.45h-123.24zm139.26 22.922h-136.31l14.016 109.31h147.05zm30 132.28h-149.34l14.016 109.45h160.13zm-536.16 0h-149.29l-24.844 109.45h160.13zm390.79 132.37h-567.79v35.531h740.81v-35.531z" fill-rule="evenodd"></path></svg>