<svg xmlns="http://www.w3.org/2000/svg" width="512pt" height="512pt" viewBox="0 0 512 512"><path d="m473.28 421.12-61.742-61.742c11.699-20.621 18.461-44.398 18.461-69.762 0-59.184-36.422-109.98-88.004-131.28v-46.34c0-20.961-17.039-38-38-38h-43.398c-2.2617-4.7188-7.0391-8-12.602-8h-30.559c0.92188-4.9609 0.69922-10.039-0.67969-15.02-3.6211-12.941-14.84-22.859-27.941-24.66-9.8008-1.3398-19.719 1.5586-27.141 8.0195-7.418 6.4609-11.68 15.801-11.68 25.641 0 2.0195 0.17969 4.0195 0.55859 6h-30.559c-5.5586 0-10.34 3.2812-12.602 8h-43.398c-20.961 0-38 17.039-38 38v336c0 20.961 17.039 38 38 38h240c20.961 0 38-17.039 38-38v-27.121c5.4414-2.2383 10.699-4.8594 15.781-7.7383l61.742 61.742c7.1797 7.1797 16.738 11.141 26.879 11.141 10.16 0 19.699-3.9609 26.879-11.141 7.1797-7.1797 11.141-16.719 11.141-26.879 0-10.16-3.9609-19.699-11.141-26.879zm-55.281-131.5c0 71.68-58.32 130-130 130s-130-58.32-130-130c0-71.68 58.32-130 130-130s130 58.32 130 130zm-120-171.6v30.121c-3.3203-0.23828-6.6211-0.5-10-0.5-14.68 0-28.84 2.2383-42.16 6.3984l-133.84-0.039062c-3.3203 0-6 2.6797-6 6 0 3.3203 2.6797 6 6 6h106.36c-16.219 9.1797-30.422 21.441-41.879 36h-64.48c-3.3203 0-6 2.6797-6 6 0 3.3203 2.6797 6 6 6h56.02c-7 11.082-12.539 23.141-16.281 36h-39.738c-3.3203 0-6 2.6797-6 6 0 3.3203 2.6797 6 6 6h36.738c-1.7617 8.9414-2.7383 18.16-2.7383 27.602 0 2.8398 0.26172 5.6016 0.42187 8.3984h-34.422c-3.3203 0-6 2.6797-6 6 0 3.3203 2.6797 6 6 6h35.641c1.8203 12.602 5.1797 24.699 10.102 36h-45.738c-3.3203 0-6 2.6797-6 6 0 3.3203 2.6797 6 6 6h51.621c7.4609 13.52 17.16 25.621 28.441 36h-80.062c-3.3203 0-6 2.6797-6 6 0 3.3203 2.6797 6 6 6h94.879c23.02 16.102 50.961 25.602 81.121 25.602 3.3789 0 6.6797-0.28125 10-0.5v10.898h-228v-324h228zm32-6v41.961c-6.4609-2-13.18-3.3984-20-4.4609v-37.5c0-3.3203-2.6797-6-6-6h-42.238c0.10156-0.66016 0.23828-1.3203 0.23828-2v-18h42c14.34 0 26 11.66 26 26zm-210-34h38.801c2.0586 0 3.9805-1.0586 5.0781-2.8008 1.1016-1.7383 1.2188-3.9219 0.33984-5.7812-1.4609-3.0781-2.2188-6.2422-2.2188-9.418 0-6.3594 2.7617-12.422 7.5586-16.602 4.8594-4.2383 11.121-6.0781 17.621-5.1797 8.418 1.1602 15.66 7.582 18.02 16 1.4414 5.1406 0.96094 10.238-1.3984 15.199-0.87891 1.8594-0.76172 4.0391 0.33984 5.7812 1.1016 1.7383 3.0195 2.8008 5.0781 2.8008h38.801c1.1016 0 2 0.89844 2 2v24c0 1.1016-0.89844 2-2 2l-128.02-0.019531c-1.1016 0-2-0.89844-2-2v-24c0-1.1016 0.89844-2 2-2zm210 370c0 14.34-11.66 26-26 26l-240-0.019531c-14.34 0-26-11.66-26-26v-336c0-14.34 11.66-26 26-26h42v18c0 0.69922 0.21875 1.3398 0.32031 2h-42.32c-3.3203 0-6 2.6797-6 6v336c0 3.3203 2.6797 6 6 6h240c3.3203 0 6-2.6797 6-6v-18.281c6.8203-1.0586 13.539-2.4609 20-4.4609zm134.8 18.398c-9.8203 9.8203-26.961 9.8398-36.801 0l-59.762-59.762c14.398-9.8984 26.879-22.398 36.801-36.801l59.762 59.762c4.9219 4.9219 7.6211 11.441 7.6211 18.398 0 6.9414-2.7188 13.48-7.6211 18.398zm-286.8-176.78c0 60.66 49.34 110 110 110 60.656 0 110-49.34 110-110 0-60.66-49.34-110-110-110-60.656 0-110 49.34-110 110zm208 0c0 54.043-43.961 98-98 98-54.043 0-98-43.961-98-98 0-54.043 43.961-98 98-98 54.043 0 98 43.961 98 98zm-113.56 23.398 62.219-62.219c2.3398-2.3398 6.1406-2.3398 8.4805 0 2.3398 2.3398 2.3398 6.1406 0 8.4805l-62.219 62.219c-2.7188 2.7383-6.3203 4.1016-9.8984 4.1016s-7.1602-1.3594-9.8984-4.1016l-28.281-28.281c-2.3398-2.3398-2.3398-6.1406 0-8.4805 2.3398-2.3398 6.1406-2.3398 8.4805 0l28.281 28.281c0.78125 0.78125 2.0391 0.78125 2.8203 0z"></path></svg>