<svg xmlns="http://www.w3.org/2000/svg" width="1200pt" height="1200pt" viewBox="0 0 1200 1200"><path d="m600 682.82c45.703 0 82.875-37.172 82.875-82.828 0-45.703-37.172-82.875-82.875-82.875s-82.875 37.172-82.875 82.875 37.172 82.828 82.875 82.828zm0-138.61c30.75 0 55.781 25.031 55.781 55.781s-25.031 55.734-55.781 55.734-55.781-25.031-55.781-55.734c0-30.75 25.031-55.781 55.781-55.781zm-68.906 191.39 21.75 9 13.312 28.828c2.2031 4.7812 7.0312 7.875 12.281 7.875h43.125c5.2969 0 10.078-3.0938 12.281-7.875l13.312-28.828 21.75-9 29.812 10.969c4.9688 1.8281 10.547 0.60938 14.25-3.1406l30.516-30.516c3.75-3.75 4.9688-9.3281 3.1406-14.25l-11.016-29.812 9-21.703 28.875-13.312c4.7812-2.2031 7.875-7.0312 7.875-12.281v-43.172c0-5.2969-3.0938-10.078-7.875-12.281l-28.875-13.312-9-21.703 11.016-29.812c1.8281-4.9688 0.60938-10.547-3.1406-14.25l-30.516-30.516c-3.75-3.75-9.2812-4.9688-14.25-3.1406l-29.812 10.969-21.75-9-13.312-28.828c-2.2031-4.7812-7.0312-7.875-12.281-7.875h-43.125c-5.2969 0-10.078 3.0938-12.281 7.875l-13.312 28.828-21.75 9-29.766-10.969c-4.9219-1.8281-10.5-0.60938-14.25 3.1406l-30.562 30.516c-3.75 3.75-4.9688 9.3281-3.1406 14.297l11.016 29.812-9 21.703-28.828 13.312c-4.7812 2.2031-7.875 7.0312-7.875 12.281v43.172c0 5.2969 3.0938 10.078 7.875 12.281l28.828 13.312 9 21.703-11.016 29.812c-1.8281 4.9688-0.60938 10.547 3.1406 14.297l30.562 30.516c3.75 3.75 9.2812 4.9219 14.25 3.1406l29.766-10.969zm-49.266-35.719 9.8438-26.625c1.1719-3.1875 1.125-6.75-0.1875-9.8906l-13.078-31.5c-1.3125-3.1406-3.75-5.6719-6.8438-7.125l-25.781-11.906v-25.828l25.781-11.906c3.0938-1.4062 5.5312-3.9375 6.8438-7.125l13.078-31.5c1.3125-3.1406 1.3594-6.7031 0.1875-9.8906l-9.8438-26.625 18.281-18.234 26.625 9.7969c3.1875 1.1719 6.7031 1.125 9.8438-0.1875l31.547-13.078c3.1406-1.3125 5.6719-3.75 7.125-6.8438l11.906-25.781h25.781l11.906 25.781c1.4062 3.0938 3.9844 5.5312 7.125 6.8438l31.547 13.078c3.1406 1.3125 6.6562 1.3594 9.8438 0.1875l26.672-9.7969 18.234 18.234-9.8438 26.625c-1.1719 3.1875-1.125 6.75 0.1875 9.8906l13.078 31.5c1.3125 3.1406 3.75 5.6719 6.8438 7.125l25.781 11.906v25.828l-25.781 11.906c-3.0938 1.4062-5.5312 3.9844-6.8438 7.125l-13.078 31.5c-1.3125 3.1406-1.3594 6.7031-0.1875 9.8906l9.8438 26.625-18.234 18.234-26.672-9.7969c-3.1875-1.1719-6.7031-1.125-9.8438 0.1875l-31.547 13.078c-3.1406 1.3125-5.6719 3.75-7.125 6.8438l-11.906 25.781h-25.781l-11.906-25.781c-1.4062-3.0938-3.9844-5.5312-7.125-6.8438l-31.547-13.078c-3.1406-1.3125-6.6562-1.3594-9.8438-0.1875l-26.625 9.7969zm536.76-189.47c8.3906 39.375 11.156 79.828 8.2031 120.14-8.1562 114-60.234 217.97-146.63 292.82-78.469 67.969-176.72 104.48-279.56 104.48-10.359 0-20.766-0.375-31.219-1.125-7.8281-0.5625-15.656-1.3594-23.391-2.2969l16.172 19.266c4.7812 5.7188 4.0781 14.297-1.6875 19.078-2.5312 2.1094-5.625 3.1875-8.6719 3.1875-3.8438 0-7.7344-1.6406-10.406-4.8281l-39.75-47.438c-2.5312-3-3.6094-6.9375-3-10.828 0.60937-3.8906 2.8594-7.3125 6.2344-9.375l52.547-32.766c6.3281-3.9375 14.719-2.0156 18.656 4.3125s2.0156 14.719-4.3125 18.656l-22.219 13.875c7.2656 0.89062 14.531 1.6406 21.844 2.1562 9.7031 0.70312 19.359 1.0312 28.922 1.0312 208.13 0 384.42-161.44 399.52-372.14 2.7656-37.781 0.1875-75.656-7.6875-112.55-1.5469-7.3125 3.0938-14.531 10.406-16.078s14.531 3.0938 16.078 10.406zm-837.14 179.06c-8.3906-39.328-11.156-79.734-8.25-120.14 8.2031-114 60.281-218.02 146.68-292.82 86.395-74.809 196.78-111.56 310.78-103.36 7.8281 0.5625 15.609 1.3594 23.391 2.3438l-16.125-19.266c-4.7812-5.7188-4.0312-14.297 1.6875-19.078s14.297-4.0312 19.078 1.6875l39.703 47.438c2.5312 3 3.6094 6.9375 3 10.828-0.60937 3.8906-2.8594 7.2656-6.1875 9.375l-52.5 32.766c-2.25 1.4062-4.6875 2.0625-7.1719 2.0625-4.5469 0-8.9531-2.25-11.531-6.375-3.9375-6.3281-2.0156-14.719 4.3125-18.656l22.219-13.875c-7.2656-0.89062-14.531-1.6406-21.844-2.1562-220.45-15.797-412.64 150.71-428.48 371.11-2.7188 37.828-0.09375 75.703 7.7344 112.55 1.5469 7.3125-3.0938 14.531-10.406 16.078-0.9375 0.1875-1.875 0.28125-2.8125 0.28125-6.2344 0-11.859-4.3594-13.219-10.734zm717.19-206.81c99.984 0 181.31-81.328 181.31-181.31 0-99.938-81.328-181.31-181.31-181.31s-181.36 81.328-181.36 181.31c0 99.938 81.328 181.31 181.36 181.31zm-107.44-70.828c4.8281-27.234 30.703-47.812 61.547-47.812h91.781c30.891 0 56.766 20.578 61.547 47.812-27.797 27-65.672 43.688-107.39 43.688s-79.641-16.688-107.44-43.688zm63.75-157.08c0-24.094 19.594-43.688 43.688-43.688s43.688 19.594 43.688 43.688c0 20.391-10.688 62.484-43.688 62.484-30.141 0-43.688-36.562-43.688-62.484zm43.688-107.62c85.031 0 154.22 69.188 154.22 154.22 0 31.875-9.7031 61.5-26.344 86.109-13.828-29.812-45.469-50.484-82.031-50.484h-16.359c26.953-14.766 41.25-49.219 41.25-82.172 0-39.047-31.734-70.781-70.781-70.781s-70.781 31.734-70.781 70.781c0 32.953 14.297 67.453 41.25 82.172h-16.406c-36.469 0-68.156 20.672-81.984 50.531-16.641-24.609-26.344-54.234-26.344-86.109 0-85.031 69.188-154.22 154.26-154.22zm-597.24 570.14c-99.984 0-181.36 81.328-181.36 181.31 0 99.938 81.375 181.36 181.36 181.36 99.984 0 181.31-81.375 181.31-181.36 0-99.984-81.328-181.31-181.31-181.31zm-107.44 291.84c4.7812-27.234 30.703-47.812 61.547-47.812h91.781c30.844 0 56.719 20.578 61.547 47.859-27.797 27.047-65.672 43.734-107.39 43.734s-79.641-16.688-107.44-43.734zm63.703-157.13c0-24.094 19.641-43.688 43.734-43.688s43.688 19.594 43.688 43.688c0 25.922-13.547 62.484-43.688 62.484-33.047 0-43.734-42.094-43.734-62.484zm171.61 132.71c-13.828-29.812-45.516-50.531-82.031-50.531h-16.359c26.953-14.766 41.25-49.219 41.25-82.172 0-39.047-31.734-70.781-70.781-70.781s-70.828 31.734-70.828 70.781c0 32.953 14.297 67.453 41.297 82.172h-16.359c-36.469 0-68.156 20.719-81.984 50.531-16.641-24.609-26.344-54.234-26.344-86.109 0-85.031 69.188-154.22 154.26-154.22 85.078 0 154.22 69.188 154.22 154.22 0 31.875-9.7031 61.547-26.344 86.156z"></path></svg>