<svg xmlns="http://www.w3.org/2000/svg" width="512pt" height="512pt" viewBox="0 0 512 512"><path d="m97.176 59.539c-20.738 0-37.641 16.898-37.641 37.641 0 20.738 16.898 37.641 37.641 37.641 20.738 0 37.641-16.898 37.641-37.641-0.019531-20.738-16.898-37.641-37.641-37.641zm0 65.637c-15.461 0-28-12.539-28-28 0-15.461 12.539-28 28-28 15.461 0 28 12.539 28 28 0 15.398-12.602 28-28 28zm317.64 213c-40.66 0-73.938 31.84-76.441 71.879h-55.5v-23.238c0-10.602-8.6016-19.262-19.262-19.262h-130.6c-10.602 0-19.262 8.6016-19.262 19.262v23.238h-9.0586c-41.16 0-74.598-33.48-74.598-74.598 0-41.16 33.48-74.598 74.598-74.598h66.758v23.238c0 10.602 8.6016 19.262 19.262 19.262h130.62c10.602 0 19.262-8.6016 19.262-19.262v-23.238h66.758c46.441 0 84.219-37.781 84.219-84.219s-37.781-84.219-84.219-84.219h-9.0586l-0.019531-23.301c0-10.602-8.6016-19.262-19.262-19.262h-130.64c-10.602 0-19.262 8.6016-19.262 19.262v23.238h-55.301v-2.6602c0-4.3008-3.0781-7.9805-7.2812-8.7617l-8.0781-1.4805c-1.3398-4.5586-3.1797-9.0195-5.4805-13.16l4.7188-6.7617c2.4609-3.5391 2-8.3008-1.0195-11.32l-10.539-10.539c-3.0195-3.0195-7.7812-3.4805-11.32-1.0195l-6.8203 4.6602c-4.1406-2.3008-8.6016-4.1406-13.16-5.4805l-1.4805-8.0781c-0.78125-4.1992-4.3984-7.2812-8.6992-7.2812h-14.961c-4.3008 0-7.9805 3.0781-8.7617 7.2812l-1.4805 8.0781c-4.5586 1.3398-9.0195 3.1211-13.16 5.4805l-6.7617-4.7188c-3.5391-2.4609-8.3008-2-11.32 1.0195l-10.539 10.621c-3.0195 3.0195-3.4805 7.7812-1.0195 11.32l4.7188 6.7617c-2.3008 4.1406-4.1406 8.6016-5.4805 13.16l-8.0781 1.4805c-4.2617 0.76172-7.3398 4.4414-7.3398 8.7383v14.961c0 4.3008 3.0781 7.9805 7.2812 8.7617l8.0781 1.4805c1.3398 4.5586 3.1797 9.0195 5.4805 13.16l-4.7188 6.7617c-2.4609 3.5391-2 8.3008 1.0195 11.32l10.602 10.602c3.0195 3.0195 7.7812 3.4805 11.32 1.0195l6.7617-4.7188c4.1406 2.3008 8.6016 4.1406 13.16 5.4805l1.4805 8.0781c0.76172 4.1992 4.4609 7.2812 8.7617 7.2812h14.961c4.3008 0 7.9805-3.0781 8.7617-7.2812l1.4805-8.0781c4.5586-1.3398 9.0195-3.1211 13.16-5.4805l6.7617 4.7188c3.5391 2.4609 8.3008 2 11.32-1.0195l10.539-10.539c3.0195-3.0195 3.4805-7.7812 1.0195-11.32l-4.7188-6.8789c2.3008-4.1406 4.1406-8.6016 5.4805-13.16l8.0781-1.4805c4.1992-0.76172 7.2812-4.4609 7.2812-8.6992v-2.6602h55.301v23.238c0 10.602 8.6016 19.262 19.262 19.262h130.62c10.602 0 19.262-8.6016 19.262-19.262v-23.238h9.0586c41.16 0 74.598 33.48 74.598 74.598 0 41.16-33.48 74.598-74.598 74.598l-66.781-0.019531v-23.238c0-10.602-8.6016-19.262-19.262-19.262l-130.62 0.019531c-10.602 0-19.262 8.6016-19.262 19.262v23.238l-66.699-0.019531c-46.441 0-84.219 37.801-84.219 84.238 0 46.441 37.781 84.219 84.219 84.219h9.0586v23.238c0 10.602 8.6016 19.262 19.262 19.262h130.62c10.602 0 19.262-8.6016 19.262-19.262v-23.238h55.562c2.4219 40.039 35.699 71.879 76.359 71.879 42.301 0 76.699-34.398 76.699-76.699 0-42.281-34.398-76.641-76.699-76.641zm-250.58-234.14-7.9414 1.4414c-3.3789 0.62109-6.0391 3.0195-6.9609 6.3398-1.1797 4.1406-2.8203 8.1406-4.9219 11.879-1.6797 2.9609-1.5391 6.6016 0.46094 9.418l4.6016 6.6602-9.6797 9.6797-6.6602-4.6016c-2.8203-1.9414-6.3984-2.1016-9.418-0.46094-3.7383 2.1016-7.7812 3.7812-11.879 4.9219-3.2812 0.92188-5.7383 3.5781-6.3398 6.9609l-1.4414 7.9414h-13.719l-1.4414-7.9414c-0.62109-3.3789-3.0195-6.0391-6.3398-6.9609-4.1406-1.1797-8.1406-2.8203-11.879-4.9219-2.9609-1.6797-6.6016-1.5391-9.418 0.46094l-6.6602 4.6016-9.6797-9.6797 4.6016-6.6602c1.9414-2.8203 2.1016-6.3984 0.46094-9.418-2.1016-3.7383-3.7812-7.7383-4.9219-11.879-0.92188-3.2812-3.5781-5.7383-6.9609-6.3398l-7.9414-1.4414v-13.719l7.9414-1.4414c3.3789-0.62109 6.0391-3.0195 6.9609-6.3398 1.1797-4.1406 2.8203-8.1406 4.9219-11.879 1.6797-2.9609 1.5391-6.6016-0.46094-9.418l-4.6016-6.6602 9.6797-9.6797 6.6602 4.6016c2.8203 1.9414 6.3984 2.1016 9.418 0.46094 3.7383-2.1016 7.7812-3.7812 11.879-4.9219 3.2812-0.92188 5.7383-3.5781 6.3398-6.9609l1.4414-7.9414h13.719l1.4414 7.9414c0.62109 3.3789 3.0195 6.0391 6.3398 6.9609 4.1406 1.1797 8.1406 2.8203 11.879 4.9219 2.9609 1.6797 6.6016 1.5391 9.418-0.46094l6.6602-4.6016 9.6797 9.6797-4.6016 6.6602c-1.9414 2.8203-2.1016 6.3984-0.46094 9.418 2.1016 3.7383 3.7812 7.7383 4.9219 11.879 0.92187 3.2812 3.5781 5.7383 6.9609 6.3398l7.9414 1.4414zm224.36 21.141c0 5.3203-4.3008 9.6211-9.6211 9.6211h-130.6c-5.3203 0-9.6211-4.3008-9.6211-9.6211l-0.019531-56.059c0-5.3203 4.3008-9.6211 9.6211-9.6211h130.62c5.3203 0 9.6211 4.3008 9.6211 9.6211zm-207.5 102.76c0-5.3203 4.3008-9.6211 9.6211-9.6211h130.62c5.3203 0 9.6211 4.3008 9.6211 9.6211v56.059c0 5.3203-4.3008 9.6211-9.6211 9.6211l-130.68 0.019531c-5.3203 0-9.6211-4.3008-9.6211-9.6211v-56.078zm92.16 214.94c0 5.3203-4.3008 9.6211-9.6211 9.6211h-130.62c-5.3203 0-9.6211-4.3008-9.6211-9.6211v-56.059c0-5.3203 4.3008-9.6211 9.6211-9.6211h130.62c5.3203 0 9.6211 4.3008 9.6211 9.6211zm141.56 39.02c-36.961 0-67.082-30.102-67.082-67.082 0-36.961 30.102-67.082 67.082-67.082 36.961 0 67.082 30.102 67.082 67.082 0 36.961-30.121 67.082-67.082 67.082zm29.738-101.28c-4.6016-0.39844-9.1211 0.98047-12.641 3.9414l-30.719 25.758-6.6602-8.7617c-2.8203-3.6797-6.9219-6.0391-11.461-6.6602-4.6016-0.62109-9.1602 0.62109-12.859 3.3789-7.582 5.7812-9.0586 16.699-3.2812 24.32l17.66 23.199c2.9219 3.7812 7.1211 6.1992 11.879 6.6992 0.66016 0.058594 1.3398 0.10156 2 0.10156 4.0391 0 7.9414-1.3789 11.059-4.0391l44.641-37.379c7.3203-6.1406 8.3008-17.102 2.1602-24.418-2.9609-3.5195-7.1211-5.7188-11.781-6.1406zm3.4414 23.238-44.641 37.379c-1.6406 1.3789-3.6797 2-5.8398 1.7383-2.1016-0.26172-4-1.2812-5.2812-2.9609l-17.66-23.199c-2.6211-3.3789-1.9414-8.2383 1.4414-10.859 1.3789-1.0195 2.9609-1.5781 4.6602-1.5781 0.35938 0 0.71875 0 1.0195 0.058594 2.0391 0.26172 3.8984 1.3398 5.1211 2.9609l9.7188 12.738c0.82031 1.0195 2 1.7383 3.2812 1.8398 1.2812 0.16016 2.6211-0.26172 3.6406-1.0781l34.621-28.98c1.5781-1.3398 3.5781-1.9414 5.6406-1.7383 2.0391 0.19922 3.9414 1.1797 5.2812 2.7188 2.7383 3.3398 2.2812 8.1992-1 10.961zm-125.38-306.68c0 4.9609-4 8.9609-8.9609 8.9609s-8.9609-4-8.9609-8.9609c0-4.9609 4-8.9609 8.9609-8.9609s8.9609 4 8.9609 8.9609zm36.441 0c0 4.9609-4 8.9609-8.9609 8.9609-4.9609 0-8.9609-4-8.9609-8.9609 0-4.9609 4-8.9609 8.9609-8.9609 4.9805 0 8.9609 4 8.9609 8.9609zm-72.859 0c0 4.9609-4 8.9609-8.9609 8.9609-4.9609 0-8.9609-4-8.9609-8.9609 0-4.9609 4-8.9609 8.9609-8.9609 4.9219 0 8.9609 4 8.9609 8.9609zm-39.16 158.82c0-4.9609 4-8.9609 8.9609-8.9609s8.9609 4 8.9609 8.9609c0 4.9609-4 8.9609-8.9609 8.9609s-8.9609-4-8.9609-8.9609zm36.461 0c0-4.9609 4-8.9609 8.9609-8.9609 4.9609 0 8.9609 4 8.9609 8.9609 0 4.9609-4 8.9609-8.9609 8.9609-4.9805 0-8.9609-4-8.9609-8.9609zm-72.918 0c0-4.9609 4-8.9609 8.9609-8.9609 4.9609 0 8.9609 4 8.9609 8.9609 0 4.9609-4 8.9609-8.9609 8.9609-4.8984 0-8.9609-4-8.9609-8.9609zm-3.3203 158.82c0 4.9609-4 8.9609-8.9609 8.9609-4.9609 0-8.9609-4-8.9609-8.9609s4-8.9609 8.9609-8.9609c4.9609 0 8.9609 4.0391 8.9609 8.9609zm36.461 0c0 4.9609-4 8.9609-8.9609 8.9609-4.9609 0-8.9609-4-8.9609-8.9609s4-8.9609 8.9609-8.9609c4.9609 0 8.9609 4.0391 8.9609 8.9609zm-72.859 0c0 4.9609-4 8.9609-8.9609 8.9609-4.9609 0-8.9609-4-8.9609-8.9609s4-8.9609 8.9609-8.9609c4.9609 0 8.9609 4.0391 8.9609 8.9609z" fill-rule="evenodd"></path></svg>