<svg xmlns="http://www.w3.org/2000/svg" width="1200pt" height="1200pt" viewBox="0 0 1200 1200"><path d="m390.56 844.36h-209.48c-9.6562 0-17.438-7.8281-17.438-17.438 0-9.6562 7.8281-17.438 17.438-17.438h209.44c9.6562 0 17.438 7.8281 17.438 17.438 0.046875 9.6094-7.7812 17.438-17.391 17.438z"></path><path d="m285.79 495.28c-48.141 0-87.281-39.141-87.281-87.281s39.141-87.281 87.281-87.281 87.281 39.141 87.281 87.281-39.141 87.281-87.281 87.281zm0-139.64c-28.875 0-52.359 23.484-52.359 52.359s23.484 52.359 52.359 52.359 52.359-23.484 52.359-52.359c0.046875-28.875-23.484-52.359-52.359-52.359z"></path><path d="m355.6 1158.6c-13.547 0-26.25-5.1094-36.094-14.484-10.312-9.8438-16.219-23.625-16.219-37.875v-173.68c0-10.031-7.7812-18.281-17.297-18.328-4.8281 0-9.1875 1.7812-12.516 5.1094-3.2812 3.2812-5.0625 7.6875-5.0625 12.328v173.58c0 28.594-21.891 51.984-49.875 53.297-14.484 0.70312-28.172-4.4531-38.625-14.438-10.359-9.8438-16.266-23.672-16.266-37.875v-521.76c0-32.953 13.5-65.203 37.031-88.594 23.016-22.875 53.156-35.391 84.938-35.391h0.84375c32.109 0.23438 62.391 12.984 85.219 35.859 5.7656 5.8125 10.875 12.047 15.234 18.516 13.5 20.297 29.016 37.359 46.125 50.812l10.219 8.0156c36.047 28.219 81.094 43.781 126.84 43.781h12.422c9.1875 0 18.281 2.4375 26.203 7.0312 8.3438 4.8281 11.203 15.516 6.375 23.859s-15.516 11.203-23.859 6.375c-2.6719-1.5469-5.5781-2.3438-8.7188-2.3438h-12.422c-53.578 0-106.27-18.234-148.4-51.328l-10.219-8.0156c-20.016-15.703-38.062-35.531-53.625-58.875-3.0938-4.5938-6.75-9.0469-10.922-13.266-16.312-16.312-37.875-25.406-60.75-25.594h-0.60938c-22.5 0-43.922 8.9531-60.328 25.266-16.969 16.875-26.672 40.172-26.672 63.844v521.76c0 4.8281 1.9219 9.2812 5.3906 12.609s8.0625 5.0625 12.938 4.7812c9.1406-0.42188 16.594-8.6719 16.594-18.422v-173.58c0-13.969 5.4375-27.141 15.281-37.031 9.9375-9.9375 23.109-15.328 37.078-15.328h0.375c28.641 0.32812 51.984 24.188 51.984 53.344v173.68c0 4.8281 1.9219 9.2812 5.3906 12.609s8.0625 5.0625 12.938 4.7812c9.1406-0.42188 16.594-8.6719 16.594-18.422v-447c0-6.4219 3.5625-12.328 9.2344-15.375s12.562-2.7188 17.906 0.84375l61.641 41.062c2.4844 1.6406 5.3438 2.5312 8.3438 2.5312l112.31 0.046875c3.1406 0 6.0469-0.79688 8.7188-2.2969 8.3438-4.8281 19.031-1.9688 23.859 6.375s1.9688 19.031-6.375 23.859c-7.9688 4.5469-17.016 6.9844-26.203 6.9844h-112.36c-9.8906 0-19.5-2.9062-27.703-8.3906l-34.5-23.016v414.42c0 28.594-21.891 51.984-49.875 53.297-0.84375 0-1.6875 0.046875-2.5312 0.046875z"></path><path d="m1018.9 844.36h-209.44c-9.6562 0-17.438-7.8281-17.438-17.438 0-9.6562 7.8281-17.438 17.438-17.438h209.44c9.6562 0 17.438 7.8281 17.438 17.438s-7.8281 17.438-17.438 17.438z"></path><path d="m914.21 495.28c-48.141 0-87.281-39.141-87.281-87.281s39.141-87.281 87.281-87.281 87.281 39.141 87.281 87.281c-0.046875 48.141-39.188 87.281-87.281 87.281zm0-139.64c-28.875 0-52.359 23.484-52.359 52.359s23.484 52.359 52.359 52.359 52.359-23.484 52.359-52.359-23.531-52.359-52.359-52.359z"></path><path d="m984.05 1158.6c-0.84375 0-1.6875 0-2.5312-0.046875-27.984-1.3125-49.875-24.75-49.875-53.297v-173.58c0-4.6875-1.8281-9.0469-5.1094-12.375-3.2812-3.2812-7.6875-5.0625-12.328-5.0625h-0.14062c-9.5625 0.09375-17.297 8.2969-17.297 18.328v173.68c0 14.25-5.9062 28.031-16.219 37.875-10.453 9.9844-24.141 15.094-38.625 14.438-28.031-1.3125-49.922-24.75-49.922-53.297v-414.42l-34.5 23.016c-8.25 5.4844-17.812 8.3906-27.703 8.3906h-112.36c-28.875 0-52.359-23.484-52.359-52.359s23.484-52.359 52.359-52.359h12.422c45.797 0 90.844-15.562 126.84-43.828l10.266-8.0625c17.062-13.406 32.578-30.469 46.125-50.812 4.3594-6.5625 9.5156-12.797 15.234-18.516 22.828-22.875 53.109-35.578 85.219-35.812 32.156-0.28125 62.578 12.328 85.828 35.391 23.484 23.344 36.984 55.641 36.984 88.547v521.76c0 14.25-5.9062 28.031-16.219 37.875-9.8438 9.4219-22.547 14.531-36.094 14.531zm-69.844-279.28c13.969 0 27.094 5.4375 37.031 15.281 9.8906 9.9375 15.328 23.109 15.328 37.078v173.58c0 9.7031 7.4531 18 16.594 18.422 4.875 0.23438 9.4219-1.5 12.938-4.7812 3.4688-3.3281 5.3906-7.8281 5.3906-12.609v-521.76c0-23.719-9.75-46.969-26.719-63.797-16.406-16.312-37.828-25.266-60.328-25.266h-0.60938c-22.875 0.1875-44.438 9.2812-60.75 25.594-4.125 4.125-7.7812 8.5781-10.922 13.219-15.609 23.391-33.656 43.219-53.578 58.875l-10.266 8.0625c-42.141 33.094-94.828 51.281-148.4 51.281l-12.469-0.09375c-9.6094 0-17.438 7.8281-17.438 17.438 0 9.6094 7.8281 17.438 17.438 17.438h112.36c3 0 5.8594-0.89063 8.3438-2.5312l61.641-41.062c5.3438-3.5625 12.234-3.8906 17.906-0.84375 5.6719 3.0469 9.2344 8.9531 9.2344 15.375v447c0 9.7031 7.4531 18 16.594 18.422 4.8281 0.23438 9.4219-1.5 12.938-4.7812 3.4688-3.3281 5.3906-7.8281 5.3906-12.609v-173.68c0-29.156 23.297-53.016 51.938-53.25h0.42188z"></path><path d="m600 495.28c-125.11 0-226.92-101.81-226.92-226.92 0-125.11 101.81-226.92 226.92-226.92 125.11 0 226.92 101.81 226.92 226.92 0 125.11-101.81 226.92-226.92 226.92zm0-418.92c-105.89 0-192 86.109-192 192s86.109 192 192 192 192-86.109 192-192c0-105.84-86.109-192-192-192z"></path><path d="m600 495.28c-34.922 0-66.75-25.219-89.672-71.016-20.953-41.953-32.531-97.312-32.531-155.9 0-58.594 11.531-113.95 32.531-155.9 22.875-45.797 54.75-71.016 89.672-71.016s66.75 25.219 89.672 71.016c20.953 41.953 32.531 97.312 32.531 155.9 0 58.594-11.531 113.95-32.531 155.9-22.922 45.797-54.75 71.016-89.672 71.016zm0-418.92c-20.719 0-42 18.844-58.453 51.703-18.562 37.172-28.828 87-28.828 140.29 0 53.297 10.219 103.12 28.828 140.29 16.406 32.859 37.734 51.703 58.453 51.703s42-18.844 58.453-51.703c18.609-37.172 28.828-87 28.828-140.29 0-53.297-10.219-103.12-28.828-140.29-16.453-32.859-37.734-51.703-58.453-51.703z"></path><path d="m600 390.56c-58.594 0-113.95-11.531-155.9-32.531-45.797-22.875-71.016-54.75-71.016-89.672s25.219-66.75 71.016-89.672c41.953-20.953 97.312-32.531 155.9-32.531s113.95 11.531 155.9 32.531c45.797 22.922 71.016 54.75 71.016 89.672s-25.219 66.75-71.016 89.672c-41.953 20.953-97.312 32.531-155.9 32.531zm0-209.48c-53.297 0-103.12 10.219-140.29 28.828-32.859 16.453-51.703 37.734-51.703 58.453s18.844 42 51.703 58.453c37.172 18.609 87 28.828 140.29 28.828s103.12-10.219 140.29-28.828c32.859-16.453 51.703-37.734 51.703-58.453s-18.844-42-51.703-58.453c-37.172-18.562-87-28.828-140.29-28.828z"></path><path d="m809.44 285.79h-418.87c-9.6562 0-17.438-7.8281-17.438-17.438 0-9.6562 7.8281-17.438 17.438-17.438h418.92c9.6562 0 17.438 7.8281 17.438 17.438 0 9.6562-7.8281 17.438-17.484 17.438z"></path><path d="m600 495.28c-9.6562 0-17.438-7.8281-17.438-17.438v-418.92c0-9.6562 7.8281-17.438 17.438-17.438 9.6562 0 17.438 7.8281 17.438 17.438v418.92c0 9.6094-7.7812 17.438-17.438 17.438z"></path></svg>