<svg xmlns="http://www.w3.org/2000/svg" width="1200pt" height="1200pt" viewBox="0 0 1200 1200"><path d="m598.45 1033.8c0 7.2188-5.8594 13.078-13.078 13.078h-105c-7.2188 0-13.078-5.8594-13.078-13.078 0-7.2656 5.8594-13.125 13.078-13.125h105c7.2188 0.046875 13.078 5.9062 13.078 13.125zm424.22-588.89v382.5c0 15.797-12.984 28.641-28.922 28.641h-105.42v198.74c0 46.969-38.203 85.172-85.172 85.172h-540.66c-46.969 0-85.172-38.25-85.172-85.172v-909.66c0-46.969 38.203-85.219 85.172-85.219h540.66c46.969 0 85.172 38.25 85.172 85.219v138.84l42.141-25.359c4.0312-2.4375 9.0938-2.4844 13.219-0.1875s6.6562 6.6562 6.6562 11.391v146.21h43.453c15.891 0 28.875 12.938 28.875 28.875zm-98.531-151.87-41.438 24.938c-0.14062 0.09375-0.32812 0.23438-0.46875 0.28125l-174.84 105.23v359.53c0 7.2188-5.8594 13.125-13.125 13.125-7.2188 0-13.078-5.8594-13.078-13.125l-0.046874-359.48-216.74-130.5v383.29l229.87 138.32 229.87-138.32zm-485.95 390.71v-241.55h-43.453c-1.5938 0-2.7188 1.4062-2.7188 2.7188v382.5c0 1.3594 1.1719 2.4375 2.7188 2.4375h273.89l-224.11-134.9c-3.8906-2.3438-6.3281-6.6094-6.3281-11.203zm-233.16-551.68h655.6c-6-26.25-29.438-45.891-57.469-45.891h-540.66c-28.031 0-51.469 19.641-57.469 45.891zm657.14 922.74v-74.016h-658.64v74.016c0 32.531 26.438 58.969 58.969 58.969h540.66c32.531 0 59.016-26.438 59.016-58.969zm0-198.74h-467.39c-15.938 0-28.922-12.844-28.922-28.641l-0.046876-382.5c0-15.938 12.984-28.875 28.922-28.875h43.453v-146.16c0-4.7344 2.5312-9.0938 6.6562-11.391s9.1406-2.25 13.219 0.1875l236.21 142.18 167.9-101.06v-141.52h-658.64v796.31h658.64zm134.29-411.14c0-1.2656-1.125-2.7188-2.7188-2.7188h-43.453l0.046875 241.55c0 4.5938-2.3906 8.8594-6.3281 11.203l-224.16 134.9h273.89c1.5 0 2.7188-1.0781 2.7188-2.4375zm-360.56 240.32-112.55-67.688c-6.2344-3.7031-14.25-1.7344-17.953 4.5-3.75 6.1875-1.7344 14.25 4.4531 17.953l112.55 67.688c2.1094 1.2656 4.4531 1.875 6.75 1.875 4.4531 0 8.7656-2.25 11.25-6.375 3.7031-6.1875 1.6875-14.25-4.5-17.953zm0-73.922-112.55-67.688c-6.2344-3.75-14.25-1.7344-17.953 4.5-3.75 6.1875-1.7344 14.25 4.4531 17.953l112.55 67.688c2.1094 1.2656 4.4531 1.875 6.75 1.875 4.4531 0 8.7656-2.25 11.25-6.375 3.7031-6.1875 1.6875-14.203-4.5-17.953zm6.375-142.03v59.859c0 7.875-4.4062 15.141-11.531 19.031-3.2812 1.7812-6.9844 2.7656-10.688 2.7656-3.6562 0-7.3594-0.9375-10.688-2.7656l-95.391-57.609c-6.4688-3.4688-10.453-10.453-10.453-18.75v-59.625c0-8.25 4.2188-15.469 11.25-19.266 7.0312-3.8438 15.375-3.6094 22.078 0.70312l94.641 56.859c6.4688 3.5625 10.781 10.875 10.781 18.797zm-26.203 2.5312-86.344-51.891v49.594l86.344 52.125zm249.32 145.74-112.78 67.688c-6.1875 3.7031-8.2031 11.766-4.5 17.953 2.4375 4.0781 6.7969 6.375 11.25 6.375 2.2969 0 4.5938-0.60938 6.7031-1.875l112.78-67.688c6.1875-3.7031 8.2031-11.766 4.5-17.953-3.7031-6.2344-11.766-8.25-17.953-4.5zm0-73.922-112.78 67.688c-6.1875 3.7031-8.2031 11.766-4.5 17.953 2.4375 4.0781 6.7969 6.375 11.25 6.375 2.2969 0 4.5938-0.60938 6.7031-1.875l112.78-67.688c6.1875-3.7031 8.2031-11.766 4.5-17.953-3.7031-6.2344-11.766-8.25-17.953-4.5zm0-77.766-112.78 67.688c-6.1875 3.75-8.2031 11.766-4.5 17.953 2.4375 4.0781 6.7969 6.375 11.25 6.375 2.2969 0 4.5938-0.60938 6.7031-1.875l112.78-67.688c6.1875-3.75 8.2031-11.766 4.5-17.953-3.7031-6.2344-11.766-8.25-17.953-4.5zm0-80.438-112.78 67.688c-6.1875 3.7031-8.2031 11.766-4.5 17.953 2.4375 4.0781 6.7969 6.3281 11.25 6.3281 2.2969 0 4.5938-0.60938 6.7031-1.875l112.78-67.688c6.1875-3.7031 8.2031-11.766 4.5-17.953-3.7031-6.1406-11.766-8.1562-17.953-4.4531z" fill="#ea5b0a"></path></svg>