<svg xmlns="http://www.w3.org/2000/svg" width="1200pt" height="1200pt" viewBox="0 0 1200 1200"><path d="m957.23 514.41c-1.9375-3.3516-5.1367-5.8008-8.8867-6.7891-3.75-1-7.7266-0.46094-11.086 1.4766l-117.36 68.012-152.19-12.961c-4.3633-0.36328-8.6641 1.2383-11.711 4.375l-42.387 43.602-60.699-54.664c-3.2109-2.8984-7.5391-4.2266-11.852-3.6133l-161.34 23.039-116.96-67.789c-6.9883-4.0508-15.926-1.6641-19.961 5.3125l-148.48 256.19c-1.9375 3.3516-2.4766 7.3359-1.4766 11.086s3.4375 6.9375 6.7891 8.8867l118.96 68.938 52.062 65.414c-2.9609 17.238 1.3633 35.625 13.426 50.074 15.688 18.773 40.238 25.863 62.512 20.289 0.25 13.586 4.9492 27.164 14.312 38.387 10.539 12.613 25.414 20.387 41.875 21.863 12.352 1.1133 24.438-1.4141 35.023-7.1875 1.3516 11.512 5.9375 22.773 13.914 32.312 21.023 25.164 57.977 29.352 84.012 10.137 1.5859 11.688 6.5117 23.051 14.887 32.523 12.637 14.301 30.449 21.312 48.188 20.801 0.125 0.13672 0.26172 0.27344 0.39844 0.41406 11.641 11.586 27.117 17.961 43.617 17.961h0.085938c16.539-0.023438 32.023-6.4492 43.637-18.086 10.711-10.738 16.75-24.488 17.887-38.625 22.164 6.625 47.188 0.5 63.676-17.801 8.4258-9.3633 13.676-20.824 15.289-33.102 9.3242 4.5742 19.738 6.7109 30.426 6.1641 16.512-0.86328 31.664-8.0625 42.664-20.289 8.6367-9.6016 13.711-21.176 15.301-33.102 24.137 11.824 54.211 6.8242 73.074-14.125 11-12.211 16.586-28.039 15.727-44.539-0.64844-12.324-4.8242-23.898-12-33.562l33.738-56.438 118.07-68.426c6.9766-4.0508 9.3633-12.988 5.3125-19.961zm-830.3 258.2 133.81-230.9 96.062 55.676-133.81 230.9zm241.5 174.32-16.102 13.449c-13.762 11.488-34.324 9.6484-45.812-4.1133-7.1484-8.5625-9.1367-19.738-6.3125-29.738 0.19922-0.52344 0.36328-1.0625 0.5-1.6133 1.8516-5.4609 5.1875-10.512 9.9258-14.477l63.312-52.875c13.762-11.5 34.324-9.6484 45.812 4.1133 11.5 13.762 9.6484 34.324-4.1133 45.812-0.011719 0.011718-0.023438 0.023437-0.039063 0.023437l-46.887 39.164c-0.097657 0.089844-0.1875 0.17969-0.28516 0.25391zm90.125 47.574c-0.16406 0.125-0.32422 0.25-0.48828 0.38672l-28.926 24.148c-6.625 5.5391-15.051 8.1484-23.75 7.375-8.6875-0.77344-16.523-4.8633-22.062-11.488-11.438-13.688-9.6758-34.086 3.8867-45.625l2.6992-2.2617c0.050782-0.050781 0.10156-0.085937 0.16406-0.13672l60.676-50.676c13.773-11.5 34.324-9.6484 45.812 4.1133 11.461 13.738 9.6641 34.211-4.0117 45.727l-33.039 27.586c-0.3125 0.28906-0.63672 0.57812-0.96094 0.85156zm61.41 71.527c-13.762 11.5-34.324 9.6484-45.812-4.1133-11.5-13.762-9.6484-34.312 4.1133-45.812l32.875-27.449c0.023437-0.011718 0.039062-0.039062 0.0625-0.050781 0.039062-0.039062 0.085937-0.074219 0.125-0.10156l30.25-25.262c13.762-11.5 34.324-9.6484 45.812 4.1133 9.0625 10.852 10.074 26.211 2.5117 38.25-0.3125 0.5-0.63672 0.98828-0.98828 1.4766l-28.477 25.164zm52.551 37.922c-11.875-13.438-10.602-34.039 2.8242-45.914l4.25-3.7617c0.023437-0.023437 0.0625-0.050781 0.085937-0.074218l29.488-26.062c0.13672-0.125 0.28906-0.25 0.42578-0.375l10.648-9.4141c13.438-11.875 34.039-10.613 45.914 2.8359 11.875 13.438 10.602 34.039-2.8359 45.914l-44.898 39.676c-13.426 11.891-34.027 10.613-45.902-2.8242zm93.34 19.812c-6.1016 6.1133-14.262 9.4883-22.988 9.5h-0.050781c-3.1367 0-6.1992-0.4375-9.125-1.2734 1.3984-1.0391 2.7617-2.1484 4.0859-3.3125l37.113-32.801c1.4883 9.9648-1.6367 20.465-9.0352 27.887zm257.27-149.8c-12 13.324-32.613 14.398-45.938 2.3984l-23.562-21.211c-0.5625-0.55078-1.1367-1.0742-1.7266-1.6133-0.28906-0.26172-0.58594-0.5-0.88672-0.73828l-35.137-31.648c-6-5.3984-15.238-4.9141-20.637 1.0742-5.3984 6-4.9141 15.238 1.0742 20.637l37.25 33.551c12.148 12.137 12.789 31.863 1.1641 44.762-5.7734 6.4141-13.762 10.199-22.477 10.664-8.6992 0.46094-17.039-2.4766-23.461-8.2617l-23.562-21.227c-0.5625-0.53906-1.1367-1.0742-1.7109-1.6016-0.28906-0.26172-0.57422-0.5-0.875-0.72656l-35.137-31.648c-6-5.3984-15.238-4.9141-20.637 1.0742-5.3984 6-4.9141 15.238 1.0742 20.637l37.25 33.551c5.6758 5.6641 9 13.164 9.4258 21.312 0.46094 8.7109-2.4766 17.051-8.25 23.461-12 13.324-32.613 14.398-45.938 2.3984-0.85156-0.76172-1.7617-1.4141-2.7266-1.9375 10.062-21.602 7.1016-48.074-9.6641-67.051-16.438-18.602-41.676-24.926-64.039-18.238-0.92578-12.551-5.6992-24.812-14.199-35-19.164-22.949-51.586-28.449-76.898-14.664-1.3516-11.512-5.9375-22.773-13.914-32.324-15.688-18.773-40.238-25.875-62.512-20.289-0.25-13.586-4.9492-27.164-14.312-38.387-21.824-26.137-60.852-29.637-86.977-7.8125l-63.312 52.875c-2.7266 2.2734-5.1875 4.7266-7.4258 7.3359l-38.523-48.414 139.91-241.43 152.56-21.789 54.789 49.352-97.562 100.32c-2.8359 2.9141-4.3242 6.8867-4.1133 10.938 0.21094 4.0625 2.1133 7.8516 5.2266 10.461l33.5 27.961c25.812 21.551 60.125 24.836 89.562 8.5742l92.414-51.074 147.2 132.56c0.011719 0.011719 0.023437 0.023437 0.050781 0.039063l61.023 54.961c0.125 0.125 0.26172 0.23828 0.38672 0.35156 6.3125 5.7617 10.039 13.688 10.5 22.324 0.44531 8.7539-2.4805 17.09-8.2539 23.504zm3.9375-79.539-48.086-43.301-0.011718-0.011719-154.91-139.54c-4.6367-4.1758-11.387-4.9375-16.852-1.9258l-101.52 56.113c-18.625 10.301-40.352 8.2109-56.688-5.4258l-21.398-17.863 97.125-99.875c0.011718-0.011719 0.039062-0.039063 0.050781-0.050781l47.363-48.699 142.29 12.125 140.34 242.15zm49.949-66.148-133.81-230.9 96.062-55.676 133.81 230.9zm179.48-326.35v92.039c0 8.0625-6.5391 14.613-14.613 14.613-8.0625 0-14.613-6.5391-14.613-14.613v-92.039c0-7.3867-6.0117-13.387-13.387-13.387h-71.148c-6.6016 0-12.375-4.4258-14.102-10.789-9.8867-36.523-24.488-71.727-43.387-104.62-3.2891-5.7266-2.3359-12.938 2.3359-17.613l50.352-50.352c2.5117-2.5117 3.8867-5.875 3.8867-9.4609 0-3.6016-1.375-6.9609-3.8867-9.4609l-130.18-130.18c-5.2266-5.2266-13.711-5.2266-18.938 0l-50.375 50.375c-4.6641 4.6641-11.887 5.625-17.613 2.3359-32.926-18.914-68.113-33.512-104.6-43.387-6.375-1.7266-10.801-7.5-10.801-14.102l0.003906-71.184c0-7.3867-6.0117-13.387-13.387-13.387h-184.09c-7.3867 0-13.387 6.0117-13.387 13.387v71.188c0 6.6016-4.4258 12.375-10.801 14.102-36.488 9.875-71.688 24.461-104.6 43.375-5.7266 3.2891-12.938 2.3359-17.613-2.3359l-50.375-50.375c-2.5117-2.5117-5.875-3.8867-9.4609-3.8867-3.6016 0-6.9609 1.375-9.4766 3.8867l-130.15 130.17c-2.5117 2.5117-3.8867 5.8633-3.8867 9.4609 0 3.6016 1.375 6.9609 3.8867 9.4609l50.375 50.363c4.6641 4.6641 5.625 11.887 2.3359 17.613-18.914 32.914-33.512 68.113-43.387 104.61-1.7266 6.375-7.5 10.801-14.102 10.801h-71.184c-7.3867 0-13.387 6.0117-13.387 13.387v92.039c0 8.0625-6.5391 14.613-14.613 14.613s-14.613-6.5391-14.613-14.613v-92.039c0-23.5 19.113-42.613 42.613-42.613h60.137c9.3359-31.488 21.988-61.988 37.727-90.938l-42.562-42.551c-8.0234-8.0234-12.449-18.727-12.449-30.125 0-11.398 4.4258-22.102 12.449-30.125l130.18-130.16c16.613-16.613 43.648-16.613 60.25 0l42.562 42.562c28.949-15.738 59.449-28.387 90.938-37.711v-60.16c0-23.5 19.113-42.613 42.613-42.613h184.09c23.5 0 42.613 19.113 42.613 42.613v60.137c31.477 9.3359 61.977 21.988 90.938 37.711l42.562-42.562c16.613-16.613 43.648-16.613 60.262 0l130.16 130.16c8.0234 8.0234 12.449 18.727 12.449 30.125s-4.4258 22.102-12.449 30.125l-42.539 42.539c15.727 28.938 28.387 59.449 37.727 90.961h60.113c23.473 0.011719 42.598 19.137 42.598 42.625zm-556.49-223.19c-130.64 0-245.88 78.562-293.57 200.15-2.2617 5.7617-7.7734 9.2734-13.613 9.2734-1.7734 0-3.5742-0.32422-5.3359-1.0117-7.5117-2.9492-11.211-11.426-8.2617-18.938 25-63.738 68.062-118.15 124.51-157.36 57.789-40.125 125.65-61.352 196.26-61.352s138.48 21.211 196.26 61.352c56.449 39.199 99.512 93.613 124.51 157.36 2.9492 7.5117-0.75 15.988-8.2617 18.938-7.5234 2.9492-15.988-0.75-18.938-8.2617-47.688-121.59-162.93-200.15-293.56-200.15zm14.262 162.14c8.0625 0 14.613 6.5391 14.613 14.613v49.574c0 8.0625-6.5391 14.613-14.613 14.613-8.0625 0-14.613-6.5391-14.613-14.613v-49.574c0.015624-8.0625 6.5508-14.613 14.613-14.613zm95.75 25.664c6.9883 4.0391 9.375 12.977 5.3516 19.961l-24.773 42.914c-2.6992 4.6875-7.6133 7.3125-12.664 7.3125-2.4766 0-4.9883-0.63672-7.2891-1.9609-6.9883-4.0391-9.375-12.977-5.3516-19.961l24.773-42.914c4.0273-6.9883 12.965-9.3906 19.953-5.3516zm-171.54 5.3477 24.773 42.914c4.0391 6.9883 1.6367 15.926-5.3516 19.961-2.3008 1.3242-4.8125 1.9609-7.2891 1.9609-5.0508 0-9.9609-2.625-12.664-7.3125l-24.773-42.914c-4.0391-6.9883-1.6367-15.926 5.3516-19.961 6.9883-4.0352 15.926-1.6328 19.953 5.3516z" fill="#ea5b0a"></path></svg>