<svg xmlns="http://www.w3.org/2000/svg" width="512pt" height="512pt" viewBox="0 0 512 512"><path d="m124 268h-24c-4.418 0-8 3.582-8 8s3.582 8 8 8h24c4.418 0 8-3.582 8-8s-3.582-8-8-8z"></path><path d="m311.73 316h71.246c3.1953-5.9922 7.375-11.402 12.371-16h-95.988c4.9961 4.5977 9.1758 10.008 12.371 16z"></path><path d="m376 344c0-4.0312 0.40625-8.0508 1.2109-12h-59.723c0.80469 3.9492 1.2109 7.9688 1.2109 12 0 1.3516-0.11328 2.6719-0.20312 4h57.707c-0.089844-1.3281-0.20312-2.6484-0.20312-4z"></path><path d="m504 236v-48c0-4.418-3.582-8-8-8h-20v-48c0-4.418-3.582-8-8-8h-224c-4.418 0-8 3.582-8 8v48h-20c-4.418 0-8 3.582-8 8v48h-16c-4.418 0-8 3.582-8 8v16h-16v-88c-0.007812-6.3633-2.5391-12.465-7.0352-16.965-4.5-4.4961-10.602-7.0273-16.965-7.0352h-16c-33.938 0.039062-66.469 13.535-90.469 37.531-23.996 24-37.492 56.531-37.531 90.469v64c0 4.418 3.582 8 8 8h36.203c1.3359 14.707 9.9609 27.762 22.969 34.754 13.004 6.9961 28.652 6.9961 41.656 0 13.008-6.9922 21.633-20.047 22.969-34.754h28.203c4.418 0 8-3.582 8-8v-16h16v16c0 4.418 3.582 8 8 8h6.9023c-0.089844-1.3281-0.20312-2.6484-0.20312-4 0.003906-4.1641 0.4375-8.3125 1.3008-12.387v-15.613h5.6719c3.1953-5.9922 7.375-11.402 12.371-16h-18.043v-16h296v16h-19.344c4.9961 4.5977 9.1758 10.008 12.371 16h6.9727v16h-1.2109c0.80469 3.9492 1.2109 7.9688 1.2109 12 0 1.3516-0.11328 2.6719-0.20312 4h8.2031c4.418 0 8-3.582 8-8v-96c0-4.418-3.582-8-8-8zm-16 0h-40v-40h12v8c0 4.418 3.582 8 8 8s8-3.582 8-8v-8h12zm-96 0v-40h12v8c0 4.418 3.582 8 8 8s8-3.582 8-8v-8h12v40zm-56 0v-40h12v8c0 4.418 3.582 8 8 8s8-3.582 8-8v-8h12v40zm-56 0v-40h12v8c0 4.418 3.582 8 8 8s8-3.582 8-8v-8h12v40zm180-56h-40v-40h12v8c0 4.418 3.582 8 8 8s8-3.582 8-8v-8h12zm-56 0h-40v-40h12v8c0 4.418 3.582 8 8 8s8-3.582 8-8v-8h12zm-56 0h-40v-40h12v8c0 4.418 3.582 8 8 8s8-3.582 8-8v-8h12zm-96-40h12v8c0 4.418 3.582 8 8 8s8-3.582 8-8v-8h12v40h-40zm-28 56h12v8c0 4.418 3.582 8 8 8s8-3.582 8-8v-8h12v40h-40zm-136.33-24.457v69.789c0 3.9297-5.0938 6.668-9.668 6.668h-58.457c9.1172-34.945 34.457-63.387 68.125-76.457zm-55.668 116.46v16h-16v-16zm56 84c-7.4258 0-14.547-2.9492-19.801-8.1992-5.25-5.2539-8.1992-12.375-8.1992-19.801s2.9492-14.547 8.1992-19.801c5.2539-5.25 12.375-8.1992 19.801-8.1992s14.547 2.9492 19.801 8.1992c5.25 5.2539 8.1992 12.375 8.1992 19.801-0.007812 7.4219-2.9609 14.539-8.2109 19.789s-12.367 8.2031-19.789 8.2109zm64-40h-21.707c-3.4922-12.367-12.227-22.586-23.898-27.965s-25.117-5.3789-36.789 0-20.406 15.598-23.898 27.965h-29.707v-12h24c4.418 0 8-3.582 8-8v-32c0-4.418-3.582-8-8-8h-23.898c0.09375-2.6914 0.26563-5.3594 0.55078-8h61.348c12.344 0 25.668-8.668 25.668-22.668v-74.637c7.9883-1.7852 16.148-2.6914 24.332-2.6953h16c4.4141 0.003906 7.9961 3.5859 8 8zm16-24v-32h16v32zm32-40v-16h296v16z"></path><path d="m258.7 300c-11.668 0-22.859 4.6367-31.113 12.887-8.25 8.2539-12.887 19.445-12.887 31.113s4.6367 22.859 12.887 31.113c8.2539 8.25 19.445 12.887 31.113 12.887s22.859-4.6367 31.113-12.887c8.25-8.2539 12.887-19.445 12.887-31.113-0.011719-11.664-4.6523-22.848-12.902-31.098s-19.434-12.891-31.098-12.902zm0 72c-7.4258 0-14.547-2.9492-19.801-8.1992-5.25-5.2539-8.1992-12.375-8.1992-19.801s2.9492-14.547 8.1992-19.801c5.2539-5.25 12.375-8.1992 19.801-8.1992s14.547 2.9492 19.801 8.1992c5.25 5.2539 8.1992 12.375 8.1992 19.801-0.007813 7.4219-2.9609 14.539-8.2109 19.789s-12.367 8.2031-19.789 8.2109z"></path><path d="m436 300c-11.668 0-22.859 4.6367-31.113 12.887-8.25 8.2539-12.887 19.445-12.887 31.113s4.6367 22.859 12.887 31.113c8.2539 8.25 19.445 12.887 31.113 12.887s22.859-4.6367 31.113-12.887c8.25-8.2539 12.887-19.445 12.887-31.113-0.011719-11.664-4.6523-22.848-12.902-31.098s-19.434-12.891-31.098-12.902zm0 72c-7.4258 0-14.547-2.9492-19.801-8.1992-5.25-5.2539-8.1992-12.375-8.1992-19.801s2.9492-14.547 8.1992-19.801c5.2539-5.25 12.375-8.1992 19.801-8.1992s14.547 2.9492 19.801 8.1992c5.25 5.2539 8.1992 12.375 8.1992 19.801-0.007812 7.4219-2.9609 14.539-8.2109 19.789s-12.367 8.2031-19.789 8.2109z"></path></svg>