<svg xmlns="http://www.w3.org/2000/svg" width="1200pt" height="1200pt" viewBox="0 0 1200 1200"><path d="m685.15 153.66c18.914 75.215 128.2 51.074 114.28-24.676-5.9961-30.859-38.898-52.098-69.477-44.801-30.836 5.9961-52.098 38.922-44.801 69.477zm31.438-28.906c13.871-22.703 50.586-16.078 55.582 10.109 3.5547 16.477-6.9727 32.762-23.422 36.344-25.746 6.3906-47.148-24.652-32.16-46.449z" fill="#ea5b0a"></path><path d="m710.64 60.902c4.2305 17.891 30.836 12.035 27.258-5.9023l-6.832-31.602c-1.625-7.5273-9.0625-12.316-16.566-10.688-7.5273 1.625-12.316 9.0391-10.688 16.566l6.832 31.602z" fill="#ea5b0a"></path><path d="m627.32 180.11c0 0.62891 33.484-7.0156 34.551-7.1562 17.844-4.1836 12.082-30.812-5.9023-27.258 0 0-31.602 6.832-31.602 6.832-16.125 3.3711-13.359 27.746 2.9297 27.582z" fill="#ea5b0a"></path><path d="m757.35 211.04c-7.5273 1.625-12.316 9.0391-10.688 16.566l6.832 31.625c1.6016 7.5742 9.25 12.34 16.566 10.688 7.5273-1.625 12.316-9.0391 10.688-16.566l-6.832-31.625c-1.625-7.5273-9.0391-12.293-16.566-10.688z" fill="#ea5b0a"></path><path d="m812 126.24c1.6016 7.5742 9.25 12.34 16.566 10.688 0 0 31.625-6.832 31.625-6.832 7.5273-1.625 12.316-9.0391 10.688-16.566-1.625-7.5273-9.0391-12.316-16.566-10.688l-31.625 6.832c-7.5273 1.625-12.316 9.0391-10.688 16.566z" fill="#ea5b0a"></path><path d="m645.77 95.688c5.0664 2.5547 18.82 14.176 24.84 13.383 13.336 0.51172 19.285-18.684 7.5742-25.652l-17.289-11.152c-15.57-9.668-30.348 13.246-15.105 23.422z" fill="#ea5b0a"></path><path d="m684.36 205.43c-6.043 10.875-22.238 25.535-6.9961 36.551 6.3906 4.1367 15.082 2.3711 19.262-4.1602l11.152-17.289c9.668-15.57-13.246-30.348-23.422-15.105z" fill="#ea5b0a"></path><path d="m821.5 175.81c-15.57-9.668-30.348 13.27-15.105 23.445l17.289 11.129c15.5 9.668 30.371-13.223 15.105-23.445l-17.289-11.129z" fill="#ea5b0a"></path><path d="m780.95 81.375c16.219 9.3633 23.051-11.523 30.395-21.492 4.1602-6.4844 2.3008-15.105-4.1836-19.262-6.4844-4.1602-15.105-2.3008-19.262 4.1836-6.0195 10.898-22.215 25.582-6.9492 36.574z" fill="#ea5b0a"></path><path d="m265.73 358.45c14.199 5.4141 39.152 4.5078 45.055 4.207l151.34 0.51172-15.988 54.328c-43.871-70.777-91.156 87.301-86.926 142.62-51.746 34.32-89.832 73.777-110.88 114.88h-53.723v-195.09c0-7.6914-6.25-13.941-13.941-13.941-7.6914 0-13.941 6.25-13.941 13.941v195.09h-28.977c-7.6914 0-13.941 6.25-13.941 13.941-0.37109 113.62 38.805 223.95 109.79 312.2 294.64 365.25 886.29 156.2 887.49-312.2-0.95312-13.547-11.758-14.617-22.98-13.941l-0.003906-510c0-5.3438-3.043-10.199-7.8555-12.547-4.8086-2.3242-10.504-1.7188-14.707 1.5586l-88.996 69.824v-34.645h21.309c4.9023 0 9.4336-2.5547 11.945-6.7617l34.531-57.512c5.668-8.8281-1.4414-21.445-11.945-21.121h-80.281c-4.9023 0-9.4336 2.5547-11.945 6.7617l-34.531 57.512c-5.668 8.8281 1.4414 21.445 11.945 21.121h31.09v56.512l-71.754 56.301c-3.3711 2.6484-5.3438 6.6914-5.3438 10.969v77.492c-88.578 0.55859-63.062-13.594-66.945 99.035-8.3438-3.3008-16.938-6.2734-25.746-8.9219 10.223-54.84-29.953-181.22-63.457-180.06-29.953-2.5078-68.664 109.61-64.691 164.35-1.625 0.046875-3.2773 0.11719-4.9258 0.16406l-98.477-334.44c-3.3906-13.059-23.352-13.105-26.746 0l-36.133 122.71c-14.801-14.988-30.625-20.984-50.516-18.309-20.332-74.309-125.22-67.758-137.54 8.0859-75.797-22.332-113.28 84.812-40.688 115.32zm704.29-226.74h47.75l-17.801 29.625h-47.75zm-342.74 335.19c-20.145 1.8359-40.547 4.832-60.949 8.9922l-49.445-65.945c-5.2031-7.3438-17.078-7.3672-22.309 0 0 0-28.254 37.668-28.254 37.668 6.2969-21.402 30.395-103.26 36.227-123.04l25.117-11.223 13.824 26.84c1.9766 3.8359 5.6016 6.5312 9.8281 7.3203 4.1836 0.78906 8.5977-0.41797 11.805-3.2773l22.191-19.703 41.918 142.37zm-191.21 208.08v-41.035c0.65234 0.09375 1.3242 0.14062 2 0.14062h53.723v40.895zm29.883-68.781 30.113-40.152c6.9727-8.6914 0-22.68-11.152-22.309h-15.57l26.746-35.668c6.9727-8.6914 0-22.68-11.152-22.309h-12.363l33.16-44.219 33.16 44.219c-0.83594-0.023437-12.871-0.023437-13.27 0.070313-8.2266 0.32422-14.547 8.7383-12.711 16.754-0.74219 3.3711 27.281 37.828 29.207 41.152h-15.59c-11.129-0.34766-18.125 13.617-11.152 22.309 0 0 30.113 40.152 30.113 40.152zm-43.918-174.57c5.4141 7.0156 16.961 32.32 21.402 46.496l-9.9219 13.223c-6.9727 8.6914 0 22.68 11.152 22.309h8.5273c0.27734 1.3711 0.55859 2.7422 0.8125 4.0664l-23.703 31.602c-3.1602 4.2305-3.6719 9.875-1.3242 14.594 4.2539 10.133 18.52 7.4141 27.094 7.7148-0.070312 0.55859-0.16406 1.0703-0.25391 1.6016l-24.723 32.973c-21.844 1.8359-38.828 2.6016-43.547-40.199-5.8555-45.613 20.402-114.51 34.508-134.4zm-58.254 159.12c7.0391 24.516 21.91 38.875 44.406 42.895v41.359h-127.85c18.172-29.535 46.496-58.16 83.441-84.254zm-113.32 386.7c-13.012-16.754-24.91-34.391-35.527-52.699 29.672 6.2734 67.223 13.688 85.324 38.617-13.848 8.6445-33.273 12.852-49.797 14.059zm21.121 25.352c18.75-4.8086 44.59-8.9922 54.375-28.395 16.52-54.699-93.504-76.191-127.54-80.77-28.977-59.855-44.613-123.9-46.52-190.75h419c-13.777 45.938-38.504 47.891-80.957 42.73-50.238-3.625-79.121 27.305-67.082 75.078 3.3906 14.035 9.9688 27.676 12.453 41.312 3.5547 22.027-0.95312 44.871 10.781 66.758 19.285 37.316 70.895 41.012 109.07 34.762 15.336-1.6719 36.344-3.9961 51.84-17.66 23.887-19.238 22.375-58.906 23.816-88.32 13.57-99.242 100.91-76.285 125.8-154.66h128.87c0.67578 22.145 14.641 43.5 35.969 51.562 8.1094 3.6719 24.629 4.4609 28.977 10.293 2.4844 6.5508 0.46484 16.566 2.9492 24.586 5.625 21.98 28.07 33.484 47.844 35.133 22.98 2.9062 52.027-10.246 72.031 0.46484-6.7148 22.285-15.148 44.031-25.141 65.062-21.609 7.4141-44.984 9.8281-67.641 6.9961-17.637-2.2305-35.391-6.7383-54.234 0.69531-17.312 7.0625-26.398 20.844-38.504 32.184-20.656 18.961-52.98 24.305-78.633 13.035-6.6914-2.9727-13.336-6.5078-22.887-6.043-28.559 3.5312-34.203 34.508-56.254 44.684-29.301 14.152-28.836-15.777-50.262-26.793-52.188-21.332-112.56 60.855-115.95 110.61-3.6016 25.91 14.242 42.082 35.414 34.809 10.363 10.176-11.27 37.992-2.7188 58.836-125.15-6.8086-241.27-62.621-324.87-156.2zm328.05-299.91h127.12c-13.477 30.859-46.242 38.41-70.895 57.836-29.16 22.262-48.891 57.371-52.746 93.875-3.4141 24.051 4.043 50.957-14.5 70.336-14.152 12.5-65.246 14.918-84.977 11.641-30.949-5.9258-39.387-25.863-38.758-54.418 0.11719-16.938-3.4844-35.598-9.6445-51.258-4.4844-15.266-12.617-29.977-2.5312-47.309 21.91-22.191 63.344-0.09375 92.297-11.504 27.324-8.6445 47.172-34.133 54.629-69.199zm390.23 0h103.15c-0.92969 31.996-5.1367 63.668-12.41 94.594-9.2031-3.7422-20.262-5.2734-33.09-4.5078-21.191 0.60547-56.094 13.293-67.082-10.527-1.7891-10.223 0.62891-20.562-5.7852-31.625-16.406-28.324-57.277-9.7578-61.09-47.938h76.332zm-80.793 359.56c-80.676 62.02-176.83 95.523-278.56 97.199-1.207-2.3008-3.0898-4.2969-5.5312-5.668-8.0156-11.293 6.5508-31.23 5.1836-45.777 0.83594-20.562-17.938-41.246-38.805-34.902 1.7656-35.969 24.652-70.5 55.281-88.879 8.668-5.1367 16.242-6.9727 20.309-4.8789 7.7148 5.2734 11.945 17.102 20.68 23.562 31.855 24.398 70.082-0.11719 90.461-29.254 7.9922-9.457 7.9922-11.504 19.82-5.4141 35.48 15.59 80.188 8.1797 108.72-18.008 9.7812-8.6445 18.984-22.285 30.09-26.883 10.734-4.4844 27.141-0.46484 40.34 1.1172 17.824 2.2305 35.992 1.6953 53.676-1.4414-30.883 53.629-72.266 101.29-121.64 139.23zm0.41797-742.64 160.75-126.13v83.883h-39.039c-7.6914 0-13.941 6.25-13.941 13.941s6.25 13.941 13.941 13.941h39.039v29.07h-39.039c-7.6914 0-13.941 6.25-13.941 13.941s6.25 13.941 13.941 13.941h39.039v29.047h-39.039c-7.6914 0-13.941 6.25-13.941 13.941 0 7.6914 6.25 13.941 13.941 13.941h39.039v29.047h-39.039c-7.6914 0-13.941 6.25-13.941 13.941s6.25 13.941 13.941 13.941h39.039v29.047h-39.039c-7.6914 0-13.941 6.25-13.941 13.941 0 7.6914 6.25 13.941 13.941 13.941h39.039v29.047h-39.039c-7.6914 0-13.941 6.25-13.941 13.941s6.25 13.941 13.941 13.941h39.039v29.047h-39.039c-7.6914 0-13.941 6.25-13.941 13.941 0 7.6914 6.25 13.941 13.941 13.941h39.039v27.953h-66.434v-270.54c0-7.6914-6.25-13.941-13.941-13.941h-80.375zm-66.945 98.594h133.38v256.6h-133.38zm-27.883 256.6h-294.96v-40.895h53.699c5.2734 0 10.109-2.9727 12.477-7.7148 2.3711-4.7188 1.8594-10.363-1.3242-14.594l-30.113-40.152c8.7383-0.39453 23.723 2.6719 28.07-7.7148 2.3711-4.7188 1.8594-10.387-1.3242-14.594l-26.77-35.668c10.527 0.1875 24.121 1.6953 26.164-12.129 28.188-5.25 55.652-8.2266 83.605-8.8281 6.5977 28.465 22.445 44.984 47.309 49.309v65.574c0 7.6914 6.25 13.941 13.941 13.941s13.941-6.25 13.941-13.941v-65.598c20.168-3.4844 34.414-14.988 42.594-34.344 11.34 3.4609 22.262 7.5273 32.672 12.129v155.22zm-89.203-342.6c16.43 22.352 47.285 107.84 33.926 154.92-5.6016 23.215-17.613 27.977-33.949 27.977-14.941 0-31.277-2.9727-35.832-38.387-8.0391-47.238 20.773-123.64 35.832-144.48zm-181.48-148.48 32.695 111.05-18.566 16.496-11.641-22.609c-3.3906-6.5742-11.316-9.3633-18.078-6.3438l-15.453 6.9023 31.066-105.49zm-269.66 86.648c11.922-5.1836 27.324-2.3711 36.621 6.7148 9.457 9.8047 26.906-0.14062 23.281-13.27-3.6719-15.125 3.207-34.785 15.66-44.73 27.723-21.98 69.105-1.4883 68.43 33.902-0.11719 5.0664 2.5312 9.7812 6.9023 12.363 4.3672 2.5547 9.7812 2.5547 14.152-0.023437 17.891-9.9453 39.293 3.7422 44.52 23.816l-13.547 46.008c-25.84-1.5352-172.93 2.6016-194.68-2.9062-27.488-10.574-28.348-50.027-1.3711-61.832z" fill="#ea5b0a"></path><path d="m160.31 418.61c3.9023 17.938 30.602 12.594 27.348-5.4141l-24.957-126.22c-3.8359-17.867-30.602-12.664-27.348 5.4141l24.957 126.22z" fill="#ea5b0a"></path><path d="m62.043 549.73c3.6953 6.1094 102.26-86.789 106-88.184 13.641-12.035-4.5781-32.949-18.355-20.984l-96.828 84.742c-9.7578 7.9453-3.1836 24.91 9.1797 24.445z" fill="#ea5b0a"></path><path d="m196.54 455.9 121.78 41.5c1.4883 0.51172 2.9961 0.74219 4.5078 0.74219 15.312 0.25391 19.309-22.285 4.4844-27.141l-121.78-41.5c-17.402-5.625-26.281 20.168-8.9922 26.398z" fill="#ea5b0a"></path><path d="m869.04 479.97h40.176c18.309-0.30078 18.332-27.582 0-27.883h-40.176c-18.309 0.30078-18.332 27.582 0 27.883z" fill="#ea5b0a"></path><path d="m869.04 536.9h40.176c18.309-0.30078 18.332-27.582 0-27.883h-40.176c-18.309 0.30078-18.332 27.582 0 27.883z" fill="#ea5b0a"></path><path d="m869.04 593.86h40.176c18.309-0.30078 18.332-27.582 0-27.883h-40.176c-18.309 0.30078-18.332 27.582 0 27.883z" fill="#ea5b0a"></path><path d="m909.22 650.79c18.309-0.30078 18.332-27.582 0-27.883h-40.176c-18.309 0.30078-18.332 27.582 0 27.883h40.176z" fill="#ea5b0a"></path></svg>