<svg xmlns="http://www.w3.org/2000/svg" width="1200pt" height="1200pt" viewBox="0 0 1200 1200"><path d="m870.7 536.16v-0.33594-1.1992-0.097656-1.332-0.34766c0-0.34766-0.097656-0.69531-0.16797-1.043-0.070313-0.34766-0.097656-0.39453-0.14453-0.60156-0.046874-0.20312-0.12109-0.49219-0.19141-0.74219-0.070312-0.25391-0.16797-0.49219-0.25391-0.74219-0.085938-0.25391-0.13281-0.37109-0.20312-0.55078-0.070313-0.17969-0.23828-0.51562-0.35938-0.76953-0.12109-0.25391-0.14453-0.32422-0.22656-0.48047-0.085938-0.15625-0.27734-0.48047-0.42188-0.70703-0.14453-0.22656-0.19141-0.33594-0.30078-0.49219s-0.27734-0.40625-0.43359-0.61328c-0.15625-0.20312-0.25391-0.34766-0.39453-0.51562-0.14453-0.16797-0.27734-0.32422-0.42188-0.49219-0.14453-0.16797-0.32422-0.37109-0.50391-0.55078l-0.40625-0.38281c-0.20312-0.19141-0.40625-0.38281-0.625-0.5625l-0.44141-0.28125c-0.22656-0.17969-0.45703-0.35937-0.69531-0.52734l-0.50391-0.30078-0.70703-0.42188-0.63672-0.32422-0.60156-0.28906-0.92578-0.34766-0.39453-0.14453c-0.38281-0.12109-0.79297-0.22656-1.1992-0.3125h-0.17969v0.003906c-0.36328-0.078125-0.73438-0.14062-1.1016-0.17969l-0.35938-0.058593h-0.50391-0.99609l-114.33-0.003907c-3.8164 0-7.4805 1.5195-10.18 4.2188-2.7031 2.7031-4.2188 6.3633-4.2188 10.184 0.17188 9.2461-3.3789 18.176-9.8594 24.777-6.4766 6.5977-15.34 10.316-24.586 10.316-9.25 0-18.109-3.7188-24.59-10.316-6.4766-6.6016-10.031-15.531-9.8555-24.777 0-3.8203-1.5195-7.4805-4.2188-10.184-2.6992-2.6992-6.3633-4.2188-10.184-4.2188h-83.387v-70.859c18.648-4.3555 34.316-16.938 42.598-34.207 8.2812-17.27 8.2812-37.363 0-54.633-8.2812-17.27-23.949-29.852-42.598-34.207v-141.01c0-3.8203-1.5156-7.4805-4.2188-10.184-2.6992-2.6992-6.3633-4.2148-10.18-4.2148-182.02 0-330.1 137.62-330.1 306.77v-0.003907c0.074218 62.766 20.492 123.82 58.188 174 59.652 80.363 62.52 137.64 62.52 231.97v68.184c0.027343 21.887 8.7344 42.871 24.211 58.348 15.477 15.477 36.461 24.18 58.352 24.199h3.0586v38.402c0.042969 17.777 7.1328 34.816 19.711 47.379 12.582 12.562 29.625 19.629 47.406 19.652h113.35c17.785-0.027344 34.832-7.1055 47.41-19.684 12.574-12.574 19.652-29.625 19.68-47.41v-38.398h3.0625c21.875-0.023437 42.852-8.7188 58.328-24.18 15.477-15.465 24.188-36.43 24.23-58.309v-68.184c0-94.32 2.9023-151.61 62.531-231.93 25.379-33.895 43.098-72.898 51.938-114.31 0-0.30078 0.10938-0.61328 0.14453-0.92578 0.039063-0.16797 0.066407-0.34375 0.082031-0.51562zm-338.4-336v139.05c-0.019531 3.8242 1.4922 7.5 4.1953 10.203 2.7031 2.707 6.3789 4.2188 10.203 4.1992 12.309 0 23.684 6.5664 29.836 17.227 6.1562 10.656 6.1562 23.789 0 34.449-6.1523 10.66-17.527 17.227-29.836 17.227-3.8203 0-7.4805 1.5195-10.184 4.2188-2.6992 2.6992-4.2148 6.3633-4.2148 10.184v83.438l-70.789-0.003906c-4.3555-18.648-16.938-34.316-34.207-42.598s-37.363-8.2812-54.633 0-29.852 23.949-34.207 42.598h-89.715c-2.3203-14.012-3.4883-28.191-3.4883-42.395 0-148.92 127.46-270.82 286.99-277.77zm-234.5 434.64c-19.246-25.781-33.664-54.828-42.566-85.742h96c3.8203 0 7.4844-1.5156 10.184-4.2148 2.6992-2.7031 4.2188-6.3633 4.2188-10.184 0.22656-12.152 6.8398-23.289 17.406-29.301 10.562-6.0117 23.516-6.0117 34.078 0 10.566 6.0117 17.18 17.148 17.406 29.301 0 3.8203 1.5195 7.4805 4.2188 10.184 2.6992 2.6992 6.3633 4.2148 10.184 4.2148h83.438v70.727l-0.003906 0.003906c-18.656 4.3477-34.336 16.93-42.621 34.203-8.2852 17.273-8.2852 37.375 0 54.652 8.2852 17.273 23.965 29.855 42.621 34.203v126.61h-166.36c-0.51562-89.547-6.5625-151.63-68.207-234.66zm343.85 438.11c-0.015625 10.176-4.0703 19.926-11.27 27.117-7.1992 7.1875-16.957 11.223-27.133 11.223h-113.3c-10.164-0.015625-19.906-4.0586-27.094-11.246s-11.23-16.93-11.246-27.094v-38.398h190.04zm85.621-120.89c-0.019531 14.266-5.6992 27.945-15.785 38.031-10.09 10.086-23.77 15.762-38.035 15.777h-253.64c-14.266-0.023437-27.938-5.6992-38.02-15.785-10.086-10.086-15.758-23.762-15.777-38.023v-53.82h361.26zm68.184-317.22c-61.645 83.051-67.703 145.14-68.148 234.68h-166.31v-139.37c0-3.8203-1.5156-7.4844-4.2188-10.184-2.6992-2.6992-6.3633-4.2188-10.18-4.2188-12.156-0.22656-23.289-6.8398-29.301-17.406-6.0117-10.562-6.0117-23.516 0-34.078 6.0117-10.566 17.145-17.18 29.301-17.406 3.8164 0 7.4805-1.5156 10.18-4.2188 2.7031-2.6992 4.2188-6.3633 4.2188-10.18v-83.391h70.727c4.3516 18.66 16.934 34.336 34.207 42.621s37.375 8.2852 54.648 0c17.273-8.2852 29.855-23.961 34.207-42.621h83.23c-8.8711 30.934-23.297 59.992-42.562 85.766zm178.56-201.83c0.43359-0.52734 0.83594-1.082 1.1992-1.6562l0.20312-0.34766c0.38672-0.625 0.72266-1.2773 0.99609-1.957v-0.16797c0.32422-0.80469 0.57422-1.6328 0.74609-2.4844 4.1289-19.582 6.2227-39.543 6.2383-59.555 0.097656-169.19-147.98-306.8-330-306.8-3.8164 0-7.4805 1.5156-10.18 4.2188-2.7031 2.6992-4.2188 6.3633-4.2188 10.18v153.69c0 3.8164 1.5156 7.4805 4.2188 10.18 2.6992 2.7031 6.3633 4.2188 10.18 4.2188 12.309 0 23.684 6.5664 29.836 17.227 6.1562 10.66 6.1562 23.793 0 34.449-6.1523 10.66-17.527 17.227-29.836 17.227-3.8164 0-7.4805 1.5195-10.18 4.2188-2.7031 2.6992-4.2188 6.3633-4.2188 10.184v97.812c0 3.8164 1.5156 7.4805 4.2188 10.18 2.6992 2.7031 6.3633 4.2188 10.18 4.2188h85.105c4.3555 18.652 16.938 34.316 34.207 42.598s37.363 8.2812 54.633 0 29.852-23.945 34.207-42.598h101.73c0.69922-0.003906 1.3945-0.066406 2.0859-0.17969h0.41016c0.69141-0.12891 1.3711-0.30859 2.0391-0.53906l0.33594-0.12109c0.67969-0.25 1.3438-0.55078 1.9805-0.89844l0.12109-0.070313-0.003906-0.003906c0.625-0.35156 1.2188-0.75391 1.7773-1.1992l0.16797-0.12109c0.54687-0.44531 1.0586-0.92969 1.5352-1.4531zm-174 25.043c-9.1211-0.023437-17.859-3.6562-24.309-10.105-6.4453-6.4492-10.078-15.191-10.094-24.309 0-3.8203-1.5195-7.4844-4.2188-10.184-2.6992-2.6992-6.3633-4.2188-10.184-4.2188h-83.445v-70.801c18.648-4.3555 34.316-16.938 42.598-34.207 8.2812-17.27 8.2812-37.363 0-54.633-8.2812-17.27-23.949-29.852-42.598-34.207v-126.28c159.53 6.9258 286.99 128.85 286.99 277.71-0.015626 14.199-1.1953 28.375-3.5273 42.383h-102.38c-3.8203 0-7.4805 1.5156-10.184 4.2188-2.6992 2.6992-4.2148 6.3633-4.2148 10.18-0.015625 9.125-3.6445 17.875-10.094 24.328-6.4531 6.4531-15.199 10.086-24.324 10.102z"></path></svg>